<?xml version="1.0" encoding="UTF-8"?>
<svg width="180px" height="29px" viewBox="0 0 180 29" version="1.1" xmlns="http://www.w3.org/2000/svg" xmlns:xlink="http://www.w3.org/1999/xlink">
    <!-- Generator: sketchtool 49.3 (51167) - http://www.bohemiancoding.com/sketch -->
    <title>52A07883-4756-4914-9D60-E46AA423858A</title>
    <desc>Created with sketchtool.</desc>
    <defs></defs>
    <g id="Desktop" stroke="none" stroke-width="1" fill="none" fill-rule="evenodd">
        <g id="1.0-home" transform="translate(-1118.000000, -3296.000000)">
            <g id="partners" transform="translate(0.000000, 3224.000000)">
                <g id="bitcoincom-logo" transform="translate(1096.000000, 48.000000)">
                    <rect id="Rectangle-10" x="0" y="0" width="224" height="80"></rect>
                    <path d="M97.097779,40.2601052 C96.642779,38.1071052 95.354779,36.6181052 93.249779,35.9361052 C91.169779,35.2631052 89.263779,35.7021052 87.669779,37.1711052 C86.013779,38.7011052 85.529779,40.6381052 85.899779,42.8511052 C86.352779,45.5641052 88.828779,47.6731052 91.139779,47.5891052 C93.193779,47.5921052 94.635779,46.9761052 95.758779,45.6731052 C97.114779,44.1011052 97.519779,42.2611052 97.097779,40.2601052 Z M100.484779,41.2931052 C100.574779,44.0231052 99.634779,46.3011052 97.621779,48.1431052 C96.399779,49.2611052 94.144779,50.4511052 92.031779,50.3731052 C88.425779,50.3451052 85.914779,49.1731052 84.096779,46.6631052 C83.061779,45.2361052 82.591779,43.6151052 82.553779,41.8431052 C82.511779,39.8121052 83.036779,37.9781052 84.256779,36.3511052 C85.579779,34.5871052 87.362779,33.5281052 89.486779,33.0871052 C92.078779,32.5501052 94.543779,32.9461052 96.751779,34.4531052 C99.144779,36.0871052 100.386779,38.3761052 100.484779,41.2931052 Z M169.763779,40.8401052 C169.373779,37.0541052 165.795779,34.9701052 162.567779,35.8671052 C160.086779,36.5551052 158.277779,38.9241052 158.367779,41.6201052 C158.398779,42.0301052 158.390779,42.4471052 158.470779,42.8461052 C159.066779,45.7961052 161.494779,47.7921052 164.490779,47.5741052 C166.323779,47.4421052 167.755779,46.6171052 168.784779,45.1111052 C169.666779,43.8221052 169.923779,42.3811052 169.763779,40.8411052 L169.763779,40.8401052 Z M173.100779,41.6121052 C173.125779,45.7831052 170.316779,49.3041052 166.153779,50.1601052 C163.043779,50.7981052 160.193779,50.1591052 157.813779,47.9851052 C156.323779,46.6251052 155.494779,44.8831052 155.200779,42.8671052 C154.942779,41.1131052 155.172779,39.4431052 155.936779,37.8651052 C157.290779,35.0681052 159.563779,33.4981052 162.610779,33.0051052 C164.918779,32.6321052 167.090779,33.0331052 169.060779,34.2791052 C171.735779,35.9721052 173.049779,38.4551052 173.100779,41.6121052 Z M38.813779,41.6271052 C38.227779,40.1541052 36.867779,39.2911052 35.069779,39.2821052 C32.821779,39.2711052 30.572779,39.2781052 28.324779,39.2821052 C28.162779,39.2821052 27.982779,39.2281052 27.832779,39.3901052 L27.832779,47.4091052 C30.514779,47.4091052 33.122779,47.4341052 35.729779,47.3941052 C36.565779,47.3821052 37.316779,47.0301052 37.927779,46.4181052 C39.092779,45.2511052 39.466779,43.2681052 38.813779,41.6271052 Z M27.830779,36.5071052 C30.340779,36.5071052 32.778779,36.5581052 35.213779,36.4851052 C36.429779,36.4481052 37.324779,35.7531052 37.849779,34.6201052 C38.166779,33.9371052 38.182779,33.2201052 38.145779,32.4921052 C38.063779,30.8761052 37.195779,29.8621052 35.622779,29.4921052 C35.2457143,29.4106104 34.860485,29.3730271 34.474779,29.3801052 C32.444779,29.3751052 30.415779,29.3751052 28.384779,29.3801052 C28.202779,29.3801052 27.998779,29.3121052 27.830779,29.4891052 L27.830779,36.5071052 Z M42.447779,42.3831052 C42.719779,44.1811052 42.410779,45.9131052 41.316779,47.4231052 C40.261779,48.8761052 38.848779,49.7621052 37.054779,50.0501052 C36.065779,50.2101052 35.077779,50.1671052 34.087779,50.1921052 C33.873779,50.1981052 33.657779,50.1931052 33.340779,50.1931052 C33.340779,50.8361052 33.350779,51.3901052 33.337779,51.9431052 C33.326779,52.5611052 33.125779,52.7711052 32.513779,52.7881052 C31.933779,52.8031052 31.351779,52.8061052 30.772779,52.7861052 C30.254779,52.7681052 30.024779,52.5391052 30.005779,52.0231052 C29.983779,51.4451052 29.999779,50.8651052 29.999779,50.2481052 C29.271779,50.1451052 28.583779,50.2021052 27.808779,50.2061052 C27.808779,50.7721052 27.814779,51.2961052 27.807779,51.8211052 C27.797779,52.5661052 27.591779,52.7791052 26.870779,52.7901052 C26.362779,52.7971052 25.854779,52.7981052 25.345779,52.7901052 C24.669779,52.7791052 24.480779,52.5961052 24.469779,51.9351052 C24.459779,51.3821052 24.466779,50.8291052 24.466779,50.2581052 C24.136779,50.1551052 23.846779,50.1941052 23.563779,50.1961052 C21.937779,50.2061052 21.984779,50.2861052 22.005779,48.5981052 C22.006779,48.4531052 22.000779,48.3071052 22.005779,48.1621052 C22.030779,47.6521052 22.190779,47.4651052 22.705779,47.4421052 C23.259779,47.4181052 23.815779,47.4361052 24.418779,47.4361052 L24.418779,29.4361052 C23.898779,29.3021052 23.345779,29.4001052 22.799779,29.3801052 C22.113779,29.3541052 22.014779,29.2651052 22.006779,28.5661052 C22.001779,28.1061052 22.010779,27.6461052 22.004779,27.1861052 C21.998779,26.7901052 22.186779,26.6111052 22.579779,26.6161052 C23.180779,26.6251052 23.780779,26.6191052 24.466779,26.6191052 C24.466779,26.0211052 24.461779,25.4721052 24.468779,24.9221052 C24.477779,24.1941052 24.648779,24.0191052 25.358779,24.0081052 C25.8913909,23.9972983 26.4241672,23.9972983 26.956779,24.0081052 C27.556779,24.0241052 27.786779,24.2461052 27.804779,24.8441052 C27.820779,25.3991052 27.808779,25.9561052 27.808779,26.5651052 L29.952779,26.5651052 C30.057779,26.0711052 29.983779,25.5411052 29.996779,25.0201052 C30.016779,24.2001052 30.199779,24.0121052 31.034779,24.0061052 C31.397779,24.0041052 31.760779,24.0061052 32.124779,24.0061052 C33.238779,24.0061052 33.339779,24.1061052 33.340779,25.1891052 L33.340779,26.6291052 C33.980779,26.6291052 34.555779,26.6151052 35.128779,26.6321052 C36.100779,26.6621052 37.041779,26.8391052 37.962779,27.1621052 C40.656779,28.1021052 41.901779,30.9481052 41.552779,33.4421052 C41.292779,35.3021052 40.392779,36.7481052 38.746779,37.6701052 C38.766779,37.8661052 38.916779,37.8611052 39.006779,37.8961052 C41.065779,38.6951052 42.132779,40.2891052 42.447779,42.3831052 Z M126.597779,36.3481052 C126.228779,35.2131052 125.630779,34.2511052 124.560779,33.6361052 C123.921779,33.2681052 123.234779,33.1001052 122.513779,32.9731052 C119.623779,32.4611052 116.503779,33.8131052 115.108779,36.4851052 C114.964779,36.4451052 114.998779,36.3091052 114.963779,36.2111052 C114.965779,35.5811052 114.989779,34.9511052 114.968779,34.3231052 C114.947779,33.6211052 114.636779,33.3331052 113.928779,33.2981052 C113.808779,33.2931052 113.687779,33.2961052 113.566779,33.2961052 C112.040779,33.2891052 111.817779,33.5111052 111.816779,35.0471052 C111.816779,39.4051052 111.818779,43.7641052 111.814779,48.1211052 C111.814779,48.4871052 111.866779,48.8421052 111.907779,49.2021052 C111.957779,49.6261052 112.198779,49.8281052 112.589779,49.9401052 C113.044779,50.0701052 113.503779,50.0121052 113.957779,50.0071052 C114.654779,49.9971052 114.973779,49.7051052 115.079779,49.0251052 C115.113779,48.8121052 115.099779,48.5901052 115.099779,48.3731052 C115.103779,46.1221052 115.096779,43.8701052 115.108779,41.6181052 C115.119779,39.1471052 116.748779,36.1711052 120.215779,35.8361052 C121.829779,35.6811052 123.214779,36.2031052 123.596779,38.1261052 C123.722779,38.7541052 123.721779,39.3761052 123.723779,40.0011052 C123.736779,42.7131052 123.733779,45.4251052 123.725779,48.1371052 C123.725779,48.5021052 123.778779,48.8571052 123.821779,49.2171052 C123.869779,49.6031052 124.076779,49.8221052 124.447779,49.9201052 C125.043779,50.0771052 125.646779,50.0521052 126.240779,49.9561052 C126.588779,49.9011052 126.831779,49.6721052 126.925779,49.2911052 C126.986727,49.0329213 127.016606,48.7683793 127.014779,48.5031052 C127.012779,45.5251052 127.035779,42.5471052 127.001779,39.5691052 C126.989779,38.4881052 126.936779,37.3941052 126.597779,36.3491052 L126.597779,36.3481052 Z M201.849779,37.2831052 C201.553779,35.6101052 200.895779,34.1281052 199.252779,33.4291052 C196.832779,32.4001052 194.532779,32.7341052 192.442779,34.3591052 C191.666779,34.9621052 191.074779,35.7301052 190.582779,36.6041052 C190.429779,36.3971052 190.406779,36.2011052 190.337779,36.0231052 C190.053779,35.2971052 189.727779,34.5891052 189.122779,34.0731052 C187.837779,32.9791052 186.321779,32.7011052 184.705779,32.9521052 C182.555779,33.2871052 181.009779,34.5191052 179.908779,36.3551052 C179.701779,36.2631052 179.813779,36.0601052 179.755779,35.9151052 C179.754779,35.3821052 179.781779,34.8461052 179.745779,34.3161052 C179.695779,33.5901052 179.404779,33.3261052 178.689779,33.3001052 C178.350896,33.2875054 178.011662,33.2875054 177.672779,33.3001052 C177.007779,33.3241052 176.697779,33.5941052 176.606779,34.2471052 C176.576779,34.4611052 176.593779,34.6821052 176.593779,34.8991052 L176.593779,46.0211052 C176.593779,46.9171052 176.579779,47.8141052 176.596779,48.7111052 C176.614779,49.6711052 176.967779,50.0031052 177.933779,50.0131052 C178.126779,50.0161052 178.321779,50.0171052 178.514779,50.0131052 C179.534779,49.9961052 179.794779,49.7431052 179.797779,48.7151052 C179.803779,46.6321052 179.785779,44.5481052 179.804779,42.4651052 C179.814779,41.3981052 179.953779,40.3431052 180.357779,39.3451052 C181.072779,37.5731052 182.179779,36.2281052 184.174779,35.8361052 C185.849779,35.5091052 187.238779,36.3411052 187.570779,37.9581052 C187.676779,38.4721052 187.755779,39.0021052 187.753779,39.5391052 C187.742779,42.3491052 187.751779,45.1601052 187.753779,47.9711052 C187.753779,48.3111052 187.742779,48.6501052 187.757779,48.9891052 C187.787779,49.6341052 188.035779,49.9161052 188.665779,50.0011052 C188.904779,50.0331052 189.150779,49.9991052 189.391779,50.0161052 C190.721779,50.1141052 190.965779,49.4601052 190.951779,48.4951052 C190.919779,46.3151052 190.949779,44.1351052 190.941779,41.9541052 C190.936779,40.8441052 191.196779,39.7941052 191.653779,38.8011052 C192.370779,37.2481052 193.479779,36.1071052 195.240779,35.8411052 C197.000779,35.5761052 198.364779,36.2791052 198.668779,38.2731052 C198.76357,38.9431351 198.806697,39.6194622 198.797779,40.2961052 C198.797779,43.1301052 198.794779,45.9651052 198.799779,48.8001052 C198.801779,49.6231052 199.167779,49.9851052 199.986779,50.0121052 C200.204779,50.0201052 200.423779,50.0161052 200.641779,50.0141052 C201.668779,50.0051052 201.995779,49.6881052 201.996779,48.6811052 C201.998779,45.6531052 201.993779,42.6241052 201.999779,39.5961052 C202.001779,38.8201052 201.984779,38.0491052 201.849779,37.2831052 Z M49.796779,26.6861052 C49.226779,26.6021052 48.646779,26.5891052 48.069779,26.7201052 C47.659779,26.8131052 47.454779,27.0531052 47.368779,27.4481052 C47.251779,27.9771052 47.264779,28.5091052 47.341779,29.0321052 C47.436779,29.6731052 47.769779,29.9241052 48.439779,29.9581052 C48.607779,29.9661052 48.777779,29.9601052 48.946779,29.9601052 C50.401779,29.9601052 50.627779,29.7371052 50.626779,28.2931052 C50.626779,28.0991052 50.633779,27.9051052 50.624779,27.7111052 C50.599779,27.1401052 50.339779,26.7661052 49.796779,26.6861052 Z M105.626779,26.6421052 L105.408779,26.6421052 C104.303779,26.6541052 104.008779,26.9441052 103.972779,28.0591052 C103.970779,28.1311052 103.972779,28.2031052 103.972779,28.2761052 C103.960779,29.8361052 104.428779,29.9941052 105.645779,29.9671052 C107.105779,29.9361052 107.295779,29.7701052 107.294779,28.2971052 C107.294779,26.8301052 107.104779,26.6411052 105.626779,26.6421052 Z M133.361779,46.5321052 C133.192779,46.5301052 133.024779,46.5321052 132.855779,46.5321052 L132.855779,46.5341052 C132.614779,46.5341052 132.371779,46.5241052 132.131779,46.5361052 C131.431779,46.5671052 131.129779,46.8651052 131.104779,47.5671052 C131.089779,48.0251052 131.091779,48.4851052 131.104779,48.9431052 C131.124779,49.6001052 131.407779,49.9431052 132.049779,49.9981052 C132.578894,50.0432252 133.110959,50.041552 133.639779,49.9931052 C134.072779,49.9531052 134.382779,49.7171052 134.491779,49.2381052 C134.617779,48.6851052 134.590779,48.1291052 134.547779,47.5831052 C134.486779,46.8131052 134.144779,46.5461052 133.361779,46.5331052 L133.361779,46.5321052 Z M107.261779,34.3331052 C107.239779,34.0441052 107.183779,33.7511052 106.963779,33.5381052 C106.583779,33.1711052 104.714779,33.1981052 104.333779,33.5521052 C104.048779,33.8191052 104.066779,34.1571052 104.065779,34.4941052 L104.065779,46.6171052 C104.065779,47.3911052 104.054779,48.1671052 104.071779,48.9401052 C104.085779,49.6101052 104.312779,49.9091052 104.933779,49.9841052 C105.409779,50.0431052 105.902779,50.0381052 106.379779,49.9911052 C106.884779,49.9411052 107.187779,49.5881052 107.254779,49.0681052 C107.282779,48.8531052 107.269779,48.6331052 107.269779,48.4161052 L107.269779,35.2041052 C107.269779,34.9141052 107.283779,34.6221052 107.261779,34.3341052 L107.261779,34.3331052 Z M50.603779,34.8761052 C50.603779,34.5591052 50.581779,34.2511052 50.494779,33.9451052 C50.381779,33.5451052 50.122779,33.3251052 49.716779,33.3091052 C49.2336771,33.2879526 48.7498809,33.2879526 48.266779,33.3091052 C47.758779,33.3341052 47.494779,33.5971052 47.411779,34.1151052 C47.3497912,34.4718404 47.3170158,34.8330389 47.313779,35.1951052 C47.318779,39.5031052 47.317779,43.8101052 47.313779,48.1181052 C47.313779,48.4831052 47.365779,48.8381052 47.407779,49.1981052 C47.456779,49.6221052 47.693779,49.8261052 48.085779,49.9381052 C48.539779,50.0711052 48.997779,50.0121052 49.453779,50.0071052 C50.151779,49.9991052 50.471779,49.7091052 50.578779,49.0311052 C50.613779,48.8181052 50.599779,48.5971052 50.599779,48.3801052 C50.601779,46.1531052 50.600779,43.9261052 50.600779,41.7001052 C50.600779,39.4261052 50.599779,37.1501052 50.603779,34.8761052 Z M62.339779,47.2571052 C60.489779,47.0471052 59.614779,46.2571052 59.253779,44.4531052 C59.197779,44.1711052 59.194779,43.8761052 59.193779,43.5871052 C59.1891124,41.2384414 59.1884457,38.8897713 59.191779,36.5411052 C59.191779,36.4011052 59.146779,36.2491052 59.258779,36.1341052 C59.370779,36.0441052 59.495779,36.0681052 59.612779,36.0681052 C60.435779,36.0651052 61.257779,36.0781052 62.080779,36.0611052 C62.800779,36.0461052 63.106779,35.7471052 63.135779,35.0611052 C63.179779,34.0211052 63.247779,33.3871052 61.600779,33.4441052 C60.812779,33.4711052 60.020779,33.4491052 59.188779,33.4491052 C59.188779,32.2681052 59.190779,31.1821052 59.188779,30.0941052 C59.185779,28.9861052 58.871779,28.7061052 57.770779,28.6611052 C56.331779,28.6011052 55.946779,28.9841052 56.006779,30.4211052 C56.046779,31.4051052 56.014779,32.3921052 56.014779,33.4511052 C55.584779,33.4511052 55.228779,33.4401052 54.871779,33.4521052 C54.114779,33.4771052 53.823779,33.7681052 53.795779,34.5081052 C53.789779,34.6531052 53.790779,34.7981052 53.795779,34.9441052 C53.818779,35.7691052 54.105779,36.0411052 54.954779,36.0691052 C55.283779,36.0791052 55.622779,36.0051052 55.933779,36.1241052 C56.027779,36.4211052 55.984779,36.6881052 55.985779,36.9511052 C55.990779,39.3961052 55.973779,41.8411052 55.995779,44.2871052 C56.020779,47.2211052 57.679779,49.3021052 60.525779,49.9441052 C61.266779,50.1101052 62.035779,50.2991052 62.811779,50.0341052 C63.160779,49.9161052 63.379779,49.7161052 63.469779,49.3421052 C63.533779,49.0751052 63.529779,48.8131052 63.527779,48.5501052 C63.520779,47.6381052 63.262779,47.3641052 62.339779,47.2571052 Z M78.286779,46.2971052 C76.906779,47.3141052 75.344779,47.7381052 73.641779,47.5551052 C72.144779,47.3951052 70.869779,46.7731052 69.893779,45.5951052 C68.525779,43.9411052 68.195779,42.0321052 68.677779,40.0051052 C69.151779,38.0101052 70.409779,36.6221052 72.369779,35.9621052 C74.283779,35.3181052 76.080779,35.6911052 77.765779,36.7411052 C78.750779,37.3561052 79.075779,37.2891052 79.710779,36.3201052 C80.306779,35.4101052 80.250779,35.0651052 79.369779,34.4701052 C77.336779,33.1001052 75.105779,32.6401052 72.681779,32.9961052 C69.631779,33.4421052 67.394779,35.0171052 66.049779,37.7821052 C65.295779,39.3291052 65.077779,40.9901052 65.277779,42.7151052 C65.484779,44.5211052 66.110779,46.1351052 67.329779,47.4891052 C69.137779,49.5001052 71.429779,50.3901052 74.244779,50.3541052 C76.294779,50.4081052 78.240779,49.7441052 79.972779,48.4211052 C80.598779,47.9431052 80.688779,47.5671052 80.352779,46.8601052 C79.844779,45.7901052 79.359779,45.5061052 78.286779,46.2971052 Z M152.900779,46.8201052 C153.288779,47.5871052 153.257779,47.8301052 152.583779,48.3801052 C151.198779,49.5071052 149.593779,50.1271052 147.826779,50.3171052 C147.444779,50.3571052 147.053779,50.3231052 146.666779,50.3231052 C144.539779,50.3971052 142.622779,49.8011052 140.939779,48.4781052 C139.285779,47.1781052 138.339779,45.4531052 137.951779,43.4161052 C137.627779,41.7261052 137.735779,40.0521052 138.356779,38.4291052 C139.366779,35.7871052 141.240779,34.0591052 143.946779,33.2841052 C146.840779,32.4551052 149.578779,32.8001052 152.078779,34.5671052 C152.748779,35.0411052 152.834779,35.4581052 152.414779,36.1571052 C152.390779,36.1991052 152.357779,36.2361052 152.331779,36.2771052 C151.666779,37.3031052 151.311779,37.3831052 150.271779,36.7021052 C148.005779,35.2171052 145.173779,35.3321052 143.172779,36.9281052 C142.013779,37.8521052 141.362779,39.0861052 141.164779,40.5061052 C140.924779,42.2211052 141.149779,43.8821052 142.256779,45.3231052 C143.319779,46.7101052 144.710779,47.4471052 146.451779,47.5741052 C148.091779,47.6941052 149.556779,47.2391052 150.880779,46.2971052 C151.678779,45.7291052 152.193779,45.4201052 152.900779,46.8201052 Z" id="Shape" fill="#9B9B9B"></path>
                </g>
            </g>
        </g>
    </g>
</svg>