<?xml version="1.0" encoding="UTF-8"?>
<svg width="180px" height="35px" viewBox="0 0 180 35" version="1.1" xmlns="http://www.w3.org/2000/svg" xmlns:xlink="http://www.w3.org/1999/xlink">
    <!-- Generator: sketchtool 49.3 (51167) - http://www.bohemiancoding.com/sketch -->
    <title>1A9F44B6-15DE-4EC4-B44D-FA1466E48DB1</title>
    <desc>Created with sketchtool.</desc>
    <defs></defs>
    <g id="Desktop" stroke="none" stroke-width="1" fill="none" fill-rule="evenodd">
        <g id="1.0-home" transform="translate(-410.000000, -3296.000000)">
            <g id="partners" transform="translate(0.000000, 3224.000000)">
                <g id="coindesk-logo" transform="translate(388.000000, 48.000000)">
                    <rect id="Rectangle-10" x="0" y="0" width="224" height="80"></rect>
                    <path d="M189.586249,42.9179663 L189.694249,42.9179663 L196.813249,35.5479663 L201.321249,35.5479663 L193.378249,43.2379663 L202.001249,52.5059663 L197.350249,52.5059663 L189.694249,43.7059663 L189.586249,43.7059663 L189.586249,52.5059663 L186.223249,52.5059663 L186.223249,25.4579663 L189.586249,25.4579663 L189.586249,42.9179663 Z M180.892249,39.8399663 C180.511249,39.2199663 179.974249,38.7139663 179.283249,38.3199663 C178.590249,37.9269663 177.816249,37.7299663 176.958249,37.7299663 C176.572853,37.7300786 176.188606,37.7719903 175.812249,37.8549663 C175.453127,37.9295849 175.108596,38.0623307 174.792249,38.2479663 C174.493249,38.4279663 174.256249,38.6539663 174.078249,38.9279663 C173.898249,39.2029663 173.809249,39.5429663 173.809249,39.9479663 C173.809249,40.6639663 174.131249,41.1939663 174.775249,41.5399663 C175.419249,41.8859663 176.385249,42.2019663 177.673249,42.4879663 C178.483249,42.6789663 179.235249,42.9059663 179.927249,43.1679663 C180.617249,43.4309663 181.220249,43.7579663 181.733249,44.1509663 C182.231987,44.5280371 182.641384,45.0105051 182.932249,45.5639663 C183.218249,46.1139663 183.362249,46.7579663 183.362249,47.4969663 C183.362249,48.4979663 183.170249,49.3449663 182.789249,50.0369663 C182.421193,50.7137844 181.900829,51.2957699 181.269249,51.7369663 C180.614642,52.1879257 179.879745,52.5093793 179.104249,52.6839663 C178.292249,52.8749663 177.458249,52.9699663 176.599249,52.9699663 C175.304251,52.9687499 174.02206,52.7136026 172.825249,52.2189663 C171.622351,51.7376917 170.567578,50.9478199 169.767249,49.9289663 L172.163249,47.8899663 C172.616249,48.5589663 173.243249,49.1199663 174.042249,49.5719663 C174.840249,50.0249663 175.717249,50.2519663 176.671249,50.2519663 C177.100249,50.2519663 177.512249,50.2099663 177.904249,50.1259663 C178.282542,50.0488344 178.645671,49.910339 178.979249,49.7159663 C179.292607,49.5311548 179.55648,49.2731158 179.748249,48.9639663 C179.938249,48.6539663 180.035249,48.2609663 180.035249,47.7829663 C180.035249,46.9959663 179.659249,46.4109663 178.907249,46.0299663 C178.156249,45.6489663 177.052249,45.2899663 175.597249,44.9569663 C175.011849,44.8093426 174.433281,44.635839 173.863249,44.4369663 C173.291609,44.2419477 172.754081,43.9585057 172.270249,43.5969663 C171.791641,43.2376226 171.395442,42.7800509 171.108249,42.2549663 C170.810249,41.7189663 170.660249,41.0569663 170.660249,40.2699663 C170.660249,39.3629663 170.845249,38.5829663 171.215249,37.9269663 C171.569819,37.2872976 172.065334,36.7367246 172.664249,36.3169663 C173.283761,35.8885193 173.974508,35.5736199 174.704249,35.3869663 C175.474331,35.1832386 176.267675,35.0807091 177.064249,35.0819663 C178.281249,35.0819663 179.455249,35.3209663 180.588249,35.7979663 C181.721249,36.2759663 182.597249,36.9669663 183.218249,37.8729663 L180.892249,39.8399663 Z M165.115249,42.5239663 C165.096161,41.8845181 164.981561,41.2515187 164.775249,40.6459663 C164.585343,40.0827332 164.280963,39.5648803 163.881249,39.1249663 C163.471213,38.6839662 162.971283,38.3361296 162.415249,38.1049663 C161.829249,37.8549663 161.144249,37.7299663 160.356249,37.7299663 C159.642249,37.7299663 158.966249,37.8549663 158.335249,38.1049663 C157.703249,38.3549663 157.155249,38.6949663 156.690249,39.1249663 C156.224249,39.5549663 155.843249,40.0609663 155.545249,40.6449663 C155.246,41.2297399 155.069388,41.8694901 155.026249,42.5249663 L165.116249,42.5249663 L165.115249,42.5239663 Z M168.550249,43.8839663 L168.550249,44.4559663 C168.549896,44.6471878 168.537874,44.8382095 168.514249,45.0279663 L155.026249,45.0279663 C155.050249,45.7389663 155.211249,46.4079663 155.509249,47.0359663 C155.799585,47.6529868 156.20676,48.2078857 156.708249,48.6699663 C157.753636,49.6256052 159.12091,50.1519466 160.537249,50.1439663 C161.680249,50.1439663 162.670249,49.8939663 163.504249,49.3929663 C164.340249,48.8919663 164.996249,48.2829663 165.473249,47.5679663 L167.834249,49.4639663 C166.927249,50.6659663 165.861249,51.5509663 164.632249,52.1189663 C163.404249,52.6859663 162.038249,52.9699663 160.536249,52.9699663 C159.247249,52.9699663 158.055249,52.7559663 156.958249,52.3269663 C155.902167,51.9244788 154.939967,51.3094472 154.131249,50.5199663 C153.344249,49.7449663 152.724249,48.8089663 152.271249,47.7119663 C151.818249,46.6149663 151.591249,45.3979663 151.591249,44.0619663 C151.591249,42.7509663 151.811249,41.5399663 152.254249,40.4309663 C152.696249,39.3219663 153.312249,38.3729663 154.100249,37.5869663 C154.900878,36.7924348 155.852157,36.1658418 156.898249,35.7439663 C158.002706,35.2977064 159.184078,35.0727803 160.375249,35.0819663 C161.618249,35.0819663 162.748249,35.2859663 163.764249,35.6909663 C164.745167,36.0733106 165.627096,36.6722018 166.344249,37.4429663 C167.050249,38.2069663 167.594249,39.1309663 167.976249,40.2169663 C168.358249,41.3019663 168.550249,42.5239663 168.550249,43.8829663 L168.550249,43.8839663 Z M133.810249,44.0079663 C133.810249,44.7929663 133.930249,45.5549663 134.168249,46.2919663 C134.395329,47.0093478 134.759761,47.6757186 135.241249,48.2539663 C135.723689,48.8286158 136.320752,49.2962523 136.994249,49.6269663 C137.686249,49.9719663 138.497249,50.1439663 139.428249,50.1439663 C140.286249,50.1439663 141.067249,49.9779663 141.770249,49.6449663 C142.456494,49.3250819 143.071362,48.8703925 143.578249,48.3079663 C144.084889,47.739175 144.479176,47.0795424 144.740249,46.3639663 C145.016057,45.6217223 145.155628,44.8357901 145.152249,44.0439663 C145.152249,43.2359663 145.015249,42.4629663 144.740249,41.7249663 C144.476397,41.0055972 144.082514,40.3408778 143.578249,39.7639663 C143.075316,39.1926211 142.45979,38.7313172 141.770249,38.4089663 C141.067249,38.0759663 140.286249,37.9089663 139.428249,37.9089663 C138.498249,37.9089663 137.686249,38.0759663 136.994249,38.4089663 C136.319211,38.7292133 135.721259,39.1914065 135.241249,39.7639663 C134.759958,40.3419741 134.395541,41.007978 134.168249,41.7249663 C133.929722,42.4624338 133.808907,43.2328847 133.810249,44.0079663 Z M144.973249,49.8219663 C144.338875,50.8388115 143.426104,51.6523231 142.343249,52.1659663 C141.257184,52.696666 140.06404,52.971691 138.855249,52.9699663 C137.543249,52.9699663 136.362249,52.7379663 135.313249,52.2729663 C134.294596,51.8301623 133.380474,51.1780453 132.630249,50.3589663 C131.876722,49.5260878 131.293432,48.5538246 130.913249,47.4969663 C130.502094,46.3738092 130.295825,45.1859846 130.304249,43.9899663 C130.304249,42.7509663 130.506249,41.5879663 130.913249,40.5019663 C131.298739,39.4492278 131.887972,38.4828052 132.647249,37.6579663 C133.404407,36.843257 134.324731,36.1972246 135.348249,35.7619663 C136.398249,35.3089663 137.554249,35.0819663 138.819249,35.0819663 C140.203249,35.0819663 141.407249,35.3749663 142.432249,35.9589663 C143.458249,36.5429663 144.269249,37.2529663 144.865249,38.0869663 L144.937249,38.0869663 L144.937249,25.4579663 L148.300249,25.4579663 L148.300249,52.5049663 L145.045249,52.5049663 L145.045249,49.8219663 L144.973249,49.8219663 Z M115.135249,35.5469663 C115.183249,35.9769663 115.219249,36.4589663 115.242249,36.9969663 C115.266249,37.5329663 115.279249,37.9799663 115.279249,38.3379663 L115.386249,38.3379663 C115.600249,37.8849663 115.892249,37.4619663 116.262249,37.0679663 C116.632249,36.6739663 117.055249,36.3279663 117.532249,36.0309663 C118.543399,35.4076984 119.708445,35.0790337 120.896249,35.0819663 C121.992249,35.0819663 122.934249,35.2679663 123.721249,35.6369663 C124.508249,36.0069663 125.165249,36.5009663 125.689249,37.1219663 C126.223887,37.7608799 126.619925,38.5039202 126.852249,39.3039663 C127.102249,40.1389663 127.228249,41.0339663 127.228249,41.9869663 L127.228249,52.5049663 L123.865249,52.5049663 L123.865249,43.0969663 C123.865249,42.4049663 123.811249,41.7489663 123.704249,41.1279663 C123.611443,40.5477519 123.411364,39.9899028 123.114249,39.4829663 C122.82741,39.004649 122.420214,38.6098654 121.933249,38.3379663 C121.431249,38.0509663 120.789249,37.9089663 120.001249,37.9089663 C118.665249,37.9089663 117.573249,38.4159663 116.727249,39.4289663 C115.880249,40.4429663 115.457249,41.7959663 115.457249,43.4889663 L115.457249,52.5049663 L112.094249,52.5049663 L112.094249,39.1969663 C112.094249,38.7429663 112.082249,38.1589663 112.058249,37.4429663 C112.039445,36.8101274 112.003766,36.1779026 111.951249,35.5469663 L115.135249,35.5469663 Z M104.331249,52.5049663 L107.694249,52.5049663 L107.694249,35.5469663 L104.331249,35.5469663 L104.331249,52.5049663 Z M108.231249,29.4289663 C108.231249,30.0499663 108.011249,30.5619663 107.574249,30.9689663 C107.147063,31.3698743 106.579976,31.5877361 105.994249,31.5759663 C105.410352,31.5887289 104.846541,31.3626264 104.433249,30.9499663 C104.017264,30.5548927 103.78586,30.0035853 103.795249,29.4299663 C103.795249,28.8099663 104.007249,28.2899663 104.433249,27.8729663 C104.847109,27.4605474 105.411114,27.2345123 105.995249,27.2469663 C106.610249,27.2469663 107.137249,27.4569663 107.574249,27.8729663 C108.011249,28.2909663 108.230249,28.8089663 108.230249,29.4289663 L108.231249,29.4289663 Z M97.605249,44.0099663 C97.605249,43.2009663 97.479249,42.4279663 97.228249,41.6899663 C96.9907289,40.9782932 96.6190254,40.3187317 96.133249,39.7469663 C95.6432596,39.1798637 95.0377388,38.7240183 94.357249,38.4099663 C93.650249,38.0769663 92.843249,37.9099663 91.934249,37.9099663 C91.024249,37.9099663 90.217249,38.0769663 89.511249,38.4099663 C88.8302563,38.7236568 88.224337,39.1795454 87.734249,39.7469663 C87.2487186,40.3191117 86.8773522,40.9790168 86.640249,41.6909663 C86.3875375,42.4375371 86.260149,43.2207904 86.263249,44.0089663 C86.263249,44.8189663 86.389249,45.5919663 86.640249,46.3289663 C86.891249,47.0659663 87.256249,47.7189663 87.734249,48.2909663 C88.2202689,48.8672496 88.8268811,49.3298043 89.511249,49.6459663 C90.217249,49.9789663 91.024249,50.1459663 91.934249,50.1459663 C92.843249,50.1459663 93.650249,49.9789663 94.357249,49.6459663 C95.0411049,49.3294281 95.6473144,48.8669203 96.133249,48.2909663 C96.6168371,47.7105821 96.9881619,47.0452494 97.228249,46.3289663 C97.478249,45.5919663 97.605249,44.8189663 97.605249,44.0089663 L97.605249,44.0099663 Z M101.110249,43.9909663 C101.110249,45.3039663 100.878249,46.5089663 100.413249,47.6059663 C99.9673135,48.6746292 99.3097922,49.6420326 98.480249,50.4499663 C97.6426537,51.2585494 96.6514575,51.8910108 95.565249,52.3099663 C94.444249,52.7509663 93.240249,52.9709663 91.952249,52.9709663 C90.664249,52.9709663 89.459249,52.7509663 88.338249,52.3099663 C87.2556167,51.8938806 86.2694396,51.2609305 85.440249,50.4499663 C84.6205809,49.6377613 83.9700438,48.6711325 83.526249,47.6059663 C83.062249,46.5089663 82.828249,45.3039663 82.828249,43.9909663 C82.828249,42.6799663 83.062249,41.4809663 83.526249,40.3959663 C83.9705586,39.3416662 84.6213327,38.3869256 85.440249,37.5879663 C86.251249,36.7999663 87.217249,36.1869663 88.338249,35.7449663 C89.4903944,35.2983854 90.716616,35.0737704 91.952249,35.0829663 C93.1875419,35.0739448 94.4134036,35.298556 95.565249,35.7449663 C96.6481606,36.1626199 97.6385526,36.7887922 98.480249,37.5879663 C99.3090021,38.3826316 99.9667698,39.3381473 100.413249,40.3959663 C100.878249,41.4809663 101.110249,42.6799663 101.110249,43.9909663 Z M79.610249,39.8409663 C79.251249,39.2929663 78.715249,38.8339663 78.000249,38.4639663 C77.2930924,38.0964443 76.5071991,37.9063199 75.710249,37.9099663 C74.827249,37.9099663 74.045249,38.0769663 73.366249,38.4099663 C72.7014528,38.7322546 72.1106889,39.1888622 71.631249,39.7509663 C71.1462461,40.3252297 70.7758891,40.9871877 70.540249,41.7009663 C70.2881681,42.4503971 70.1614665,43.236285 70.165249,44.0269663 C70.165249,44.8379663 70.289249,45.6139663 70.540249,46.3529663 C70.790249,47.0929663 71.153249,47.7429663 71.630249,48.3029663 C72.1137329,48.8687343 72.7115015,49.3257512 73.384249,49.6439663 C74.075249,49.9789663 74.862249,50.1449663 75.745249,50.1449663 C76.605249,50.1449663 77.385249,49.9789663 78.088249,49.6449663 C78.7646476,49.3330084 79.3587802,48.8672906 79.823249,48.2849663 L82.078249,50.3249663 C81.362249,51.1589663 80.468249,51.8089663 79.394249,52.2739663 C78.321249,52.7389663 77.104249,52.9709663 75.745249,52.9709663 C74.433249,52.9709663 73.223249,52.7569663 72.114249,52.3279663 C71.043636,51.9231453 70.0645321,51.3088256 69.234249,50.5209663 C68.422249,49.7459663 67.785249,48.8099663 67.319249,47.7129663 C66.854249,46.6159663 66.622249,45.3869663 66.622249,44.0269663 C66.622249,42.6919663 66.848249,41.4749663 67.302249,40.3769663 C67.7324492,39.3145075 68.3780031,38.3526459 69.198249,37.5519663 C70.0247089,36.7550624 71.0045517,36.1344953 72.078249,35.7279663 C73.187249,35.2979663 74.386249,35.0829663 75.673249,35.0829663 C76.866249,35.0829663 78.053249,35.3219663 79.233249,35.7989663 C80.413249,36.2769663 81.350249,36.9679663 82.042249,37.8739663 L79.609249,39.8409663 L79.610249,39.8409663 Z M37.810249,41.9209663 C37.792249,42.7889663 38.548249,43.5829663 39.400249,43.5899663 C40.276249,43.5959663 41.000249,42.8559663 40.998249,41.9549663 C40.998249,41.0859663 40.306249,40.3469663 39.472249,40.3249663 C38.613249,40.2999663 37.829249,41.0539663 37.811249,41.9209663 L37.810249,41.9209663 Z M52.273249,52.9069663 C51.361249,52.9029663 50.647249,53.6099663 50.653249,54.5099663 C50.660249,55.3979663 51.394249,56.1029663 52.304249,56.0939663 C52.732956,56.0855744 53.1406786,55.9068308 53.4373356,55.5972266 C53.7339927,55.2876225 53.8951669,54.8726407 53.885249,54.4439663 C53.869249,53.6009663 53.144249,52.9099663 52.273249,52.9069663 Z M52.317249,43.4599663 C53.196249,43.4429663 53.909249,42.6849663 53.885249,41.7919663 C53.859249,40.8879663 53.141249,40.2399663 52.197249,40.2699663 C51.291249,40.2969663 50.684249,40.9469663 50.694249,41.8789663 C50.704249,42.8189663 51.380249,43.4769663 52.317249,43.4599663 Z M56.746249,29.4079663 C56.4304334,31.3464963 54.8862129,32.8517664 52.940249,33.1179663 C51.442249,33.3289663 50.177249,32.9079663 49.110249,31.8699663 C48.489249,31.2659663 47.814249,30.7639663 46.967249,30.5439663 C45.318249,30.1189663 43.904249,30.5799663 42.716249,31.7569663 C41.961249,32.5029663 41.102249,32.9839663 40.034249,33.1199663 C38.542249,33.3099663 37.262249,32.8939663 36.209249,31.8429663 C35.609249,31.2449663 34.941249,30.7829663 34.133249,30.5479663 C32.936249,30.1979663 31.786249,30.3729663 30.755249,31.0469663 C28.671249,32.4089663 27.889249,34.5069663 28.803249,36.8279663 C29.016249,37.3699663 29.385249,37.8179663 29.776249,38.2439663 C30.718249,39.2719663 31.184249,40.4609663 31.070249,41.8729663 C30.996249,42.8019663 30.693249,43.6229663 30.107249,44.3429663 C29.917249,44.5749663 29.714249,44.7969663 29.518249,45.0249663 C28.342249,46.3879663 28.098249,47.9449663 28.775249,49.5719663 C29.497249,51.3109663 30.787249,52.3899663 32.762249,52.5059663 C34.169249,52.5889663 35.282249,51.9939663 36.268249,51.0819663 C36.988249,50.4159663 37.830249,50.0499663 38.797249,49.8819663 C40.667249,49.5579663 42.487249,50.6469663 43.277249,51.9819663 C44.214249,53.5619663 44.243249,55.1839663 43.304249,56.7439663 C42.361249,58.3099663 40.894249,59.0329663 39.068249,58.9279663 C37.956249,58.8639663 36.995249,58.4039663 36.209249,57.6029663 C35.749249,57.1349663 35.244249,56.7309663 34.622249,56.4989663 C32.862249,55.8439663 31.272249,56.1209663 29.934249,57.4529663 C28.940249,58.4429663 27.788249,59.0129663 26.382249,58.9309663 C24.560249,58.8259663 23.186249,57.9569663 22.439249,56.2709663 C21.676249,54.5449663 21.911249,52.9079663 23.113249,51.4329663 C23.302249,51.2009663 23.514249,50.9869663 23.717249,50.7659663 C25.245249,49.1059663 25.075249,46.3479663 23.489249,44.8559663 C22.799249,44.2069663 22.334249,43.4259663 22.133249,42.4869663 C21.804249,40.9569663 22.185249,39.6209663 23.192249,38.4479663 C23.437249,38.1639663 23.727249,37.9149663 23.949249,37.6159663 C25.108249,36.0509663 25.173249,33.6079663 23.399249,31.8769663 C22.757249,31.2469663 22.365249,30.4979663 22.138249,29.6239663 C21.637249,27.6989663 22.661249,24.9539663 25.381249,24.2199663 C26.046249,24.0399663 26.701249,24.0399663 27.435249,24.0649663 C28.439249,24.0979663 29.235249,24.6579663 29.985249,25.3269663 C31.850249,26.9859663 33.862249,27.0079663 35.807249,25.4349663 C36.629249,24.7699663 37.475249,24.2429663 38.559249,24.0649663 C39.133249,23.9719663 39.487249,23.9849663 40.212249,24.0649663 C41.313249,24.1869663 42.172249,24.6819663 42.962249,25.4069663 C44.640249,26.9499663 46.958249,26.9799663 48.674249,25.4449663 C49.496249,24.7099663 50.354249,24.1689663 51.487249,24.0649663 C52.0150505,24.0168661 52.5470052,24.0438005 53.067249,24.1449663 C53.547249,24.2319663 53.777249,24.3019663 54.090249,24.4399663 C55.655249,25.1249663 57.128249,26.8339663 56.747249,29.4069663 L56.746249,29.4079663 Z" id="Shape" fill="#9B9B9B"></path>
                </g>
            </g>
        </g>
    </g>
</svg>