<?xml version="1.0" encoding="UTF-8"?>
<svg width="180px" height="42px" viewBox="0 0 180 42" version="1.1" xmlns="http://www.w3.org/2000/svg" xmlns:xlink="http://www.w3.org/1999/xlink">
    <!-- Generator: sketchtool 49.3 (51167) - http://www.bohemiancoding.com/sketch -->
    <title>B713EB44-A589-4530-A749-F8802E3954CD</title>
    <desc>Created with sketchtool.</desc>
    <defs></defs>
    <g id="Desktop" stroke="none" stroke-width="1" fill="none" fill-rule="evenodd">
        <g id="1.0-home" transform="translate(-882.000000, -3291.000000)">
            <g id="partners" transform="translate(0.000000, 3224.000000)">
                <g id="cryprocoinsnews-logo" transform="translate(860.000000, 48.000000)">
                    <rect id="Rectangle-10" x="0" y="0" width="224" height="80"></rect>
                    <path d="M202,21.741 L202,24.053 L201.292,24.053 L201.292,21.831 C201.292,21.076 201.012,20.623 200.427,20.623 C200.016,20.623 199.693,20.923 199.571,21.272 C199.53264,21.3868022 199.512726,21.5069607 199.512,21.628 L199.512,24.053 L198.804,24.053 L198.804,21.701 C198.804,21.076 198.524,20.623 197.972,20.623 C197.519,20.623 197.19,20.979 197.074,21.337 C197.033742,21.4485028 197.014418,21.5664804 197.017,21.685 L197.017,24.053 L196.308,24.053 L196.308,21.191 C196.308,20.785 196.3,20.451 196.276,20.128 L196.91,20.128 L196.943,20.761 L196.967,20.761 C197.189,20.388 197.56,20.039 198.22,20.039 C198.763,20.039 199.175,20.363 199.349,20.825 L199.364,20.825 C199.488,20.607 199.644,20.436 199.809,20.315 C200.048,20.135 200.312,20.039 200.69,20.039 C201.218,20.039 202,20.379 202,21.741 Z M194.455,20.128 L195.493,20.128 L195.493,20.671 L194.455,20.671 L194.455,22.788 C194.455,23.274 194.595,23.55 194.999,23.55 C195.189,23.55 195.329,23.525 195.419,23.502 L195.452,24.036 C195.245648,24.1070628 195.028156,24.1402626 194.81,24.134 C194.471,24.134 194.2,24.028 194.027,23.834 C193.821,23.622 193.747,23.274 193.747,22.812 L193.747,20.671 L193.13,20.671 L193.13,20.127 L193.747,20.127 L193.747,19.187 L194.455,19 L194.455,20.127 L194.455,20.128 Z M85.598,52.763 L77.848,52.763 C77.531,51.594 78.261,49.556 79.191,48.906 C80.454,48.023 82.705,47.993 83.955,48.842 C85.006,49.556 85.897,51.652 85.598,52.762 L85.598,52.763 Z M83.964,46.735 C83.007,46.406 82.036,46.335 81.047,46.392 C78.628,46.529 76.85,47.687 76.122,50.024 C75.465,52.129 75.451,54.274 76,56.395 C76.512,58.375 77.829,59.664 79.858,60.127 C81.908,60.595 83.952,60.451 85.95,59.793 C86.247,59.694 86.566,59.628 86.818,59.332 C86.854,58.776 86.908,58.184 86.8,57.614 C86.536,57.551 86.39,57.667 86.228,57.725 C84.376,58.405 82.481,58.678 80.528,58.248 C79.618,58.048 78.845,57.61 78.366,56.79 C77.979,56.129 77.709,55.427 77.807,54.537 L87.54,54.537 C87.62,54.395 87.658,54.353 87.668,54.305 C87.6880967,54.2027684 87.7001337,54.0991164 87.704,53.995 C87.741,52.881 87.706,51.767 87.372,50.695 C86.815,48.905 85.902,47.402 83.964,46.735 Z M157.097,33.18 C157.107,34.257 157.035,35.185 156.716,36.083 C156.339,37.139 155.534,37.703 154.476,37.924 C153.646,38.098 152.798,38.079 151.956,37.936 C150.594,37.704 149.74,36.835 149.436,35.226 C149.165,33.8 149.181,32.366 149.536,30.946 C149.875,29.593 150.773,28.849 152.141,28.635 C152.855496,28.5198096 153.583936,28.5211605 154.298,28.639 C155.636,28.867 156.521,29.622 156.856,30.946 C157.054,31.724 157.128,32.516 157.097,33.181 L157.097,33.18 Z M156.083,26.85 C154.336,26.177 152.537,26.133 150.757,26.695 C149.001,27.251 147.737,28.357 147.153,30.135 C146.823542,31.1513846 146.672315,32.2170837 146.706,33.285 C146.672,34.467 146.826,35.649 147.273,36.779 C147.658,37.752 148.243,38.577 149.163,39.148 C151.357,40.51 153.681,40.602 156.053,39.756 C157.504,39.238 158.569,38.255 159.106,36.782 C159.85,34.744 159.894,32.677 159.369,30.589 C158.918,28.799 157.831,27.524 156.083,26.849 L156.083,26.85 Z M129.227,35.565 C128.994,36.547 128.407,37.195 127.398,37.448 C126.648,37.636 125.898,37.629 125.151,37.45 C124.036,37.183 123.471,36.42 123.274,35.364 C123.014486,33.9955422 123.01788,32.5901885 123.284,31.223 C123.548,29.877 124.301,29.236 125.696,29.067 C126.222033,29.001419 126.755196,29.0210032 127.275,29.125 C128.358,29.342 128.993,30.021 129.231,31.069 C129.401,31.817 129.437,32.579 129.469,33.329 C129.429,34.089 129.399,34.833 129.227,35.565 Z M132.452,30.641 C131.839,28.525 130.506,27.101 128.294,26.559 C127.2654,26.3095346 126.199761,26.2508973 125.15,26.386 C122.931,26.656 121.247,27.7 120.396,29.775 C119.484,31.998 119.5,34.288 120.282,36.547 C120.821,38.103 121.906,39.207 123.474,39.817 C124.579,40.247 125.739,40.343 126.907,40.261 C129.257,40.095 131.11,39.129 132.105,36.924 C132.627,35.767 132.825,34.534 132.76,33.235 C132.824,32.372 132.7,31.495 132.452,30.641 Z M105.111,35.336 C104.814,36.996 103.72,37.827 101.915,37.792 C101.303,37.78 100.683,37.76 100.079,37.598 C99.953,37.366 99.985,37.172 99.985,36.984 C99.982,34.972 99.982,32.961 99.985,30.949 C99.985,29.852 100.325,29.449 101.41,29.241 C101.967,29.136 102.52,29.097 103.088,29.199 C104.063,29.374 104.661,29.935 104.922,30.853 C105.344,32.331 105.38,33.835 105.111,35.336 Z M104.749,26.687 C103.471,26.204 102.161,26.228 100.844,26.414 C98.204,26.788 96.583,28.798 96.632,31.186 C96.721,35.572 96.657,39.961 96.66,44.35 C96.661,44.584 96.597,44.835 96.806,45.12 C97.806,45.114 98.85,45.18 99.966,45.075 L99.966,40.131 C101.052,40.405 102.036,40.394 103.019,40.347 C105.453,40.231 107.406,38.798 108.155,36.521 C108.891,34.282 108.791,32.043 107.981,29.835 C107.414,28.283 106.299,27.272 104.749,26.686 L104.749,26.687 Z M165.197,21.834 C165.311,22.697 165.267,23.499 165.231,24.314 C164.691,24.442 163.184,24.446 162.634,24.328 C162.529,23.532 162.564,22.718 162.617,21.864 C163.497,21.757 164.326,21.804 165.197,21.834 Z M165.104,26.546 L165.104,39.941 C164.664,40.089 163.332,40.11 162.724,39.975 L162.724,26.539 C163.51546,26.4594141 164.313022,26.4617599 165.104,26.546 Z M73.964,40.093 L73.964,27.651 C76.1409008,26.8027381 78.4475891,26.3355822 80.783,26.27 C80.869,27.253 80.828,28.14 80.81,29.062 C79.624,29.207 78.475,29.204 77.312,29.602 L77.312,40.041 C76.162,40.191 75.087,40.044 73.963,40.092 L73.964,40.093 Z M118.281,57.713 C117.845,59.05 116.808,59.753 115.491,60.081 C113.468,60.586 111.511,60.358 109.635,59.458 C109.573,59.428 109.518,59.382 109.409,59.311 C109.319,58.747 109.371,58.155 109.384,57.559 C109.721,57.532 109.924,57.679 110.142,57.785 C111.774,58.581 113.479,58.7 115.229,58.279 C115.943,58.106 116.406,57.636 116.526,56.923 C116.66,56.131 116.412,55.447 115.75,54.943 C114.963,54.341 114.013,54.123 113.082,53.866 C112.168,53.613 111.253,53.391 110.448,52.836 C108.992,51.83 108.918,49.944 109.478,48.77 C110.064,47.546 111.048,46.85 112.418,46.563 C114.002,46.229 115.485,46.458 116.961,47.008 C117.338,47.148 117.547,47.369 117.508,47.783 C117.476,48.14 117.575,48.508 117.432,48.871 C117.206,48.925 117.073,48.835 116.932,48.768 C115.594,48.141 114.194,48.018 112.756,48.296 C111.783,48.483 111.114,49.199 111.072,50.046 C111.033,50.808 111.299,51.243 112.007,51.573 C113.206,52.134 114.509,52.392 115.75,52.833 C117.843,53.577 118.949,55.658 118.281,57.713 Z M144.951,37.372 C145.048,38.069 145.027,38.765 144.957,39.459 C144.531,39.761 144.054,39.829 143.599,39.945 C142.075,40.329 140.539,40.411 138.996,40.06 C137.102,39.629 135.762,38.51 135.112,36.72 C134.286,34.442 134.277,32.121 135.122,29.839 C135.845,27.889 137.342,26.806 139.378,26.433 C141.191,26.102 142.954,26.355 144.675,26.961 C144.756,26.989 144.828,27.041 144.937,27.099 C145.061,27.809 145.005,28.523 144.981,29.327 C144.591,29.197 144.277,29.107 143.974,28.989 C142.707,28.499 141.384,28.473 140.067,28.617 C138.523,28.784 137.557,29.724 137.266,31.311 C137.012,32.703 137.006,34.108 137.33,35.497 C137.682,37.003 138.628,37.801 140.196,37.986 C141.600383,38.1535144 143.024442,37.9778233 144.346,37.474 C144.506,37.415 144.66,37.307 144.951,37.372 Z M73.3,50.824 C73.342,53.755 73.313,56.688 73.313,59.62 C73.313,59.775 73.319,59.933 73.181,60.115 C72.6023813,60.1884151 72.016868,60.1894229 71.438,60.118 C71.247,59.85 71.3,59.599 71.3,59.362 C71.296,56.673 71.293,53.984 71.305,51.295 C71.308,50.776 71.18,50.299 70.973,49.838 C70.514,48.814 69.58,48.496 68.57,48.401 C67.1986385,48.2702248 65.8149149,48.396727 64.49,48.774 C64.355,48.813 64.219,48.854 64.003,49.004 L64.003,60.087 C63.314,60.2 62.711,60.172 62.048,60.122 L62.048,47.697 C62.8465419,47.2572199 63.7038941,46.9339449 64.594,46.737 C66.273,46.354 67.964,46.197 69.672,46.557 C71.84,47.013 73.269,48.643 73.3,50.824 Z M192.956,36.648 C192.842,38.27 191.496,39.718 189.692,40.092 C187.978,40.445 186.292,40.32 184.66,39.667 C183.898,39.362 183.862,39.313 183.875,38.517 C183.882,38.092 183.8,37.658 183.935,37.252 C184.137,37.155 184.265,37.278 184.403,37.339 C185.818,37.972 187.293,38.194 188.833,37.955 C189.886,37.791 190.543,37.118 190.473,36.25 C190.427,35.653 190.106,35.226 189.594,34.91 C188.651,34.326 187.559,34.144 186.533,33.79 C185.883,33.566 185.232,33.356 184.69,32.914 C183.13,31.641 183.03,29.256 184.473,27.714 C184.999712,27.1433696 185.679374,26.7361975 186.431,26.541 C188.208,26.07 189.921,26.296 191.592,26.981 C191.754,27.047 191.916,27.121 192.079,27.325 C192.103,27.926 192.121,28.541 192.069,29.135 C191.777,29.238 191.591,29.112 191.402,29.035 C190.214,28.546 188.97,28.485 187.714,28.599 C186.727,28.688 186.13,29.167 186.007,29.885 C185.897,30.525 186.077,30.903 186.666,31.212 C187.21386,31.4936816 187.791431,31.7133733 188.388,31.867 C189.018,32.036 189.632,32.249 190.242,32.475 C192.121,33.172 193.094,34.673 192.956,36.648 Z M109.406,29.233 C109.329,28.35 109.355,27.477 109.391,26.563 C110.126,26.382 110.855,26.563 111.67,26.425 L111.67,22.506 C112.827,22.427 113.873,22.463 115.016,22.476 L115.016,26.481 L118.238,26.481 C118.335,27.441 118.294,28.315 118.268,29.242 C117.222,29.429 116.18,29.222 115.188,29.363 C115.023,29.553 115.038,29.753 115.038,29.937 C115.034,32.019 114.98,34.101 115.064,36.182 C115.101,37.112 115.41,37.391 116.37,37.447 C116.988,37.484 117.595,37.41 118.27,37.233 C118.304,38.143 118.31,38.981 118.268,39.781 C118.205,39.846 118.186,39.879 118.157,39.894 C116.21,40.98 113.169,40.072 112.189,38.108 C111.799,37.328 111.68,36.49 111.68,35.63 L111.68,30.113 C111.68,29.89 111.706,29.663 111.607,29.405 C110.917,29.176 110.158,29.455 109.405,29.232 L109.406,29.233 Z M180.563,39.366 C180.563,39.571 180.599,39.785 180.42,40.019 C179.661,40.092 178.865,40.091 178.103,40.018 C177.901,39.752 177.955,39.501 177.955,39.264 C177.95,36.557 177.953,33.851 177.949,31.144 C177.949,30.868 177.956,30.584 177.905,30.314 C177.749,29.498 177.3,28.898 176.441,28.723 C174.855,28.399 173.293,28.547 171.655,29.029 L171.655,40.011 C170.755,40.093 169.958,40.078 169.109,40.02 L169.109,27.736 C169.839,27.262 170.662,27.005 171.486,26.77 C173.058,26.323 174.653,26.149 176.291,26.377 C178.827,26.73 180.547,28.614 180.561,31.143 C180.574,33.884 180.565,36.625 180.563,39.366 Z M62.91,38.379 C62.295,38.656 61.906,39.201 61.255,39.444 L60.125,37.967 C60.627,37.392 61.317,37.107 61.829,36.564 C61.617,35.804 61.423,35.031 61.376,34.234 C61.246,32.007 61.436,29.857 63.036,28.083 C64.094,26.91 65.491,26.423 67.022,26.288 C68.585,26.152 70.113,26.379 71.586,26.925 C71.667,26.955 71.739,27.006 71.873,27.079 C71.937,27.929 71.919,28.795 71.878,29.755 C71.039,29.498 70.301,29.291 69.536,29.193 C68.671,29.081 67.822,29.093 66.97,29.303 C65.892,29.569 65.21,30.205 64.957,31.276 C64.7533415,32.173471 64.6812541,33.0957852 64.743,34.014 C64.749,34.114 64.749,34.225 64.888,34.312 C65.382,34.132 65.709,33.652 66.259,33.435 C66.702,33.877 67.043,34.39 67.436,34.921 C66.849,35.495 66.145,35.868 65.531,36.416 C65.831,36.817 66.231,37.046 66.684,37.183 C68.154,37.633 69.607,37.459 71.051,37.043 C71.285,36.975 71.504,36.85 71.878,36.876 C71.931,37.734 71.927,38.596 71.872,39.502 C70.3908514,40.1469224 68.7751378,40.4221565 67.164,40.304 C65.508,40.186 64.041,39.628 62.91,38.379 Z M107.828,46.678 L103.33,60.06 C102.73,60.194 102.157,60.134 101.468,60.117 C100.343,56.847 99.454,53.487 98.33,50.204 L98.108,50.19 L95.028,60.091 C94.378,60.176 93.803,60.159 93.11,60.112 L88.59,46.781 C89.062,46.567 89.959,46.543 90.644,46.713 C91.762,50.035 92.897,53.415 94.034,56.797 L94.232,56.812 L97.318,46.662 C97.96,46.574 98.531,46.594 99.156,46.647 C100.279,50.033 101.191,53.474 102.333,56.841 L102.531,56.834 L105.967,46.664 C106.584813,46.5846559 107.210547,46.5897021 107.827,46.679 L107.828,46.678 Z M90.048,40.564 C89.64,41.678 89.128,42.742 88.398,43.694 C87.1722427,45.2750207 85.0545441,45.8648059 83.188,45.145 C83.108,45.115 83.038,45.056 82.928,44.987 C82.887,44.127 82.858,43.256 82.946,42.36 C83.444,42.383 83.856,42.56 84.298,42.567 C84.831,42.573 85.261,42.404 85.616,42.023 C86.284,41.305 86.68,40.436 87.02,39.538 C87.106,39.312 87.023,39.098 86.94,38.883 C85.4322628,34.9944459 83.9282622,31.1044441 82.428,27.213 C82.35,27.01 82.215,26.81 82.286,26.523 L85.733,26.523 L88.724,35.635 L88.858,35.647 L91.798,26.535 L95.021,26.535 C95.099,26.775 95.008,26.935 94.951,27.092 C93.3218333,31.5846668 91.6871654,36.0753369 90.047,40.564 L90.048,40.564 Z M46.079,39.236 C46.079,39.391 46.019,39.424 45.871,39.36 C45.403,39.155 44.931,38.96 44.441,38.807 C43.7711937,38.5951592 43.0832821,38.4455259 42.386,38.36 C42.036,38.32 41.683,38.303 41.331,38.288 C40.77,38.263 40.221,38.316 39.693,38.502 C38.784,38.822 38.149,39.417 37.835,40.329 C37.6614239,40.8479314 37.5552216,41.3870088 37.519,41.933 C37.4861322,42.3174163 37.4721154,42.703212 37.477,43.089 C37.482,43.161 37.515,43.177 37.575,43.136 C37.681,43.064 37.783,42.99 37.889,42.918 C38.051,42.828 38.191,42.707 38.343,42.603 C38.569,42.448 38.791,42.289 39.015,42.131 C39.119,42.059 39.175,42.064 39.253,42.165 C39.5,42.487 39.731,42.823 39.97,43.152 C40.098,43.328 40.233,43.501 40.35,43.686 C40.42,43.774 40.512,43.853 40.502,43.983 C40.43,44.103 40.301,44.159 40.192,44.235 C39.495,44.725 38.799,45.215 38.101,45.702 C38.025,45.755 38.016,45.806 38.06,45.884 C38.173,46.089 38.312,46.276 38.47,46.452 C38.812,46.775 39.2,47.027 39.647,47.19 C39.963,47.304 40.287,47.366 40.62,47.403 C40.904,47.433 41.186,47.427 41.469,47.418 C41.653,47.413 41.839,47.417 42.022,47.381 C42.493,47.343 42.957,47.271 43.418,47.171 C43.703,47.12 43.98,47.034 44.258,46.954 C44.528,46.876 44.794,46.782 45.058,46.684 C45.109,46.664 45.158,46.644 45.215,46.672 C45.404,46.616 45.578,46.526 45.759,46.45 L45.94,46.374 C46.011,46.384 45.994,46.437 45.994,46.481 L45.994,49.733 C45.994,49.775 45.989,49.817 46.001,49.858 C46.008659,49.8558676 46.0160425,49.8528471 46.023,49.849 C46.026,49.921 45.971,49.937 45.92,49.956 C45.3267417,50.183475 44.7226825,50.3817132 44.11,50.55 C43.69,50.664 43.268,50.763 42.84,50.837 C42.427,50.907 42.012,50.96 41.595,50.993 C41.165,51.028 40.734,51.015 40.303,51.009 C39.9076211,50.9989013 39.5135378,50.9594596 39.124,50.891 C38.5337439,50.8009721 37.9561147,50.6418807 37.403,50.417 C36.7084124,50.1316708 36.0594897,49.7458887 35.477,49.272 C35.343,49.164 35.243,49.028 35.124,48.91 C34.9307397,48.7122331 34.755387,48.4977273 34.6,48.269 C34.552,48.202 34.501,48.229 34.45,48.264 C34.224,48.426 33.995,48.584 33.768,48.744 C33.592,48.869 33.416,48.994 33.238,49.118 C33.141,49.186 33.105,49.182 33.038,49.088 C32.779,48.733 32.52,48.376 32.263,48.018 C32.258,48.013 32.26,48.005 32.262,47.998 L32.245,47.978 C32.1207941,47.7896582 31.987987,47.6071318 31.847,47.431 C31.834,47.409 31.824,47.382 31.807,47.365 C31.747,47.307 31.767,47.264 31.828,47.225 C31.878,47.102 31.998,47.052 32.096,46.982 C32.55,46.662 33.004,46.344 33.46,46.027 C33.548,45.967 33.569,45.901 33.545,45.805 C33.4611162,45.4682635 33.3963461,45.1270519 33.351,44.783 C33.317,44.511 33.292,44.238 33.261,43.965 C33.241,43.773 33.297,43.589 33.283,43.401 C33.281,43.363 33.291,43.324 33.273,43.288 C33.275,42.868 33.272,42.446 33.296,42.027 C33.352,41.001 33.502,39.993 33.853,39.022 C34.11,38.312 34.453,37.646 34.935,37.054 C35.304,36.6 35.758,36.247 36.255,35.937 C36.9238825,35.5135182 37.6565952,35.2005115 38.425,35.01 C38.451,35.004 38.477,34.995 38.502,34.987 C38.539,34.906 38.622,34.907 38.691,34.892 C38.983,34.832 39.278,34.785 39.575,34.752 C40.039,34.702 40.504,34.666 40.969,34.681 C41.7530302,34.6999231 42.5335099,34.7930048 43.3,34.959 C43.38,34.975 43.474,34.971 43.526,35.054 C43.751,35.114 43.976,35.171 44.199,35.234 C44.789,35.394 45.367,35.596 45.941,35.809 C46.009,35.835 46.024,35.872 46.024,35.936 C46.022,36.086 46.014,36.234 46.027,36.383 C46.072,36.421 46.081,36.473 46.081,36.528 C46.082,37.431 46.083,38.334 46.079,39.236 Z M39.243,25.768 C29.72,25.768 22,33.368 22,42.743 C22,52.118 29.72,59.718 39.243,59.718 C48.766,59.718 56.486,52.118 56.486,42.743 C56.486,33.368 48.766,25.768 39.243,25.768 Z" id="Shape" fill="#9B9B9B"></path>
                </g>
            </g>
        </g>
    </g>
</svg>