<?xml version="1.0" encoding="UTF-8"?>
<svg width="200px" height="41px" viewBox="0 0 200 41" version="1.1" xmlns="http://www.w3.org/2000/svg" xmlns:xlink="http://www.w3.org/1999/xlink">
    <!-- Generator: sketchtool 49.3 (51167) - http://www.bohemiancoding.com/sketch -->
    <title>39510018-B466-49B0-B0F8-9F1E004865A3</title>
    <desc>Created with sketchtool.</desc>
    <defs></defs>
    <g id="Desktop" stroke="none" stroke-width="1" fill="none" fill-rule="evenodd">
        <g id="1.0-home" transform="translate(-164.000000, -3293.000000)">
            <g id="partners" transform="translate(0.000000, 3224.000000)">
                <g id="ct-logo" transform="translate(152.000000, 48.000000)">
                    <rect id="Rectangle-10" x="0" y="0" width="224" height="80"></rect>
                    <path d="M212,35.476 L210.173,35.476 L210.173,31.547 L206.445,31.547 L206.445,35.476 L204.613,35.476 L204.613,26.022 L206.445,26.022 L206.445,30.086 L210.173,30.086 L210.173,26.022 L212,26.022 L212,35.476 Z M196.889,30.586 L198.697,30.586 C199.207,30.586 199.595,30.443 199.858,30.155 C200.123,29.866 200.254,29.499 200.254,29.054 C200.254,28.599 200.123,28.224 199.862,27.927 C199.6,27.631 199.212,27.483 198.697,27.483 L196.889,27.483 L196.889,30.586 Z M196.889,32.048 L196.889,35.476 L195.057,35.476 L195.057,26.022 L198.697,26.022 C199.747,26.022 200.574,26.298 201.177,26.852 C201.779,27.407 202.081,28.137 202.081,29.041 C202.081,29.946 201.779,30.673 201.177,31.223 C200.574,31.773 199.747,32.048 198.697,32.048 L196.889,32.048 Z M187.792,31.95 L190.096,31.95 L188.966,28.236 L188.928,28.236 L187.792,31.95 Z M190.547,33.437 L187.341,33.437 L186.719,35.476 L184.867,35.476 L188.011,26.022 L189.888,26.022 L193.021,35.476 L191.169,35.476 L190.547,33.436 L190.547,33.437 Z M177.797,30.236 L179.377,30.236 C179.893,30.236 180.277,30.123 180.53,29.898 C180.783,29.673 180.91,29.339 180.91,28.898 C180.91,28.465 180.783,28.121 180.53,27.866 C180.277,27.61 179.903,27.483 179.41,27.483 L177.797,27.483 L177.797,30.236 Z M177.797,31.696 L177.797,35.476 L175.964,35.476 L175.964,26.022 L179.41,26.022 C180.451,26.022 181.266,26.268 181.855,26.759 C182.443,27.249 182.737,27.935 182.737,28.814 C182.737,29.303 182.613,29.723 182.367,30.074 C182.119,30.424 181.757,30.708 181.28,30.924 C181.82,31.089 182.208,31.364 182.445,31.749 C182.681,32.134 182.799,32.61 182.799,33.177 L182.799,33.872 C182.799,34.136 182.834,34.412 182.903,34.7 C182.973,34.988 183.09,35.2 183.257,35.34 L183.257,35.476 L181.367,35.476 C181.201,35.337 181.091,35.106 181.041,34.781 C180.993525,34.4759245 180.96879,34.1677422 180.967,33.859 L180.967,33.19 C180.967,32.718 180.842,32.351 180.593,32.09 C180.343,31.828 179.993,31.697 179.542,31.697 L177.797,31.697 L177.797,31.696 Z M173.205,34.183 C172.933,34.556 172.51,34.887 171.935,35.177 C171.358,35.467 170.632,35.612 169.752,35.612 C168.636,35.612 167.723,35.253 167.017,34.534 C166.309,33.816 165.956,32.883 165.956,31.736 L165.956,29.762 C165.956,28.619 166.295,27.687 166.976,26.966 C167.656,26.246 168.531,25.886 169.602,25.886 C170.715,25.886 171.568,26.166 172.161,26.726 C172.751,27.287 173.055,28.023 173.067,28.936 L173.055,28.976 L171.329,28.976 C171.294,28.474 171.14,28.076 170.863,27.784 C170.588,27.492 170.183,27.346 169.653,27.346 C169.091,27.346 168.64,27.57 168.297,28.017 C167.953,28.465 167.782,29.042 167.782,29.747 L167.782,31.731 C167.782,32.45 167.96,33.032 168.316,33.48 C168.67,33.928 169.15,34.151 169.752,34.151 C170.179,34.151 170.522,34.106 170.782,34.015 C171.041,33.925 171.238,33.812 171.372,33.678 L171.372,31.93 L169.752,31.93 L169.752,30.62 L173.205,30.62 L173.205,34.183 Z M163.241,31.32 L159.456,31.32 L159.456,34.015 L163.881,34.015 L163.881,35.475 L157.623,35.475 L157.623,26.023 L163.869,26.023 L163.869,27.483 L159.456,27.483 L159.456,29.86 L163.241,29.86 L163.241,31.321 L163.241,31.32 Z M151.319,34.015 L155.387,34.015 L155.387,35.475 L149.487,35.475 L149.487,26.023 L151.319,26.023 L151.319,34.016 L151.319,34.015 Z M146.539,31.32 L142.754,31.32 L142.754,34.015 L147.179,34.015 L147.179,35.475 L140.922,35.475 L140.922,26.023 L147.167,26.023 L147.167,27.483 L142.754,27.483 L142.754,29.86 L146.539,29.86 L146.539,31.321 L146.539,31.32 Z M138.717,27.483 L136.13,27.483 L136.13,35.476 L134.297,35.476 L134.297,27.483 L131.724,27.483 L131.724,26.022 L138.717,26.022 L138.717,27.482 L138.717,27.483 Z M129.505,35.476 L127.678,35.476 L123.988,29.015 L123.95,29.022 L123.95,35.476 L122.118,35.476 L122.118,26.022 L123.95,26.022 L127.64,32.476 L127.678,32.47 L127.678,26.022 L129.505,26.022 L129.505,35.476 Z M117.275,35.476 L119.108,35.476 L119.108,26.022 L117.276,26.022 L117.276,35.476 L117.275,35.476 Z M112.715,29.89 C112.715,29.153 112.537,28.548 112.182,28.075 C111.826,27.602 111.337,27.365 110.714,27.365 C110.09,27.365 109.606,27.601 109.264,28.071 C108.92,28.541 108.749,29.149 108.749,29.891 L108.749,31.608 C108.749,32.358 108.923,32.97 109.269,33.443 C109.617,33.915 110.1,34.151 110.719,34.151 C111.347,34.151 111.837,33.915 112.189,33.443 C112.54,32.97 112.716,32.358 112.716,31.608 L112.716,29.89 L112.715,29.89 Z M114.549,31.6 C114.549,32.76 114.193,33.718 113.484,34.476 C112.776,35.233 111.853,35.612 110.719,35.612 C109.593,35.612 108.68,35.233 107.977,34.476 C107.273,33.718 106.922,32.759 106.922,31.599 L106.922,29.9 C106.922,28.744 107.272,27.785 107.974,27.026 C108.674,26.266 109.588,25.886 110.714,25.886 C111.847,25.886 112.77,26.266 113.481,27.026 C114.192,27.786 114.549,28.744 114.549,29.899 L114.549,31.6 Z M104.697,32.255 L104.71,32.294 C104.726,33.311 104.426,34.118 103.809,34.716 C103.191,35.313 102.335,35.612 101.239,35.612 C100.137,35.612 99.244,35.246 98.557,34.515 C97.871,33.783 97.527,32.842 97.527,31.69 L97.527,29.814 C97.527,28.666 97.863,27.725 98.533,26.989 C99.203,26.253 100.073,25.885 101.144,25.885 C102.274,25.885 103.157,26.185 103.793,26.785 C104.429,27.385 104.738,28.201 104.722,29.235 L104.71,29.275 L102.926,29.275 C102.926,28.651 102.782,28.174 102.493,27.843 C102.204,27.513 101.756,27.346 101.144,27.346 C100.597,27.346 100.161,27.576 99.838,28.037 C99.517,28.498 99.355,29.084 99.355,29.798 L99.355,31.686 C99.355,32.409 99.525,32.999 99.863,33.46 C100.203,33.92 100.661,34.151 101.238,34.151 C101.811,34.151 102.236,33.992 102.51,33.674 C102.783,33.356 102.92,32.883 102.92,32.254 L104.697,32.254 L104.697,32.255 Z M90.467,31.32 L86.683,31.32 L86.683,34.015 L91.109,34.015 L91.109,35.475 L84.85,35.475 L84.85,26.023 L91.096,26.023 L91.096,27.483 L86.682,27.483 L86.682,29.86 L90.467,29.86 L90.467,31.321 L90.467,31.32 Z M81.954,35.476 L80.128,35.476 L80.128,31.547 L76.399,31.547 L76.399,35.476 L74.566,35.476 L74.566,26.022 L76.4,26.022 L76.4,30.086 L80.129,30.086 L80.129,26.022 L81.955,26.022 L81.955,35.476 L81.954,35.476 Z M72.36,27.483 L69.774,27.483 L69.774,35.476 L67.941,35.476 L67.941,27.483 L65.368,27.483 L65.368,26.022 L72.36,26.022 L72.36,27.482 L72.36,27.483 Z M40.59,42.61 L48.57,39.95 L38.596,53.248 L39.926,47.928 L32.611,51.918 L37.266,33.965 L29.286,33.965 L30.616,27.317 L54.554,27.317 L53.224,33.965 L43.914,33.965 L40.59,42.61 Z M25.464,54.245 C18.774,54.245 13.33,50.666 13.33,46.266 L13.33,44.954 C15.5,48.084 20.117,50.256 25.464,50.256 C27.656,50.256 29.723,49.888 31.552,49.243 L30.31,53.906 L30.409,53.534 C28.8034486,54.0076312 27.1379526,54.2470988 25.464,54.245 Z M13.33,39.635 C15.5,42.765 20.117,44.937 25.464,44.937 C28.325,44.937 30.968,44.304 33.151,43.247 L33.612,41.517 C31.457,42.809 28.604,43.607 25.464,43.607 C18.774,43.607 13.33,40.027 13.33,35.627 L13.33,34.316 C15.5,37.446 20.117,39.617 25.464,39.617 C29.099,39.617 32.396,38.611 34.821,36.987 L35.272,35.295 L31.972,47.67 C30.09,48.462 27.86,48.926 25.464,48.926 C18.774,48.926 13.33,45.347 13.33,40.947 L13.33,39.635 Z M25.464,22.33 C29.732,22.33 33.479,23.79 35.642,25.986 L29.288,25.986 L27.293,35.295 L34.901,35.295 C32.676,37.113 29.281,38.287 25.464,38.287 C18.774,38.287 13.33,34.707 13.33,30.309 C13.33,25.909 18.774,22.329 25.464,22.329 L25.464,22.33 Z M54.554,35.295 L56.549,25.986 L37.38,25.986 C35.126,23.026 30.633,21 25.464,21 C18.04,21 12,25.176 12,30.309 L12,46.599 L12.024,46.599 C12.281,51.577 18.203,55.575 25.464,55.575 C27.062,55.575 28.59,55.375 30.012,55.021 L29.953,55.243 L37.313,51.418 L34.607,61.891 L53.224,36.625 L43.25,39.95 L45.245,35.295 L54.555,35.295 L54.554,35.295 Z M150.746,52.733 L150.816,53.083 L150.85,53.083 L152.06,49.063 L153.896,49.063 L151.33,56.333 C151.15,56.784 150.907,57.165 150.6,57.475 C150.291,57.785 149.83,57.94 149.215,57.94 C149.07,57.94 148.937,57.928 148.815,57.904 C148.664672,57.8756733 148.515266,57.8426572 148.367,57.805 L148.567,56.561 C148.616,56.569 148.671,56.577 148.729,56.584 C148.788,56.592 148.84,56.596 148.887,56.596 C149.167,56.596 149.383,56.526 149.536,56.388 C149.688,56.25 149.806,56.078 149.886,55.871 L150.086,55.38 L147.841,49.063 L149.676,49.063 L150.746,52.733 Z M144.627,50.261 C144.332832,50.250379 144.05244,50.3858954 143.878,50.623 C143.696,50.865 143.583,51.182 143.54,51.576 L143.557,51.606 L145.65,51.606 L145.65,51.453 C145.65,51.091 145.565,50.802 145.395,50.585 C145.226,50.369 144.97,50.261 144.627,50.261 Z M144.778,55.509 C143.867,55.509 143.139,55.217 142.593,54.632 C142.048,54.048 141.775,53.305 141.775,52.406 L141.775,52.172 C141.775,51.233 142.033,50.459 142.55,49.852 C143.065,49.243 143.757,48.942 144.627,48.946 C145.48,48.946 146.143,49.203 146.614,49.717 C147.085,50.231 147.321,50.927 147.321,51.803 L147.321,52.733 L143.545,52.733 L143.534,52.768 C143.565,53.183 143.704,53.524 143.952,53.792 C144.198,54.06 144.536,54.194 144.96,54.194 C145.338,54.194 145.651,54.156 145.9,54.08 C146.15,54.004 146.423,53.884 146.72,53.72 L147.18,54.775 C146.923,54.986 146.586,55.162 146.17,55.3 C145.720302,55.4442566 145.250233,55.5148345 144.778,55.509 Z M136.546,49.063 L136.621,49.969 C136.816908,49.6599031 137.083158,49.4015346 137.398,49.215 C137.712277,49.0341559 138.069437,48.941239 138.432,48.946 C139.072,48.946 139.57,49.147 139.929,49.548 C140.287,49.95 140.466,50.578 140.466,51.436 L140.466,55.386 L138.755,55.386 L138.755,51.432 C138.755,51.007 138.669,50.705 138.497,50.528 C138.325,50.35 138.067,50.261 137.72,50.261 C137.509303,50.2574811 137.300826,50.3044571 137.112,50.398 C136.933,50.49 136.782,50.621 136.662,50.788 L136.662,55.386 L134.956,55.386 L134.956,49.063 L136.546,49.063 Z M129.427,52.286 C129.427,52.862 129.529,53.323 129.731,53.672 C129.934,54.02 130.261,54.194 130.713,54.194 C131.153,54.194 131.475,54.019 131.681,53.669 C131.884,53.319 131.987,52.857 131.987,52.286 L131.987,52.163 C131.987,51.603 131.883,51.146 131.677,50.793 C131.471,50.438 131.147,50.261 130.702,50.261 C130.261,50.261 129.939,50.439 129.734,50.795 C129.53,51.15 129.427,51.607 129.427,52.163 L129.427,52.286 Z M127.727,52.166 C127.727,51.223 127.99,50.451 128.516,49.849 C129.042,49.247 129.77,48.946 130.702,48.946 C131.637,48.946 132.369,49.246 132.898,49.846 C133.428,50.446 133.693,51.219 133.693,52.166 L133.693,52.289 C133.693,53.239 133.43,54.014 132.901,54.611 C132.374,55.21 131.644,55.509 130.713,55.509 C129.777,55.509 129.047,55.209 128.518,54.611 C127.99,54.014 127.727,53.239 127.727,52.289 L127.727,52.166 Z M118.978,49.063 L119.048,49.898 C119.240694,49.6042638 119.502738,49.3624828 119.811,49.194 C120.117,49.029 120.471,48.946 120.872,48.946 C121.277,48.946 121.623,49.036 121.912,49.215 C122.2,49.394 122.418,49.665 122.566,50.027 C122.74794,49.7019291 123.009444,49.4283813 123.326,49.232 C123.638,49.042 124.004,48.946 124.426,48.946 C125.049,48.946 125.54,49.161 125.901,49.591 C126.26,50.023 126.441,50.677 126.441,51.558 L126.441,55.386 L124.735,55.386 L124.735,51.543 C124.735,51.063 124.657,50.73 124.501,50.542 C124.345,50.355 124.114,50.261 123.805,50.261 C123.565,50.261 123.355,50.314 123.177,50.421 C122.997904,50.5303056 122.851466,50.6857232 122.753,50.871 C122.753,50.944 122.756,51.008 122.759,51.061 C122.763033,51.1142377 122.765035,51.1676098 122.765,51.221 L122.765,55.386 L121.065,55.386 L121.065,51.543 C121.065,51.075 120.987,50.744 120.83,50.55 C120.676,50.357 120.442,50.26 120.13,50.26 C119.9,50.26 119.698,50.305 119.524,50.393 C119.351955,50.4793025 119.204159,50.6071632 119.094,50.765 L119.094,55.386 L117.394,55.386 L117.394,49.063 L118.978,49.063 Z M110.102,55.386 L110.102,50.261 L109.161,50.261 L109.161,49.063 L110.101,49.063 L110.101,48.362 C110.101,47.652 110.307,47.106 110.716,46.722 C111.124,46.339 111.699,46.147 112.44,46.147 C112.584,46.147 112.73,46.157 112.882,46.179 C113.032,46.2 113.196,46.23 113.375,46.269 L113.229,47.537 C113.138467,47.5227759 113.047796,47.5094419 112.957,47.497 C112.855155,47.4844622 112.752612,47.4784499 112.65,47.479 C112.374,47.479 112.163,47.556 112.02,47.707 C111.88,47.859 111.809,48.077 111.809,48.362 L111.809,49.062 L113.065,49.062 L113.065,50.261 L111.81,50.261 L111.81,55.386 L110.103,55.386 L110.102,55.386 Z M104.1,52.286 C104.1,52.862 104.202,53.323 104.404,53.672 C104.607,54.02 104.934,54.194 105.386,54.194 C105.826,54.194 106.149,54.019 106.354,53.669 C106.557,53.319 106.66,52.857 106.66,52.286 L106.66,52.163 C106.66,51.603 106.557,51.146 106.35,50.793 C106.144,50.438 105.82,50.261 105.375,50.261 C104.934,50.261 104.612,50.439 104.407,50.795 C104.203,51.15 104.1,51.607 104.1,52.163 L104.1,52.286 Z M102.4,52.166 C102.4,51.223 102.663,50.451 103.189,49.849 C103.715,49.247 104.443,48.946 105.375,48.946 C106.31,48.946 107.042,49.246 107.571,49.846 C108.101,50.446 108.366,51.219 108.366,52.166 L108.366,52.289 C108.366,53.239 108.103,54.014 107.574,54.611 C107.047,55.21 106.317,55.509 105.386,55.509 C104.45,55.509 103.72,55.209 103.191,54.611 C102.663,54.014 102.4,53.239 102.4,52.289 L102.4,52.166 Z M95.517,50.261 C95.2231059,50.2503614 94.9430075,50.385917 94.769,50.623 C94.585,50.865 94.472,51.182 94.429,51.576 L94.446,51.606 L96.539,51.606 L96.539,51.453 C96.539,51.091 96.455,50.802 96.284,50.585 C96.116,50.369 95.859,50.261 95.517,50.261 Z M95.669,55.509 C94.757,55.509 94.028,55.217 93.483,54.632 C92.937,54.048 92.665,53.305 92.665,52.406 L92.665,52.172 C92.665,51.233 92.923,50.459 93.439,49.852 C93.955,49.243 94.648,48.942 95.517,48.946 C96.37,48.946 97.032,49.203 97.503,49.717 C97.975,50.231 98.21,50.927 98.21,51.803 L98.21,52.733 L94.436,52.733 L94.423,52.768 C94.455,53.183 94.593,53.524 94.842,53.792 C95.089,54.06 95.424,54.194 95.85,54.194 C96.227,54.194 96.54,54.156 96.79,54.08 C97.0748525,53.9890087 97.3493587,53.8683466 97.609,53.72 L98.069,54.775 C97.813,54.986 97.477,55.162 97.059,55.3 C96.6099798,55.4442148 96.1405756,55.5147943 95.669,55.509 Z M91.764,50.529 L91.14,50.512 C90.887,50.512 90.677,50.565 90.515,50.67 C90.3488415,50.7776577 90.2183401,50.9321713 90.14,51.114 L90.14,55.386 L88.44,55.386 L88.44,49.063 L90.024,49.063 L90.099,49.998 C90.248,49.667 90.439,49.408 90.676,49.223 C90.907276,49.0395684 91.1948436,48.9417107 91.49,48.946 C91.577,48.946 91.655,48.953 91.727,48.967 C91.799,48.98 91.873,48.997 91.947,49.017 L91.764,50.53 L91.764,50.529 Z M85.308,54.475 C85.113,54.805 84.865,55.061 84.565,55.24 C84.265,55.42 83.921,55.509 83.531,55.509 C82.864,55.509 82.343,55.296 81.969,54.869 C81.591,54.443 81.403,53.779 81.403,52.879 L81.403,49.063 L83.105,49.063 L83.105,52.9 C83.105,53.36 83.182,53.691 83.338,53.892 C83.494,54.093 83.723,54.194 84.028,54.194 C84.301,54.194 84.534,54.15 84.73,54.063 C84.920846,53.9772788 85.0857198,53.8427583 85.208,53.673 L85.208,49.063 L86.915,49.063 L86.915,55.386 L85.46,55.386 L85.308,54.475 Z M79.055,47.514 L79.055,49.063 L80.118,49.063 L80.118,50.261 L79.055,50.261 L79.055,53.481 C79.055,53.726 79.105,53.901 79.206,54.007 C79.3144741,54.1147129 79.4633264,54.1717125 79.616,54.164 C79.7700394,54.1659394 79.9234726,54.1443575 80.071,54.1 L80.217,55.333 C79.8849411,55.4503921 79.5351976,55.5099229 79.183,55.509 C78.595,55.509 78.142,55.347 77.824,55.023 C77.507,54.7 77.348,54.188 77.348,53.487 L77.348,50.261 L76.425,50.261 L76.425,49.063 L77.348,49.063 L77.348,47.513 L79.055,47.513 L79.055,47.514 Z M73.895,54.474 C73.7168001,54.7882546 73.4614247,55.0518901 73.153,55.24 C72.853,55.42 72.508,55.509 72.119,55.509 C71.452,55.509 70.931,55.296 70.556,54.869 C70.179,54.443 69.991,53.779 69.991,52.879 L69.991,49.063 L71.692,49.063 L71.692,52.9 C71.692,53.36 71.77,53.691 71.925,53.892 C72.082,54.093 72.311,54.194 72.615,54.194 C72.888,54.194 73.122,54.15 73.317,54.063 C73.511,53.973 73.671,53.844 73.796,53.673 L73.796,49.063 L75.502,49.063 L75.502,55.386 L74.047,55.386 L73.896,54.475 L73.895,54.474 Z M65.959,55.386 L65.959,50.261 L65.019,50.261 L65.019,49.063 L65.959,49.063 L65.959,48.362 C65.959,47.652 66.163,47.106 66.573,46.722 C66.982,46.339 67.557,46.147 68.297,46.147 C68.441,46.147 68.587,46.157 68.738,46.179 C68.888,46.2 69.052,46.23 69.231,46.269 L69.085,47.537 C68.9948098,47.5227143 68.9044714,47.5093802 68.814,47.497 C68.7121489,47.4845295 68.6096106,47.4785175 68.507,47.479 C68.23,47.479 68.021,47.556 67.878,47.707 C67.737,47.859 67.666,48.077 67.666,48.362 L67.666,49.062 L68.922,49.062 L68.922,50.261 L67.666,50.261 L67.666,55.386 L65.96,55.386 L65.959,55.386 Z" id="Shape" fill="#9B9B9B"></path>
                </g>
            </g>
        </g>
    </g>
</svg>