<?xml version="1.0" encoding="UTF-8"?>
<svg width="140px" height="36px" viewBox="0 0 140 36" version="1.1" xmlns="http://www.w3.org/2000/svg" xmlns:xlink="http://www.w3.org/1999/xlink">
    <!-- Generator: sketchtool 49.3 (51167) - http://www.bohemiancoding.com/sketch -->
    <title>E167560A-2201-4CF4-A80E-C06C502E7A2D</title>
    <desc>Created with sketchtool.</desc>
    <defs></defs>
    <g id="Desktop" stroke="none" stroke-width="1" fill="none" fill-rule="evenodd">
        <g id="1.0-home" transform="translate(-666.000000, -3295.000000)">
            <g id="partners" transform="translate(0.000000, 3224.000000)">
                <g id="forbes-logo" transform="translate(624.000000, 48.000000)">
                    <rect id="Rectangle-10" x="0" y="0" width="224" height="80"></rect>
                    <path d="M112.483,33.301 L109.907,39.898 C106.69,37.806 103.15,38.772 102.346,39.898 C102.186,43.76 102.186,49.875 102.507,52.933 C102.667,54.863 103.15,55.829 104.759,55.991 L106.69,56.151 L106.69,57.438 L91.725,57.438 L91.725,56.151 L92.852,55.991 C94.3,55.831 94.942,54.864 95.104,52.934 C95.265,49.554 95.427,42.795 95.104,38.934 C94.942,36.841 94.3,36.037 92.852,35.875 L91.725,35.715 L91.725,34.75 L102.507,32.658 L102.346,38.29 C104.92,32.496 109.748,31.692 112.483,33.301 Z M180.553,33.944 L180.713,40.22 L179.586,40.541 C178.139,36.196 176.206,34.427 173.311,34.427 C171.381,34.427 169.932,35.874 169.932,37.967 C169.932,40.06 171.54,41.187 176.047,42.956 C180.23,44.565 182,46.496 182,49.876 C182,54.863 177.978,58.082 171.702,58.082 C168.644,58.082 165.105,57.438 163.174,56.634 L163.012,49.554 L164.139,49.231 C165.909,54.06 168.161,55.829 171.219,55.829 C173.793,55.829 175.242,54.059 175.242,52.128 C175.242,50.198 174.115,49.07 170.093,47.622 C166.23,46.334 163.495,44.565 163.495,40.381 C163.495,36.196 167.196,32.657 173.15,32.657 C176.047,32.657 178.62,33.139 180.552,33.944 L180.553,33.944 Z M146.437,42.474 L154,42.311 C154,39.093 153.518,34.264 150.783,34.264 C148.047,34.264 146.598,38.771 146.437,42.472 L146.437,42.474 Z M139.035,45.53 C139.035,38.933 143.219,32.657 151.427,32.657 C158.185,32.657 161.403,37.645 161.403,44.243 L146.437,44.243 C146.277,50.197 149.174,54.541 154.967,54.541 C157.541,54.541 158.828,53.898 160.437,52.771 L161.081,53.576 C159.471,55.829 155.932,58.082 151.427,58.082 C144.185,58.082 139.035,52.933 139.035,45.53 Z M79.012,34.265 C75.472,34.265 74.507,39.094 74.507,45.369 C74.507,51.484 76.115,56.472 79.334,56.472 C83.034,56.472 84.001,51.645 84.001,45.369 C84.001,39.254 82.391,34.265 79.012,34.265 Z M79.495,32.657 C87.541,32.657 91.565,38.127 91.565,45.369 C91.565,52.289 87.059,58.082 79.012,58.082 C70.967,58.082 66.943,52.611 66.943,45.369 C66.943,38.449 71.449,32.657 79.495,32.657 Z M70.322,23.646 L70.483,33.139 L68.873,33.622 C67.265,28.794 65.013,26.059 60.666,26.059 L55.035,26.059 C54.873,29.116 54.714,34.265 54.714,39.737 L58.575,39.577 C60.99,39.577 62.115,37.645 62.599,34.909 L64.047,34.909 L64.047,46.334 L62.6,46.334 C62.116,43.599 60.99,41.668 58.576,41.668 L54.715,41.508 C54.715,45.69 54.875,49.07 55.035,51.162 C55.358,54.219 56.162,55.669 58.255,55.829 L60.186,56.15 L60.186,57.438 L42,57.438 L42,56.151 L43.61,55.831 C45.702,55.67 46.507,54.221 46.827,51.163 C47.15,46.175 47.312,35.715 46.827,29.922 C46.507,26.864 45.702,25.577 43.61,25.255 L42,25.094 L42,23.646 L70.322,23.646 Z M123.586,56.311 C122.943,56.311 122.139,56.311 121.656,56.149 C121.495,53.897 121.333,44.402 121.495,36.035 C122.46,35.713 123.104,35.552 123.908,35.552 C127.448,35.552 129.381,39.736 129.381,44.886 C129.381,51.322 126.967,56.311 123.586,56.311 Z M127.288,32.977 C125.035,32.977 123.265,33.46 121.495,34.426 C121.495,29.276 121.495,24.609 121.655,23 L110.873,24.932 L110.873,25.898 L112,26.058 C113.449,26.38 113.932,27.185 114.253,29.116 C114.575,32.978 114.415,53.576 114.253,56.955 C117.15,57.6 120.207,58.082 123.265,58.082 C131.795,58.082 136.942,52.772 136.942,44.403 C136.942,37.806 132.76,32.978 127.288,32.978 L127.288,32.977 Z" id="Shape" fill="#9B9B9B"></path>
                </g>
            </g>
        </g>
    </g>
</svg>