<?xml version="1.0" encoding="UTF-8"?>
<svg width="24px" height="24px" viewBox="0 0 24 24" version="1.1" xmlns="http://www.w3.org/2000/svg" xmlns:xlink="http://www.w3.org/1999/xlink">
    <!-- Generator: sketchtool 49.3 (51167) - http://www.bohemiancoding.com/sketch -->
    <title>47DBF432-7FF5-4106-8F82-036AA1153CBA</title>
    <desc>Created with sketchtool.</desc>
    <defs></defs>
    <g id="Symbols" stroke="none" stroke-width="1" fill="none" fill-rule="evenodd">
        <g id="android" fill="#333333">
            <path d="M15.9154304,14.1715424 L15.9433214,14.1561027 C15.9433214,14.1561027 18.8975315,12.5188109 19.290621,12.3018459 C19.6830879,12.0841961 19.6452358,11.7858615 19.3141541,11.6140949 C19.0555393,11.4806163 17.1512903,10.4206942 16.3245821,9.95999377 L13.9090802,12.2495502 L15.9154304,14.1715424 Z M15.5122553,14.3947953 L13.795835,15.34527 L12.4614848,16.0841961 C12.4614848,16.0841961 7.90758599,18.6075891 6.20735253,19.5496591 L13.5893292,12.5526163 L15.5123175,14.3947953 L15.5122553,14.3947953 Z M5.30761712,4.00955019 C5.43536809,3.98296654 5.58982724,4.01154241 5.74459767,4.09720778 C6.11720467,4.30371362 12.4614848,7.81873307 12.4614848,7.81873307 L15.9239595,9.7366786 L13.598979,11.9523984 L5.30755486,4.00955019 L5.30761712,4.00955019 Z M5.00959377,4.33359689 C5.00330584,4.36877198 5.00000623,4.40687315 5.00000623,4.44758911 L5.00000623,19.607807 C5.00000623,19.7850521 5.07981946,19.9072623 5.20539144,19.9519004 L13.2801619,12.2563984 L5.00965603,4.33359689 L5.00959377,4.33359689 Z" id="Fill-1"></path>
        </g>
    </g>
</svg>