<?xml version="1.0" encoding="UTF-8"?>
<svg width="120px" height="120px" viewBox="0 0 120 120" version="1.1" xmlns="http://www.w3.org/2000/svg" xmlns:xlink="http://www.w3.org/1999/xlink">
    <!-- Generator: sketchtool 49.3 (51167) - http://www.bohemiancoding.com/sketch -->
    <title>E8D20754-3C1E-4A77-8D8E-23F8E5EB80CC</title>
    <desc>Created with sketchtool.</desc>
    <defs>
        <linearGradient x1="-5.74872764e-14%" y1="50%" x2="100%" y2="50%" id="linearGradient-1">
            <stop stop-color="#E5EDF6" offset="0%"></stop>
            <stop stop-color="#E6F0FA" offset="100%"></stop>
        </linearGradient>
    </defs>
    <g id="Symbols" stroke="none" stroke-width="1" fill="none" fill-rule="evenodd">
        <g id="status/complete" fill-rule="nonzero">
            <g id="shiftnow-icons_status-complete" transform="translate(4.000000, 21.000000)">
                <g id="wallet">
                    <path d="M84.26,25.08 L78.11,28.64 L84.26,25.09 L84.26,23.63 C84.26,23.63 86.05,22.55 87.17,23.12 L48.75,0.93 C48.3961983,0.731403962 47.995635,0.631263136 47.59,0.64 C46.9008761,0.662042391 46.2291498,0.861837889 45.64,1.22 L1.89,26.46 C1.24843781,26.7905509 0.714273447,27.2969665 0.35,27.92 C0.18420283,28.2267155 0.10146766,28.5714454 0.11,28.92 L0.11,30.54 C0.190308973,31.3019475 0.659530039,31.9679387 1.35,32.3 L4.07,33.87 L1.89,35.12 C1.24843781,35.4505509 0.714273447,35.9569665 0.35,36.58 C0.16907629,36.8814386 0.0788111689,37.2286121 0.09,37.58 C0.151838725,38.3721293 0.637859087,39.068631 1.36,39.4 L33.16,57.76 C35.5233571,58.8313182 38.2551006,58.7162584 40.52,57.45 L83.87,32.45 C84.0007856,32.395263 84.1277391,32.3317862 84.25,32.26 C86.0907528,31.0736944 87.2510334,29.0766729 87.37,26.89 C87.37,24.88 86,24.09 84.26,25.08 Z" id="Shape" fill="#BF762E"></path>
                    <path d="M88.64,25.53 C88.6508054,25.4537141 88.6508054,25.3762859 88.64,25.3 C88.6317833,25.181617 88.6116821,25.0643604 88.58,24.95 C88.5898378,24.907225 88.5898378,24.862775 88.58,24.82 C88.5551682,24.7031734 88.5183049,24.5892324 88.47,24.48 C88.47,24.48 88.47,24.39 88.47,24.36 C88.4167089,24.2400032 88.3566112,24.1231465 88.29,24.01 L88.29,23.96 C88.106168,23.6724253 87.8601175,23.4297922 87.57,23.25 L87.52,23.25 L48.75,0.93 C48.3961983,0.731403962 47.995635,0.631263136 47.59,0.64 C46.9008761,0.662042391 46.2291498,0.861837889 45.64,1.22 L1.89,26.46 C1.36757605,26.7450439 0.911009631,27.1368733 0.55,27.61 C0.476902373,27.7070219 0.413277793,27.8108304 0.36,27.92 C0.17907629,28.2214386 0.0888111689,28.5686121 0.1,28.92 L0.1,30.54 C0.180308973,31.3019475 0.649530039,31.9679387 1.34,32.3 L4.06,33.87 L33.16,50.64 C35.5233571,51.7113182 38.2551006,51.5962584 40.52,50.33 L77.12,29.21 L78.12,28.64 L84.27,25.08 C84.8539073,24.6740454 85.5948378,24.5666105 86.27,24.79 C86.2988639,24.778324 86.3311361,24.778324 86.36,24.79 C87.055709,25.2037984 87.4463867,25.9851538 87.36,26.79 C87.2449921,28.9726504 86.0878367,30.966976 84.25,32.15 L83.86,32.38 L81,34.06 L40.52,57.42 C38.2551006,58.6862584 35.5233571,58.8013182 33.16,57.73 L1.36,39.37 C0.641744681,39.0358682 0.159921496,38.3399014 0.1,37.55 L0.1,39.17 C0.180308973,39.9319475 0.649530039,40.5979387 1.34,40.93 L33.16,59.3 C35.5217836,60.3743881 38.2534921,60.2630413 40.52,59 L84.22,33.77 C86.8156143,32.0609044 88.4478744,29.2229976 88.62,26.12 C88.6398672,25.9240028 88.6465489,25.7268926 88.64,25.53 Z" id="Shape" fill="#FFAE43"></path>
                    <path d="M84.25,23.53 C85.1001084,22.9413184 86.1759653,22.7823429 87.16,23.1 L48.75,0.93 C48.3961983,0.731403962 47.995635,0.631263136 47.59,0.64 C46.9008761,0.662042391 46.2291498,0.861837889 45.64,1.22 L1.89,26.46 C1.73574157,26.5521141 1.58865699,26.6557419 1.45,26.77 C1.34904218,26.8338744 1.25218575,26.9040118 1.16,26.98 C1.06799337,27.0611569 0.981156918,27.1479934 0.9,27.24 C0.794428911,27.3413036 0.694289073,27.4481195 0.6,27.56 C0.526902373,27.6570219 0.463277793,27.7608304 0.41,27.87 C0.41,27.87 0.41,27.87 0.41,27.92 C0.41,27.97 0.33,28.09 0.3,28.17 C0.27,28.25 0.24,28.39 0.21,28.48 C0.205380769,28.5599333 0.205380769,28.6400667 0.21,28.72 C0.21,28.72 0.21,28.8 0.21,28.84 C0.21,28.88 0.21,28.94 0.21,28.99 C0.2153239,29.0817351 0.232121409,29.1724417 0.26,29.26 C0.285364605,29.3542011 0.32231322,29.4448931 0.37,29.53 C0.402061386,29.6120316 0.438788018,29.6921624 0.48,29.77 C0.556860903,29.8752209 0.640364234,29.9754249 0.73,30.07 C0.777205957,30.1258856 0.827272936,30.1792904 0.88,30.23 C1.04894071,30.3893622 1.23705213,30.5270866 1.44,30.64 L15.61,38.82 L33.16,49.08 C33.32,49.17 33.5,49.24 33.68,49.32 C35.9332639,50.1192553 38.4200664,49.9229288 40.52,48.78 L75.88,28.37 L84.25,23.53 Z" id="Shape" fill="#FFC56D"></path>
                    <path d="M27.2,38.09 C20.07,39.81 13.74,44.47 13.65,47.71 C13.6194831,47.9088083 13.5994554,48.1090855 13.59,48.31 L8.23,45.46 C7.37,44.94 7.23,44.79 6.85,44.53 L6.7,44.43 C2.87,41.81 10.7,33.16 17.04,32.23 C18.25,32.06 19.95,31.7 21.18,32.41 L26.87,35.7 C28.11,36.4 28.38,37.8 27.2,38.09 Z" id="Shape" fill="#FF931E"></path>
                    <path d="M22.74,34.87 C22.701658,34.3108694 22.3487223,33.8221893 21.83,33.61 C20.4504347,32.9397434 18.8395653,32.9397434 17.46,33.61 C16.9631351,33.8153276 16.6179923,34.2755179 16.56,34.81 L16.56,35.46 C16.613593,36.0063286 16.9632462,36.4789367 17.47,36.69 C18.8495653,37.3602566 20.4604347,37.3602566 21.84,36.69 C22.3548008,36.4802917 22.7044021,35.9947344 22.74,35.44 L22.74,34.87 Z" id="Shape" fill="url(#linearGradient-1)"></path>
                    <path d="M21.84,36 C20.4604347,36.6702566 18.8495653,36.6702566 17.47,36 C16.26,35.33 16.25,34.24 17.47,33.57 C18.8495653,32.8997434 20.4604347,32.8997434 21.84,33.57 C23,34.28 23,35.37 21.84,36 Z" id="Shape" fill="#FFFFFF"></path>
                </g>
                <path d="M62.25,75.37 L62.38,75.44 L62.45,75.44 L66.72,77.89 L67.57,78.38 C72.05,80.73 78.14,80.25 84.84,76.38 C98.6,68.44 109.75,49.2 109.75,33.38 C109.75,25.54 107,20.02 102.53,17.43 C102.44,17.36 102.32,17.31 102.21,17.24 L97.82,14.71 C93.29,12.13 87,12.47 80,16.5 C66.24,24.45 55.09,43.68 55.09,59.5 C55.1,67.28 57.83,72.76 62.25,75.37 Z" id="Shape" fill="#08A16E"></path>
                <path d="M65.76,40.46 L65.54,40.89 C62.03,47.89 59.92,55.36 59.92,62.23 C59.92,78.02 71.07,84.38 84.83,76.43 C98.59,68.48 109.74,49.25 109.74,33.43 C109.74,17.61 98.59,11.28 84.83,19.23 C79.9101,22.2071249 75.5893839,26.0767773 72.09,30.64" id="Shape" fill="#23C48A"></path>
                <polygon id="Shape" fill="#FFFFFF" points="92.86 36.18 95.26 37.36 83.95 57.92 77.99 54.5 80.31 50.49 83.86 52.53"></polygon>
                <path d="M86.1,29.58 C95.33,24.25 102.86,28.58 102.89,39.15 C102.92,49.72 95.43,62.7 86.2,68 C76.97,73.3 69.45,69 69.42,58.44 C69.39,47.88 76.88,34.9 86.1,29.58 Z M86.2,64.26 C93.61,60 99.63,49.56 99.6,41 C99.57,32.44 93.52,29 86.1,33.31 C78.68,37.62 72.68,48 72.7,56.57 C72.72,65.14 78.78,68.57 86.19,64.26 L86.2,64.26 Z" id="Shape" fill="#FFFFFF"></path>
            </g>
        </g>
    </g>
</svg>