<?xml version="1.0" encoding="UTF-8"?>
<svg width="20px" height="20px" viewBox="0 0 20 20" version="1.1" xmlns="http://www.w3.org/2000/svg" xmlns:xlink="http://www.w3.org/1999/xlink">
    <!-- Generator: sketchtool 49.3 (51167) - http://www.bohemiancoding.com/sketch -->
    <title>ABD5E6F0-F517-4230-8CDB-0DD0D19D9609</title>
    <desc>Created with sketchtool.</desc>
    <defs></defs>
    <g id="Desktop" stroke="none" stroke-width="1" fill="none" fill-rule="evenodd">
        <g id="2.2-processing-3" transform="translate(-272.000000, -384.000000)">
            <g id="step-3" transform="translate(152.000000, 272.000000)">
                <g id="alert" transform="translate(100.000000, 84.000000)">
                    <g id="alert/orange" transform="translate(20.000000, 28.000000)">
                        <circle id="Oval-2" fill="#FFC56D" cx="10" cy="10" r="10"></circle>
                        <path d="M11.072998,12.5842285 L9.28710938,12.5842285 L9.09057617,3.80859375 L11.2780762,3.80859375 L11.072998,12.5842285 Z M9.03076172,15.267334 C9.03076172,14.9426253 9.13614803,14.673463 9.34692383,14.4598389 C9.55769962,14.2462148 9.84537578,14.1394043 10.2099609,14.1394043 C10.5745461,14.1394043 10.8622223,14.2462148 11.072998,14.4598389 C11.2837738,14.673463 11.3891602,14.9426253 11.3891602,15.267334 C11.3891602,15.5806494 11.2866221,15.842691 11.081543,16.0534668 C10.8764638,16.2642426 10.5859394,16.3696289 10.2099609,16.3696289 C9.8339825,16.3696289 9.54345806,16.2642426 9.33837891,16.0534668 C9.13329976,15.842691 9.03076172,15.5806494 9.03076172,15.267334 Z" id="!" fill="#000000"></path>
                    </g>
                </g>
            </g>
        </g>
    </g>
</svg>