<?xml version="1.0" encoding="UTF-8"?>
<svg width="108px" height="108px" viewBox="0 0 108 108" version="1.1" xmlns="http://www.w3.org/2000/svg" xmlns:xlink="http://www.w3.org/1999/xlink">
    <!-- Generator: sketchtool 49.3 (51167) - http://www.bohemiancoding.com/sketch -->
    <title>6BD1718F-261B-4717-95A6-790769D6821A</title>
    <desc>Created with sketchtool.</desc>
    <defs></defs>
    <g id="Symbols" stroke="none" stroke-width="1" fill="none" fill-rule="evenodd">
        <g id="timer" fill="#0099F7" fill-rule="nonzero">
            <path d="M93.4907975,53.0320856 C93.4907975,31.2383751 75.810779,13.5721925 54,13.5721925 C32.189221,13.5721925 14.5092025,31.2383751 14.5092025,53.0320856 C14.5092025,74.825796 32.189221,92.4919786 54,92.4919786 C75.810779,92.4919786 93.4907975,74.825796 93.4907975,53.0320856 Z M54.7546012,1.50802139 L54.7546012,12.0709701 C77.050678,12.4730465 95,30.6573923 95,53.0320856 C95,75.6586532 76.6442885,94 54,94 C31.3557115,94 13,75.6586532 13,53.0320856 C13,30.6573923 30.949322,12.4730465 53.2453988,12.0709701 L53.2453988,1.50802139 L41.9263804,1.50802139 L41.9263804,0 L66.0736196,0 L66.0736196,1.50802139 L54.7546012,1.50802139 Z M80.9979447,17.1854703 L88.7669527,11.8412342 L94.2177815,17.2877973 L88.8693598,25.0507254 L80.9979447,17.1854703 Z M92.2623559,17.4665663 L88.5880436,13.7951295 L83.3472234,17.4002462 L88.6544157,22.7032852 L92.2623559,17.4665663 Z" id="Combined-Shape"></path>
        </g>
    </g>
</svg>