<?xml version="1.0" encoding="UTF-8"?>
<svg width="112px" height="24px" viewBox="0 0 112 24" version="1.1" xmlns="http://www.w3.org/2000/svg" xmlns:xlink="http://www.w3.org/1999/xlink">
    <!-- Generator: sketchtool 49.3 (51167) - http://www.bohemiancoding.com/sketch -->
    <title>7EBC82FC-D2BE-4699-A0B7-BD493D0688F2</title>
    <desc>Created with sketchtool.</desc>
    <defs>
        <linearGradient x1="50%" y1="100%" x2="50%" y2="0%" id="linearGradient-1">
            <stop stop-color="#E37A27" offset="0%"></stop>
            <stop stop-color="#F9A220" offset="47.2%"></stop>
        </linearGradient>
        <linearGradient x1="49.999124%" y1="99.9995325%" x2="49.999124%" y2="0%" id="linearGradient-2">
            <stop stop-color="#FFFFFF" offset="0%"></stop>
            <stop stop-color="#F9A220" offset="100%"></stop>
        </linearGradient>
        <linearGradient x1="50%" y1="0.395365627%" x2="50%" y2="99.6046344%" id="linearGradient-3">
            <stop stop-color="#4A484A" offset="0%"></stop>
            <stop stop-color="#FFFFFF" offset="100%"></stop>
        </linearGradient>
    </defs>
    <g id="Symbols" stroke="none" stroke-width="1" fill="none" fill-rule="evenodd">
        <g id="trustpilot" fill-rule="nonzero">
            <g transform="translate(4.000000, 6.000000)">
                <path d="M24.5783687,0.683822392 C24.5783687,0.798927337 24.5724578,0.90206797 24.5604323,0.987468413 C24.5465724,1.07493167 24.5276169,1.14362333 24.5001008,1.19601877 C24.4725848,1.24758909 24.4389541,1.2859574 24.4008393,1.31112372 C24.3602786,1.33567119 24.3164568,1.3476355 24.2673355,1.3476355 L20.9480858,1.3476355 L20.9480858,11.7033675 C20.9480858,11.7539065 20.9352449,11.7959878 20.9111939,11.8333247 C20.886939,11.8700428 20.8441363,11.8997473 20.783601,11.9205817 C20.7224542,11.9418287 20.642352,11.9614254 20.5422751,11.9773091 C20.4415868,11.9905111 20.3156245,12 20.1639805,12 C20.0182474,12 19.8933042,11.9903048 19.7897624,11.9773091 C19.6854052,11.9614254 19.6044877,11.9418287 19.5425257,11.9205817 C19.4821942,11.8997473 19.4406144,11.8700428 19.415748,11.8333247 C19.3914932,11.7959878 19.3794676,11.7539065 19.3794676,11.7033675 L19.3794676,1.3476355 L16.0587911,1.3476355 C16.0102814,1.3476355 15.9672748,1.33567119 15.9269179,1.31112372 C15.8879878,1.2859574 15.8561915,1.24738281 15.8319367,1.19601877 C15.8070703,1.14362333 15.7872995,1.07493167 15.7716052,0.987468413 C15.75693,0.902274251 15.75,0.799133619 15.75,0.683822392 C15.75,0.566242071 15.75693,0.46330772 15.7716052,0.374606776 C15.7872995,0.284461864 15.8068665,0.212263421 15.8319367,0.157392605 C15.8561915,0.103140632 15.8879878,0.0620906606 15.9269179,0.0369243463 C15.9672748,0.0134082822 16.0102814,0.000206281265 16.0587911,0.000206281265 L24.2673355,0.000206281265 C24.3164568,0.000206281265 24.3602786,0.0134082822 24.4008393,0.0369243463 C24.4387503,0.0620906606 24.4725848,0.103346914 24.5001008,0.157392605 C24.5276169,0.212263421 24.5465724,0.284461864 24.5604323,0.374606776 C24.572254,0.46330772 24.5783687,0.566242071 24.5783687,0.683822392 Z M34.6476089,11.7033675 C34.6476089,11.7539065 34.6390484,11.7959878 34.6182585,11.8333247 C34.6011374,11.8700428 34.5624111,11.9016038 34.5012643,11.9238822 C34.4399138,11.9500799 34.3557351,11.9674076 34.2460785,11.9810221 C34.1366258,11.9929864 33.9900775,12 33.8082678,12 C33.6496938,12 33.5204704,11.9929864 33.4203935,11.9810221 C33.3205205,11.9676138 33.2402144,11.9478108 33.1790676,11.9203754 C33.1179209,11.8937651 33.0704302,11.8551906 33.0376148,11.8046516 C33.0031688,11.7563818 32.9746337,11.6955289 32.9497673,11.6196173 L31.8656353,8.80490949 C31.7382462,8.4855861 31.6043348,8.19060389 31.4692005,7.92367593 C31.3320279,7.65674798 31.1693776,7.42653808 30.9804341,7.23139601 C30.7916944,7.03811046 30.5703432,6.88670002 30.3151574,6.78025888 C30.0601754,6.6721675 29.7532187,6.61832809 29.3946949,6.61832809 L28.3448051,6.61832809 L28.3448051,11.7033675 C28.3448051,11.7539065 28.3317604,11.7959878 28.3034291,11.8333247 C28.2759131,11.8700428 28.2345371,11.8997473 28.17604,11.9205817 C28.1173391,11.9418287 28.0398866,11.9614254 27.9400135,11.9773091 C27.8391214,11.9905111 27.7133629,12 27.5606998,12 C27.4090559,12 27.2832974,11.9903048 27.1832205,11.9773091 C27.0823284,11.9614254 27.0014108,11.9418287 26.9402641,11.9205817 C26.8799326,11.8997473 26.8387605,11.8700428 26.8126712,11.8333247 C26.7894354,11.7959878 26.7774099,11.7539065 26.7774099,11.7033675 L26.7774099,0.647310608 C26.7774099,0.406580372 26.8385566,0.239286267 26.964519,0.143159198 C27.0886469,0.0482698159 27.2203162,1.42108547e-14 27.3607499,1.42108547e-14 L29.8679708,1.42108547e-14 C30.1661631,1.42108547e-14 30.414419,0.00887009437 30.6117192,0.0235160642 C30.8090194,0.0377494714 30.9873641,0.0567273477 31.1453265,0.0752926615 C31.6010737,0.154504667 32.0036232,0.280955082 32.3535864,0.452787376 C32.7029382,0.624619669 32.9966465,0.842658965 33.2345074,1.10855552 C33.4707377,1.37218297 33.6490824,1.67644784 33.7670956,2.01743077 C33.8859241,2.35758857 33.944625,2.73549585 33.944625,3.14702697 C33.944625,3.54845031 33.8910197,3.90593574 33.7842167,4.22340261 C33.6784328,4.53921923 33.5257697,4.81934918 33.3250046,5.06255479 C33.1242394,5.30596669 32.8847479,5.51616729 32.604492,5.69501315 C32.3252551,5.87427157 32.0113684,6.02444433 31.6642587,6.14738796 C31.8609474,6.23299469 32.0356233,6.34211748 32.1941972,6.47372492 C32.3519558,6.6071889 32.4985042,6.76602548 32.6364921,6.94920324 C32.7726455,7.13506266 32.901869,7.3471198 33.0251816,7.58867516 C33.1448255,7.82589861 33.2673228,8.09818988 33.3890048,8.40059822 L34.4464361,11.0298592 C34.5318377,11.2516116 34.5860545,11.4077665 34.6111247,11.4958486 C34.633749,11.5857872 34.6476089,11.6544789 34.6476089,11.7033675 Z M32.2851021,3.31370223 C32.2851021,2.84626889 32.1815602,2.45020886 31.9748842,2.12758496 C31.7680043,1.80578619 31.421506,1.57248208 30.9355931,1.43117941 C30.7829301,1.38786035 30.6115153,1.357537 30.4203298,1.33794028 C30.228329,1.31958125 29.9782388,1.31091744 29.6678171,1.31091744 L28.3448051,1.31091744 L28.3448051,5.33567119 L29.8773466,5.33567119 C30.2909025,5.33567119 30.6467766,5.28389459 30.9494531,5.18302305 C31.2502951,5.08091383 31.5009968,4.93961116 31.7009467,4.75808365 C31.9017119,4.57593729 32.0492794,4.36305503 32.1438531,4.11716776 C32.2378152,3.87107421 32.2851021,3.60270228 32.2851021,3.31370223 Z M45.1583287,7.46944459 C45.1583287,8.18379661 45.0568251,8.82161828 44.8497414,9.38167191 C44.6438807,9.94316951 44.3489495,10.4159662 43.9645402,10.8039812 C43.5817615,11.1911712 43.1148041,11.4842968 42.5640756,11.6841834 C42.0149778,11.8859265 41.3886312,11.985354 40.6887046,11.985354 C40.0472751,11.985354 39.4647504,11.8912898 38.9372577,11.7033675 C38.4115994,11.5158579 37.9591134,11.2386159 37.5816341,10.8714352 C37.2047663,10.5050797 36.9153383,10.0452787 36.7119234,9.49657057 C36.5085085,8.94456191 36.4068011,8.30859677 36.4068011,7.58908772 L36.4068011,0.291475427 C36.4068011,0.242793048 36.4180113,0.201330514 36.4420624,0.16316848 C36.4661134,0.12727554 36.5083047,0.0988087257 36.5670056,0.0777680367 C36.6273371,0.0567273477 36.7047896,0.0379557527 36.8014015,0.0235160642 C36.8963828,0.00763240679 37.0219375,1.42108547e-14 37.1780655,1.42108547e-14 C37.3219642,1.42108547e-14 37.4444615,0.00763240679 37.546169,0.0235160642 C37.6470611,0.0377494714 37.7271634,0.0567273477 37.7840299,0.0777680367 C37.8400811,0.0988087257 37.881457,0.12727554 37.9055081,0.16316848 C37.9295591,0.201330514 37.9415847,0.242586767 37.9415847,0.291475427 L37.9415847,7.39621474 C37.9415847,7.94244753 38.0070117,8.41751328 38.1382734,8.8224434 C38.2709619,9.22902377 38.4607206,9.56649992 38.7085688,9.83569697 C38.9560094,10.1057191 39.2560361,10.3097313 39.6068147,10.4450518 C39.9557588,10.5807849 40.3497478,10.6498891 40.7875585,10.6498891 C41.2357643,10.6498891 41.6354602,10.5842917 41.9846082,10.4485586 C42.3362021,10.3167449 42.6319485,10.1168583 42.874905,9.84993038 C43.1170461,9.58258986 43.3015055,9.25253984 43.4299137,8.85792378 C43.5601563,8.46640194 43.6239528,8.00598216 43.6239528,7.47831468 L43.6239528,0.291475427 C43.6239528,0.242793048 43.6357745,0.201330514 43.6602332,0.16316848 C43.6842842,0.12727554 43.725864,0.0988087257 43.7851764,0.0777680367 C43.8455078,0.0567273477 43.9247948,0.0379557527 44.0230373,0.0235160642 C44.122095,0.00763240679 44.2470382,1.42108547e-14 44.3962363,1.42108547e-14 C44.540135,1.42108547e-14 44.6607979,0.00763240679 44.7588366,0.0235160642 C44.8580981,0.0377494714 44.9355507,0.0567273477 44.9924172,0.0777680367 C45.0503028,0.0988087257 45.0914749,0.12727554 45.118991,0.16316848 C45.1458955,0.201330514 45.1579211,0.242586767 45.1579211,0.291475427 L45.1579211,7.46944459 L45.1583287,7.46944459 Z M54.0070796,8.55365891 C54.0070796,9.10174823 53.9061875,9.58836574 53.708072,10.0141303 C53.5089374,10.4403074 53.2333694,10.8012996 52.8813679,11.097932 C52.5281434,11.3955959 52.1127531,11.6198236 51.6354008,11.7697901 C51.1570293,11.9191377 50.6442119,11.9950492 50.091649,11.9950492 C49.7056092,11.9950492 49.3487159,11.9626631 49.0205617,11.894384 C48.6903692,11.8291991 48.3972724,11.7489557 48.1388254,11.6522098 C47.8809899,11.5560827 47.6637151,11.4574803 47.4888354,11.3555773 C47.3139557,11.2534681 47.1932928,11.1670363 47.1260313,11.0944252 C47.0561202,11.0222268 47.0053684,10.9298128 46.9735721,10.8198649 C46.9407566,10.708473 46.924247,10.5591254 46.924247,10.3732659 C46.924247,10.2416585 46.9301579,10.1325357 46.9423872,10.045485 C46.9535975,9.95822804 46.9715338,9.88747357 46.9957887,9.83342788 C47.0190245,9.77938219 47.0491902,9.74204528 47.0836362,9.72079831 C47.1197128,9.6999639 47.1621079,9.68964984 47.2085794,9.68964984 C47.2913314,9.68964984 47.4093446,9.74142643 47.5601733,9.84229797 C47.7118172,9.94481976 47.9056525,10.0568305 48.1435133,10.1750297 C48.3803551,10.2965293 48.6667258,10.4091589 49.0009947,10.5116807 C49.3364866,10.6172967 49.7233417,10.6705173 50.1621716,10.6705173 C50.4939947,10.6705173 50.7993208,10.6269919 51.0748889,10.5356093 C51.3506607,10.4450518 51.5879101,10.3177763 51.7876562,10.1533701 C51.9841411,9.98751998 52.1384348,9.78515806 52.2450339,9.54545923 C52.3502064,9.30555412 52.4036079,9.03243773 52.4036079,8.72631633 C52.4036079,8.39502862 52.3296203,8.11221701 52.1830719,7.87932546 C52.0338738,7.64478366 51.8392233,7.43974009 51.5952478,7.2623382 C51.3512722,7.08576144 51.074685,6.92341808 50.7626328,6.7767521 C50.4524149,6.62946728 50.1326173,6.47867567 49.8069089,6.32582126 C49.4801814,6.17379197 49.1622183,6.0038162 48.8544463,5.81713166 C48.545859,5.63127224 48.2709024,5.4126141 48.0277422,5.16033211 C47.7837666,4.90805013 47.5864664,4.61141767 47.4348224,4.27332268 C47.2839938,3.93460884 47.2081718,3.52740962 47.2081718,3.05378784 C47.2081718,2.56634521 47.2958155,2.13356712 47.4719181,1.75256562 C47.6453711,1.37032644 47.888939,1.05120932 48.2007875,0.792945181 C48.5122283,0.535506163 48.8827776,0.33768243 49.313047,0.203187046 C49.7418896,0.067041411 50.2074202,0 50.7047472,0 C50.9601368,0 51.2157302,0.0235160642 51.4751963,0.067041411 C51.7322165,0.11262957 51.9757844,0.173482543 52.2040656,0.247743799 C52.4327545,0.322830179 52.6353541,0.407405497 52.8143103,0.498994379 C52.9902091,0.59223351 53.1092414,0.668145016 53.1644773,0.725697489 C53.2215476,0.782424836 53.2582357,0.826775308 53.2755606,0.859986592 C53.2947199,0.893197875 53.3093952,0.935898097 53.3206054,0.985611882 C53.3324271,1.03697592 53.3422106,1.09824145 53.3473061,1.17126502 C53.353217,1.24284462 53.3574973,1.33525863 53.3574973,1.44850704 C53.3574973,1.55762983 53.3513826,1.65355062 53.3428221,1.73730081 C53.334873,1.82187613 53.3204016,1.89324945 53.3022614,1.95018307 C53.2849365,2.00587902 53.259051,2.04940436 53.2270509,2.07580836 C53.1944393,2.1017998 53.1573436,2.11665206 53.1161714,2.11665206 C53.0495214,2.11665206 52.9490369,2.07395183 52.8083994,1.98937651 C52.6695963,1.90562632 52.4998121,1.81238719 52.2972125,1.70594606 C52.0954282,1.60094889 51.8559368,1.50626579 51.5817955,1.41797741 C51.3052083,1.33175184 50.9947866,1.28698881 50.650938,1.28698881 C50.3313443,1.28698881 50.0519036,1.33175184 49.814858,1.41797741 C49.5778124,1.50605951 49.3811237,1.62219586 49.2278492,1.76411737 C49.0727402,1.9091331 48.958192,2.07993399 48.8805356,2.27713888 C48.8038983,2.4762003 48.7649682,2.68743231 48.7649682,2.90877211 C48.7649682,3.23242741 48.8391596,3.51090712 48.9875424,3.74606776 C49.1357214,3.98060956 49.3330216,4.18771595 49.5786277,4.36697437 C49.8260683,4.54664535 50.1061204,4.71249549 50.4200071,4.86143056 C50.7345052,5.01139704 51.0551181,5.16425146 51.3808265,5.31813728 C51.707554,5.47057913 52.0263324,5.63911093 52.3418496,5.821051 C52.6563478,6.00546645 52.9353808,6.21979269 53.1838405,6.46939302 C53.4284275,6.71961219 53.6269506,7.01273787 53.7775755,7.35289567 C53.9312577,7.6928472 54.0070796,8.09241401 54.0070796,8.55365891 Z M63.75,0.682378423 C63.75,0.799133619 63.7438853,0.900211438 63.7318598,0.985199319 C63.7188152,1.07163117 63.7000635,1.14197308 63.6725474,1.1935434 C63.6464582,1.24593884 63.610993,1.28410087 63.5722668,1.30864834 C63.5333367,1.33402094 63.4884957,1.34516013 63.4399859,1.34516013 L60.1262394,1.34516013 L60.1262394,11.6835645 C60.1262394,11.7324532 60.1144177,11.7761848 60.0895513,11.8120778 C60.0659079,11.8494147 60.0229014,11.8791192 59.9625699,11.9007787 C59.901627,11.9216131 59.8221362,11.9401784 59.7214479,11.9548244 C59.6203519,11.9707081 59.4945934,11.978753 59.3437647,11.978753 C59.1972163,11.978753 59.0722731,11.9707081 58.9707695,11.9548244 C58.8662086,11.9401784 58.785291,11.9216131 58.7249596,11.9007787 C58.6638128,11.8791192 58.6216215,11.8494147 58.5967552,11.8120778 C58.5731118,11.7761848 58.560271,11.7326595 58.560271,11.6835645 L58.560271,1.34495384 L55.2465244,1.34495384 C55.1984223,1.34495384 55.1543966,1.33381466 55.1144474,1.30844206 C55.0749058,1.28389459 55.0429057,1.24573256 55.0188546,1.19333712 C54.9956189,1.1417668 54.9750328,1.07142489 54.9591346,0.984993038 C54.9444594,0.900211438 54.9361027,0.798927337 54.9361027,0.682172142 C54.9361027,0.56603579 54.9444594,0.461451189 54.9591346,0.374400495 C54.9750328,0.284255582 54.9956189,0.211232015 55.0188546,0.157186324 C55.0431095,0.102934351 55.0749058,0.0618843794 55.1144474,0.0367180651 C55.1541928,0.0132020009 55.1982185,1.50990331e-14 55.2465244,1.50990331e-14 L63.4399859,1.50990331e-14 C63.4882919,1.50990331e-14 63.5333367,0.0132020009 63.5722668,0.0367180651 C63.610993,0.0618843794 63.6464582,0.103140632 63.6725474,0.157186324 C63.7000635,0.211438296 63.7188152,0.284255582 63.7318598,0.374400495 C63.7438853,0.461451189 63.75,0.566242071 63.75,0.682378423 Z" id="Shape" fill="#FFFFFF"></path>
                <path d="M72.4878514,3.497645 C72.4878514,4.09502527 72.3908124,4.63341011 72.1953102,5.1140372 C72.0006218,5.59383917 71.7241521,6.003713 71.3624426,6.34035824 C71.0019538,6.67968508 70.5588698,6.94165779 70.0333942,7.12565751 C69.508529,7.31068862 68.8833697,7.40227593 68.1534408,7.40227593 L66.8160515,7.40227593 L66.8160515,11.7031664 C66.8160515,11.7537044 66.8012007,11.7957851 66.7745505,11.8331213 C66.7470866,11.8698388 66.7051788,11.8995428 66.6474029,11.9203768 C66.5904408,11.9416234 66.510287,11.9612198 66.4095861,11.9771032 C66.3109195,11.9903049 66.1845857,11.9997937 66.0330257,11.9997937 C65.8816693,11.9997937 65.7549285,11.9900987 65.656262,11.9771032 C65.5537302,11.9612198 65.4737798,11.9416234 65.4135627,11.9203768 C65.3519215,11.8995428 65.3102171,11.8698388 65.2864151,11.8331213 C65.2615959,11.7957851 65.25,11.7537044 65.25,11.7031664 L65.25,0.683810637 C65.25,0.437721319 65.3136755,0.262591536 65.44123,0.157183622 C65.568581,0.0523945405 65.710376,0 65.8694631,0 L68.390037,0 C68.6457562,0 68.8890659,0.0103138859 69.1238312,0.0332107127 C69.3567656,0.0540447623 69.6338456,0.100250971 69.9505957,0.171004229 C70.2699905,0.241551208 70.5950815,0.374394059 70.9262755,0.567882559 C71.2568593,0.761577337 71.5369908,1.00044694 71.767484,1.28304741 C71.9989943,1.56647299 72.1761872,1.89362946 72.3000798,2.26616702 C72.4249896,2.63870458 72.4878514,3.04878468 72.4878514,3.497645 Z M70.8396117,3.62698113 C70.8396117,3.14099082 70.7500998,2.7356551 70.5702622,2.41035514 C70.3920522,2.08381751 70.1703068,1.83979097 69.9062466,1.68013202 C69.6421865,1.52047306 69.3693786,1.41836559 69.0880264,1.37587238 C68.8048433,1.33379173 68.5295942,1.31130746 68.2630928,1.31130746 L66.8162549,1.31130746 L66.8162549,6.10066353 L68.2272881,6.10066353 C68.7004806,6.10066353 69.0935192,6.03898649 69.4053868,5.91583869 C69.7178648,5.79207206 69.9809077,5.62354316 70.1924813,5.40447623 C70.4048686,5.18582184 70.566397,4.92467425 70.676049,4.62041462 C70.7844805,4.31615498 70.8396117,3.98446041 70.8396117,3.62698113 Z M76.1920169,11.6955341 C76.1920169,11.7442156 76.1802176,11.7877402 76.1558052,11.8236326 C76.1313929,11.8595249 76.089485,11.8892289 76.0284542,11.9100629 C75.9684405,11.9321346 75.8893039,11.9500808 75.788603,11.9659642 C75.6905467,11.9810224 75.5640095,11.9880359 75.4134667,11.9880359 C75.269027,11.9880359 75.144931,11.9810224 75.0426026,11.9659642 C74.939257,11.9500808 74.8574757,11.9319284 74.7984792,11.9100629 C74.7382621,11.8892289 74.6951337,11.8595249 74.6709248,11.8236326 C74.647733,11.7877402 74.6355269,11.7442156 74.6355269,11.6955341 L74.6355269,0.294152027 C74.6355269,0.244439097 74.6493605,0.201327053 74.6751969,0.165228453 C74.7026608,0.12933613 74.7474167,0.0996321381 74.811906,0.0796231994 C74.8747678,0.0577577612 74.9563457,0.0379551002 75.0554191,0.0237219376 C75.15612,0.00907621962 75.2749267,0.000206277719 75.4134667,0.000206277719 C75.563806,0.000206277719 75.6903433,0.00907621962 75.788603,0.0237219376 C75.8893039,0.0379551002 75.9682371,0.0577577612 76.0284542,0.0796231994 C76.089485,0.0996321381 76.1315963,0.12933613 76.1558052,0.165228453 C76.1802176,0.201533331 76.1920169,0.244439097 76.1920169,0.294152027 L76.1920169,11.6955341 Z M85.192846,11.3083508 C85.192846,11.4294358 85.1875566,11.5331935 85.1757573,11.6161172 C85.1633477,11.6990408 85.1438178,11.7714443 85.1153368,11.8289958 C85.0888901,11.8871661 85.0561369,11.9311032 85.0164668,11.9570942 C84.9778139,11.9853543 84.9306168,12 84.8746718,12 L79.6675201,12 C79.5281663,12 79.3975603,11.9521436 79.2726505,11.8562244 C79.1487579,11.7609241 79.0867099,11.5928078 79.0867099,11.3529068 L79.0867099,0.295802248 C79.0867099,0.246914429 79.0972885,0.203183553 79.1223112,0.166672397 C79.1473338,0.129954963 79.1892417,0.100250971 79.2488485,0.0794169216 C79.3106931,0.0575514835 79.3924744,0.0385739334 79.49582,0.0235156599 C79.5979449,0.0088699419 79.7226513,0 79.8697356,0 C80.0202784,0 80.1457985,0.0088699419 80.2464994,0.0235156599 C80.3472003,0.0385739334 80.4263369,0.0575514835 80.4873678,0.0794169216 C80.5481952,0.100250971 80.5907133,0.129954963 80.6145154,0.166672397 C80.6391311,0.203389831 80.6515407,0.247120707 80.6515407,0.295802248 L80.6515407,10.6241276 L84.8744684,10.6241276 C84.9306168,10.6241276 84.9778139,10.6379482 85.0162634,10.6662083 C85.0559334,10.6932307 85.0886866,10.7336611 85.1151333,10.7858493 C85.1436144,10.8382439 85.1633477,10.9069344 85.1755539,10.9941898 C85.1875566,11.0795888 85.192846,11.1841716 85.192846,11.3083508 Z M95.8579862,5.8518926 C95.8579862,6.7906625 95.7483341,7.63949531 95.5294368,8.39509059 C95.310743,9.14944821 94.9842279,9.79159075 94.5494849,10.3227559 C94.1159624,10.8518582 93.5705501,11.259463 92.9152823,11.5441262 C92.259811,11.829202 91.4930601,11.9711211 90.6201156,11.9711211 C89.7571395,11.9711211 89.0107322,11.8411662 88.3817076,11.5816688 C87.7528865,11.3199024 87.2316831,10.9413827 86.8211489,10.4432221 C86.4108182,9.94691787 86.1046468,9.32932238 85.9040587,8.59249837 C85.7032673,7.85505552 85.6013457,7.00746038 85.6013457,6.04971293 C85.6013457,5.13301475 85.7122185,4.30068415 85.9298951,3.54983326 C86.1483856,2.80207653 86.4771384,2.16488466 86.9147295,1.64032042 C87.3517104,1.11534362 87.8981399,0.71248324 88.5546284,0.427819988 C89.2109134,0.143569292 89.9746127,0.000412555437 90.8495916,0.000412555437 C91.6944619,0.000412555437 92.4298836,0.129542407 93.0570773,0.386770722 C93.68244,0.645030426 94.2040503,1.02107471 94.6212978,1.51449101 C95.0371213,2.00935126 95.3467512,2.62055214 95.5510011,3.34788737 C95.7548441,4.07542889 95.8579862,4.91002854 95.8579862,5.8518926 Z M94.2453478,5.95936329 C94.2453478,5.29989342 94.1867582,4.68745488 94.0722237,4.12039743 C93.9562651,3.55540276 93.7642213,3.06404923 93.4958891,2.64716196 C93.2277602,2.23130608 92.8686954,1.90518101 92.420729,1.67146835 C91.9723557,1.43919964 91.4167716,1.32162134 90.7558075,1.32162134 C90.0950469,1.32162134 89.5402765,1.44786331 89.0912929,1.69890329 C88.6431231,1.95118094 88.2789724,2.28514457 87.9986374,2.70491972 C87.7174886,3.12531371 87.5175109,3.61501702 87.3964664,4.17423591 C87.275015,4.73531131 87.2150013,5.32382164 87.2150013,5.94059202 C87.2150013,6.62357754 87.2707428,7.25272458 87.3834464,7.82927081 C87.4953363,8.40231031 87.6847354,8.89882078 87.9492024,9.31447038 C88.2155003,9.73177021 88.5715136,10.0560388 89.016225,10.2856259 C89.4613433,10.5166569 90.0207927,10.6319662 90.695387,10.6319662 C91.3610301,10.6319662 91.922107,10.506343 92.3769902,10.2540654 C92.8304494,10.0022003 93.1968379,9.66369856 93.4741214,9.2346409 C93.7507946,8.80537697 93.9489414,8.30989789 94.0665275,7.74820366 C94.1849273,7.18506549 94.2453478,6.58809778 94.2453478,5.95936329 Z M105,0.683810637 C105,0.798913604 104.993897,0.902052463 104.98108,0.987451439 C104.969891,1.07491319 104.949344,1.14360367 104.921474,1.19599821 C104.89462,1.24756764 104.861663,1.2859353 104.8224,1.31110118 C104.782527,1.33564823 104.739398,1.34761234 104.69098,1.34761234 L101.37843,1.34761234 L101.37843,11.7031664 C101.37843,11.7537044 101.36541,11.7957851 101.33937,11.8331213 C101.316382,11.8698388 101.274067,11.8995428 101.213239,11.9203768 C101.152209,11.9416234 101.072258,11.9612198 100.971354,11.9771032 C100.872687,11.9903049 100.745947,11.9997937 100.593573,11.9997937 C100.449337,11.9997937 100.32341,11.9900987 100.221081,11.9771032 C100.117939,11.9612198 100.035344,11.9416234 99.9753305,11.9203768 C99.9147065,11.8995428 99.8719849,11.8698388 99.8483863,11.8331213 C99.823974,11.7957851 99.8117678,11.7537044 99.8117678,11.7031664 L99.8117678,1.34761234 L96.4965723,1.34761234 C96.4499854,1.34761234 96.4062466,1.33564823 96.36678,1.31110118 C96.32711,1.2859353 96.2945602,1.24736136 96.2699444,1.19599821 C96.247363,1.14360367 96.2264091,1.07491319 96.2111514,0.987451439 C96.1954868,0.902258741 96.1887734,0.799119882 96.1887734,0.683810637 C96.1887734,0.566232337 96.1956902,0.463299756 96.2111514,0.374600337 C96.2264091,0.284456974 96.247363,0.212259772 96.2699444,0.157389899 C96.2945602,0.103138859 96.3269065,0.0620895933 96.36678,0.0369237116 C96.4062466,0.0134080517 96.4499854,0.000206277719 96.4965723,0.000206277719 L104.69098,0.000206277719 C104.739398,0.000206277719 104.782527,0.0134080517 104.8224,0.0369237116 C104.861663,0.0620895933 104.89462,0.103345137 104.921474,0.157389899 C104.949344,0.212259772 104.969688,0.284456974 104.98108,0.374600337 C104.993897,0.463299756 105,0.566232337 105,0.683810637 Z" id="Shape" fill="#929497"></path>
                <g id="Group">
                    <path d="M0,0 L0,5.22 C0,5.22 3.95247458,7.10135593 5.95871186,10.4650169 C5.95871186,10.4650169 6.84386441,3.03661017 11.8132881,0 L0,0 Z" id="Shape" fill="#F9A220"></path>
                    <path d="M0,9.52088136 L0,11.832 L5.31050847,11.832 C5.31050847,11.832 3.28738983,9.67769492 0,9.52088136 Z M6.73586441,11.832 L11.8132881,11.832 L11.8132881,5.08352542 C8.93979661,5.86189831 6.73586441,11.832 6.73586441,11.832 Z" id="Shape" fill="url(#linearGradient-1)"></path>
                    <path d="M0.0789152542,0.0789152542 L11.6877966,0.0776949153 C11.6877966,0.0776949153 9.78284746,0.750508475 7.72983051,4.53498305 C7.72983051,4.53498305 3.23979661,4.99179661 0.0896949153,3.62054237 L0.0789152542,0.0789152542 Z" id="Shape" fill="url(#linearGradient-2)" opacity="0.5"></path>
                    <path d="M5.95871186,10.4650169 C3.95247458,7.10135593 0,5.22 0,5.22 L0,9.52088136 C3.28027119,9.68237288 5.31050847,11.832 5.31050847,11.832 L6.73586441,11.832 C6.73586441,11.832 8.93979661,5.86189831 11.8132881,5.08352542 L11.8132881,0 L11.7982373,0.00915254237 C6.84223729,3.05145763 5.95871186,10.4650169 5.95871186,10.4650169 Z" id="Shape" fill="url(#linearGradient-3)"></path>
                </g>
            </g>
        </g>
    </g>
</svg>