<?xml version="1.0" encoding="UTF-8"?>
<svg width="100px" height="100px" viewBox="0 0 100 100" version="1.1" xmlns="http://www.w3.org/2000/svg" xmlns:xlink="http://www.w3.org/1999/xlink">
    <!-- Generator: sketchtool 49.3 (51167) - http://www.bohemiancoding.com/sketch -->
    <title>D0F149E0-0DAE-46E2-86E5-5B9F3992CB14</title>
    <desc>Created with sketchtool.</desc>
    <defs>
        <linearGradient x1="24.508125%" y1="-484.981502%" x2="75.491875%" y2="585.131969%" id="linearGradient-1">
            <stop stop-color="#C9CFE7" offset="0%"></stop>
            <stop stop-color="#EBF0F6" offset="100%"></stop>
        </linearGradient>
        <linearGradient x1="50%" y1="-1.83109118%" x2="50%" y2="124.588939%" id="linearGradient-2">
            <stop stop-color="#FFC56D" offset="0%"></stop>
            <stop stop-color="#EBF0F6" offset="100%"></stop>
        </linearGradient>
        <linearGradient x1="50%" y1="-21.7115097%" x2="50%" y2="114.424514%" id="linearGradient-3">
            <stop stop-color="#0099F7" offset="0%"></stop>
            <stop stop-color="#EBF0F6" offset="100%"></stop>
        </linearGradient>
    </defs>
    <g id="Symbols" stroke="none" stroke-width="1" fill="none" fill-rule="evenodd">
        <g id="about-icons/honest-fees">
            <g id="about-fee-09" transform="translate(15.000000, 15.000000)">
                <rect id="Rectangle-path" fill="url(#linearGradient-1)" fill-rule="nonzero" transform="translate(35.002814, 35.000000) rotate(-45.000000) translate(-35.002814, -35.000000) " x="-4.24718626" y="33.13" width="78.5" height="3.74" rx="1.87"></rect>
                <circle id="Oval" fill="#FFC56D" fill-rule="nonzero" cx="14.98" cy="14.98" r="14.36"></circle>
                <circle id="Oval" fill="url(#linearGradient-2)" fill-rule="nonzero" cx="14.98" cy="14.98" r="13.38"></circle>
                <circle id="Oval" fill="#0099F7" fill-rule="nonzero" cx="55.02" cy="55.02" r="14.36"></circle>
                <circle id="Oval" fill="url(#linearGradient-3)" fill-rule="nonzero" cx="55.02" cy="55.02" r="13.38"></circle>
                <path d="M12.18,20.56 L9.18,20.56 L9.47,18.94 L10.53,18.94 C10.8503252,18.94 11.11,18.6803252 11.11,18.36 L11.11,11.59 C11.11,11.2696748 10.8503252,11.01 10.53,11.01 L9.17,11.01 L9.17,9.39 L12.17,9.39 L12.17,7 L13.6,7 L13.6,9.41 L14.83,9.41 L14.83,7 L16.25,7 L16.25,9.41 C16.6869126,9.41079242 17.1214127,9.47478855 17.54,9.6 C17.9452292,9.72242294 18.3271545,9.91169568 18.67,10.16 C19.0433047,10.4252368 19.3567374,10.7659245 19.59,11.16 C20.070007,11.9995676 20.070007,13.0304324 19.59,13.87 C19.444857,14.1225812 19.2666129,14.3546348 19.06,14.56 L19.21,14.65 C19.6528021,14.9267006 20.0312739,15.2949435 20.32,15.73 C20.9213219,16.639603 20.9213219,17.820397 20.32,18.73 C20.0312739,19.1650565 19.6528021,19.5332994 19.21,19.81 C18.8108768,20.060986 18.3759036,20.2498116 17.92,20.37 C17.433253,20.4954975 16.9326647,20.559331 16.43,20.56 L16.22,20.56 L16.22,23 L14.83,23 L14.83,20.56 L13.6,20.56 L13.6,23 L12.18,23 L12.18,20.56 Z M17.6,16.63 C17.4486513,16.3785171 17.2438054,16.1634289 17,16 C16.7400282,15.8378056 16.456742,15.7163972 16.16,15.64 C15.8041081,15.5471214 15.4378117,15.5000742 15.07,15.5 L13.6,15.5 L13.6,18.9 L15.06,18.9 C15.4278117,18.8999258 15.7941081,18.8528786 16.15,18.76 C16.446742,18.6836028 16.7300282,18.5621944 16.99,18.4 C17.2378584,18.2474902 17.4494478,18.0427262 17.61,17.8 C17.854422,17.4336969 17.854422,16.9563031 17.61,16.59 L17.6,16.63 Z M13.6,11 L13.6,14 L15,14 C15.2777098,14.0000237 15.5539424,13.9595994 15.82,13.88 C16.053068,13.8105119 16.2727965,13.7023379 16.47,13.56 C16.6582712,13.4210269 16.8150324,13.2438185 16.93,13.04 C17.126527,12.7270936 17.1528223,12.3364203 17,12 C16.8852809,11.7960046 16.728477,11.618748 16.54,11.48 C16.3426022,11.3379855 16.1229302,11.2298393 15.89,11.16 C15.6034829,11.0606171 15.3031915,11.0066321 15,11 L13.6,11 Z" id="Shape" fill="#FFFFFF"></path>
                <path d="M51.76,49.51 C53.1839801,49.6186179 54.2610607,50.8437662 54.1863716,52.2699285 C54.1116826,53.6960907 52.9125215,54.8020309 51.4849854,54.761313 C50.0574493,54.7205951 48.9232763,53.5481008 48.93,52.12 C48.9304382,51.3889081 49.2363265,50.6912513 49.7737538,50.1956028 C50.3111811,49.6999543 51.0312602,49.4514009 51.76,49.51 Z M51.76,53.75 C52.6476751,53.7225895 53.3477964,52.9856056 53.3296621,52.0976926 C53.3115278,51.2097796 52.5818992,50.5019963 51.6938452,50.5108523 C50.8057912,50.5197084 50.0904231,51.2419019 50.09,52.13 C50.0869656,52.5693331 50.2636029,52.9908236 50.5789507,53.2967299 C50.8942984,53.6026361 51.320962,53.7663835 51.76,53.75 Z M58.64,49.45 L59.35,49.98 L51.42,60.58 L50.69,60.07 L58.64,49.45 Z M58.27,55.28 C59.6939801,55.3886179 60.7710607,56.6137662 60.6963716,58.0399285 C60.6216826,59.4660907 59.4225215,60.5720309 57.9949854,60.531313 C56.5674493,60.4905951 55.4332763,59.3181008 55.44,57.89 C55.4404382,57.1589081 55.7463265,56.4612513 56.2837538,55.9656028 C56.8211811,55.4699543 57.5412602,55.2214009 58.27,55.28 Z M58.27,59.52 C59.1576751,59.4925895 59.8577964,58.7556056 59.8396621,57.8676926 C59.8215278,56.9797796 59.0918992,56.2719963 58.2038452,56.2808523 C57.3157912,56.2897084 56.6004231,57.0119019 56.6,57.9 C56.599696,58.3376004 56.7775319,58.7564724 57.0925698,59.0601916 C57.4076077,59.3639108 57.8327034,59.5263082 58.27,59.51 L58.27,59.52 Z" id="Shape" fill="#FFFFFF" fill-rule="nonzero"></path>
            </g>
        </g>
    </g>
</svg>