<?xml version="1.0" encoding="UTF-8"?>
<svg width="100px" height="100px" viewBox="0 0 100 100" version="1.1" xmlns="http://www.w3.org/2000/svg" xmlns:xlink="http://www.w3.org/1999/xlink">
    <!-- Generator: sketchtool 49.3 (51167) - http://www.bohemiancoding.com/sketch -->
    <title>A1BA672B-AAC2-494E-94AC-C369C24856B8</title>
    <desc>Created with sketchtool.</desc>
    <defs>
        <linearGradient x1="65.6535466%" y1="34.1403652%" x2="-10.2449765%" y2="110.038888%" id="linearGradient-1">
            <stop stop-color="#EF3434" offset="0%"></stop>
            <stop stop-color="#EBF0F6" offset="100%"></stop>
        </linearGradient>
        <linearGradient x1="58.6726283%" y1="41.3125067%" x2="-55.7494219%" y2="155.857429%" id="linearGradient-2">
            <stop stop-color="#FFC56D" offset="0%"></stop>
            <stop stop-color="#EBF0F6" offset="100%"></stop>
        </linearGradient>
        <linearGradient x1="29.9276883%" y1="95.7432136%" x2="75.1332179%" y2="-24.177379%" id="linearGradient-3">
            <stop stop-color="#C9CFE7" offset="0%"></stop>
            <stop stop-color="#EBF0F6" offset="100%"></stop>
        </linearGradient>
        <linearGradient x1="127.181186%" y1="-32.9000118%" x2="-46.6182173%" y2="153.925043%" id="linearGradient-4">
            <stop stop-color="#0099F7" offset="0%"></stop>
            <stop stop-color="#EBF0F6" offset="100%"></stop>
        </linearGradient>
        <linearGradient x1="7372%" y1="3811%" x2="7372%" y2="5621%" id="linearGradient-5">
            <stop stop-color="#0099F7" offset="0%"></stop>
            <stop stop-color="#EBF0F6" offset="100%"></stop>
        </linearGradient>
        <linearGradient x1="1165%" y1="8518%" x2="1165%" y2="9802%" id="linearGradient-6">
            <stop stop-color="#C9CFE7" offset="0%"></stop>
            <stop stop-color="#EBF0F6" offset="100%"></stop>
        </linearGradient>
        <linearGradient x1="1165%" y1="12177%" x2="1165%" y2="13461%" id="linearGradient-7">
            <stop stop-color="#C9CFE7" offset="0%"></stop>
            <stop stop-color="#EBF0F6" offset="100%"></stop>
        </linearGradient>
        <linearGradient x1="6028%" y1="7203%" x2="5946%" y2="7203%" id="linearGradient-8">
            <stop stop-color="#C9CFE7" offset="0%"></stop>
            <stop stop-color="#EBF0F6" offset="100%"></stop>
        </linearGradient>
        <linearGradient x1="-0.0212505636%" y1="49.9816352%" x2="99.806354%" y2="49.9816352%" id="linearGradient-9">
            <stop stop-color="#E5EDF6" offset="0%"></stop>
            <stop stop-color="#E6F0FA" offset="100%"></stop>
        </linearGradient>
        <linearGradient x1="7222%" y1="8026%" x2="9858%" y2="8026%" id="linearGradient-10">
            <stop stop-color="#E5EDF6" offset="0%"></stop>
            <stop stop-color="#E6F0FA" offset="100%"></stop>
        </linearGradient>
    </defs>
    <g id="Symbols" stroke="none" stroke-width="1" fill="none" fill-rule="evenodd">
        <g id="about-icons/limitless" fill-rule="nonzero">
            <g id="about-limitless" transform="translate(12.000000, 13.000000)">
                <path d="M28.44,56.49 C25.31,59.62 6.44,67.6 6.44,67.6 C6.44,67.6 14.44,48.69 17.55,45.6 C19.4285508,43.3599351 22.4101257,42.3713205 25.254885,43.0452557 C28.0996443,43.7191908 30.3208092,45.9403557 30.9947443,48.785115 C31.6686795,51.6298743 30.6800649,54.6114492 28.44,56.49 Z" id="Shape" fill="url(#linearGradient-1)"></path>
                <path d="M28.9,53 C26.85,55.05 11.49,62.49 11.49,62.49 C11.49,62.49 18.92,47.16 21,45.1 C23.2360523,43.3080898 26.4622069,43.485418 28.4883945,45.5116055 C30.514582,47.5377931 30.6919102,50.7639477 28.9,53 Z" id="Shape" fill="url(#linearGradient-2)"></path>
                <path d="M67.9,18.06 C71.5136761,6.83842165 73.2291564,1.13627469 73.0464409,0.953559146 C72.8637253,0.770843598 67.1515784,2.48632388 55.91,6.1 C55.2166033,6.25838438 54.5800834,6.60431913 54.07,7.1 L21.64,39.59 C21.1447357,40.1003899 20.7988682,40.7367862 20.64,41.43 L20,43.84 L30.16,54 L32.57,53.42 C33.2632138,53.2611318 33.8996101,52.9152643 34.41,52.42 L66.87,19.9 C67.3766106,19.3935123 67.7331107,18.7566578 67.9,18.06 Z" id="Shape" fill="url(#linearGradient-3)"></path>
                <circle id="Oval" fill="url(#linearGradient-4)" transform="translate(57.329921, 16.666145) rotate(-45.000000) translate(-57.329921, -16.666145) " cx="57.3299205" cy="16.6661451" r="3.8"></circle>
                <circle id="Oval" fill="url(#linearGradient-5)" transform="translate(50.726992, 23.281168) rotate(-45.000000) translate(-50.726992, -23.281168) " cx="50.7269916" cy="23.2811678" r="3.8"></circle>
                <path d="M0.67,42.4 L17,37 C19.7008211,38.550735 23.1056704,38.100033 25.31,35.9 L36,25.27 L0.67,42.4 Z" id="Shape" fill="url(#linearGradient-6)"></path>
                <path d="M31.6,73.33 L37,57 C35.449265,54.2991789 35.899967,50.8943296 38.1,48.69 L48.73,38 L31.6,73.33 Z" id="Shape" fill="url(#linearGradient-7)"></path>
                <path d="M34.2,40.38 C29.55,45 16.29,58 16.13,57.87 C15.97,57.74 29,44.45 33.62,39.8 C38.24,35.15 42.18,31.5 42.34,31.66 C42.5,31.82 38.86,35.72 34.2,40.38 Z" id="Shape" fill="url(#linearGradient-8)"></path>
                <g id="cloud" transform="translate(2.000000, 0.000000)">
                    <path d="M21.41,0.19 C17.7713692,0.379390778 14.4669015,2.37107333 12.6,5.5 C12.39,5.5 12.18,5.5 11.96,5.5 C7.79862811,5.80393118 4.66781237,9.41778706 4.96,13.58 C4.99097525,14.1617594 5.0848558,14.7384542 5.24,15.3 C2.20097562,15.796054 0.0593616146,18.5526732 0.33,21.62 C0.341027625,24.8414362 2.95854966,27.4455351 6.18,27.44 C7.878051,27.3331947 9.42502763,26.4280093 10.35,25 C11.0729706,25.2642149 11.8409767,25.3831539 12.61,25.35 C14.8330142,25.2040755 16.810295,23.8858883 17.8,21.89 C19.2845857,22.5156746 20.8909108,22.7993448 22.5,22.72 C28.6319504,22.3127325 33.307166,17.0679559 33.0099331,10.9296878 C32.7127002,4.79141972 27.5526114,0.0228973371 21.41,0.21 L21.41,0.19 Z" id="Shape" fill="url(#linearGradient-9)"></path>
                    <path d="M26.82,2.41 C26.7026794,2.33769584 26.5501899,2.36151148 26.4605034,2.46614575 C26.3708169,2.57078003 26.3706033,2.72511797 26.46,2.83 C28.0517588,4.530455 28.9843662,6.74318142 29.09,9.07 C29.2402983,11.6069053 28.3764275,14.0995761 26.6885098,15.9994213 C25.000592,17.8992665 22.6269577,19.0505876 20.09,19.2 C18.7904965,19.2641775 17.4921065,19.052891 16.28,18.58 C16.1525648,18.5320003 16.0090744,18.582644 15.94,18.7 C15.0575724,20.3035219 13.4166519,21.3446577 11.59,21.46 C10.997643,21.4877158 10.4050787,21.4098359 9.84,21.23 C9.72591432,21.1936153 9.60131883,21.2338074 9.53,21.33 C8.72260746,22.4741831 7.43798358,23.188272 6.04,23.27 C3.94744207,23.3029202 2.07274234,21.9817417 1.4,20 C1.38483999,19.9491398 1.33807156,19.9142783 1.285,19.9142783 C1.23192844,19.9142783 1.18516001,19.9491398 1.17,20 C0.9,23.43 3.48,26.36 6.62,26.21 C8.14387427,26.1204548 9.54336297,25.3396874 10.42,24.09 C10.4913188,23.9938074 10.6159143,23.9536153 10.73,23.99 C11.3492858,24.1908587 11.9995981,24.2789218 12.65,24.25 C14.6364372,24.1261715 16.4212528,22.9941531 17.38,21.25 C17.4490744,21.132644 17.5925648,21.0820003 17.72,21.13 C19.0426009,21.6496663 20.4607691,21.8814822 21.88,21.81 C27.6097152,21.4614135 31.9759332,16.540471 31.64,10.81 C31.4827446,7.39631804 29.6878634,4.26830932 26.82,2.41 Z" id="Shape" fill="#DCE7F2"></path>
                </g>
                <g id="cloud-2" transform="translate(49.000000, 45.000000)">
                    <path d="M26.37,6.15 C25.7409732,3.52244889 23.6559597,1.49147366 21.0128003,0.93164523 C18.3696409,0.3718168 15.6402703,1.38309227 14,3.53 C9.35159062,1.28364164 3.75927842,3.12928042 1.36112375,7.70122638 C-1.03703091,12.2731723 0.623523173,17.9232076 5.11405041,20.4705593 C9.60457764,23.017911 15.3062122,21.5442415 18,17.14 C19.6400743,17.1459289 21.1095464,16.1276806 21.68,14.59 C25.2439619,13.4775837 27.3076163,9.76388573 26.37,6.15 Z" id="Shape" fill="url(#linearGradient-10)"></path>
                    <path d="M20.88,14.07 C20.8122708,14.0930533 20.757664,14.1440197 20.73,14.21 C20.3373231,15.201752 19.4933146,15.9453718 18.46,16.21 C18.2308047,16.2677158 17.9961879,16.3012325 17.76,16.31 C17.6740211,16.3112234 17.5947048,16.356547 17.55,16.43 C15.5378212,19.5837433 11.6406985,20.9679222 8.09,19.79 C8.0006836,19.7757094 7.9257758,19.7148546 7.89349365,19.630359 C7.86121149,19.5458634 7.87645941,19.4505639 7.93349365,19.380359 C7.99052789,19.310154 8.0806836,19.2757094 8.17,19.29 C10.9647072,19.2914262 13.5667347,17.8659677 15.07,15.51 C15.1147048,15.436547 15.1940211,15.3912234 15.28,15.39 C15.5161879,15.3812325 15.7508047,15.3477158 15.98,15.29 C17.0133146,15.0253718 17.8573231,14.281752 18.25,13.29 C18.277664,13.2240197 18.3322708,13.1730533 18.4,13.15 C20.4126237,12.492009 21.9294048,10.821895 22.3911346,8.75539751 C22.8528645,6.68890002 22.1911679,4.53203576 20.65,3.08 C20.5463195,3.00459772 20.5164781,2.86298878 20.5809139,2.75215924 C20.6453497,2.6413297 20.7831771,2.5972026 20.9,2.65 C23.3700391,3.45453493 25.0417818,5.75723753 25.0417818,8.355 C25.0417818,10.9527625 23.3700391,13.2554651 20.9,14.06 L20.88,14.07 Z" id="Shape" fill="#DCE7F2"></path>
                </g>
            </g>
        </g>
    </g>
</svg>