<?xml version="1.0" encoding="UTF-8"?>
<svg width="100px" height="100px" viewBox="0 0 100 100" version="1.1" xmlns="http://www.w3.org/2000/svg" xmlns:xlink="http://www.w3.org/1999/xlink">
    <!-- Generator: sketchtool 49.3 (51167) - http://www.bohemiancoding.com/sketch -->
    <title>560B9F6D-9F9F-4B74-8D3F-267E02E613BB</title>
    <desc>Created with sketchtool.</desc>
    <defs>
        <linearGradient x1="50.0619055%" y1="92.5044356%" x2="50.0619055%" y2="-7.83114131%" id="linearGradient-1">
            <stop stop-color="#CCCCCC" offset="0%"></stop>
            <stop stop-color="#FFFFFF" offset="100%"></stop>
        </linearGradient>
        <linearGradient x1="-10.9387312%" y1="117.165548%" x2="111.307226%" y2="-18.335661%" id="linearGradient-2">
            <stop stop-color="#ADADAD" offset="0%"></stop>
            <stop stop-color="#333333" offset="100%"></stop>
        </linearGradient>
    </defs>
    <g id="Symbols" stroke="none" stroke-width="1" fill="none" fill-rule="evenodd">
        <g id="about-icons/no-sign-ups" fill-rule="nonzero">
            <g id="about-no-sign-ups-05" transform="translate(19.000000, 9.000000)">
                <path d="M61.11,9.89 C60.11,7.02 58.26,5.89 50.69,3.29 C43.12,0.69 32.42,0.85 32,0.86 C31.58,0.87 20.73,0.78 13.28,3.3 C5.83,5.82 3.84,7 2.84,9.89 C1.84,12.78 0.74,31.65 1.05,39.38 C1.4,47.85 7.17,61.61 12.1,68.26 C17.03,74.91 23.17,80.26 25.47,81.36 C26.4373134,81.7843786 27.4415221,82.1191149 28.47,82.36 L29.3,82.54 C30.1281878,82.690969 30.9681672,82.7679392 31.81,82.77 L32,82.77 C32.8418427,82.7681514 33.681841,82.6911794 34.51,82.54 L35.34,82.36 C36.3684014,82.1188448 37.3725858,81.7841167 38.34,81.36 C40.64,80.27 46.73,74.98 51.72,68.26 C56.71,61.54 62.42,47.85 62.77,39.38 C63.21,31.65 62.06,12.63 61.11,9.89 Z" id="Shape" fill="url(#linearGradient-1)"></path>
                <path d="M11.6,30.79 C11.69,30.4 13.6,29.37 17.34,29.37 C21.08,29.37 22.99,30.4 23.08,30.78 C23,31.2 21.08,32.2 17.34,32.2 C13.6,32.2 11.69,31.17 11.6,30.79 Z M35.43,80.71 C35.262851,81.3094564 34.9734485,81.867833 34.58,82.35 C33.7229621,82.5632055 32.8501376,82.7070041 31.97,82.78 C31.0898411,82.7071768 30.2170027,82.5633759 29.36,82.35 C28.9628706,81.8589835 28.6732875,81.2900379 28.51,80.68 C27.8338272,78.0617946 27.4283663,75.3810611 27.3,72.68 C27.3098634,71.760657 27.4930667,70.8514259 27.84,70 C28.1098137,69.3894784 28.24292,68.7273598 28.23,68.06 C28.15,67.27 26.66,65.93 25.66,65.27 C25.368028,65.0717667 25.2380053,64.7073106 25.3385736,64.3690354 C25.4391419,64.0307602 25.7471524,63.7965301 26.1,63.79 L37.85,63.79 C38.2028476,63.7965301 38.5108581,64.0307602 38.6114264,64.3690354 C38.7119947,64.7073106 38.581972,65.0717667 38.29,65.27 C37.27,65.94 35.8,67.24 35.71,68.06 C35.6983605,68.7272442 35.831412,69.3890902 36.1,70 C36.4508875,70.860717 36.6341705,71.7805261 36.64,72.71 C36.5110727,75.4110055 36.1056204,78.0916818 35.43,80.71 Z M26.67,21.94 L25,23.73 C23.18,22.48 17.64,18.71 15.05,17.59 C12.702776,16.5632587 10.0232544,16.618092 7.72,17.74 C8.96558485,16.5996042 10.5728422,15.9340439 12.26,15.86 C16.0851967,15.3759668 19.9464718,16.4257734 23,18.78 L23.26,18.94 C24.4713276,19.8517982 25.6113043,20.8547102 26.67,21.94 Z M5.18,44.36 C6.19775855,46.7685242 8.63122205,48.2663491 11.24,48.09 L11.91,48.09 C16.54,47.82 21.22,44.91 21.22,44.91 C21.5058172,44.7349012 21.8699579,44.7539324 22.1359653,44.9578714 C22.4019727,45.1618104 22.5148903,45.5085239 22.42,45.83 C22.41,45.85 21.75,48.18 22.87,49.11 C23.2760943,49.4423615 23.7360648,49.702786 24.23,49.88 C24.14467,49.5694755 24.1767096,49.2384 24.32,48.95 C24.51,48.6 24.89,48.21 25.89,48.33 C27.11958,48.6254406 28.1915419,49.3758139 28.89,50.43 C29.1650007,50.816965 29.503035,51.1549993 29.89,51.43 C30.5674119,51.6809567 31.2883593,51.7931796 32.01,51.76 C32.07,51.76 32.01,51.76 32.07,51.76 C32.13,51.76 32.13,51.76 32.13,51.76 C32.8517149,51.7945587 33.5729365,51.6822931 34.25,51.43 C34.6372114,51.1552911 34.9752911,50.8172114 35.25,50.43 C35.9484581,49.3758139 37.02042,48.6254406 38.25,48.33 C39.22,48.21 39.64,48.6 39.82,48.95 C39.9642155,49.2381344 39.9962889,49.5695587 39.91,49.88 C40.4038531,49.702607 40.8637944,49.442199 41.27,49.11 C42.4,48.17 41.72,45.83 41.72,45.83 C41.6251097,45.5085239 41.7380273,45.1618104 42.0040347,44.9578714 C42.2700421,44.7539324 42.6341828,44.7349012 42.92,44.91 C42.97,44.94 47.62,47.82 52.23,48.09 L52.89,48.09 C55.4265169,48.1804652 57.7596518,46.7083682 58.77,44.38 C58.9413623,43.9893998 59.3862735,43.798619 59.7873605,43.9437492 C60.1884475,44.0888793 60.4082613,44.5201857 60.29,44.93 C59.4066092,47.0026063 57.6772924,48.5972184 55.54,49.31 C54.52,51.06 51.19,56.82 50.38,57.62 C49.57,58.42 49.24,58.5 47.11,59 L45.71,59.35 C42.4698262,59.9466879 39.1844656,60.2645181 35.89,60.3 C35.6454835,60.3002157 35.4139548,60.1899639 35.26,60 L32,55.89 L28.7,59.96 C28.5438513,60.1527147 28.3080136,60.2632636 28.06,60.26 C24.7655317,60.2245672 21.480167,59.9067366 18.24,59.31 L16.84,58.98 C14.7,58.47 14.32,58.34 13.57,57.6 C12.82,56.86 9.41,51.04 8.41,49.29 C6.27270759,48.5772184 4.54339082,46.9826063 3.66,44.91 C3.54173865,44.5001857 3.76155252,44.0688793 4.1626395,43.9237492 C4.56372648,43.778619 5.00863768,43.9693998 5.18,44.36 Z M38.32,51.76 L38.31,51.76 C38.2037793,51.7600206 38.0985421,51.7396521 38,51.7 C38.5379084,52.5587325 39.1502654,53.3685162 39.83,54.12 L39.98,54.25 C40.44,54.67 40.44,54.67 41.59,54.59 L46.59,54.23 L46.7,54.23 C47.3677782,54.1263499 47.952533,53.7254803 48.29,53.14 C48.96,52.23 50.07,50.62 50.82,49.53 C48.285216,49.0987712 45.8348102,48.2684684 43.56,47.07 C43.6747102,48.2872386 43.216372,49.4885281 42.32,50.32 C41.1873215,51.2375493 39.7776123,51.7450446 38.32,51.76 Z M20.38,47.06 L20.42,47.07 C18.1441974,48.2619946 15.693767,49.0855552 13.16,49.51 C13.91,50.59 15.02,52.21 15.69,53.12 C16.48,54.21 17.3,54.21 17.3,54.21 L17.42,54.21 L22.42,54.57 C23.57,54.65 23.57,54.65 24.03,54.23 L24.18,54.1 C24.8258703,53.3451196 25.4047268,52.5353898 25.91,51.68 C25.8183545,51.720657 25.7201011,51.7443733 25.62,51.75 C24.1623877,51.7350446 22.7526785,51.2275493 21.62,50.31 C20.723628,49.4785281 20.2652898,48.2772386 20.38,47.06 Z M40.86,30.79 C41,30.4 42.86,29.38 46.6,29.38 C50.34,29.38 52.25,30.4 52.34,30.78 C52.25,31.2 50.34,32.2 46.6,32.2 C42.86,32.2 40.96,31.18 40.86,30.79 Z M51.67,15.87 C53.3468905,15.9501386 54.942685,16.6153478 56.18,17.75 C53.8836396,16.6404914 51.2172126,16.5893544 48.88,17.61 C46.29,18.75 40.74,22.5 38.93,23.75 L37.28,21.96 C38.3382917,20.8742849 39.478302,19.8713432 40.69,18.96 L40.93,18.79 C43.9830332,16.4347771 47.8447258,15.384857 51.67,15.87 Z" id="Combined-Shape" fill="url(#linearGradient-2)"></path>
            </g>
        </g>
    </g>
</svg>