<?xml version="1.0" standalone="no"?>
<!DOCTYPE svg PUBLIC "-//W3C//DTD SVG 1.1//EN" "http://www.w3.org/Graphics/SVG/1.1/DTD/svg11.dtd" >
<svg xmlns="http://www.w3.org/2000/svg">
<metadata>Generated by IcoMoon</metadata>
<defs>
<font id="icomoon" horiz-adv-x="1024">
<font-face units-per-em="1024" ascent="960" descent="-64" />
<missing-glyph horiz-adv-x="1024" />
<glyph unicode="&#x20;" horiz-adv-x="512" d="" />
<glyph unicode="&#xe900;" glyph-name="bitcointalk" d="M512 16c-259.206 0-469.333 192.617-469.333 430.222s210.128 430.222 469.333 430.222c259.206 0 469.333-192.617 469.333-430.222 0-79.151-23.317-153.309-63.999-217.018-9.88-15.473-22.274-53.452 0-121.786 7.417-22.754 28.75-60.656 63.999-113.705-43.784-2.858-83.337 4.571-118.661 22.286-55.142 27.655-92.728 70.524-104.427 63.902-71.584-40.52-155.936-63.902-246.246-63.902zM706.435 510.622c8.937 59.837-36.622 92.003-98.917 113.462l20.208 81.056-49.353 12.296-19.674-78.92c-12.957 3.232-26.279 6.282-39.516 9.303l19.814 79.44-49.311 12.296-20.222-81.028c-10.736 2.445-21.276 4.862-31.506 7.406l0.056 0.253-68.044 16.99-13.125-52.698c0 0 36.608-8.389 35.834-8.91 19.983-4.989 23.609-18.212 22.99-28.696l-23.018-92.341c1.377-0.351 3.162-0.857 5.129-1.644l-5.2 1.293-32.279-129.356c-2.445-6.071-8.643-15.177-22.611-11.72 0.492-0.717-35.862 8.952-35.862 8.952l-24.494-56.492 64.221-16.006c11.945-2.993 23.651-6.127 35.16-9.078l-20.419-81.998 49.283-12.296 20.236 81.113c13.448-3.654 26.518-7.027 39.305-10.203l-20.151-80.733 49.339-12.296 20.419 81.829c84.134-15.921 147.414-9.5 174.015 66.582 21.458 61.27-1.054 96.612-45.32 119.673 32.237 7.462 56.52 28.667 62.999 72.47h0.014zM608.936 511.507c-13.912-55.733-99.775-27.417-127.641-20.475l24.564 98.51c27.867-6.942 117.579-19.899 103.077-78.035zM593.689 352.542c-15.261-61.27-118.408-28.162-151.868-19.842l27.094 108.614c33.446-8.347 140.682-24.874 124.788-88.771h-0.014z" />
<glyph unicode="&#xe901;" glyph-name="facebook" d="M938.667 47.094c0-26.011-21.083-47.094-47.094-47.094h-217.453v330.446h110.923l16.597 128.798h-127.52v82.216c0 37.284 10.344 62.691 63.83 62.691l68.2 0.023v115.2c-11.785 1.581-52.277 5.067-99.394 5.067-98.325 0-165.641-59.994-165.641-170.22v-94.978h-111.202v-128.798h111.202v-330.446h-408.687c-26.011 0-47.094 21.083-47.094 47.094v759.146c0 26.011 21.083 47.094 47.094 47.094h759.146c26.011 0 47.094-21.083 47.094-47.094v-759.146z" />
<glyph unicode="&#xe902;" glyph-name="github" d="M511.971 896c-259.156 0-469.305-210.12-469.305-469.362 0-207.325 134.462-383.217 320.985-445.305 23.481-4.293 32.038 10.199 32.038 22.646 0 11.121-0.403 40.653-0.634 79.807-130.543-28.35-158.087 62.924-158.087 62.924-21.349 54.223-52.119 68.628-52.119 68.628-42.612 29.128 3.227 28.552 3.227 28.552 47.106-3.342 71.884-48.374 71.884-48.374 41.863-71.711 109.828-50.996 136.594-39.010 4.264 30.338 16.365 51.025 29.791 62.751-104.21 11.841-213.779 52.119-213.779 231.958 0 51.226 18.295 93.118 48.316 125.933-4.84 11.87-20.946 59.581 4.581 124.205 0 0 39.414 12.619 129.074-48.115 37.426 10.43 77.588 15.616 117.492 15.817 39.846-0.202 80.009-5.388 117.492-15.817 89.603 60.734 128.93 48.115 128.93 48.115 25.613-64.623 9.508-112.335 4.667-124.205 30.079-32.816 48.259-74.707 48.259-125.933 0-180.3-109.742-219.973-214.297-231.584 16.855-14.492 31.865-43.13 31.865-86.923 0-62.722-0.576-113.343-0.576-128.728 0-12.562 8.442-27.169 32.268-22.588 186.322 62.203 320.697 237.98 320.697 445.247 0 259.243-210.148 469.362-469.362 469.362z" />
<glyph unicode="&#xe903;" glyph-name="google" d="M505.984 504.855v-166.892c0 0 161.608 0.197 227.413 0.197-35.643-108.176-91.044-167.089-227.413-167.089-138.010 0-245.727 112.082-245.727 250.355 0 138.24 107.717 250.322 245.727 250.322 72.96 0 120.090-25.698 163.315-61.506 34.593 34.658 31.705 39.582 119.762 122.88-74.765 68.135-174.080 109.686-283.077 109.686-232.336 0-420.661-188.685-420.661-421.383 0-232.763 188.324-421.415 420.661-421.415 347.241 0 432.115 302.901 403.988 504.845h-403.988z" />
<glyph unicode="&#xe904;" glyph-name="medium" d="M85.333-0v853.333h853.333v-853.333h-853.333zM288.97 567.945v-253.374c1.558-9.137-1.322-18.476-7.759-25.149l-60.219-73.045v-9.632h170.745v9.632l-60.215 73.045c-6.485 6.66-9.549 15.938-8.297 25.149v219.127l149.876-326.954h17.395l128.731 326.954v-260.599c0-6.958 0-8.293-4.551-12.844l-46.299-44.947v-9.632h224.812v9.632l-44.697 43.879c-3.947 3.006-5.903 7.951-5.085 12.844v322.402c-0.818 4.892 1.138 9.833 5.085 12.844l45.765 43.879v9.632h-158.436l-112.942-281.736-128.464 281.736h-166.199v-9.632l53.528-64.481c5.251-4.735 7.938-11.693 7.225-18.73z" />
<glyph unicode="&#xe905;" glyph-name="reddit" d="M981.213 426.011c0.174-38.388-20.508-73.843-54.009-92.587 1.526-9.697 2.315-19.517 2.315-29.477-0.035-154.329-188.225-279.883-419.534-279.883s-419.482 125.554-419.482 279.883c0 10.662 0.894 21.218 2.648 31.581-31.379 19.376-50.482 53.622-50.484 90.5 0.068 58.663 47.602 106.205 106.265 106.282 26.181 0 51.133-9.574 70.44-26.689 72.754 46.697 170.619 76.086 278.585 78.12l70.878 216.316 181.035-42.629c13.777 32.254 45.449 53.195 80.523 53.237 48.309-0.058 87.453-39.21 87.501-87.519-0.058-48.302-39.2-87.444-87.501-87.501-48.265 0.048-87.395 39.132-87.502 87.396l-150.734 35.492-57.394-175.179c104.038-4.051 197.993-33.528 268.134-79.207 19.595 18.144 45.331 28.199 72.036 28.145 58.67-0.068 106.214-47.613 106.282-106.282zM511.896 123.876c70.229 0 119.697 15.343 151.278 46.907 6.847 6.842 6.851 17.939 0.009 24.786s-17.939 6.851-24.786 0.009c-24.672-24.637-66.056-36.632-126.5-36.632-60.462 0-101.81 11.995-126.448 36.632-6.847 6.852-17.952 6.856-24.804 0.009s-6.856-17.952-0.009-24.804c31.546-31.564 81.031-46.907 151.261-46.907zM654.091 420.592c-35.737 0-65.74-29.933-65.74-65.67 0-35.72 30.003-64.671 65.74-64.671s64.671 28.951 64.671 64.671c0 35.737-28.951 65.67-64.671 65.67zM370.754 420.592c-35.702 0-65.67-29.968-65.67-65.67s29.95-64.671 65.67-64.671c35.72 0 64.67 28.969 64.67 64.671s-28.968 65.67-64.67 65.67z" />
<glyph unicode="&#xe906;" glyph-name="steemit" d="M769.15 793.267c-39.322-32.98-79.913-73.571-96.403-123.041-19.027-58.349 7.61-117.966 32.98-169.973 25.369-53.275 53.275-105.282 77.376-159.826 19.027-43.128 45.665-93.867 39.322-142.068-5.074-34.249-16.489-67.229-22.832-101.477-5.074-22.832 16.49 0 24.101 6.343 44.397 38.054 92.598 81.181 110.357 139.531 8.879 29.174 3.805 55.812-6.342 83.718-10.148 26.637-21.564 52.007-32.98 78.644-24.101 53.275-49.471 106.551-74.84 159.826-10.147 19.028-20.295 39.323-29.175 59.617-8.878 21.564-13.953 44.397-15.221 68.497-1.268 19.028-1.268 36.786 1.268 55.813 1.268 13.953 5.074 26.637 6.342 40.591 1.268 7.61-5.074 10.147-13.953 3.805h0.001zM188.194 793.267c-39.322-32.98-79.913-73.571-96.403-123.041-19.027-58.349 7.61-117.966 32.98-169.973 25.369-53.275 53.275-105.282 77.376-159.826 19.027-43.128 45.665-93.867 39.322-142.068-5.074-34.249-16.49-67.229-22.832-101.477-5.074-22.832 16.49 0 24.101 6.343 44.397 38.054 92.598 81.181 110.356 139.531 8.88 29.174 3.805 55.812-6.342 83.718-10.148 26.637-21.564 52.007-32.98 78.644-24.101 53.275-49.469 106.551-74.839 159.826-10.148 19.028-20.295 39.323-29.175 59.617-8.879 21.564-13.953 44.397-15.221 68.497-1.269 19.028-1.269 36.786 1.268 55.813 1.268 13.953 5.074 26.637 6.342 40.591 1.268 7.61-5.074 10.147-13.953 3.805zM469.793 889.671c-44.397-36.785-92.598-81.182-119.236-133.189-19.027-36.785-21.564-74.839-11.416-112.893 12.684-45.664 30.443-91.329 49.469-135.725 36.785-84.987 84.987-164.901 120.504-251.155 12.684-30.443 26.638-64.692 29.175-98.94 2.537-41.86-11.416-86.255-22.833-125.578-2.536-11.416-10.147-26.638-8.879-38.054 1.268-8.88 6.343-5.074 11.416-1.268 21.564 16.489 43.128 35.517 62.155 54.544 52.007 49.47 111.624 115.43 106.551 192.806-2.537 31.711-17.758 62.154-30.443 91.329-13.954 34.249-29.175 67.228-44.397 100.208-27.906 62.155-57.081 123.041-87.524 183.927-10.148 21.564-22.833 41.859-30.443 63.423-11.416 29.175-16.49 59.618-17.758 90.061-1.268 22.833 0 46.933 2.537 69.765 1.268 15.222 6.343 29.175 6.343 44.397 3.805 13.953-3.806 15.222-15.222 6.342z" />
<glyph unicode="&#xe907;" glyph-name="twitter" d="M955.444 796.206c-37.243-22.606-78.396-39.047-122.38-47.844-35.012 38.371-85.112 62.305-140.526 62.305-106.29 0-192.53-88.421-192.53-197.468 0-15.464 1.679-30.501 4.962-44.962-160.049 8.246-301.928 86.792-396.965 206.39-16.591-29.273-26.065-63.233-26.065-99.398 0-68.471 34.010-128.922 85.664-164.335-31.479 0.952-61.253 9.925-87.243 24.636v-2.456c0-95.689 66.366-175.513 154.536-193.608-16.165-4.637-33.158-6.942-50.727-6.942-12.431 0-24.536 1.178-36.291 3.509 24.536-78.446 95.614-135.563 179.899-137.092-65.889-52.982-148.972-84.586-239.172-84.586-15.539 0-30.902 0.927-45.94 2.732 85.213-55.94 186.49-88.646 295.186-88.646 354.284 0 547.967 300.851 547.967 561.827 0 8.571-0.175 17.168-0.501 25.589 37.619 27.87 70.3 62.606 96.015 102.205-34.486-15.689-71.604-26.316-110.576-31.052 39.799 24.386 70.325 63.107 84.686 109.197z" />
<glyph unicode="&#xe908;" glyph-name="angle-down" d="M507.774 391.646l-206.519 206.519-90.51-90.51 297.029-297.029 298.785 298.785-90.51 90.51z" />
<glyph unicode="&#xe909;" glyph-name="arrow-right" d="M157.867 469.334h520.533l-238.933 238.933 59.733 59.733 341.333-341.333-341.333-341.333-59.733 59.733 238.933 238.933h-520.533z" />
<glyph unicode="&#xe90a;" glyph-name="arrow-up" d="M541.867 85.334v520.533l238.933-238.933 59.733 59.733-341.333 341.333-341.333-341.333 59.733-59.733 238.933 238.933v-520.533z" />
<glyph unicode="&#xe90b;" glyph-name="up-white" d="M541.867 85.334v520.533l238.933-238.933 59.733 59.733-341.333 341.333-341.333-341.333 59.733-59.733 238.933 238.933v-520.533z" />
<glyph unicode="&#xe90c;" glyph-name="complete" d="M512 139.294c170.225 0 308.706 138.481 308.706 308.706s-138.481 308.706-308.706 308.706c-170.225 0-308.706-138.481-308.706-308.706s138.481-308.706 308.706-308.706zM512 832c211.742 0 384-172.258 384-384s-172.258-384-384-384c-211.742 0-384 172.258-384 384s172.258 384 384 384zM459.184 400.133l-81.137 81.468-53.353-53.143 136.312-136.855 260.442 279.688-55.115 51.32-207.149-222.479z" />
<glyph unicode="&#xe90d;" glyph-name="failed" d="M512 139.294c170.225 0 308.706 138.481 308.706 308.706s-138.481 308.706-308.706 308.706c-170.225 0-308.706-138.481-308.706-308.706s138.481-308.706 308.706-308.706zM512 832c211.742 0 384-172.258 384-384s-172.258-384-384-384c-211.742 0-384 172.258-384 384s172.258 384 384 384zM620.911 610.147l-108.905-108.905-108.92 108.905-53.233-53.233 108.905-108.92-108.905-108.905 53.233-53.233 108.92 108.905 108.905-108.905 53.233 53.233-108.905 108.905 108.905 108.92-53.233 53.233z" />
<glyph unicode="&#xe90e;" glyph-name="not-received" d="M820.706 448h75.294c0-211.742-172.258-384-384-384s-384 172.258-384 384c0 211.742 172.258 384 384 384v-75.294c-170.225 0-308.706-138.481-308.706-308.706s138.481-308.706 308.706-308.706c170.225 0 308.706 138.481 308.706 308.706zM489.412 470.588v233.412h75.294v-308.706h-218.353v75.294h143.059zM697.427 580.191l-53.233 53.233 70.596 70.611-70.596 70.596 53.233 53.233 70.596-70.596 70.611 70.596 53.233-53.233-70.596-70.596 70.596-70.611-53.233-53.233-70.611 70.596-70.596-70.596z" />
<glyph unicode="&#xe90f;" glyph-name="refunded" d="M517.398 757.456h-31.69l60.202 60.186-57.025 57.025-157.513-157.527 157.513-157.527 57.025 57.025-60.202 60.186h31.69c146.724 0 266.096-119.71 266.096-266.852 0-146.303-119.372-265.336-266.096-265.336s-266.096 119.097-266.096 265.481h-80.635c0-190.846 155.545-346.115 346.731-346.115s346.731 155.205 346.731 345.97c0 191.604-155.545 347.486-346.731 347.486z" />
<glyph unicode="&#xe910;" glyph-name="civic-cvc" d="M509.952 140.8c137.216 0 253.952 92.16 292.864 217.088h104.448c-40.96-182.272-202.752-319.488-397.312-319.488-225.28 0-407.552 184.32-407.552 409.6s182.272 409.6 407.552 409.6c194.56 0 356.352-137.216 397.312-319.488h-104.448c-38.912 124.928-155.648 217.088-292.864 217.088-167.936 0-305.152-137.216-305.152-307.2s137.216-307.2 305.152-307.2zM548.864 296.448h-83.968v118.784c-30.72 16.384-53.248 49.152-53.248 86.016 0 53.248 43.008 96.256 96.256 96.256s96.256-43.008 96.256-96.256c0-36.864-22.528-69.632-53.248-86.016 0 0 0-118.784-2.048-118.784z" />
<glyph unicode="&#xe911;" glyph-name="cofound-it-cfi" d="M713.958 223.032c55.522 0 107.72 22.376 146.958 62.994 80.913 83.735 80.913 220.045 0 303.8-39.238 40.599-91.435 62.974-146.958 62.974s-107.739-22.376-146.976-62.974l-146.712-151.9 146.712-151.9c39.257-40.618 91.454-62.994 146.976-62.994zM496.611 437.926l108.778 112.608c29.017 30.026 67.575 46.558 108.57 46.558s79.552-16.532 108.57-46.558c59.962-62.109 59.962-163.126-0.019-225.216-28.999-30.007-67.556-46.539-108.551-46.539s-79.552 16.532-108.57 46.539l-108.778 112.608zM308.376 223.032c-55.077 0-106.855 22.376-145.778 62.994-80.263 83.735-80.263 220.045 0 303.8 38.923 40.599 90.702 62.974 145.778 62.974s106.855-22.376 145.778-62.974l6.878-7.189-38.098-39.273-6.878 7.17c-28.766 30.026-67.014 46.558-107.699 46.558-40.666 0-78.914-16.532-107.68-46.558-59.518-62.109-59.518-163.107 0-225.216 28.766-30.007 67.014-46.539 107.68-46.539s78.914 16.532 107.699 46.539l6.878 7.189 38.098-39.273-6.878-7.209c-38.942-40.618-90.702-62.994-145.778-62.994z" />
<glyph unicode="&#xe912;" glyph-name="coinlancer-cl" d="M498.65 798.837c-16.562-6.81-26.384-26.623-21.148-43.904 4.551-18.889 25.562-31.345 44.383-26.452 20.258 4.312 33.741 27.547 26.794 47.223-5.681 20.498-30.729 31.996-50.030 23.133zM492.593 855.3c31.619 7.391 66.147-3.422 88.458-26.828 34.562-34.802 33.228-96.945-2.703-130.309-33.091-33.878-92.291-35.281-126.956-3.011-33.775 28.745-41.167 82.607-16.597 119.496 12.969 20.361 34.083 35.623 57.797 40.653zM214.112 695.939c27 7.836 57.387 2.43 79.903-14.407 29.634-21.114 43.904-60.159 36.17-95.576 12.388-7.084 24.741-14.304 37.197-21.387 27.992 33.125 66.387 57.797 109.264 65.976 66.695 13.791 140.028-12.319 181.947-66.25 12.627 7.118 25.186 14.407 37.71 21.764-3.833 20.806-1.951 42.98 7.836 61.938 13.243 27.068 40.551 46.265 70.322 50.372 34.083 5.373 70.219-10.677 89.622-39.079 21.422-30.319 22.14-73.641 0.958-104.234-17.452-26.144-48.798-43.322-80.485-41.611-22.072 0.171-43.391 9.513-59.714 24.091-13.004-6.639-25.391-14.372-38.121-21.524 19.3-49.345 16.905-107.143-8.418-153.921-26.657-52.151-79.322-89.246-137.051-98.177-0.034-14.372 0.103-28.745-0.582-43.117 20.498-7.289 39.182-20.464 50.851-39.045 16.939-25.939 19.574-60.364 6.673-88.527-9.547-22.038-28.505-39.216-50.543-48.353-28.197-11.258-61.801-7.699-86.782 9.684-35.52 22.927-50.303 71.964-34.288 110.941 9.992 26.041 32.44 45.992 58.653 54.855 0.103 14.407 0.068 28.813 0 43.254-60.398 9.445-115.287 49.858-140.575 105.74-21.764 45.478-23.098 99.614-4.996 146.53-12.524 7.186-24.844 14.715-37.608 21.456-17.076-14.235-38.532-24.262-61.117-23.954-31.482-1.095-62.828 15.57-79.801 42.056-14.646 22.072-19.129 50.577-11.669 76.037 8.35 30.764 33.741 56.36 64.641 64.47zM505.906 167.858c-12.217-2.327-22.756-11.395-27.273-22.962-8.589-19.984 4.722-45.17 25.904-49.653 21.524-6.057 45.307 11.635 45.82 33.946 2.361 23.406-21.627 44.075-44.452 38.668zM488.933 577.436c-46.539-8.384-86.816-44.075-100.949-89.143-8.589-26.486-8.452-55.71 0.513-82.059 11.395-34.767 38.189-64.094 71.725-78.672 28.060-12.388 60.603-14.543 90.033-5.92 31.072 9.821 59.269 30.25 75.866 58.584 23.372 38.053 24.981 88.15 4.38 127.674-25.083 51.125-85.789 80.964-141.568 69.535zM433.668 476.246c11.121 34.288 44.794 59.851 80.999 60.569 20.327 0.376 43.459-4.38 57.318-20.327-7.973-10.813-15.467-21.969-23.441-32.817-13.38 7.836-29.429 13.928-44.862 8.281-25.802-7.871-37.539-40.824-25.836-64.299 6.707-15.399 22.927-25.87 39.729-25.494 11.361-0.445 21.079 6.023 30.935 10.711 8.658-11.121 16.597-22.756 24.091-34.699-37.026-31.756-99.238-22.414-126.579 17.589-16.939 22.722-21.524 53.725-12.353 80.485zM224.276 381.527c42.98 7.871 88.903-19.642 102.694-60.98 11.943-33.33 2.738-73.025-22.927-97.424-22.756-22.79-57.866-31.688-88.835-23.338-40.722 10.642-71.759 50.817-69.090 93.283 0.753 43.151 35.349 82.573 78.158 88.458zM228.691 325.338c-14.304-4.004-25.562-17.281-26.726-32.167-2.532-20.464 15.023-40.243 35.52-40.516 22.962-1.814 43.22 21.49 38.087 43.973-3.388 20.874-26.726 35.212-46.881 28.711zM762.658 379.405c51.467 15.502 110.325-22.517 116.827-75.9 8.966-49.824-30.25-101.12-80.485-105.945-48.216-7.152-97.356 30.045-103.549 78.364-7.802 45.068 23.030 92.188 67.208 103.481zM776.141 325.063c-14.954-4.585-26.041-19.471-25.939-35.144-0.582-20.224 17.931-38.361 38.155-37.3 20.737-0.137 38.771 19.745 36.307 40.414-1.403 22.893-26.863 39.764-48.524 32.030zM772.581 640.4c-10.471-4.62-18.616-14.201-21.285-25.323-5.954-21.422 11.635-45.136 33.809-45.786 23.27-2.395 44.041 21.148 39.045 43.87-3.662 22.722-30.695 37.265-51.569 27.239zM225.029 640.777c-15.296-6.125-25.425-22.996-22.927-39.387 2.327-19.711 22.346-35.11 42.056-31.825 20.943 2.259 36.444 24.741 31.174 45.17-4.517 21.524-30.011 35.041-50.303 26.041z" />
<glyph unicode="&#xe913;" glyph-name="darcrus-dar" d="M850.040 466.979c0.961-1.922 0.961-3.844 1.922-6.727l-79.758-232.547c-0.961-1.922-1.922-3.844-3.844-4.805l-259.453-183.539h-1.922c-0.961-0.961-2.883-0.961-3.844-0.961s-2.883 0-3.844 0.961h-1.922l-259.453 183.539c-1.922 0.961-2.883 2.883-3.844 4.805l-79.758 232.547c-0.961 1.922-0.961 4.805 0 6.727l66.305 171.047-37.477 78.797c-0.961 1.922-0.961 3.844-0.961 5.766l24.023 126.844c0.961 2.883 2.883 5.766 5.766 6.727 2.883 1.922 5.766 1.922 8.648 0l67.266-38.438 91.289-15.375c1.922-0.961 3.844-1.922 5.766-3.844l24.984-29.789 90.328 20.18h3.844l90.328-20.18 24.984 29.789c1.922 1.922 3.844 3.844 5.766 3.844l91.289 15.375 67.266 38.438c2.883 0.961 5.766 0.961 8.648 0s4.805-3.844 5.766-6.727l24.023-127.805c0-1.922 0-3.844-0.961-5.766l-37.477-78.797 66.305-170.086zM752.985 237.314l74.953 227.742-58.617 150.867c-0.961-2.883-4.805-4.805-7.688-4.805-0.961 0-2.883 0-3.844 0.961-4.805 1.922-6.727 7.688-4.805 12.492l47.086 98.977-16.336 89.367-15.375-33.633c-0.961-1.922-2.883-3.844-5.766-4.805l-55.734-16.336-43.242-70.149c-1.922-2.883-5.766-4.805-8.648-4.805-1.922 0-2.883 0-4.805 0.961-3.844 2.883-5.766 8.648-2.883 13.453l45.164 73.031c1.922 1.922 3.844 2.883 5.766 3.844l55.734 16.336 16.336 36.516-46.125-26.906c-0.961 0-1.922-0.961-2.883-0.961l-89.367-15.375-16.336-20.18 13.453-2.883c5.766-0.961 8.648-6.727 7.688-11.531s-4.805-7.688-9.609-7.688h-1.922l-123 26.906-123.961-27.867h-1.922c-4.805 0-8.648 2.883-9.609 7.688s2.883 10.57 7.688 11.531l13.453 2.883-16.336 20.18-89.367 15.375c-0.961 0-1.922 0-2.883 0.961l-46.125 26.906 15.375-36.516 55.734-16.336c2.883 0 4.805-1.922 5.766-3.844l45.164-73.031c2.883-4.805 1.922-10.57-2.883-13.453-0.961-0.961-2.883-0.961-4.805-0.961-3.844 0-6.727 1.922-8.648 4.805l-43.242 70.149-55.734 16.336c-2.883 0-4.805 1.922-5.766 4.805l-15.375 33.633-16.336-89.367 47.086-98.977c1.922-4.805 0-10.57-4.805-12.492-0.961-0.961-2.883-0.961-3.844-0.961-2.883 0-5.766 1.922-7.688 4.805l-58.617-150.867 76.875-226.781 250.805-177.774 250.805 177.774zM386.868 394.908l-9.609-44.203c0-4.805-5.766-8.648-10.57-7.688-4.805 0-8.648 5.766-7.688 10.57l5.766 36.516-45.164 8.648 28.828-87.445c0.961-3.844 0-7.688-2.883-10.57l-53.813-45.164c-0.961-0.961-3.844-1.922-5.766-1.922-0.961 0-2.883 0-3.844 0.961-2.883 0.961-5.766 3.844-5.766 7.688l-5.766 76.875-28.828-4.805c-2.883 0-5.766 0.961-7.688 2.883s-2.883 4.805-2.883 7.688l6.727 60.539-34.594 22.102c-2.883 1.922-4.805 6.727-3.844 10.57l17.297 63.422c0.961 4.805 6.727 7.688 11.531 6.727s7.688-6.727 6.727-11.531l-15.375-56.695 33.633-22.102c3.844-2.883 4.805-5.766 4.805-9.609l-5.766-53.813 25.945 4.805c2.883 0 5.766 0 7.688-1.922s3.844-3.844 3.844-6.727l4.805-69.188 34.594 28.828-31.711 96.094c-0.961 3.844 0 7.688 1.922 9.609s5.766 3.844 8.648 2.883l71.109-13.453c4.805-0.961 8.648-5.766 7.688-10.57zM285.008 514.065l-29.789 41.32c-2.883 4.805-1.922 10.57 2.883 13.453s10.57 1.922 13.453-2.883l24.984-37.477c20.18 0 94.172 0.961 96.094 0.961 5.766 0 6.727 0 46.125-50.93h1.922l31.711 24.023-9.609 32.672c-0.961 4.805 1.922 9.609 6.727 11.531 4.805 0.961 9.609-1.922 11.531-6.727l11.531-38.438c1.922-3.844 0-7.688-2.883-10.57l-45.164-34.594c-1.922-0.961-3.844-1.922-5.766-1.922h-0.961c-1.922 0-3.844 0.961-5.766 2.883l-69.188-14.414h-1.922c-3.844 0-6.727 1.922-8.648 5.766l-26.906 60.539h-32.672c-2.883 0.961-5.766 1.922-7.688 4.805zM419.54 474.666c-6.727 7.688-12.492 15.375-16.336 21.141-1.922-7.688-8.648-13.453-16.336-13.453-8.648 0-16.336 7.688-16.336 16.336 0 3.844 1.922 7.688 4.805 10.57h-27.867l20.18-45.164 51.891 10.57zM467.587 589.979l-87.445 66.305c-4.805 2.883-4.805 9.609-1.922 13.453 2.883 4.805 9.609 4.805 13.453 1.922l64.383-49.969-13.453 49.969c-0.961 3.844 0 8.648 3.844 10.57 3.844 2.883 8.648 2.883 11.531 0l35.555-25.945v72.070l-74.953-25.945 13.453-15.375c3.844-3.844 2.883-9.609-0.961-13.453s-9.609-2.883-13.453 0.961l-23.063 26.906c-1.922 1.922-2.883 5.766-1.922 8.648 0 2.883 2.883 5.766 5.766 6.727l101.859 35.555h5.766l100.899-34.594c2.883-0.961 4.805-3.844 5.766-6.727s0-5.766-1.922-8.648l-23.063-26.906c-3.844-3.844-9.609-4.805-13.453-0.961s-4.805 9.609-0.961 13.453l13.453 15.375-74.953 25.945v-72.070l34.594 26.906c3.844 1.922 7.688 1.922 11.531 0 3.844-2.883 4.805-6.727 3.844-10.57l-13.453-49.969 64.383 49.969c3.844 2.883 10.57 1.922 13.453-1.922s1.922-10.57-1.922-13.453l-87.445-68.227c-1.922-0.961-3.844-1.922-5.766-1.922s-3.844 0.961-5.766 1.922-4.805 6.727-3.844 10.57l14.414 50.93-27.867-21.141h-11.531l-27.867 21.141 14.414-50.93c0.961-3.844 0-8.648-3.844-10.57-1.922-0.961-3.844-1.922-5.766-1.922s-3.844 0.961-5.766 1.922zM579.055 399.713l48.047-136.453c0.961-2.883 0.961-5.766 0-7.688l-37.477-76.875c-1.922-3.844-4.805-5.766-8.648-5.766h-157.594c-3.844 0-6.727 2.883-8.648 5.766l-37.477 76.875c-0.961 2.883-0.961 4.805 0 7.688l48.047 136.453c1.922 4.805 7.688 7.688 12.492 5.766s7.688-7.688 5.766-12.492l-47.086-132.61 32.672-67.266h63.422v18.258l-36.516 14.414c-2.883 0.961-4.805 3.844-5.766 6.727l-15.375 64.383c-0.961 4.805 1.922 10.57 6.727 11.531l50.93 14.414v32.672l-21.141-14.414c-4.805-2.883-10.57-1.922-13.453 2.883s-1.922 10.57 2.883 13.453l36.516 24.984h9.609l36.516-24.984c4.805-2.883 5.766-8.648 2.883-13.453s-8.648-5.766-13.453-2.883l-21.141 14.414v-32.672l50.93-15.375c4.805-1.922 7.688-6.727 6.727-11.531l-15.375-64.383c-0.961-2.883-2.883-5.766-5.766-6.727l-36.516-14.414v-18.258h63.422l32.672 68.227-47.086 132.61c-1.922 4.805 0.961 10.57 5.766 12.492s10.57-0.961 12.492-5.766zM455.094 292.088l12.492-50.93 34.594-13.453 35.555 13.453 11.531 50.93-47.086 13.453-47.086-13.453zM542.54 154.674c5.766 0.961 10.57-1.922 11.531-6.727 1.922-4.805-1.922-10.57-6.727-11.531l-43.242-11.531h-3.844l-43.242 11.531c-4.805 0.961-7.688 6.727-6.727 11.531s6.727 7.688 11.531 6.727l40.359-10.57 40.359 10.57zM768.36 496.768c-0.961 4.805 1.922 10.57 4.805 9.609 4.805 0.961 10.57-1.922 11.531-6.727l17.297-63.422c0.961-3.844 0-8.648-3.844-10.57l-34.594-22.102 6.727-60.539c0-2.883-0.961-5.766-2.883-7.688-1.922-2.883-4.805-2.883-7.688-2.883l-28.828 4.805-5.766-76.875c0-2.883-2.883-6.727-5.766-7.688-0.961-0.961-2.883-0.961-3.844-0.961-1.922 0-3.844 0-5.766 1.922l-53.813 45.164c-2.883 2.883-3.844 6.727-2.883 10.57l28.828 87.445-45.164-8.648 5.766-36.516c0.961-4.805-2.883-9.609-7.688-10.57s-9.609 2.883-10.57 7.688l-7.688 46.125c-0.961 4.805 2.883 9.609 7.688 10.57l70.149 12.492c2.883 0.961 6.727 0 8.648-2.883s2.883-6.727 1.922-9.609l-31.711-96.094 34.594-28.828 4.805 69.188c0 2.883 1.922 4.805 3.844 6.727s4.805 1.922 7.688 1.922l26.906-3.844-5.766 53.813c0 3.844 1.922 7.688 4.805 9.609l33.633 22.102-15.375 56.695zM563.68 478.51c39.398 50.93 40.359 50.93 45.164 51.891 1.922 0 75.914-0.961 96.094-0.961l24.984 37.477c2.883 4.805 8.648 5.766 13.453 2.883s5.766-8.648 2.883-13.453l-27.867-42.281c-0.961-2.883-4.805-4.805-7.688-4.805h-32.672l-26.906-60.539c-1.922-3.844-4.805-5.766-8.648-5.766h-1.922l-69.188 14.414c-0.961-0.961-3.844-2.883-5.766-2.883h-0.961c-1.922 0-3.844 0.961-5.766 1.922l-45.164 34.594c-2.883 2.883-3.844 6.727-2.883 10.57l11.531 38.438c0.961 5.766 6.727 8.648 11.531 6.727 5.766-0.961 8.648-6.727 6.727-11.531l-9.609-32.672 30.75-24.023h1.922zM637.673 464.096l21.141 45.164h-27.867c2.883-2.883 4.805-6.727 4.805-10.57 0-8.648-7.688-16.336-16.336-16.336s-15.375 5.766-16.336 13.453c-4.805-5.766-11.531-13.453-17.297-21.141l51.891-10.57zM502.18 470.822c5.766 0 9.609-4.805 9.609-9.609v-50.93c0-5.766-3.844-9.609-9.609-9.609s-9.609 3.844-9.609 9.609v50.93c0 5.766 3.844 9.609 9.609 9.609zM271.555 629.377c-4.805 1.922-6.727 7.688-5.766 11.531l12.492 31.711c1.922 4.805 6.727 6.727 11.531 5.766l37.477-9.609c4.805-0.961 7.688-6.727 6.727-11.531s-6.727-7.688-11.531-6.727l-28.828 7.688-9.609-24.023c-0.961-3.844-4.805-5.766-8.648-5.766-1.922 0-2.883 0.961-3.844 0.961zM684.759 650.518c-4.805-0.961-10.57 1.922-11.531 7.688-1.922 4.805 1.922 10.57 6.727 11.531l37.477 9.609c4.805 0.961 9.609-0.961 11.531-5.766l12.492-31.711c1.922-4.805-0.961-10.57-5.766-12.492-1.922-0.961-2.883-0.961-3.844-0.961-3.844 0-6.727 1.922-8.648 5.766l-9.609 24.023-28.828-7.688z" />
<glyph unicode="&#xe914;" glyph-name="dashcoin-dsh" d="M721.809 334.212c18.016 33.58 27.023 71.031 27.023 112.346 0 44.164-8.657 82.326-25.954 114.485-17.301 32.159-41.421 57.902-72.354 77.241-18.113 11.193-40.25 19.998-66.398 26.406-26.157 6.412-61.419 9.621-105.786 9.621h-113.568v-151.611h-61.525v-50.095h61.525v-252.878h114.789c41.721 0 75.355 2.849 100.899 8.547 25.54 5.698 48.691 14.964 69.454 27.784 29.915 18.519 53.882 44.574 71.893 78.154zM512 857.6c226.214 0 409.6-183.386 409.6-409.6s-183.386-409.6-409.6-409.6c-226.214 0-409.6 183.386-409.6 409.6s183.386 409.6 409.6 409.6zM611.448 595.238c-17.91 10.174-36.94 17.251-57.090 21.22-20.146 3.965-44.27 5.952-72.354 5.952h-56.786v-99.712h118.357v-50.090h-118.357v-200.979h56.786c29.103 0 54.495 2.135 76.167 6.408 21.676 4.274 41.569 12.212 59.69 23.811 22.589 14.452 39.531 33.478 50.83 57.090 11.295 23.608 16.942 53.125 16.942 88.535 0 35.617-6.21 65.642-18.62 90.066-12.419 24.42-30.942 43.657-55.564 57.699z" />
<glyph unicode="&#xe915;" glyph-name="dash-dash" d="M844.526 351.413c-15.84-45.685-52.322-86.766-82.538-105.975s-51.46-31.099-103.823-31.099h-536.117l37.758 122.376h504.2l75.331 244.916h-500.207l37.765 122.369h558.201c25.575 0 59.373-11.827 75.82-43.817 16.44-31.95 11.873-48.397 0-91.336-11.886-42.939-50.529-171.749-66.389-217.434zM136.957 515.856h298.745l-34.57-112.35h-298.732l34.557 112.35z" />
<glyph unicode="&#xe916;" glyph-name="decent-dct" d="M371.367 330.577c-58.020-23.658-123.429-13.11-184.389-15.466-0.049 87.769-0.049 175.552 0 263.35 63.021-2.949 130.248 9.953 189.259-18.366 45.965-21.598 71.291-68.481 91.238-112.705 0.002-0.004 0.004-0.009 0.006-0.013-20.782-46.056-46.685-96.408-96.114-116.8zM744.953 315.111c-37.454 0.385-76.988 4.686-108.789 26.243-37.409 24.65-56.934 66.908-74.912 106.229-0.003 0.006-0.006 0.013-0.009 0.019 16.87 33.868 33.929 69.434 63.894 93.791 31.801 26.726 74.383 36.053 115.027 37.019 60.461 0.147 120.922-0.049 181.432 0.049l0.004 84.578h-200.379c-45.285-3.817-91.103-14.692-129.388-40.104-32.091-20.2-56.982-49.633-77.182-81.334-18.996 30.685-42.626 59.146-72.874 79.295-38.568 26.825-85.561 38.457-131.846 42.144l-207.531-0.021v-432.536h84.869c0 0.001 0 0.002 0 0.003 35.748 0.089 72.744-0.144 108.462 0.047 52.814 1.065 107.188 13.34 150.343 45.092 28.37 19.617 49.778 47.306 68.286 76.012 14.543-23.778 31.556-46.441 52.721-64.707 44.56-39.485 105.074-55.726 163.647-56.402 63.619-0.147 127.221-0.049 190.873-0.049v84.582c-58.867 0.098-117.78-0.144-176.647 0.049z" />
<glyph unicode="&#xe917;" glyph-name="decred-dcr" d="M462.517 369.884h202.672c75.287 0 136.537 61.266 136.537 136.561s-61.25 136.553-136.537 136.553h-64.565l-138.107 119.882h202.672c141.606 0 256.411-114.821 256.411-256.427 0-107.438-66.087-199.437-159.815-237.585l159.799-138.723h-182.861l-276.206 239.739zM561.475 523.101h-202.656c-75.271 0-136.545-61.242-136.545-136.537 0-75.287 61.266-136.553 136.545-136.553h64.565l138.099-119.874h-202.664c-141.614 0-256.419 114.805-256.419 256.427 0 107.43 66.087 199.445 159.815 237.593l-159.799 138.723h182.861l276.198-239.779z" />
<glyph unicode="&#xe918;" glyph-name="dentacoin-dcn" d="M519.155 411.001c34.954-107.797 70.628-215.372 107.575-322.532 3.183-9.686 8.247-18.93 8.884-29.281-37.722-9.493-76.025-18.847-115.186-19.013-52.75 0.277-106.69 5.895-155.537 26.956 5.701 17.104 13.644 33.322 19.954 50.231 40.988 103.286 73.507 209.616 111.865 313.87 2.685 5.037 4.724 11.964 7.722 17.27 5.784-11.236 10.489-25.628 14.723-37.501zM840.442 683.19c47.796-66.228 73.645-147.041 76.163-228.463 0-87.4-25.877-175.602-77.907-246.369-15.166-19.677-30.25-39.881-49.152-56.154-29.253 39.687-54.687 82.114-78.627 125.177-27.676 53.331-55.628 106.662-78.322 162.318-47.824 121.773-83.414 247.919-116.349 374.424-2.491 8.773-4.207 17.906-8.829 25.877-9.88-28.561-17.519-57.842-26.126-86.819-27.703-92.132-56.901-183.905-90.057-274.238-38.94-100.85-89.171-197.078-145.712-289.128-6.836-11.319-13.755-22.639-21.449-33.432-60.499 60.222-103.064 139.043-116.016 223.786-10.517 58.949-5.923 119.974 9.991 177.539 21.864 79.152 68.663 151.165 132.207 203.195 70.794 58.506 161.571 92.354 253.454 93.876 31.633 0.609 63.128-4.096 94.070-10.323 97.031-21.587 185.233-80.121 242.66-161.266z" />
<glyph unicode="&#xe919;" glyph-name="digi-byte-dgb" d="M582.933 804.968c-7.231-21.033-13.784-42.182-21.128-63.1 41.691-10.863 42.368 37.444 55.587 64.487 28.133 0.116 56.378 0 84.624-0.231-5.649-21.842-12.767-43.107-20.563-64.14 65.643-9.245 140.889-31.088 174.219-95.575 34.347-73.733 2.373-157.173-32.2-224.318-68.467-143.883-213.311-231.264-362.109-264.074-5.498-14.947-14.142-37.752-25.93-68.416h-87.73c8.737 23.73 15.253 41.566 19.546 53.508-25.233 5.008-44.028-12.828-56.387-53.508l-83.372 0.231 16.608 44.378h-89.015l170.388 425.523h151.597c4.668 0 7.057-2.637 7.168-7.91-32.087-94.766-72.132-195.733-105.914-289.91 147.781-1.618 286.975 116.955 306.408 267.425 9.039 52.352-40.674 94.304-88.917 91.646-147.329 1.040-294.771 0-442.213 0.462 15.516 25.887 39.12 66.028 70.812 120.422l249.042 1.734c10.394 27.813 18.19 48.693 23.387 62.638 28.698 0.347 57.395 0.116 86.093-1.271z" />
<glyph unicode="&#xe91a;" glyph-name="digital-note-xdn" d="M51.412 600.54h78.673c0.424-26.719 0-53.438 0.212-80.158-26.295 0-52.802 0.424-79.097 0 0.212 26.719 0 53.438 0.212 80.158zM170.8 600.54c26.083 0 52.166 0.212 78.249 0v-80.158c-25.871 0.424-51.742 0.636-77.825-0.212-0.848 26.719 0 53.65-0.424 80.37zM287.007 600.964c25.235-0.636 50.47-0.424 75.916-0.212-0.212-26.719-0.212-53.438 0-79.946-25.235-0.424-50.682 0-75.916-0.424v80.582zM396.853 600.964c41.775-0.424 83.763 0 125.75-0.212s84.823-18.025 112.178-50.47c23.962-28.628 34.353-66.586 34.353-103.484 0.636-35.626-8.27-72.099-29.9-100.939-26.719-36.262-71.887-55.347-116.207-56.831-42.199-0.636-84.187 0-126.174 0 0 103.908 0.212 208.028 0 311.936zM468.528 537.347c0.424-61.921-0.212-123.629 0.424-185.55 29.476 1.272 62.769-5.726 89.064 11.875 30.112 18.873 40.079 57.467 37.746 91.185-1.272 29.476-15.268 60.436-42.411 74.22-26.083 13.572-56.619 8.27-84.823 8.27zM713.666 601.388h17.601c73.16-91.185 145.047-183.641 219.055-274.19 0.636 91.609 0 183.005 0.212 274.402 7.422 0 14.844-0.212 22.266-0.424-0.212-104.12-0.212-208.028 0-311.936h-20.57c-72.311 89.7-143.563 180.673-216.086 270.161v-270.161h-22.69c0.212 104.12 0.212 208.028 0.212 312.148zM170.8 484.545h78.461c-0.212-26.295 0-52.802 0-79.097h-78.249c-0.212 26.295 0 52.802-0.212 79.097zM287.007 484.332c25.235 0.212 50.47 0.424 75.916 0-0.636-26.295 0.212-52.59-0.424-79.097h-75.28c-0.212 26.507 0 52.802-0.212 79.097zM287.22 369.61c25.235-0.636 50.258 0 75.492-0.424 0.212-26.507-0.424-53.226 0.212-79.946-25.235 0-50.682-0.212-75.916 0 0.212 26.719 0 53.438 0.212 80.37z" />
<glyph unicode="&#xe91b;" glyph-name="digix-dao-dgd" d="M512 857.6c226.308 0 409.96-183.288 409.599-409.599 0-226.312-183.287-409.6-409.599-409.6s-409.6 183.287-409.6 409.6c0 226.312 183.288 409.599 409.6 409.599zM627.323 205.063c63.263 0 114.966 53.137 114.966 117.49s-51.695 117.494-114.962 117.494h-326.091v-234.988l326.087 0.004zM618.287 389.428c37.237 0.369 67.24-29.274 67.961-66.519 0-36.876-31.813-67.244-68.325-67.244h-262.459v133.763h262.824zM297.619 595.501v-115.687h198.816v195.219h-43.364v-79.536l-155.451 0.004zM337.388 519.574v36.151h112.070v-36.151h-112.070zM301.236 671.417v-46.993h122.913v46.993h-122.913zM525.377 675.034v-195.219h198.832v115.687h-122.917v-39.776h79.536v-36.143h-112.071v115.683h151.839v39.768h-195.219z" />
<glyph unicode="&#xe91c;" glyph-name="district-0-x-dnt" d="M330.645 233.96c54.472-41.286 137.956-33.794 184.712 15.817 41.433 41.124 53.006 109.014 26.233 161.095-23.070 49.619-77.311 82.326-131.937 80.173-60.413-0.779-116.892-44.604-132.709-102.849-17.129-56.023 5.632-120.912 53.701-154.236zM617.975 908.685c29.782-0.309 56.016-27.228 55.398-57.088 0.051-53.598 0.077-133.998 0.077-241.199 19.5 0 33.877 0 43.13 0 40.578 0 70.212-20.207 71.833-55.854 1.543-28.247-19.366-55.321-47.382-59.951-22.445-1.929-45.052-0.085-67.581-1.003-0.051-64.194-0.028-160.511 0.069-288.951 19.14-0.108 33.494-0.162 43.061-0.162 45.984 0.162 71.833-19.223 71.833-54.318 0-34.027-24.235-60.645-55.553-60.413-113.111-0.309-226.223 0.077-339.334-0.147-59.642 5.864-117.432 31.395-160.871 72.99-47.837 46.371-77.311 111.491-78.854 178.301-3.395 82.488 36.109 164.891 102.078 214.271 37.421 29.397 83.406 45.214 129.854 53.238 57.404 0.463 114.886-0.085 172.29 0.224 0.231 80.559-0.077 161.025 0.154 241.577-1.389 31.95 27.931 60.653 59.796 58.485z" />
<glyph unicode="&#xe91d;" glyph-name="dogecoin-doge" d="M660.589 272.046c-51.731-46.668-150.718-45.049-267.075-39.235v149.401h131.13v129.624h-131.13v153.978c112.147 1.571 218.313-4.691 272.759-58.133 34.577-33.935 51.137-89.326 50.619-169.313-4.329-81.639-22.746-136.048-56.303-166.323zM764.57 707.846c-108.007 105.999-278.383 101.26-443.179 96.666l-68.215-1.9v-290.776h-99.576v-129.624h99.576v-282.971l66.812-3.195c13.1-0.632 26.087-1.306 38.944-1.981 43.17-2.251 85.655-4.464 126.639-4.464 103.883 0 198.077 14.244 269.024 78.244 62.829 56.681 96.369 143.329 102.528 264.884l0.086 2.915c1.101 120.902-29.201 209.941-92.64 272.203z" />
<glyph unicode="&#xe91e;" glyph-name="dollar-usd" d="M552.742 100.664v-76.881c0-5.491-5.491-10.983-10.983-10.983h-63.152c-5.491 0-10.983 5.491-10.983 10.983v76.881c-101.592 10.983-164.744 65.898-183.965 82.372-2.746 2.746-2.746 8.237 0 13.729l54.915 76.881c2.746 5.491 10.983 5.491 13.729 2.746 21.966-19.22 85.118-65.898 161.999-65.898 52.169 0 98.847 27.457 98.847 82.372 0 115.321-321.252 104.338-321.252 307.523 0 98.847 74.135 175.727 178.473 192.202v79.626c0 5.491 5.491 10.983 10.983 10.983h63.152c5.491 0 10.983-5.491 10.983-10.983v-76.881c90.609-8.237 145.524-49.423 161.999-63.152 2.746-2.746 5.491-8.237 2.746-10.983l-43.932-82.372c-2.746-5.491-10.983-8.237-13.729-2.746-19.22 16.474-74.135 52.169-140.033 52.169-57.661 0-101.592-32.949-101.592-82.372 0-112.575 321.252-93.355 321.252-307.523-5.491-98.847-74.135-181.219-189.456-197.693z" />
<glyph unicode="&#xe91f;" glyph-name="drp-utility-drpu" d="M675.385 257.952c-4.53 11.724-10.429 23.091-17.756 33.858-38.046 55.902-75.916 111.924-113.877 167.883-8.813 12.994-17.677 25.952-26.969 39.588-10.014-14.318-19.662-27.729-28.907-41.41-19.077-28.229-37.861-56.657-56.913-84.903-18.174-26.943-36.625-53.701-54.801-80.644-12.261-18.182-20.475-37.227-24.974-57.063-0.003 0.002-0.007 0.005-0.010 0.008-4.99-22.059-5.4-45.084-1.644-68.977 12.198-57.752 45.62-98.741 98.88-124.333-2.137-2.937-4.609-1.751-6.62-1.214-63.166 16.869-115.444 50.595-156.664 101.389-0.318 0.39-0.395 0.977-0.582 1.476-11.769 11.936-20.070 26.306-28.172 40.742-18.609 33.155-29.941 68.76-34.911 106.422-1.993 15.105 7.266 26.047 23.038 26.35 11.617 0.224 23.263 0.321 34.879-0.040 0.002-0.004 0.004-0.008 0.007-0.012 0 0.005-0.002 0.009-0.004 0.013 3.138-0.095 6.279-0.21 9.414-0.384 11.143-0.619 24.081 9.519 23.847 22.605-0.292 16.379-0.11 32.768-0.082 49.152 0.026 17.316 8.227 25.597 25.698 25.729 15.845 0.118 31.694-0.061 47.539 0.047 15.562 0.108 23.62 8.295 23.716 23.999 0.1 15.849 0.039 31.696 0.106 47.543 0.069 16.707 8.408 25.126 25.231 25.261 16.113 0.131 32.231-0.060 48.346 0.068 15.257 0.123 23.379 8.3 23.439 23.408 0.061 15.579-0.397 31.175 0.185 46.73 0.398 10.632-2.6 18.919-11.882 24.524-4.578 1.73-9.303 2.253-14.199 2.217-16.095-0.119-32.196-0.155-48.288-0.002-13.356 0.126-22.476 8.789-22.699 21.944-0.244 14.205-0.414 54.922-0.414 68.069 30.33 42.955 72.196 108.028 101.668 151.588 1.621 2.395 3.354 4.714 5.715 8.019 5.225-7.503 10.009-14.168 14.583-20.975 31.097-46.288 62.059-92.668 93.253-138.892 18.005-26.677 58.702-84.632 59.305-87.958-0.097 0.008-0.177 0.039-0.274 0.050 0 0 0.002 0 0.002 0 0.095-0.013 0.176-0.042 0.273-0.050 0.255-0.352 0.505-0.706 0.758-1.058 0.003-0.003 0.008-0.008 0.011-0.011 2.991-4.115 5.936-8.263 8.866-12.42 5.834-8.273 11.566-16.616 17.245-24.995 4.883-7.202 9.74-14.42 14.586-21.646 8.568-12.782 17.137-25.561 25.908-38.201 9.598-13.83 19.459-27.443 27.461-42.308 65.128-121.001 39.493-272.607-67.168-364.767-36.456-31.499-78.068-52.887-124.852-64.269-1.804-0.44-3.651-0.703-7.11-1.353 8.776 4.589 16.134 8.311 23.368 12.257 7.328 3.999 14.013 8.948 20.549 14.146 58.379 46.42 77.882 125.53 51.895 192.798zM640.099 104.211c-58.97-71.662-140.936-70.746-195.016-41.744-62.677 33.619-89.509 102.45-79.293 157.090 104.621-55.669 203.991-47.788 299.384 24.918 4.589-18.632 8.487-37.225 6.962-56.605-2.441-31.036-12.206-59.558-32.036-83.658zM263.173 414.019c-10.743 0.003-21.488-0.108-32.228 0.034-10.745 0.144-15.731 5.085-15.794 15.924-0.126 21.486-0.103 42.973 0.031 64.457 0.069 11.179 5.241 16.515 16.161 16.589 21.756 0.148 43.508 0.139 65.262 0.021 10.656-0.058 15.986-5.31 16.044-15.792 0.131-22.022 0.148-44.047 0.027-66.067-0.052-9.821-5.104-14.947-14.863-15.123-11.543-0.208-23.096-0.048-34.64-0.044zM316.913 524.242c-0.44 14.468-0.447 61.121-0.060 69.921 0.379 8.621 5.967 13.633 14.776 13.699 22.531 0.171 45.064 0.206 67.595-0.003 10.424-0.097 15.178-6.147 14.638-17.576 0.131-21.76 0.458-43.522 0.297-65.28-0.066-8.677-5.654-13.881-14.421-13.944-22.844-0.161-45.69-0.152-68.534 0.011-8.537 0.060-14.036 4.744-14.291 13.172zM257.62 609.938c-8.126 0.092-12.267 4.338-12.353 12.599-0.161 15.574-0.166 31.152 0.006 46.725 0.084 7.739 4.161 11.653 12.101 11.854 8.050 0.203 16.11 0.044 24.166 0.050 7.518 0.006 15.039 0.116 22.557-0.023 8.418-0.156 12.622-3.664 12.843-12.104 0.408-15.834 0.376-31.691-0.003-47.525-0.185-7.702-4.662-11.501-12.593-11.58-15.578-0.153-31.154-0.169-46.725 0.003zM232.307 562.567c0.008-6.678-3.719-9.958-9.976-10.098-10.99-0.248-21.993-0.255-32.982-0.008-6.729 0.152-10.205 3.867-10.14 10.821 0.095 10.458 0.061 20.919-0.008 31.378-0.048 7.376 3.533 10.833 10.877 10.68 5.364-0.113 10.729-0.023 16.092-0.026 5.365-0.002 10.729-0.040 16.092 0.008 6.605 0.058 10-3.182 10.032-9.768 0.050-10.995 0-21.993 0.013-32.987z" />
<glyph unicode="&#xe920;" glyph-name="edgeless-edg" d="M857.046 332.968l-0.042 230.289c-0.245 52.764-28.132 101.534-73.473 128.515l-191.359 112.53c-46.602 27.626-104.562 27.626-151.164 0l-191.359-112.53c-45.362-26.964-73.25-75.747-73.473-128.515v-230.289c0.202-52.798 28.090-101.614 73.473-128.599l191.359-112.445c46.674-27.415 104.533-27.415 151.206 0l191.359 112.487c45.366 26.977 73.258 75.776 73.473 128.557zM800.19 720.199c55.35-32.886 89.399-92.39 89.712-156.774v-230.458c-0.354-64.426-34.51-123.934-89.965-156.732l-191.359-112.53c-27.879-16.508-59.673-25.247-92.073-25.307-32.413 0.051-64.224 8.79-92.116 25.307l-191.359 112.53c-55.341 32.873-89.378 92.365-89.669 156.732v230.374c0.287 64.388 34.324 123.909 89.669 156.816l191.359 112.361c56.931 33.443 127.511 33.443 184.442 0l191.359-112.319zM523.502 477.784c47.985-25.067 125.431 37.851 72.902 97.611-30.299 33.124-56.903 69.466-79.343 108.39l-0.549 1.053c-0.165-0.361-0.345-0.712-0.549-1.053-22.44-38.939-49.029-75.316-79.293-108.49-52.779-59.659 26.015-122.578 73.901-97.511l-28.562-58.456 34.454-32.487 34.504 32.487-27.463 58.456zM631.357 412.66c-12.723 0.005-25.311-2.657-36.95-7.821l-19.424-11.631-58.272-51.036-55.326 48.73-19.424 12.483-2.696 1.454c-11.649 5.184-24.257 7.851-37 7.821-52.779 0-95.721-45.472-95.721-100.569s42.792-100.619 95.721-100.619c5.253 0 10.501 0.451 15.679 1.354 7.335 1.339 14.49 3.524 21.321 6.517l19.374 11.631 25.915 22.711c2.686 2.341 2.981 6.422 0.649 9.124l-22.769 22.911c-2.502 2.301-6.336 2.301-8.838 0l-19.973-17.547-13.682-8.072c-3.096-1.243-6.307-2.166-9.587-2.757-2.606-0.461-5.243-0.692-7.889-0.702-27.813 0-50.432 24.766-50.432 55.147s22.62 55.147 50.432 55.147c5.992-0.040 11.919-1.213 17.476-3.459l13.482-8.322 83.338-73.095 55.375-48.831 19.424-12.483 2.696-1.404c11.624-5.224 24.217-7.906 36.95-7.871 52.829 0 95.721 45.472 95.721 100.619s-43.042 100.569-95.571 100.569zM623.318 257.695c-3.226 0.597-6.386 1.504-9.437 2.707l-13.482 8.322-49.334 43.366 49.234 43.316 13.682 8.172c3.096 1.243 6.307 2.171 9.587 2.757 2.656 0.461 5.343 0.697 8.039 0.702 27.813 0 50.432-24.766 50.432-55.147 0-33.339-27.163-60.161-58.621-54.395l-0.1 0.201z" />
<glyph unicode="&#xe921;" glyph-name="eos" d="M592.047 200.32c1.368 8.010 4.374 15.57 6.732 23.292 20.25 64.026 40.59 128.034 60.768 192.060 4.878-6.57 8.442-13.95 12.528-21.006 35.406-62.406 70.686-124.884 106.164-187.236 1.206-2.268 2.16-4.68 3.096-7.092-63.108-0.072-126.198-0.018-189.288-0.018zM736.011 158.344c-59.364-37.242-118.764-74.466-178.128-111.708-6.066-3.798-11.988-7.83-18.378-11.052 13.356 45.306 28.386 90.144 42.282 135.288 2.196 0.378 4.41 0.594 6.66 0.684 52.218-0.072 104.436-0.072 156.654-0.018 3.312 0 6.642-0.18 9.972-0.45-5.814-5.022-12.618-8.622-19.062-12.744zM512.919 50.182c-8.208 21.852-14.238 44.46-21.6 66.618-5.526 18.18-11.862 36.126-16.866 54.468 25.938 0.432 51.912 0.378 77.85 0.018-11.232-36.036-23.13-71.874-34.506-107.874-1.386-4.5-2.97-8.928-4.878-13.23zM409.311 83.464c-40.212 25.182-80.388 50.418-120.6 75.618-6.066 3.834-12.438 7.272-17.892 11.988 8.082 0.738 16.2 0.414 24.3 0.45 43.2 0 86.4-0.018 129.6 0 6.444-0.036 12.942 0.468 19.332-0.63 13.896-45.144 28.926-89.964 42.282-135.27-26.082 15.264-51.282 32.004-77.022 47.844zM360.513 406.024c1.602 2.97 3.384 5.886 5.886 8.19 20.916-65.394 41.472-130.914 62.28-196.344 1.98-5.994 3.906-12.006 5.472-18.144-63.342-0.216-126.72-0.216-190.080 0.018 38.232 69.066 77.868 137.394 116.442 206.28zM281.565 405.862c10.098 46.098 20.142 92.214 30.276 138.312 1.728 7.65 2.844 15.48 5.562 22.86 11.844-36.774 23.508-73.602 35.244-110.412 1.818-3.528-0.81-6.84-2.34-9.9-32.382-56.484-63.99-113.418-96.57-169.794 8.586 43.11 18.666 85.932 27.828 128.934zM396.261 710.494c34.092 46.368 67.662 93.168 102.078 139.32 0.468-44.568-0.036-89.118 0.252-133.686 0.126-4.14-0.162-8.424-2.538-11.97-40.914-71.694-81.27-143.73-122.31-215.37-1.728 2.754-2.916 5.796-3.816 8.892-12.726 41.094-26.406 81.882-38.916 123.012 21.312 30.24 43.596 59.796 65.25 89.802zM512.919 675.106c42.030-72.828 83.142-146.232 124.974-219.186 1.512-2.826 3.6-5.994 2.070-9.27-25.992-81.972-51.966-163.962-77.958-245.934-32.346-0.918-64.746-0.198-97.11-0.36-26.37 81.342-51.696 163.026-77.76 244.458-1.854 3.636-0.954 7.362 1.242 10.566 41.652 73.17 82.674 146.7 124.542 219.726zM527.499 849.814c54.216-73.17 107.442-147.096 161.424-220.446 2.070-2.808 3.996-5.742 5.904-8.676-13.662-44.532-28.044-88.866-42.12-133.272-18.198 30.492-35.046 61.794-52.722 92.61-23.598 41.76-47.196 83.538-70.812 125.298-2.358 3.798-1.836 8.388-1.926 12.654 0.288 43.938-0.234 87.894 0.252 131.832zM710.487 561.112c13.536-62.082 27.162-124.128 40.698-186.21 6.822-32.184 14.544-64.188 20.736-96.48-11.304 17.856-20.97 36.72-31.644 54.972-22.14 39.060-44.316 78.102-66.42 117.18-2.574 3.294-0.378 7.236 0.486 10.71 11.502 35.226 22.392 70.65 33.93 105.858 0.846-1.962 1.674-3.942 2.214-6.030zM817.191 206.602c-30.402 138.942-60.804 277.866-91.17 416.808-1.782 8.352-7.902 14.634-12.672 21.384-59.094 80.712-118.116 161.478-177.174 242.208-5.706 7.614-10.584 16.164-18.486 21.798h-9.63c-7.794-5.724-12.708-14.202-18.396-21.798-59.058-80.748-118.080-161.514-177.174-242.226-4.752-6.75-10.89-13.014-12.672-21.366-30.366-138.924-60.75-277.866-91.17-416.79-1.638-8.208-4.554-16.434-3.69-24.912 0.252-3.276 2.736-5.724 5.31-7.47 99.504-62.226 198.81-124.776 298.278-187.038h8.766c99.126 61.992 198.054 124.326 297.18 186.318 3.384 2.25 6.714 5.526 6.84 9.864-0.018 7.92-2.628 15.534-4.14 23.22z" />
<glyph unicode="&#xe922;" glyph-name="ethereum-classic-etc" d="M514.345 908.8l263.697-415.909-263.251 117.43-271.723-114.457 271.277 412.936zM515.089 211.654l276.777 157.118-274.25-381.572-273.804 381.572 271.277-157.118zM232.96 435.217l283.020 119.213 274.994-122.484-274.994-153.848-283.020 157.118z" />
<glyph unicode="&#xe923;" glyph-name="ethereum-eth" d="M513.269 908.8v-0.004l282.866-469.345-282.866-167.203-282.869 167.203 282.869 469.35zM513.263-12.789l-282.862 398.601 282.869-167.121 283.032 167.121-283.039-398.601z" />
<glyph unicode="&#xe924;" glyph-name="euro-eur" d="M768.829 80.225c-18.93-5.408-62.197-16.225-113.577-16.225-178.479 0-313.69 110.873-356.958 273.127h-62.197c-5.408 0-10.817 5.408-10.817 10.817v59.493c0 5.408 5.408 10.817 10.817 10.817h48.676c-2.704 16.225-2.704 43.268 0 64.901h-48.676c-5.408 0-10.817 5.408-10.817 10.817v59.493c0 5.408 5.408 10.817 10.817 10.817h62.197c45.972 156.845 183.887 267.718 356.958 267.718 43.268 0 83.831-8.113 102.761-10.817 5.408 0 8.113-5.408 8.113-10.817l-27.042-102.761c0-5.408-5.408-8.113-10.817-8.113-13.521 2.704-43.268 8.113-73.014 8.113-100.056 0-175.775-54.085-208.225-143.324h232.563c5.408 0 10.817-5.408 10.817-10.817l-10.817-59.493c0-5.408-5.408-8.113-10.817-8.113h-237.972c-2.704-18.93-2.704-43.268 0-64.901h221.746c5.408 0 10.817-5.408 10.817-10.817l-10.817-59.493c0-5.408-5.408-8.113-10.817-8.113h-186.592c32.451-89.239 113.577-146.028 208.225-146.028 37.859 0 70.31 8.113 86.535 10.817 5.408 2.704 10.817-2.704 10.817-8.113l21.634-102.761c-5.408-10.817-10.817-16.225-13.521-16.225z" />
<glyph unicode="&#xe925;" glyph-name="expanse-exp" d="M712.24 365.702c10.553 25.341 16.429 53.121 16.429 82.298s-5.875 56.957-16.429 82.298l145.663 84.094v-332.785l-145.663 84.094zM541.968 235.603c57.933 7.494 108.504 38.023 142.359 82.21l145.862-84.205-288.222-166.393v168.388zM344.203 317.812c33.855-44.164 84.427-74.716 142.337-82.21v-168.388l-288.2 166.393 145.862 84.205zM316.29 530.298c-10.553-25.341-16.429-53.121-16.429-82.298s5.875-56.957 16.429-82.298l-145.663-84.094v332.785l145.663-84.094zM486.54 660.419c-57.91-7.494-108.482-38.045-142.337-82.232l-145.862 84.205 288.2 166.415v-168.388zM541.968 660.419v168.388l288.222-166.415-145.84-84.205c-33.877 44.187-84.449 74.738-142.382 82.232zM514.254 908.8l-399.054-230.4v-460.8l399.054-230.4 399.076 230.4v460.8l-399.076 230.4z" />
<glyph unicode="&#xe926;" glyph-name="factom-ftc" d="M271.5 780.576c21.992 16.174 49.527 31.973 78.565 44.784 8.018 3.17 15.724 5.908 23.058 8.221 9.948 4.091 19.727 6.99 28.986 9.743 0.669 0.332 1.387 0.691 2.179 1.087 52.757 13.189 84.997 5.862 79.136-23.448-1.465-10.258-8.793-20.517-19.051-30.775-8.793-2.931-27.844 0-30.775 2.931 8.793 10.258 13.189 19.051 16.12 26.379 5.616 22.466-18.923 28.553-59.060 18.96 4.713 1.659 6.9 2.62 10.663 4.475l-21.946-7.315c-0.752-0.274-1.46-0.53-2.144-0.78 4.646 1.39 9.121 2.59 13.427 3.62-2.937-1.034-6.851-2.341-12.748-4.306-6.542-1.869-10.112-3.147-15.255-5.344-1.264-0.638-2.53-1.292-3.796-1.983-16.737-6.8-33.282-14.722-48.979-23.361-1.957-1.277-3.541-2.212-8.142-4.784-1.498-1.168-2.575-2.241-4.429-4.095-11.724-7.327-11.724-7.327-17.586-11.724-14.655-8.793-16.12-8.793-20.517-13.189l-13.686-10.949c-4.286-4.239-8.056-8.422-11.227-12.498-5.689-5.689-10.491-9.625-15.1-14.524 5.024 4.353 9.66 8.705 15.1 13.058-4.396-7.327-8.793-14.655-10.258-20.517s-1.465-10.258 1.465-13.189c-0.246-0.288-0.479-0.562-0.723-0.847 11.233-12.193 48.694-8.955 95.979 11.106 16.12 5.862 32.24 13.189 45.43 21.982 5.862 1.465 11.724-7.327 14.655-8.793 1.465-1.465 2.931-7.327 0-10.258-17.586-10.258-36.637-20.517-57.153-27.844-58.393-25.636-107.087-29.121-120.544-13.154-0.363-0.502-0.727-0.992-1.090-1.5-2.931 5.862-4.396 8.793-1.465 16.12 0 1.465 0 2.931 1.465 5.862 1.401 1.752 2.892 3.417 4.462 5.041-2.578-2.544-5.065-5.178-7.393-7.972 0 1.465 1.465 5.862 1.465 7.327 4.396 7.327 7.327 11.724 13.189 19.051 1.199 0.959 2.349 1.918 3.482 2.877 5.499 7.558 12.149 14.221 19.965 22.037 4.564 4.336 9.52 8.671 14.811 12.974 1.002 0.83 2.021 1.658 3.255 2.649-0.215-0.186-0.434-0.371-0.648-0.557 1.309 1.040 2.637 2.078 3.983 3.114 0.606 0.595 1.218 1.19 1.838 1.785-0.458-0.472-0.93-0.958-1.427-1.469 5.11 3.916 10.483 7.792 16.075 11.603-1.422-0.578-2.56-1.065-3.612-1.609-2.781-1.438-5.084-3.331-11.036-8.524 3.491 2.844 7.182 5.689 11.037 8.525zM119.676 340.145c2.568-9.875 5.282-18.788 9.102-27.701-2.931 10.258-7.327 20.517-8.793 33.706 30.775-43.964 149.478-33.706 300.422 30.775 193.443 82.067 367.834 221.287 392.747 310.681 5.862 21.982 1.465 38.102-10.258 49.826 8.793-8.793 17.586-19.051 24.913-27.844 10.258-11.724 11.724-27.844 7.327-48.361-23.448-92.325-202.235-233.010-401.54-316.542-162.77-69.939-286.894-76.969-310.186-24.948-0.782 1.439-1.46 2.934-1.96 4.431-2.504 8.761-6.073 21.787-8.888 31.797 1.214-3.717 2.847-7.135 5.957-11.28 0.3-1.199 0.6-2.373 0.902-3.544 0.032 0.822 0.084 1.644 0.177 2.466 0.089 1.316 0.214 2.649 0.387 4.008-0.117-1.051-0.195-2.102-0.257-3.151 0.080 0.562 0.144 1.124 0.257 1.686-0.121-0.727-0.194-1.405-0.276-2.095-0.061-1.187-0.095-2.371-0.085-3.548 0.069 0.823 0.153 1.655 0.276 2.511-0.086-0.962-0.162-1.92-0.224-2.872zM103.528 413.16c0.038 1.063 0.1 2.126 0.167 3.191 0.104-2.583 0.17-5.018 0.17-7.186 0-0.094 0.003-0.183 0.003-0.276-0.173 1.41-0.288 2.835-0.34 4.269 0.051 1.069 0.103 2.138 0.167 3.213-0.024 0.587-0.049 1.182-0.076 1.784-0.004-0.066-0.013-0.131-0.018-0.197 0.006 0.088 0.010 0.174 0.015 0.262-0.419 9.246-1.216 20.009-1.216 27.582 0-10.258 2.931-17.586 7.327-24.913 0-0.021 0.001-0.042 0.001-0.063 0 0.509-0.001 1.019-0.001 1.528 115.772-123.1 638.947 196.374 644.809 331.197 1.154 19.632-6.79 29.251-13.796 34.599l25.52-17.013c13.189-11.724 19.051-29.309 13.189-52.757-21.982-86.463-193.443-221.287-378.092-298.957-146.875-63.12-260.571-71.946-290.288-30.645-5.299 5.359-6.945 10.743-7.171 18.377-0.395 2.92-0.519 5.988-0.38 9.195-0.033-1.067-0.028-2.131 0.010-3.19zM206.449 173.224c-7.327 8.793-16.12 17.586-20.517 26.379 7.327-8.793 17.586-20.517 24.913-29.309-1.465 1.465-2.931 2.931-4.396 2.931zM493.865 856.195c-3.725-0.701-7.291-1.213-10.441-1.213h-5.862c5.799 1.577 11.242 1.966 16.303 1.213zM533.249 819.498c6.253 23.763-9.919 35.776-39.385 36.968 8.405 0.431 17.622 1.135 24.73 1.135 36.637 0 54.223-13.189 46.895-41.033-8.793-33.706-55.688-80.601-115.772-121.634-11.724-5.862-24.913 10.258-20.517 17.586 0 1.465 1.465 1.465 1.465 1.465 54.223 36.637 93.79 76.205 102.583 105.514zM883.498 612.866c-5.862 1.465-16.12 21.982-17.586 30.775 0 5.41-0.416 10.002-1.661 14.211l7.523-14.211 5.862-8.793c5.862-13.189 5.862-13.189 5.862-20.517v-1.465zM864.251 657.852c-1.115 3.773-2.896 7.239-5.666 10.702l5.666-10.702zM682.728 778.464c6.777 24.399-1.5 41.269-21.335 50.623 9.644-4.041 21.453-8.803 30.127-12.521 20.517-10.258 29.309-27.844 21.982-54.223-20.517-79.136-172.926-197.839-339.99-269.647-30.775-13.189-63.015-24.913-90.859-33.706-16.12-1.465-17.586 19.051-10.258 29.309 1.465 2.931 2.931 2.931 5.862 5.862 26.379 7.327 54.223 17.586 83.532 29.309 158.271 67.412 301.888 181.719 320.939 254.992zM661.469 826.101c-1.633 1.822-3.334 3.536-5.12 5.12 1.608-1.631 3.332-3.349 5.12-5.12zM581.61 277.272c159.737 83.532 293.095 197.839 315.077 275.509 2.931 13.189 2.931 26.379 0 36.637 4.396-13.189 10.258-26.379 11.724-38.102 1.465-8.793 1.465-19.051-1.465-30.775-20.517-76.205-150.944-189.046-309.215-271.113-17.586-7.327-27.844 5.862-24.913 17.586 1.465 5.862 5.862 8.793 8.793 10.258zM761.863 303.651c82.067 60.084 140.686 123.1 152.409 171.46 1.465 8.793 2.931 17.586 1.465 26.379l4.396-21.982v-13.189c0-7.327 0-11.724-1.465-20.517-11.724-46.895-68.877-106.98-148.013-167.064-11.724-8.793-19.051 2.931-17.586 11.724 1.465 7.327 7.327 11.724 8.793 13.189zM222.569 602.608c-20.517-2.931-49.826-1.465-64.481 13.189 5.862 10.258 10.258 19.051 17.586 29.309 13.189-17.586 57.153-17.586 115.772 1.465 7.327 2.931 7.327-13.189 7.327-13.189 0-8.793-1.465-20.517-76.205-30.775zM125.848 454.595c-17.586 8.793-24.913 21.982-21.982 43.964-1.326-10.602 0.953-19.997 5.735-27.118-3.77 7.181-5.452 14.73-4.269 24.187 0 1.259 0.272 2.79 0.581 4.357l2.35 17.625 1.479 6.659c0.801 4.131 1.736 8.261 2.917 12.392v-2.931l-2.811-12.646c-0.463-8.981 1.414-17.242 6.119-22.789 0.341 1.552 0.701 3.105 1.089 4.66 2.931-5.862 8.793-8.793 16.12-11.724 4.396-8.793 0-26.379 0-26.379-1.465-5.862-2.931-11.724-7.327-10.258zM103.518 415.56c0.015 0.364 0.020 0.722 0.036 1.085-0.015-0.364-0.026-0.722-0.036-1.085zM740.74 786.534c-1.884 2.103-3.701 3.757-5.255 5.12l5.255-5.12zM473.165 271.41c-167.604-69.835-295.273-77.105-317.036-24.349-0.995 1.299-1.158 2.741-2.437 5.298l-8.793 17.586c33.706-43.964 153.875-35.171 310.681 33.706 118.703 49.826 231.545 121.634 307.75 189.046 13.189 5.862 17.586-4.396 20.517-10.258 2.931-10.258 0-17.586-2.931-21.982-76.205-68.877-189.046-139.22-307.75-189.046zM341.272 152.707c-63.015-10.258-106.98-5.862-128.962 17.586-6.588 7.905-15.527 18.162-22.593 26.546 20.36-22.564 66.203-27.619 131.039-17.753 13.189 0 21.982-11.724 23.448-14.655s2.931-10.258-2.931-11.724zM192.517 194.482c-1.75 1.743-3.487 3.475-5.12 5.12 1.608-1.764 3.333-3.46 5.12-5.12zM252.307 129.736c-2.722 1.95-5.352 3.784-7.756 5.386 2.336-1.964 4.927-3.757 7.756-5.386zM408.326 107.632c-62.599-13.26-110.007-11.427-134.466 5.507-6.389 5.325-14.318 11.411-21.554 16.596 31.457-18.116 92.88-15.64 173.287 6.892 0.713 0.971 1.426 1.936 2.141 2.89-0.72-0.962-1.414-1.922-2.114-2.883 25.748 7.217 53.435 16.483 82.716 27.797 19.051 5.862 26.379-7.327 26.379-7.327 1.465-1.465 1.465-8.793-8.793-13.189-42.929-16.754-82.488-28.828-117.348-36.229-0.469-1.112-0.938-2.226-1.355-3.338 0.304 1.062 0.685 2.165 1.108 3.285zM920.49 409.165l4.599 7.327c-1.222-2.805-2.97-5.648-5.12-8.517 0.175 0.395 0.346 0.798 0.521 1.189zM400.064 80.533c178.767 17.692 489.814 201.49 519.904 327.444-1.408-9.969-2.765-21.128-2.765-29.587 0-1.465 0-2.931-1.465-5.862-21.982-74.739-168.53-190.512-329.732-259.389-73.228-31.529-136.557-46.809-182.673-47.827 0.689-1.697 1.474-3.352 2.42-4.93-1.348 1.687-2.455 3.295-3.357 4.917-19.914-0.359-36.598 1.951-49.4 6.807-10.258 5.862-24.913 10.258-33.706 16.12 20.997-8.659 48.488-10.822 80.157-7.752 0.084 1.499 0.227 3.090 0.444 4.821 0-1.591 0.068-3.179 0.173-4.762zM605.058 94.088c-90.859-38.102-165.599-51.292-205.166-39.568 10.258-2.931 26.379-7.327 38.102-8.793 111.376-17.586 392.747 121.634 452.831 246.2 4.634 8.109 8.35 18.962 11.877 28.947-27.716-67.426-156.559-166.119-297.645-226.786zM902.702 320.873c1.979 2.61 3.71 5.178 5.12 7.69-1.698-2.455-3.396-5.044-5.12-7.69zM801.431 170.293c1.465 0 1.465-2.931-1.465-4.396 0-1.465-2.931-7.327-10.258-11.724-38.102-30.775-90.859-63.015-143.616-84.997-45.43-19.051-84.997-29.309-114.307-30.775h-31.95c34.155 1.253 79.684 12.97 134.533 35.171 60.084 26.379 120.169 60.084 162.668 96.721 1.465 0 1.465 1.465 2.931 1.465 0 0 0-1.465 1.465-1.465zM499.834 38.4h-12.014c3.828-0.584 7.841-0.563 12.014 0zM175.674 648.037c-7.327-13.189-13.189-21.982-17.586-32.24-5.862 7.327-5.862 13.189-5.862 20.517 0 1.465 0 2.931 1.465 7.327l2.339 3.509c0.554 1.883 1.304 3.777 2.057 5.284 1.465 5.862 4.396 10.258 8.793 14.655-0.377-1.132-0.953-2.363-1.644-3.64 0.574 0.698 1.135 1.411 1.644 2.174 0.482 1.923 1.136 3.837 1.932 5.657-1.224-1.675-2.396-3.191-3.397-4.191 2.931 4.396 5.862 10.258 10.258 13.189 0.621 0.776 1.203 1.532 1.767 2.279 1.004 1.532 2.027 3.033 3.079 4.469 2.73 4.744 5.813 9.107 9.809 13.768l-2.765-4.607c1.255 1.486 2.634 3.011 4.23 4.607l-5.862-7.327c-1.135-1.135-2.232-2.385-3.301-3.703-0.927-1.295-1.838-2.597-2.784-3.923-2.99-5.379-5.593-11.308-8.57-18.752-0.145-0.241-0.317-0.497-0.468-0.743-0.907-8.353-0.272-14.457 4.864-18.309zM129.151 544.951c-0.142-0.804-0.269-1.611-0.373-2.427-5.862 7.327-7.327 16.12-5.862 26.379 0 2.931 0 5.862 1.465 8.793 2.931 10.258 7.327 19.051 11.724 29.309-2.931-11.724-1.465-21.982 2.931-30.775-2.364-9.46-6.635-17.965-8.966-27.057 2.826 7.905 6.44 16.745 8.966 25.591 20.517-29.309 101.118-21.982 203.701 20.517 128.962 57.153 249.131 150.944 265.251 209.563 5.862 21.982-1.465 36.637-20.517 43.964 2.931 1.465 2.931 1.465 13.189-1.465 7.327-1.465 11.724-2.931 16.12-2.931 21.982-8.793 30.775-24.913 24.913-48.361-17.586-65.946-148.013-168.53-290.164-228.614-112.268-46.658-198.415-55.592-222.379-22.486zM116.221 355.684c-1.766 1.81-3.456 3.536-5.028 5.12 1.577-1.816 3.185-3.492 5.028-5.12zM137.571 620.193c0-5.862-1.465-8.793-2.931-13.189-4.396-10.258-7.327-20.517-11.724-30.775 0 1.465 1.465 5.862 1.465 7.327 2.931 10.258 10.258 26.379 13.189 36.637z" />
<glyph unicode="&#xe927;" glyph-name="fantom-coin-fcn" d="M512 126.505c-36.343 0-71.145 6.344-103.744 17.511 5.308 6.872 8.546 10.44 12.467 15.881 114.162 139.999 332.222 204.448 357.244 405.459-24.581-14.449-64.713-38.083-64.713-38.083s-27.070-33.436-43.59-55.11c-54.163-71.079-146.695-104.162-235.24-109.669-1.762 78.391 51.541 145.571 121.365 176.21 66.519 35.264 152.223 59.229 204.007 113.876 46.013-55.616 73.7-126.937 73.7-204.58 0-177.267-144.228-321.495-321.495-321.495zM190.505 448c0 177.267 144.228 321.495 321.495 321.495 56.894 0 110.285-15.022 156.695-41.057-126.298-51.674-287.222-72.753-352.332-208.258-58.986-102.4 4.119-216.055-2.401-324.931-74.999 58.92-123.457 150.197-123.457 252.751zM512 857.6c-226.21 0-409.6-183.39-409.6-409.6s183.39-409.6 409.6-409.6c226.21 0 409.6 183.39 409.6 409.6s-183.39 409.6-409.6 409.6z" />
<glyph unicode="&#xe928;" glyph-name="first-blood-1-st" d="M609.573 857.6h3.511c13.821-1.282 25.078-13.096 23.963-27.307 0.446-253.005 0-506.009 0.223-758.958 2.006-15.269-6.966-30.985-23.016-32.935h-3.455c-8.694 1.672-16.050 6.52-21.957 12.985-43.468 43.969-87.158 87.771-130.682 131.685-8.972 8.694-15.492 20.341-15.214 33.102-0.724 67.264 0.111 134.583-0.334 201.846 1.449 13.709-7.802 28.867-22.514 29.369-55.115 1.839-110.341-0.502-165.456 1.003-12.149-0.279-20.396 9.697-24.242 20.173v5.963c2.452 14.991 15.492 24.13 25.189 34.496 106.552 107.165 212.992 214.385 319.432 321.661 10.533 9.975 19.728 23.183 34.551 26.917z" />
<glyph unicode="&#xe929;" glyph-name="fun-fair-fun" d="M509.133 681.677c-140.698 0-261.734-129.024-227.123-290.816 0.614-2.253 1.024-4.506 1.638-6.758 0.41-1.434 1.024-3.482 2.662-1.843l153.805 120.627c1.434 0.819 2.458 0.614 3.686-0.41 1.843-1.843 104.243-132.71 104.243-132.71 1.434-1.843 3.277-3.686 0.819-5.53l-154.010-119.398c-2.662-1.638 0.41-4.096 1.638-5.734l155.238-198.451c0 0 0.205-0.205 0.205-0.205-13.722-1.434-27.443-2.048-41.37-2.048-225.485 0-408.166 182.682-408.166 408.166 0 183.091 120.422 337.92 286.515 389.53 0.205-0.205 0.41-0.614 0.614-0.819l118.784-152.166c0.205-0.41 0.614-1.024 0.819-1.434zM513.434 857.6c225.485 0 408.166-182.682 408.166-407.962 0-183.091-120.627-337.92-286.515-389.734-0.205 0.205-0.41 0.614-0.614 0.819l-118.784 152.166c-0.205 0.41-0.614 1.024-0.819 1.434 140.698 0 261.53 129.229 226.918 291.021-0.614 2.253-1.024 4.506-1.638 6.758-0.41 1.024-0.819 2.458-1.638 2.458-0.205 0-0.614-0.205-1.024-0.614l-153.805-120.627c-0.614-0.41-1.024-0.614-1.638-0.614s-1.229 0.205-1.843 0.819c-1.843 1.843-104.243 132.71-104.243 132.71-1.434 1.843-3.277 3.686-0.819 5.53l154.010 119.398c2.662 1.638-0.41 4.096-1.638 5.734l-155.238 198.451c0 0-0.205 0.205-0.205 0.205 13.722 1.434 27.443 2.048 41.37 2.048zM542.72 821.555l111.616-142.541c8.397-9.626 11.674-20.275 10.035-31.539-1.434-9.626-6.758-18.432-14.746-24.166l-128-99.123c22.528-28.877 48.333-61.85 65.536-83.558l128 100.352c6.554 5.325 14.746 8.397 23.142 8.397 14.131 0 30.515-9.011 35.43-29.082 0.614-2.458 1.229-4.915 1.843-7.373 0.205 0 0.205-0.205 0.205-0.41 9.421-43.622 9.216-86.63-0.819-127.795-9.421-38.912-26.829-74.342-52.019-105.472-24.781-30.72-56.525-55.91-91.955-73.114-16.384-7.987-33.792-14.131-51.405-18.637l67.789-86.63c29.082 11.059 56.73 26.010 82.33 44.237 31.744 22.528 59.597 49.971 82.944 81.101 48.538 64.922 74.138 142.131 74.138 223.232 0 99.738-38.912 193.536-109.363 263.987-63.693 63.488-146.022 101.171-234.701 108.134z" />
<glyph unicode="&#xe92a;" glyph-name="game-credits-game" d="M817.506 142.709h-75.521v108.688c-55.856-65.261-138.739-106.747-231.176-106.747-167.802 0-304.317 136.518-304.317 304.32s136.515 304.32 304.317 304.32c150.698 0 276.094-110.128 300.104-254.115h-76.922c-22.956 102.084-114.274 178.594-223.183 178.594-126.158 0-228.796-102.638-228.796-228.799 0-126.158 102.638-228.799 228.796-228.799 84.432 0 158.275 46.009 197.922 114.23h-158.442v75.521h267.218v-267.214zM511.997 857.6c-226.213 0-409.597-183.383-409.597-409.601s183.383-409.599 409.597-409.599h409.599v409.599c0 226.219-183.384 409.601-409.599 409.601z" />
<glyph unicode="&#xe92b;" glyph-name="gnosis-gno" d="M853.363 640.471c37.683-62.3 57.549-133.53 57.549-206.152-0.655-218.522-178.094-395.919-396.575-395.919h-0.696c-218.481 0-396.575 178.79-395.878 397.271 0 73.277 20.521 144.507 58.204 206.152l6.84 11.633 36.291-36.291c-6.84-10.24-13.025-21.217-17.121-33.546-28.754-78.766 12.329-165.765 91.791-194.519 47.268-16.425 97.28-8.888 136.315 17.121l84.255-84.951 96.584 96.584c8.929-6.185 19.169-10.977 30.147-15.073 77.414-27.402 162.324 13.025 189.727 89.743 16.425 45.179 8.888 92.447-15.073 130.13l30.147 30.147 7.496-12.329zM838.986 703.508l-323.297-321.946-327.393 328.786 13.025 13.681c80.814 85.606 191.078 133.571 309.576 133.571h0.696c119.849 0 234.947-51.364 315.064-140.411l12.329-13.681zM511.592 819.261c-102.072 0-197.263-38.38-269.844-108.913l273.981-274.678 270.541 269.189c-72.622 72.581-171.254 114.401-273.981 114.401h-0.696zM705.456 452.833c-17.121 0-32.195 4.792-45.22 13.681l112.353 112.353c8.888-13.025 13.681-28.795 13.681-45.22 0-44.524-36.291-80.814-80.814-80.814zM328.051 442.511c-44.524 0-80.814 36.291-80.814 80.814 0 18.473 6.144 35.635 16.425 49.316l113.705-113.009c-13.681-10.936-30.802-17.121-49.316-17.121z" />
<glyph unicode="&#xe92c;" glyph-name="golem-gnt" d="M503.957 515.241c-39.333-0.063-77.066 15.571-104.828 43.435-27.704 28.26-43.435 65.152-43.435 104.828-0.037 39.328 15.593 77.051 43.435 104.828 27.703 28.261 65.152 43.435 104.828 43.435 39.333 0.063 77.066-15.571 104.828-43.435 28.261-27.704 43.435-65.152 43.435-104.828 0.063-39.333-15.571-77.066-43.435-104.828-27.704-28.4-65.013-43.435-104.828-43.435zM608.786 273.565c27.704-28.261 43.435-65.152 43.435-104.828 0.063-39.334-15.571-77.067-43.435-104.828-27.704-28.261-65.152-43.435-104.828-43.435-39.333-0.063-77.066 15.571-104.828 43.435-27.704 28.26-43.435 65.152-43.435 104.828-0.063 39.333 15.571 77.066 43.435 104.828 27.703 28.26 65.152 43.435 104.828 43.435 39.815-0.139 77.125-15.174 104.828-43.435zM632.313 535.705c34.386 34.386 53.041 79.631 53.041 128.356-0.003 42.536-14.93 83.723-42.182 116.383l105.525 105.525-23.527 22.831-105.525-105.525c-32.576 27.147-72.948 42.182-115.687 42.182-100.252-0.069-181.466-81.394-181.397-181.645 0.033-48.038 19.107-94.105 53.042-128.106 30.070-30.070 69.329-48.864 111.511-52.484v-133.785c-42.275-3.506-81.867-22.141-111.511-52.484-70.721-70.958-70.721-185.753 0-256.711 34.386-34.386 79.631-53.040 128.356-53.040 48.147-0.145 94.356 18.95 128.356 53.040 34.386 34.386 53.041 79.631 53.041 128.356s-18.655 93.969-53.041 128.356c-30.070 30.070-69.329 48.864-111.511 52.484v133.785c42.282 3.477 81.884 22.116 111.511 52.484z" />
<glyph unicode="&#xe92d;" glyph-name="golos-gold-gbg" d="M320.374 115.156c56.397-32.539 121.837-51.156 191.626-51.156 124.343 0 234.882 59.1 305.061 150.742-2.919 17.076-14.033 64.086-48.935 73.605-56.457 15.574-130.045-47.112-226.994-106.294-89.551-54.576-131.679-74.628-220.758-66.897zM225.101 192.759c-1.286 4.941-1.684 7.984-1.684 7.984s17.91-14.796 46.723-20.636c10.513-2.336 21.415-3.894 32.706-3.894 73.978 0 126.151 106.294 126.151 180.661-0.389 0.389-0.389 1.168-0.779 1.557-5.062 0.389-56.457 4.672-123.426 40.882-20.636 11.291-36.599 24.529-48.28 37.768-26.476 29.591-33.095 58.014-33.874 60.35 45.555-34.653 102.401-35.042 164.308-35.042 149.123 0 241.79 100.454 241.79 249.966 0 14.406-1.168 28.812-3.504 42.829 28.034-24.919 64.633-58.403 65.412-161.583 1.557-140.947-69.695-236.339-69.695-236.339s92.277 45.944 158.468 22.193c66.19-23.751 59.182-95.392 55.289-120.311-1.892-11.542-5.899-23.819-9.518-33.391 44.592 62.726 70.812 139.424 70.812 222.246 0 212.077-171.923 384-384 384s-384-171.923-384-384c0-97.984 36.699-187.396 97.101-255.241zM512 38.4c-226.216 0-409.6 183.384-409.6 409.6s183.384 409.6 409.6 409.6c226.216 0 409.6-183.384 409.6-409.6s-183.384-409.6-409.6-409.6zM497.913 525.465c-66.969-35.431-205.969-23.361-205.969-23.361l69.305 46.333c-27.644 24.529-45.165 60.35-45.165 100.454 0 73.588 59.182 133.549 131.992 133.549 72.42 0 131.602-59.961 131.213-133.549 0-55.678-33.485-103.569-81.375-123.426z" />
<glyph unicode="&#xe92e;" glyph-name="golos-golos" d="M835.507 364.052c81.066-29.088 72.482-116.83 67.714-147.349-4.769-29.088-20.505-61.992-20.505-61.992s-8.583 83.45-61.038 97.756c-69.144 19.074-159.27-57.7-278.008-130.182-111.108-67.714-162.608-92.034-274.67-81.543-102.048 9.537-114.446 104.432-114.446 104.432s21.935-18.121 57.223-25.273c12.875-2.861 26.227-4.769 40.056-4.769 90.603 0 154.502 130.182 154.502 221.262-0.477 0.477-0.477 1.431-0.954 1.907-6.199 0.477-69.144 5.722-151.164 50.070-25.273 13.829-44.825 30.042-59.13 46.255-32.426 36.241-40.533 71.052-41.487 73.913 55.792-42.44 125.414-42.917 201.234-42.917 182.637 0 296.129 123.029 296.129 306.143 0 17.644-1.431 35.287-4.292 52.454 34.334-30.519 79.158-71.529 80.112-197.896 1.907-172.623-85.358-289.453-85.358-289.453s113.015 56.269 194.081 27.181zM490.738 542.874c-82.020-43.394-252.258-28.611-252.258-28.611l84.881 56.746c-33.857 30.042-55.316 73.913-55.316 123.029 0 90.126 72.482 163.562 161.655 163.562 88.696 0 161.178-73.436 160.701-163.562 0-68.191-41.010-126.844-99.663-151.164z" />
<glyph unicode="&#xe92f;" glyph-name="gulden-nlg" d="M512 138.881c-170.72 0-309.116 138.396-309.116 309.116s138.396 309.112 309.116 309.112c85.749 0 163.332-34.917 219.328-91.303l-48.261-46.883c-43.762 43.809-104.249 70.915-171.071 70.915-133.568 0-241.842-108.281-241.842-241.842 0-133.572 108.277-241.845 241.842-241.845 122.362 0 223.49 90.887 239.589 208.834h-239.589v66.417h307.315c1.175-10.971 1.797-22.116 1.797-33.406 0.007-170.716-138.392-309.116-309.108-309.116zM512 857.6c-226.216 0-409.6-183.384-409.6-409.6s183.384-409.6 409.6-409.6c226.213 0 409.6 183.387 409.6 409.6 0 226.216-183.387 409.6-409.6 409.6z" />
<glyph unicode="&#xe930;" glyph-name="humaniq-hmq" d="M204.8 857.6h614.4c56.554 0 102.4-45.846 102.4-102.4v-614.4c0-56.554-45.846-102.4-102.4-102.4h-614.4c-56.554 0-102.4 45.846-102.4 102.4v614.4c0 56.554 45.846 102.4 102.4 102.4zM760.256 357.559c0 165.335-97.766 262.802-243.069 262.802-73.25 0-121.684-29.599-169.521-78.033v212.872h-75.94v-614.4h76.239v237.688c0 91.188 73.25 166.232 169.521 166.232 104.343 0 166.83-85.508 166.83-189.851v-213.769h76.239l-0.299 216.46z" />
<glyph unicode="&#xe931;" glyph-name="i-exec-rlc" d="M723.671 369.119c-12.817 0-24.708 3.303-35.146 9.117-27.219 15.988-45.717 1.057-46.377-29.068 0-40.167-32.636-72.935-72.935-72.935-13.081 0-25.369 3.435-35.939 9.513-25.105 13.213-43.603 1.718-45.717-32.768-1.718-38.714-33.693-69.5-72.803-69.5-40.299 0-72.935 32.636-72.935 72.935s32.636 72.935 72.935 72.935c12.949 0 25.237-3.435 35.807-9.513 25.369-12.684 45.717 1.718 45.717 29.333 0 40.299 32.636 72.935 72.935 72.935 12.552 0 24.444-3.171 34.75-8.721 25.897-14.006 46.377 0.264 46.774 28.672 0 40.299 32.636 72.935 72.935 72.935s72.935-32.636 72.935-72.935c0-40.299-32.636-72.935-72.935-72.935zM351.067 679.886c0 6.21 5.021 11.099 11.231 11.099 4.096 0 7.663-2.114 9.513-5.417l31.447 12.949c-0.264 0.925-0.396 1.982-0.396 2.907 0 6.078 4.889 11.099 11.099 11.099 6.078 0 11.099-5.021 11.099-11.099 0-0.925-0.132-1.85-0.396-2.775l30.918-12.684c1.982 3.303 5.549 5.417 9.645 5.417 6.21 0 11.099-4.889 11.099-11.099 0-4.096-2.114-7.663-5.417-9.513l13.081-31.579c0.925 0.264 1.85 0.396 2.907 0.396 6.078 0 11.099-4.889 11.099-11.099 0-6.078-5.021-11.099-11.099-11.099-1.057 0-1.982 0.132-2.907 0.396l-13.345-32.107c3.171-1.85 5.285-5.417 5.285-9.513 0-6.078-5.021-11.099-11.099-11.099-3.435 0-6.474 1.586-8.588 4.096-11.892-8.588-26.558-13.609-42.281-13.609-40.299 0-72.935 32.636-72.935 72.935 0 16.12 5.153 30.918 14.006 42.942-2.378 2.114-3.964 5.153-3.964 8.456zM569.608 608.14c40.167 0 72.935-32.636 72.935-72.803 0-40.299-32.768-72.935-72.935-72.935-13.345 0-25.237 4.492-36.468 9.645-26.822 11.627-45.188 1.057-45.188-29.597 0-40.299-32.636-72.935-72.935-72.935-40.167 0-72.803 32.636-72.803 72.935s32.636 72.935 72.803 72.935c15.063 0 29.068-4.625 40.696-12.42 20.876-12.684 40.696-0.396 40.96 32.372 0.264 40.167 32.636 72.803 72.935 72.803zM512 857.6c-226.216 0-409.6-183.384-409.6-409.6s183.384-409.6 409.6-409.6c226.216 0 409.6 183.384 409.6 409.6s-183.384 409.6-409.6 409.6z" />
<glyph unicode="&#xe932;" glyph-name="iota-miota" d="M375.079 764.943c8.833 2.748 18.925 0.937 26.231-4.763 8.166-6.137 12.57-16.742 11.324-26.872-0.989-9.783-7.395-18.732-16.242-22.982-11.299-5.624-26.115-3.107-34.627 6.33-6.753 7.177-9.398 17.821-6.908 27.348 2.516 9.848 10.541 17.988 20.222 20.941zM455.877 757.483c15.035 3.544 30.493-10.015 29.517-25.28 0.359-14.637-14.213-26.783-28.529-24.523-15.227 1.541-25.987 18.938-20.568 33.266 2.927 8.5 10.785 14.919 19.58 16.537zM286.63 754.364c17.705 4.622 37.375-7.665 41.163-25.524 4.763-18.090-8.025-38.364-26.526-41.535-18.45-4.43-38.466 9.385-40.944 28.156-3.133 17.269 9.18 35.321 26.308 38.903zM517.479 735.49c9.283 2.76 20.26-1.502 24.664-10.259 5.431-9.552 2.093-22.918-7.306-28.657-11.003-7.588-28.028-2.029-32.111 10.785-4.661 11.401 2.671 25.55 14.752 28.131zM566.422 705.664c8.512 2.555 18.681-1.451 22.186-9.835 4.802-9.527-0.539-22.417-10.785-25.537-9.591-3.634-21.352 2.298-24.061 12.197-3.107 9.514 2.85 20.787 12.659 23.175zM390.499 676.16c7.498 1.862 15.779 0.847 22.404-3.223 8.756-5.187 14.47-15.227 14.072-25.46 0.128-8.885-4.198-17.654-11.273-23.046-8.898-7.151-22.019-8.089-32.008-2.671-10.811 5.585-17.179 18.411-15.15 30.403 1.823 11.363 10.862 21.056 21.955 23.997zM600.973 671.319c8.654 3.313 19.657-1.81 21.506-11.17 2.915-10.053-6.253-21.005-16.678-19.785-9.257 0.141-16.575 9.578-14.765 18.591 0.719 5.508 4.725 10.464 9.938 12.364zM470.205 668.456c8.025 1.643 16.755-1.143 22.353-7.113 8.14-7.973 9.475-21.698 3.223-31.186-5.341-8.666-16.242-13.25-26.192-11.196-11.517 1.964-20.645 13.006-20.273 24.703-0.578 12.030 9.308 22.802 20.889 24.793zM298.031 664.669c11.234 3.428 24.163 1.040 33.048-6.792 13.147-10.965 15.664-31.995 5.572-45.81-10.207-15.33-33.343-19.13-48.083-8.204-13.558 9.129-18.373 28.477-11.016 43.011 4.019 8.384 11.568 15.073 20.479 17.795zM531.808 646.552c11.363 3.402 24.42-4.16 26.641-15.895 2.979-11.928-5.855-25.203-18.219-26.397-12.403-2.080-25.024 8.666-24.472 21.339-0.655 9.719 6.766 18.694 16.049 20.954zM205.704 630.067c17.461 2.414 35.693-8.191 42.061-24.664 6.034-14.187 2.722-31.584-7.87-42.729-12.968-14.097-36.335-16.832-52.025-5.713-14.945 9.925-21.454 30.403-14.971 47.146 4.943 13.905 18.142 24.317 32.804 25.961zM579.12 616.098c10.271 4.301 23.444-2.439 25.139-13.648 2.375-10.425-5.79-21.57-16.537-22.096-9.95-1.31-19.901 6.856-20.247 16.935-0.886 7.947 4.019 16.177 11.645 18.809zM428.978 577.477c7.986 2.568 17.038 1.361 24.138-3.069 7.973-4.853 13.301-13.751 13.879-23.059 0.719-9.848-3.98-19.875-11.953-25.678-7.588-5.624-17.911-7.216-26.86-4.211-12.403 3.942-21.146 16.896-19.914 29.903 0.526 11.915 9.591 22.43 20.71 26.115zM508.582 569.838c12.030 3.261 25.396-3.916 29.479-15.625 3.402-9.167 1.091-20.235-6.086-26.962-8.371-8.358-22.777-9.411-32.329-2.504-9.283 6.381-13.032 19.362-8.872 29.761 2.94 7.639 9.938 13.353 17.808 15.33zM570.235 547.781c8.41 2.953 18.591 0.424 24.022-6.805 7.318-8.846 5.893-23.329-3.287-30.339-10.027-8.692-27.322-5.071-33.022 6.92-6.086 11.132-0.103 26.744 12.287 30.224zM340.452 567.052c10.759 2.504 22.648-0.295 30.878-7.742 13.956-11.915 15.369-35.321 2.709-48.673-11.722-13.905-34.82-15.279-48.173-2.992-11.478 9.604-14.958 27.039-8.564 40.469 4.275 9.411 13.057 16.64 23.149 18.938zM244.029 531.5c20.479 3.595 42.215-11.055 45.875-31.662 4.519-19.991-8.885-41.843-28.824-46.735-18.732-5.547-40.379 4.905-47.608 23.059-7.986 17.744-0.668 40.649 16.344 50.201 4.378 2.555 9.206 4.327 14.213 5.136zM133.291 462.451c18.771 6.972 41.445 0.231 53.373-15.831 13.905-17.615 12.261-45.079-3.467-61.038-14.662-15.831-40.533-19.092-58.688-7.421-12.326 7.498-20.723 20.954-22.109 35.308v9.475c1.643 17.68 14.097 33.703 30.891 39.506zM884.848 425.948c-2.050-9.021-8.677-16.845-17.271-20.308-9.403-3.989-20.788-2.483-28.929 3.673-7.969 5.76-12.5 15.79-11.743 25.574 0.799 12.595 10.404 24.153 22.836 26.789 9.596 2.246 20.132-0.802 27.125-7.733 7.261-7.114 10.28-18.139 7.982-27.996zM837.888 359.777c-4.471-14.786-23.953-21.364-36.671-12.866-12.846 7.027-16.049 25.725-6.916 36.978 8.966 12.403 29.413 12.991 39.094 1.12 5.887-6.793 7.503-16.81 4.494-25.232zM920.036 507.784c-4.876-17.637-25.369-28.497-42.721-22.82-18.040 4.948-29.172 26.175-22.641 43.774 5.417 18.184 27.405 28.579 44.89 21.312 16.513-5.946 25.958-25.65 20.472-42.265zM787.975 317.501c-2.265-9.415-11.456-16.777-21.241-16.198-10.988 0.090-20.879 9.678-21.133 20.688-1.049 13.325 12.296 25.269 25.429 22.377 12.202-1.683 20.769-15.119 16.945-26.867zM737.632 290.105c-2.057-8.646-10.621-15.437-19.632-14.266-10.65 0.62-19.125 11.704-16.69 22.134 1.665 10.12 12.693 17.323 22.616 14.705 9.79-2.083 16.557-12.888 13.706-22.573zM800.297 457.115c-2.148-7.421-7.177-14.078-14.020-17.771-8.878-4.975-20.43-4.885-29.085 0.588-7.751 4.344-13.17 12.484-14.289 21.308-1.728 11.283 4.039 23.107 13.735 29.035 10.252 6.554 24.542 5.634 33.902-2.133 8.917-7.275 12.774-19.955 9.757-31.027zM690.594 277.428c-1.471-9.148-11.42-16.102-20.446-13.009-10.16 2.519-15.040 15.941-8.758 24.35 4.762 7.94 16.596 9.541 23.488 3.455 4.405-3.382 6.685-9.333 5.716-14.796zM753.673 392.011c-2.601-7.768-9.388-13.925-17.36-15.776-10.98-3.047-23.525 2.68-28.601 12.846-4.821 8.967-3.323 20.696 3.443 28.276 7.474 8.98 21.603 11.343 31.537 5.158 10.699-5.531 15.064-19.485 10.98-30.503zM836.71 542.885c-2.665-11.44-11.214-21.429-22.444-25.191-16.079-5.879-35.538 2.487-42.432 18.144-8.146 16.518 0.163 38.442 17.007 45.718 14.696 7.154 33.851 1.62 42.739-12.032 5.238-7.679 7.243-17.565 5.131-26.64zM703.838 349.689c-2.753-11.537-15.842-19.044-27.11-15.084-11.813 3.402-18.871 17.701-13.707 28.997 4.419 11.775 20.045 17.307 30.733 10.478 8.737-4.306 12.783-15.227 10.084-24.392zM853.056 640.118c-6.665-16.319-24.981-26.776-42.427-24.029-15.301 1.89-28.693 13.479-33.026 28.23-5.697 18.288 3.651 39.879 21.138 47.88 16.079 7.955 37.062 3.322 48.297-10.682 9.554-11.247 11.947-27.888 6.018-41.399zM653.768 324.020c-1.428-11.044-13.864-19.062-24.412-14.91-10.211 3.171-15.76 15.823-10.829 25.386 3.856 9.266 15.909 13.783 24.804 9.030 7.321-3.218 11.983-11.587 10.437-19.505zM695.621 473.292c-1.782-8.198-7.363-15.424-14.756-19.347-8.197-4.465-18.567-4.616-26.91-0.448-8.882 4.314-15.202 13.407-16.226 23.216-1.062 9.384 2.736 19.114 9.821 25.351 9.629 8.756 25.221 9.826 35.857 2.239 10.045-6.429 14.599-19.543 12.214-31.011zM649.104 408.245c-3.21-12.044-16.12-20.011-28.299-17.674-9.637 1.652-18.055 9.201-20.278 18.784-3.035 11.433 3.275 24.425 14.041 29.227 10.175 4.834 23.287 1.57 30.199-7.243 5.136-6.375 6.571-15.293 4.337-23.094zM599.11 365.956c-1.661-8.756-8.954-16.298-17.931-17.374-11.323-1.898-23.14 6.596-24.603 18.053-2.495 13.034 9.308 26.183 22.542 25.105 12.683-0.315 23.193-13.319 19.992-25.784zM730.98 555.117c-3.228-10.565-11.609-19.449-22.178-22.837-17.306-6.102-38.267 4.409-43.474 22.058-6.155 17.113 4.236 37.787 21.561 43.181 14.064 5.118 30.895-0.612 39.31-12.878 6-8.417 7.851-19.64 4.781-29.524zM748.557 656.371c-7.155-19.522-30.728-30.985-50.394-23.821-19.562 6.111-31.75 28.664-25.987 48.369 4.591 18.989 24.487 32.479 43.819 29.633 19.356-1.985 35.506-19.801 35.244-39.31 0.015-5.069-0.872-10.134-2.682-14.872zM744.327 786.804c-3.378-19.736-20.577-35.977-40.455-38.244-22.212-3.201-45.152 11.989-51.076 33.599-6.346 20.622 3.802 44.643 23.001 54.5 12.666 6.906 28.518 7.426 41.634 1.43l8.199-4.751c14.474-10.286 22.094-29.094 18.696-46.534zM336.887 154.957c-6.796 6.277-10.271 15.922-8.987 25.099 1.234 10.14 8.218 19.255 17.614 23.24 8.967 4.034 19.921 2.959 28.023-2.578 10.519-6.974 15.746-21.065 11.829-33.155-2.841-9.437-10.737-17.048-20.233-19.653-9.787-2.744-20.848 0.137-28.245 7.046zM302.959 228.664c-10.585 11.25-6.57 31.416 7.14 38.202 12.496 7.628 30.301 1.078 35.5-12.45 6.277-13.958-3.413-31.974-18.531-34.444-8.824-1.713-18.313 1.884-24.109 8.692zM390.264 83.639c-12.853 13.024-12.044 36.201 1.53 48.41 13.286 13.168 37.238 12.227 49.232-2.212 13.060-13.765 11.101-38.007-3.919-49.536-13.39-11.346-35.179-9.705-46.844 3.338zM291.213 293.012c-7.031 6.66-8.827 18.297-3.445 26.489 5.558 9.479 18.803 13.269 28.472 7.999 12.073-5.737 15.768-23.261 6.711-33.202-7.544-9.736-23.464-10.46-31.739-1.285zM292.579 350.31c-6.468 6.096-8.082 16.905-2.573 24.131 5.851 8.922 19.685 10.74 27.509 3.426 7.941-6.49 8.683-19.641 1.464-26.937-6.687-7.447-19.428-7.922-26.4-0.62zM406.073 212.693c-5.36 5.563-8.622 13.242-8.408 21.015 0.116 10.176 5.955 20.143 15.017 24.915 7.63 4.553 17.388 5.188 25.595 1.758 10.642-4.132 18.013-15.028 18.314-26.388 0.566-12.154-7.358-24.081-18.759-28.319-10.752-4.101-23.667-1.117-31.758 7.020zM305.054 397.402c-7.195 5.838-8.258 17.929-1.076 24.21 7.25 7.549 21.318 5.084 25.473-4.554 4.505-8.089-0.010-19.145-8.72-22.082-5.131-2.13-11.426-1.139-15.677 2.427zM372.902 285.576c-5.435 6.128-7.385 15.084-5.014 22.915 2.836 11.035 14.056 19.053 25.4 18.381 10.176-0.293 19.595-7.443 22.79-17.088 4.056-10.957-0.944-24.383-11.261-29.906-10.13-6.515-24.401-3.337-31.914 5.698zM462.249 138.351c-8.584 8.017-12.979 20.408-10.637 32.017 2.923 16.868 19.88 29.561 36.891 27.726 18.379-1.177 33.236-19.315 31.14-37.543-1.129-16.306-15.479-30.148-31.745-31.041-9.27-0.71-18.838 2.484-25.649 8.841zM361.078 349.879c-8.627 8.14-8.604 23.23 0.449 31.020 8.841 8.542 24.755 7.528 31.97-2.583 8.001-9.703 5.002-26.005-6.249-31.862-8.090-5.426-19.572-3.485-26.17 3.426zM538.37 75.684c-10.82 13.916-10.748 35.009 0.335 48.758 9.271 12.318 25.996 18.146 40.942 14.543 18.693-4.184 32.741-23.055 30.955-42.203-1.126-17.904-15.607-33.779-33.35-36.533-14.513-2.669-30.13 3.556-38.882 15.434zM363.804 406.080c-8.86 6.746-9.606 21.525-0.746 28.596 7.842 7.268 21.576 5.767 27.404-3.277 6.108-7.964 4.010-20.665-4.546-26.002-6.44-4.74-16.019-4.607-22.112 0.683zM472.306 295.349c-6.215 5.633-9.695 14.076-9.409 22.44 0.218 9.33 5.26 18.393 13.034 23.547 8.17 5.545 19.202 6.488 28.214 2.483 8.664-3.761 15.203-11.906 17.075-21.158 2.786-12.712-4.064-26.761-15.945-32.194-10.582-5.5-24.22-2.906-32.97 4.881zM439.13 368.112c-8.839 8.788-9.303 23.953-1.203 33.342 6.239 7.529 16.98 11.060 26.395 8.207 11.423-3.072 19.536-15.022 18.328-26.748-0.886-11.23-10.253-20.965-21.34-22.561-8.086-1.272-16.533 1.931-22.18 7.76zM427.415 432.536c-6.761 5.807-9.66 15.89-6.114 24.207 4.002 10.761 17.258 16.765 27.919 12.319 12.54-4.34 18.051-21.128 10.514-32.060-6.599-10.836-23.112-13.458-32.319-4.467zM525.588 223.888c-7.547 8.067-11.066 19.763-8.731 30.614 3.343 18.043 22.909 30.967 40.802 26.677 17.903-3.202 30.64-22.52 26.672-40.227-2.581-14.742-15.941-26.472-30.769-27.647-10.288-1.001-20.939 2.99-27.974 10.582zM604.58 158.149c-13.35 15.94-11.528 42.088 4.49 55.558 15.054 13.907 40.681 13.222 54.885-1.602 14.168-13.452 15.937-37.424 3.827-52.759-11.377-15.787-34.873-20.898-51.65-10.939-4.401 2.514-8.349 5.81-11.553 9.742zM719.739 96.756c-15.421 12.772-20.918 35.779-12.969 54.139 8.306 20.848 32.913 33.153 54.598 27.509 21.040-4.785 36.797-25.562 35.764-47.12-0.333-14.424-7.788-28.422-19.527-36.798l-8.207-4.736c-16.134-7.415-36.237-4.638-49.658 7.006z" />
<glyph unicode="&#xe933;" glyph-name="komodo-kmd" d="M764.531 437.174c6.128 11.305-1.012 23.17-4.724 33.911-22.718 52.862-43.64 106.457-66.526 159.208-60.455 24.462-120.515 49.88-180.748 74.962-61.184-25.306-122.652-49.883-183.387-76.144-22.046-57.421-47.183-113.658-70.184-170.678-5.905-10.967 1.124-22.272 4.836-32.621 22.383-52.859 44.034-106.059 65.912-159.148 60.567-25.363 121.19-50.443 181.811-75.695 60.681 24.914 121.305 50.109 181.983 75.020 23.396 57.192 47.858 113.935 71.028 171.184zM913.109 468.443c4.049-10.178 10.178-21.482 3.712-32.112-36.948-88.798-73.953-177.596-110.732-266.448-4.556-16.478-23.561-18.503-36.722-25.029-85.649-35.315-171.579-69.901-256.719-106.454-97.177 39.479-193.679 80.473-290.633 120.401-39.759 96.9-80.473 193.51-119.615 290.69 39.871 95.49 80.473 190.696 118.771 286.75 96.391 42.347 194.411 81.037 291.7 121.359 95.996-39.928 191.823-80.304 288.102-119.56 38.466-89.358 74.119-180.012 112.136-269.597zM512.929 600.092c-36.385-14.453-72.603-29.524-108.708-44.706-13.552-35.264-30.027-69.455-42.627-105.053 9.786-37.677 29.021-72.826 42.742-109.434 36.159-15.017 72.040-30.708 108.593-44.767 35.035 15.408 70.521 29.581 105.951 44.034 14.339 35.261 30.591 69.732 43.357 105.556-9.614 37.903-29.187 73.275-43.134 109.997-35.484 14.565-70.97 29.187-106.174 44.372z" />
<glyph unicode="&#xe934;" glyph-name="lbry-credits-lbc" d="M500.964 136.523l-446.944 220.901-2.82 4.54 2.4 154.569 468.128 289.613 4.865 0.254 424.466-204.845 2.863-4.561-2.413-49.586-450.536-274.113-335.846 164.71-2.833 4.675 0.643 25.363 7.299 4.415 329.031-164.619 422.047 256.384v15.48l-392.974 192.141-444.539-272.139v-120.486l415.468-208.153 420.162 257.717-9.965 1.715-4.139 5.807 2.571 15.733 5.844 4.176 54.902-9.307 4.154-5.793-8.992-56.192-5.817-4.198-15.729 2.571-4.185 5.792 2.177 13.717z" />
<glyph unicode="&#xe935;" glyph-name="lisk-lsk" d="M510.742 857.6h1.167c115.731-196.995 231.207-394.172 346.464-591.458-67.622-75.829-134.552-152.278-202.575-227.742-55.805 1.204-111.646 0.255-167.451 0 72.109 80.425 143.743 161.25 215.815 241.711-88.376 152.132-177.408 303.936-266.076 455.885 24.109 40.632 49.057 80.716 72.656 121.603zM362.042 38.764c-3.68 3.301-135.722 154.029-198.202 225.554 83.999 141.773 166.94 284.203 251.049 425.94 24.656-38.699 48.437-77.981 73.166-116.643-57.008-96.838-113.871-193.712-170.952-290.513 35.817-39.319 70.905-79.294 106.868-118.467 40.194 0.146 80.388 0.073 120.582 0.036-34.942-40.887-108.002-125.907-108.002-125.907h-74.509z" />
<glyph unicode="&#xe936;" glyph-name="litecoin-ltc" d="M766.18 89.6h-510.666l56.269 267.438-106.982-53.133 17.92 88.865 107.843 49.871 76.518 363.758h160.742l-59.082-279.247 90.299 45.642-17.92-90.245-91.267-44.764-46.144-222.746h350.963z" />
<glyph unicode="&#xe937;" glyph-name="lunyr-lun" d="M525.284 587.478c31.052 5.294 54.712 32.182 54.712 64.653 0 36.253-29.488 65.653-65.861 65.653-36.376 0-65.857-29.399-65.857-65.653 0-32.289 23.4-59.070 54.2-64.568v-90.007c-15.287-2.723-28.727-10.699-38.412-21.973l-286.478 164.605c-9.922 5.702-9.941 19.982-0.022 25.703l328.95 189.714c2.311 1.326 4.885 1.995 7.459 1.995 2.567 0 5.13-0.665 7.433-1.976l329.273-189.153c9.926-5.702 9.937-19.982 0.022-25.707l-286.452-165.225c-9.796 11.423-23.459 19.458-38.969 22.1v89.84zM463.415 391.117c9.74-11.698 23.496-19.886 39.132-22.664l-0.275-315.205c-0.004-11.419-12.419-18.556-22.334-12.827l-318.909 183.918c-4.603 2.652-7.437 7.552-7.43 12.85l0.319 367.298c0.007 8.663 7.133 14.852 14.911 14.852 2.478 0 5.030-0.632 7.43-2.017l276.875-159.69c-3.102-7.612-4.855-15.914-4.855-24.641 0-7.764 1.415-15.171 3.901-22.085l-78.019-44.742c-10.104 14.547-25.963 25.057-44.924 27.72-36.015 5.063-69.33-19.945-74.405-55.853-5.078-35.908 20.001-69.111 56.020-74.182 36.015-5.056 69.33 19.945 74.408 55.853 1.252 8.878 0.654 17.582-1.486 25.744l79.639 45.67zM873.965 604.488l0.316-367.298c0.004-5.297-2.831-10.197-7.437-12.85l-318.898-183.922c-9.922-5.725-22.334 1.412-22.341 12.827l-0.271 315.142c15.803 2.708 29.715 10.933 39.522 22.735l79.658-45.678c-2.132-8.158-2.738-16.862-1.482-25.74 5.074-35.908 38.389-60.912 74.405-55.853 36.019 5.067 61.098 38.274 56.024 74.182-5.078 35.904-38.393 60.912-74.408 55.849-18.961-2.664-34.827-13.169-44.916-27.72l-78.038 44.749c2.478 6.913 3.901 14.321 3.901 22.081 0 8.8-1.791 17.166-4.941 24.826l276.559 159.501c2.404 1.389 4.956 2.021 7.433 2.021 7.775 0 14.904-6.196 14.915-14.852z" />
<glyph unicode="&#xe938;" glyph-name="maid-safe-coin-maid" d="M559.6 817.652c161.554 96.449 271.669-12.061 271.669-12.061v-0.080l-477.991-268.86 189.135-109.291 0.080-111.25-412.872 244.919c75.997 45.361 297.67 177.642 429.98 256.622zM501.122 484.96l-89.334 51.388 419.477 235.979v-542.246c0-115.303-135.498-187.349-143.861-191.68v556.295l-186.283-109.736zM571.465 265.29l-0.228 226.731 87.223 51.797v-489.275c-101.428 59.776-446.813 263.986-501.559 305.754-59.949 45.687-54.942 166.626-53.995 182.92l468.559-277.927z" />
<glyph unicode="&#xe939;" glyph-name="matchpool-guppy-gup" d="M734.211 508.481c-26.903 41.294-52.556 83.422-79.876 124.715-42.962-34.62-88.844-65.903-137.437-92.389-1.46-1.043-3.128-1.668-5.005-1.877-1.877 0.209-3.545 0.834-5.005 1.877-48.593 26.486-94.475 57.769-137.437 92.389-27.321-41.294-52.973-83.422-79.876-124.715-15.85-25.444-33.994-50.053-44.005-78.416-15.642-37.748-21.69-79.042-20.021-119.919 2.711-56.101 22.732-110.951 56.101-155.998 29.823-39.625 69.866-71.534 115.33-91.555 36.080-15.642 75.497-23.984 114.913-24.192 39.417 0.209 78.833 8.551 114.913 24.192 45.465 20.021 85.507 51.93 115.33 91.555 33.369 45.048 53.39 99.897 56.101 155.998 1.668 40.877-4.38 82.17-20.021 119.919-10.011 28.363-28.155 52.973-44.005 78.416zM511.893 592.945c0.834 0 1.46 0.209 2.294 0.626 37.957 21.69 80.085 51.513 113.87 79.668-17.519 31.492-38.582 60.898-57.561 91.764-19.187 31.075-39.834 61.315-58.604 92.598-18.77-31.283-39.417-61.523-58.604-92.598-18.978-30.866-40.042-60.272-57.561-91.764 33.786-28.155 75.914-57.978 113.87-79.668 0.834-0.417 1.46-0.626 2.294-0.626z" />
<glyph unicode="&#xe93a;" glyph-name="melon-mln" d="M511.541 857.6c225.67 0 409.141-182.554 410.059-409.141-0.917-225.67-183.471-409.141-409.141-410.059-225.67 0-409.141 182.554-410.059 409.141 0 225.67 182.554 409.141 409.141 410.059zM512.459 55.83c217.414 0 392.629 175.215 392.629 392.629-0.917 216.496-176.133 391.712-392.629 392.629-216.496 0-392.629-175.215-392.629-392.629 0-216.496 175.215-392.629 392.629-392.629zM512.456 814.485c201.819 0 366.026-164.207 366.026-366.026s-164.207-366.026-366.026-366.026c-201.819 0-366.026 164.207-366.026 366.026s164.207 366.026 366.026 366.026zM711.522 275.079v11.926c-9.174 0.917-18.347 1.835-27.521 4.587-5.504 0.917-10.091 4.587-12.843 10.091-3.669 7.339-4.587 15.595-4.587 22.934v194.48c0 13.76 0.917 26.603 1.835 39.446 0 7.339 3.669 12.843 10.091 16.512 10.091 5.504 21.099 7.339 32.108 6.422l-0.917 11.008h-96.323l-98.157-240.348-99.992 240.348h-102.744v-11.926c9.174 0 18.347-1.835 27.521-4.587 8.256-2.752 16.512-8.256 22.017-14.678v-208.24c0.917-15.595-3.669-32.107-12.843-44.951-9.174-11.008-22.934-18.347-37.612-19.265v-11.926h113.752v11.926c-15.595 2.752-29.355 11.008-39.446 23.851-8.256 14.678-12.843 31.19-11.926 48.62v184.389l110.083-268.786h12.843l112.835 277.042v-219.248c0-9.174-0.917-19.265-1.835-28.438-0.917-6.421-5.504-11.008-11.008-13.76-10.091-4.587-20.182-6.421-31.19-5.504v-11.926h145.86zM400.539 541.113l88.984-216.496c2.752-5.504 4.587-11.926 5.504-18.347-0.917-5.504-2.752-11.008-5.504-15.595l-103.661 247.686c-4.587 10.091-10.091 20.182-16.512 29.355-6.422 6.422-13.76 11.926-22.017 14.678h9.174c10.091 0.917 19.265-2.752 26.603-10.091 7.339-9.174 13.76-20.182 17.43-31.19zM624.375 575.971c2.752 3.669 6.421 4.587 12.843 5.504-3.669-11.926-5.504-23.851-4.587-35.777v-217.414c0-10.091-0.917-20.182-3.669-30.273-2.752-5.504-9.174-8.256-19.265-8.256h-8.256c4.587 2.752 9.174 6.421 13.76 10.091 3.669 7.339 4.587 14.678 3.669 22.017v217.414c0 8.256 0 16.512 0.917 24.769 0 4.587 1.835 8.256 4.587 11.926zM364.763 319.113c1.835-6.421 3.669-11.926 8.256-17.43 2.752-4.587 7.339-9.174 12.843-11.926h-46.785c5.504 3.669 11.008 8.256 16.512 12.843 3.669 4.587 7.339 10.091 9.174 16.512z" />
<glyph unicode="&#xe93b;" glyph-name="metal-mtl" d="M112.64 38.4v818.174h59.542v-818.174h-59.542zM344.93 186.036v534.167h63.362v-534.167h-63.362zM607.035 321.382v257.34h59.949v-257.34h-59.949zM855.772 39.426v818.174h59.641v-818.174h-59.641z" />
<glyph unicode="&#xe93c;" glyph-name="monaco-mco" d="M868.816 653.316l-0.175-6.989c-0.175-115.142-0.175-230.109 0-345.076v-58.532l-6.29-3.669c-63.249-36.866-131.741-76.354-200.232-115.666-43.156-24.811-86.313-49.621-139.778-80.547l-0.874-0.524c0 0-0.349-0.175-0.874-0.349-2.796-1.747-5.591-3.494-10.483-3.494-1.223-0.175-2.621 0-3.844 0.349-1.223 0.175-2.621 0.699-3.844 1.223l-0.874 0.524c-57.658 33.197-104.309 60.279-150.96 87.361-61.852 35.818-123.529 71.636-190.622 110.075l-6.29 3.494v25.335c0 126.674-0.175 253.522 0 380.37l0.175 7.338 6.115 3.494c67.967 38.963 132.090 76.004 196.038 113.045 45.253 26.383 90.681 52.766 145.544 84.391l0.874 0.524c1.048 0.349 2.271 0.874 3.32 1.048 1.223 0.349 2.271 0.524 3.494 0.524 6.115 0.349 9.959-2.097 13.628-4.368 0.699-0.524 1.398-0.874 1.398-0.874l1.048-0.524c38.439-22.19 76.179-43.681 113.919-64.997 74.781-42.458 149.737-85.090 223.47-129.819l6.115-3.669zM843.656 301.251c-0.175 112.696-0.175 225.392 0 338.088-70.413 42.632-143.622 84.216-216.83 125.625-38.439 21.84-76.878 43.681-113.919 65.171-1.048 0.524-1.922 1.048-2.621 1.573-41.584-24.112-91.729-53.116-141.874-82.119-64.298-37.391-128.596-74.781-189.748-109.726-0.175-124.402-0.175-248.63 0-373.032v-10.658c58.532-33.721 121.607-70.238 184.507-106.755 52.242-30.227 104.309-60.454 146.767-84.915 39.662 22.889 89.633 51.718 139.778 80.547 63.249 36.168 126.324 72.51 193.942 111.997v44.205zM424.847 341.961c19.045-17.822 37.74-36.168 56.435-54.339 0.699-9.26 0.524-18.87 0-28.13-17.996-17.472-36.692-34.071-54.863-51.368-1.747-2.271-4.368-3.145-6.989-2.796h-45.777c-27.082 47.35-54.339 94.525-81.421 141.874-13.803 24.636-28.829 48.748-41.933 73.733 30.227 22.015 59.755 44.729 89.807 66.919l1.747-0.175c25.509-16.074 50.844-32.324 76.354-48.398 2.097-0.874 2.97-2.446 2.796-4.543v-85.963c-0.524-2.97 2.097-5.067 3.844-6.814zM676.097 535.029h-334.244c9.61 46.301 20.792 92.079 30.926 138.205h136.982c44.554 0 89.108 0 133.663 0.175 11.182-46.127 22.364-92.253 32.673-138.38zM575.632 351.396c-21.84-0.349-43.855 0.524-65.87-0.349-2.97-0.175-6.115-0.349-9.086-0.524-19.394 0.175-38.614-0.349-58.008 0.349-0.175 6.29 0.349 12.755 1.048 19.045 2.97 22.19 4.368 44.554 7.338 66.919-9.61 26.034-20.093 51.543-29.353 77.751 29.353-0.349 58.707 0.524 88.060-0.349 5.416-0.175 10.658-0.349 15.9-0.524 23.413 0.874 47 0.175 70.413 0.349-7.513-23.238-16.773-45.777-25.335-68.666-5.067-10.134-1.048-21.316-0.349-31.799 1.223-20.792 4.543-41.409 5.242-62.201zM600.792 438.408c25.335 16.599 50.844 32.848 76.004 49.621 30.227-22.19 60.279-44.904 90.331-67.792-41.409-71.112-81.945-142.573-122.48-214.035-16.074-0.349-32.149 0-48.223-0.175-19.219 17.822-38.788 35.294-57.658 53.465-0.175 9.26-1.922 18.87 0 27.956 19.394 19.569 39.837 38.264 59.406 57.658 0.874 28.305 0.349 56.785 0.349 85.090 0.349 2.796-0.349 6.465 2.271 8.212z" />
<glyph unicode="&#xe93d;" glyph-name="monero-xmr" d="M512 857.6c226.189 0 409.613-183.408 409.616-409.6 0-45.207-7.328-88.693-20.867-129.378h-122.504v344.629l-266.238-266.244-266.244 266.244v-344.633h-122.504c-13.53 40.686-20.858 84.171-20.858 129.378 0 226.186 183.42 409.603 409.6 409.603zM689.407 451.994v-216.854h172.588c-71.895-117.963-201.769-196.739-350.002-196.739s-278.094 78.775-349.999 196.739h172.591v216.851l177.411-177.404 177.411 177.407z" />
</font>
</defs>
</svg>
