<?xml version="1.0" encoding="UTF-8"?>
<svg width="20px" height="20px" viewBox="0 0 20 20" version="1.1" xmlns="http://www.w3.org/2000/svg" xmlns:xlink="http://www.w3.org/1999/xlink">
    <!-- Generator: sketchtool 49.3 (51167) - http://www.bohemiancoding.com/sketch -->
    <title>CC3CC997-9B22-4985-A628-DF21335F29EC</title>
    <desc>Created with sketchtool.</desc>
    <defs></defs>
    <g id="Symbols" stroke="none" stroke-width="1" fill="none" fill-rule="evenodd">
        <g id="language-flag/france">
            <g id="FRA--France">
                <path d="M6.66666667,0.569019026 L6.66666667,19.430981 C2.78269209,18.0581929 0,14.3540628 0,10 C0,5.64593725 2.78269209,1.94180705 6.66666667,0.569019026 Z" id="Combined-Shape" fill="#227FBB"></path>
                <path d="M13.3333333,0.569019026 L13.3333333,19.430981 C12.2907369,19.7994859 11.1687847,20 10,20 C8.83121526,20 7.70926308,19.7994859 6.66666667,19.430981 L6.66666667,0.569019026 C7.70926308,0.20051407 8.83121526,0 10,0 C11.1687847,0 12.2907369,0.20051407 13.3333333,0.569019026 Z" id="Combined-Shape" fill="#FFFFFF"></path>
                <path d="M13.3333333,19.430981 L13.3333333,0.569019026 C17.2173079,1.94180705 20,5.64593725 20,10 C20,14.3540628 17.2173079,18.0581929 13.3333333,19.430981 Z" id="Combined-Shape" fill="#E94B35"></path>
            </g>
        </g>
    </g>
</svg>