<?xml version="1.0" encoding="UTF-8"?>
<svg width="20px" height="20px" viewBox="0 0 20 20" version="1.1" xmlns="http://www.w3.org/2000/svg" xmlns:xlink="http://www.w3.org/1999/xlink">
    <!-- Generator: sketchtool 49.3 (51167) - http://www.bohemiancoding.com/sketch -->
    <title>6D995FC2-EB07-4DD9-B1CC-DABFE5908E90</title>
    <desc>Created with sketchtool.</desc>
    <defs></defs>
    <g id="Symbols" stroke="none" stroke-width="1" fill="none" fill-rule="evenodd">
        <g id="language-flag/india">
            <g id="IND--India">
                <path d="M0.569019026,13.3333333 L19.430981,13.3333333 C18.0581929,17.2173079 14.3540628,20 10,20 C5.64593725,20 1.94180705,17.2173079 0.569019026,13.3333333 Z" id="Combined-Shape" fill="#1AAF5D"></path>
                <path d="M0.569019026,6.66666667 L19.430981,6.66666667 C19.7994859,7.70926308 20,8.83121526 20,10 C20,11.1687847 19.7994859,12.2907369 19.430981,13.3333333 L0.569019026,13.3333333 C0.20051407,12.2907369 0,11.1687847 0,10 C0,8.83121526 0.20051407,7.70926308 0.569019026,6.66666667 Z" id="Combined-Shape" fill="#FFFFFF"></path>
                <path d="M19.430981,6.66666667 L0.569019026,6.66666667 C1.94180705,2.78269209 5.64593725,0 10,0 C14.3540628,0 18.0581929,2.78269209 19.430981,6.66666667 Z" id="Combined-Shape" fill="#E87E04"></path>
                <circle id="Oval-15" fill="#227FBB" cx="10" cy="10" r="2.91666667"></circle>
                <circle id="Oval-15" fill="#FFFFFF" cx="10" cy="10" r="2.5"></circle>
                <circle id="Oval-15" fill="#227FBB" cx="10" cy="10" r="1"></circle>
            </g>
        </g>
    </g>
</svg>