<?xml version="1.0" encoding="UTF-8"?>
<svg width="20px" height="20px" viewBox="0 0 20 20" version="1.1" xmlns="http://www.w3.org/2000/svg" xmlns:xlink="http://www.w3.org/1999/xlink">
    <!-- Generator: sketchtool 49.3 (51167) - http://www.bohemiancoding.com/sketch -->
    <title>99ED843C-5D1D-4629-BC96-CBF77C5F4C79</title>
    <desc>Created with sketchtool.</desc>
    <defs></defs>
    <g id="Symbols" stroke="none" stroke-width="1" fill="none" fill-rule="evenodd">
        <g id="language-flag/portugal">
            <g id="PRT--Portugal">
                <path d="M6.66666667,19.430981 L6.66666667,0.569019026 C7.70926308,0.20051407 8.83121526,0 10,0 C15.5228475,0 20,4.4771525 20,10 C20,15.5228475 15.5228475,20 10,20 C8.83121526,20 7.70926308,19.7994859 6.66666667,19.430981 Z" id="Combined-Shape" fill="#E94B35"></path>
                <path d="M6.66666667,0.569019026 L6.66666667,19.430981 C2.78269209,18.0581929 0,14.3540628 0,10 C0,5.64593725 2.78269209,1.94180705 6.66666667,0.569019026 Z" id="Combined-Shape" fill="#1AAF5D"></path>
                <path d="M6.66666667,13.75 C4.36548021,13.75 2.5,11.8845198 2.5,9.58333333 C2.5,7.28214688 4.36548021,5.41666667 6.66666667,5.41666667 C8.96785312,5.41666667 10.8333333,7.28214688 10.8333333,9.58333333 C10.8333333,11.8845198 8.96785312,13.75 6.66666667,13.75 Z M6.66666667,12.9166667 C8.50761583,12.9166667 10,11.4242825 10,9.58333333 C10,7.74238417 8.50761583,6.25 6.66666667,6.25 C4.8257175,6.25 3.33333333,7.74238417 3.33333333,9.58333333 C3.33333333,11.4242825 4.8257175,12.9166667 6.66666667,12.9166667 Z" id="Combined-Shape" fill="#F2C500"></path>
                <path d="M8.95833333,7.29166667 L8.95833333,10 C8.95833333,11.2656526 7.93231922,12.2916667 6.66666667,12.2916667 C5.40101411,12.2916667 4.375,11.2656526 4.375,10 L4.375,7.29166667 L8.95833333,7.29166667 Z" id="Rectangle-56" fill="#F2C500" fill-rule="nonzero"></path>
                <path d="M4.58333333,7.5 L8.75,7.5 L8.75,10 C8.75,11.1505932 7.8172599,12.0833333 6.66666667,12.0833333 C5.51607344,12.0833333 4.58333333,11.1505932 4.58333333,10 L4.58333333,7.5 Z" id="Rectangle-56" fill="#E94B35" fill-rule="nonzero"></path>
                <path d="M5.41666667,10 C5.41666667,10.6903559 5.97631073,11.25 6.66666667,11.25 C7.3570226,11.25 7.91666667,10.6903559 7.91666667,10 L7.91666667,8.33333333 L5.41666667,8.33333333 L5.41666667,10 Z" id="Path" fill="#FFFFFF"></path>
            </g>
        </g>
    </g>
</svg>