<?xml version="1.0" encoding="UTF-8"?>
<svg width="20px" height="20px" viewBox="0 0 20 20" version="1.1" xmlns="http://www.w3.org/2000/svg" xmlns:xlink="http://www.w3.org/1999/xlink">
    <!-- Generator: sketchtool 49.3 (51167) - http://www.bohemiancoding.com/sketch -->
    <title>A369E422-FD53-40F8-AAA1-47881B34CCED</title>
    <desc>Created with sketchtool.</desc>
    <defs></defs>
    <g id="Symbols" stroke="none" stroke-width="1" fill="none" fill-rule="evenodd">
        <g id="language-flag/spain">
            <g id="ESP--Spain">
                <path d="M1.10984671,5.41666667 L18.8901533,5.41666667 C19.5994418,6.78967054 20,8.34805758 20,10 C20,11.6519424 19.5994418,13.2103295 18.8901533,14.5833333 L1.10984671,14.5833333 C0.400558171,13.2103295 0,11.6519424 0,10 C0,8.34805758 0.400558171,6.78967054 1.10984671,5.41666667 Z" id="Combined-Shape" fill="#F2C500"></path>
                <path d="M18.8901533,5.41666667 L1.10984671,5.41666667 C2.77188322,2.19938282 6.12909492,0 10,0 C13.8709051,0 17.2281168,2.19938282 18.8901533,5.41666667 Z" id="Combined-Shape" fill="#E94B35"></path>
                <path d="M1.10984671,14.5833333 L18.8901533,14.5833333 C17.2281168,17.8006172 13.8709051,20 10,20 C6.12909492,20 2.77188322,17.8006172 1.10984671,14.5833333 Z" id="Combined-Shape" fill="#E94B35"></path>
                <g id="emblem" transform="translate(1.666667, 6.250000)">
                    <path d="M0.833333333,2.08333333 C1.06345198,2.08333333 1.25,2.26988135 1.25,2.5 L1.25,7.08333333 L1.66666667,7.08333333 L1.66666667,7.5 L0,7.5 L0,7.08333333 L0.416666667,7.08333333 L0.416666667,2.5 C0.416666667,2.26988135 0.603214688,2.08333333 0.833333333,2.08333333 Z" id="Rectangle-77" fill="#D9D9D9"></path>
                    <path d="M1.875,2.29166667 L6.45833333,2.29166667 L6.45833333,5.90277778 C6.45833333,7.14925378 5.43231922,7.70833333 4.16666667,7.70833333 C2.90101411,7.70833333 1.875,7.14925378 1.875,5.90277778 L1.875,2.29166667 Z" id="Rectangle-78" fill="#D9D9D9"></path>
                    <ellipse id="Oval-64" fill="#E94B35" cx="4.16666667" cy="1.04166667" rx="2.08333333" ry="1.04166667"></ellipse>
                    <rect id="Rectangle-79" fill="#E94B35" x="2.08333333" y="2.5" width="2.08333333" height="2.08333333"></rect>
                    <path d="M2.08333333,4.58333333 L4.16666667,4.58333333 L4.16666667,6.04166667 C4.16666667,6.61696328 3.70029661,7.08333333 3.125,7.08333333 L3.125,7.08333333 C2.54970339,7.08333333 2.08333333,6.61696328 2.08333333,6.04166667 L2.08333333,4.58333333 Z" id="Rectangle-79" fill="#F2C500"></path>
                    <path d="M4.16666667,4.58333333 L6.25,4.58333333 L6.25,6.04166667 C6.25,6.61696328 5.78362995,7.08333333 5.20833333,7.08333333 L5.20833333,7.08333333 C4.63303672,7.08333333 4.16666667,6.61696328 4.16666667,6.04166667 L4.16666667,4.58333333 Z" id="Rectangle-79" fill="#E94B35"></path>
                    <path d="M7.5,2.08333333 C7.73011865,2.08333333 7.91666667,2.26988135 7.91666667,2.5 L7.91666667,7.08333333 L8.33333333,7.08333333 L8.33333333,7.5 L6.66666667,7.5 L6.66666667,7.08333333 L7.08333333,7.08333333 L7.08333333,2.5 C7.08333333,2.26988135 7.26988135,2.08333333 7.5,2.08333333 Z" id="Rectangle-77" fill="#D9D9D9"></path>
                    <ellipse id="Oval-64" fill="#E94B35" cx="5.20833333" cy="3.54166667" rx="1" ry="1"></ellipse>
                </g>
            </g>
        </g>
    </g>
</svg>