<?xml version="1.0" encoding="UTF-8"?>
<svg width="20px" height="20px" viewBox="0 0 20 20" version="1.1" xmlns="http://www.w3.org/2000/svg" xmlns:xlink="http://www.w3.org/1999/xlink">
    <!-- Generator: sketchtool 49.3 (51167) - http://www.bohemiancoding.com/sketch -->
    <title>E815FB95-6DD3-410C-9C52-A26F738B216A</title>
    <desc>Created with sketchtool.</desc>
    <defs></defs>
    <g id="Desktop" stroke="none" stroke-width="1" fill="none" fill-rule="evenodd">
        <g id="0.0-ui-guide" transform="translate(-1188.000000, -684.000000)">
            <g id="language-select-droplist" transform="translate(0.000000, 618.000000)">
                <g id="language" transform="translate(1172.000000, 38.000000)">
                    <g id="language-flag/usa" transform="translate(16.000000, 28.000000)">
                        <g id="USA--United-States-of-America">
                            <circle id="Combined-Shape" fill="#FFFFFF" cx="10" cy="10" r="10"></circle>
                            <path d="M15.2704231,1.49999996 L10,1.49999996 L10,0 C11.9341972,9.0521795e-16 13.7401376,0.549132667 15.2704231,1.49999996 Z M17.2221824,3.08332655 C17.662994,3.54348491 18.0602607,4.04569175 18.4073618,4.58332651 L10,4.58332651 L10,3.08332655 L17.2221824,3.08332655 Z M19.2389251,6.1666531 C19.4391834,6.6487594 19.6028053,7.14991752 19.7263165,7.66665306 L10,7.66665306 L10,6.1666531 L19.2389251,6.1666531 Z M19.972297,9.24997965 C19.9906566,9.49758608 20,9.74770191 20,10 C20,10.2522843 19.9906577,10.5023865 19.9723,10.7499796 L10,10.7499796 L10,9.24997965 L19.972297,9.24997965 Z M0.273673741,12.3333062 L19.7263263,12.3333062 C19.6028174,12.8500416 19.4391979,13.3511997 19.238942,13.8333062 L0.761057973,13.8333062 C0.560802143,13.3511997 0.39718261,12.8500416 0.273673741,12.3333062 Z M1.59261187,15.4166328 L18.4073881,15.4166328 C18.060291,15.954267 17.6630286,16.4564738 17.2222215,16.9166327 L2.77777854,16.9166327 C2.33697139,16.4564738 1.93970901,15.954267 1.59261187,15.4166328 Z M4.72951135,18.4999593 L15.2704887,18.4999593 C13.7477998,19.4461225 11.9521813,19.9945279 10.0288491,19.9999593 L9.9711509,19.9999593 C8.04781869,19.9945279 6.25220017,19.4461225 4.72951135,18.4999593 Z" id="Combined-Shape" fill="#E94B35"></path>
                            <path d="M10,0 L10,10.7500203 L0.0277029822,10.7500203 C0.00934337348,10.5024139 0,10.2522981 0,10 C0,4.4771525 4.4771525,0 10,0 Z" id="Combined-Shape" fill="#227FBB"></path>
                            <g id="Group-3" transform="translate(0.833333, 0.416667)" fill="#FFFFFF">
                                <polygon id="Star-55" points="7.08333333 1.875 6.83842281 2.00375708 6.88519656 1.73104521 6.68705978 1.53790959 6.96087807 1.49812146 7.08333333 1.25 7.20578859 1.49812146 7.47960688 1.53790959 7.28147011 1.73104521 7.32824386 2.00375708"></polygon>
                                <polygon id="Star-55" points="5.41666667 1.875 5.17175614 2.00375708 5.21852989 1.73104521 5.02039312 1.53790959 5.29421141 1.49812146 5.41666667 1.25 5.53912193 1.49812146 5.81294022 1.53790959 5.61480344 1.73104521 5.66157719 2.00375708"></polygon>
                                <polygon id="Star-55" points="7.91666667 0.625 7.67175614 0.753757081 7.71852989 0.481045207 7.52039312 0.287909586 7.79421141 0.24812146 7.91666667 0 8.03912193 0.24812146 8.31294022 0.287909586 8.11480344 0.481045207 8.16157719 0.753757081"></polygon>
                                <polygon id="Star-55" points="2.91666667 3.125 2.67175614 3.25375708 2.71852989 2.98104521 2.52039312 2.78790959 2.79421141 2.74812146 2.91666667 2.5 3.03912193 2.74812146 3.31294022 2.78790959 3.11480344 2.98104521 3.16157719 3.25375708"></polygon>
                                <polygon id="Star-55" points="4.58333333 3.125 4.33842281 3.25375708 4.38519656 2.98104521 4.18705978 2.78790959 4.46087807 2.74812146 4.58333333 2.5 4.70578859 2.74812146 4.97960688 2.78790959 4.78147011 2.98104521 4.82824386 3.25375708"></polygon>
                                <polygon id="Star-55" points="6.25 3.125 6.00508948 3.25375708 6.05186323 2.98104521 5.85372645 2.78790959 6.12754474 2.74812146 6.25 2.5 6.37245526 2.74812146 6.64627355 2.78790959 6.44813677 2.98104521 6.49491052 3.25375708"></polygon>
                                <polygon id="Star-55" points="6.25 3.125 6.00508948 3.25375708 6.05186323 2.98104521 5.85372645 2.78790959 6.12754474 2.74812146 6.25 2.5 6.37245526 2.74812146 6.64627355 2.78790959 6.44813677 2.98104521 6.49491052 3.25375708"></polygon>
                                <polygon id="Star-55" points="7.08333333 4.375 6.83842281 4.50375708 6.88519656 4.23104521 6.68705978 4.03790959 6.96087807 3.99812146 7.08333333 3.75 7.20578859 3.99812146 7.47960688 4.03790959 7.28147011 4.23104521 7.32824386 4.50375708"></polygon>
                                <polygon id="Star-55" points="2.08333333 4.375 1.83842281 4.50375708 1.88519656 4.23104521 1.68705978 4.03790959 1.96087807 3.99812146 2.08333333 3.75 2.20578859 3.99812146 2.47960688 4.03790959 2.28147011 4.23104521 2.32824386 4.50375708"></polygon>
                                <polygon id="Star-55" points="3.75 4.375 3.50508948 4.50375708 3.55186323 4.23104521 3.35372645 4.03790959 3.62754474 3.99812146 3.75 3.75 3.87245526 3.99812146 4.14627355 4.03790959 3.94813677 4.23104521 3.99491052 4.50375708"></polygon>
                                <polygon id="Star-55" points="5.41666667 4.375 5.17175614 4.50375708 5.21852989 4.23104521 5.02039312 4.03790959 5.29421141 3.99812146 5.41666667 3.75 5.53912193 3.99812146 5.81294022 4.03790959 5.61480344 4.23104521 5.66157719 4.50375708"></polygon>
                                <polygon id="Star-55" points="7.91666667 3.125 7.67175614 3.25375708 7.71852989 2.98104521 7.52039312 2.78790959 7.79421141 2.74812146 7.91666667 2.5 8.03912193 2.74812146 8.31294022 2.78790959 8.11480344 2.98104521 8.16157719 3.25375708"></polygon>
                                <polygon id="Star-55" points="1.25 5.625 1.00508948 5.75375708 1.05186323 5.48104521 0.853726452 5.28790959 1.12754474 5.24812146 1.25 5 1.37245526 5.24812146 1.64627355 5.28790959 1.44813677 5.48104521 1.49491052 5.75375708"></polygon>
                                <polygon id="Star-55" points="2.91666667 5.625 2.67175614 5.75375708 2.71852989 5.48104521 2.52039312 5.28790959 2.79421141 5.24812146 2.91666667 5 3.03912193 5.24812146 3.31294022 5.28790959 3.11480344 5.48104521 3.16157719 5.75375708"></polygon>
                                <polygon id="Star-55" points="4.58333333 5.625 4.33842281 5.75375708 4.38519656 5.48104521 4.18705978 5.28790959 4.46087807 5.24812146 4.58333333 5 4.70578859 5.24812146 4.97960688 5.28790959 4.78147011 5.48104521 4.82824386 5.75375708"></polygon>
                                <polygon id="Star-55" points="6.25 5.625 6.00508948 5.75375708 6.05186323 5.48104521 5.85372645 5.28790959 6.12754474 5.24812146 6.25 5 6.37245526 5.24812146 6.64627355 5.28790959 6.44813677 5.48104521 6.49491052 5.75375708"></polygon>
                                <polygon id="Star-55" points="6.25 5.625 6.00508948 5.75375708 6.05186323 5.48104521 5.85372645 5.28790959 6.12754474 5.24812146 6.25 5 6.37245526 5.24812146 6.64627355 5.28790959 6.44813677 5.48104521 6.49491052 5.75375708"></polygon>
                                <polygon id="Star-55" points="7.08333333 6.875 6.83842281 7.00375708 6.88519656 6.73104521 6.68705978 6.53790959 6.96087807 6.49812146 7.08333333 6.25 7.20578859 6.49812146 7.47960688 6.53790959 7.28147011 6.73104521 7.32824386 7.00375708"></polygon>
                                <polygon id="Star-55" points="0.416666667 6.875 0.171756145 7.00375708 0.218529892 6.73104521 0.0203931182 6.53790959 0.294211406 6.49812146 0.416666667 6.25 0.539121928 6.49812146 0.812940215 6.53790959 0.614803441 6.73104521 0.661577188 7.00375708"></polygon>
                                <polygon id="Star-55" points="2.08333333 6.875 1.83842281 7.00375708 1.88519656 6.73104521 1.68705978 6.53790959 1.96087807 6.49812146 2.08333333 6.25 2.20578859 6.49812146 2.47960688 6.53790959 2.28147011 6.73104521 2.32824386 7.00375708"></polygon>
                                <polygon id="Star-55" points="3.75 6.875 3.50508948 7.00375708 3.55186323 6.73104521 3.35372645 6.53790959 3.62754474 6.49812146 3.75 6.25 3.87245526 6.49812146 4.14627355 6.53790959 3.94813677 6.73104521 3.99491052 7.00375708"></polygon>
                                <polygon id="Star-55" points="5.41666667 6.875 5.17175614 7.00375708 5.21852989 6.73104521 5.02039312 6.53790959 5.29421141 6.49812146 5.41666667 6.25 5.53912193 6.49812146 5.81294022 6.53790959 5.61480344 6.73104521 5.66157719 7.00375708"></polygon>
                                <polygon id="Star-55" points="7.91666667 5.625 7.67175614 5.75375708 7.71852989 5.48104521 7.52039312 5.28790959 7.79421141 5.24812146 7.91666667 5 8.03912193 5.24812146 8.31294022 5.28790959 8.11480344 5.48104521 8.16157719 5.75375708"></polygon>
                                <polygon id="Star-55" points="1.25 8.125 1.00508948 8.25375708 1.05186323 7.98104521 0.853726452 7.78790959 1.12754474 7.74812146 1.25 7.5 1.37245526 7.74812146 1.64627355 7.78790959 1.44813677 7.98104521 1.49491052 8.25375708"></polygon>
                                <polygon id="Star-55" points="2.91666667 8.125 2.67175614 8.25375708 2.71852989 7.98104521 2.52039312 7.78790959 2.79421141 7.74812146 2.91666667 7.5 3.03912193 7.74812146 3.31294022 7.78790959 3.11480344 7.98104521 3.16157719 8.25375708"></polygon>
                                <polygon id="Star-55" points="4.58333333 8.125 4.33842281 8.25375708 4.38519656 7.98104521 4.18705978 7.78790959 4.46087807 7.74812146 4.58333333 7.5 4.70578859 7.74812146 4.97960688 7.78790959 4.78147011 7.98104521 4.82824386 8.25375708"></polygon>
                                <polygon id="Star-55" points="6.25 8.125 6.00508948 8.25375708 6.05186323 7.98104521 5.85372645 7.78790959 6.12754474 7.74812146 6.25 7.5 6.37245526 7.74812146 6.64627355 7.78790959 6.44813677 7.98104521 6.49491052 8.25375708"></polygon>
                                <polygon id="Star-55" points="6.25 8.125 6.00508948 8.25375708 6.05186323 7.98104521 5.85372645 7.78790959 6.12754474 7.74812146 6.25 7.5 6.37245526 7.74812146 6.64627355 7.78790959 6.44813677 7.98104521 6.49491052 8.25375708"></polygon>
                                <polygon id="Star-55" points="7.08333333 9.375 6.83842281 9.50375708 6.88519656 9.23104521 6.68705978 9.03790959 6.96087807 8.99812146 7.08333333 8.75 7.20578859 8.99812146 7.47960688 9.03790959 7.28147011 9.23104521 7.32824386 9.50375708"></polygon>
                                <polygon id="Star-55" points="0.416666667 9.375 0.171756145 9.50375708 0.218529892 9.23104521 0.0203931182 9.03790959 0.294211406 8.99812146 0.416666667 8.75 0.539121928 8.99812146 0.812940215 9.03790959 0.614803441 9.23104521 0.661577188 9.50375708"></polygon>
                                <polygon id="Star-55" points="2.08333333 9.375 1.83842281 9.50375708 1.88519656 9.23104521 1.68705978 9.03790959 1.96087807 8.99812146 2.08333333 8.75 2.20578859 8.99812146 2.47960688 9.03790959 2.28147011 9.23104521 2.32824386 9.50375708"></polygon>
                                <polygon id="Star-55" points="3.75 9.375 3.50508948 9.50375708 3.55186323 9.23104521 3.35372645 9.03790959 3.62754474 8.99812146 3.75 8.75 3.87245526 8.99812146 4.14627355 9.03790959 3.94813677 9.23104521 3.99491052 9.50375708"></polygon>
                                <polygon id="Star-55" points="5.41666667 9.375 5.17175614 9.50375708 5.21852989 9.23104521 5.02039312 9.03790959 5.29421141 8.99812146 5.41666667 8.75 5.53912193 8.99812146 5.81294022 9.03790959 5.61480344 9.23104521 5.66157719 9.50375708"></polygon>
                                <polygon id="Star-55" points="7.91666667 8.125 7.67175614 8.25375708 7.71852989 7.98104521 7.52039312 7.78790959 7.79421141 7.74812146 7.91666667 7.5 8.03912193 7.74812146 8.31294022 7.78790959 8.11480344 7.98104521 8.16157719 8.25375708"></polygon>
                            </g>
                        </g>
                    </g>
                </g>
            </g>
        </g>
    </g>
</svg>