<?xml version="1.0" encoding="UTF-8"?>
<svg width="268px" height="268px" viewBox="0 0 268 268" version="1.1" xmlns="http://www.w3.org/2000/svg" xmlns:xlink="http://www.w3.org/1999/xlink">
    <!-- Generator: sketchtool 49.3 (51167) - http://www.bohemiancoding.com/sketch -->
    <title>00384E6A-2356-4C5E-A2EC-14209DF7E7FB</title>
    <desc>Created with sketchtool.</desc>
    <defs>
        <linearGradient x1="-0.0188679245%" y1="49.9854953%" x2="99.990566%" y2="49.9854953%" id="linearGradient-1">
            <stop stop-color="#4C9CF4" offset="0%"></stop>
            <stop stop-color="#ACD4FA" offset="100%"></stop>
        </linearGradient>
        <linearGradient x1="3213%" y1="15180%" x2="14118%" y2="15180%" id="linearGradient-2">
            <stop stop-color="#4C9CF4" offset="0%"></stop>
            <stop stop-color="#ACD4FA" offset="100%"></stop>
        </linearGradient>
        <linearGradient x1="0%" y1="50.0068474%" x2="100%" y2="50.0068474%" id="linearGradient-3">
            <stop stop-color="#A1C8F4" offset="0%"></stop>
            <stop stop-color="#DFEDFA" offset="100%"></stop>
        </linearGradient>
        <linearGradient x1="3530%" y1="11706%" x2="14131%" y2="11706%" id="linearGradient-4">
            <stop stop-color="#A1C8F4" offset="0%"></stop>
            <stop stop-color="#DFEDFA" offset="100%"></stop>
        </linearGradient>
        <linearGradient x1="141.607685%" y1="-7.64381921%" x2="64.4927536%" y2="40.8783584%" id="linearGradient-5">
            <stop stop-color="#CEDAE5" offset="0%"></stop>
            <stop stop-color="#FFFFFF" offset="100%"></stop>
        </linearGradient>
        <linearGradient x1="60.4392297%" y1="100%" x2="50%" y2="-5.29267099%" id="linearGradient-6">
            <stop stop-color="#B4EC51" offset="0%"></stop>
            <stop stop-color="#429321" offset="100%"></stop>
        </linearGradient>
    </defs>
    <g id="Symbols" stroke="none" stroke-width="1" fill="none" fill-rule="evenodd">
        <g id="how-icons/2">
            <g id="how-2-11">
                <rect id="Rectangle-path" x="0" y="0" width="268" height="268"></rect>
                <path d="M131.23,195.43 L188.65,162.28 C189.877215,161.581659 191.365022,161.514707 192.65,162.1 L202.71,167.74 C203.71,168.32 203.58,169.34 202.4,170.02 L144.98,203.17 C143.752785,203.868341 142.264978,203.935293 140.98,203.35 L130.92,197.71 C129.91,197.13 130.05,196.1 131.23,195.43 Z" id="Shape" fill="#214091" opacity="0.1"></path>
                <path d="M250.81,201.46 C263.87,209 261.47,217.79 252.4,223.06 C233.27,234.18 195.46,232.36 185.67,231.79 L214.25,248.29 L203.81,254.36 L160.59,229.36 L169.59,224.14 C191.72,224.25 224.92,225.14 238.19,217.39 C243.65,214.22 244.02,210.47 238.33,207.18 C233.41,204.34 226.46,204.29 219.24,206.78 L214,199 C226.021033,194.277586 239.524255,195.180001 250.81,201.46 Z" id="Shape" fill="#3DA4ED" fill-rule="nonzero"></path>
                <g id="content" transform="translate(76.000000, 23.000000)" fill-rule="nonzero">
                    <path d="M172.73,68.85 L104,108.51 C101.33,110.05 97.3,110.22 95,108.88 L2.1,55.24 C-0.21,53.91 0.1,51.58 2.75,50.04 L71.45,10.38 C74.12,8.84 78.15,8.67 80.45,10.01 L173.37,63.66 C175.68,65 175.4,67.31 172.73,68.85 Z" id="Shape" fill="#214091" opacity="0.1"></path>
                    <path d="M172.73,60.18 L104,99.84 C101.33,101.38 97.3,101.55 95,100.21 L2.1,46.56 C-0.21,45.23 0.1,42.9 2.75,41.36 L71.45,1.7 C74.12,0.16 78.15,-0.01 80.45,1.33 L173.38,55 C175.68,56.31 175.4,58.64 172.73,60.18 Z" id="Shape" fill="#FFFFFF"></path>
                    <path d="M75.67,37.84 L64.54,44.27 C63.6862839,44.743606 62.6585835,44.7844172 61.77,44.38 L61.68,44.33 C60.97,43.92 61.06,43.2 61.88,42.73 L73,36.3 C73.8537161,35.826394 74.8814165,35.7855828 75.77,36.19 L75.86,36.24 C76.58,36.65 76.49,37.36 75.67,37.84 Z" id="Shape" fill="#C2D6EC"></path>
                    <path d="M93,27.82 L81.87,34.25 C81.0162839,34.723606 79.9885835,34.7644172 79.1,34.36 L79.01,34.31 C78.3,33.9 78.39,33.18 79.21,32.71 L90.34,26.28 C91.1937161,25.806394 92.2214165,25.7655828 93.11,26.17 L93.2,26.22 C93.92,26.63 93.83,27.35 93,27.82 Z" id="Shape" fill="#C2D6EC"></path>
                    <path d="M46.77,54.57 L44,56.18 C43.1462839,56.653606 42.1185835,56.6944172 41.23,56.29 L41.14,56.24 C40.43,55.83 40.52,55.11 41.34,54.64 L44.11,53 C44.9637161,52.526394 45.9914165,52.4855828 46.88,52.89 L47,53 C47.68,53.38 47.59,54.1 46.77,54.57 Z" id="Shape" fill="#C2D6EC"></path>
                    <path d="M58.79,47.64 L52.66,51.18 C51.8062839,51.653606 50.7785835,51.6944172 49.89,51.29 L49.8,51.24 C49.09,50.83 49.18,50.11 50,49.64 L56.13,46.1 C56.9837161,45.626394 58.0114165,45.5855828 58.9,45.99 L59,46 C59.7,46.45 59.61,47.17 58.79,47.64 Z" id="Shape" fill="#C2D6EC"></path>
                    <path d="M45.32,34.55 L41.75,36.61 C40.8962839,37.083606 39.8685835,37.1244172 38.98,36.72 L38.89,36.67 C38.18,36.26 38.27,35.54 39.09,35.07 L42.66,33 C43.5137161,32.526394 44.5414165,32.4855828 45.43,32.89 L45.52,32.94 C46.23,33.36 46.14,34.08 45.32,34.55 Z" id="Shape" fill="#C2D6EC"></path>
                    <path d="M81.17,13.86 L65.17,23.07 C64.3162839,23.543606 63.2885835,23.5844172 62.4,23.18 L62.31,23.13 C61.6,22.72 61.69,22 62.51,21.53 L78.51,12.32 C79.3637161,11.846394 80.3914165,11.8055828 81.28,12.21 L81.37,12.26 C82.08,12.67 82,13.38 81.17,13.86 Z" id="Shape" fill="#C2D6EC"></path>
                    <path d="M59,26.68 L51.64,30.93 C50.7862839,31.403606 49.7585835,31.4444172 48.87,31.04 L48.78,30.99 C48.07,30.58 48.16,29.86 48.98,29.39 L56.34,25.14 C57.1937161,24.666394 58.2214165,24.6255828 59.11,25.03 L59.2,25.08 C59.88,25.49 59.79,26.2 59,26.68 Z" id="Shape" fill="#C2D6EC"></path>
                    <path d="M85.14,17.75 L62.26,31 C61.4062839,31.473606 60.3785835,31.5144172 59.49,31.11 L59.4,31 C58.69,30.59 58.78,29.87 59.6,29.4 L82.47,16.19 C83.3237161,15.716394 84.3514165,15.6755828 85.24,16.08 L85.33,16.13 C86,16.56 86,17.28 85.14,17.75 Z" id="Shape" fill="#C2D6EC"></path>
                    <path d="M55.94,34.61 L47.09,39.72 C46.2362839,40.193606 45.2085835,40.2344172 44.32,39.83 L44.23,39.78 C43.52,39.37 43.61,38.65 44.43,38.18 L53.28,33.07 C54.1337161,32.596394 55.1614165,32.5555828 56.05,32.96 L56.14,33.01 C56.85,33.42 56.76,34.13 55.94,34.61 Z" id="Shape" fill="#C2D6EC"></path>
                    <path d="M55.43,56.46 L49.75,59.74 C48.8962839,60.213606 47.8685835,60.2544172 46.98,59.85 L46.89,59.8 C46.18,59.39 46.27,58.67 47.09,58.2 L52.77,54.92 C53.6237161,54.446394 54.6514165,54.4055828 55.54,54.81 L55.63,54.86 C56.34,55.27 56.25,56 55.43,56.46 Z" id="Shape" fill="#C2D6EC"></path>
                    <path d="M102.81,29.1 L80.81,41.83 C79.9562839,42.303606 78.9285835,42.3444172 78.04,41.94 L77.95,41.89 C77.24,41.48 77.33,40.76 78.15,40.29 L100.15,27.56 C101.003716,27.086394 102.031417,27.0455828 102.92,27.45 L103.01,27.5 C103.72,27.91 103.63,28.63 102.81,29.1 Z" id="Shape" fill="#C2D6EC"></path>
                    <path d="M73.46,46 L62.77,52.17 C61.9162839,52.643606 60.8885835,52.6844172 60,52.28 L59.91,52.23 C59.2,51.82 59.29,51.1 60.11,50.63 L70.8,44.46 C71.6537161,43.986394 72.6814165,43.9455828 73.57,44.35 L73.66,44.4 C74.37,44.85 74.28,45.57 73.46,46 Z" id="Shape" fill="#C2D6EC"></path>
                    <path d="M107,33.63 L75.81,51.63 C74.9562839,52.103606 73.9285835,52.1444172 73.04,51.74 L72.95,51.69 C72.24,51.28 72.33,50.56 73.15,50.09 L104.34,32.09 C105.193716,31.616394 106.221417,31.5755828 107.11,31.98 L107.2,32.03 C107.88,32.44 107.79,33.16 107,33.63 Z" id="Shape" fill="#C2D6EC"></path>
                    <path d="M68.39,55.91 L55.74,63.21 C54.8862839,63.683606 53.8585835,63.7244172 52.97,63.32 L52.88,63.27 C52.17,62.86 52.26,62.14 53.08,61.67 L65.73,54.37 C66.5837161,53.896394 67.6114165,53.8555828 68.5,54.26 L68.59,54.31 C69.3,54.72 69.21,55.43 68.39,55.91 Z" id="Shape" fill="#C2D6EC"></path>
                    <path d="M67.24,35.72 L53.65,43.56 C52.7962839,44.033606 51.7685835,44.0744172 50.88,43.67 L50.79,43.62 C50.08,43.21 50.17,42.49 50.99,42.02 L64.58,34.18 C65.4337161,33.706394 66.4614165,33.6655828 67.35,34.07 L67.44,34.12 C68.15,34.53 68.06,35.24 67.24,35.72 Z" id="Shape" fill="#C2D6EC"></path>
                    <path d="M92.84,20.94 L73,32.38 C72.1462839,32.853606 71.1185835,32.8944172 70.23,32.49 L70.14,32.44 C69.43,32.03 69.52,31.31 70.34,30.84 L90.18,19.4 C91.0337161,18.926394 92.0614165,18.8855828 92.95,19.29 L93.04,19.34 C93.75,19.75 93.66,20.46 92.84,20.94 Z" id="Shape" fill="#C2D6EC"></path>
                    <path d="M95.13,79.38 L89.45,82.66 C88.5962839,83.133606 87.5685835,83.1744172 86.68,82.77 L86.59,82.72 C85.88,82.31 85.97,81.59 86.79,81.12 L92.47,77.84 C93.3237161,77.366394 94.3514165,77.3255828 95.24,77.73 L95.33,77.78 C96,78.19 96,78.9 95.13,79.38 Z" id="Shape" fill="#C2D6EC"></path>
                    <path d="M121.38,64.23 L110.25,70.66 C109.396284,71.133606 108.368583,71.1744172 107.48,70.77 L107.39,70.72 C106.68,70.31 106.77,69.59 107.59,69.12 L118.72,62.69 C119.573716,62.216394 120.601417,62.1755828 121.49,62.58 L121.58,62.63 C122.28,63 122.2,63.75 121.38,64.23 Z" id="Shape" fill="#C2D6EC"></path>
                    <path d="M138.72,54.21 L127.59,60.64 C126.736284,61.113606 125.708583,61.1544172 124.82,60.75 L124.73,60.7 C124.02,60.29 124.11,59.57 124.93,59.1 L136.06,52.67 C136.913716,52.196394 137.941417,52.1555828 138.83,52.56 L138.92,52.61 C139.63,53 139.54,53.74 138.72,54.21 Z" id="Shape" fill="#C2D6EC"></path>
                    <path d="M103.69,74.44 L101.75,75.56 C100.896284,76.033606 99.8685835,76.0744172 98.98,75.67 L98.89,75.62 C98.18,75.21 98.27,74.49 99.09,74.02 L101,72.9 C101.853716,72.426394 102.881417,72.3855828 103.77,72.79 L103.86,72.84 C104.6,73.25 104.51,74 103.69,74.44 Z" id="Shape" fill="#C2D6EC"></path>
                    <path d="M77.12,69 L71.44,72.28 C70.5862839,72.753606 69.5585835,72.7944172 68.67,72.39 L68.58,72.34 C67.87,71.93 67.96,71.21 68.78,70.74 L74.46,67.46 C75.3137161,66.986394 76.3414165,66.9455828 77.23,67.35 L77.32,67.4 C78,67.79 77.94,68.5 77.12,69 Z" id="Shape" fill="#C2D6EC"></path>
                    <path d="M124.49,41.62 L102.49,54.35 C101.636284,54.823606 100.608583,54.8644172 99.72,54.46 L99.63,54.41 C98.92,54 99.01,53.28 99.83,52.81 L121.83,40.08 C122.688519,39.6160099 123.716133,39.5863315 124.6,40 L124.69,40.05 C125.4,40.43 125.31,41.15 124.49,41.62 Z" id="Shape" fill="#C2D6EC"></path>
                    <path d="M95.15,58.56 L84.46,64.73 C83.6062839,65.203606 82.5785835,65.2444172 81.69,64.84 L81.6,64.79 C80.89,64.38 80.98,63.66 81.8,63.19 L92.49,57 C93.3437161,56.526394 94.3714165,56.4855828 95.26,56.89 L95.35,56.94 C96.06,57.37 96,58.09 95.15,58.56 Z" id="Shape" fill="#C2D6EC"></path>
                    <path d="M128.66,46.15 L97.47,64.15 C96.6162839,64.623606 95.5885835,64.6644172 94.7,64.26 L94.61,64.21 C93.9,63.8 93.99,63.08 94.81,62.61 L126,44.61 C126.853716,44.136394 127.881417,44.0955828 128.77,44.5 L128.86,44.55 C129.57,45 129.48,45.68 128.66,46.15 Z" id="Shape" fill="#C2D6EC"></path>
                    <path d="M90.08,68.43 L77.43,75.73 C76.5762839,76.203606 75.5485835,76.2444172 74.66,75.84 L74.57,75.79 C73.86,75.38 73.95,74.66 74.77,74.19 L87.42,66.89 C88.2737161,66.416394 89.3014165,66.3755828 90.19,66.78 L90.28,66.83 C91,67.24 90.9,68 90.08,68.43 Z" id="Shape" fill="#C2D6EC"></path>
                    <path d="M101.14,82.84 L95.46,86.12 C94.6062839,86.593606 93.5785835,86.6344172 92.69,86.23 L92.6,86.18 C91.89,85.77 91.98,85.05 92.8,84.58 L98.48,81.3 C99.3337161,80.826394 100.361417,80.7855828 101.25,81.19 L101.34,81.24 C102,81.65 102,82.37 101.14,82.84 Z" id="Shape" fill="#C2D6EC"></path>
                    <path d="M148.51,55.49 L126.51,68.22 C125.656284,68.693606 124.628583,68.7344172 123.74,68.33 L123.65,68.28 C122.94,67.87 123.03,67.15 123.85,66.68 L145.85,53.95 C146.703716,53.476394 147.731417,53.4355828 148.62,53.84 L148.71,53.89 C149.42,54.3 149.33,55 148.51,55.49 Z" id="Shape" fill="#C2D6EC"></path>
                    <path d="M119.17,72.43 L108.48,78.6 C107.626284,79.073606 106.598583,79.1144172 105.71,78.71 L105.62,78.66 C104.91,78.25 105,77.53 105.82,77.06 L116.51,70.89 C117.363716,70.416394 118.391417,70.3755828 119.28,70.78 L119.37,70.83 C120.08,71.24 120,72 119.17,72.43 Z" id="Shape" fill="#C2D6EC"></path>
                    <path d="M152.68,60 L121.49,78 C120.636284,78.473606 119.608583,78.5144172 118.72,78.11 L118.63,78.06 C117.92,77.65 118.01,76.93 118.83,76.46 L150.02,58.46 C150.873716,57.986394 151.901417,57.9455828 152.79,58.35 L152.88,58.4 C153.59,58.83 153.5,59.55 152.68,60 Z" id="Shape" fill="#C2D6EC"></path>
                    <path d="M114.1,82.3 L101.45,89.6 C100.596284,90.073606 99.5685835,90.1144172 98.68,89.71 L98.59,89.66 C97.88,89.25 97.97,88.53 98.79,88.06 L111.44,80.76 C112.293716,80.286394 113.321417,80.2455828 114.21,80.65 L114.3,80.7 C115,81.11 114.92,81.82 114.1,82.3 Z" id="Shape" fill="#C2D6EC"></path>
                    <path d="M122.33,56.69 L114.88,61 C114.026284,61.473606 112.998583,61.5144172 112.11,61.11 L112.02,61.06 C111.31,60.65 111.4,59.93 112.22,59.46 L119.67,55.16 C120.523716,54.686394 121.551417,54.6455828 122.44,55.05 L122.53,55.1 C123.24,55.5 123.15,56.22 122.33,56.69 Z" id="Shape" fill="#C2D6EC"></path>
                    <path d="M138.59,47.31 L129.68,52.45 C128.826284,52.923606 127.798583,52.9644172 126.91,52.56 L126.82,52.51 C126.11,52.1 126.2,51.38 127.02,50.91 L135.93,45.77 C136.783716,45.296394 137.811417,45.2555828 138.7,45.66 L138.79,45.71 C139.5,46.12 139.41,46.83 138.59,47.31 Z" id="Shape" fill="#C2D6EC"></path>
                    <path d="M108.64,64.7 L83.48,79.22 C82.6262839,79.693606 81.5985835,79.7344172 80.71,79.33 L80.62,79.28 C79.91,78.87 80,78.15 80.82,77.68 L106,63.16 C106.853716,62.686394 107.881417,62.6455828 108.77,63.05 L108.86,63.1 C109.55,63.51 109.46,64.22 108.64,64.7 Z" id="Shape" fill="#C2D6EC"></path>
                    <path d="M47.57,44.7 L31.87,41.07 C30.7760118,40.8050917 29.6233674,40.9398625 28.62,41.45 C27.77,41.94 27.51,42.68 27.96,43.32 L34.25,52.38 C35.0363116,53.1622845 36.1900935,53.4468841 37.25,53.12 C38.42,52.85 38.99,52.12 38.52,51.41 L36.84,49 L41.77,46.15 L45.89,47.15 C46.7183309,47.3500258 47.5908905,47.2471631 48.35,46.86 C48.5471455,46.7521009 48.7179112,46.6018271 48.85,46.42 C49.32,45.73 48.75,45 47.57,44.7 Z M35.62,47.29 L33.54,44.29 L38.74,45.49 L35.62,47.29 Z" id="Shape" fill="#3D4754"></path>
                </g>
                <g id="browser" transform="translate(12.000000, 68.000000)" fill-rule="nonzero">
                    <path d="M104.25,1 C105.73,0.14 106.94,0.83 106.94,2.53 L106.94,79.21 C106.907357,79.9282146 106.536406,80.5885062 105.94,80.99 L1.94,140.99 C1.37,141.32 0.94,141.05 0.94,140.4 L0.94,63.7 C1.04596271,61.815685 2.04549891,60.0952937 3.63,59.07 L104.25,1 Z" id="Shape" fill="url(#linearGradient-1)" opacity="0.3"></path>
                    <path d="M129.18,15.23 L126.18,91.47 C126.147357,92.1882146 125.776406,92.8485062 125.18,93.25 L24,154.61 C23.43,154.94 20.16,153.32 20.16,152.67 L20.16,76 C20.2659627,74.115685 21.2654989,72.3952937 22.85,71.37 L123.45,13.25 C124.94,12.39 129.18,13.52 129.18,15.23 Z" id="Shape" fill="url(#linearGradient-2)"></path>
                    <path d="M23.3,109.83 L23.3,77.35 C23.4050891,75.4602201 24.4089336,73.7350948 26,72.71 L126.62,14.61 C128.1,13.75 129.31,14.44 129.31,16.14 L129.31,92.82 C129.277357,93.5382146 128.906406,94.1985062 128.31,94.6 L24.31,154.6 C23.74,154.93 23.31,154.66 23.31,154.01 L23.31,119.5" id="Shape" fill="url(#linearGradient-3)"></path>
                    <path d="M88.77,46 L23.3,83.79 L23.3,77.43 C23.4082168,75.5438207 24.4116865,73.8230559 26,72.8 L126.62,14.69 C128.1,13.83 129.31,14.52 129.31,16.22 L129.31,22.58" id="Shape" fill="url(#linearGradient-4)"></path>
                    <path d="M29,75.78 C28.9582226,76.5685155 28.5419659,77.2895315 27.88,77.72 C27.26,78.08 26.76,77.79 26.76,77.08 C26.8017774,76.2914845 27.2180341,75.5704685 27.88,75.14 C28.49,74.78 29,75.07 29,75.78 Z" id="Shape" fill="#FFFFFF"></path>
                    <path d="M31.91,74.1 C31.8558543,74.8741052 31.4410661,75.5777637 30.79,76 C30.17,76.36 29.67,76.07 29.67,75.36 C29.7117774,74.5714845 30.1280341,73.8504685 30.79,73.42 C31.41,73.1 31.91,73.38 31.91,74.1 Z" id="Shape" fill="#FFFFFF"></path>
                    <path d="M34.83,72.41 C34.7882226,73.1985155 34.3719659,73.9195315 33.71,74.35 C33.09,74.71 32.59,74.42 32.59,73.71 C32.6317774,72.9214845 33.0480341,72.2004685 33.71,71.77 C34.33,71.41 34.83,71.7 34.83,72.41 Z" id="Shape" fill="#FFFFFF"></path>
                </g>
                <g id="ui_elements" transform="translate(57.000000, 111.000000)" fill-rule="nonzero">
                    <path d="M57.72,11 L15.81,35.2 C15.08,35.62 14.48,35.2 14.48,34.2 L14.48,27.45 C14.4964328,26.4405768 14.9897193,25.4985108 15.81,24.91 L57.72,0.71 C58.45,0.29 59.05,0.71 59.05,1.71 L59.05,8.46 C59.0335672,9.46942324 58.5402807,10.4114892 57.72,11 Z" id="Shape" fill="#FFFFFF"></path>
                    <path d="M57.72,28.37 L15.81,52.57 C15.08,52.99 14.48,52.57 14.48,51.57 L14.48,44.82 C14.4964328,43.8105768 14.9897193,42.8685108 15.81,42.28 L57.72,18.08 C58.45,17.66 59.05,18.08 59.05,19.08 L59.05,25.83 C59.0335672,26.8394232 58.5402807,27.7814892 57.72,28.37 Z" id="Shape" fill="#FFFFFF"></path>
                    <path d="M2.42,59.4 L3.28,59.89 L3.45,59.99 C4.60103197,60.4680652 5.91745282,60.3167524 6.93,59.59 C9.88852698,57.6945586 11.7704117,54.5061188 12,51 C12.131669,49.7466851 11.5774374,48.519731 10.55,47.79 L10.49,47.79 L9.61,47.28 C8.44173993,46.7252206 7.06333954,46.8557655 6.02,47.62 C3.06900882,49.5453953 1.21203501,52.7616739 1.02,56.28 C0.912251473,57.4927114 1.44244437,58.6742841 2.42,59.4 Z" id="Shape" fill="#33EB7D"></path>
                    <path d="M3.12,52.37 L3.12,52.46 C2.41921573,53.7879652 2.03262158,55.2590757 1.99,56.76 C1.99,59.94 4.24,61.22 6.99,59.62 C9.93383981,57.7050366 11.7932648,54.5057864 12,51 C12,47.82 9.75,46.54 7,48.14 C6.00843805,48.7369507 5.13687701,49.5135557 4.43,50.43" id="Shape" fill="#52F995"></path>
                    <path d="M6.64,56.4 C6.51314556,56.4732394 6.35685444,56.4732394 6.23,56.4 L4.7,55.53 C4.48,55.4 4.48,54.98 4.7,54.6 C4.92,54.22 5.29,54 5.51,54.13 L6.63,54.77 L8.71,51.19 C8.93,50.8 9.3,50.59 9.52,50.72 C9.74,50.85 9.74,51.27 9.52,51.65 L7,56 C6.91271014,56.1594942 6.78944999,56.2964499 6.64,56.4 Z" id="Shape" fill="#FFFFFF"></path>
                    <path d="M57.72,59.75 L15.81,83.95 C15.08,84.37 14.48,83.95 14.48,82.95 L14.48,62.11 C14.4964328,61.1005768 14.9897193,60.1585108 15.81,59.57 L57.72,35.37 C58.45,34.95 59.05,35.37 59.05,36.37 L59.05,57.2 C59.0367199,58.2129653 58.5430868,59.1594045 57.72,59.75 Z" id="Shape" fill="#FFFFFF"></path>
                    <path d="M2.42,76.71 L3.28,77.2 L3.45,77.3 C4.60103197,77.7780652 5.91745282,77.6267524 6.93,76.9 C9.87824548,74.9766553 11.73485,71.7647294 11.93,68.25 C12.061669,66.9966851 11.5074374,65.769731 10.48,65.04 L10.42,65.04 L9.54,64.53 C8.37173993,63.9752206 6.99333954,64.1057655 5.95,64.87 C2.99900882,66.7953953 1.14203501,70.0116739 0.95,73.53 C0.836066353,74.7766067 1.39658177,75.9891503 2.42,76.71 Z" id="Shape" fill="#33EB7D"></path>
                    <path d="M3.12,69.67 L3.12,69.76 C2.41921573,71.0879652 2.03262158,72.5590757 1.99,74.06 C1.99,77.24 4.24,78.52 6.99,76.92 C9.94099118,74.9946047 11.797965,71.7783261 11.99,68.26 C11.99,65.08 9.74,63.8 6.99,65.4 C5.99843805,65.9969507 5.12687701,66.7735557 4.42,67.69" id="Shape" fill="#52F995"></path>
                    <path d="M6.64,73.71 C6.51314556,73.7832394 6.35685444,73.7832394 6.23,73.71 L4.7,72.84 C4.48,72.71 4.48,72.29 4.7,71.91 C4.92,71.53 5.29,71.31 5.51,71.44 L6.63,72.08 L8.71,68.5 C8.93,68.11 9.3,67.9 9.52,68.03 C9.74,68.16 9.74,68.58 9.52,68.96 L7,73.28 C6.91663356,73.4503983 6.7930847,73.5979705 6.64,73.71 Z" id="Shape" fill="#FFFFFF"></path>
                    <path d="M2.42,41.49 L3.28,41.98 L3.45,42.08 C4.60103197,42.5580652 5.91745282,42.4067524 6.93,41.68 C9.91317739,39.7661731 11.7984272,36.538566 12,33 C12.131669,31.7466851 11.5774374,30.519731 10.55,29.79 L10.49,29.79 L9.61,29.28 C8.44173993,28.7252206 7.06333954,28.8557655 6.02,29.62 C3.06900882,31.5453953 1.21203501,34.7616739 1.02,38.28 C0.879324696,39.5233274 1.41309076,40.7471767 2.42,41.49 Z" id="Shape" fill="#33EB7D"></path>
                    <path d="M3.12,34.46 L3.12,34.55 C2.41921573,35.8779652 2.03262158,37.3490757 1.99,38.85 C1.99,42.03 4.24,43.31 6.99,41.71 C9.95858437,39.7766115 11.8213454,36.5381587 12,33 C12,29.82 9.75,28.54 7,30.14 C6.00843805,30.7369507 5.13687701,31.5135557 4.43,32.43" id="Shape" fill="#52F995"></path>
                    <path d="M6.64,38.49 C6.51314556,38.5632394 6.35685444,38.5632394 6.23,38.49 L4.7,37.62 C4.48,37.49 4.48,37.07 4.7,36.69 C4.92,36.31 5.29,36.09 5.51,36.22 L6.63,36.86 L8.71,33.28 C8.93,32.89 9.3,32.68 9.52,32.81 C9.74,32.94 9.74,33.36 9.52,33.74 L7,38.06 C6.91663356,38.2303983 6.7930847,38.3779705 6.64,38.49 Z" id="Shape" fill="#FFFFFF"></path>
                </g>
                <g id="Group" opacity="0.9" transform="translate(75.000000, 131.000000)" fill="#3FA9F5" fill-rule="nonzero">
                    <polygon id="Shape" points="1.3 6.23 1.31 10.15 0.75 10.47 0.74 7.47 0.32 8.07 0.03 7.71 0.89 6.46"></polygon>
                    <path d="M4.93,6 C5.26,5.91 5.52,6.05 5.53,6.57 C5.4815574,7.38360928 5.00064317,8.10879741 4.27,8.47 L3.33,8.99 L3.33,5.1 C3.52,4.97 3.97,4.7 4.33,4.5 C5.14,4.03 5.45,4.28 5.45,4.82 C5.43023858,5.2645001 5.24472108,5.68548212 4.93,6 Z M4.31,7.81 C4.67041974,7.64102627 4.90867135,7.28749163 4.93,6.89 C4.93,6.56 4.71,6.52 4.33,6.73 L3.91,6.97 L3.91,7.97 L4.3,7.77 L4.31,7.81 Z M3.9,5.35 L3.9,6.35 L4.3,6.12 C4.58988437,5.95364572 4.77749604,5.65346704 4.8,5.32 C4.8,5 4.59,4.95 4.26,5.14 L3.89,5.38 L3.9,5.35 Z" id="Shape"></path>
                    <polygon id="Shape" points="8.68 1.97 8.69 2.62 7.58 3.26 7.59 6.52 7 6.87 6.99 3.6 5.88 4.24 5.88 3.59"></polygon>
                    <path d="M10.53,0.85 C10.817016,0.637964676 11.1835101,0.564665864 11.53,0.65 L11.26,1.31 C10.9897651,1.26947772 10.7142665,1.33387998 10.49,1.49 C9.80428901,1.92483342 9.38624623,2.67806365 9.38,3.49 C9.38,4.3 9.87,4.58 10.56,4.18 C10.8830761,3.98143711 11.1593912,3.71535591 11.37,3.4 L11.6,3.78 C11.3309312,4.22146755 10.9563742,4.58915193 10.51,4.85 C9.51,5.45 8.76,5.06 8.75,3.85 C8.77722643,2.60734256 9.4523885,1.46942896 10.53,0.85 Z" id="Shape"></path>
                </g>
                <g id="Group" opacity="0.9" transform="translate(74.000000, 153.000000)" fill="#3FA9F5" fill-rule="nonzero">
                    <path d="M2,19.34 C2.77,18.89 3.14,19.49 3.14,20.69 C3.25585521,21.7100147 2.82191405,22.7149311 2,23.33 C1.22,23.78 0.85,23.19 0.85,22 C0.735261137,20.9722501 1.17268456,19.9604707 2,19.34 Z M2,22.74 C2.39,22.52 2.54,21.99 2.53,21.03 C2.52,20.07 2.37,19.73 1.98,19.95 C1.59,20.17 1.43,20.71 1.43,21.66 C1.43,22.61 1.63,22.95 1.99,22.74 L2,22.74 Z" id="Shape"></path>
                    <polygon id="Shape" points="5.7 18.62 4.98 20.24 5.76 21.1 5.08 21.5 4.56 20.89 4.03 22.1 3.39 22.47 4.17 20.74 3.43 19.93 4.12 19.54 4.58 20.1 5.06 19"></polygon>
                    <polygon id="Shape" points="7.21 16.34 7.22 20.26 6.67 20.58 6.66 17.58 6.24 18.18 5.94 17.82 6.81 16.57"></polygon>
                    <path d="M8.95,15.3 C9.59,14.93 9.95,15.3 9.95,15.77 C9.76807838,16.879006 9.32978206,17.9302323 8.67,18.84 L10,18 L10,18.59 L7.86,19.82 L7.86,19.31 C8.51946912,18.3750481 8.99462027,17.3229277 9.26,16.21 C9.26,15.9 9.11,15.79 8.83,15.95 C8.56131064,16.1357784 8.38340573,16.4262354 8.34,16.75 L7.87,16.75 C7.99682889,16.1302757 8.39254892,15.598985 8.95,15.3 Z" id="Shape"></path>
                    <path d="M11.46,13.84 C12.04,13.5 12.46,13.66 12.46,14.27 C12.4518191,14.7317271 12.2655069,15.172427 11.94,15.5 C12.36,15.34 12.59,15.59 12.59,16.06 C12.5515429,16.8101479 12.1330205,17.4888329 11.48,17.86 C10.96,18.16 10.58,18.12 10.4,17.86 L10.72,17.21 C10.9105095,17.4171938 11.2282165,17.4433066 11.45,17.27 C11.7768652,17.1055461 11.9878125,16.7757012 12,16.41 C12,16.05 11.76,16 11.37,16.22 L11.13,16.36 L11.13,15.71 L11.35,15.58 C11.6524582,15.4041237 11.8474429,15.0891484 11.87,14.74 C11.87,14.46 11.73,14.35 11.43,14.52 C11.1354534,14.7056276 10.9104666,14.9833456 10.79,15.31 L10.48,15.04 C10.6565804,14.5378706 11.0032759,14.1133454 11.46,13.84 Z" id="Shape"></path>
                    <path d="M14,12.4 C14.1740833,12.2683731 14.3990304,12.2241212 14.61,12.28 L14.42,12.88 C14.3097927,12.8494737 14.1916629,12.871623 14.1,12.94 C13.8758884,13.0901332 13.752836,13.3516194 13.78,13.62 L13.78,14 L14.37,13.66 L14.37,14.26 L13.78,14.6 L13.78,16.51 L13.22,16.83 L13.22,13.9 C13.1801031,13.2937022 13.4807474,12.7155401 14,12.4 Z" id="Shape"></path>
                    <path d="M16,12.77 C16.52,12.47 17,12.7 17,13.41 C16.975161,14.1904881 16.5674532,14.9086523 15.91,15.33 C15.15,15.77 14.7,15.33 14.69,14.59 C14.7405101,13.2277061 15.3219429,11.9392225 16.31,11 L16.53,11.36 C15.912695,11.9363317 15.4839565,12.6857526 15.3,13.51 C15.4516733,13.1972109 15.696113,12.9388032 16,12.77 Z M15.86,14.69 C16.1610073,14.496519 16.3478807,14.1676219 16.36,13.81 C16.36,13.45 16.17,13.27 15.81,13.48 C15.5341465,13.660365 15.3319543,13.9335019 15.24,14.25 C15.24,14.7 15.46,14.92 15.87,14.69 L15.86,14.69 Z" id="Shape"></path>
                    <path d="M19.15,11.36 C19.48,11.25 19.76,11.44 19.77,11.95 C19.715325,12.7112227 19.2734726,13.3909957 18.6,13.75 C17.94,14.13 17.42,14.03 17.42,13.36 C17.4240371,12.8474188 17.6328732,12.3577342 18,12 C17.74,12 17.51,11.81 17.51,11.36 C17.5767145,10.6658475 17.9805359,10.0488982 18.59,9.71 C19.2,9.36 19.68,9.49 19.68,10.11 C19.6527073,10.5674675 19.4691354,11.0016856 19.16,11.34 L19.15,11.36 Z M18.59,13.11 C18.9340946,12.9429439 19.1601225,12.6019865 19.18,12.22 C19.18,11.86 18.94,11.8 18.65,11.97 L18.57,11.97 C18.2539294,12.1510499 18.0479802,12.476824 18.02,12.84 C18.02,13.14 18.23,13.27 18.6,13.06 L18.59,13.11 Z M18.6,10.32 C18.3185144,10.4773411 18.1373303,10.7679906 18.12,11.09 C18.12,11.35 18.3,11.49 18.57,11.34 L18.67,11.28 C18.9222115,11.1059347 19.0806877,10.8258372 19.1,10.52 C19.1,10.2 18.89,10.15 18.6,10.32 Z" id="Shape"></path>
                    <polygon id="Shape" points="21.42 8.13 21.43 12.05 20.88 12.37 20.87 9.37 20.45 9.98 20.15 9.62 21.02 8.37"></polygon>
                    <path d="M23.51,8.43 C24.03,8.13 24.51,8.36 24.51,9.07 C24.4774737,9.86373413 24.049443,10.5883825 23.37,11 C22.62,11.43 22.15,11 22.15,10.26 C22.223897,8.90453709 22.8229154,7.63117468 23.82,6.71 L24.05,7.06 C23.430192,7.63434619 23.0009763,8.38460123 22.82,9.21 C22.9603797,8.88271842 23.202288,8.60925683 23.51,8.43 Z M23.37,10.35 C23.6723075,10.1577531 23.8596063,9.82810707 23.87,9.47 C23.87,9.11 23.68,8.93 23.32,9.14 C23.0465409,9.32288959 22.845068,9.59505466 22.75,9.91 C22.75,10.36 22.97,10.58 23.38,10.35 L23.37,10.35 Z" id="Shape"></path>
                    <polygon id="Shape" points="26.67 5.11 25.45 8.18 26.28 7.7 26.28 6.74 26.83 6.42 26.84 7.38 27.28 7.13 27.28 7.77 26.84 8.03 26.84 8.93 26.28 9.25 26.28 8.35 24.72 9.25 24.72 8.77 26.03 5.48"></polygon>
                    <path d="M29,5.28 C29.52,4.98 30,5.21 30,5.92 C29.975161,6.70048808 29.5674532,7.41865231 28.91,7.84 C28.15,8.28 27.7,7.84 27.69,7.1 C27.763897,5.74453709 28.3629154,4.47117468 29.36,3.55 L29.58,3.91 C28.962695,4.48633171 28.5339565,5.23575261 28.35,6.06 C28.4815963,5.73952204 28.7085063,5.46723012 29,5.28 Z M28.86,7.2 C29.1623075,7.00775305 29.3496063,6.67810707 29.36,6.32 C29.36,5.96 29.17,5.78 28.81,5.99 C28.5341465,6.17036495 28.3319543,6.44350187 28.24,6.76 C28.24,7.21 28.46,7.43 28.87,7.2 L28.86,7.2 Z" id="Shape"></path>
                    <path d="M31.94,2.07 L32.5,1.75 L32.5,5.66 L31.94,5.98 L31.94,5.72 C31.7968461,5.99789509 31.5785683,6.23003183 31.31,6.39 C30.68,6.75 30.31,6.48 30.31,5.71 C30.3519899,4.8850984 30.8019056,4.13523888 31.51,3.71 C31.6458988,3.61841587 31.8061219,3.56965232 31.97,3.57 L31.94,2.07 Z M31.94,5.17 L31.94,4.17 C31.7895341,4.15458279 31.6382227,4.18977148 31.51,4.27 C31.1315617,4.50439416 30.8980485,4.91492541 30.89,5.36 C30.89,5.8 31.14,5.91 31.44,5.74 C31.6535528,5.60247897 31.8289643,5.41330967 31.95,5.19 L31.94,5.17 Z" id="Shape"></path>
                    <polygon id="Shape" points="34.83 0.4 33.6 3.47 34.43 3 34.43 2.03 34.99 1.71 35 2.67 35.43 2.42 35.43 3.07 35 3.32 35 4.22 34.44 4.54 34.44 3.64 32.88 4.54 32.88 4.06 34.19 0.77"></polygon>
                    <path d="M36.66,0.68 C37.31,0.3 37.54,0.56 37.54,1.22 L37.54,2.75 L37.05,3.03 L37.05,2.74 C36.912319,3.0326552 36.6891791,3.27671444 36.41,3.44 C36.01,3.67 35.73,3.55 35.72,3.06 C35.7369277,2.52046801 36.0424452,2.03164 36.52,1.78 C36.6635164,1.68221535 36.8375397,1.63959739 37.01,1.66 C37.01,1.23 36.93,1.06 36.6,1.24 C36.384672,1.37937293 36.192367,1.55143534 36.03,1.75 L35.89,1.36 C36.1075969,1.09260023 36.3677443,0.862859701 36.66,0.68 Z M37.02,2.32 L37.02,2.06 C36.8849942,2.04007889 36.7477122,2.07620574 36.64,2.16 C36.4447394,2.26003776 36.3131198,2.45182635 36.29,2.67 C36.29,2.86 36.43,2.89 36.6,2.79 C36.7870053,2.68270552 36.9343264,2.51784621 37.02,2.32 Z" id="Shape"></path>
                    <path d="M2.85,25.57 L2.85,26.22 L1.73,26.87 L1.64,27.7 L1.84,27.56 C2.44,27.21 2.91,27.42 2.91,28.19 C2.88896032,29.0132463 2.44730229,29.7682173 1.74,30.19 C1.38,30.4 0.95,30.45 0.74,30.19 L1.06,29.52 C1.26387891,29.6750207 1.54612109,29.6750207 1.75,29.52 C2.09449998,29.3047476 2.30269569,28.92621 2.3,28.52 C2.3,28.12 2.03,27.98 1.58,28.24 C1.37623191,28.3595679 1.18812212,28.5040094 1.02,28.67 L1.24,26.46 L2.85,25.57 Z" id="Shape"></path>
                    <path d="M5.35,24.13 L5.35,24.78 L4.23,25.43 L4.14,26.26 L4.33,26.13 C4.94,25.78 5.4,25.99 5.41,26.76 C5.38896032,27.5832463 4.94730229,28.3382173 4.24,28.76 C3.88,28.97 3.45,29.02 3.24,28.76 L3.56,28.09 C3.76387891,28.2450207 4.04612109,28.2450207 4.25,28.09 C4.59449998,27.8747476 4.80269569,27.49621 4.8,27.09 C4.8,26.69 4.53,26.55 4.08,26.81 C3.87623191,26.9295679 3.68812212,27.0740094 3.52,27.24 L3.74,25.03 L5.35,24.13 Z" id="Shape"></path>
                    <path d="M7.64,24.71 C7.98,24.6 8.26,24.79 8.26,25.29 C8.206798,26.0542525 7.76501578,26.7376934 7.09,27.1 C6.43,27.48 5.91,27.37 5.91,26.71 C5.92298257,26.2081024 6.13103446,25.7310178 6.49,25.38 C6.23,25.38 6,25.19 6,24.74 C6.06502479,24.0452554 6.4693171,23.4275866 7.08,23.09 C7.68,22.74 8.17,22.87 8.17,23.49 C8.14262419,23.9464174 7.95491704,24.378498 7.64,24.71 Z M7.08,26.46 C7.43185391,26.3019491 7.66143843,25.9556267 7.67,25.57 C7.67,25.21 7.43,25.16 7.13,25.33 L7.05,25.33 C6.7339294,25.5110499 6.52798021,25.836824 6.5,26.2 C6.5,26.51 6.71,26.63 7.08,26.42 L7.08,26.46 Z M7.08,23.68 C6.79559307,23.8392001 6.61395233,24.1343663 6.6,24.46 C6.6,24.72 6.78,24.86 7.05,24.7 L7.14,24.65 C7.39337193,24.4801862 7.55538922,24.2040204 7.58,23.9 C7.58,23.58 7.37,23.52 7.08,23.69 L7.08,23.68 Z" id="Shape"></path>
                    <polygon id="Shape" points="9.91 21.49 9.92 25.41 9.37 25.73 9.36 22.72 8.94 23.33 8.64 22.97 9.51 21.72"></polygon>
                    <path d="M12.64,19.92 L12.64,20.57 L11.52,21.22 L11.43,22.05 L11.62,21.92 C12.23,21.57 12.69,21.78 12.7,22.55 C12.6789603,23.3732463 12.2373023,24.1282173 11.53,24.55 C11.17,24.76 10.74,24.81 10.53,24.55 L10.85,23.88 C11.0538789,24.0350207 11.3361211,24.0350207 11.54,23.88 C11.8845,23.6647476 12.0926957,23.28621 12.09,22.88 C12.09,22.48 11.82,22.34 11.37,22.6 C11.1662319,22.7195679 10.9781221,22.8640094 10.81,23.03 L11.03,20.82 L12.64,19.92 Z" id="Shape"></path>
                    <path d="M14,19.06 C14.26,18.91 14.5,18.87 14.61,18.94 L14.42,19.54 C14.35,19.54 14.23,19.54 14.1,19.6 C13.8758884,19.7501332 13.752836,20.0116194 13.78,20.28 L13.78,20.63 L14.37,20.29 L14.37,20.89 L13.78,21.23 L13.78,23.14 L13.22,23.46 L13.22,20.54 C13.1876963,19.9406878 13.487353,19.3721084 14,19.06 Z" id="Shape"></path>
                    <path d="M15.76,18.06 C16.52,17.62 16.97,17.98 16.97,18.85 C16.9747693,20.2370058 16.3310932,21.5465537 15.23,22.39 L15.04,21.99 C15.7048936,21.4739098 16.154021,20.7289287 16.3,19.9 C16.1673869,20.2011363 15.9435118,20.4529959 15.66,20.62 C15.09,20.95 14.66,20.69 14.66,20 C14.694033,19.2142612 15.1032068,18.4926274 15.76,18.06 Z M15.76,19.95 C16.0371129,19.7732135 16.2426091,19.5039427 16.34,19.19 C16.34,18.74 16.13,18.46 15.72,18.7 C15.4060108,18.9085622 15.2094021,19.2535548 15.19,19.63 C15.19,19.97 15.4,20.16 15.76,19.95 Z" id="Shape"></path>
                    <path d="M18.49,17.88 C18.85,17.67 19.17,17.59 19.37,17.71 L19.11,18.37 C18.9330333,18.2868957 18.724408,18.3100763 18.57,18.43 C18.2079091,18.6632168 17.983588,19.0595174 17.97,19.49 C17.97,19.94 18.27,20.04 18.6,19.85 C18.839945,19.6942044 19.0334103,19.4765559 19.16,19.22 L19.42,19.54 C19.2260853,19.9276435 18.9238698,20.2507015 18.55,20.47 C17.84,20.88 17.36,20.63 17.36,19.84 C17.3910098,19.0404727 17.8136191,18.3074511 18.49,17.88 Z" id="Shape"></path>
                    <path d="M21,16.43 C21.65,16.05 22,16.36 22,17.11 C21.9800833,17.975484 21.5048895,18.7662064 20.75,19.19 C20.4733771,19.3686117 20.1491454,19.4592571 19.82,19.45 L19.82,15.76 L20.38,15.44 L20.38,17 C20.5421858,16.7666751 20.7538924,16.5720416 21,16.43 Z M20.83,18.57 C21.2110974,18.3429827 21.4461288,17.9335731 21.45,17.49 C21.45,17.01 21.19,16.92 20.87,17.1 C20.6784202,17.223936 20.5231407,17.3964688 20.42,17.6 L20.42,18.66 C20.5609598,18.6749638 20.7026655,18.6395374 20.82,18.56 L20.83,18.57 Z" id="Shape"></path>
                    <polygon id="Shape" points="23.59 13.59 23.6 17.51 23.05 17.83 23.04 14.82 22.62 15.43 22.32 15.07 23.19 13.82"></polygon>
                    <path d="M25.37,12.51 C26.13,12.07 26.58,12.43 26.58,13.3 C26.5847693,14.6870058 25.9410932,15.9965537 24.84,16.84 L24.65,16.44 C25.3148936,15.9239098 25.764021,15.1789287 25.91,14.35 C25.7773869,14.6511363 25.5535118,14.9029959 25.27,15.07 C24.7,15.4 24.27,15.14 24.27,14.45 C24.304033,13.6642612 24.7132068,12.9426274 25.37,12.51 Z M25.37,14.4 C25.6471129,14.2232135 25.8526091,13.9539427 25.95,13.64 C25.95,13.19 25.74,12.91 25.33,13.15 C25.0160108,13.3585622 24.8194021,13.7035548 24.8,14.08 C24.8,14.42 25.01,14.61 25.37,14.4 Z" id="Shape"></path>
                    <path d="M29.17,12.89 C29.1844522,13.0095649 29.1844522,13.1304351 29.17,13.25 L27.59,14.16 C27.59,14.52 27.9,14.57 28.24,14.37 C28.485793,14.223265 28.6972227,14.0254759 28.86,13.79 L29.02,14.15 C28.8060204,14.4783597 28.518401,14.7522829 28.18,14.95 C27.48,15.36 27,15.1 27,14.31 C27.0148886,13.4902055 27.4489778,12.7352677 28.15,12.31 C28.69,12 29.17,12.18 29.17,12.89 Z M27.54,13.74 L28.61,13.12 C28.61,12.82 28.43,12.68 28.1,12.87 C27.785546,13.0561049 27.5750497,13.3773888 27.53,13.74 L27.54,13.74 Z" id="Shape"></path>
                    <polygon id="Shape" points="30.68 9.5 30.69 13.42 30.14 13.74 30.13 10.73 29.71 11.34 29.41 10.97 30.28 9.73"></polygon>
                    <path d="M32.31,9.91 C32.95,9.54 33.19,9.79 33.19,10.45 L33.19,12 L32.7,12.28 L32.7,12 C32.562319,12.2926552 32.3391791,12.5367144 32.06,12.7 C31.66,12.93 31.38,12.81 31.37,12.32 C31.3884466,11.7862092 31.6893408,11.3024931 32.16,11.05 C32.3070605,10.9511275 32.4834049,10.9052779 32.66,10.92 C32.66,10.49 32.58,10.32 32.25,10.51 C32.0325216,10.6465367 31.8397864,10.818984 31.68,11.02 L31.54,10.63 C31.7521569,10.3464323 32.0128475,10.1026696 32.31,9.91 Z M32.67,11.54 L32.67,11.28 C32.5351993,11.2634128 32.3991748,11.2992087 32.29,11.38 C32.0919434,11.4819156 31.9598644,11.6781474 31.94,11.9 C31.94,12.09 32.07,12.12 32.25,12.01 C32.4370053,11.9027055 32.5843264,11.7378462 32.67,11.54 Z" id="Shape"></path>
                    <path d="M34.75,8.49 C35.11,8.28 35.43,8.2 35.63,8.32 L35.36,8.99 C35.1830333,8.90689573 34.974408,8.93007631 34.82,9.05 C34.4591909,9.28442499 34.2352836,9.67999458 34.22,10.11 C34.22,10.56 34.52,10.66 34.85,10.47 C35.089945,10.3142044 35.2834103,10.0965559 35.41,9.84 L35.67,10.16 C35.4770467,10.5483116 35.1746004,10.8716163 34.8,11.09 C34.09,11.5 33.62,11.24 33.62,10.45 C33.6510098,9.65047269 34.0736191,8.91745112 34.75,8.49 Z" id="Shape"></path>
                    <path d="M37,7.2 C37.36,6.99 37.68,6.91 37.88,7.03 L37.62,7.69 C37.4377673,7.61025118 37.2264469,7.63714651 37.07,7.76 C36.7091909,7.99442499 36.4852836,8.38999458 36.47,8.82 C36.47,9.27 36.77,9.37 37.1,9.18 C37.339945,9.02420437 37.5334103,8.8065559 37.66,8.55 L37.92,8.87 C37.7270467,9.2583116 37.4246004,9.5816163 37.05,9.8 C36.34,10.21 35.87,9.95 35.87,9.16 C35.9010098,8.36047269 36.3236191,7.62745112 37,7.2 Z" id="Shape"></path>
                    <path d="M2.67,34.29 C3,34.18 3.28,34.37 3.29,34.88 C3.23866665,35.644874 2.79634967,36.3291421 2.12,36.69 C1.46,37.07 0.94,36.96 0.94,36.3 C0.950857792,35.7976328 1.15924464,35.3197802 1.52,34.97 C1.25,34.97 1.03,34.78 1.03,34.32 C1.09838388,33.6264349 1.50174215,33.0101931 2.11,32.67 C2.72,32.32 3.2,32.46 3.2,33.07 C3.17270731,33.5274675 2.98913544,33.9616856 2.68,34.3 L2.67,34.29 Z M2.1,36 C2.44409458,35.8329439 2.67012254,35.4919865 2.69,35.11 C2.69,34.74 2.45,34.69 2.16,34.86 L2.08,34.86 C1.76516607,35.0423385 1.55967475,35.3673884 1.53,35.73 C1.53,36.04 1.74,36.16 2.11,35.95 L2.1,36 Z M2.11,33.21 C1.82851435,33.3673411 1.64733025,33.6579906 1.63,33.98 C1.63,34.24 1.81,34.38 2.08,34.23 L2.18,34.17 C2.4322115,33.9959347 2.59068772,33.7158372 2.61,33.41 C2.61,33.09 2.4,33.04 2.12,33.2 L2.11,33.21 Z" id="Shape"></path>
                    <path d="M5.79,30.59 L5.79,31.23 L4.67,31.88 L4.57,32.72 L4.77,32.58 C5.37,32.23 5.84,32.44 5.84,33.2 C5.81923571,34.0207315 5.38208719,34.7744358 4.68,35.2 C4.32,35.41 3.89,35.46 3.68,35.2 L4,34.52 C4.20268474,34.6785246 4.48731526,34.6785246 4.69,34.52 C5.03546618,34.3044344 5.24672238,33.9271912 5.25,33.52 C5.25,33.13 4.98,32.99 4.52,33.25 C4.3164412,33.365935 4.12829406,33.5070454 3.96,33.67 L4.18,31.46 L5.79,30.59 Z" id="Shape"></path>
                    <path d="M7.63,31 C8.15,30.7 8.63,30.93 8.63,31.65 C8.60516104,32.4304881 8.19745323,33.1486523 7.54,33.57 C6.79,34 6.32,33.57 6.32,32.83 C6.39342448,31.4715385 6.99230419,30.1948848 7.99,29.27 L8.22,29.63 C7.6009338,30.2008685 7.17166431,30.9477276 6.99,31.77 C7.11899787,31.4535801 7.34250063,31.1846784 7.63,31 Z M7.49,32.92 C7.80651679,32.7210805 7.99901283,32.3738327 8,32 C8,31.64 7.81,31.46 7.45,31.67 C7.17092903,31.8536745 6.96555608,32.1298657 6.87,32.45 C6.87,32.9 7.09,33.12 7.5,32.89 L7.49,32.92 Z" id="Shape"></path>
                    <path d="M11,27.58 L11,28.22 L9.88,28.87 L9.78,29.71 L9.98,29.57 C10.58,29.22 11.05,29.43 11.05,30.19 C11.0292357,31.0107315 10.5920872,31.7644358 9.89,32.19 C9.53,32.4 9.1,32.45 8.89,32.19 L9.21,31.51 C9.41268474,31.6685246 9.69731526,31.6685246 9.9,31.51 C10.2454662,31.2944344 10.4567224,30.9171912 10.46,30.51 C10.46,30.12 10.19,29.98 9.73,30.24 C9.5264412,30.355935 9.33829406,30.4970454 9.17,30.66 L9.39,28.45 L11,27.58 Z" id="Shape"></path>
                    <path d="M12.38,28.12 C13.02,27.75 13.26,27.99 13.26,28.66 L13.26,30.19 L12.77,30.47 L12.77,30.18 C12.6302685,30.4712761 12.4076222,30.7147954 12.13,30.88 C11.73,31.11 11.45,30.99 11.44,30.5 C11.4564007,29.9655886 11.7578798,29.4809324 12.23,29.23 C12.3767227,29.1303797 12.5533357,29.0844603 12.73,29.1 C12.73,28.67 12.65,28.5 12.32,28.69 C12.1042935,28.8248562 11.9118098,28.9937015 11.75,29.19 L11.61,28.8 C11.8266523,28.5316947 12.0869625,28.3018104 12.38,28.12 Z M12.74,29.75 L12.74,29.49 C12.6049942,29.4700789 12.4677122,29.5062057 12.36,29.59 C12.1619434,29.6919156 12.0298644,29.8881474 12.01,30.11 C12.01,30.3 12.14,30.33 12.32,30.22 C12.5070053,30.1127055 12.6543264,29.9478462 12.74,29.75 Z" id="Shape"></path>
                    <path d="M14.86,25.31 C15.64,24.86 16,25.45 16,26.65 C16.1241058,27.6695988 15.6977208,28.6784562 14.88,29.3 C14.1,29.75 13.73,29.16 13.73,27.97 C13.6065506,26.9454336 14.0368776,25.9324513 14.86,25.31 Z M14.86,28.7 C15.25,28.48 15.4,27.96 15.39,26.99 C15.38,26.02 15.23,25.68 14.84,25.91 C14.45,26.14 14.3,26.67 14.3,27.62 C14.3,28.57 14.49,28.91 14.85,28.7 L14.86,28.7 Z" id="Shape"></path>
                    <path d="M17.51,25.16 C17.87,24.95 18.19,24.87 18.39,24.99 L18.13,25.65 C17.9474553,25.5724617 17.7373028,25.5992084 17.58,25.72 C17.2191909,25.954425 16.9952836,26.3499946 16.98,26.78 C16.98,27.23 17.29,27.32 17.61,27.13 C17.8563744,26.9744782 18.0539268,26.752665 18.18,26.49 L18.44,26.81 C18.2502677,27.2056936 17.9475199,27.5362803 17.57,27.76 C16.86,28.17 16.39,27.91 16.39,27.12 C16.4170793,26.3218917 16.8361469,25.5885233 17.51,25.16 Z" id="Shape"></path>
                    <path d="M19.79,22.46 C20.44,22.08 20.79,22.4 20.79,22.92 C20.6020664,24.0355299 20.1532051,25.090868 19.48,26 L20.9,25.18 L20.9,25.77 L18.76,27 L18.76,26.49 C19.4194691,25.5550481 19.8946203,24.5029277 20.16,23.39 C20.16,23.08 20.01,22.97 19.73,23.13 C19.4589117,23.3180339 19.2807148,23.6126043 19.24,23.94 L18.77,23.94 C18.8736898,23.3198121 19.2473393,22.7776539 19.79,22.46 Z" id="Shape"></path>
                    <path d="M22.22,22.44 C22.87,22.06 23.1,22.31 23.1,22.98 L23.1,24.51 L22.61,24.79 L22.61,24.5 C22.4712794,24.7919574 22.2483912,25.0357414 21.97,25.2 C21.57,25.43 21.29,25.31 21.28,24.82 C21.2969277,24.280468 21.6024452,23.79164 22.08,23.54 C22.224577,23.4446198 22.3977103,23.4022198 22.57,23.42 C22.57,22.99 22.49,22.82 22.16,23.01 C21.944188,23.1447144 21.7516829,23.3135785 21.59,23.51 L21.45,23.12 C21.6656607,22.8507477 21.9261455,22.6207092 22.22,22.44 Z M22.58,24.07 L22.58,23.81 C22.4449942,23.7900789 22.3077122,23.8262057 22.2,23.91 C22.0019434,24.0119156 21.8698644,24.2081474 21.85,24.43 C21.85,24.62 21.99,24.64 22.16,24.54 C22.3470053,24.4327055 22.4943264,24.2678462 22.58,24.07 Z" id="Shape"></path>
                    <path d="M24.67,21 C25.03,20.79 25.35,20.71 25.55,20.83 L25.29,21.49 C25.1074553,21.4124617 24.8973028,21.4392084 24.74,21.56 C24.3791909,21.794425 24.1552836,22.1899946 24.14,22.62 C24.14,23.07 24.45,23.16 24.77,22.97 C25.0123258,22.816992 25.2064578,22.5985934 25.33,22.34 L25.6,22.65 C25.4102677,23.0456936 25.1075199,23.3762803 24.73,23.6 C24.02,24.01 23.55,23.75 23.55,22.96 C23.5770793,22.1618917 23.9961469,21.4285233 24.67,21 Z" id="Shape"></path>
                </g>
                <g id="Group" opacity="0.9" transform="translate(74.000000, 139.000000)" fill="#3FA9F5" fill-rule="nonzero">
                    <polygon id="Shape" points="2.19 15.7 2.2 19.62 1.64 19.94 1.64 16.94 1.22 17.55 0.92 17.18 1.79 15.93"></polygon>
                    <path d="M4.72,16.16 C5.06,16.05 5.34,16.24 5.34,16.74 C5.286798,17.5042525 4.84501578,18.1876934 4.17,18.55 C3.51,18.93 2.99,18.82 2.99,18.16 C3.00298257,17.6581024 3.21103446,17.1810178 3.57,16.83 C3.31,16.83 3.08,16.64 3.08,16.19 C3.14502479,15.4952554 3.5493171,14.8775866 4.16,14.54 C4.77,14.19 5.25,14.32 5.25,14.94 C5.22262419,15.3964174 5.03491704,15.828498 4.72,16.16 Z M4.16,17.91 C4.51185391,17.7519491 4.74143843,17.4056267 4.75,17.02 C4.75,16.66 4.51,16.61 4.22,16.78 L4.14,16.78 C3.8239294,16.9610499 3.61798021,17.286824 3.59,17.65 C3.59,17.96 3.8,18.08 4.17,17.87 L4.16,17.91 Z M4.17,15.13 C3.88559307,15.2892001 3.70395233,15.5843663 3.69,15.91 C3.69,16.17 3.87,16.31 4.14,16.15 L4.24,16.09 C4.49661344,15.9246536 4.65695319,15.6449913 4.67,15.34 C4.67,15.02 4.46,14.96 4.17,15.13 Z" id="Shape"></path>
                    <path d="M6.23,16.46 C6.29984649,16.4007025 6.39913102,16.3909014 6.47922371,16.4353973 C6.5593164,16.4798933 6.60344692,16.5693694 6.59,16.66 C6.5806825,16.921723 6.44691231,17.1632526 6.23,17.31 C5.99,17.45 5.84,17.31 5.84,17.09 C5.86385128,16.830407 6.00827829,16.5971018 6.23,16.46 Z" id="Shape"></path>
                    <polygon id="Shape" points="8.17 12.25 8.18 16.16 7.62 16.49 7.61 13.49 7.2 14.09 6.9 13.73 7.77 12.48"></polygon>
                    <path d="M10.7,12.71 C11.04,12.6 11.32,12.79 11.32,13.29 C11.266798,14.0542525 10.8250158,14.7376934 10.15,15.1 C9.49,15.48 8.97,15.37 8.97,14.71 C8.98298257,14.2081024 9.19103446,13.7310178 9.55,13.38 C9.29,13.38 9.06,13.19 9.06,12.74 C9.12502479,12.0452554 9.5293171,11.4275866 10.14,11.09 C10.74,10.74 11.23,10.87 11.23,11.49 C11.2070748,11.9455215 11.0227375,12.3780051 10.71,12.71 L10.7,12.71 Z M10.14,14.46 C10.4918539,14.3019491 10.7214384,13.9556267 10.73,13.57 C10.73,13.21 10.49,13.16 10.19,13.33 L10.11,13.33 C9.7939294,13.5110499 9.58798021,13.836824 9.56,14.2 C9.56,14.51 9.77,14.63 10.14,14.42 L10.14,14.46 Z M10.14,11.68 C9.85559307,11.8392001 9.67395233,12.1343663 9.66,12.46 C9.66,12.72 9.84,12.86 10.11,12.7 L10.2,12.65 C10.4533719,12.4801862 10.6153892,12.2040204 10.64,11.9 C10.64,11.58 10.43,11.52 10.14,11.69 L10.14,11.68 Z" id="Shape"></path>
                    <path d="M12.82,9.53 C13.46,9.16 13.82,9.48 13.82,10 C13.6395134,11.1094162 13.2010835,12.1609629 12.54,13.07 L13.96,12.25 L13.96,12.84 L11.82,14.07 L11.82,13.56 C12.4794691,12.6250481 12.9546203,11.5729277 13.22,10.46 C13.22,10.14 13.07,10.03 12.79,10.19 C12.5189117,10.3780339 12.3407148,10.6726043 12.3,11 L11.83,11 C11.9308,10.3894556 12.2921344,9.85292877 12.82,9.53 Z" id="Shape"></path>
                    <path d="M15.72,9.39 C16.24,9.09 16.72,9.32 16.72,10.04 C16.6974518,10.8445201 16.268151,11.5826162 15.58,12 C14.82,12.44 14.36,12 14.36,11.26 C14.4147011,9.89456382 15.0036774,8.60528041 16,7.67 L16.23,8.02 C15.6119435,8.59167403 15.1828686,9.3381946 15,10.16 C15.1505705,9.83232882 15.40316,9.56219842 15.72,9.39 Z M15.58,11.31 C15.8823075,11.1177531 16.0696063,10.7881071 16.08,10.43 C16.08,10.07 15.89,9.9 15.53,10.11 C15.250929,10.2936745 15.0455561,10.5698657 14.95,10.89 C14.95,11.33 15.18,11.55 15.58,11.32 L15.58,11.31 Z" id="Shape"></path>
                    <path d="M18,6.5 C18.58,6.16 19,6.31 19,6.93 C18.9939132,7.3921684 18.8072825,7.83362166 18.48,8.16 C18.91,7.99 19.13,8.25 19.13,8.72 C19.0915429,9.47014785 18.6730205,10.1488329 18.02,10.52 C17.5,10.82 17.12,10.78 16.94,10.52 L17.26,9.87 C17.4505095,10.0771938 17.7682165,10.1033066 17.99,9.93 C18.3138117,9.76726037 18.5242335,9.44206299 18.54,9.08 C18.54,8.72 18.3,8.66 17.91,8.89 L17.67,9.03 L17.67,8.39 L17.89,8.26 C18.1911947,8.08282808 18.3857198,7.7685952 18.41,7.42 C18.41,7.14 18.27,7.02 17.97,7.19 C17.6754534,7.37562758 17.4504666,7.65334564 17.33,7.98 L17.02,7.71 C17.1945538,7.20416216 17.5414633,6.77583513 18,6.5 Z" id="Shape"></path>
                    <polygon id="Shape" points="22.89 3.76 22.89 4.4 21.52 5.19 21.53 6.17 22.75 5.46 22.75 6.1 21.53 6.81 21.53 7.82 22.95 7 22.95 7.64 20.94 8.8 20.93 4.9"></polygon>
                    <polygon id="Shape" points="26.1 1.91 26.1 2.55 25 3.19 25 6.45 24.41 6.8 24.4 3.53 23.3 4.17 23.3 3.53"></polygon>
                    <polygon id="Shape" points="29.36 0.03 29.37 3.93 28.78 4.27 28.77 2.61 27.22 3.51 27.22 5.17 26.63 5.51 26.62 1.61 27.21 1.27 27.21 2.87 28.77 1.97 28.77 0.37"></polygon>
                </g>
                <g id="graph" transform="translate(135.000000, 111.000000)" fill-rule="nonzero">
                    <path d="M6.12,29.48 L55,1.27 C55.9950409,0.567244088 57.2931407,0.460026407 58.39,0.99 L60.75,2.2 C61.94,2.79 62.75,4.3 62.75,6.5 L62.75,47.29 C62.75,51.14 60.41,55.6 57.53,57.29 L8.63,85.5 C7.65194006,86.1907436 6.38142172,86.31247 5.29,85.82 L2.87,84.57 C1.68,83.98 0.92,82.47 0.92,80.27 L0.92,39.46 C0.9,35.61 3.24,31.15 6.12,29.48 Z" id="Shape" fill="#C1D0DD"></path>
                    <path d="M8.6,85.48 L57.5,57.27 C60.38,55.6 62.72,51.14 62.72,47.27 L62.72,6.49 C62.72,2.64 60.38,0.88 57.5,2.54 L8.6,30.75 C5.72,32.42 3.38,36.88 3.38,40.75 L3.38,81.54 C3.38,85.37 5.72,87.14 8.6,85.48 Z" id="Shape" fill="url(#linearGradient-5)"></path>
                    <polygon id="Shape" fill="url(#linearGradient-6)" points="66.71 25.03 54.98 33.86 49.38 30.2 45.76 27.99 28.62 49.83 17.35 50.57 2.57 65.93 2.57 71.36 6.18 73.57 20.87 58.3 32.55 57.53 48.53 37.18 53.25 40.25 56.86 42.46 70.32 32.33 70.32 27.24"></polygon>
                    <polygon id="Shape" fill="url(#linearGradient-6)" points="70.32 27.24 70.32 32.33 56.86 42.46 48.6 37.08 32.55 57.53 20.87 58.3 6.18 73.57 6.18 68.14 20.96 52.78 32.24 52.04 49.38 30.2 58.49 36.15"></polygon>
                    <polygon id="Shape" fill="url(#linearGradient-6)" points="17.35 50.57 20.96 52.78 32.24 52.04 28.62 49.83"></polygon>
                </g>
            </g>
        </g>
    </g>
</svg>