<?xml version="1.0" encoding="UTF-8"?>
<svg width="268px" height="268px" viewBox="0 0 268 268" version="1.1" xmlns="http://www.w3.org/2000/svg" xmlns:xlink="http://www.w3.org/1999/xlink">
    <!-- Generator: sketchtool 49.3 (51167) - http://www.bohemiancoding.com/sketch -->
    <title>A7DC28F5-1B71-4398-BC3F-63273DA24A1F</title>
    <desc>Created with sketchtool.</desc>
    <defs>
        <linearGradient x1="0%" y1="49.5474707%" x2="100%" y2="49.5474707%" id="linearGradient-1">
            <stop stop-color="#E5EDF6" offset="0%"></stop>
            <stop stop-color="#E6F0FA" offset="100%"></stop>
        </linearGradient>
        <linearGradient x1="0%" y1="49.9765615%" x2="99.9973916%" y2="49.9765615%" id="linearGradient-2">
            <stop stop-color="#3C89EE" offset="0%"></stop>
            <stop stop-color="#98C1F1" offset="26%"></stop>
            <stop stop-color="#7AB5F4" offset="48%"></stop>
            <stop stop-color="#97C9FE" offset="100%"></stop>
        </linearGradient>
        <radialGradient cx="50.0224729%" cy="49.9892479%" fx="50.0224729%" fy="49.9892479%" r="70.7270267%" gradientTransform="translate(0.500225,0.499892),scale(0.576803,1.000000),translate(-0.500225,-0.499892)" id="radialGradient-3">
            <stop stop-color="#1768D4" offset="0%"></stop>
            <stop stop-color="#5EA0F0" offset="100%"></stop>
        </radialGradient>
        <linearGradient x1="16256%" y1="9141%" x2="24314%" y2="9141%" id="linearGradient-4">
            <stop stop-color="#3C89EE" offset="0%"></stop>
            <stop stop-color="#98C1F1" offset="26%"></stop>
            <stop stop-color="#7AB5F4" offset="48%"></stop>
            <stop stop-color="#97C9FE" offset="100%"></stop>
        </linearGradient>
        <radialGradient cx="20286%" cy="7447%" fx="20286%" fy="7447%" r="5703.19523%" gradientTransform="translate(202.860000,74.470000),scale(0.576694,1.000000),translate(-202.860000,-74.470000)" id="radialGradient-5">
            <stop stop-color="#1768D4" offset="0%"></stop>
            <stop stop-color="#5EA0F0" offset="100%"></stop>
        </radialGradient>
        <linearGradient x1="16256%" y1="6606%" x2="24314%" y2="6606%" id="linearGradient-6">
            <stop stop-color="#3C89EE" offset="0%"></stop>
            <stop stop-color="#98C1F1" offset="26%"></stop>
            <stop stop-color="#7AB5F4" offset="48%"></stop>
            <stop stop-color="#97C9FE" offset="100%"></stop>
        </linearGradient>
        <linearGradient x1="0.0482594005%" y1="49.9892479%" x2="99.9842828%" y2="49.9892479%" id="linearGradient-7">
            <stop stop-color="#7AB4F4" offset="0%"></stop>
            <stop stop-color="#DFEDFA" offset="100%"></stop>
        </linearGradient>
        <linearGradient x1="53.7040984%" y1="50.3107054%" x2="8.83203275%" y2="13.8448357%" id="linearGradient-8">
            <stop stop-color="#6DACEF" offset="0%"></stop>
            <stop stop-color="#97C9FE" offset="100%"></stop>
        </linearGradient>
        <linearGradient x1="-25.899452%" y1="97.7016194%" x2="133.118894%" y2="-2.22456745%" id="linearGradient-9">
            <stop stop-color="#7AB4F4" offset="0%"></stop>
            <stop stop-color="#DAEAFA" offset="95%"></stop>
            <stop stop-color="#DFEDFA" offset="100%"></stop>
        </linearGradient>
        <linearGradient x1="6328%" y1="2496%" x2="7203%" y2="2496%" id="linearGradient-10">
            <stop stop-color="#7AB4F4" offset="0%"></stop>
            <stop stop-color="#DFEDFA" offset="100%"></stop>
        </linearGradient>
        <linearGradient x1="6464%" y1="10793%" x2="7067%" y2="10793%" id="linearGradient-11">
            <stop stop-color="#7AB4F4" offset="0%"></stop>
            <stop stop-color="#DFEDFA" offset="100%"></stop>
        </linearGradient>
    </defs>
    <g id="Symbols" stroke="none" stroke-width="1" fill="none" fill-rule="evenodd">
        <g id="how-icons/3">
            <g id="how-3-12">
                <path d="M158.93,174.1 C146.8,181.1 127.06,181.1 114.85,174.02 C102.64,166.94 102.58,155.58 114.71,148.57 C126.84,141.56 146.58,141.57 158.79,148.65 C171,155.73 171.06,167.09 158.93,174.1 Z" id="Shape" fill="#295391" opacity="0.1"></path>
                <path d="M45.33,214 L200.15,123.91 C200.760936,123.599335 201.508152,123.820657 201.851346,124.41393 C202.19454,125.007203 202.01388,125.765278 201.44,126.14 L46.62,216.2 L45.33,214 Z" id="Shape" fill="#D5DFED" fill-rule="nonzero"></path>
                <path d="M131.57,160.76 C131.342061,160.762222 131.117664,160.703534 130.92,160.59 L72.37,126.4 C68.5762902,124.188389 66.2394585,120.131283 66.23,115.74 L66.23,97.6 C66.23,96.8875527 66.8075527,96.31 67.52,96.31 C68.2324473,96.31 68.81,96.8875527 68.81,97.6 L68.81,115.73 C68.816426,119.206719 70.666275,122.419214 73.67,124.17 L132.23,158.35 C132.728981,158.645442 132.9695,159.237525 132.817909,159.797246 C132.666318,160.356967 132.159877,160.746749 131.58,160.75 L131.57,160.76 Z" id="Shape" fill="#D5DFED" fill-rule="nonzero"></path>
                <rect id="Rectangle-path" x="0" y="0" width="268" height="268"></rect>
                <path d="M250.42,201.76 C262.21,208.56 263.53,217.01 252.79,223.25 C245.08,227.73 236.08,228.86 226.08,226.6 L225.79,226.77 C232.87,232.56 230.79,239.13 222.66,243.84 C210.07,251.16 192.54,249.96 179.87,242.65 C169.35,236.58 166.28,229.49 169.57,223.37 L184.15,222.29 C182.52,227.23 184.4,232.29 190.4,235.73 C197.77,239.98 205.79,239.64 210.96,236.64 C217.21,233.01 215.81,228.25 207.85,223.64 L202.94,220.81 L214.16,214.29 L218.58,216.84 C224.18,220.07 232.71,220.92 238.58,217.52 C243.46,214.69 244.03,211.05 238.14,207.65 C232.64,204.47 226.27,203.51 217.85,204.42 L219.46,196.2 C230.112753,194.346341 241.077892,196.315532 250.42,201.76 Z" id="Shape" fill="#3DA4ED" fill-rule="nonzero"></path>
                <g id="wallet" transform="translate(13.000000, 164.000000)" fill-rule="nonzero">
                    <path d="M114,33 L105.73,37.78 L114,33 L114,31.05 C114,31.05 116.4,29.59 117.91,30.37 L66.21,0.53 C65.7340664,0.26325307 65.1954694,0.128603816 64.65,0.14 C63.7230236,0.172205157 62.8202688,0.444409847 62.03,0.93 L3.2,34.93 C2.33261592,35.3845494 1.61410804,36.0787599 1.13,36.93 C0.914657325,37.3327282 0.804582821,37.7833457 0.81,38.24 L0.81,40.42 C0.92263685,41.4444033 1.55320722,42.3392846 2.48,42.79 L6.14,44.9 L3.2,46.6 C2.33261592,47.0545494 1.61410804,47.7487599 1.13,48.6 C0.892915555,48.995256 0.771641467,49.4491676 0.78,49.91 C0.863220929,50.9710934 1.51343943,51.9043482 2.48,52.35 L45.25,77.04 C47.78,78.5 52.25,78.32 55.14,76.62 L113.44,42.99 C113.61565,42.9148939 113.786037,42.8280302 113.95,42.73 C116.422197,41.1330992 117.980012,38.4487503 118.14,35.51 C118.14,32.74 116.28,31.68 114,33 Z" id="Shape" fill="#BF762E"></path>
                    <path d="M119.84,33.62 C119.8545,33.5171754 119.8545,33.4128246 119.84,33.31 C119.825934,33.1506981 119.79578,32.9932289 119.75,32.84 C119.762501,32.7840227 119.762501,32.7259773 119.75,32.67 C119.715438,32.5152878 119.665178,32.3645067 119.6,32.22 C119.6,32.16 119.6,32.1 119.54,32.06 C119.46573,31.898678 119.382259,31.7417532 119.29,31.59 L119.29,31.52 C119.039323,31.1131559 118.696844,30.770677 118.29,30.52 L118.22,30.52 L66.29,0.52 C65.8140664,0.25325307 65.2754694,0.118603816 64.73,0.13 C63.8030236,0.162205157 62.9002688,0.434409847 62.11,0.92 L3.28,34.92 C2.57877468,35.3016153 1.96553339,35.8262773 1.48,36.46 C1.37994581,36.5912562 1.29287072,36.731916 1.22,36.88 C0.982915555,37.275256 0.861641467,37.7291676 0.87,38.19 L0.87,40.37 C0.98263685,41.3944033 1.61320722,42.2892846 2.54,42.74 L6.19,44.85 L45.3,67.43 C47.83,68.89 52.3,68.71 55.19,67.01 L104.42,38.61 L105.74,37.84 L114,33 C114.790338,32.4380089 115.803591,32.2927263 116.72,32.61 C116.75867,32.595413 116.80133,32.595413 116.84,32.61 C117.790562,33.1767357 118.316293,34.2517369 118.18,35.35 C118.022438,38.2816096 116.467732,40.9595723 114,42.55 L113.48,42.86 L109.64,45.07 L55.13,76.5 C52.21,78.2 47.77,78.38 45.24,76.92 L2.47,52.23 C1.50343943,51.7843482 0.853220929,50.8510934 0.77,49.79 L0.77,52 C0.88263685,53.0244033 1.51320722,53.9192846 2.44,54.37 L45.24,79 C47.77,80.46 52.24,80.28 55.13,78.58 L113.9,44.65 L113.96,44.65 C117.451405,42.3509294 119.647396,38.5339109 119.88,34.36 C119.88216,34.1127394 119.868801,33.865587 119.84,33.62 Z" id="Shape" fill="#FFAE43"></path>
                    <path d="M113.95,30.92 C115.0924,30.1295995 116.537348,29.9152594 117.86,30.34 L66.21,0.53 C65.7340664,0.26325307 65.1954694,0.128603816 64.65,0.14 C63.7230236,0.172205157 62.8202688,0.444409847 62.03,0.93 L3.2,34.93 C2.98959554,35.0545152 2.78901181,35.1949238 2.6,35.35 C2.46430148,35.4351289 2.33404829,35.528644 2.21,35.63 C2.0862199,35.7393295 1.9693295,35.8562199 1.86,35.98 C1.71552306,36.1191897 1.57865765,36.2660696 1.45,36.42 L1.39,36.48 C1.28994581,36.6112562 1.20287072,36.751916 1.13,36.9 C1.13,36.9 1.13,36.96 1.13,36.97 C1.13,36.98 1.03,37.2 0.98,37.3 C0.93,37.4 0.89,37.59 0.86,37.72 C0.853899778,37.8265794 0.853899778,37.9334206 0.86,38.04 C0.86,38.1 0.86,38.14 0.86,38.2 C0.86,38.26 0.86,38.33 0.86,38.4 C0.868317654,38.5224381 0.891831471,38.6433663 0.93,38.76 C0.96503782,38.8857007 1.0154167,39.00661 1.08,39.12 C1.12389403,39.2294237 1.17397487,39.3362628 1.23,39.44 C1.33114944,39.5835601 1.44137428,39.7205061 1.56,39.85 C1.62279346,39.9267632 1.68955095,40.0001964 1.76,40.07 C1.989379,40.2843422 2.24469916,40.4691134 2.52,40.62 L21.58,51.62 L45.28,65.31 C45.5,65.43 45.73,65.53 45.98,65.63 C49.0111359,66.7045565 52.3562543,66.4391286 55.18,64.9 L102.73,37.46 L113.95,30.92 Z" id="Shape" fill="#FFC56D"></path>
                    <path d="M37.22,50.51 C27.63,52.82 19.12,59.09 19,63.44 C18.9557408,63.7082245 18.9256989,63.9786021 18.91,64.25 L11.71,60.42 C10.55,59.72 10.42,59.51 9.85,59.16 L9.65,59.03 C4.5,55.51 14.99,43.87 23.56,42.62 C25.19,42.39 27.47,41.91 29.13,42.87 L36.78,47.29 C38.44,48.24 38.81,50.11 37.22,50.51 Z" id="Shape" fill="#FF931E"></path>
                    <path d="M31.23,46.18 C31.174043,45.4264842 30.6982091,44.7688276 30,44.48 C28.144007,43.576997 25.975993,43.576997 24.12,44.48 C23.4532957,44.7613367 22.9905614,45.3808653 22.91,46.1 L22.91,47 C22.983857,47.7349329 23.4567694,48.3693275 24.14,48.65 C25.995993,49.553003 28.164007,49.553003 30.02,48.65 C30.7043583,48.358577 31.1704536,47.7114364 31.23,46.97 L31.23,46.18 Z" id="Shape" fill="url(#linearGradient-1)"></path>
                    <path d="M30,47.75 C28.144007,48.653003 25.975993,48.653003 24.12,47.75 C22.49,46.84 22.48,45.38 24.12,44.48 C25.975993,43.576997 28.144007,43.576997 30,44.48 C31.63,45.38 31.64,46.85 30,47.75 Z" id="Shape" fill="#FFFFFF"></path>
                </g>
                <path d="M156.62,170.67 C162.03,167.67 164.86,163.67 165.1,159.67 L165.1,152.09 L162.18,151.91 C160.698952,150.196342 158.941295,148.742895 156.98,147.61 C146.05,141.08 127.85,140.87 116.52,147.15 C114.993004,147.983755 113.566967,148.99037 112.27,150.15 C111.901635,150.157915 111.533343,150.13113 111.17,150.07 C110.7,149.81 108,150.95 108,150.95 L107.91,158.29 L107.91,158.98 C107.97,163.07 110.69,167.15 116.09,170.29 C127.17,176.74 145.38,176.94 156.54,170.75" id="Shape" fill="#E5C22B" fill-rule="nonzero"></path>
                <path d="M116.62,162.85 L116.78,162.58 C122.18,165.72 129.36,167.36 136.54,167.44 C143.72,167.52 150.93,166 156.37,163 C160.24,160.86 162.73,158.21 163.87,155.43 C165.017393,152.675631 164.802559,149.542008 163.29,146.97 C161.711097,144.35445 159.47316,142.199273 156.8,140.72 C151.48,137.53 144.34,135.88 137.16,135.8 C129.98,135.72 122.74,137.21 117.22,140.27 C113.32,142.43 110.8,145.09 109.63,147.86 C108.457138,150.586702 108.650166,153.708554 110.15,156.27 C111.757252,158.919682 114.047127,161.088673 116.78,162.55 L116.62,162.82 L116.46,163.09 C113.626123,161.57293 111.253046,159.320752 109.59,156.57 C107.987803,153.827578 107.783664,150.487111 109.04,147.57 C110.28,144.63 112.91,141.89 116.9,139.68 C122.55,136.55 129.9,135.05 137.15,135.13 C144.4,135.21 151.66,136.88 157.15,140.13 C159.920734,141.666113 162.238364,143.90442 163.87,146.62 C165.473084,149.358457 165.698907,152.690275 164.48,155.62 C163.27,158.57 160.66,161.31 156.71,163.5 C151.14,166.59 143.85,168.07 136.57,167.99 C129.29,167.91 122.03,166.26 116.5,163.04 L116.66,162.77" id="Shape" fill="#FDE480" fill-rule="nonzero"></path>
                <path d="M116.26,162.48 C127.34,168.93 145.55,169.13 156.71,162.94 C167.87,156.75 168.07,146.34 157.15,139.8 C146.23,133.26 128.02,133.06 116.7,139.34 C105.38,145.62 105.18,156.03 116.26,162.48" id="Shape" fill="#FBDB45" fill-rule="nonzero"></path>
                <g id="Group" transform="translate(120.000000, 141.000000)" fill-rule="nonzero">
                    <polygon id="Shape" fill="#917F28" points="23.31 2.73 23.3 3.53 22.63 1.95 22.65 1.15"></polygon>
                    <g transform="translate(23.000000, 2.000000)" id="Shape">
                        <path d="M0.35,0.91 L0.35,1.71 C0.35,1.71 0.35,1.71 0.35,1.71 L0.35,0.91 C0.35,0.91 0.35,0.91 0.35,0.91" fill="#837224"></path>
                        <path d="M0.35,0.88 L0.35,1.68 C0.354709263,1.64348454 0.354709263,1.60651546 0.35,1.57 L0.35,0.77 C0.354709263,0.806515459 0.354709263,0.843484541 0.35,0.88" fill="#887625"></path>
                        <polyline fill="#8D7B27" points="0.33 0.78 0.33 1.58 0.33 1.58 0.33 0.78 0.33 0.78"></polyline>
                    </g>
                    <polygon id="Shape" fill="#B29B31" points="32.78 5.28 32.76 6.08 28.03 6.74 28.04 5.93"></polygon>
                    <polygon id="Shape" fill="#B29B31" points="24.85 6.38 24.83 7.18 18.93 8 18.94 7.2"></polygon>
                    <polygon id="Shape" fill="#917F28" points="5.38 7.3 5.37 8.1 3.87 4.54 3.88 3.74"></polygon>
                    <polygon id="Shape" fill="#917F28" points="25.56 8.06 25.54 8.86 24.83 7.18 24.85 6.38"></polygon>
                    <polygon id="Shape" fill="#B29B31" points="15.97 7.61 15.95 8.41 9.26 9.34 9.28 8.54"></polygon>
                    <g transform="translate(25.000000, 8.000000)" id="Shape">
                        <path d="M0.74,0.95 L0.74,1.75 C0.74,1.75 0.74,1.67 0.74,1.62 L0.74,0.82 C0.74,0.82 0.74,0.9 0.74,0.95" fill="#837224"></path>
                        <path d="M0.73,0.82 L0.73,1.62 C0.722504176,1.44024132 0.69226338,1.26215664 0.64,1.09 L0.64,0.29 C0.69226338,0.462156638 0.722504176,0.640241324 0.73,0.82" fill="#887625"></path>
                        <path d="M0.64,0.29 L0.64,1.09 C0.614314562,1.00844773 0.584271368,0.928332546 0.55,0.85 L0.55,0.05 C0.584271368,0.128332546 0.614314562,0.208447731 0.64,0.29" fill="#8D7B27"></path>
                    </g>
                    <polygon id="Shape" fill="#B29B31" points="34.1 8.4 34.08 9.2 29.34 9.86 29.36 9.06"></polygon>
                    <polygon id="Shape" fill="#917F28" points="16.69 9.32 16.68 10.13 15.95 8.41 15.97 7.61"></polygon>
                    <polygon id="Shape" fill="#B29B31" points="6.09 8.98 6.08 9.78 1.31 10.44 1.33 9.64"></polygon>
                    <polygon id="Shape" fill="#917F28" points="1.33 9.64 1.31 10.44 0.61 8.76 0.62 7.96"></polygon>
                    <polygon id="Shape" fill="#917F28" points="6.7 10.42 6.69 11.23 6.08 9.78 6.09 8.98"></polygon>
                    <g transform="translate(16.000000, 9.000000)" id="Shape">
                        <path d="M1,1.65 L1,2.45 C1,2.39 1,2.33333333 1,2.28 L1,1.48 C1,1.54 1,1.59666667 1,1.65" fill="#837224"></path>
                        <path d="M1,1.47 L1,2.27 C0.986143529,2.00516751 0.939109435,1.74312042 0.86,1.49 L0.86,0.69 C0.939109435,0.943120419 0.986143529,1.20516751 1,1.47" fill="#887625"></path>
                        <path d="M0.82,0.69 L0.82,1.49 C0.782923666,1.36783187 0.739531974,1.24767026 0.69,1.13 L0.69,0.33 C0.739531974,0.447670261 0.782923666,0.567831869 0.82,0.69" fill="#8D7B27"></path>
                    </g>
                    <polygon id="Shape" fill="#917F28" points="7.51 12.35 7.5 13.15 7.39 12.91 7.41 12.1"></polygon>
                    <polygon id="Shape" fill="#B29B31" points="7.41 12.1 7.39 12.91 2.63 13.57 2.65 12.76"></polygon>
                    <polygon id="Shape" fill="#917F28" points="2.65 12.76 2.63 13.57 1.92 11.89 1.94 11.08"></polygon>
                    <g transform="translate(20.000000, 10.000000)" id="Shape">
                        <path d="M9.65,0.51 L9.65,1.31 C9.65,1.36333333 9.65,1.41333333 9.65,1.46 C9.59607574,1.99529165 9.40680166,2.50805236 9.1,2.95 C8.84661887,3.33499942 8.52860552,3.6733115 8.16,3.95 L8.16,3.15 C8.52860552,2.8733115 8.84661887,2.53499942 9.1,2.15 C9.40680166,1.70805236 9.59607574,1.19529165 9.65,0.66 C9.65,0.606666667 9.65,0.556666667 9.65,0.51" fill="#837224"></path>
                        <path d="M8.17,3.11 L8.17,3.91 C7.97524572,4.05597868 7.77151095,4.18957525 7.56,4.31 L7.5,4.31 L7.5,3.51 L7.56,3.51 C7.77151095,3.38957525 7.97524572,3.25597868 8.17,3.11" fill="#887625"></path>
                        <path d="M7.49,3.55 L7.49,4.35 C7.31454469,4.44580521 7.13430983,4.53258496 6.95,4.61 L6.95,3.81 C7.13430983,3.73258496 7.31454469,3.64580521 7.49,3.55" fill="#8D7B27"></path>
                        <polyline fill="#927F28" points="7 3.81 7 4.61 6.45 4.81 6.45 4.01 7 3.81"></polyline>
                        <polyline fill="#978329" points="6.41 4 6.41 4.8 5.84 4.96 5.84 4.16 6.41 4"></polyline>
                        <polyline fill="#9C882B" points="5.83 4.16 5.83 4.96 5.21 5.08 5.21 4.28 5.83 4.16"></polyline>
                        <polyline fill="#A18C2C" points="5.22 4.29 5.22 5.09 5.08 5.09 4.51 5.15 4.51 4.35 5.08 4.29 5.22 4.29"></polyline>
                        <path d="M4.5,4.37 L4.5,5.17 C4.1901961,5.18559364 3.8798039,5.18559364 3.57,5.17 L3.57,4.37 C3.8798039,4.38559364 4.1901961,4.38559364 4.5,4.37" fill="#A6912E"></path>
                        <path d="M3.57,4.39 L3.57,5.19 C3.11714734,5.17692912 2.66589808,5.1301329 2.22,5.05 C1.66862619,4.95357912 1.1266116,4.80971105 0.6,4.62 L0.6,3.82 C1.1266116,4.00971105 1.66862619,4.15357912 2.22,4.25 C2.66589808,4.3301329 3.11714734,4.37692912 3.57,4.39" fill="#AB952F"></path>
                    </g>
                    <g transform="translate(18.000000, 13.000000)" id="Shape">
                        <path d="M2.6,0.82 L2.6,1.62 C2.57179281,1.68910888 2.53836279,1.75596893 2.5,1.82 C2.19469137,2.35494536 1.77876729,2.81859843 1.28,3.18 L1.28,2.38 C1.78093312,2.01282153 2.19701274,1.54217409 2.5,1 C2.53836279,0.935968925 2.57179281,0.869108878 2.6,0.8" fill="#837224"></path>
                        <polyline fill="#887625" points="1.28 2.38 1.28 3.18 0.94 3.42 0.94 2.62 1.28 2.38"></polyline>
                    </g>
                    <g transform="translate(7.000000, 12.000000)" id="Shape">
                        <polyline fill="#887625" points="11.93 3.62 11.93 4.42 11.63 4.6 11.63 3.8 11.93 3.62"></polyline>
                        <path d="M11.63,3.8 L11.63,4.6 C11.4481246,4.69961678 11.2612071,4.78973772 11.07,4.87 L11.07,4.07 C11.2612071,3.98973772 11.4481246,3.89961678 11.63,3.8" fill="#8D7B27"></path>
                        <polyline fill="#927F28" points="11.07 4.07 11.07 4.87 10.52 5.07 10.52 4.27 11.07 4.07"></polyline>
                        <polyline fill="#978329" points="10.52 4.27 10.52 5.07 9.95 5.23 9.95 4.43 10.52 4.27"></polyline>
                        <polyline fill="#9C882B" points="10 4.43 10 5.23 9.39 5.35 9.39 4.55 10 4.43"></polyline>
                        <polyline fill="#A18C2C" points="9.35 4.55 9.35 5.35 9.21 5.35 8.65 5.41 8.65 4.61 9.21 4.55 9.35 4.55"></polyline>
                        <path d="M8.64,4.63 L8.64,5.43 C8.33352777,5.44544378 8.02647223,5.44544378 7.72,5.43 L7.72,4.63 C8.02647223,4.64544378 8.33352777,4.64544378 8.64,4.63" fill="#A6912E"></path>
                        <path d="M7.73,4.65 L7.73,5.45 C7.15794558,5.43420715 6.5887014,5.36388875 6.03,5.24 C5.40962037,5.10457171 4.80355024,4.91036139 4.22,4.66 L4.22,3.86 C4.80355024,4.11036139 5.40962037,4.30457171 6.03,4.44 C6.5887014,4.56388875 7.15794558,4.63420715 7.73,4.65" fill="#AB952F"></path>
                        <path d="M4.22,3.86 L4.22,4.66 C3.92456135,4.53115069 3.63734961,4.38420515 3.36,4.22 L3.2,4.13 L3.2,3.33 L3.36,3.42 C3.63734961,3.58420515 3.92456135,3.73115069 4.22,3.86" fill="#A6912E"></path>
                        <path d="M3.21,3.34 L3.21,4.14 C2.93244494,3.97303105 2.66528648,3.78935961 2.41,3.59 L2.41,2.79 C2.66528648,2.98935961 2.93244494,3.17303105 3.21,3.34" fill="#A18C2C"></path>
                        <path d="M2.4,2.78 L2.4,3.58 C2.18204867,3.40979618 1.97497629,3.22610295 1.78,3.03 L1.78,2.23 C1.97497629,2.42610295 2.18204867,2.60979618 2.4,2.78" fill="#9C882B"></path>
                        <path d="M1.78,2.23 L1.78,3.03 L1.62,2.86 C1.48,2.7 1.34666667,2.54 1.22,2.38 L1.22,1.58 C1.34,1.74666667 1.47333333,1.90666667 1.62,2.06 L1.78,2.23" fill="#978329"></path>
                        <path d="M1.23,1.58 L1.23,2.38 C1.03894358,2.12384555 0.868413519,1.85300369 0.72,1.57 L0.72,0.77 C0.868413519,1.05300369 1.03894358,1.32384555 1.23,1.58" fill="#927F28"></path>
                        <path d="M0.71,0.77 L0.71,1.57 C0.636666667,1.43 0.57,1.29 0.51,1.15 L0.51,0.35 C0.57,0.49 0.636666667,0.63 0.71,0.77" fill="#8D7B27"></path>
                    </g>
                    <path d="M18.93,15.62 C18.0998651,16.1218506 17.1728624,16.4422119 16.21,16.56 C15.1544471,16.7056991 14.081517,16.6650834 13.04,16.44 C12.1036232,16.2468117 11.202903,15.9094633 10.37,15.44 C9.7231749,15.0752672 9.13631085,14.6131961 8.63,14.07 C8.1672949,13.5658376 7.79212456,12.9878725 7.52,12.36 L7.42,12.11 L2.66,12.77 L1.95,11.09 L6.71,10.43 L6.1,8.99 L1.34,9.65 L0.63,7.97 L5.39,7.31 L3.89,3.75 L7.22,3.65 L7.75,4.9 C8.0761374,5.34252887 8.63520792,5.54725892 9.17,5.42 L22.47,3.57 C23.1,3.48 23.47,3.1 23.32,2.73 L22.65,1.15 L25.84,0.71 L27.34,4.26 L32.08,3.6 L32.79,5.28 L28.05,5.94 L28.66,7.38 L33.4,6.72 L34.11,8.4 L29.37,9.06 C29.5935971,9.56588504 29.6930267,10.1178908 29.66,10.67 C29.6060757,11.2052917 29.4168017,11.7180524 29.11,12.16 C28.7055649,12.7271958 28.174969,13.1927509 27.56,13.52 C26.7890759,13.9339018 25.9482842,14.2017347 25.08,14.31 C24.1331715,14.4414977 23.1716333,14.4246286 22.23,14.26 C21.6786262,14.1635791 21.1366116,14.0197111 20.61,13.83 C20.5817928,13.8991089 20.5483628,13.9659689 20.51,14.03 C20.1238309,14.6832064 19.580757,15.2297175 18.93,15.62 Z M13.42,12.94 C13.8402188,13.0332686 14.2737861,13.0502048 14.7,12.99 C15.089647,12.943562 15.4647741,12.8139726 15.8,12.61 C16.1580284,12.3884566 16.4566497,12.0829703 16.67,11.72 C16.84897,11.3873042 16.9482435,11.0175957 16.96,10.64 C16.9631933,10.1859704 16.8712171,9.73630927 16.69,9.32 L15.97,7.6 L9.28,8.53 L10,10.25 C10.2006798,10.7070384 10.4780067,11.1264109 10.82,11.49 C11.1436051,11.8443645 11.5216938,12.14481 11.94,12.38 C12.4009119,12.6431284 12.900351,12.8321054 13.42,12.94 Z M24.84,6.37 L18.93,7.19 L19.64,8.87 C19.7914526,9.22127091 20.008688,9.54033547 20.28,9.81 C20.5716102,10.0926566 20.9099353,10.3227176 21.28,10.49 C21.6705784,10.6877294 22.0885359,10.825925 22.52,10.9 C22.9010656,10.9589683 23.2889344,10.9589683 23.67,10.9 C24.0195526,10.8529469 24.3580693,10.7446215 24.67,10.58 C24.9810314,10.4150984 25.2483868,10.1785917 25.45,9.89 C25.6264781,9.63895928 25.7334271,9.34571202 25.76,9.04 C25.7839014,8.69787886 25.7256126,8.35500376 25.59,8.04 L24.88,6.36 L24.84,6.37 Z" id="Shape" fill="#E3C63E"></path>
                </g>
                <g id="database" transform="translate(162.000000, 25.000000)">
                    <path d="M69.43,115.41 C53.75,124.46 28.24,124.41 12.43,115.31 C-3.38,106.21 -3.43,91.47 12.25,82.42 C27.93,73.37 53.44,73.42 69.25,82.52 C85.06,91.62 85.12,106.36 69.43,115.41 Z" id="Shape" fill="#295391" opacity="0.1"></path>
                    <path d="M81.11,91 L81.11,74.64 L74,74.64 L74,78.64 C72.5260728,77.4206968 70.9503,76.3300346 69.29,75.38 C53.85,66.47 29.12,66.23 13.36,74.7 L0.56,74.7 L0.56,91.64 C0.56,97.64 4.56,103.64 12.45,108.16 C28.23,117.27 53.74,117.32 69.45,108.26 C77.65,103.51 81.54,97.21 81.11,91 Z" id="Shape" fill="url(#linearGradient-2)"></path>
                    <path d="M69.43,91.32 C53.75,100.37 28.24,100.32 12.43,91.22 C-3.38,82.12 -3.43,67.38 12.25,58.33 C27.93,49.28 53.44,49.33 69.25,58.43 C85.06,67.53 85.12,82.26 69.43,91.32 Z" id="Shape" fill="url(#radialGradient-3)"></path>
                    <path d="M81.11,65.62 L81.11,49.29 L74,49.29 L74,53.29 C72.514496,52.0584185 70.9252386,50.9576486 69.25,50 C53.81,41.09 29.08,40.85 13.32,49.32 L0.56,49.32 L0.56,66.28 C0.56,72.28 4.56,78.28 12.45,82.8 C28.23,91.91 53.74,91.96 69.45,82.9 C77.65,78.16 81.54,71.86 81.11,65.62 Z" id="Shape" fill="url(#linearGradient-4)"></path>
                    <path d="M69.43,66 C53.75,75.05 28.24,75 12.43,65.9 C-3.38,56.8 -3.4,42 12.28,33 C27.96,24 53.47,24 69.28,33.1 C85.09,42.2 85.12,56.91 69.43,66 Z" id="Shape" fill="url(#radialGradient-5)"></path>
                    <path d="M81.11,40.27 L81.11,23.94 L74,23.94 L74,27.94 C72.5260728,26.7206968 70.9503,25.6300346 69.29,24.68 C53.85,15.77 29.12,15.53 13.36,24 L0.56,24 L0.56,40.93 C0.56,46.93 4.56,52.93 12.45,57.45 C28.23,66.56 53.74,66.61 69.45,57.55 C77.65,52.81 81.54,46.5 81.11,40.27 Z" id="Shape" fill="url(#linearGradient-6)"></path>
                    <path d="M69.43,40.62 C53.75,49.67 28.24,49.62 12.43,40.52 C-3.38,31.42 -3.43,16.68 12.25,7.63 C27.93,-1.42 53.44,-1.37 69.25,7.73 C85.06,16.83 85.12,31.56 69.43,40.62 Z" id="Shape" fill="url(#linearGradient-7)"></path>
                    <path d="M6.12,43 C7.12124499,43.6782818 7.74100896,44.7916302 7.79,46 C7.79,47.07 7.04,47.5 6.12,47 C5.10878854,46.3296108 4.48319457,45.2124787 4.44,44 C4.44,42.92 5.2,42.48 6.12,43 Z" id="Shape" fill="#40FF93" fill-rule="nonzero"></path>
                    <path d="M10.5,46.23 C11.4848481,46.8957985 12.1024833,47.9831323 12.17,49.17 C12.17,50.24 11.42,50.67 10.5,50.17 C9.50924307,49.5096852 8.88978065,48.4191346 8.83,47.23 C8.82,46.12 9.58,45.68 10.5,46.23 Z" id="Shape" fill="#FFFFFF" fill-rule="nonzero"></path>
                    <path d="M15.11,48.89 C16.0948481,49.5557985 16.7124833,50.6431323 16.78,51.83 C16.78,52.9 16.03,53.33 15.11,52.83 C14.1192431,52.1696852 13.4997806,51.0791346 13.44,49.89 C13.44,48.78 14.19,48.34 15.11,48.89 Z" id="Shape" fill="#FFFFFF" fill-rule="nonzero"></path>
                    <path d="M6.12,69.15 C7.10484809,69.8157985 7.72248326,70.9031323 7.79,72.09 C7.79,73.16 7.04,73.59 6.12,73.09 C5.12924307,72.4296852 4.50978065,71.3391346 4.45,70.15 C4.44,69 5.2,68.6 6.12,69.15 Z" id="Shape" fill="#40FF93" fill-rule="nonzero"></path>
                    <path d="M10.5,72.34 C11.4848481,73.0057985 12.1024833,74.0931323 12.17,75.28 C12.17,76.35 11.42,76.78 10.5,76.28 C9.50924307,75.6196852 8.88978065,74.5291346 8.83,73.34 C8.82,72.23 9.58,71.79 10.5,72.34 Z" id="Shape" fill="#FFFFFF" fill-rule="nonzero"></path>
                    <path d="M15.11,75 C16.0948481,75.6657985 16.7124833,76.7531323 16.78,77.94 C16.78,79.01 16.03,79.44 15.11,78.94 C14.1192431,78.2796852 13.4997806,77.1891346 13.44,76 C13.44,74.89 14.19,74.46 15.11,75 Z" id="Shape" fill="#FFFFFF" fill-rule="nonzero"></path>
                    <path d="M6.12,93.69 C7.10484809,94.3557985 7.72248326,95.4431323 7.79,96.63 C7.79,97.7 7.04,98.13 6.12,97.63 C5.12924307,96.9696852 4.50978065,95.8791346 4.45,94.69 C4.44,93.57 5.2,93.14 6.12,93.69 Z" id="Shape" fill="#40FF93" fill-rule="nonzero"></path>
                    <path d="M10.5,96.88 C11.4848481,97.5457985 12.1024833,98.6331323 12.17,99.82 C12.17,100.89 11.42,101.32 10.5,100.82 C9.50924307,100.159685 8.88978065,99.0691346 8.83,97.88 C8.82,96.77 9.58,96.33 10.5,96.88 Z" id="Shape" fill="#FFFFFF" fill-rule="nonzero"></path>
                    <path d="M15.11,99.55 C16.0948481,100.215799 16.7124833,101.303132 16.78,102.49 C16.78,103.56 16.03,103.99 15.11,103.49 C14.1192431,102.829685 13.4997806,101.739135 13.44,100.55 C13.44,99.44 14.19,99 15.11,99.55 Z" id="Shape" fill="#FFFFFF" fill-rule="nonzero"></path>
                </g>
                <g id="iphone" transform="translate(42.000000, 10.000000)">
                    <path d="M41.54,113.33 L13.2,95.14 C10.25,93.44 7.86,88.87 7.86,84.93 L4.86,5.12 C4.86,0.64 10.26,-0.41 13.21,1.29 L44.47,19.35 C47.42,21.05 49.81,25.62 49.81,29.56 L49.81,107.4 C49.82,113.37 44.65,114.92 41.54,113.33 Z" id="Shape" fill="url(#linearGradient-8)"></path>
                    <path d="M41.29,113.19 L10,95.14 C7.05,93.44 4.66,88.87 4.66,84.93 L4.66,6.22 C4.66,2.29 7.05,0.48 10,2.22 L41.29,20.23 C44.24,21.93 46.63,26.5 46.63,30.44 L46.63,109.16 C46.63,113.09 44.24,114.89 41.29,113.19 Z" id="Shape" fill="url(#linearGradient-9)"></path>
                    <path d="M7.7,79.49 L7.7,9.94 C7.7,8.54 8.55,7.94 9.6,8.51 L41.72,27.06 C42.8915487,27.8970966 43.5965502,29.24031 43.62,30.68 L43.62,100.23 C43.62,101.63 42.77,102.23 41.72,101.66 L9.59,83.12 C8.41942587,82.2786789 7.71796958,80.9314375 7.7,79.49 Z" id="Shape" fill="#EBF4FD"></path>
                    <path d="M29.58,17.82 L21.73,13.29 C21.4511286,13.091768 21.283874,12.772126 21.28,12.43 C21.28,12.1 21.48,11.95 21.73,12.09 L29.58,16.62 C29.8588714,16.818232 30.026126,17.137874 30.03,17.48 C30,17.81 29.83,18 29.58,17.82 Z" id="Shape" fill="url(#linearGradient-10)"></path>
                    <path d="M28.67,99.67 C28.67,101.58 27.32,102.35 25.67,101.39 C23.8972459,100.230296 22.7830841,98.2953683 22.67,96.18 C22.67,94.27 24.02,93.5 25.67,94.46 C27.4427541,95.6197042 28.5569159,97.5546317 28.67,99.67 Z" id="Shape" fill="url(#linearGradient-11)"></path>
                    <path d="M39.81,99.8 L9.57,82.35 C8.02043695,81.2422679 7.08890755,79.4645683 7.06,77.56 L7.06,16.62 C7.06,14.77 8.18,13.93 9.57,14.73 L39.81,32.19 C41.3651933,33.3018882 42.297421,35.0883484 42.32,37 L42.32,97.93 C42.32,99.75 41.19,100.6 39.81,99.8 Z" id="Shape" fill="#0C223D" fill-rule="nonzero" opacity="0.1"></path>
                    <path d="M33.52,96.05 L3.28,78.59 C1.73043695,77.4822679 0.798907546,75.7045683 0.77,73.8 L0.77,12.87 C0.77,11.02 1.89,10.18 3.28,10.98 L33.52,28.44 C35.0554119,29.5520506 35.9749274,31.3243424 36,33.22 L36,94.15 C36,96 34.91,96.85 33.52,96.05 Z" id="Shape" fill="#0099F7" fill-rule="nonzero"></path>
                    <path d="M5.42,33.31 L12.19,37.22 L12.19,45 L5.4,41.09 L5.42,33.31 Z M10.24,41.67 L10.24,38.33 L7.33,36.65 L7.33,40 L10.24,41.68 L10.24,41.67 Z" id="Shape" fill="#F7F7F7" fill-rule="nonzero"></path>
                    <polygon id="Shape" fill="#F7F7F7" fill-rule="nonzero" points="12.16 51.68 12.15 53.9 9.24 52.23 9.25 50"></polygon>
                    <polygon id="Shape" fill="#F7F7F7" fill-rule="nonzero" points="16.05 43.91 16.03 51.69 7.32 46.66 7.31 51.11 5.37 49.99 5.39 43.32 14.1 48.35 14.12 42.79"></polygon>
                    <path d="M5.37,52.22 L12.14,56.13 L12.14,63.91 L5.35,60 L5.37,52.22 Z M10.19,60.58 L10.19,57.24 L7.3,55.56 L7.3,58.9 L10.21,60.58 L10.19,60.58 Z" id="Shape" fill="#F7F7F7" fill-rule="nonzero"></path>
                    <polygon id="Shape" fill="#F7F7F7" fill-rule="nonzero" points="28.62 56.73 28.59 65.63 21.82 61.72 21.83 59.49 26.67 62.29 26.69 55.62"></polygon>
                    <polygon id="Shape" fill="#F7F7F7" fill-rule="nonzero" points="28.59 67.86 28.57 73.42 26.64 72.3 26.65 68.96 23.74 67.28 23.73 70.62 21.8 69.51 21.81 63.94"></polygon>
                    <polygon id="Shape" fill="#F7F7F7" fill-rule="nonzero" points="23.78 53.94 23.77 58.39 21.83 57.27 21.84 55.05 19.9 53.93 19.89 58.37 16.02 56.14 16.01 58.37 19.88 60.6 19.86 68.39 17.92 67.27 17.94 61.71 14.07 59.47 14.09 52.8 17.96 55.03 17.97 50.59"></polygon>
                    <path d="M21.87,42.81 L28.64,46.72 L28.64,54.5 L21.87,50.59 L21.87,42.81 Z M26.69,51.17 L26.69,47.83 L23.8,46.16 L23.8,49.49 L26.71,51.17 L26.69,51.17 Z" id="Shape" fill="#F7F7F7" fill-rule="nonzero"></path>
                    <polygon id="Shape" fill="#F7F7F7" fill-rule="nonzero" points="19.93 41.69 19.91 49.47 17.98 48.35 17.99 42.8 14.12 40.57 14.13 38.34"></polygon>
                    <polygon id="Shape" fill="#F7F7F7" fill-rule="nonzero" points="16 62.81 15.99 66.15 14.05 65.03 14.06 61.7"></polygon>
                </g>
            </g>
        </g>
    </g>
</svg>