<?xml version="1.0" encoding="UTF-8"?>
<svg width="268px" height="268px" viewBox="0 0 268 268" version="1.1" xmlns="http://www.w3.org/2000/svg" xmlns:xlink="http://www.w3.org/1999/xlink">
    <!-- Generator: sketchtool 49.3 (51167) - http://www.bohemiancoding.com/sketch -->
    <title>EC1C0346-D1A9-4C43-9F0E-8EEFD35D926E</title>
    <desc>Created with sketchtool.</desc>
    <defs>
        <linearGradient x1="-1.30809497%" y1="26.3043382%" x2="101.314052%" y2="73.7997174%" id="linearGradient-1">
            <stop stop-color="#7AC943" offset="0%"></stop>
            <stop stop-color="#08A16E" offset="100%"></stop>
        </linearGradient>
        <linearGradient x1="-0.0115313653%" y1="50.0120097%" x2="99.9769373%" y2="50.0120097%" id="linearGradient-2">
            <stop stop-color="#02C6FF" offset="0%"></stop>
            <stop stop-color="#005DF1" offset="100%"></stop>
        </linearGradient>
        <linearGradient x1="18116%" y1="6867%" x2="26070%" y2="6867%" id="linearGradient-3">
            <stop stop-color="#02C6FF" offset="0%"></stop>
            <stop stop-color="#005DF1" offset="100%"></stop>
        </linearGradient>
        <linearGradient x1="17966%" y1="6757%" x2="29855%" y2="6757%" id="linearGradient-4">
            <stop stop-color="#7AC943" offset="0%"></stop>
            <stop stop-color="#08A16E" offset="100%"></stop>
        </linearGradient>
        <linearGradient x1="0.779806251%" y1="49.9228013%" x2="100.808882%" y2="49.2354442%" id="linearGradient-5">
            <stop stop-color="#7AB4F4" offset="0%"></stop>
            <stop stop-color="#DFEDFA" offset="100%"></stop>
        </linearGradient>
        <linearGradient x1="5344%" y1="5385%" x2="7558%" y2="5385%" id="linearGradient-6">
            <stop stop-color="#7AB4F4" offset="0%"></stop>
            <stop stop-color="#DFEDFA" offset="100%"></stop>
        </linearGradient>
    </defs>
    <g id="Symbols" stroke="none" stroke-width="1" fill="none" fill-rule="evenodd">
        <g id="how-icons/4">
            <g id="how-4-13">
                <rect id="Rectangle-path" x="0" y="0" width="268" height="268"></rect>
                <polygon id="Shape" fill="#3DA4ED" fill-rule="nonzero" points="224.41 236.3 233.25 241.4 222.02 247.92 213.19 242.82 197.38 252 186.09 245.48 201.89 236.3 170.46 218.15 178.76 213.33 249.48 202.95 262.45 210.43 196.32 220.08 213.12 229.78 230 219.96 241.29 226.48"></polygon>
                <path d="M56.4,190.94 L211.22,100.85 C211.830936,100.539335 212.578152,100.760657 212.921346,101.35393 C213.26454,101.947203 213.08388,102.705278 212.51,103.08 L57.69,193.17 L56.4,190.94 Z" id="Shape" fill="#D5DFED" fill-rule="nonzero"></path>
                <path d="M140.35,144.93 C140.122061,144.932222 139.897664,144.873534 139.7,144.76 L60.22,98.46 C56.4262902,96.2483886 54.0894585,92.1912833 54.08,87.8 L54.08,57.65 C54.08,56.9375527 54.6575527,56.36 55.37,56.36 C56.0824473,56.36 56.66,56.9375527 56.66,57.65 L56.66,87.79 C56.666426,91.2667189 58.516275,94.479214 61.52,96.23 L141,142.53 C141.498981,142.825442 141.7395,143.417525 141.587909,143.977246 C141.436318,144.536967 140.929877,144.926749 140.35,144.93 Z" id="Shape" fill="#D5DFED" fill-rule="nonzero"></path>
                <g id="tw" transform="translate(98.000000, 97.000000)" fill-rule="nonzero">
                    <path d="M62.87,58.46 L2,23.85 C0.52,23.01 0.51,21.64 2,20.79 L17.9,11.53 C19.5684438,10.6820509 21.5415562,10.6820509 23.21,11.53 L111.83,61.88 C113.3,62.72 113.32,64.09 111.83,64.94 L95.93,74.2 C94.2611685,75.0463292 92.2888315,75.0463292 90.62,74.2 L71.47,63.32" id="Shape" fill="#7AC943" opacity="0.5"></path>
                    <path d="M62.87,67.67 L2,33.06 C0.52,32.22 0.51,30.85 2,30 L17.9,20.74 C19.5684438,19.8920509 21.5415562,19.8920509 23.21,20.74 L111.83,71.09 C113.3,71.93 113.32,73.3 111.83,74.15 L95.93,83.41 C94.2611685,84.2563292 92.2888315,84.2563292 90.62,83.41 L71.47,72.53" id="Shape" fill="#7AC943" opacity="0.2"></path>
                    <path d="M63.12,48.3 L2.21,13.69 C0.73,12.85 0.72,11.48 2.21,10.63 L18.11,1.37 C19.7784438,0.522050919 21.7515562,0.522050919 23.42,1.37 L112,51.71 C113.47,52.55 113.49,53.92 112,54.77 L96.14,64 C94.4711685,64.8463292 92.4988315,64.8463292 90.83,64 L71.68,53.12" id="Shape" fill="url(#linearGradient-1)"></path>
                    <g id="Group" opacity="0.5" transform="translate(13.000000, 11.000000)" fill="#FFFFFF">
                        <path d="M4.53,1.34 L61.19,33.4 C62.12,33.93 62,34.86 60.94,35.48 C59.833344,36.101458 58.4974245,36.1608322 57.34,35.64 L0.68,3.58 C-0.25,3.05 -0.13,2.12 0.93,1.5 C2.03665603,0.878541955 3.37257552,0.819167755 4.53,1.34 Z" id="Shape"></path>
                        <path d="M33.79,9.42 L68.71,29 C69.64,29.53 69.52,30.46 68.46,31.08 C67.353344,31.701458 66.0174245,31.7608322 64.86,31.24 L29.94,11.63 C29.01,11.1 29.13,10.17 30.19,9.55 C31.3014743,8.9381881 32.6372918,8.88995025 33.79,9.42 Z" id="Shape"></path>
                    </g>
                </g>
                <path d="M196.61,149.95 C196.186362,150.227262 195.7202,150.433319 195.23,150.56 C194.921601,150.641191 194.607301,150.698033 194.29,150.73 L194.29,150.85 C194.360015,151.209151 194.310858,151.581341 194.15,151.91 C193.932699,152.322088 193.607872,152.667648 193.21,152.91 C192.732839,153.21999 192.204754,153.443411 191.65,153.57 C191.102374,153.693365 190.540844,153.743802 189.98,153.72 C189.523472,153.701629 189.070536,153.631173 188.63,153.51 C188.217226,153.389074 187.820911,153.217786 187.45,153 L187.3,152.92 L185.3,154.27 L184.3,153.69 L186.3,152.33 L185.45,151.83 L183.45,153.18 L182.45,152.6 L184.45,151.24 L182.42,150 L183.98,149.21 L184.71,149.64 L184.76,149.64 L184.82,149.64 L184.91,149.64 L185.2,149.64 L185.3,149.64 L185.39,149.64 L185.49,149.64 L185.58,149.59 L191.23,145.8 C191.5,145.62 191.54,145.37 191.32,145.24 L190.4,144.69 L191.76,143.78 L193.83,145.01 L195.83,143.66 L196.83,144.24 L194.83,145.59 L195.68,146.1 L197.68,144.75 L198.68,145.33 L196.68,146.68 C196.969129,146.846905 197.223695,147.067529 197.43,147.33 C197.602206,147.557048 197.709369,147.826685 197.74,148.11 C197.765976,148.441746 197.689162,148.773444 197.52,149.06 C197.290736,149.423987 196.978992,149.72888 196.61,149.95 Z M191.15,151.69 C191.309375,151.590775 191.437598,151.448689 191.52,151.28 C191.611327,151.097638 191.639468,150.890097 191.6,150.69 C191.549295,150.490916 191.453494,150.306156 191.32,150.15 C191.138406,149.940895 190.92185,149.764943 190.68,149.63 L189.68,149.03 L186.83,150.93 L187.83,151.53 C188.10409,151.685325 188.396298,151.806238 188.7,151.89 L188.76,151.89 L189.58,151.89 C189.889327,151.901774 190.19882,151.871497 190.5,151.8 C190.724428,151.753548 190.938134,151.665352 191.13,151.54 L191.15,151.69 Z M194.61,148.62 C194.75286,148.528587 194.872647,148.405378 194.96,148.26 C195.046871,148.115807 195.085411,147.947633 195.07,147.78 C195.054764,147.618777 194.992131,147.465675 194.89,147.34 C194.762753,147.17553 194.602699,147.039313 194.42,146.94 L193.42,146.36 L190.91,148.04 L191.91,148.62 L192.05,148.69 L192.1,148.69 L192.2,148.69 L192.27,148.69 L192.37,148.69 L192.44,148.69 L192.5,148.69 L192.58,148.69 C192.812298,148.746769 193.050893,148.773653 193.29,148.77 C193.542793,148.77172 193.794791,148.74148 194.04,148.68 C194.238409,148.625952 194.427296,148.541627 194.6,148.43 L194.61,148.62 Z" id="Shape" fill="#FAFAFA" fill-rule="nonzero"></path>
                <g id="clock" transform="translate(174.000000, 13.000000)" fill-rule="nonzero">
                    <path d="M0,74.58 C0,49.38 17.81,18.66 39.77,5.98 C50.77,-0.37 60.71,-1.02 67.9,3.13 L75.38,7.36 C82.38,11.54 86.72,20.29 86.72,32.7 C86.72,57.9 68.91,88.62 46.95,101.3 C35.88,107.69 25.86,108.3 18.65,104.06 L11.74,100.16 L11.55,100.05 L11.2,99.85 C4.26,95.63 0,86.92 0,74.58 Z" id="Shape" fill="url(#linearGradient-2)"></path>
                    <path d="M86.7,32.71 C86.7,57.91 68.89,88.63 46.93,101.31 C24.97,113.99 7.16,103.84 7.16,78.64 C7.16,53.44 25,22.72 46.93,10 C68.86,-2.72 86.7,7.51 86.7,32.71 Z" id="Shape" fill="url(#linearGradient-3)"></path>
                    <path d="M23.23,95.63 C18.03,91.9 14.87,84.86 14.87,75.16 C14.87,54.08 29.76,28.4 48.13,17.8 C66.5,7.2 81.39,15.68 81.39,36.8 C81.39,57.92 66.5,83.56 48.13,94.16 C40.83,98.37 34.08,99.57 28.59,98.16" id="Shape" fill="#FFFFFF"></path>
                    <path d="M75.14,40.7 L72.07,42.47" id="Shape" fill="#004680"></path>
                    <path d="M72.07,44.72 C71.0497023,44.7234122 70.1548236,44.0398482 69.88974,43.0545818 C69.6246565,42.0693155 70.0557313,41.0290069 70.94,40.52 L74,38.75 C75.0769553,38.1286797 76.4536797,38.4980447 77.075,39.575 C77.6963203,40.6519553 77.3269553,42.0286797 76.25,42.65 L73.18,44.42 C72.8425853,44.6153099 72.4598628,44.7187484 72.07,44.72 Z" id="Shape" fill="#004680"></path>
                    <path d="M24.19,70.12 L21.12,71.89" id="Shape" fill="#004680"></path>
                    <path d="M21.12,74.14 C20.0997023,74.1434122 19.2048236,73.4598482 18.93974,72.4745818 C18.6746565,71.4893155 19.1057313,70.4490069 19.99,69.94 L23.06,68.17 C24.1369553,67.5486797 25.5136796,67.9180448 26.135,68.995 C26.7563203,70.0719553 26.3869552,71.4486796 25.31,72.07 L22.24,73.84 C21.899467,74.036565 21.5131928,74.1400313 21.12,74.14 Z" id="Shape" fill="#004680"></path>
                    <path d="M48.13,87.29 L48.13,83.77" id="Shape" fill="#004680"></path>
                    <path d="M48.13,89.53 C46.8873593,89.53 45.88,88.5226407 45.88,87.28 L45.88,83.77 C45.8800001,82.5273594 46.8873594,81.5200003 48.13,81.5200003 C49.3726406,81.5200003 50.3799999,82.5273594 50.38,83.77 L50.38,87.29 C50.3744945,88.5287337 49.3687459,89.5300122 48.13,89.53 Z" id="Shape" fill="#004680"></path>
                    <path d="M48.13,28.82 L48.13,25.3" id="Shape" fill="#004680"></path>
                    <path d="M48.13,31.07 C46.8873593,31.07 45.88,30.0626407 45.88,28.82 L45.88,25.3 C45.8799999,24.4961524 46.3088475,23.7533665 47.0049999,23.3514426 C47.7011524,22.9495188 48.5588476,22.9495188 49.2550001,23.3514426 C49.9511525,23.7533665 50.3800001,24.4961524 50.38,25.3 L50.38,28.82 C50.38,30.0626407 49.3726407,31.07 48.13,31.07 Z" id="Shape" fill="#004680"></path>
                    <path d="M63.38,62.15 C63.1911353,62.1502623 63.0029889,62.126744 62.82,62.08 L47.57,58.17 C46.5786674,57.9152611 45.884186,57.0235305 45.88,56 L45.88,39.19 C45.8799999,38.3861524 46.3088475,37.6433665 47.0049999,37.2414426 C47.7011524,36.8395188 48.5588476,36.8395188 49.2550001,37.2414426 C49.9511525,37.6433665 50.3800001,38.3861524 50.38,39.19 L50.38,54.25 L63.94,57.72 C65.0394322,58.0008379 65.757688,59.0564061 65.6153778,60.1821809 C65.4730677,61.3079558 64.5147329,62.1515848 63.38,62.15 Z" id="Shape" fill="#004680"></path>
                </g>
                <g id="fb" opacity="0.5" transform="translate(53.000000, 132.000000)" fill="#7AC943" fill-rule="nonzero">
                    <path d="M17.51,1.2 C19.1495536,0.430010678 21.0519371,0.455818208 22.67,1.27 L111.29,51.62 C112.76,52.46 112.78,53.83 111.29,54.68 L95.39,63.94 C93.7211685,64.7863292 91.7488315,64.7863292 90.08,63.94 L1.49,13.6 C0.01,12.76 -1.94289029e-15,11.39 1.49,10.54 L15,2.64 L17.51,1.2 Z" id="Shape"></path>
                </g>
                <g id="fb-2" opacity="0.2" transform="translate(53.000000, 141.000000)" fill="#7AC943" fill-rule="nonzero">
                    <path d="M17.51,1.41 C19.1495536,0.640010678 21.0519371,0.665818208 22.67,1.48 L111.29,51.83 C112.76,52.67 112.78,54.04 111.29,54.89 L95.39,64.15 C93.7211685,64.9963292 91.7488315,64.9963292 90.08,64.15 L1.49,13.81 C0.01,12.97 -1.94289029e-15,11.6 1.49,10.75 L15,2.85 L17.51,1.41 Z" id="Shape"></path>
                </g>
                <g id="fb-3" transform="translate(53.000000, 122.000000)" fill-rule="nonzero">
                    <path d="M17.76,1 C19.3995536,0.230010678 21.3019371,0.255818208 22.92,1.07 L111.54,51.42 C113.01,52.26 113.03,53.63 111.54,54.48 L95.64,63.74 C93.9711685,64.5863292 91.9988315,64.5863292 90.33,63.74 L1.74,13.44 C0.26,12.6 0.25,11.23 1.74,10.38 L15.3,2.48 L17.76,1 Z" id="Shape" fill="url(#linearGradient-4)"></path>
                    <g id="Group" opacity="0.5" transform="translate(12.000000, 11.000000)" fill="#FFFFFF">
                        <path d="M5.06,1.09 L61.72,33.15 C62.65,33.68 62.53,34.61 61.47,35.23 C60.363344,35.851458 59.0274245,35.9108322 57.87,35.39 L1.21,3.33 C0.28,2.8 0.4,1.87 1.46,1.25 C2.56665603,0.628541955 3.90257552,0.569167755 5.06,1.09 Z" id="Shape"></path>
                        <path d="M34.32,9.16 L69.24,28.77 C70.17,29.3 70.05,30.23 68.99,30.85 C67.883344,31.471458 66.5474245,31.5308322 65.39,31.01 L30.47,11.41 C29.54,10.88 29.66,9.95 30.72,9.33 C31.8250463,8.70531703 33.1610045,8.64223012 34.32,9.16 Z" id="Shape"></path>
                    </g>
                </g>
                <polygon id="Shape" fill="#FCFCFC" fill-rule="nonzero" points="148.7 176.65 142.35 176.26 141.54 171.97 152.9 168.86"></polygon>
                <polygon id="Shape" fill="#FCFCFC" fill-rule="nonzero" points="140.65 172.59 141.46 176.88 147.81 177.28 137.62 179.57"></polygon>
                <g id="magnyfying_glass" transform="translate(20.000000, 175.000000)" fill-rule="nonzero">
                    <path d="M59.11,17.18 L53.22,17.18 C52.3293473,16.4950143 51.3939315,15.8702902 50.42,15.31 C38.88,8.65 20.24,8.62 8.77,15.23 C7.76213849,15.8077305 6.79639614,16.4560143 5.88,17.17 L0.21,17.17 L0.21,27.3 C0.21,31.63 3.15,35.97 8.9,39.3 C20.44,45.96 39.08,45.99 50.55,39.38 C56.31,36.06 59.16,31.69 59.11,27.32 L59.11,17.18 Z" id="Shape" fill="#3B3778"></path>
                    <path d="M50.55,29.24 C39.08,35.86 20.44,35.83 8.9,29.16 C-2.64,22.49 -2.7,11.73 8.77,5.16 C20.24,-1.41 38.88,-1.43 50.42,5.24 C61.96,11.91 62,22.62 50.55,29.24 Z" id="Shape" fill="#6B6099"></path>
                    <path d="M45.47,26.3 C36.8,31.3 22.69,31.3 13.97,26.24 C5.25,21.18 5.2,13.06 13.87,8.05 C22.54,3.04 36.65,3.05 45.37,8.11 C54.09,13.17 54.14,21.3 45.47,26.3 Z" id="Shape" fill="#7AB0FF"></path>
                    <path d="M40.72,25.1 C40.3063652,25.0493323 39.9675129,24.7474649 39.869587,24.3424075 C39.771661,23.9373502 39.9351926,23.5140274 40.28,23.28 L40.88,22.95 C43.57,21.4 45.09,19.38 45.16,17.28 C45.1592644,17.0207272 45.2667956,16.7729177 45.4566545,16.5963489 C45.6465134,16.4197802 45.9014618,16.3304837 46.16,16.35 C46.6847754,16.386823 47.0912903,16.8239358 47.09,17.35 C47,20.14 45.09,22.73 41.85,24.63 L41.17,25 C41.0298347,25.0679235 40.8757409,25.1021666 40.72,25.1 Z" id="Shape" fill="#FFFFFF"></path>
                    <path d="M14.89,14 C14.5307757,13.974814 14.2128351,13.7584316 14.0576118,13.4334976 C13.9023885,13.1085635 13.9338577,12.7252656 14.14,12.43 C15.120524,11.2611462 16.3067428,10.2816683 17.64,9.54 C21.4718956,7.50321704 25.7732573,6.51324846 30.11,6.67 C30.6426668,6.69666628 31.0606671,7.13666651 31.06,7.67 C31.0333337,8.20266685 30.5933335,8.62066706 30.06,8.62 C26.079754,8.45912109 22.1272967,9.3489413 18.6,11.2 C17.4594266,11.8191481 16.4424993,12.6428593 15.6,13.63 C15.4251865,13.8468263 15.1678659,13.9809229 14.89,14 Z" id="Shape" fill="#FFFFFF"></path>
                    <path d="M13.38,17.51 L13.3,17.51 C12.799008,17.4443321 12.4257146,17.0152593 12.43,16.51 C12.4808605,15.9504165 12.6018072,15.3994373 12.79,14.87 C12.8137297,14.4448037 13.1041385,14.0812828 13.5135953,13.9642353 C13.923052,13.8471878 14.3617162,14.0022956 14.6065903,14.3507087 C14.8514643,14.6991218 14.8488194,15.1643934 14.6,15.51 C14.4647918,15.8876056 14.3774443,16.280669 14.34,16.68 C14.2590304,17.1502853 13.8570496,17.4978312 13.38,17.51 Z" id="Shape" fill="#FFFFFF"></path>
                    <path d="M54.3,30.54 L54.18,30.47 C53.3218124,30.108365 52.3374157,30.2181631 51.58,30.76 C49.3637174,32.200224 47.9670504,34.6109604 47.82,37.25 C47.7197488,38.2012757 48.1499298,39.1307739 48.94,39.67 L74.69,54.67 L79.99,45.49 L54.3,30.54 Z" id="Shape" fill="#3B3778"></path>
                    <path d="M81,47.87 C80.8529496,50.5090396 79.4562826,52.919776 77.24,54.36 C75.16,55.56 73.48,54.6 73.48,52.22 C73.6270504,49.5809604 75.0237174,47.170224 77.24,45.73 C79.29,44.53 81,45.49 81,47.87 Z" id="Shape" fill="#6B6099"></path>
                </g>
                <g id="lock" transform="translate(33.000000, 8.000000)" fill-rule="nonzero">
                    <path d="M38.79,24 L31.53,19.53 C30.5432559,19.1020179 29.404267,19.2235101 28.53,19.85 L4.77,33.8 C2.18,35.32 0.09,39.37 0.12,42.8 L0.26,63.57 C0.26,65.43 0.89,66.74 1.86,67.33 C1.93,67.33 8.86,71.69 9.28,71.89 C9.28,71.89 9.28,71.74 9.28,71.74 C9.28,71.74 11.28,68.56 14.19,63.84 L30.4,54.33 C32.99,52.81 35.08,48.76 35.05,45.33 L35,30.2 L38.79,24 Z" id="Shape" fill="#408CEE"></path>
                    <path d="M35.9,57.6 L12.13,71.55 C9.54,73.07 7.41,71.49 7.39,68.02 L7.25,47.25 C7.25,43.78 9.31,39.73 11.9,38.25 L35.66,24.26 C38.25,22.74 40.38,24.32 40.4,27.79 L40.54,48.56 C40.57,52 38.49,56.08 35.9,57.6 Z" id="Shape" fill="url(#linearGradient-5)"></path>
                    <path d="M27.35,41.93 C27.35,39.71 25.76,38.83 23.84,39.93 C21.7860467,41.2857314 20.5038845,43.5415936 20.39,46 C20.39,47.48 21.11,48.37 22.15,48.45 L22.21,56.87 L25.69,54.87 L25.63,46.45 C26.6808458,45.1711822 27.2848533,43.5839069 27.35,41.93 Z" id="Shape" fill="#408CEE" opacity="0.7"></path>
                    <path d="M14.32,32.06 L14,31.93 C12.4911253,31.2802389 10.7759381,31.3093716 9.29,32.01 L9.15,32.08 C7.75,32.9 7.76,34.23 9.15,35.08 L9.28,35.14 C10.7702534,35.8310258 12.4854126,35.8492335 13.99,35.19 L14.28,35.05 C15.76,34.19 15.74,32.87 14.32,32.06 Z" id="Shape" fill="#1656AB" opacity="0.7"></path>
                    <path d="M31.57,22 L31.41,21.92 C29.9125707,21.2449121 28.1974293,21.2449121 26.7,21.92 L26.45,22.04 C25.05,22.86 25.06,24.19 26.45,25.04 L26.69,25.15 C28.1874293,25.8250879 29.9025707,25.8250879 31.4,25.15 L31.58,25.06 C33,24.09 33,22.77 31.57,22 Z" id="Shape" fill="#1656AB" opacity="0.7"></path>
                    <path d="M20.2,1.43 C13.31,5.01 9.2,13.6 9.26,20.6 L9.34,32 L9.34,35.08 C10.8302534,35.7710258 12.5454126,35.7892335 14.05,35.13 L14.05,31.91 L13.95,17.82 C14.1723682,13.3600236 16.5090117,9.27368367 20.24,6.82 C23.73,4.82 26.6,6.38 26.62,10.4 L26.7,21.86 L26.7,25.04 C28.1974293,25.7150879 29.9125707,25.7150879 31.41,25.04 L31.41,21.92 L31.31,7.69 C31.26,0.66 26.45,-1.82 20.2,1.43 Z" id="Shape" fill="url(#linearGradient-6)"></path>
                </g>
            </g>
        </g>
    </g>
</svg>