<?xml version="1.0" encoding="UTF-8"?>
<svg width="268px" height="268px" viewBox="0 0 268 268" version="1.1" xmlns="http://www.w3.org/2000/svg" xmlns:xlink="http://www.w3.org/1999/xlink">
    <!-- Generator: sketchtool 49.3 (51167) - http://www.bohemiancoding.com/sketch -->
    <title>3A7579F9-7E9B-48EA-9AFF-8D0110113AEF</title>
    <desc>Created with sketchtool.</desc>
    <defs>
        <linearGradient x1="-0.0308494508%" y1="50.046961%" x2="100%" y2="50.046961%" id="linearGradient-1">
            <stop stop-color="#7AB4F4" offset="0%"></stop>
            <stop stop-color="#DFEDFA" offset="100%"></stop>
        </linearGradient>
        <linearGradient x1="-56.8791867%" y1="46.1343225%" x2="141.10738%" y2="52.8309254%" id="linearGradient-2">
            <stop stop-color="#6DACEF" offset="0%"></stop>
            <stop stop-color="#97C9FE" offset="100%"></stop>
        </linearGradient>
        <linearGradient x1="3994%" y1="7256%" x2="6943%" y2="7256%" id="linearGradient-3">
            <stop stop-color="#6DACEF" offset="0%"></stop>
            <stop stop-color="#97C9FE" offset="100%"></stop>
        </linearGradient>
        <linearGradient x1="7107%" y1="6088%" x2="10478%" y2="6088%" id="linearGradient-4">
            <stop stop-color="#6DACEF" offset="0%"></stop>
            <stop stop-color="#97C9FE" offset="100%"></stop>
        </linearGradient>
        <linearGradient x1="-8.62309145e-14%" y1="49.9079804%" x2="100%" y2="49.9079804%" id="linearGradient-5">
            <stop stop-color="#E5EDF6" offset="0%"></stop>
            <stop stop-color="#E6F0FA" offset="100%"></stop>
        </linearGradient>
        <linearGradient x1="-0.0354274917%" y1="50.0104063%" x2="100.023618%" y2="50.0104063%" id="linearGradient-6">
            <stop stop-color="#E5EDF6" offset="0%"></stop>
            <stop stop-color="#F0F5FA" offset="100%"></stop>
        </linearGradient>
        <linearGradient x1="2953%" y1="11857%" x2="4767%" y2="11857%" id="linearGradient-7">
            <stop stop-color="#6DACEF" offset="0%"></stop>
            <stop stop-color="#97C9FE" offset="100%"></stop>
        </linearGradient>
        <linearGradient x1="0%" y1="50%" x2="100%" y2="50%" id="linearGradient-8">
            <stop stop-color="#3282ED" offset="0%"></stop>
            <stop stop-color="#60A2F0" offset="100%"></stop>
        </linearGradient>
        <linearGradient x1="1138%" y1="10212%" x2="4767%" y2="10212%" id="linearGradient-9">
            <stop stop-color="#7AB4F4" offset="0%"></stop>
            <stop stop-color="#DFEDFA" offset="100%"></stop>
        </linearGradient>
        <linearGradient x1="2248%" y1="13966%" x2="2248%" y2="17078%" id="linearGradient-10">
            <stop stop-color="#6DACEF" offset="0%"></stop>
            <stop stop-color="#97C9FE" offset="100%"></stop>
        </linearGradient>
        <linearGradient x1="3309%" y1="14948%" x2="3309%" y2="18060%" id="linearGradient-11">
            <stop stop-color="#6DACEF" offset="0%"></stop>
            <stop stop-color="#97C9FE" offset="100%"></stop>
        </linearGradient>
        <linearGradient x1="3884%" y1="13645%" x2="3884%" y2="16757%" id="linearGradient-12">
            <stop stop-color="#6DACEF" offset="0%"></stop>
            <stop stop-color="#97C9FE" offset="100%"></stop>
        </linearGradient>
        <linearGradient x1="23413%" y1="14234%" x2="24396%" y2="14234%" id="linearGradient-13">
            <stop stop-color="#6DACEF" offset="0%"></stop>
            <stop stop-color="#97C9FE" offset="100%"></stop>
        </linearGradient>
        <linearGradient x1="22430%" y1="14233%" x2="23414%" y2="14233%" id="linearGradient-14">
            <stop stop-color="#3282ED" offset="0%"></stop>
            <stop stop-color="#60A2F0" offset="100%"></stop>
        </linearGradient>
        <linearGradient x1="22430%" y1="13343%" x2="24396%" y2="13343%" id="linearGradient-15">
            <stop stop-color="#7AB4F4" offset="0%"></stop>
            <stop stop-color="#DFEDFA" offset="100%"></stop>
        </linearGradient>
        <linearGradient x1="23032%" y1="15376%" x2="23032%" y2="17062%" id="linearGradient-16">
            <stop stop-color="#6DACEF" offset="0%"></stop>
            <stop stop-color="#97C9FE" offset="100%"></stop>
        </linearGradient>
        <linearGradient x1="23606%" y1="15908%" x2="23606%" y2="17594%" id="linearGradient-17">
            <stop stop-color="#6DACEF" offset="0%"></stop>
            <stop stop-color="#97C9FE" offset="100%"></stop>
        </linearGradient>
        <linearGradient x1="23918%" y1="15202%" x2="23918%" y2="16888%" id="linearGradient-18">
            <stop stop-color="#6DACEF" offset="0%"></stop>
            <stop stop-color="#97C9FE" offset="100%"></stop>
        </linearGradient>
    </defs>
    <g id="Symbols" stroke="none" stroke-width="1" fill="none" fill-rule="evenodd">
        <g id="how-icons/5">
            <g id="how-5-14">
                <path d="M158.36,162.38 L55.67,103 C55.0590642,102.689335 54.3118479,102.910657 53.9686539,103.50393 C53.62546,104.097203 53.8061196,104.855278 54.38,105.23 L157.07,164.61 L158.36,162.38 Z" id="Shape" fill="#D5DFED" fill-rule="nonzero"></path>
                <path d="M147.86,159.56 C148.087939,159.562222 148.312336,159.503534 148.51,159.39 L228,113.09 C231.79371,110.878389 234.130542,106.821283 234.14,102.43 L234.14,72.28 C234.14,71.5675527 233.562447,70.99 232.85,70.99 C232.137553,70.99 231.56,71.5675527 231.56,72.28 L231.56,102.42 C231.553574,105.896719 229.703725,109.109214 226.7,110.86 L147.22,157.16 C146.721019,157.455442 146.4805,158.047525 146.632091,158.607246 C146.783682,159.166967 147.290123,159.556749 147.87,159.56 L147.86,159.56 Z" id="Shape" fill="#D5DFED" fill-rule="nonzero"></path>
                <path d="M45.36,130.05 L108.13,94.2 C109.05,93.67 108.93,92.74 107.87,92.13 L105.87,90.95 C104.764387,90.3350987 103.433054,90.279472 102.28,90.8 L39.46,126.65 C38.54,127.18 38.66,128.11 39.72,128.72 L41.72,129.9 C42.838825,130.531701 44.1929935,130.587504 45.36,130.05 Z" id="Shape" fill="#00439C" fill-rule="nonzero" opacity="0.1"></path>
                <g id="folder" transform="translate(39.000000, 4.000000)" fill-rule="nonzero">
                    <polygon id="Shape" fill="#FFFFFF" points="52.5 56.02 52.5 1.65 49.68 0.83 9.94 24.8 9.93 79.17 12.26 80.33"></polygon>
                    <polygon id="Shape" fill="#CFD5EA" points="12.26 80.33 12.26 25.87 10.14 24.78 9.94 24.8 9.93 79.17"></polygon>
                    <polygon id="Shape" fill="#E6EBF4" points="52.5 1.65 50.21 0.52 9.94 24.8 12.26 25.96"></polygon>
                    <path d="M65.78,50.2 L64.71,86.9 C64.7087561,88.3172261 63.9445557,89.6240088 62.71,90.32 L6,122.44 L5.82,122.54 L4.18,122.54 C2.20030011,121.55359 0.949291302,119.531836 0.95,117.32 L0.95,72.99 L4.35,71.32 L10,68 L12.41,69.42 L27.22,61.42 L29.99,62.42 L32.99,64.25 L52.66,53.25 L52.59,51.84 L59.95,48.01 L65.78,50.2 Z" id="Shape" fill="url(#linearGradient-1)"></path>
                    <path d="M6.88,75.92 C6.88,75.92 6.81,113.81 6.81,118.7 C6.81,120.99 6.48,121.99 5.97,122.44 L5.79,122.54 L4.15,122.54 C2.17030011,121.55359 0.919291302,119.531836 0.92,117.32 L0.92,72.99 L4.32,71.32 L6.88,75.92 Z" id="Shape" fill="url(#linearGradient-2)"></path>
                    <polygon id="Shape" fill="url(#linearGradient-3)" points="28.69 61.7 30.43 62.77 6.88 75.93 0.94 72.97 9.94 67.98 12.36 69.43 27.61 61.2"></polygon>
                    <polygon id="Shape" fill="url(#linearGradient-4)" points="65.78 49.86 35.91 66.79 32.07 63.78 32.93 64.3 52.6 53.32 52.47 50.67 59.25 46.96"></polygon>
                    <path d="M25.88,33.29 C25.490632,33.2911246 25.1479295,33.0333992 25.0409615,32.659011 C24.9339934,32.2846228 25.0888104,31.884749 25.42,31.68 L46.52,18.44 C46.7827459,18.2646589 47.1198884,18.2455083 47.4008,18.389968 C47.6817115,18.5344278 47.8622525,18.8197991 47.8724714,19.1355133 C47.8826904,19.4512276 47.7209817,19.7476767 47.45,19.91 L26.34,33.16 C26.2020327,33.2459328 26.0425374,33.2910075 25.88,33.29 Z" id="Shape" fill="#9199B5"></path>
                    <path d="M19.35,37.18 C18.9558029,37.184157 18.6080756,36.9227356 18.5025653,36.5428985 C18.397055,36.1630614 18.5601341,35.7597494 18.9,35.56 L21.1,34.24 C21.3697355,34.0792305 21.7047509,34.0745755 21.9788492,34.2277886 C22.2529474,34.3810016 22.4244865,34.668806 22.4288492,34.9827886 C22.4332119,35.2967711 22.2697355,35.5892305 22,35.75 L19.8,37.07 C19.662698,37.146662 19.5071847,37.1846764 19.35,37.18 Z" id="Shape" fill="#9199B5"></path>
                    <path d="M40.28,34.11 C39.8858029,34.114157 39.5380756,33.8527356 39.4325653,33.4728985 C39.327055,33.0930614 39.4901341,32.6897494 39.83,32.49 L47.06,28.18 C47.3261629,28.0120852 47.661689,27.9989217 47.9401889,28.1454681 C48.2186889,28.2920144 48.3978519,28.5760068 48.4101889,28.8904681 C48.422526,29.2049293 48.2661629,29.5020852 48,29.67 L40.73,34 C40.592698,34.076662 40.4371847,34.1146764 40.28,34.11 Z" id="Shape" fill="#9199B5"></path>
                    <path d="M19.36,47.24 C18.9751672,47.2385505 18.6370085,46.9844431 18.5285459,46.6152084 C18.4200832,46.2459737 18.5670893,45.8493492 18.89,45.64 L34.45,35.7 C34.7125902,35.5320852 35.0448151,35.5170156 35.3215287,35.660468 C35.5982423,35.8039204 35.7774053,36.0841008 35.7915287,36.3954681 C35.8056521,36.7068353 35.6525902,37.0020852 35.39,37.17 L19.82,47.11 C19.6818125,47.1954337 19.5224638,47.240467 19.36,47.24 Z" id="Shape" fill="#9199B5"></path>
                    <path d="M18.86,56.79 C18.470632,56.7911246 18.1279295,56.5333992 18.0209615,56.159011 C17.9139934,55.7846228 18.0688104,55.384749 18.4,55.18 L43,39.85 C43.4086907,39.595949 43.945949,39.7213093 44.2,40.13 C44.454051,40.5386907 44.3286907,41.075949 43.92,41.33 L19.32,56.66 C19.1818125,56.7454337 19.0224638,56.790467 18.86,56.79 Z" id="Shape" fill="#9199B5"></path>
                </g>
                <g id="wallet" transform="translate(21.000000, 169.000000)" fill-rule="nonzero">
                    <path d="M113,33.12 L104.81,37.86 L113.01,33.13 L113.01,31.2 C113.01,31.2 115.39,29.76 116.89,30.52 L65.69,0.97 C65.2210384,0.703977633 64.6890523,0.569253874 64.15,0.58 C63.2338095,0.612063928 62.3415264,0.880782391 61.56,1.36 L3.29,35 C2.45357382,35.449468 1.76049592,36.1252189 1.29,36.95 C1.07548028,37.3494406 0.965404517,37.7966234 0.97,38.25 L0.97,40.41 C1.07605143,41.4290706 1.70498641,42.3194304 2.63,42.76 L6.25,44.85 L3.34,46.54 C2.50357382,46.989468 1.81049592,47.6652189 1.34,48.49 C1.10372861,48.8819358 0.982444782,49.3324186 0.99,49.79 C1.07206496,50.8437132 1.71899768,51.7700902 2.68,52.21 L45,76.62 C47.51,78.06 51.9,77.89 54.8,76.2 L112.55,42.89 C112.722287,42.8145983 112.889328,42.7277371 113.05,42.63 C115.498575,41.0488257 117.041567,38.3904179 117.2,35.48 C117.17,32.86 115.32,31.81 113,33.12 Z" id="Shape" fill="#835CEE"></path>
                    <path d="M118.85,33.72 C118.8637,33.6204692 118.8637,33.5195308 118.85,33.42 C118.835405,33.2640505 118.805255,33.1099509 118.76,32.96 C118.772838,32.9040605 118.772838,32.8459395 118.76,32.79 C118.728797,32.6356195 118.681886,32.4848349 118.62,32.34 C118.62,32.28 118.62,32.22 118.56,32.18 C118.488737,32.0222642 118.408609,31.8686855 118.32,31.72 L118.32,31.65 C118.07112,31.2417395 117.72826,30.8988804 117.32,30.65 L117.25,30.65 L65.72,0.94 C65.2510384,0.673977633 64.7190523,0.539253874 64.18,0.55 C63.2638095,0.582063928 62.3715264,0.850782391 61.59,1.33 L3.29,35 C2.59232744,35.3783731 1.98236827,35.8997349 1.5,36.53 C1.39984111,36.6611841 1.3127595,36.8018544 1.24,36.95 C1.00372861,37.3419358 0.882444782,37.7924186 0.89,38.25 L0.89,40.41 C0.996051426,41.4290706 1.62498641,42.3194304 2.55,42.76 L6.17,44.85 L45,67.18 C47.51,68.62 51.9,68.45 54.8,66.76 L103.56,38.62 L104.87,37.86 L113.06,33.12 C113.845426,32.56465 114.849523,32.4196138 115.76,32.73 C115.798485,32.714432 115.841515,32.714432 115.88,32.73 C116.821838,33.2893597 117.343736,34.3527753 117.21,35.44 C117.057137,38.3468754 115.516877,41.0032672 113.07,42.58 L112.55,42.88 L108.74,45.07 L54.74,76.19 C51.84,77.88 47.45,78.05 44.94,76.61 L2.59,52.16 C1.62899768,51.7200902 0.982064961,50.7937132 0.9,49.74 L0.9,51.9 C1.00605143,52.9190706 1.63498641,53.8094304 2.56,54.25 L45,78.71 C47.51,80.15 51.9,79.98 54.8,78.29 L113,44.68 L113.06,44.68 C116.520548,42.4051282 118.698215,38.6248167 118.93,34.49 C118.920335,34.2318506 118.89361,33.9746227 118.85,33.72 Z" id="Shape" fill="#AC91FF"></path>
                    <path d="M113,31.06 C114.132569,30.2733172 115.566887,30.0589088 116.88,30.48 L65.72,0.94 C65.2510384,0.673977633 64.7190523,0.539253874 64.18,0.55 C63.2638095,0.582063928 62.3715264,0.850782391 61.59,1.33 L3.29,35 C3.08293158,35.1247815 2.88569177,35.2651895 2.7,35.42 C2.56451828,35.5018123 2.43426592,35.5919871 2.31,35.69 C2.20095034,35.7874544 2.09745436,35.8909503 2,36 C1.85914447,36.1361472 1.7256229,36.2796829 1.6,36.43 L1.54,36.49 C1.43984111,36.6211841 1.3527595,36.7618544 1.28,36.91 C1.28,36.91 1.28,36.97 1.28,36.98 C1.28,36.99 1.18,37.21 1.14,37.31 C1.1,37.41 1.05,37.6 1.02,37.73 C1.0138336,37.8365775 1.0138336,37.9434225 1.02,38.05 C1.02,38.11 1.02,38.15 1.02,38.21 C1.02,38.27 1.02,38.34 1.02,38.41 C1.02821408,38.5324516 1.05173038,38.6533926 1.09,38.77 C1.12167081,38.8953051 1.16869327,39.01622 1.23,39.13 C1.270576,39.239229 1.31731781,39.3460674 1.37,39.45 C1.47140701,39.5901959 1.58162958,39.723799 1.7,39.85 C1.76275171,39.9267992 1.82951114,40.0002346 1.9,40.07 C2.12607487,40.2839054 2.37803301,40.4686747 2.65,40.62 L21.53,51.52 L45,65.09 C45.22,65.21 45.45,65.31 45.69,65.41 C48.6910946,66.4748235 52.0034343,66.213036 54.8,64.69 L101.91,37.5 L113,31.06 Z" id="Shape" fill="#956EFF"></path>
                    <path d="M37,50.45 C27.5,52.74 19.07,58.95 19,63.26 C18.9555913,63.5282039 18.9255485,63.7985895 18.91,64.07 L11.77,60.27 C10.62,59.58 10.49,59.37 9.93,59.03 L9.73,58.9 C4.63,55.41 15.02,43.9 23.51,42.64 C25.12,42.41 27.39,41.93 29.03,42.88 L36.61,47.26 C38.22,48.21 38.58,50.06 37,50.45 Z" id="Shape" fill="#AC91FF"></path>
                    <path d="M31.07,46.17 C31.0104536,45.4285636 30.5443583,44.781423 29.86,44.49 C28.0198876,43.5942484 25.8701124,43.5942484 24.03,44.49 C23.3729062,44.7706824 22.9154688,45.3805989 22.83,46.09 L22.83,46.95 C22.8995356,47.6638109 23.3459546,48.2857451 24,48.58 C25.8401124,49.4757516 27.9898876,49.4757516 29.83,48.58 C30.5148526,48.3020823 30.9808456,47.6574586 31.03,46.92 L31.07,46.17 Z" id="Shape" fill="url(#linearGradient-5)"></path>
                    <path d="M29.87,47.72 C28.0298876,48.6157516 25.8801124,48.6157516 24.04,47.72 C22.43,46.82 22.42,45.37 24.04,44.48 C25.8801124,43.5842484 28.0298876,43.5842484 29.87,44.48 C31.47,45.38 31.48,46.83 29.87,47.72 Z" id="Shape" fill="#FFFFFF"></path>
                </g>
                <rect id="Rectangle-path" x="0" y="0" width="268" height="268"></rect>
                <path d="M265.7,215.05 L254.48,221.57 L231.89,208.57 L216.36,215.32 C217.846607,215.888677 219.293216,216.556856 220.69,217.32 C232.87,224.32 234,234.62 220.53,242.44 C205.79,251 186.7,249.81 173.64,242.27 C166.27,238 161,231.16 163.25,225 L178.25,223.81 C176.91,228 179.97,232.94 185.18,235.95 C191.76,239.75 201.26,239.69 207.99,235.78 C214.72,231.87 214.69,225.63 205.46,220.3 C201.348511,217.938386 196.962278,216.091197 192.4,214.8 L233.22,196.31 L265.7,215.05 Z" id="Shape" fill="#3DA4ED" fill-rule="nonzero"></path>
                <path d="M128.23,171.53 L128.43,171.63 L128.53,171.69 L134.91,175.34 L136.18,176.08 C142.87,179.6 151.97,178.88 161.98,173.08 C182.54,161.22 199.2,132.46 199.2,108.88 C199.2,97.16 195.09,88.88 188.41,85.04 C188.27,84.94 188.09,84.86 187.93,84.76 L181.37,81 C174.62,77 165.2,77.5 154.77,83.52 C134.21,95.4 117.55,124.14 117.55,147.74 C117.54,159.44 121.61,167.64 128.23,171.53 Z" id="Shape" fill="#08A16E" fill-rule="nonzero"></path>
                <path d="M133.47,119.37 L133.15,120.02 C127.9,130.42 124.75,141.65 124.75,151.91 C124.75,175.5 141.42,185.01 161.98,173.14 C182.54,161.27 199.21,132.52 199.21,108.93 C199.21,85.34 182.53,75.82 162,87.69 C154.665662,92.1272475 148.22236,97.8923065 143,104.69" id="Shape" fill="#23C48A" fill-rule="nonzero"></path>
                <path d="M159.58,149.29 C158.708401,149.92502 157.563034,150.043375 156.58,149.6 L145.23,143.13 C143.56,142.18 143.56,139.08 145.23,136.2 C146.9,133.32 149.6,131.76 151.23,132.71 L159.56,137.46 L175,110.87 C176.67,108 179.37,106.43 181,107.38 C182.63,108.33 182.67,111.43 181,114.31 L162.56,146.11 C161.852187,147.405397 160.826756,148.49965 159.58,149.29 Z" id="Shape" fill="#FFFFFF" fill-rule="nonzero"></path>
                <g id="rating" transform="translate(172.000000, 13.000000)" fill-rule="nonzero">
                    <path d="M85.76,45.77 L7.48,0.77 C6.87363089,0.331934152 6.0659487,0.292726279 5.42,0.67 L1.6,2.91 C0.969798728,3.51331781 0.6494398,4.37129057 0.73,5.24 L0.73,47.14 C0.759763393,49.4326555 1.87228276,51.5761095 3.73,52.92 L82.41,98.34 C83.0163691,98.7780658 83.8240513,98.8172737 84.47,98.44 L84.52,98.44 L87.94,95.81 C88.5702013,95.2066822 88.8905602,94.3487094 88.81,93.48 L88.81,51.55 C88.7686089,49.2483812 87.6366335,47.103195 85.76,45.77 Z" id="Shape" fill="#DCE7F2"></path>
                    <path d="M3.64,52.92 L82.32,98.34 C83.99,99.34 85.32,98.28 85.32,96.05 L85.32,54.21 C85.2902366,51.9173445 84.1777172,49.7738905 82.32,48.43 L3.64,3 C1.97,2 0.64,3.06 0.64,5.29 L0.64,47.14 C0.669763393,49.4326555 1.78228276,51.5761095 3.64,52.92 Z" id="Shape" fill="url(#linearGradient-6)"></path>
                    <path d="M21.57,27.09 L19.49,28.22 C19.2744138,28.3823239 19.179367,28.6595438 19.25,28.92 L19.73,32.48 C19.85,33.31 19.15,33.48 18.55,32.78 L15.98,29.78 C15.8080636,29.5239926 15.5276262,29.3616341 15.22,29.34 L12.66,29.4 C12.06,29.4 11.35,28.4 11.47,27.72 L11.96,24.72 C11.9969498,24.3690135 11.912223,24.0159851 11.72,23.72 L9.64,20.2 C9.15,19.37 9.41,18.58 10.09,18.86 L13,20 C13.2103703,20.1236667 13.480972,20.0571253 13.61,19.85 L14.89,17.6 C15.19,17.07 16.06,17.6 16.36,18.45 L17.64,22.17 C17.758188,22.5138533 17.9735513,22.8160566 18.26,23.04 L21.13,25.18 C21.79,25.72 22.06,26.83 21.57,27.09 Z" id="Shape" fill="#08A16E"></path>
                    <path d="M35.26,35 L33.18,36.12 C32.9595403,36.2787467 32.8633238,36.5593781 32.94,36.82 L33.42,40.38 C33.54,41.22 32.83,41.38 32.24,40.68 L29.67,37.68 C29.492192,37.4303559 29.2150314,37.2698945 28.91,37.24 L26.34,37.3 C25.75,37.3 25.04,36.3 25.16,35.62 L25.64,32.62 C25.6812139,32.2687473 25.5961434,31.914287 25.4,31.62 L23.32,28.1 C22.84,27.27 23.1,26.48 23.78,26.76 L26.64,27.94 C26.8566523,28.0574657 27.1272448,27.9876354 27.26,27.78 L28.54,25.53 C28.84,25 29.71,25.53 30.01,26.38 L31.29,30.11 C31.4102002,30.4528143 31.6251902,30.7544937 31.91,30.98 L34.77,33.11 C35.47,33.63 35.74,34.73 35.26,35 Z" id="Shape" fill="#08A16E"></path>
                    <path d="M48.93,42.89 L46.86,44 C46.6444138,44.1623239 46.549367,44.4395438 46.62,44.7 L47.11,48.26 C47.23,49.1 46.52,49.26 45.92,48.57 L43.36,45.57 C43.182192,45.3203559 42.9050314,45.1598945 42.6,45.13 L40.03,45.19 C39.43,45.19 38.73,44.19 38.85,43.51 L39.33,40.51 C39.3629835,40.159284 39.2785659,39.8075441 39.09,39.51 L37,36 C36.52,35.17 36.78,34.39 37.46,34.66 L40.32,35.84 C40.5359617,35.9628629 40.8104608,35.8920245 40.94,35.68 L42.22,33.44 C42.52,32.91 43.39,33.44 43.69,34.29 L45,38 C45.1211704,38.339696 45.3319425,38.6403053 45.61,38.87 L48.48,41 C49.16,41.53 49.43,42.62 48.93,42.89 Z" id="Shape" fill="#08A16E"></path>
                    <path d="M62.62,50.79 L60.54,51.92 C60.323694,52.0772658 60.227979,52.3524465 60.3,52.61 L60.79,56.18 C60.9,57.01 60.2,57.18 59.6,56.48 L57.04,53.48 C56.857127,53.2359896 56.5826678,53.0770922 56.28,53.04 L53.71,53.12 C53.11,53.12 52.41,52.12 52.52,51.43 L53.01,48.43 C53.0469498,48.0790135 52.962223,47.7259851 52.77,47.43 L50.69,43.9 C50.21,43.08 50.47,42.29 51.14,42.57 L54,43.74 C54.2129496,43.8618897 54.4842918,43.7907179 54.61,43.58 L55.9,41.34 C56.2,40.81 57.06,41.34 57.36,42.19 L58.65,45.91 C58.763354,46.2536768 58.9755359,46.5562969 59.26,46.78 L62.13,48.92 C62.83,49.42 63.1,50.53 62.62,50.79 Z" id="Shape" fill="#08A16E"></path>
                    <path d="M76.3,58.69 L74.22,59.82 C74.0044138,59.9823239 73.909367,60.2595438 73.98,60.52 L74.47,64.08 C74.58,64.91 73.88,65.08 73.28,64.38 L70.71,61.38 C70.5380636,61.1239926 70.2576262,60.9616341 69.95,60.94 L67.4,61 C66.8,61 66.09,60 66.21,59.32 L66.7,56.32 C66.7369498,55.9690135 66.652223,55.6159851 66.46,55.32 L64.38,51.8 C63.9,50.97 64.15,50.18 64.83,50.46 L67.7,51.63 C67.8004906,51.6921431 67.9217517,51.7112595 68.0364867,51.6830459 C68.1512217,51.6548324 68.2497888,51.5816599 68.31,51.48 L69.59,49.23 C69.89,48.7 70.76,49.23 71.06,50.08 L72.34,53.8 C72.458188,54.1438533 72.6735513,54.4460566 72.96,54.67 L75.83,56.81 C76.52,57.32 76.79,58.43 76.3,58.69 Z" id="Shape" fill="#08A16E"></path>
                </g>
                <path d="M223.27,75.12 C223.276953,75.2098657 223.276953,75.3001343 223.27,75.39 C223.277823,75.4664671 223.277823,75.5435329 223.27,75.62 L223.27,75.77 L223.2,75.82 L223.1,75.82 L220.75,74.46 L220.75,82.89 L220.75,82.98 L220.66,82.98 C220.601277,82.966388 220.544258,82.9462633 220.49,82.92 L220.22,82.79 L219.95,82.61 C219.890106,82.5673965 219.833298,82.5206132 219.78,82.47 L219.69,82.35 L219.69,82.23 L219.69,73.8 L217.34,72.44 L217.24,72.36 L217.17,72.22 L217.17,72.03 C217.162949,71.9468158 217.162949,71.8631842 217.17,71.78 C217.162209,71.6968487 217.162209,71.6131513 217.17,71.53 L217.17,71.38 L217.24,71.33 L217.34,71.33 L223.15,74.68 L223.25,74.76 L223.32,74.9 L223.27,75.12 Z" id="Shape" fill="#000000" fill-rule="nonzero"></path>
                <path d="M215.78,75.77 C215.961265,76.0844592 216.102367,76.4204154 216.2,76.77 C216.308469,77.116218 216.362447,77.4771963 216.36,77.84 C216.377574,78.208402 216.305513,78.5755684 216.15,78.91 C216.028466,79.1602458 215.818149,79.3563043 215.56,79.46 C215.269712,79.5470034 214.960288,79.5470034 214.67,79.46 C214.28643,79.3646749 213.919106,79.2130274 213.58,79.01 C213.312003,78.8553507 213.057741,78.6780362 212.82,78.48 C212.600793,78.3074884 212.39052,78.1239169 212.19,77.93 C212.003333,77.7433333 211.85,77.5733333 211.73,77.42 C211.635536,77.3058291 211.548682,77.1855696 211.47,77.06 C211.421979,76.9680304 211.385053,76.8706816 211.36,76.77 C211.347786,76.6402869 211.347786,76.5097131 211.36,76.38 C211.36,76.28 211.36,76.19 211.36,76.12 L211.36,75.97 L211.42,75.92 L211.51,75.92 C211.607526,75.9957362 211.691978,76.0869453 211.76,76.19 C211.887853,76.3669014 212.024699,76.5371252 212.17,76.7 C212.362292,76.9204164 212.5659,77.1306994 212.78,77.33 C213.030545,77.5594146 213.305527,77.7606206 213.6,77.93 C213.799695,78.0542081 214.019732,78.1422228 214.25,78.19 C214.416603,78.2380611 214.593397,78.2380611 214.76,78.19 C214.90685,78.1346657 215.025605,78.0231081 215.09,77.88 C215.176088,77.6920444 215.217175,77.4866082 215.21,77.28 C215.209485,77.0119041 215.155073,76.7466482 215.05,76.5 C214.942976,76.2380363 214.805354,75.9896454 214.64,75.76 C214.459108,75.5011584 214.262049,75.2539998 214.05,75.02 L213.37,74.26 C213.14,74 212.92,73.73 212.69,73.45 C212.475487,73.1746921 212.281625,72.8838993 212.11,72.58 C211.933574,72.2631641 211.792718,71.9277934 211.69,71.58 C211.580271,71.2272063 211.526288,70.8594456 211.53,70.49 C211.514519,70.1625475 211.579767,69.8363098 211.72,69.54 C211.821174,69.3139427 212.008336,69.1375779 212.24,69.05 C212.497621,68.9724283 212.772379,68.9724283 213.03,69.05 C213.382403,69.1345253 213.719689,69.2728124 214.03,69.46 C214.22154,69.5706723 214.405301,69.6942931 214.58,69.83 C214.76,69.97 214.93,70.12 215.1,70.28 C215.27,70.44 215.4,70.59 215.53,70.73 C215.620833,70.8341118 215.704365,70.9443743 215.78,71.06 L215.86,71.22 L215.86,71.34 L215.86,71.51 C215.86,71.57 215.86,71.65 215.86,71.74 C215.864029,71.8166137 215.864029,71.8933863 215.86,71.97 L215.86,72.12 L215.8,72.19 L215.72,72.19 C215.634858,72.12557 215.560584,72.04792 215.5,71.96 L215.14,71.52 C214.99,71.35 214.83,71.18 214.63,70.99 C214.428269,70.8062795 214.206938,70.6453111 213.97,70.51 C213.787983,70.3978758 213.588601,70.3167716 213.38,70.27 C213.243204,70.227644 213.096796,70.227644 212.96,70.27 C212.847627,70.3279564 212.759154,70.4235073 212.71,70.54 C212.653666,70.6901481 212.626514,70.8496698 212.63,71.01 C212.631847,71.2747264 212.686231,71.5364522 212.79,71.78 C212.903726,72.0438324 213.044477,72.2951738 213.21,72.53 C213.392535,72.7908009 213.589509,73.0411917 213.8,73.28 L214.48,74.05 C214.71,74.31 214.94,74.57 215.16,74.86 C215.39283,75.1446564 215.600289,75.4491525 215.78,75.77 Z" id="Shape" fill="#000000" fill-rule="nonzero"></path>
                <path d="M210,67.2 L210.09,67.32 L210.09,67.44 L210.09,73.29 C210.103058,73.7768308 210.025054,74.2618166 209.86,74.72 C209.75362,75.0540601 209.529809,75.3382649 209.23,75.52 C208.924781,75.6867163 208.569267,75.7364883 208.23,75.66 C207.759064,75.5678478 207.308553,75.391708 206.9,75.14 C206.444931,74.86202 206.028078,74.5258489 205.66,74.14 C204.903265,73.3936862 204.361018,72.457707 204.09,71.43 C203.947392,70.8814859 203.876798,70.3167403 203.88,69.75 L203.88,63.8 L203.88,63.71 L203.97,63.71 L204.14,63.76 L204.41,63.9 L204.67,64.07 L204.84,64.21 L204.93,64.33 L204.93,64.45 L204.93,70.25 C204.926034,70.6674903 204.973048,71.0839037 205.07,71.49 C205.15611,71.8593949 205.290605,72.2158068 205.47,72.55 C205.824233,73.2001614 206.354494,73.7373539 207,74.1 C207.259642,74.263306 207.548182,74.3753274 207.85,74.43 C208.068896,74.4687456 208.294321,74.4222295 208.48,74.3 C208.672781,74.1552352 208.813191,73.9516418 208.88,73.72 C208.976624,73.3955894 209.02382,73.0584727 209.02,72.72 L209.02,66.86 L209.02,66.77 L209.11,66.77 L209.28,66.83 L209.54,66.97 L209.8,67.13 L210,67.2 Z" id="Shape" fill="#000000" fill-rule="nonzero"></path>
                <path d="M202.48,71.81 C202.54,72.03 202.57,72.17 202.59,72.26 L202.59,72.44 L202.59,72.54 L202.51,72.54 C202.443765,72.5307292 202.379547,72.5104496 202.32,72.48 L202.01,72.32 L201.74,72.15 C201.67783,72.106606 201.620797,72.0562827 201.57,72 L201.47,71.85 L201.41,71.67 L200.65,68.93 C200.56,68.62 200.47,68.32 200.37,68.05 C200.275291,67.7839085 200.158205,67.5263204 200.02,67.28 C199.88926,67.0487883 199.731485,66.8339462 199.55,66.64 C199.359844,66.4386838 199.140776,66.2667996 198.9,66.13 L198.16,65.7 L198.16,69.85 L198.16,69.94 L198,69.94 L197.83,69.94 L197.56,69.8 L197.29,69.63 L197.12,69.48 L197.03,69.36 L197.03,69.24 L197.03,60.24 C197.03,60.04 197.03,59.93 197.17,59.91 C197.259001,59.8697849 197.360999,59.8697849 197.45,59.91 L199.23,60.91 L199.75,61.23 L200.13,61.5 C200.437257,61.7400476 200.721788,62.0078418 200.98,62.3 C201.220535,62.5752012 201.428573,62.8771912 201.6,63.2 C201.765217,63.5163049 201.889547,63.8523326 201.97,64.2 C202.055345,64.5265145 202.099026,64.8625173 202.1,65.2 C202.111634,65.4703823 202.077831,65.7408009 202,66 C201.935835,66.1899233 201.82187,66.3591436 201.67,66.49 C201.523665,66.6109555 201.34753,66.690389 201.16,66.72 C200.937833,66.7522778 200.712167,66.7522778 200.49,66.72 C200.632704,66.8666231 200.760033,67.0274604 200.87,67.2 C200.986045,67.3828059 201.089614,67.5732391 201.18,67.77 C201.285183,67.9916041 201.378646,68.2185839 201.46,68.45 C201.54,68.69 201.62,68.96 201.71,69.26 L202.48,71.81 Z M200,65.62 C200.172261,65.6757955 200.357739,65.6757955 200.53,65.62 C200.678881,65.5554897 200.794623,65.4325135 200.85,65.28 C200.920456,65.0879856 200.954373,64.8844859 200.95,64.68 C200.953988,64.3062437 200.882565,63.9355213 200.74,63.59 C200.569131,63.2067368 200.316573,62.8654423 200,62.59 C199.885014,62.4872695 199.764857,62.3904768 199.64,62.3 L199.11,61.97 L198.17,61.43 L198.17,64.72 L199.26,65.35 C199.495322,65.4929211 199.751851,65.597558 200.02,65.66 L200,65.62 Z" id="Shape" fill="#000000" fill-rule="nonzero"></path>
                <path d="M195.44,58.87 C195.44566,58.9365465 195.44566,59.0034535 195.44,59.07 C195.44,59.15 195.44,59.24 195.44,59.33 C195.44,59.42 195.44,59.5 195.44,59.57 L195.44,59.71 L195.37,59.76 L195.27,59.76 L192.92,58.4 L192.92,66.84 L192.92,66.94 L192.82,66.94 C192.763641,66.9483497 192.706359,66.9483497 192.65,66.94 L192.38,66.8 L192.11,66.63 C192.0488,66.5853851 191.991888,66.5351683 191.94,66.48 L191.84,66.36 L191.84,66.24 L191.84,57.8 L189.48,56.44 L189.39,56.36 L189.32,56.22 L189.32,56.03 C189.313119,55.9434699 189.313119,55.8565301 189.32,55.77 C189.312209,55.6868487 189.312209,55.6031513 189.32,55.52 C189.310294,55.470471 189.310294,55.419529 189.32,55.37 L189.39,55.32 L189.48,55.32 L195.3,58.68 L195.4,58.76 L195.44,58.87 Z" id="Shape" fill="#000000" fill-rule="nonzero"></path>
                <path d="M252.54,92 C252.54,92.08 252.54,92.17 252.54,92.26 C252.54,92.35 252.54,92.43 252.54,92.5 L252.54,92.64 L252.47,92.69 L252.37,92.69 L250,91.34 L250,99.78 L250,99.88 L249.91,99.88 L249.74,99.88 L249.47,99.74 L249.21,99.57 L249.03,99.42 L248.94,99.3 L248.94,99.18 L248.94,90.74 L246.59,89.38 L246.5,89.3 L246.43,89.16 L246.43,88.97 C246.43,88.89 246.43,88.81 246.43,88.71 C246.43,88.61 246.43,88.53 246.43,88.46 C246.422607,88.4102733 246.422607,88.3597267 246.43,88.31 L246.5,88.26 L246.59,88.26 L252.4,91.61 L252.5,91.69 L252.57,91.83 C252.564094,91.8873134 252.554068,91.944127 252.54,92 Z" id="Shape" fill="#606060" fill-rule="nonzero"></path>
                <path d="M245.19,88.71 C245.488203,89.305438 245.706746,89.9375318 245.84,90.59 C245.98684,91.3004491 246.057241,92.0245708 246.05,92.75 C246.060087,93.4046531 245.979317,94.0575412 245.81,94.69 C245.693621,95.1390277 245.450644,95.5451478 245.11,95.86 C244.781688,96.1175059 244.363902,96.2327573 243.95,96.18 C243.370071,96.1048462 242.813674,95.9034508 242.32,95.59 C241.734943,95.2565892 241.199699,94.842532 240.73,94.36 C240.289212,93.8927192 239.918672,93.3638589 239.63,92.79 C239.329822,92.1953955 239.111186,91.5630324 238.98,90.91 C238.835919,90.1856352 238.76556,89.4485419 238.77,88.71 C238.760371,88.0685383 238.841165,87.4289188 239.01,86.81 C239.121676,86.3647015 239.365746,85.9637293 239.71,85.66 C240.044772,85.4077278 240.463436,85.2932215 240.88,85.34 C241.460101,85.4206883 242.01603,85.6253248 242.51,85.94 C243.086193,86.2691892 243.611651,86.6801245 244.07,87.16 C244.515419,87.6205454 244.892582,88.1425116 245.19,88.71 Z M244.78,93.57 C244.869544,93.1121562 244.913093,92.6465077 244.91,92.18 C244.909502,91.654395 244.869389,91.1295751 244.79,90.61 C244.710054,90.1156321 244.572448,89.6323361 244.38,89.17 C244.190224,88.7239784 243.933985,88.3092748 243.62,87.94 C243.288352,87.5400482 242.888932,87.2015565 242.44,86.94 C242.089891,86.7068887 241.680529,86.5785294 241.26,86.57 C240.963681,86.5834252 240.685631,86.7170337 240.49,86.94 C240.256968,87.2271664 240.108121,87.5733218 240.06,87.94 C239.967884,88.387339 239.924298,88.8433107 239.93,89.3 C239.926724,89.8386509 239.963492,90.3768002 240.04,90.91 C240.116907,91.4039162 240.251147,91.8871797 240.44,92.35 C240.629083,92.7963799 240.885385,93.2111842 241.2,93.58 C241.536088,93.9794062 241.93868,94.3177188 242.39,94.58 C242.742848,94.8164495 243.155417,94.9481944 243.58,94.96 C243.884272,94.9585972 244.171353,94.8187374 244.36,94.58 C244.58239,94.2875923 244.726904,93.9435113 244.78,93.58 L244.78,93.57 Z" id="Shape" fill="#606060" fill-rule="nonzero"></path>
                <path d="M238.42,92.37 L238.42,92.56 C238.42,92.64 238.42,92.73 238.42,92.82 C238.42427,92.899943 238.42427,92.980057 238.42,93.06 L238.42,93.21 L238.35,93.27 L238.25,93.27 L234.55,91.14 C234.436824,91.0688773 234.341123,90.9731755 234.27,90.86 C234.177408,90.7175892 234.131931,90.5496731 234.14,90.38 L234.14,81.38 L234.14,81.28 L234.23,81.28 C234.286422,81.2725578 234.343578,81.2725578 234.4,81.28 L234.67,81.42 L234.93,81.59 L235.1,81.74 L235.19,81.86 L235.19,81.98 L235.19,90.39 L238.19,92.12 L238.29,92.21 L238.42,92.37 Z" id="Shape" fill="#606060" fill-rule="nonzero"></path>
                <path d="M232,79.92 L232.09,80.04 L232.09,80.16 L232.09,89.46 L232.09,89.56 L232,89.56 C231.940372,89.5496671 231.882904,89.5293845 231.83,89.5 L231.56,89.37 L231.3,89.2 C231.238352,89.1597345 231.18134,89.1127831 231.13,89.06 L231.04,88.94 L231.04,88.82 L231.04,79.52 L231.04,79.43 L231.14,79.43 L231.31,79.43 L231.56,79.56 L231.83,79.73 L232,79.92 Z" id="Shape" fill="#606060" fill-rule="nonzero"></path>
                <path d="M229,79.15 C229.161846,79.4677911 229.286021,79.8033981 229.37,80.15 C229.458043,80.5031995 229.501713,80.8659967 229.5,81.23 C229.51455,81.6402747 229.443014,82.049049 229.29,82.43 C229.17286,82.7106109 228.960358,82.9408213 228.69,83.08 C228.395634,83.2137744 228.065922,83.2488502 227.75,83.18 C227.279428,83.071082 226.830057,82.8852519 226.42,82.63 L225.42,82.08 L225.42,85.59 L225.42,85.69 L225.32,85.69 C225.263641,85.6983497 225.206359,85.6983497 225.15,85.69 L224.88,85.55 L224.61,85.38 L224.44,85.23 L224.35,85.11 L224.35,84.99 L224.35,75.99 C224.35,75.78 224.35,75.67 224.49,75.63 C224.595709,75.6011971 224.708707,75.6194224 224.8,75.68 L226.59,76.68 L227.11,77 C227.27,77.11 227.47,77.27 227.69,77.45 C227.944129,77.6656536 228.175351,77.9069287 228.38,78.17 C228.623977,78.4715136 228.832043,78.8003917 229,79.15 Z M228.22,81.43 C228.30385,81.1924736 228.344491,80.9418521 228.34,80.69 C228.344196,80.3148213 228.279805,79.9420332 228.15,79.59 C227.969262,79.0174952 227.620911,78.512386 227.15,78.14 C226.961778,77.9976548 226.764716,77.8673932 226.56,77.75 L225.56,77.16 L225.56,81.06 L226.56,81.64 C226.81558,81.8041589 227.101026,81.9162987 227.4,81.97 C227.793498,82.0440948 228.180202,81.8120726 228.3,81.43 L228.22,81.43 Z" id="Shape" fill="#606060" fill-rule="nonzero"></path>
                <path d="M178.07,48.72 L186.45,53.56 C182.92,54 182.3,59.41 182.27,59.69 C181.218272,57.2549174 179.79463,54.9980052 178.05,53 L178.07,48.72 Z M183.54,55.58 C185,53.33 186.29,53.58 186.36,53.58 L178.12,48.83 L178.12,51.7 C179.348343,52.9678078 180.752736,54.0522551 182.29,54.92 C183.03,55.35 183.51,55.57 183.54,55.58 Z" id="Shape" fill="#F08A1C" fill-rule="nonzero"></path>
                <path d="M186.36,53.56 C186.29,53.56 185,53.33 183.54,55.56 C183.54,55.56 183.04,55.33 182.29,54.9 C180.752736,54.0322551 179.348343,52.9478078 178.12,51.68 L178.12,48.82 L186.36,53.56 Z" id="Shape" fill="#F0B966" fill-rule="nonzero"></path>
                <path d="M182.82,61.12 C182.9,60.92 184.39,57.12 186.44,57.7 L186.44,63.2 L182.82,61.12 Z" id="Shape" fill="#F08A1C" fill-rule="nonzero"></path>
                <path d="M178,56.48 C179.544537,57.5270544 180.830374,58.9120651 181.76,60.53 L178,58.36 L178,56.48 Z" id="Shape" fill="#F08A1C" fill-rule="nonzero"></path>
                <g id="data_cube" opacity="0.3" transform="translate(210.000000, 130.000000)" fill-rule="nonzero">
                    <polygon id="Shape" fill="url(#linearGradient-7)" points="36.67 33.53 18.52 44 18.55 21.59 36.67 11.14"></polygon>
                    <polygon id="Shape" fill="url(#linearGradient-8)" points="0.38 33.53 18.52 44 18.55 21.59 0.38 11.1"></polygon>
                    <polygon id="Shape" fill="url(#linearGradient-9)" points="18.55 21.59 0.38 11.1 18.47 0.64 36.67 11.14"></polygon>
                    <rect id="Rectangle-path" fill="url(#linearGradient-10)" x="10.89" y="48.58" width="1.19" height="31.22"></rect>
                    <rect id="Rectangle-path" fill="url(#linearGradient-11)" x="21.49" y="58.4" width="1.19" height="31.22"></rect>
                    <rect id="Rectangle-path" fill="url(#linearGradient-12)" x="27.25" y="45.37" width="1.19" height="31.22"></rect>
                </g>
                <g id="data_cube-2" opacity="0.3" transform="translate(17.000000, 130.000000)" fill-rule="nonzero">
                    <polygon id="Shape" fill="url(#linearGradient-13)" points="22 19.6292135 11 26 11.0111902 12.3595506 22 6"></polygon>
                    <polygon id="Shape" fill="url(#linearGradient-14)" points="0 19.6251403 10.9888211 26 11 12.3748597 0 6"></polygon>
                    <polygon id="Shape" fill="url(#linearGradient-15)" points="11.0111902 13 0 6.49427313 10.9664293 0 22 6.51718062"></polygon>
                    <rect id="Rectangle-path" fill="url(#linearGradient-16)" x="7" y="29" width="1" height="19"></rect>
                    <rect id="Rectangle-path" fill="url(#linearGradient-17)" x="13" y="35" width="1" height="19"></rect>
                    <rect id="Rectangle-path" fill="url(#linearGradient-18)" x="16" y="27" width="1" height="19"></rect>
                </g>
            </g>
        </g>
    </g>
</svg>