<?xml version="1.0" encoding="UTF-8"?>
<svg width="20px" height="20px" viewBox="0 0 20 20" version="1.1" xmlns="http://www.w3.org/2000/svg" xmlns:xlink="http://www.w3.org/1999/xlink">
    <!-- Generator: sketchtool 49.3 (51167) - http://www.bohemiancoding.com/sketch -->
    <title>CA9CE950-4051-4CFB-82EE-79878AD10464</title>
    <desc>Created with sketchtool.</desc>
    <defs></defs>
    <g id="Coins" stroke="none" stroke-width="1" fill="none" fill-rule="evenodd">
        <g id="Coins/0x-ZRX" fill="#0099F7">
            <path d="M5.66567811,7.25391729 C5.06711842,6.49847768 4.49343871,5.72343808 3.92711901,4.94399848 C3.90935902,4.9179985 3.89351902,4.89103851 3.87735903,4.86399852 C4.09119892,4.60842266 4.3212788,4.36688678 4.56615868,4.1408789 C5.79199805,2.99999948 7.38399722,2.25535987 9.04935637,2.06015997 C9.27415625,2.02959998 9.50111613,2.02399999 9.72647602,2 L10.2058358,2 C10.5065556,2.01975999 10.8078355,2.03759998 11.1065553,2.07999996 C12.1291148,2.22399988 13.1263143,2.56399971 14.0155138,3.09007944 C13.8108739,3.25271935 13.591514,3.39575928 13.3816741,3.5513592 C11.9631949,4.56663868 10.5482356,5.58719815 9.12799633,6.59999763 C9.01295638,6.50463768 8.91327644,6.39271774 8.80415649,6.29103779 C8.47999666,5.98063795 8.16495682,5.66111811 7.83807699,5.35439827 C7.71887705,5.39743825 7.61007711,5.46351821 7.49887717,5.52327818 C6.75687755,5.93727797 6.12543787,6.54063766 5.66567811,7.25391729 Z M17.489272,7.19199812 C18.1019917,8.80343729 18.1642317,10.6151964 17.6715119,12.2664755 C17.499112,12.8482592 17.2602001,13.4082269 16.9595123,13.9352746 C16.9125523,13.8952747 16.8795123,13.8424747 16.8428723,13.7941547 C15.8742888,12.5145794 14.9057773,11.235116 13.9373538,9.9557567 C13.7492739,9.70439683 13.555674,9.45727696 13.3705541,9.20375709 C13.7945539,8.74831732 14.2367937,8.30879755 14.6622335,7.85431778 C14.3657696,7.21399811 13.9411938,6.64124641 13.4147141,6.17143865 C13.2078342,5.98303875 12.9798343,5.82087883 12.7494345,5.66327891 C13.0302343,5.43063903 13.3243142,5.21407914 13.613354,4.99151926 C14.1152738,4.61295945 14.6179935,4.23519965 15.1319932,3.87335983 C16.1869527,4.75095938 17.0056723,5.90863878 17.489272,7.19199812 Z M7.25055729,14.3367136 C7.0392774,14.5142335 6.81631752,14.6774335 6.59839763,14.8464734 C6.21013383,15.1436492 5.81866203,15.4366091 5.42399823,15.7253529 C5.23727833,15.8575929 5.05823842,16.0008728 4.86567852,16.1246327 C3.62359916,15.0863133 2.70935963,13.662474 2.28463985,12.1006348 C2.11199994,11.4816751 2.02799999,10.8412754 2,10.1999958 L2,9.79999598 C2.00928,9.66135605 2.01791999,9.52263612 2.02759999,9.38399619 C2.08860795,8.5899006 2.26859186,7.809485 2.56151971,7.06887739 C2.70551964,6.71263757 2.86607955,6.36087775 3.06551945,6.03199792 C3.34751931,6.38703774 3.61679917,6.75247755 3.89351902,7.11199736 C4.77090257,8.26122077 5.64789412,9.41055618 6.52447767,10.5599956 C6.58191764,10.6356755 6.64367761,10.7081555 6.69303758,10.7895955 C6.25031781,11.2516752 5.79615804,11.702875 5.35527827,12.1667948 C5.46159822,12.4179946 5.60559814,12.6515945 5.75591806,12.8787944 C5.98403795,13.2143142 6.25086181,13.5218181 6.55087765,13.7949539 C6.76687754,13.9967938 7.00807742,14.1684737 7.25055729,14.3367136 Z M14.3415944,12.7467961 C14.5202343,12.9665559 14.6906343,13.1931958 14.8638342,13.4173557 C15.2928739,13.9812754 15.7175937,14.5483951 16.1283135,15.1255948 C16.0111136,15.2890347 15.8660737,15.4307147 15.7283137,15.5770346 C14.5788743,16.760234 13.0563151,17.5770336 11.4311959,17.8695934 C11.0471961,17.9432734 10.6563963,17.9744734 10.2662365,17.9999934 L9.68679684,17.9999934 C9.51495693,17.9782334 9.34159702,17.9746334 9.1697571,17.9548734 C8.05199768,17.8373534 6.95647824,17.4847936 5.98871874,16.9119939 C6.32007857,16.659434 6.6561584,16.4131142 6.98911823,16.1623143 C8.25999757,15.2143708 9.53042092,14.2656993 10.8003963,13.3163158 C11.0159162,13.5149557 11.219356,13.7264756 11.4314359,13.9291155 C11.6794358,14.1663953 11.9178357,14.4149552 12.1710356,14.6471951 C12.7925552,14.3628752 13.3499149,13.9432754 13.8092747,13.4383157 C14.0072746,13.2241558 14.1764745,12.9863159 14.3415944,12.7467961 Z" id="Sign"></path>
        </g>
    </g>
</svg>