<?xml version="1.0" encoding="UTF-8"?>
<svg width="20px" height="20px" viewBox="0 0 20 20" version="1.1" xmlns="http://www.w3.org/2000/svg" xmlns:xlink="http://www.w3.org/1999/xlink">
    <!-- Generator: sketchtool 49.3 (51167) - http://www.bohemiancoding.com/sketch -->
    <title>4DA09D6F-D545-4D34-8F24-542A46919D10</title>
    <desc>Created with sketchtool.</desc>
    <defs></defs>
    <g id="Coins" stroke="none" stroke-width="1" fill="none" fill-rule="evenodd">
        <g id="Coins/AdEx-ADX" fill="#0099F7">
            <path d="M12.0519722,13.3545164 L10.0000088,11.3025355 L7.94804538,13.3545164 L6.6593656,12.0657665 L8.71133776,10.0138733 L6.6593656,7.96183976 L7.94804538,6.67315999 L9.99999124,8.72513214 L12.0519459,6.67315999 L13.3406957,7.96183976 L11.2887411,10.0138733 L13.340722,12.0657665 L12.0519722,13.3545164 Z M10.0158451,15.4272503 L8.0807572,13.4565546 L9.08949153,12.4412298 L10.0084221,13.3176204 L10.9412084,12.4300821 L11.9597846,13.483302 L10.0158451,15.4272503 Z M10.0158451,4.57269715 L11.9597934,6.51663663 L10.9412435,7.56990913 L10.0084572,6.68232704 L9.08952658,7.55870886 L8.069443,6.51267535 L10.0158451,4.57269715 Z M9.99999124,2 C5.58174698,2 2,5.58167686 2,10 C2,14.4182618 5.58173821,18 9.99999124,18 C14.4182968,18 18,14.418253 18,10 C18,5.58168563 14.4182968,2 9.99999124,2 Z" id="Sign"></path>
        </g>
    </g>
</svg>