<?xml version="1.0" encoding="UTF-8"?>
<svg width="20px" height="20px" viewBox="0 0 20 20" version="1.1" xmlns="http://www.w3.org/2000/svg" xmlns:xlink="http://www.w3.org/1999/xlink">
    <!-- Generator: sketchtool 49.3 (51167) - http://www.bohemiancoding.com/sketch -->
    <title>C98680D6-0934-47CC-AB38-BE2A6CE22BFB</title>
    <desc>Created with sketchtool.</desc>
    <defs></defs>
    <g id="Coins" stroke="none" stroke-width="1" fill="none" fill-rule="evenodd">
        <g id="Coins/AeonCoin-AEON" fill="#0099F7">
            <path d="M10.0000353,2 C14.4182611,2 18,5.58173889 18,9.99996472 C18,14.4182611 14.4182611,18 10.0000353,18 C5.58173889,18 2,14.4182611 2,9.99996472 C2,5.58173889 5.58173889,2 10.0000353,2 Z M10.3464549,12.9922258 C13.7565362,12.5931025 16.3658308,10.9443991 16.174418,9.30980655 C15.983217,7.67521398 13.0636969,6.67356037 9.65354511,7.07268374 C6.2435344,7.47180711 3.63416925,9.12072212 3.82551141,10.7552441 C4.01685356,12.3899073 6.93644417,13.3914198 10.3464549,12.9922258 Z M7.95249077,15.9022211 C9.16975707,16.326885 10.7687199,15.0756823 11.9480282,12.9555378 C11.7134365,13.0111343 11.4773632,13.0603809 11.2400905,13.1032071 C9.71266927,14.1239103 8.15512155,14.7223484 6.90250775,14.8286025 C7.14337874,15.3648121 7.49551321,15.7427693 7.95249077,15.9022211 Z M5.05646516,13.8019023 C5.9128483,14.9249792 8.25996463,14.6226557 10.6341031,13.198596 C10.5480274,13.210449 10.4615283,13.2216671 10.3746059,13.2318269 C8.11335365,13.4965451 6.05205113,13.1913289 4.74828576,12.5080145 C4.69783973,13.013392 4.79393413,13.4573877 5.05646516,13.8019023 Z M12.0476503,4.16268846 C10.8302429,3.73802458 9.23128007,4.9892273 8.05183065,7.10951287 C8.2864929,7.0539164 8.52256622,7.00466979 8.75990951,6.96177302 C10.2873307,5.94099931 11.844949,5.34249064 13.0975628,5.23630703 C12.8566918,4.7000269 12.5045573,4.3220697 12.0476503,4.16268846 Z M14.9436054,6.26307783 C14.0871517,5.14000097 11.7400354,5.44225384 9.36582634,6.86610194 C9.45190209,6.85446055 9.53840116,6.84324248 9.62546466,6.83301217 C11.8866464,6.56843507 13.9480194,6.87358065 15.2517848,7.55682455 C15.3021603,7.05158812 15.206207,6.60745137 14.9436054,6.26307783 Z M12.3597808,8.17452387 C13.0667308,8.30864682 13.2861534,8.89367969 13.0585465,9.60874339 C12.8310808,10.3238071 11.7259951,10.45793 11.7259951,10.45793 C11.2831284,10.518818 10.4704886,10.5107043 10.4704886,10.5107043 C10.4136222,11.0146002 10.7264582,11.0877646 11.2790362,11.0957372 C11.8315438,11.1038509 12.5181742,10.7869228 12.5181742,10.7869228 L12.3475749,11.6646133 C12.3475749,11.6646133 11.6689876,11.8474184 11.1652328,11.8393047 C10.661478,11.8312615 9.99107493,11.8556026 9.5817918,11.2258386 C9.17250868,11.6848622 8.64617664,11.8717595 7.94331877,11.8759222 C7.24039034,11.8798026 6.73663555,11.461418 6.93157595,10.5635492 C7.12665747,9.66568038 8.30088589,9.56810435 8.30088589,9.56810435 C8.89819514,9.48682627 9.57254924,9.51123791 9.57254924,9.51123791 C9.65791945,8.96282251 9.13772561,8.93022661 8.6055376,8.93424818 C8.07327904,8.93841086 7.52479308,9.23508998 7.52479308,9.23508998 L7.67514342,8.36960538 C7.67514342,8.36960538 8.24797047,8.23555299 8.97933212,8.17868655 C9.71069377,8.12182011 10.2550876,8.40213073 10.4298496,8.80033689 C10.8605105,8.32889579 11.6527602,8.04040092 12.3597808,8.17452387 Z M11.4648046,9.79973278 C11.9645378,9.74484185 12.0530124,9.33965085 11.9310248,9.08960785 C11.8091782,8.83991763 11.3124788,8.8275707 10.9681052,9.07140495 C10.6238022,9.31516865 10.5902891,9.8209695 10.5902891,9.8209695 C10.5902891,9.8209695 10.9650714,9.85462371 11.4648046,9.79973278 Z M9.09708657,10.9211163 C8.89001089,11.1283331 8.44502749,11.2258386 8.17995652,11.015588 C7.91481499,10.8053374 8.07631285,10.3847657 8.39324094,10.2750543 C8.71009847,10.1654136 9.4293954,10.2051354 9.4293954,10.2051354 C9.4293954,10.2051354 9.3043739,10.7139701 9.09708657,10.9211163" id="Sing"></path>
        </g>
    </g>
</svg>