<?xml version="1.0" encoding="UTF-8"?>
<svg width="20px" height="20px" viewBox="0 0 20 20" version="1.1" xmlns="http://www.w3.org/2000/svg" xmlns:xlink="http://www.w3.org/1999/xlink">
    <!-- Generator: sketchtool 49.3 (51167) - http://www.bohemiancoding.com/sketch -->
    <title>9FC3708F-389A-4873-9AF2-019DF70AFB90</title>
    <desc>Created with sketchtool.</desc>
    <defs></defs>
    <g id="Coins" stroke="none" stroke-width="1" fill="none" fill-rule="evenodd">
        <g id="Coins/Aragon-ANT" fill="#0099F7">
            <path d="M17.999701,7.46067311 L18,7.46067311 L17.9641209,7.671762 C17.9446863,7.83620802 17.8158205,8.42402781 17.6570553,8.98733018 C17.3685273,10.0152673 16.9867135,11.0145011 16.5163979,11.973072 C15.8577168,13.3074767 15.0573132,14.4720535 14.1394054,15.4300263 C13.0068208,16.6101508 11.6966345,17.4814157 10.2360548,18.0243866 L10.1547288,18.0542859 L9.9998505,18.1161774 L9.84616822,18.0602657 L9.76065629,18.0291705 C8.2967877,17.4850036 6.98271448,16.6119448 5.85760469,15.4345112 C4.93580999,14.4666716 4.13690131,13.3056827 3.48150917,11.9778558 C2.86887298,10.7262721 2.40752714,9.40621905 2.10674042,8.04550296 C2.08102704,7.92889578 2.0580046,7.81169062 2.0373741,7.69418646 L2,7.47711771 L2.0867079,7.40087455 L2.15129034,7.34466391 C3.49227291,6.17141629 5.07842954,5.16500663 6.7916581,4.31945509 C7.93231551,3.75615271 8.97550128,3.33786183 9.76364622,3.07534618 L9.99506662,3 L10.1526358,3.04873582 L10.2309719,3.07564517 C11.0173229,3.33786183 12.0605087,3.75615271 13.2014651,4.31945509 C14.9117037,5.16381066 16.4957674,6.16842636 17.835255,7.33928204 L17.999701,7.46067311 Z M14.0036627,11.8696205 C14.6237737,11.7673649 15.3924841,11.0503803 15.2684021,9.79550763 C15.1443201,8.54063499 13.6962981,7.89540859 13.6962981,7.89540859 C13.741147,7.60867453 13.6962981,7.51120289 13.6962981,7.51120289 C10.6214565,5.59077234 8.22592641,6.00547531 8.22592641,6.00547531 L8.82092202,6.62020444 C8.76142246,6.61512156 8.69713901,6.61512156 8.63734046,6.61512156 C6.14284379,6.70721133 4.14945901,8.86863005 4.14945901,11.5266758 C4.14945901,11.6112907 4.15454189,11.6896268 4.15932577,11.7682619 C4.77315792,12.9872554 5.50957711,14.0507727 6.3533347,14.9316054 C7.40937716,16.0318988 8.63046363,16.8430662 9.99656158,17.3525498 C11.3581746,16.8442621 12.5801581,16.0304038 13.6394895,14.9265225 C13.9531329,14.5988265 14.2521257,14.24452 14.5364678,13.8659952 C12.2751855,13.6979612 12.4118252,12.2795396 12.4118252,12.2795396 C12.4118252,12.2230299 12.4118252,12.1668193 12.4216919,12.1103096 C12.4216919,12.1103096 12.5308243,10.9938706 13.4780334,10.9938706 C13.6009194,10.9866948 13.7232074,11.0153981 13.8302469,11.0757947 C14.3259769,11.352363 14.0036627,11.8696205 14.0036627,11.8696205 Z M12.461458,8.01829462 C11.593482,7.82873321 11.2810345,7.36798535 11.2810345,7.36798535 C12.0990787,7.36290247 12.8381889,7.56262964 13.3787678,7.90049147 C13.3787678,7.90049147 13.0863528,7.80331882 12.7885561,7.76235681 C12.6399566,7.92112197 12.5107918,7.98749836 12.4710257,8.00812887 L12.4713247,8.00812887 L12.461458,8.01829462 Z" id="Sign"></path>
        </g>
    </g>
</svg>