<?xml version="1.0" encoding="UTF-8"?>
<svg width="20px" height="20px" viewBox="0 0 20 20" version="1.1" xmlns="http://www.w3.org/2000/svg" xmlns:xlink="http://www.w3.org/1999/xlink">
    <!-- Generator: sketchtool 49.3 (51167) - http://www.bohemiancoding.com/sketch -->
    <title>4ECFC4BD-6AC0-4FF5-8C55-FDE6D0416A2B</title>
    <desc>Created with sketchtool.</desc>
    <defs></defs>
    <g id="Coins" stroke="none" stroke-width="1" fill="none" fill-rule="evenodd">
        <g id="Coins/ATLANT-ATL" fill="#0099F7">
            <path d="M9.19410247,7.97933652 C9.15928356,8.06145658 9.06205342,8.15277408 9.13169123,8.24409157 C9.42338165,8.71250436 9.66777093,9.2098234 9.97391449,9.66903874 C9.69667719,10.0678137 9.49499034,10.5132329 9.23089225,10.9205483 C9.17110885,11.0125228 9.12446466,11.1117238 9.08307615,11.2135527 C9.68025318,11.2135527 10.2774302,11.2227501 10.8746072,11.2050122 C11.1761521,10.710978 11.4402502,10.1939501 11.7555912,9.70845636 C11.2090001,8.72235876 10.630218,7.75268518 10.080999,6.7679015 C10.0612902,6.71862947 9.97325753,6.59052219 9.93318294,6.69366497 C9.68353798,7.12003229 9.44900311,7.55559705 9.19410247,7.97933652 Z M10.8686946,2.01085106 C11.4389362,3.04030805 12.0413689,4.05268406 12.6306624,5.07162968 C12.3705061,5.59391322 12.0361133,6.07612217 11.7785848,6.59971963 C12.3461986,6.60366139 12.9144694,6.59380699 13.4820832,6.60366139 C13.5701159,6.59183611 13.5904816,6.7015485 13.634498,6.75541925 C14.1810891,7.73297636 14.763156,8.69148162 15.3084331,9.6696957 C15.0811248,10.2090602 14.7066574,10.6853565 14.4602972,11.2201223 C15.0377654,11.225378 15.6145767,11.224721 16.1920449,11.2207793 C16.8174712,12.2403818 17.3936255,13.2908616 18,14.3222894 C17.4080787,15.3432059 16.8286396,16.3726629 16.2222651,17.3850389 C15.8386002,17.4139452 15.4496796,17.4375958 15.0647008,17.4047477 C14.2592673,17.3916085 13.4531769,17.400149 12.6470865,17.3922655 C12.921039,16.9093996 13.2015611,16.4298185 13.4794553,15.9495804 C13.8289583,15.425326 14.1094804,14.86034 14.4451871,14.3282021 C14.1804321,13.8775272 13.9189618,13.4248815 13.6627473,12.968951 C13.6062487,12.8809183 13.5530349,12.7488692 13.4236137,12.7777755 C12.9000162,12.7784324 12.3764188,12.7744907 11.8528213,12.7823742 C12.1346573,13.3013729 12.4427718,13.8052616 12.7331483,14.3196616 C12.4125516,14.8570552 12.0722461,15.3865653 11.7996075,15.9502374 C11.5026614,16.4199641 11.2352785,16.9074287 10.9593551,17.3896376 C9.766315,17.4034338 8.5726179,17.3922655 7.37892081,17.3955503 C7.89726259,16.4574108 8.44845238,15.5370093 8.99175865,14.6133229 C9.05942558,14.4852156 9.19804423,14.3360856 9.08373311,14.1941821 C8.5095497,13.2093985 7.94324982,12.22133 7.36972337,11.2365463 C7.08000382,11.7450337 6.79356907,12.2561489 6.48742552,12.7554388 C6.76137801,13.284292 7.10365439,13.782268 7.35986896,14.3170337 C7.11153792,14.8550843 6.76269193,15.3464907 6.4893964,15.8746869 C6.20033381,16.3812034 5.9001029,16.8818072 5.61760991,17.3922655 C4.91137746,17.3817541 2.1277961,17.3850389 2,17.3850389 C2.56629989,16.3910578 3.2407271,15.3294098 3.8017713,14.3321438 C3.209193,13.3066286 2.61201597,12.2843982 2.01812374,11.2595399 C2.61792861,11.258883 3.2190474,11.2555982 3.82016619,11.257569 C4.11842622,11.7535742 4.38975088,12.2653463 4.7064058,12.7495262 C5.26153736,11.7969336 5.79958795,10.8344865 6.36523088,9.88846352 C6.41778771,9.79780298 6.48545463,9.68152098 6.4079333,9.58363388 C5.85608655,8.61396029 5.27401961,7.66136768 4.73399814,6.68446753 C4.72282981,6.66410175 4.70180708,6.62205629 4.69063875,6.60169051 C5.24511335,6.60628924 5.79958795,6.59971963 6.35406255,6.60628924 L6.35209167,6.53730839 C6.66546179,7.07732986 6.96175094,7.62851966 7.30008556,8.15343104 C7.86310064,7.14105502 8.44779542,6.13919037 9.03314716,5.13929661 C9.07059391,5.08082713 9.00818267,5.01775893 8.98978777,4.96388817 C8.42480181,3.97516273 7.84273487,2.99694866 7.27906283,2.00756626 C8.47013208,2.01676371 9.66974181,1.98391569 10.8686946,2.01085106 Z" id="Sign"></path>
        </g>
    </g>
</svg>