<?xml version="1.0" encoding="UTF-8"?>
<svg width="20px" height="20px" viewBox="0 0 20 20" version="1.1" xmlns="http://www.w3.org/2000/svg" xmlns:xlink="http://www.w3.org/1999/xlink">
    <!-- Generator: sketchtool 49.3 (51167) - http://www.bohemiancoding.com/sketch -->
    <title>5D82B9ED-B2E5-4234-B0E1-75DAFA02F29E</title>
    <desc>Created with sketchtool.</desc>
    <defs></defs>
    <g id="Coins" stroke="none" stroke-width="1" fill="none" fill-rule="evenodd">
        <g id="Coins/Augur-REP" fill="#0099F7">
            <path d="M11.0803668,8.81579331 C11.2319534,8.88210334 11.3835218,8.95789666 11.5161601,9.04315502 C11.5256251,9.04315502 11.5351084,9.0526383 11.5351084,9.0526383 C11.5730051,9.07158663 11.6014185,9.1 11.6393151,9.12843161 C11.6582634,9.13789666 11.6677285,9.14737994 11.6866768,9.16632827 C11.7151084,9.1852766 11.7530051,9.21368997 11.7814185,9.24210334 C11.8003668,9.26105167 11.8193151,9.27053495 11.8382634,9.28948328 C11.8666768,9.31789666 11.8951084,9.33684498 11.9235218,9.3652766 L11.9803668,9.42210334 L12.0561601,9.49789666 L12.1130051,9.55474164 C12.1319534,9.58315502 12.1603668,9.61158663 12.1793151,9.63053495 C12.1982634,9.64948328 12.2172118,9.67789666 12.2361601,9.69684498 L12.2930051,9.78210334 C12.3119534,9.81053495 12.3308835,9.82948328 12.3403668,9.85789666 L12.3972118,9.94315502 C12.4161601,9.97158663 12.4256251,10 12.4445735,10.0189483 C12.4635218,10.0473799 12.4730051,10.0757933 12.4919534,10.1042249 C12.5108835,10.1326383 12.5203668,10.1610517 12.5393151,10.1894833 C12.5487802,10.2178967 12.5677285,10.2463283 12.5772118,10.2747416 C12.5961601,10.3126383 12.6056251,10.350535 12.6245735,10.3789483 C12.7003668,10.5684316 12.7572118,10.7673799 12.7856251,10.9852766 L12.8708835,11.316845 C12.9087802,11.4589483 13.2498318,12.6715866 14.0456251,13.0789483 C14.9551084,13.5526383 16.1582634,14.14 16.6319534,14.3673799 L10.3887802,18.1 L10.3887802,15.5421033 C10.3887802,15.1347416 11.1940568,14.6610517 11.5635218,14.5 L11.5824701,14.490535 C11.6582634,14.4526383 11.7340568,14.4147416 11.8098318,14.3673799 L11.8382634,14.3484316 C11.9993151,14.25369 12.1509017,14.14 12.2930051,14.016845 C12.3024701,14.0073799 12.3214185,13.9978967 12.3309017,13.9789483 C12.3498318,13.9694833 12.3593151,13.950535 12.3782634,13.9410517 C12.4256251,13.9031733 12.4635218,13.8557933 12.5109017,13.8178967 L12.5298318,13.7989483 C12.5772118,13.7515866 12.6245735,13.7042249 12.6624701,13.6473799 C12.6719534,13.6284316 12.6909017,13.6189483 12.7003668,13.6 C12.7382634,13.5621216 12.7666768,13.5147416 12.8045735,13.4673799 C12.8140568,13.4578967 12.8235218,13.4389483 12.8330051,13.4294833 L12.9466768,13.2589483 C12.9466768,13.2494833 12.9561601,13.2494833 12.9561601,13.24 C13.0035218,13.1642249 13.0509017,13.0789483 13.0982634,13.0031733 C12.9087802,12.7757933 12.7666768,12.5294833 12.6530051,12.3021216 C12.6056251,12.4442249 12.5393151,12.5863283 12.4730051,12.7094833 C12.4445735,12.7663283 12.4066768,12.8231733 12.3782634,12.88 C12.3687802,12.8894833 12.3687802,12.8989483 12.3593151,12.8989483 C12.3309017,12.9463283 12.2930051,12.99369 12.2645735,13.0315866 C12.2551084,13.0410517 12.2456251,13.06 12.2361601,13.0694833 C12.2077285,13.116845 12.1698318,13.1547416 12.1319534,13.1926383 C12.1224701,13.2021216 12.1224701,13.2115866 12.1130051,13.2115866 C11.8856251,13.4673799 11.6109017,13.6852766 11.2982634,13.836845 L11.2414185,13.8652766 C11.0803668,13.9315866 9.68772848,14.5663283 9.68772848,15.5231733 L9.68772848,18.0810699 L3.43510842,14.3578967 C3.84247013,14.1115866 5.01721177,13.410535 5.9835218,13.1073799 C6.36247013,12.9842249 7.16772848,13.4957933 7.62247013,13.8652766 L7.65090174,13.89369 C7.70772848,13.950535 7.77405675,14.0073799 7.84036678,14.0547416 L7.85931511,14.07369 C8.00141845,14.1873799 8.15300508,14.3010699 8.3235218,14.3863283 L8.43721177,14.4431733 C8.44667681,14.4431733 8.4561601,14.4526383 8.4561601,14.4526383 C8.56036678,14.5094833 8.66457347,14.556845 8.77826344,14.6042249 C8.79721177,14.61369 8.80667681,14.61369 8.82562514,14.6231733 C8.83510842,14.6231733 8.84457347,14.6326383 8.8635218,14.6326383 C9.02457347,14.6894833 9.18562514,14.736845 9.34667681,14.7747416 C9.46985006,14.5379149 9.64983183,14.3294833 9.83931511,14.1494833 C9.56457347,14.130535 9.30878016,14.07369 9.06247013,13.9789483 C9.05300508,13.9694833 9.03405675,13.9694833 9.02457347,13.9600182 C8.9961601,13.950535 8.96772848,13.9410699 8.93931511,13.9221216 C8.92983183,13.9126383 8.91090174,13.9126383 8.90141845,13.9031733 C8.87300508,13.89369 8.84457347,13.8747416 8.82562514,13.8652766 C8.6361601,13.770535 8.46562514,13.6663283 8.30457347,13.53369 L8.05826344,13.3063283 C8.04878016,13.296845 7.74562514,13.0221216 7.31931511,12.7757933 C6.7035218,12.4252766 6.18247013,12.3115866 5.78457347,12.4347416 C4.96036678,12.7000182 4.02247013,13.2021216 3.45405675,13.53369 L9.69721177,2.31684498 L9.69721177,7.23368997 C9.69721177,7.40420669 9.44141845,7.85894833 8.57931511,8.24737994 L8.52247013,8.27579331 C8.43721177,8.31368997 8.36141845,8.36105167 8.2761601,8.40843161 L8.25721177,8.41789666 C8.0961601,8.5126383 7.94457347,8.62632827 7.79300508,8.74948328 C7.69826344,8.8252766 7.61300508,8.91053495 7.53721177,8.99579331 L7.52772848,9.00525836 C7.44247013,9.09053495 7.36667681,9.17579331 7.30036678,9.27053495 L7.2908835,9.28 C7.25300508,9.32737994 7.22457347,9.37474164 7.18667681,9.42210334 C7.18667681,9.43158663 7.17721177,9.43158663 7.17721177,9.44105167 C7.14878016,9.48843161 7.12036678,9.52632827 7.09195341,9.57368997 C7.09195341,9.58315502 7.08247013,9.58315502 7.08247013,9.5926383 L6.99721177,9.73474164 C6.98772848,9.74420669 6.98772848,9.75368997 6.97826344,9.7726383 C6.94983183,9.82 6.9308835,9.86737994 6.91195341,9.9052766 C6.91195341,9.91474164 6.90247013,9.92420669 6.90247013,9.92420669 C6.8835218,9.97158663 6.86457347,10.0094833 6.84562514,10.056845 C6.8361601,10.0757933 6.8361601,10.0852584 6.82667681,10.1042067 L6.76983183,10.2463283 C6.76036678,10.2652584 6.76036678,10.2747416 6.7508835,10.29369 C6.74141845,10.3315866 6.73195341,10.36 6.71300508,10.3978967 C6.7035218,10.416845 6.7035218,10.4357933 6.69405675,10.4547416 C6.68457347,10.5021033 6.66562514,10.5494833 6.6561601,10.5873799 C6.64667681,10.60631 6.64667681,10.6347416 6.63721177,10.65369 C6.62772848,10.6821033 6.62772848,10.72 6.61826344,10.7484316 C6.60878016,10.776845 6.60878016,10.8052584 6.59931511,10.83369 C6.58983183,10.8715866 6.58983183,10.9094833 6.58036678,10.9473799 C6.58036678,10.9757933 6.5708835,10.9947416 6.5708835,11.023155 C6.5708835,11.0610517 6.56141845,11.0894833 6.56141845,11.1273799 C6.56141845,11.1652584 6.56141845,11.19369 6.55195341,11.2315866 L6.55195341,11.37369 C6.55195341,11.5442067 6.56141845,11.7242067 6.58983183,11.8852584 C6.8361601,11.9421033 7.09195341,12.0463283 7.36667681,12.1789483 C7.29090174,11.9326383 7.25300508,11.676845 7.2435218,11.4115866 L7.2435218,11.3642067 C7.2435218,11.2978967 7.2435218,11.2410517 7.25300508,11.1747416 L7.25300508,11.1273799 C7.25300508,11.070535 7.26247013,11.023155 7.27195341,10.9663283 L7.27195341,10.9473799 C7.28141845,10.890535 7.29090174,10.83369 7.30036678,10.7673799 C7.30036678,10.7484316 7.30983183,10.7389483 7.30983183,10.72 C7.31931511,10.6726383 7.33826344,10.6252584 7.34772848,10.5778967 C7.34772848,10.5684316 7.35721177,10.5589483 7.35721177,10.5494833 L7.41405675,10.3789483 C7.4235218,10.3694833 7.4235218,10.350535 7.43300508,10.3410517 C7.45195341,10.29369 7.47090174,10.24631 7.48983183,10.2084316 C7.49931511,10.1989483 7.49931511,10.1894833 7.50878016,10.170535 C7.53721177,10.11369 7.5561601,10.06631 7.59405675,10.0189483 C7.6035218,10.0094833 7.6035218,10 7.61300508,9.99053495 C7.64141845,9.94315502 7.66036678,9.90525836 7.68878016,9.85789666 C7.69826344,9.84843161 7.69826344,9.83894833 7.70772848,9.82948328 C7.7361601,9.78210334 7.77405675,9.73474164 7.81193517,9.68737994 C7.81193517,9.68737994 7.81193517,9.67789666 7.82141845,9.67789666 C7.85931511,9.63053495 7.88772848,9.5926383 7.92562514,9.54525836 C7.93510842,9.53579331 7.93510842,9.52631003 7.94457347,9.51684498 C8.11510842,9.3273617 8.30457347,9.16631003 8.52247013,9.02420669 L8.8161601,8.88210334 C8.97721177,8.81579331 10.3603668,8.16210334 10.3603668,7.20525836 L10.3603668,2.31684498 L16.6603668,13.6284316 C16.1014185,13.35369 15.1066768,12.8610517 14.3393151,12.463155 C13.8940568,12.2357933 13.6003668,11.430535 13.5151084,11.136845 L13.4298318,10.7957933 C13.4298318,10.6157933 13.3824701,10.4357933 13.3256251,10.2557933 C13.1266768,9.68737994 12.7856251,9.18525836 12.3403668,8.79684498 L12.1698318,8.65474164 L12.1603668,8.64525836 C12.1035218,8.59789666 12.0466768,8.56 11.9898318,8.52210334 L11.9803668,8.5126383 C11.9235218,8.47474164 11.8666768,8.43684498 11.8003668,8.39894833 C11.7908835,8.39894833 11.7908835,8.38948328 11.7814185,8.38948328 C11.7245735,8.35158663 11.6582634,8.32315502 11.6014185,8.29474164 C11.5919534,8.29474164 11.5919534,8.28525836 11.5824701,8.28525836 C11.5256251,8.25684498 11.4593151,8.22843161 11.3930051,8.2 C11.3835218,8.2 11.3835218,8.19053495 11.3740568,8.19053495 C11.3172118,8.17158663 11.2603668,8.14315502 11.2035218,8.12420669 C11.0519534,8.06737994 10.8908835,8.02 10.7298318,7.99158663 C10.6066768,8.22843161 10.4361601,8.43684498 10.2466768,8.61684498 C10.5403668,8.63579331 10.8245735,8.71158663 11.0803668,8.81579331 M17.5887984,13.8178967 L17.5887802,13.8178967 L10.6445735,1.36 C10.5214185,1.1326383 10.2940568,1 10.0382634,1 C9.78247013,1 9.55510842,1.1326383 9.43195341,1.36 L2.48772848,13.8178967 C2.30772848,14.14 2.41195341,14.556845 2.73405675,14.7463283 L9.68772848,18.9052766 C9.80141845,18.9715866 9.92457347,19 10.0477285,19 C10.1708835,19 10.2940568,18.9715866 10.4077285,18.9052766 L17.3519534,14.7557933 C17.6645735,14.556845 17.7782634,14.14 17.5887984,13.8178967" id="Sign"></path>
        </g>
    </g>
</svg>