<?xml version="1.0" encoding="UTF-8"?>
<svg width="20px" height="20px" viewBox="0 0 20 20" version="1.1" xmlns="http://www.w3.org/2000/svg" xmlns:xlink="http://www.w3.org/1999/xlink">
    <!-- Generator: sketchtool 49.3 (51167) - http://www.bohemiancoding.com/sketch -->
    <title>95EFF471-D6C5-4854-B853-0F024D4FAF85</title>
    <desc>Created with sketchtool.</desc>
    <defs></defs>
    <g id="Coins" stroke="none" stroke-width="1" fill="none" fill-rule="evenodd">
        <g id="Coins/Bitcoin-BTC" fill="#0099F7">
            <path d="M8.9419447,6.03313382 L8.9419447,9.0406513 L10.3686684,9.0406513 C10.6472201,9.0406513 10.924196,9.00003283 11.1904921,8.92002145 C11.4229978,8.850865 11.6420224,8.74284089 11.8386368,8.60137656 C12.0275477,8.46323875 12.1854695,8.28850931 12.3015473,8.08541696 C12.3973158,7.91821594 12.4475637,7.72983028 12.4475637,7.5365424 C12.4475637,7.34430499 12.3973158,7.15591933 12.3015473,6.98871831 C12.1856446,6.78562596 12.0277228,6.61054636 11.8386368,6.47275871 C11.6420224,6.33111931 11.4229978,6.22274503 11.1904921,6.15271319 C10.924196,6.07410244 10.647045,6.0333089 10.3686684,6.0333089 L8.9419447,6.0333089 L8.9419447,6.03313382 Z M12.9369112,11.6503879 C12.7768884,11.4089531 12.5673181,11.2048103 12.3218565,11.0509153 C12.0630888,10.8880913 11.7812107,10.7678116 11.4858514,10.6911267 C11.1307899,10.5988598 10.765749,10.5522886 10.3987821,10.5522886 L8.9419447,10.5522886 L8.9419447,13.9560112 L10.3987821,13.9560112 C10.765749,13.9560112 11.1307899,13.9090899 11.4858514,13.816823 C11.7813858,13.7404883 12.0632639,13.6184578 12.3218565,13.4573845 C12.567143,13.3034896 12.7768884,13.0989966 12.9369112,12.8575618 C13.0554401,12.6789806 13.1184687,12.46871 13.1184687,12.2533621 C13.1184687,12.0390646 13.0554401,11.828794 12.9369112,11.6503879 Z M7.51942289,15.5782989 L4.5,15.5782989 L4.78783087,13.9560112 L5.84776281,13.9560112 C6.16658277,13.9560112 6.42500027,13.6974187 6.42500027,13.3784236 L6.42500027,6.6093208 C6.42500027,6.29032576 6.16640769,6.03313382 5.84776281,6.03313382 L4.50910414,6.03313382 L4.50910414,4.40962062 L7.51942289,4.40962062 L7.51942289,2 L8.9419447,2 L8.9419447,4.40944554 L10.1687275,4.40944554 L10.1687275,2 L11.5914244,2 L11.5914244,4.40944554 L11.6210128,4.40944554 C12.0573112,4.40944554 12.4913336,4.4733496 12.9092486,4.59748104 C13.3154333,4.71951153 13.6986825,4.90894766 14.042714,5.1575607 C14.4184348,5.42980949 14.7321774,5.77926839 14.9625822,6.18212656 C15.1991148,6.59443903 15.3230711,7.06102619 15.3230711,7.53619224 C15.3230711,8.01258385 15.1991148,8.47899592 14.9625822,8.89130839 C14.8179665,9.14499874 14.6397354,9.37645398 14.4333166,9.58304792 C14.4851401,9.61281145 14.5360883,9.64362546 14.5866863,9.67426439 C15.0284121,9.95124033 15.4058838,10.3192577 15.6935396,10.7538052 C15.9881985,11.1983324 16.14542,11.7202447 16.14542,12.253187 C16.14542,12.7873549 15.9881985,13.3094423 15.6935396,13.7536192 C15.4057087,14.1881668 15.0284121,14.5561841 14.5866863,14.8331601 C14.1875048,15.0821233 13.7522569,15.2701588 13.2965247,15.3885126 C12.8087529,15.5140447 12.3066246,15.5779487 11.8027455,15.5779487 L11.5915995,15.5779487 L11.5915995,17.9996498 L10.1689026,17.9996498 L10.1689026,15.5782989 L8.94211978,15.5782989 L8.94211978,18 L7.51959797,18 L7.51959797,15.5782989 L7.51942289,15.5782989 Z" id="Sign"></path>
        </g>
    </g>
</svg>