<?xml version="1.0" encoding="UTF-8"?>
<svg width="20px" height="20px" viewBox="0 0 20 20" version="1.1" xmlns="http://www.w3.org/2000/svg" xmlns:xlink="http://www.w3.org/1999/xlink">
    <!-- Generator: sketchtool 49.3 (51167) - http://www.bohemiancoding.com/sketch -->
    <title>5E3933CB-DF2E-46F4-A9C1-907B2DF283BD</title>
    <desc>Created with sketchtool.</desc>
    <defs></defs>
    <g id="Coins" stroke="none" stroke-width="1" fill="none" fill-rule="evenodd">
        <g id="Coins/Bitcoin-Cash-BCH" fill="#0099F7">
            <path d="M2,5.19999981 L6.56517312,5.19999981 C5.11710794,6.18777985 4.14765784,7.83951101 4.01731161,9.59002018 C3.81670061,11.6735232 4.83299389,13.8059061 6.56517312,14.9759672 L2,14.9759672 L2,5.19999981 Z M9.70672098,5.19999981 L10.2973523,5.19999981 C11.51222,5.29470449 12.6955193,5.81099777 13.5437882,6.6928715 C14.6374745,7.80692445 15.1578411,9.47087557 14.8370672,11.0054988 C14.5631365,12.4932788 13.5437882,13.8120161 12.1822811,14.4678206 C11.595723,14.7712829 10.9419552,14.9057025 10.290224,14.9759672 L9.69144603,14.9759672 C9.04378819,14.8934825 8.39205703,14.7661913 7.80855397,14.4596739 C6.2688391,13.7173114 5.18533605,12.1134418 5.09470468,10.4036658 C5,9.09816682 5.47250509,7.77230123 6.35437882,6.80896111 C7.20875764,5.86089594 8.43991853,5.29877781 9.70672098,5.19999981 Z M13.4409369,5.19999981 L17.9989817,5.19999981 C18,8.45865561 17.9989817,11.7173114 18,14.9759672 L13.4399185,14.9759672 C15.2433809,13.7692462 16.2606925,11.5116088 15.9674134,9.36089594 C15.7790224,7.69388983 14.8258656,6.141955 13.4409369,5.19999981 Z M9.28411405,7.12973504 C9.35947047,7.4138491 9.43075356,7.69898148 9.49796334,7.98615052 C9.3604888,8.0228104 9.22199593,8.06150694 9.08452138,8.09918515 C9.00407332,7.81303443 8.93177189,7.52382873 8.8706721,7.2336047 C8.68329939,7.27739288 8.49694501,7.32321773 8.31059063,7.37107924 C8.38696538,7.66333993 8.46130346,7.95560062 8.53462322,8.24887965 C8.17209776,8.34358433 7.80753564,8.43116071 7.44195519,8.51771875 C7.49083503,8.70916478 7.53971487,8.90061081 7.5885947,9.09103851 C7.82179226,9.06659859 8.10285132,8.89144584 8.3095723,9.07780022 C8.52647658,9.70610979 8.63645621,10.3680242 8.81873727,11.0075355 C8.86354379,11.2397147 8.97861507,11.4739306 8.93584521,11.7132381 C8.79327902,11.8415477 8.56517312,11.8028511 8.42158859,11.9209774 C8.41446029,12.129735 8.43584521,12.3384927 8.4490835,12.5472503 C8.82077393,12.4932788 9.18228106,12.3883908 9.54684318,12.2997961 C9.63136456,12.5940935 9.70570265,12.8904275 9.76680244,13.1898165 C9.95417515,13.148065 10.1415479,13.1052951 10.3289206,13.0625253 C10.2525458,12.7672096 10.1782077,12.4708756 10.1008147,12.1755599 C10.2454175,12.141955 10.3900204,12.1083501 10.5356415,12.0757636 C10.5967413,12.3700609 10.6710794,12.6623216 10.7484725,12.953564 C10.9297352,12.9087574 11.110998,12.8619143 11.2922607,12.8160894 C11.2260692,12.5207737 11.1517312,12.2274947 11.0672098,11.9362524 C11.4663951,11.7875762 11.8991853,11.6490833 12.1894094,11.3181261 C12.7464358,10.6745416 12.3228106,9.38635419 11.3808554,9.46578392 C11.8421589,9.07474523 11.7118126,8.29368616 11.2230143,7.98920551 C10.8737271,7.77026458 10.4419552,7.84867598 10.0539715,7.86191427 C9.98167006,7.57270857 9.90733198,7.28350286 9.8299389,6.99429716 C9.64765784,7.03910368 9.46639511,7.08289187 9.28411405,7.12973504 Z M9.25254582,8.72545806 C9.60081466,8.6521383 9.96537678,8.50753545 10.3217923,8.61242343 C10.6272912,8.69490816 10.7800407,9.12668005 10.5458248,9.36089594 C10.2780041,9.63686335 9.87678208,9.69592649 9.52342159,9.8018328 C9.43075356,9.44439899 9.3401222,9.08492853 9.25254582,8.72545806 Z M9.65376782,10.3476577 C10.0967413,10.2244397 10.5814664,10.0665986 11.0366599,10.2203664 C11.3462322,10.3446027 11.4236253,10.7987778 11.1751527,11.0207737 C10.8421589,11.330346 10.3747454,11.4026475 9.95213849,11.5238287 C9.85539715,11.1307534 9.75967413,10.7386963 9.65376782,10.3476577 Z" id="Sign"></path>
        </g>
    </g>
</svg>