<?xml version="1.0" encoding="UTF-8"?>
<svg width="20px" height="20px" viewBox="0 0 20 20" version="1.1" xmlns="http://www.w3.org/2000/svg" xmlns:xlink="http://www.w3.org/1999/xlink">
    <!-- Generator: sketchtool 49.3 (51167) - http://www.bohemiancoding.com/sketch -->
    <title>26FD3103-B696-480B-8179-AA47FE92BDA5</title>
    <desc>Created with sketchtool.</desc>
    <defs></defs>
    <g id="Coins" stroke="none" stroke-width="1" fill="none" fill-rule="evenodd">
        <g id="Coins/Bitcoin-Gold-BTG" fill="#0099F7" fill-rule="nonzero">
            <path d="M9.2628578,17.3361581 C9.50530904,17.3602263 9.75121546,17.372549 10,17.372549 C10.1096909,17.372549 10.2188223,17.3701535 10.3273447,17.3654119 C10.327818,16.8298945 10.3283809,15.7093688 10.3283809,15.2739152 L9.26456243,15.2739152 C9.26456243,15.6683747 9.26377775,16.7162202 9.2628578,17.3361581 Z M7.8736877,17.0612984 C7.87379266,16.4575893 7.87341518,15.6154973 7.87341518,15.2331215 C7.22290381,15.2267033 6.24768231,15.2181638 4.94775068,15.2075031 L4.89259578,15.1580611 L5.22041554,13.5948477 C6.14784704,13.7667251 6.69830491,13.6421684 6.87178916,13.2211777 C6.92088847,11.3218245 6.87178916,9.42083951 6.89633881,7.52148627 C6.8996121,7.18697818 6.91270525,6.74640656 6.55919019,6.57670489 C6.20458402,6.45704346 5.64905256,6.41291729 4.89259578,6.44432636 L4.82170075,4.99391053 L7.87341518,4.99391053 C7.87350069,4.01770815 7.87321756,3.33275099 7.87256578,2.93903904 C4.83798016,3.85208077 2.62745098,6.66789201 2.62745098,10 C2.62745098,13.3325186 4.83852502,16.1486132 7.8736877,17.0612984 Z M9.26347228,2.66378096 C9.26395563,3.17012262 9.26456243,4.51403022 9.26456243,4.95311686 L10.2874648,4.95311686 C10.2874648,4.51582322 10.2868748,3.16377463 10.286395,2.63291142 C10.1913797,2.62928215 10.0959037,2.62745098 10,2.62745098 C9.75142564,2.62745098 9.50572453,2.63975284 9.26347228,2.66378096 Z M11.7205017,2.82928051 C11.7198867,3.44507951 11.7195282,4.58582249 11.7195282,4.9857518 C12.6147723,5.10650106 13.5771189,5.24356779 14.2923323,5.8440506 C15.3856103,6.82146691 15.2497689,8.87420434 13.9126309,9.58564593 C14.6736703,9.77166506 15.4297997,10.2481351 15.6687497,11.0330053 C15.9666189,12.1213804 15.7898614,13.4300413 14.9617196,14.2508099 C14.0877518,15.0453074 12.8389925,15.1466389 11.7162549,15.2510707 C11.7192961,15.6431824 11.7196518,16.6028088 11.7190972,17.1710551 C14.9616754,16.3965725 17.372549,13.4798311 17.372549,10 C17.372549,6.52067135 14.9623716,3.60426982 11.7205017,2.82928051 Z M10,18 C5.581722,18 2,14.418278 2,10 C2,5.581722 5.581722,2 10,2 C14.418278,2 18,5.581722 18,10 C18,14.418278 14.418278,18 10,18 Z M9.30547852,13.6095335 C10.4003932,13.5214191 11.6262395,13.7058065 12.5804028,13.0498443 C13.2661566,12.6027457 13.1925076,11.4866309 12.4936607,11.0901164 C11.5378607,10.5124781 10.369297,10.6968655 9.30547852,10.6658623 L9.30547852,13.6095335 Z M9.30547852,6.58486363 L9.30547852,9.23645212 C10.1909028,9.22339815 11.1728891,9.31803946 11.9486583,8.81219796 C12.6000425,8.39610254 12.5640364,7.32567666 11.899559,6.94221617 C11.1221532,6.47880009 10.1712631,6.60770808 9.30547852,6.58486363 Z" id="Sign"></path>
        </g>
    </g>
</svg>