<?xml version="1.0" encoding="UTF-8"?>
<svg width="20px" height="20px" viewBox="0 0 20 20" version="1.1" xmlns="http://www.w3.org/2000/svg" xmlns:xlink="http://www.w3.org/1999/xlink">
    <!-- Generator: sketchtool 49.3 (51167) - http://www.bohemiancoding.com/sketch -->
    <title>73142C72-D89B-4D99-9A17-3DA256A69A88</title>
    <desc>Created with sketchtool.</desc>
    <defs></defs>
    <g id="Coins" stroke="none" stroke-width="1" fill="none" fill-rule="evenodd">
        <g id="Coins/Bread-BRD" fill="#0099F7">
            <path d="M10,18 C5.581722,18 2,14.418278 2,10 C2,5.581722 5.581722,2 10,2 C14.418278,2 18,5.581722 18,10 C18,14.418278 14.418278,18 10,18 Z M6.55815372,5.69999981 C6.24979667,5.69999981 6,5.94979647 6,6.25815353 L6,13.7364984 C6,14.0448554 6.24979667,14.2949571 6.55815372,14.2949571 L10.49268,14.2949571 C12.9723465,14.2949571 13.8934526,13.8893044 14.4577064,13.3250506 C14.8047987,12.9627082 14.99817,12.482025 15,11.9830417 L15,11.9656566 C15,11.9357664 14.999085,11.9061812 14.99756,11.876291 C14.99756,10.7355834 14.2991053,10.1682796 12.9235462,9.92427797 C14.3479057,9.628426 14.8755592,8.95437151 14.8755592,7.96006488 C14.9063644,7.44156142 14.7178731,6.93373303 14.3570557,6.56010554 C13.7806019,5.9836517 12.9448963,5.69999981 10.5750305,5.69999981 L6.55815372,5.69999981 Z M8.30886539,7.53001201 L10.7153314,7.53001201 C11.4625864,7.53001201 12.0146401,7.57576231 12.2738918,7.83501404 C12.3910126,7.96189489 12.448658,8.13269603 12.4324929,8.30471717 C12.444083,8.48100835 12.3821675,8.65455451 12.2616917,8.78357037 C12.00549,9.05197216 11.4534364,9.0885724 10.7153314,9.0885724 L9.42212281,9.0885724 C9.21655144,9.0885724 9.05002033,9.25510351 9.05002033,9.46067488 L9.05002033,10.4366814 C9.04971533,10.4440014 9.04971533,10.4510165 9.05002033,10.4583365 C9.05520537,10.6639079 9.22600651,10.826169 9.43127288,10.8209839 L10.6909313,10.8209839 C11.4991867,10.8209839 12.1000407,10.8426391 12.3836926,11.125986 C12.5124034,11.2656769 12.5785889,11.4520332 12.5666938,11.6417444 C12.5791989,11.8274907 12.5127084,12.0101869 12.3836926,12.1446928 C12.1030907,12.4283447 11.5022367,12.4893451 10.6909313,12.4893451 L8.30886539,12.4893451 L8.30886539,7.53001201 Z" id="Sign"></path>
        </g>
    </g>
</svg>