<?xml version="1.0" encoding="UTF-8"?>
<svg width="20px" height="20px" viewBox="0 0 20 20" version="1.1" xmlns="http://www.w3.org/2000/svg" xmlns:xlink="http://www.w3.org/1999/xlink">
    <!-- Generator: sketchtool 49.3 (51167) - http://www.bohemiancoding.com/sketch -->
    <title>7B0C4D8A-17F8-4CEE-A7BD-BC04187F9F80</title>
    <desc>Created with sketchtool.</desc>
    <defs></defs>
    <g id="Coins" stroke="none" stroke-width="1" fill="none" fill-rule="evenodd">
        <g id="Coins/Byteball-GBYTE" fill="#0099F7">
            <path d="M7.1277704,2 L12.8722296,2 C14.6552671,2 15.3018396,2.18565122 15.9536914,2.53426541 C16.6055433,2.88287959 17.1171204,3.39445674 17.4657346,4.04630859 C17.8143488,4.69816044 18,5.34473292 18,7.1277704 L18,12.8722296 C18,14.6552671 17.8143488,15.3018396 17.4657346,15.9536914 C17.1171204,16.6055433 16.6055433,17.1171204 15.9536914,17.4657346 C15.3018396,17.8143488 14.6552671,18 12.8722296,18 L7.1277704,18 C5.34473292,18 4.69816044,17.8143488 4.04630859,17.4657346 C3.39445674,17.1171204 2.88287959,16.6055433 2.53426541,15.9536914 C2.18565122,15.3018396 2,14.6552671 2,12.8722296 L2,7.1277704 C2,5.34473292 2.18565122,4.69816044 2.53426541,4.04630859 C2.88287959,3.39445674 3.39445674,2.88287959 4.04630859,2.53426541 C4.69816044,2.18565122 5.34473292,2 7.1277704,2 Z M10,17 C13.8659932,17 17,13.8659932 17,10 C17,6.13400675 13.8659932,3 10,3 C6.13400675,3 3,6.13400675 3,10 C3,13.8659932 6.13400675,17 10,17 Z" id="Sign"></path>
        </g>
    </g>
</svg>