<?xml version="1.0" encoding="UTF-8"?>
<svg width="20px" height="20px" viewBox="0 0 20 20" version="1.1" xmlns="http://www.w3.org/2000/svg" xmlns:xlink="http://www.w3.org/1999/xlink">
    <!-- Generator: sketchtool 49.3 (51167) - http://www.bohemiancoding.com/sketch -->
    <title>2F67AB6E-8A6D-4A76-8E34-E4A5AFD5E593</title>
    <desc>Created with sketchtool.</desc>
    <defs></defs>
    <g id="Coins" stroke="none" stroke-width="1" fill="none" fill-rule="evenodd">
        <g id="Coins/Bytecoin-BCN" fill="#0099F7">
            <path d="M10,2 C14.4182782,2 18,5.58172181 18,10 C18,14.4182782 14.4182782,18 10,18 C5.58172181,18 2,14.4182782 2,10 C2,5.58172181 5.58172181,2 10,2 Z M14.2044449,11.6740727 C14.2110174,11.1964181 14.0378414,10.7337324 13.7192578,10.3777745 C13.4046932,10.0321009 12.9513575,9.81604694 12.3592633,9.72963175 L12.3592633,9.71703713 C12.8777801,9.63333541 13.2851852,9.42074368 13.5622219,9.08074025 C13.8432585,8.74311752 13.9959554,8.31705089 13.9933379,7.87777527 C13.9933379,7.14740916 13.7577776,6.65111219 13.2711122,6.2607431 C12.7844468,5.87036761 12.0533383,5.74221996 11.0629651,5.74221996 L7.32148108,5.74221996 L7.32148108,9.22370322 L5.17333116,9.22370322 L5.17333116,10.5570366 L11.0370399,10.5570366 C11.4985161,10.5570366 11.845188,10.5896302 12.0740734,10.7740761 C12.3029651,10.9585155 12.4200029,11.1970389 12.4200029,11.5496305 C12.4200029,11.9022221 12.3044435,12.2029634 12.0740734,12.3918506 C11.8437033,12.5807379 11.4970377,12.7051865 11.0370399,12.7051865 L9.0259268,12.7051865 L9.0259268,11.6681466 L7.32222345,11.6681466 L7.32222345,14.0385198 L11.1851866,14.0385198 C12.1674066,14.0385198 12.9185206,13.7822181 13.439258,13.3837022 C13.9600019,12.9851863 14.2044449,12.396292 14.2044449,11.6740727 Z M10.8229647,7.07259151 C11.7466658,7.07259151 12.2081484,7.43332997 12.2081484,8.14666647 C12.2081484,8.85999658 11.7466658,9.22074144 10.8229647,9.22074144 L9.02592808,9.22074144 L9.02592808,7.07259151 L10.8229647,7.07259151 Z" id="Sign"></path>
        </g>
    </g>
</svg>