<?xml version="1.0" encoding="UTF-8"?>
<svg width="20px" height="20px" viewBox="0 0 20 20" version="1.1" xmlns="http://www.w3.org/2000/svg" xmlns:xlink="http://www.w3.org/1999/xlink">
    <!-- Generator: sketchtool 49.3 (51167) - http://www.bohemiancoding.com/sketch -->
    <title>72021E5C-F16A-4429-9C08-0FE03D911287</title>
    <desc>Created with sketchtool.</desc>
    <defs></defs>
    <g id="Coins" stroke="none" stroke-width="1" fill="none" fill-rule="evenodd">
        <g id="Coins/Centra-CTR" fill="#0099F7">
            <path d="M14.1356898,15.5760693 C14.1311191,15.5798819 14.1219778,15.5875072 14.1174071,15.5913199 C13.9513383,15.7056994 13.7806989,15.8124536 13.6108213,15.9207329 C12.417869,16.6390363 11.0192352,17.0004756 9.62745755,16.9272727 C8.20825566,16.8372941 6.81190727,16.314961 5.70351288,15.417463 C4.59511849,14.5413159 3.75182461,13.3189801 3.3694095,11.9540511 C3.00070649,10.6768132 3.02127463,9.30959663 3.35722097,8.02702095 C3.76248958,6.70403117 4.55474398,5.49847103 5.63799953,4.63376186 C6.65497995,3.79421618 7.922587,3.26273268 9.23133034,3.10870159 C10.4021909,2.98898436 11.5974286,3.15140328 12.6860166,3.60434618 C14.1913,4.23572113 15.4550982,5.42831826 16.182601,6.89008852 C16.9177217,8.34880867 17.0997878,10.0706017 16.7082313,11.6559019 C16.3517168,13.2183261 15.3918702,14.5977431 14.1356898,15.5760693 M17.9004219,8.89325518 C18.0169747,9.48955375 18.0245925,10.1178786 17.9575556,10.7179898 C17.8608091,12.3261658 17.1508273,13.8458884 16.1536532,15.0911001 C15.9175005,15.3404475 15.3872995,15.9100575 15.3872995,15.9100575 C14.3169942,16.8761832 12.9914917,17.5594101 11.5753369,17.8384962 C9.27551376,18.3173651 6.76696206,17.7134412 4.96153615,16.202869 C3.98035954,15.3968747 3.18581978,14.3598337 2.68075759,13.1946877 C2.61372068,13.064295 2.2975807,12.241525 2.22902022,11.9540511 C1.60511988,9.42855134 2.27015651,6.58888912 4.05044358,4.67570101 C4.43590582,4.21437028 4.89906994,3.81327943 5.39575251,3.47471605 C6.41273293,2.71218592 7.64758331,2.25009266 8.90300183,2.07318567 C10.9240124,1.7956247 13.0493872,2.31338266 14.6940768,3.52733063 C16.4172302,4.79313065 17.6383685,6.75969587 17.9004219,8.89325518 Z M12.0110692,11.3325967 C11.7071178,11.5552555 11.3841217,11.7687639 11.0100862,11.8495921 C10.1980255,12.0585254 9.26712653,11.7786768 8.73921085,11.1183257 C8.31261233,10.6005678 8.1876799,9.84795053 8.45887468,9.2295386 C8.87633181,8.23138665 10.1127058,7.74718002 11.1205448,8.07125532 C11.4313523,8.15360858 11.6926439,8.34576617 11.9684094,8.50132232 C12.1923736,8.13454532 13.1910712,6.72843976 13.4767399,6.40436445 C12.8040854,5.83170432 11.9950718,5.40926263 11.1205448,5.25828166 C10.146986,5.11263841 9.1201024,5.20185443 8.23186332,5.64869709 C6.96882696,6.23965794 6.00136244,7.41547941 5.66693967,8.76973293 C5.37441497,9.87616415 5.51839197,11.0840119 6.03716625,12.1012271 C6.38453934,12.8225806 6.94978239,13.4066787 7.57444452,13.8939354 C7.5948603,13.9077372 8.72572729,14.686738 10.2010726,14.7022174 C11.4168784,14.7464441 12.6136396,14.2576623 13.514829,13.4524305 C13.0341439,12.8424064 12.0491584,11.3882614 12.0110692,11.3325967 Z" id="Sign"></path>
        </g>
    </g>
</svg>