<?xml version="1.0" encoding="UTF-8"?>
<svg width="20px" height="20px" viewBox="0 0 20 20" version="1.1" xmlns="http://www.w3.org/2000/svg" xmlns:xlink="http://www.w3.org/1999/xlink">
    <!-- Generator: sketchtool 49.3 (51167) - http://www.bohemiancoding.com/sketch -->
    <title>9FCD3BDE-E609-48A0-8399-502A38261A2A</title>
    <desc>Created with sketchtool.</desc>
    <defs></defs>
    <g id="Coins" stroke="none" stroke-width="1" fill="none" fill-rule="evenodd">
        <g id="Coins/Chronobank-TIME" fill="#0099F7">
            <path d="M17.2404703,6.92893308 C16.9309727,6.90335193 16.6237798,6.83188471 16.3923685,6.64488326 C16.2339197,6.51682513 16.1149473,6.34029995 16.0286705,6.10519337 C15.9446889,5.87640113 15.893517,5.59277036 15.8758978,5.25952969 L16.1835193,5.25952969 C16.4642548,5.25952969 16.7292283,5.36989245 16.9296489,5.57028447 C17.1300885,5.77069555 17.2404703,6.03570712 17.2404703,6.31649025 L17.2404703,6.92893308 Z M17.2404703,12.6877872 C16.3689969,12.7447114 15.7555445,13.0064944 15.371532,13.4833267 C15.1849973,13.714938 15.0585582,13.9892925 14.9850148,14.3220665 C14.946024,14.4984964 14.9220714,14.6908503 14.9117952,14.9143282 L4.86708885,14.9143282 C4.81061222,14.0430929 4.55107688,13.4299072 4.07834942,13.0464566 C3.84787144,12.8595028 3.57456457,12.7328351 3.24280962,12.659225 C3.09591324,12.6266248 2.93777869,12.6045484 2.75952969,12.5921579 L2.75952969,7.58190004 C3.63023166,7.5250615 4.24357927,7.26395472 4.62802034,6.78839866 C4.81462178,6.55755878 4.94116562,6.28436619 5.0148519,5.95320172 C5.05997606,5.7504573 5.08496673,5.52700795 5.09199535,5.25952969 L15.1153872,5.25952969 C15.1572351,6.18754639 15.4199515,6.8355895 15.9149839,7.23563069 C16.1458618,7.42220356 16.4191211,7.54871883 16.7503618,7.62238607 C16.8994391,7.6555387 17.0597165,7.67782459 17.2404703,7.69010088 L17.2404703,12.6877872 Z M17.2404703,13.8573676 C17.2404703,14.138046 17.1300885,14.4030195 16.9296489,14.6034687 C16.7291997,14.8039274 16.4642262,14.9143282 16.1835193,14.9143282 L15.6718867,14.9143282 C15.6902774,14.568897 15.7558493,14.2170276 15.96307,13.9597303 C16.0910233,13.8008529 16.2675009,13.6816234 16.5025979,13.5952228 C16.706209,13.5203936 16.9533824,13.4716028 17.2404703,13.449355 L17.2404703,13.8573676 Z M3.81649025,14.9143282 C3.53575474,14.9143282 3.27076221,14.8039654 3.07034162,14.6035639 C2.86991149,14.4031528 2.75952969,14.1381412 2.75952969,13.8573676 L2.75952969,13.353478 C3.06758921,13.3796782 3.37197252,13.4514693 3.59987905,13.6363374 C3.75725169,13.763986 3.87538594,13.9403588 3.96100565,14.175532 C4.03518718,14.379286 4.08355898,14.6268022 4.1055782,14.9143282 L3.81649025,14.9143282 Z M2.75952969,6.31649025 C2.75952016,6.0356976 2.86989245,5.77068602 3.07031304,5.57028447 C3.27072412,5.36989245 3.53571665,5.25952969 3.81649025,5.25952969 L4.33237995,5.25952969 C4.32169416,5.63383735 4.26551277,6.02866897 4.0373491,6.31090925 C3.90928144,6.46933905 3.73270865,6.58829235 3.49756397,6.67456921 C3.29379096,6.74934122 3.04657,6.79809397 2.75952969,6.82032272 L2.75952969,6.31649025 Z M16.1835193,4.5 C17.185127,4.5 18,5.31487297 18,6.31649025 L18,13.8573676 C18,14.8589754 17.185127,15.6738579 16.1835193,15.6738579 L3.81649025,15.6738579 C2.81487297,15.6738579 2,14.8589754 2,13.8573676 L2,6.31649977 C1.99999048,5.83281984 2.18937289,5.37706393 2.53327079,5.0331946 C2.8771306,4.68935385 3.33285793,4.5 3.81649025,4.5 L16.1835193,4.5 Z M12.7026504,7.17048447 C12.3556382,6.82351036 11.9514541,6.55106063 11.5013078,6.36068773 C11.0350661,6.16351478 10.5400242,6.06353305 10.029925,6.06353305 C9.51982581,6.06353305 9.02478388,6.16351478 8.5585517,6.36068773 C8.10840536,6.55106063 7.70422128,6.82351036 7.35720907,7.17048447 C7.01019686,7.51745859 6.73770904,7.92160457 6.54730757,8.37170329 C6.35009652,8.83789738 6.25010527,9.33289168 6.25010527,9.84295277 C6.25010527,10.3530139 6.35009652,10.8480082 6.54730757,11.3142118 C6.73770904,11.764301 7.01019686,12.1684565 7.35720907,12.5154306 C7.70422128,12.8623952 8.10840536,13.1348544 8.5585517,13.3252178 C9.02478388,13.5224003 9.51982581,13.6223725 10.029925,13.6223725 C10.5400242,13.6223725 11.0350661,13.5224003 11.5013078,13.3252178 C11.9514541,13.1348544 12.3556382,12.8623952 12.7026504,12.5154306 C13.0496531,12.1684565 13.3221505,11.764301 13.5125519,11.3142118 C13.7097535,10.8480082 13.8097447,10.3530139 13.8097447,9.84295277 C13.8097447,9.33289168 13.7097535,8.83789738 13.5125519,8.37170329 C13.3221505,7.92160457 13.0496531,7.51745859 12.7026504,7.17048447 Z M12.1656082,11.9783217 C11.5951562,12.5487166 10.8366836,12.8628428 10.029925,12.8628428 C9.22316637,12.8628428 8.46470336,12.5487166 7.8942418,11.9783217 C7.32379929,11.4079458 7.00963496,10.6495876 7.00963496,9.84295277 C7.00963496,9.03631796 7.32379929,8.27795971 7.8942418,7.70758387 C8.46470336,7.13718898 9.22316637,6.82306274 10.029925,6.82306274 C10.8366836,6.82306274 11.5951562,7.13718898 12.1656082,7.70758387 C12.7360507,8.27795971 13.050215,9.03631796 13.050215,9.84295277 C13.050215,10.6495876 12.7360507,11.4079458 12.1656082,11.9783217 Z M10.1821843,8.35118123 L9.42265458,8.35118123 L9.42265458,10.6821231 L11.65811,10.6821231 L11.65811,9.92259339 L10.1821843,9.92259339 L10.1821843,8.35118123 Z" id="Sign"></path>
        </g>
    </g>
</svg>