<?xml version="1.0" encoding="UTF-8"?>
<svg width="20px" height="20px" viewBox="0 0 20 20" version="1.1" xmlns="http://www.w3.org/2000/svg" xmlns:xlink="http://www.w3.org/1999/xlink">
    <!-- Generator: sketchtool 49.3 (51167) - http://www.bohemiancoding.com/sketch -->
    <title>C500142D-8EF4-4DEC-9C56-2218D4D0E396</title>
    <desc>Created with sketchtool.</desc>
    <defs></defs>
    <g id="Coins" stroke="none" stroke-width="1" fill="none" fill-rule="evenodd">
        <g id="Coins/Civic-CVC" fill="#0099F7">
            <path d="M9.96,16 C12.64,16 14.92,14.2 15.68,11.76 L17.72,11.76 C16.92,15.32 13.76,18 9.96,18 C5.56,18 2,14.4 2,10 C2,5.6 5.56,2 9.96,2 C13.76,2 16.92,4.68 17.72,8.24 L15.68,8.24 C14.92,5.8 12.64,4 9.96,4 C6.68,4 4,6.68 4,10 C4,13.32 6.68,16 9.96,16 Z M10.72,12.96 L9.08,12.96 L9.08,10.64 C8.48,10.32 8.04,9.68 8.04,8.96 C8.04,7.92 8.88,7.08 9.92,7.08 C10.96,7.08 11.8,7.92 11.8,8.96 C11.8,9.68 11.36,10.32 10.76,10.64 C10.76,10.64 10.76,12.96 10.72,12.96 Z" id="Sing"></path>
        </g>
    </g>
</svg>