<?xml version="1.0" encoding="UTF-8"?>
<svg width="20px" height="20px" viewBox="0 0 20 20" version="1.1" xmlns="http://www.w3.org/2000/svg" xmlns:xlink="http://www.w3.org/1999/xlink">
    <!-- Generator: sketchtool 49.3 (51167) - http://www.bohemiancoding.com/sketch -->
    <title>F0F56D42-7E92-44D2-8495-50F17D3E80FC</title>
    <desc>Created with sketchtool.</desc>
    <defs></defs>
    <g id="Coins" stroke="none" stroke-width="1" fill="none" fill-rule="evenodd">
        <g id="Coins/Cofound.it-CFI" fill="#0099F7">
            <path d="M13.9444934,14.3939082 C12.8600732,14.3939082 11.8405927,13.9568859 11.0738608,13.1635626 L8.20839375,10.1967664 L11.0738608,7.22997018 C11.8402237,6.43702237 12.8600732,6 13.9444934,6 C15.0289136,6 16.0483941,6.43702237 16.8147571,7.22997018 C18.395081,8.86580049 18.395081,11.5281077 16.8147571,13.1635626 C16.0483941,13.9568859 15.0289136,14.3939082 13.9444934,14.3939082 Z M9.69942545,10.1967664 L11.8239888,7.99738748 C12.3907358,7.41093649 13.1438157,7.08805055 13.9444934,7.08805055 C14.7451712,7.08805055 15.498251,7.41093649 16.064998,7.99738748 C17.2361276,9.21046247 17.2361276,11.1834458 16.0646291,12.3961453 C15.498251,12.9822208 14.7451712,13.3051068 13.9444934,13.3051068 C13.1438157,13.3051068 12.3907358,12.9822208 11.8239888,12.3961453 L9.69942545,10.1967664 Z M6.02296966,14.3939082 C4.94724963,14.3939082 3.93594835,13.9568859 3.17573382,13.1635626 C1.60808873,11.5281077 1.60808873,8.86580049 3.17573382,7.22997018 C3.93594835,6.43702237 4.94724963,6 6.02296966,6 C7.0986897,6 8.10999098,6.43702237 8.87020551,7.22997018 L9.00453326,7.37038802 L8.26042342,8.13742987 L8.12609567,7.99738748 C7.56426163,7.41093649 6.81722366,7.08805055 6.02260365,7.08805055 C5.22834966,7.08805055 4.48131169,7.41093649 3.91947764,7.99738748 C2.7570119,9.21046247 2.7570119,11.1830703 3.91947764,12.3961453 C4.48131169,12.9822208 5.22834966,13.3051068 6.02260365,13.3051068 C6.81685764,13.3051068 7.56389561,12.9822208 8.12609567,12.3961453 L8.26042342,12.2557275 L9.00453326,13.0227693 L8.87020551,13.1635626 C8.10962496,13.9568859 7.0986897,14.3939082 6.02296966,14.3939082 Z" id="Sign"></path>
        </g>
    </g>
</svg>