<?xml version="1.0" encoding="UTF-8"?>
<svg width="20px" height="20px" viewBox="0 0 20 20" version="1.1" xmlns="http://www.w3.org/2000/svg" xmlns:xlink="http://www.w3.org/1999/xlink">
    <!-- Generator: sketchtool 49.3 (51167) - http://www.bohemiancoding.com/sketch -->
    <title>89F55278-B79C-4BD1-8159-18FAE2AECA86</title>
    <desc>Created with sketchtool.</desc>
    <defs></defs>
    <g id="Coins" stroke="none" stroke-width="1" fill="none" fill-rule="evenodd">
        <g id="Coins/Coinlancer-CL" fill="#0099F7">
            <path d="M9.73926356,3.14771385 C9.41577849,3.28071701 9.22395986,3.66769605 9.32621857,4.00521663 C9.41511013,4.37415002 9.82548169,4.61743218 10.1930784,4.52185704 C10.5887461,4.43764399 10.8520789,3.98382919 10.7164024,3.59952358 C10.605455,3.19917738 10.1162172,2.97460924 9.73926356,3.14771385 M9.62096427,2.04492383 C10.2385267,1.9005586 10.9128995,2.11175959 11.3486686,2.56891618 C12.0237098,3.24863585 11.9976438,4.46237322 11.2958684,5.11402186 C10.6495666,5.77569587 9.49330797,5.80309854 8.81626174,5.17283733 C8.1565928,4.61141696 8.01222756,3.55942212 8.49210831,2.83893265 C8.74541583,2.44125988 9.15779246,2.1431724 9.62096427,2.04492383 Z M4.18188361,5.15743837 C4.70921774,5.00438449 5.30271928,5.10998499 5.74249857,5.43881692 C6.32129624,5.85119355 6.60000135,6.61378955 6.44895254,7.30553965 C6.69089798,7.44388967 6.93217507,7.58491312 7.17545723,7.72326314 C7.72217374,7.076293 8.47207095,6.59440718 9.309523,6.43466972 C10.6121519,6.16532161 12.0444422,6.67527845 12.8631803,7.72861 C13.1098042,7.58959163 13.3550915,7.44723146 13.5997103,7.30353458 C13.5248543,6.89717317 13.561614,6.46407745 13.7527642,6.09380735 C14.0114186,5.5651365 14.544768,5.1901879 15.1262391,5.10998499 C15.7919232,5.00505284 16.4977088,5.31851255 16.8766676,5.87324935 C17.2950594,6.46541417 17.3090949,7.31155487 16.8953816,7.90906655 C16.5545192,8.41969175 15.9423037,8.75520725 15.3234046,8.72178937 C14.8923139,8.71844759 14.4759271,8.53598597 14.1571206,8.25126563 C13.9031447,8.38092701 13.6611992,8.53197582 13.4125702,8.67166256 C13.7895239,9.63543419 13.7427389,10.7642902 13.2481543,11.677935 C12.7275037,12.6965119 11.6989014,13.4210116 10.5713821,13.5954529 C10.5707138,13.8761631 10.5733872,14.1568733 10.56002,14.4375834 C10.9603662,14.5799436 11.3252895,14.8372613 11.5531994,15.2001794 C11.8840364,15.7067945 11.9355,16.3791622 11.6835291,16.9292205 C11.4970574,17.3596428 11.1267873,17.6951583 10.696365,17.8736098 C10.1456383,18.0934994 9.48931119,18.0239902 9.00141016,17.6844646 C8.30765498,17.236665 8.01892451,16.2789086 8.33171586,15.5176493 C8.52687627,15.0090292 8.96531885,14.6193767 9.47728076,14.4462721 C9.47928583,14.1648935 9.47861747,13.883515 9.47728076,13.6014681 C8.29762962,13.4170014 7.22558405,12.6276711 6.7316678,11.5362432 C6.30659237,10.6479959 6.28052643,9.59065423 6.63408759,8.67433599 C6.38946871,8.53398089 6.14885998,8.38694222 5.8995626,8.25527578 C5.56605217,8.53331254 5.14699196,8.72914131 4.70587596,8.72312609 C4.09098698,8.74451353 3.47877143,8.41902339 3.14726607,7.90171462 C2.86120902,7.47062398 2.77365418,6.91388211 2.91935613,6.41662406 C3.08243538,5.81577059 3.57835671,5.31583912 4.18188361,5.15743837 Z M9.88096874,15.4715326 C9.64236508,15.5169809 9.43651094,15.6940957 9.34828774,15.9200006 C9.18052999,16.3103214 9.44052109,16.8022326 9.85423443,16.8897874 C10.2746314,17.0080867 10.7391399,16.6625458 10.7491652,16.2267767 C10.7952819,15.7696201 10.3267632,15.3659321 9.88096874,15.4715326 Z M9.54946338,7.47196069 C8.64049706,7.6357083 7.85384018,8.33280526 7.5778085,9.2130322 C7.41005075,9.73034097 7.41272418,10.3011183 7.58783386,10.8157537 C7.81039694,11.494805 8.33372093,12.0675874 8.98871136,12.3523078 C9.53676458,12.5942532 10.1723726,12.6363597 10.7471602,12.4679336 C11.3540289,12.276115 11.9047555,11.8771055 12.2289089,11.3237055 C12.6853972,10.5804918 12.71681,9.60201631 12.3144587,8.8300633 C11.8245526,7.83153707 10.6388862,7.24872926 9.54946338,7.47196069 Z M8.47007256,9.4483208 C8.68728877,8.7786265 9.34495264,8.27936339 10.052075,8.26532788 C10.4490794,8.25797594 10.9008891,8.35087765 11.1715739,8.66233228 C11.0158466,8.87353328 10.8694763,9.09141785 10.713749,9.30328721 C10.4524212,9.15023332 10.1389614,9.03126567 9.83753218,9.14154467 C9.33359056,9.29526692 9.10434391,9.93889527 9.3329222,10.3973886 C9.46392029,10.6981495 9.78072178,10.9026669 10.1088854,10.895315 C10.3307801,10.9040036 10.5205936,10.777684 10.7130806,10.6861191 C10.8821751,10.9033353 11.037234,11.1305768 11.1836044,11.3638336 C10.4604414,11.9840695 9.24536736,11.8016079 8.71134965,11.0202978 C8.38051264,10.5765084 8.29095273,9.97097643 8.47007256,9.4483208 Z M4.38039918,11.2983079 C5.21985631,11.1445856 6.11679219,11.6819451 6.38614029,12.4893211 C6.61939709,13.1403014 6.4396089,13.9155962 5.93834071,14.3921351 C5.49388292,14.8372613 4.80814803,15.0110342 4.20328442,14.847955 C3.40793889,14.6400958 2.80173856,13.855444 2.85387046,13.0260122 C2.86857432,12.1832133 3.54428384,11.4132654 4.38039918,11.2983079 Z M4.46661731,12.395751 C4.18724384,12.4739489 3.96735419,12.7332716 3.94463003,13.0240071 C3.89517157,13.423685 4.23803901,13.8099957 4.63838521,13.8153425 C5.08685315,13.8507655 5.48252084,13.395614 5.3822672,12.956503 C5.3160998,12.5488049 4.86027993,12.2687631 4.46661731,12.395751 Z M14.8956691,11.3397527 C15.9008789,11.0369867 17.0504539,11.779532 17.1774419,12.8221698 C17.3525515,13.7952985 16.5866138,14.7971665 15.6054648,14.8914049 C14.663749,15.0310917 13.7039875,14.304587 13.5830148,13.3608661 C13.4306292,12.4806391 14.0328194,11.5603107 14.8956691,11.3397527 Z M15.159002,12.4011046 C14.8669297,12.4906645 14.6503818,12.7814 14.6523869,13.0875078 C14.6410248,13.4825071 15.0026063,13.8367367 15.3976056,13.8160176 C15.8026303,13.818691 16.1548548,13.4303752 16.106733,13.0266873 C16.0793303,12.579556 15.5820723,12.2500557 15.159002,12.4011046 Z M15.0894794,6.24218273 C14.884962,6.33241101 14.7258929,6.51955113 14.673761,6.73676735 C14.5574668,7.1551592 14.9010026,7.618331 15.3340983,7.6310298 C15.7885814,7.67781483 16.1942745,7.21798481 16.0966943,6.77419537 C16.02518,6.33040594 15.4971775,6.04635396 15.0894794,6.24218273 Z M4.39508968,6.2348308 C4.09633384,6.35446681 3.89849999,6.6839671 3.9472901,7.00411038 C3.99273841,7.38908435 4.3837276,7.68984526 4.76870157,7.62568293 C5.17773641,7.58157133 5.4805024,7.1424604 5.37757533,6.74345092 C5.28935213,6.323054 4.79142573,6.05905276 4.39508968,6.2348308 Z" id="Sign"></path>
        </g>
    </g>
</svg>