<?xml version="1.0" encoding="UTF-8"?>
<svg width="20px" height="20px" viewBox="0 0 20 20" version="1.1" xmlns="http://www.w3.org/2000/svg" xmlns:xlink="http://www.w3.org/1999/xlink">
    <!-- Generator: sketchtool 49.3 (51167) - http://www.bohemiancoding.com/sketch -->
    <title>138371AA-922C-4F4B-A916-0A0425F3E0F5</title>
    <desc>Created with sketchtool.</desc>
    <defs></defs>
    <g id="Coins" stroke="none" stroke-width="1" fill="none" fill-rule="evenodd">
        <g id="Coins/Darcrus-DAR" fill="#0099F7">
            <path d="M16.602346,9.62932551 C16.6211144,9.66686217 16.6211144,9.70439883 16.6398827,9.76070381 L15.0821114,14.3026393 C15.0633431,14.340176 15.0445748,14.3777126 15.0070381,14.3964809 L9.93958944,17.9812317 L9.92082111,17.9812317 L9.90205279,17.9812317 C9.88328446,18 9.8457478,18 9.82697947,18 C9.80821114,18 9.77067449,18 9.75190616,17.9812317 L9.73313783,17.9812317 L9.7143695,17.9812317 L4.64692082,14.3964809 C4.60938416,14.3777126 4.59061584,14.340176 4.57184751,14.3026393 L3.01407625,9.76070381 C2.99530792,9.72316716 2.99530792,9.66686217 3.01407625,9.62932551 L4.30909091,6.28856305 L3.5771261,4.74956012 C3.55835777,4.71202346 3.55835777,4.6744868 3.55835777,4.63695015 L4.02756598,2.15953079 C4.04633431,2.10322581 4.08387097,2.04692082 4.14017595,2.02815249 C4.19648094,1.99061584 4.25278592,1.99061584 4.30909091,2.02815249 L5.6228739,2.77888563 L7.4058651,3.07917889 C7.44340176,3.09794721 7.48093842,3.11671554 7.51847507,3.1542522 L8.00645161,3.73607038 L9.77067449,3.34193548 L9.80821114,3.34193548 L9.8457478,3.34193548 L11.6099707,3.73607038 L12.0979472,3.1542522 C12.1354839,3.11671554 12.1730205,3.07917889 12.2105572,3.07917889 L13.9935484,2.77888563 L15.3073314,2.02815249 C15.3636364,2.00938416 15.4199413,2.00938416 15.4762463,2.02815249 C15.5325513,2.04692082 15.570088,2.10322581 15.5888563,2.15953079 L16.0580645,4.65571848 C16.0580645,4.69325513 16.0580645,4.73079179 16.0392962,4.76832845 L15.3073314,6.30733138 L16.602346,9.62932551 Z M14.7067449,14.114956 L16.1706745,9.66686217 L15.0258065,6.7202346 C15.0070381,6.77653959 14.9319648,6.81407625 14.8756598,6.81407625 C14.8568915,6.81407625 14.8193548,6.81407625 14.8005865,6.79530792 C14.7067449,6.75777126 14.6692082,6.64516129 14.7067449,6.55131965 L15.626393,4.61818182 L15.3073314,2.87272727 L15.0070381,3.52961877 C14.9882698,3.56715543 14.9507331,3.60469208 14.8944282,3.62346041 L13.8058651,3.94252199 L12.9612903,5.31260997 C12.9237537,5.36891496 12.8486804,5.40645161 12.7923754,5.40645161 C12.7548387,5.40645161 12.7360704,5.40645161 12.6985337,5.38768328 C12.6234604,5.3313783 12.5859238,5.21876833 12.6422287,5.12492669 L13.5243402,3.69853372 C13.5618768,3.66099707 13.5994135,3.64222874 13.6369501,3.62346041 L14.7255132,3.30439883 L15.0445748,2.59120235 L14.143695,3.11671554 C14.1249267,3.11671554 14.1061584,3.13548387 14.08739,3.13548387 L12.3419355,3.43577713 L12.0228739,3.82991202 L12.2856305,3.88621701 C12.3982405,3.90498534 12.4545455,4.01759531 12.4357771,4.11143695 C12.4170088,4.20527859 12.3419355,4.26158358 12.2480938,4.26158358 L12.2105572,4.26158358 L9.80821114,3.73607038 L7.38709677,4.28035191 L7.34956012,4.28035191 C7.25571848,4.28035191 7.18064516,4.22404692 7.16187683,4.13020528 C7.1431085,4.03636364 7.21818182,3.92375367 7.31202346,3.90498534 L7.57478006,3.84868035 L7.25571848,3.45454545 L5.51026393,3.1542522 C5.4914956,3.1542522 5.47272727,3.1542522 5.45395894,3.13548387 L4.55307918,2.60997067 L4.85337243,3.32316716 L5.94193548,3.64222874 C5.99824047,3.64222874 6.03577713,3.6797654 6.05454545,3.71730205 L6.93665689,5.14369501 C6.99296188,5.23753666 6.97419355,5.35014663 6.88035191,5.40645161 C6.86158358,5.42521994 6.82404692,5.42521994 6.78651026,5.42521994 C6.71143695,5.42521994 6.65513196,5.38768328 6.61759531,5.3313783 L5.77302053,3.96129032 L4.68445748,3.64222874 C4.62815249,3.64222874 4.59061584,3.60469208 4.57184751,3.5483871 L4.27155425,2.8914956 L3.95249267,4.63695015 L4.87214076,6.57008798 C4.90967742,6.66392962 4.87214076,6.77653959 4.77829912,6.81407625 C4.75953079,6.83284457 4.72199413,6.83284457 4.70322581,6.83284457 C4.64692082,6.83284457 4.59061584,6.79530792 4.55307918,6.73900293 L3.40821114,9.6856305 L4.90967742,14.114956 L9.80821114,17.5870968 L14.7067449,14.114956 Z M7.55601173,11.0369501 L7.36832845,11.9002933 C7.36832845,11.9941349 7.25571848,12.0692082 7.16187683,12.0504399 C7.06803519,12.0504399 6.99296188,11.9378299 7.01173021,11.8439883 L7.12434018,11.1307918 L6.24222874,10.9618768 L6.80527859,12.6697947 C6.82404692,12.744868 6.80527859,12.8199413 6.74897361,12.8762463 L5.69794721,13.7583578 C5.67917889,13.7771261 5.6228739,13.7958944 5.58533724,13.7958944 C5.56656891,13.7958944 5.52903226,13.7958944 5.51026393,13.7771261 C5.45395894,13.7583578 5.39765396,13.7020528 5.39765396,13.6269795 L5.28504399,12.1255132 L4.72199413,12.2193548 C4.66568915,12.2193548 4.60938416,12.2005865 4.57184751,12.1630499 C4.53431085,12.1255132 4.51554252,12.0692082 4.51554252,12.0129032 L4.64692082,10.8304985 L3.971261,10.398827 C3.91495601,10.3612903 3.87741935,10.2674487 3.89618768,10.1923754 L4.2340176,8.95366569 C4.25278592,8.85982405 4.36539589,8.80351906 4.45923754,8.82228739 C4.55307918,8.84105572 4.60938416,8.95366569 4.59061584,9.04750733 L4.29032258,10.1548387 L4.94721408,10.5865103 C5.02228739,10.6428152 5.04105572,10.6991202 5.04105572,10.7741935 L4.92844575,11.8252199 L5.43519062,11.7313783 C5.4914956,11.7313783 5.54780059,11.7313783 5.58533724,11.768915 C5.6228739,11.8064516 5.66041056,11.8439883 5.66041056,11.9002933 L5.7542522,13.2516129 L6.42991202,12.688563 L5.81055718,10.8117302 C5.79178886,10.7366569 5.81055718,10.6615836 5.84809384,10.6240469 C5.8856305,10.5865103 5.96070381,10.5489736 6.0170088,10.5677419 L7.4058651,10.8304985 C7.49970674,10.8492669 7.57478006,10.9431085 7.55601173,11.0369501 Z M5.56656891,8.70967742 L4.98475073,7.9026393 C4.92844575,7.80879765 4.94721408,7.69618768 5.04105572,7.6398827 C5.13489736,7.58357771 5.24750733,7.60234604 5.30381232,7.69618768 L5.79178886,8.42815249 C6.18592375,8.42815249 7.63108504,8.40938416 7.6686217,8.40938416 C7.78123167,8.40938416 7.8,8.40938416 8.56950147,9.40410557 L8.60703812,9.40410557 L9.22639296,8.93489736 L9.03870968,8.29677419 C9.01994135,8.20293255 9.07624633,8.10909091 9.17008798,8.07155425 C9.26392962,8.05278592 9.35777126,8.10909091 9.39530792,8.20293255 L9.62052786,8.95366569 C9.65806452,9.028739 9.62052786,9.10381232 9.56422287,9.1601173 L8.68211144,9.83577713 C8.64457478,9.85454545 8.60703812,9.87331378 8.56950147,9.87331378 L8.55073314,9.87331378 C8.51319648,9.87331378 8.47565982,9.85454545 8.43812317,9.8170088 L7.08680352,10.0985337 L7.04926686,10.0985337 C6.97419355,10.0985337 6.91788856,10.0609971 6.88035191,9.98592375 L6.35483871,8.80351906 L5.71671554,8.80351906 C5.66041056,8.78475073 5.60410557,8.7659824 5.56656891,8.70967742 Z M8.1941349,9.47917889 C8.0627566,9.32903226 7.95014663,9.17888563 7.87507331,9.06627566 C7.83753666,9.21642229 7.70615836,9.32903226 7.55601173,9.32903226 C7.38709677,9.32903226 7.23695015,9.17888563 7.23695015,9.00997067 C7.23695015,8.93489736 7.2744868,8.85982405 7.33079179,8.80351906 L6.78651026,8.80351906 L7.18064516,9.6856305 L8.1941349,9.47917889 Z M9.13255132,7.22697947 L7.42463343,5.93196481 C7.33079179,5.87565982 7.33079179,5.74428152 7.38709677,5.66920821 C7.44340176,5.57536657 7.57478006,5.57536657 7.64985337,5.63167155 L8.90733138,6.60762463 L8.64457478,5.63167155 C8.62580645,5.55659824 8.64457478,5.4627566 8.71964809,5.42521994 C8.79472141,5.36891496 8.88856305,5.36891496 8.94486804,5.42521994 L9.63929619,5.93196481 L9.63929619,4.52434018 L8.17536657,5.03108504 L8.43812317,5.3313783 C8.51319648,5.40645161 8.49442815,5.51906158 8.41935484,5.5941349 C8.34428152,5.66920821 8.23167155,5.65043988 8.15659824,5.57536657 L7.70615836,5.04985337 C7.6686217,5.01231672 7.64985337,4.9372434 7.6686217,4.88093842 C7.6686217,4.82463343 7.72492669,4.76832845 7.78123167,4.74956012 L9.77067449,4.05513196 L9.78944282,4.05513196 L9.80821114,4.05513196 L9.82697947,4.05513196 L9.8457478,4.05513196 L9.86451613,4.05513196 L9.88328446,4.05513196 L11.8539589,4.73079179 C11.9102639,4.74956012 11.9478006,4.8058651 11.9665689,4.86217009 C11.9853372,4.91847507 11.9665689,4.97478006 11.9290323,5.03108504 L11.4785924,5.55659824 C11.4035191,5.63167155 11.2909091,5.65043988 11.2158358,5.57536657 C11.1407625,5.50029326 11.1219941,5.38768328 11.1970674,5.31260997 L11.459824,5.01231672 L9.99589443,4.50557185 L9.99589443,5.91319648 L10.6715543,5.38768328 C10.7466276,5.35014663 10.8217009,5.35014663 10.8967742,5.38768328 C10.9718475,5.44398827 10.9906158,5.51906158 10.9718475,5.5941349 L10.7090909,6.57008798 L11.9665689,5.5941349 C12.0416422,5.53782991 12.1730205,5.55659824 12.2293255,5.63167155 C12.2856305,5.70674487 12.2668622,5.83812317 12.1917889,5.89442815 L10.483871,7.22697947 C10.4463343,7.2457478 10.4087977,7.26451613 10.371261,7.26451613 C10.3337243,7.26451613 10.2961877,7.2457478 10.258651,7.22697947 C10.1835777,7.18944282 10.1648094,7.09560117 10.1835777,7.02052786 L10.4651026,6.02580645 L9.92082111,6.43870968 L9.90205279,6.43870968 L9.88328446,6.43870968 L9.86451613,6.43870968 L9.8457478,6.43870968 L9.82697947,6.43870968 L9.80821114,6.43870968 L9.78944282,6.43870968 L9.77067449,6.43870968 L9.75190616,6.43870968 L9.73313783,6.43870968 L9.7143695,6.43870968 L9.69560117,6.43870968 L9.15131965,6.02580645 L9.43284457,7.02052786 C9.4516129,7.09560117 9.43284457,7.18944282 9.35777126,7.22697947 C9.3202346,7.2457478 9.28269795,7.26451613 9.24516129,7.26451613 C9.20762463,7.26451613 9.17008798,7.2457478 9.13255132,7.22697947 Z M11.3096774,10.9431085 L12.2480938,13.6082111 C12.2668622,13.6645161 12.2668622,13.7208211 12.2480938,13.7583578 L11.516129,15.259824 C11.4785924,15.3348974 11.4222874,15.372434 11.3472141,15.372434 L9.80821114,15.372434 L8.26920821,15.372434 C8.1941349,15.372434 8.13782991,15.316129 8.10029326,15.259824 L7.36832845,13.7583578 C7.34956012,13.7020528 7.34956012,13.6645161 7.36832845,13.6082111 L8.30674487,10.9431085 C8.34428152,10.8492669 8.4568915,10.7929619 8.55073314,10.8304985 C8.64457478,10.8680352 8.70087977,10.9806452 8.66334311,11.0744868 L7.74369501,13.6645161 L8.38181818,14.9782991 L9.62052786,14.9782991 L9.62052786,14.6217009 L8.90733138,14.340176 C8.85102639,14.3214076 8.81348974,14.2651026 8.79472141,14.2087977 L8.49442815,12.9513196 C8.47565982,12.857478 8.53196481,12.744868 8.62580645,12.7260997 L9.62052786,12.4445748 L9.62052786,11.8064516 L9.20762463,12.0879765 C9.11378299,12.1442815 9.00117302,12.1255132 8.94486804,12.0316716 C8.88856305,11.9378299 8.90733138,11.8252199 9.00117302,11.768915 L9.7143695,11.2809384 L9.73313783,11.2809384 L9.75190616,11.2809384 L9.77067449,11.2809384 L9.78944282,11.2809384 L9.80821114,11.2809384 L9.82697947,11.2809384 L9.8457478,11.2809384 L9.86451613,11.2809384 L9.88328446,11.2809384 L9.90205279,11.2809384 L10.6152493,11.768915 C10.7090909,11.8252199 10.7278592,11.9378299 10.6715543,12.0316716 C10.6152493,12.1255132 10.5026393,12.1442815 10.4087977,12.0879765 L9.99589443,11.8064516 L9.99589443,12.4445748 L10.9906158,12.744868 C11.0844575,12.7824047 11.1407625,12.8762463 11.1219941,12.970088 L10.8217009,14.227566 C10.8029326,14.283871 10.7653959,14.340176 10.7090909,14.3589443 L9.99589443,14.6404692 L9.99589443,14.9970674 L11.2346041,14.9970674 L11.8727273,13.6645161 L10.9530792,11.0744868 C10.9155425,10.9806452 10.9718475,10.8680352 11.0656891,10.8304985 C11.1595308,10.7929619 11.2721408,10.8492669 11.3096774,10.9431085 Z M8.88856305,13.0451613 L9.13255132,14.0398827 L9.80821114,14.3026393 L10.5026393,14.0398827 L10.7278592,13.0451613 L9.80821114,12.7824047 L8.88856305,13.0451613 Z M10.5964809,15.7290323 C10.7090909,15.7102639 10.8029326,15.7665689 10.8217009,15.8604106 C10.8592375,15.9542522 10.7841642,16.0668622 10.6903226,16.0856305 L9.8457478,16.3108504 L9.80821114,16.3108504 L9.77067449,16.3108504 L8.92609971,16.0856305 C8.83225806,16.0668622 8.77595308,15.9542522 8.79472141,15.8604106 C8.81348974,15.7665689 8.92609971,15.7102639 9.01994135,15.7290323 L9.80821114,15.9354839 L10.5964809,15.7290323 Z M15.0070381,9.04750733 C14.9882698,8.95366569 15.0445748,8.84105572 15.1008798,8.85982405 C15.1947214,8.84105572 15.3073314,8.8973607 15.3260997,8.99120235 L15.6639296,10.229912 C15.6826979,10.3049853 15.6639296,10.398827 15.5888563,10.4363636 L14.9131965,10.8680352 L15.0445748,12.0504399 C15.0445748,12.1067449 15.0258065,12.1630499 14.9882698,12.2005865 C14.9507331,12.2568915 14.8944282,12.2568915 14.8381232,12.2568915 L14.2750733,12.1630499 L14.1624633,13.6645161 C14.1624633,13.7208211 14.1061584,13.7958944 14.0498534,13.8146628 C14.031085,13.8334311 13.9935484,13.8334311 13.9747801,13.8334311 C13.9372434,13.8334311 13.8997067,13.8334311 13.8621701,13.7958944 L12.8111437,12.913783 C12.7548387,12.857478 12.7360704,12.7824047 12.7548387,12.7073314 L13.3178886,10.9994135 L12.4357771,11.1683284 L12.5483871,11.8815249 C12.5671554,11.9753666 12.4920821,12.0692082 12.3982405,12.0879765 C12.3043988,12.1067449 12.2105572,12.0316716 12.1917889,11.9378299 L12.0416422,11.0369501 C12.0228739,10.9431085 12.0979472,10.8492669 12.1917889,10.8304985 L13.5618768,10.5865103 C13.6181818,10.5677419 13.6932551,10.5865103 13.7307918,10.6428152 C13.7683284,10.6991202 13.7870968,10.7741935 13.7683284,10.8304985 L13.1489736,12.7073314 L13.8246334,13.2703812 L13.9184751,11.9190616 C13.9184751,11.8627566 13.9560117,11.8252199 13.9935484,11.7876833 C14.031085,11.7501466 14.08739,11.7501466 14.143695,11.7501466 L14.6692082,11.8252199 L14.5565982,10.7741935 C14.5565982,10.6991202 14.5941349,10.6240469 14.6504399,10.5865103 L15.3073314,10.1548387 L15.0070381,9.04750733 Z M11.0093842,9.40410557 C11.7788856,8.40938416 11.797654,8.40938416 11.8914956,8.39061584 C11.9290323,8.39061584 13.3741935,8.40938416 13.7683284,8.40938416 L14.256305,7.67741935 C14.31261,7.58357771 14.4252199,7.56480938 14.5190616,7.62111437 C14.6129032,7.67741935 14.6316716,7.79002933 14.5753666,7.88387097 L14.031085,8.70967742 C14.0123167,8.7659824 13.9372434,8.80351906 13.8809384,8.80351906 L13.2428152,8.80351906 L12.7173021,9.98592375 C12.6797654,10.0609971 12.6234604,10.0985337 12.5483871,10.0985337 L12.5108504,10.0985337 L11.1595308,9.8170088 C11.1407625,9.83577713 11.0844575,9.87331378 11.0469208,9.87331378 L11.0281525,9.87331378 C10.9906158,9.87331378 10.9530792,9.85454545 10.9155425,9.83577713 L10.0334311,9.1601173 C9.9771261,9.10381232 9.95835777,9.028739 9.9771261,8.95366569 L10.202346,8.20293255 C10.2211144,8.09032258 10.3337243,8.0340176 10.427566,8.07155425 C10.540176,8.09032258 10.5964809,8.20293255 10.5589443,8.29677419 L10.371261,8.93489736 L10.9718475,9.40410557 L11.0093842,9.40410557 Z M12.4545455,9.6856305 L12.8674487,8.80351906 L12.3231672,8.80351906 C12.3794721,8.85982405 12.4170088,8.93489736 12.4170088,9.00997067 C12.4170088,9.17888563 12.2668622,9.32903226 12.0979472,9.32903226 C11.9290323,9.32903226 11.797654,9.21642229 11.7788856,9.06627566 C11.685044,9.17888563 11.5536657,9.32903226 11.4410557,9.47917889 L12.4545455,9.6856305 Z M9.80821114,9.5542522 C9.92082111,9.5542522 9.99589443,9.64809384 9.99589443,9.74193548 L9.99589443,10.7366569 C9.99589443,10.8492669 9.92082111,10.9243402 9.80821114,10.9243402 C9.69560117,10.9243402 9.62052786,10.8492669 9.62052786,10.7366569 L9.62052786,9.74193548 C9.62052786,9.62932551 9.69560117,9.5542522 9.80821114,9.5542522 Z M5.30381232,6.45747801 C5.20997067,6.41994135 5.17243402,6.30733138 5.19120235,6.23225806 L5.43519062,5.61290323 C5.47272727,5.51906158 5.56656891,5.48152493 5.66041056,5.50029326 L6.39237537,5.68797654 C6.48621701,5.70674487 6.54252199,5.81935484 6.52375367,5.91319648 C6.50498534,6.00703812 6.39237537,6.06334311 6.29853372,6.04457478 L5.73548387,5.89442815 L5.54780059,6.36363636 C5.52903226,6.43870968 5.45395894,6.47624633 5.37888563,6.47624633 C5.34134897,6.47624633 5.32258065,6.45747801 5.30381232,6.45747801 Z M13.3741935,6.04457478 C13.2803519,6.06334311 13.1677419,6.00703812 13.1489736,5.89442815 C13.111437,5.80058651 13.1865103,5.68797654 13.2803519,5.66920821 L14.0123167,5.48152493 C14.1061584,5.4627566 14.2,5.50029326 14.2375367,5.5941349 L14.4815249,6.21348974 C14.5190616,6.30733138 14.4627566,6.41994135 14.368915,6.45747801 C14.3313783,6.47624633 14.31261,6.47624633 14.2938416,6.47624633 C14.2187683,6.47624633 14.1624633,6.43870968 14.1249267,6.36363636 L13.9372434,5.89442815 L13.3741935,6.04457478 Z" id="Sign"></path>
        </g>
    </g>
</svg>