<?xml version="1.0" encoding="UTF-8"?>
<svg width="20px" height="20px" viewBox="0 0 20 20" version="1.1" xmlns="http://www.w3.org/2000/svg" xmlns:xlink="http://www.w3.org/1999/xlink">
    <!-- Generator: sketchtool 49.3 (51167) - http://www.bohemiancoding.com/sketch -->
    <title>D65ADF53-694A-465C-B471-2E4E8E432AD6</title>
    <desc>Created with sketchtool.</desc>
    <defs></defs>
    <g id="Coins" stroke="none" stroke-width="1" fill="none" fill-rule="evenodd">
        <g id="Coins/Dashcoin-DSH" fill="#0099F7">
            <path d="M14.0978328,12.2224149 C13.7460475,12.8782663 13.277936,13.387162 12.6936636,13.7488545 C12.2881321,13.999257 11.8359546,14.180227 11.3371311,14.291517 C10.838225,14.402807 10.1813003,14.458452 9.36643963,14.458452 L7.1244582,14.458452 L7.1244582,9.51942208 L5.92280702,9.51942208 L5.92280702,8.54101135 L7.1244582,8.54101135 L7.1244582,5.57985552 L9.34257998,5.57985552 C10.2091228,5.57985552 10.8978328,5.64251806 11.40871,5.76776058 C11.9194221,5.89292054 12.3517853,6.06489164 12.7055521,6.28350877 C13.3097214,6.66121775 13.780805,7.16400413 14.1187203,7.79211558 C14.4565531,8.42022704 14.6256347,9.16557276 14.6256347,10.0281527 C14.6256347,10.8350877 14.4497007,11.5665635 14.0978328,12.2224149 M10,2 C14.4182456,2 18,5.58175439 18,10 C18,14.4182456 14.4182456,18 10,18 C5.58175439,18 2,14.4182456 2,10 C2,5.58175439 5.58175439,2 10,2 Z M11.9423406,7.12426006 C11.5925366,6.92553973 11.2208545,6.7873354 10.8272941,6.70981218 C10.4338163,6.63237152 9.96265015,6.59356863 9.4141259,6.59356863 L8.30502374,6.59356863 L8.30502374,8.54106089 L10.6166852,8.54106089 L10.6166852,9.51938906 L8.30502374,9.51938906 L8.30502374,13.4447554 L9.4141259,13.4447554 C9.98254696,13.4447554 10.4784809,13.403063 10.9017626,13.3195955 C11.3251269,13.236128 11.7136512,13.0810815 12.0675831,12.8545387 C12.5087802,12.5722683 12.839678,12.2006687 13.0603591,11.7394923 C13.2809577,11.2783983 13.391257,10.7018865 13.391257,10.0102869 C13.391257,9.3146419 13.2699773,8.72822291 13.0275831,8.25119505 C12.7850237,7.77424974 12.4232487,7.39852219 11.9423406,7.12426006 Z" id="Sign"></path>
        </g>
    </g>
</svg>