<?xml version="1.0" encoding="UTF-8"?>
<svg width="20px" height="20px" viewBox="0 0 20 20" version="1.1" xmlns="http://www.w3.org/2000/svg" xmlns:xlink="http://www.w3.org/1999/xlink">
    <!-- Generator: sketchtool 49.3 (51167) - http://www.bohemiancoding.com/sketch -->
    <title>ED7CC6C1-8253-477A-B41A-37F8A1154289</title>
    <desc>Created with sketchtool.</desc>
    <defs></defs>
    <g id="Coins" stroke="none" stroke-width="1" fill="none" fill-rule="evenodd">
        <g id="Coins/Decent-DCT" fill="#0099F7">
            <path d="M7.25325478,12.293409 C6.12005062,12.755474 4.84252716,12.5494654 3.65190887,12.5954748 C3.65094888,10.881243 3.65094888,9.16672323 3.65190887,7.45191546 C4.88278296,7.50951519 6.19581986,7.25751639 7.34837113,7.81063374 C8.24612682,8.23246851 8.74076764,9.14814412 9.13036577,10.0119032 C9.13040417,10.0119864 9.13044257,10.012076 9.13048737,10.0121656 C8.72458852,10.9116877 8.21867735,11.8951325 7.25325478,12.293409 M14.5498598,12.5954876 C13.8183433,12.5879676 13.046187,12.503968 12.42507,12.0829332 C11.6944303,11.6014955 11.3130753,10.7761363 10.9619538,10.00814 C10.9618962,10.0080184 10.961845,10.0078904 10.9617874,10.0077624 C11.2912834,9.34628717 11.6244722,8.6516345 12.209711,8.17591199 C12.830828,7.65391129 13.662504,7.47175537 14.456337,7.45287546 C15.6372145,7.44999547 16.8180857,7.45383545 17.9999232,7.45191546 L18,5.80000019 L14.086342,5.80000019 C13.2018662,5.87455983 12.3069905,6.08696201 11.5592373,6.58327963 C10.9324627,6.97781854 10.4463147,7.55267018 10.0517694,8.17184161 C9.68076313,7.57252288 9.21922295,7.01664715 8.62844818,6.62311944 C7.8751718,6.09919875 6.9573394,5.87199985 6.05333734,5.80000019 L2,5.80000019 L2,5.80040339 L2,14.2483628 L3.65759204,14.2483628 C3.65759204,14.2483436 3.65759204,14.2483244 3.65759204,14.2483052 C4.35580309,14.2465644 5.07836602,14.2511148 5.77598188,14.2473964 C6.80749692,14.2266029 7.86949503,13.9868409 8.71236458,13.3666839 C9.26646112,12.9835305 9.68459031,12.4427331 10.0460798,11.882083 C10.3301296,12.3464904 10.662416,12.7891378 11.0757964,13.1458849 C11.9461091,13.9170812 13.1280234,14.2342829 14.2720179,14.2474796 C15.5145783,14.2503596 16.756806,14.2484396 18,14.2484396 L18,12.5964476 C16.8502455,12.5945276 15.6996142,12.5992508 14.5498598,12.5954876" id="Sign"></path>
        </g>
    </g>
</svg>