<?xml version="1.0" encoding="UTF-8"?>
<svg width="20px" height="20px" viewBox="0 0 20 20" version="1.1" xmlns="http://www.w3.org/2000/svg" xmlns:xlink="http://www.w3.org/1999/xlink">
    <!-- Generator: sketchtool 49.3 (51167) - http://www.bohemiancoding.com/sketch -->
    <title>9227D926-42F7-4D1C-A152-1021A2F7B2A2</title>
    <desc>Created with sketchtool.</desc>
    <defs></defs>
    <g id="Coins" stroke="none" stroke-width="1" fill="none" fill-rule="evenodd">
        <g id="Coins/Decred-DCR" fill="#0099F7">
            <path d="M9.03353763,11.5257083 L12.9919748,11.5257083 C14.4624302,11.5257083 15.6587197,10.3291061 15.6587197,8.85849428 C15.6587197,7.38788247 14.4624302,6.19143662 12.9919748,6.19143662 L11.7309365,6.19143662 L9.03353763,3.8499999 L12.9919748,3.8499999 C15.7577197,3.8499999 18,6.09259299 18,8.85833788 C18,10.9567319 16.7092461,12.7535902 14.8786057,13.498671 L17.9996872,16.2081126 L14.428179,16.2081126 L9.03353763,11.5257083 Z M10.966306,8.53318613 L7.00818158,8.53318613 C5.53803896,8.53318613 4.34128031,9.72931918 4.34128031,11.199931 C4.34128031,12.6703864 5.53788256,13.8669887 7.00818158,13.8669887 L8.26921987,13.8669887 L10.9664624,16.208269 L7.00818158,16.208269 C4.24228029,16.208269 2,13.9659887 2,11.199931 C2,9.1016934 3.29075394,7.30452225 5.12139429,6.55944147 L2.0003128,3.8499999 L5.57182096,3.8499999 L10.966306,8.53318613 Z" id="Sign"></path>
        </g>
    </g>
</svg>