<?xml version="1.0" encoding="UTF-8"?>
<svg width="20px" height="20px" viewBox="0 0 20 20" version="1.1" xmlns="http://www.w3.org/2000/svg" xmlns:xlink="http://www.w3.org/1999/xlink">
    <!-- Generator: sketchtool 49.3 (51167) - http://www.bohemiancoding.com/sketch -->
    <title>D2A9FE98-4F2A-4A3B-893B-B6A0C8681F5E</title>
    <desc>Created with sketchtool.</desc>
    <defs></defs>
    <g id="Coins" stroke="none" stroke-width="1" fill="none" fill-rule="evenodd">
        <g id="Coins/Dentacoin-DCN" fill="#0099F7">
            <path d="M10.1397405,10.7226378 C10.8224432,12.8280432 11.5192,14.9291243 12.2408216,17.0220973 C12.3029838,17.2112865 12.4019027,17.391827 12.4143351,17.5939892 C11.6775784,17.7793946 10.9294703,17.9620973 10.1646054,17.9653405 C9.13433514,17.9599351 8.08082162,17.8502054 7.12676757,17.4388541 C7.23811892,17.1048 7.39325405,16.7880432 7.5164973,16.457773 C8.31703784,14.4404757 8.95217297,12.3637189 9.70136216,10.3275027 C9.75379459,10.2291243 9.79363243,10.093827 9.85217297,9.99020541 C9.96514595,10.2096649 10.0570378,10.4907459 10.1397405,10.7226378 Z M16.4148919,5.40644324 C17.3484054,6.69995676 17.8532703,8.27833514 17.9024595,9.86860541 C17.9024595,11.5756324 17.3970541,13.2983351 16.3808378,14.6804973 C16.0846216,15.0648216 15.790027,15.4594162 15.4208378,15.7772541 C14.8494865,15.0021189 14.3527297,14.1734703 13.8851622,13.3323892 C13.3446216,12.2907676 12.7986757,11.2491459 12.3554324,10.1621189 C11.4213784,7.78374054 10.7262432,5.31995676 10.083,2.84914595 C10.0343514,2.67779459 10.0008378,2.49941622 9.91056757,2.34374054 C9.71759459,2.90157838 9.56840541,3.47347027 9.4002973,4.03941622 C8.85921622,5.83887568 8.28894595,7.63130811 7.64137838,9.39563243 C6.88083784,11.3653622 5.89975676,13.2448216 4.79543243,15.0426595 C4.66191892,15.2637405 4.52678378,15.4848216 4.37651351,15.6956324 C3.19489189,14.5194162 2.36354054,12.9799568 2.11056757,11.3248216 C1.90516216,10.1734703 1.99489189,8.98157838 2.3057027,7.85725405 C2.73272973,6.31130811 3.64678378,4.90482162 4.88786486,3.88860541 C6.27056757,2.7459027 8.04354054,2.08482162 9.83813514,2.05509189 C10.455973,2.0432 11.0711081,2.13509189 11.6754324,2.25671351 C13.5705676,2.67833514 15.2932703,3.82157838 16.4148919,5.40644324 Z" id="Sign"></path>
        </g>
    </g>
</svg>