<?xml version="1.0" encoding="UTF-8"?>
<svg width="20px" height="20px" viewBox="0 0 20 20" version="1.1" xmlns="http://www.w3.org/2000/svg" xmlns:xlink="http://www.w3.org/1999/xlink">
    <!-- Generator: sketchtool 49.3 (51167) - http://www.bohemiancoding.com/sketch -->
    <title>0F5EED59-1F91-4815-AC3E-3FF7EA922ACA</title>
    <desc>Created with sketchtool.</desc>
    <defs></defs>
    <g id="Coins" stroke="none" stroke-width="1" fill="none" fill-rule="evenodd">
        <g id="Coins/DigitalNote-XDN" fill="#0099F7">
            <path d="M1.00414174,7.0207087 L2.54072711,7.0207087 C2.54901058,7.54256788 2.54072711,8.06442706 2.54486884,8.58628624 C2.03129314,8.58628624 1.5135757,8.57800276 1,8.58628624 C1.00414174,8.06442706 1,7.54256788 1.00414174,7.0207087 Z M3.3359411,7.0207087 C3.84537506,7.0207087 4.35480902,7.01656696 4.86424298,7.0207087 L4.86424298,8.58628624 C4.35895076,8.57800276 3.85365854,8.57386102 3.34422457,8.59042798 C3.32765762,8.0685688 3.34422457,7.54256788 3.3359411,7.0207087 Z M5.60561436,7.01242522 C6.09848136,7.02485044 6.59134837,7.0207087 7.08835711,7.01656696 C7.08421537,7.53842614 7.08421537,8.06028532 7.08835711,8.57800276 C6.59549011,8.58628624 6.09848136,8.57800276 5.60561436,8.58628624 L5.60561436,7.01242522 Z M7.75103543,7.01242522 C8.56695812,7.0207087 9.38702255,7.01242522 10.207087,7.01656696 C11.0271514,7.0207087 11.8637828,7.36861482 12.3980672,8.00230097 C12.8660838,8.5614358 13.069029,9.30280718 13.069029,10.0234699 C13.0814542,10.7192821 12.9075012,11.4316613 12.4850437,11.9949379 C11.9631845,12.7031753 11.080994,13.0759319 10.2153705,13.1049241 C9.39116429,13.1173493 8.57109986,13.1049241 7.75103543,13.1049241 C7.75103543,11.0754717 7.75517717,9.04187759 7.75103543,7.01242522 Z M9.1509434,8.25494708 C9.15922688,9.46433502 9.14680166,10.6695812 9.15922688,11.8789692 C9.73492867,11.8541187 10.3851818,11.9907961 10.8987575,11.6470318 C11.4868845,11.2784169 11.6815462,10.5246203 11.6359871,9.86608376 C11.6111367,9.29038196 11.3377819,8.68568799 10.8076392,8.41647492 C10.2982052,8.15140359 9.70179475,8.25494708 9.1509434,8.25494708 Z M13.9387943,7.00414174 L14.2825587,7.00414174 C15.7114588,8.78508974 17.1155085,10.5908882 18.5609756,12.359411 C18.5734008,10.5701795 18.5609756,8.78508974 18.5651173,7 C18.7100782,7 18.8550391,7.00414174 19,7.00828348 C18.9958583,9.04187759 18.9958583,11.07133 19,13.1007823 L18.5982513,13.1007823 C17.1859181,11.3488265 15.7942936,9.57202025 14.3778187,7.82420617 L14.3778187,13.1007823 L13.9346526,13.1007823 C13.9387943,11.0671882 13.9387943,9.03773585 13.9387943,7.00414174 Z M3.3359411,9.28624022 L4.86838472,9.28624022 C4.86424298,9.79981592 4.86838472,10.3175334 4.86838472,10.8311091 L3.34008283,10.8311091 C3.3359411,10.3175334 3.34008283,9.79981592 3.3359411,9.28624022 Z M5.60561436,9.29038196 C6.09848136,9.28624022 6.59134837,9.28209848 7.08835711,9.29038196 C7.07593189,9.80395766 7.09249885,10.3175334 7.08007363,10.8352508 L5.6097561,10.8352508 C5.60561436,10.3175334 5.6097561,9.80395766 5.60561436,9.29038196 Z M5.6097561,11.531063 C6.1026231,11.5434883 6.59134837,11.531063 7.08421537,11.5393465 C7.08835711,12.057064 7.07593189,12.5789231 7.08835711,13.1007823 C6.59549011,13.1007823 6.09848136,13.1049241 5.60561436,13.1007823 C5.6097561,12.5789231 5.60561436,12.057064 5.6097561,11.531063 Z" id="Sign"></path>
        </g>
    </g>
</svg>