<?xml version="1.0" encoding="UTF-8"?>
<svg width="20px" height="20px" viewBox="0 0 20 20" version="1.1" xmlns="http://www.w3.org/2000/svg" xmlns:xlink="http://www.w3.org/1999/xlink">
    <!-- Generator: sketchtool 49.3 (51167) - http://www.bohemiancoding.com/sketch -->
    <title>C9AD2A51-8A61-46E0-8190-55163710DEEA</title>
    <desc>Created with sketchtool.</desc>
    <defs></defs>
    <g id="Coins" stroke="none" stroke-width="1" fill="none" fill-rule="evenodd">
        <g id="Coins/DigiByte-DGB" fill="#0099F7">
            <path d="M11.3854141,3.02797183 C11.2441861,3.43878106 11.1161982,3.85184748 10.9727634,4.26039952 C11.7870313,4.47257571 11.8002714,3.5290688 12.0584539,3.00088551 C12.6079192,2.99862831 13.1595912,3.00088551 13.7112631,3.0053999 C13.6009288,3.43200948 13.4619074,3.84733309 13.3096459,4.25814232 C14.5917316,4.43871781 16.0613858,4.86532739 16.7123587,6.1248414 C17.3831918,7.5649309 16.7586992,9.19462465 16.0834527,10.5060541 C14.7461998,13.3162601 11.9172259,15.0229242 9.01101788,15.6637414 C8.90362574,15.9556718 8.73481131,16.4010913 8.50457458,17 L6.79108984,17 C6.96174037,16.5365229 7.08899271,16.1881627 7.17284685,15.9549194 C6.68001988,15.8571077 6.31291635,16.2054679 6.07153625,17 L4.4431739,16.9954856 L4.76755702,16.1287233 L3.02898865,16.1287233 L6.35687256,7.81773658 L9.31774751,7.81773658 C9.40891063,7.81773658 9.45557454,7.86923308 9.45773926,7.97222609 C8.83103989,9.82312481 8.04890195,11.7951374 7.38910227,13.6345244 C10.2754501,13.6661251 12.9940896,11.3502445 13.3736399,8.41137848 C13.5501749,7.3888698 12.5792322,6.56950853 11.6369765,6.62142399 C8.75945546,6.60110924 5.87972773,6.62142399 3,6.61239521 C3.30305181,6.10678385 3.76406458,5.32278529 4.38303833,4.26039952 L9.24713349,4.22654161 C9.45014878,3.68331036 9.60241025,3.27551073 9.70391789,3.0031427 C10.2644166,2.99637112 10.8249154,3.00088551 11.3854141,3.02797183 Z" id="Sign"></path>
        </g>
    </g>
</svg>