<?xml version="1.0" encoding="UTF-8"?>
<svg width="20px" height="20px" viewBox="0 0 20 20" version="1.1" xmlns="http://www.w3.org/2000/svg" xmlns:xlink="http://www.w3.org/1999/xlink">
    <!-- Generator: sketchtool 49.3 (51167) - http://www.bohemiancoding.com/sketch -->
    <title>B0DDE1EF-6E81-498D-93F1-F5D90665A8DF</title>
    <desc>Created with sketchtool.</desc>
    <defs></defs>
    <g id="Coins" stroke="none" stroke-width="1" fill="none" fill-rule="evenodd">
        <g id="Coins/DigixDAO-DGD" fill="#0099F7">
            <path d="M10.0000012,2 C14.4200752,2 18.007036,5.57983768 17.9999896,9.99998842 C17.9999896,14.420152 14.4201584,17.9999832 10.0000012,17.9999832 C5.57984408,17.9999832 2,14.420152 2,9.99998842 C2,5.57983768 5.57984408,2 10.0000012,2 Z M12.2523966,14.7448685 C13.487999,14.7448685 14.4978351,13.7070324 14.4978351,12.45015 C14.4978351,11.193274 13.488159,10.1553483 12.2524798,10.1553483 L5.88351748,10.1553483 L5.88351748,14.7449517 L12.2523966,14.7449517 L12.2523966,14.7448685 Z M12.075918,11.1439909 C12.8032007,11.1367909 13.3891971,11.7157473 13.4032771,12.44319 C13.4032771,13.1634328 12.7819207,13.7565524 12.0687948,13.7565524 L6.94264128,13.7565524 L6.94264128,11.1439909 L12.075918,11.1439909 Z M5.81288073,7.11911348 L5.81288073,9.37863202 L9.69600141,9.37863202 L9.69600141,5.56575129 L8.84903876,5.56575129 L8.84903876,7.11919668 L5.81288073,7.11919668 L5.81288073,7.11911348 Z M6.58960023,8.60207252 L6.58960023,7.89599298 L8.77847561,7.89599298 L8.77847561,8.60207252 L6.58960023,8.60207252 Z M5.88351748,5.63639444 L5.88351748,6.55423065 L8.28416233,6.55423065 L8.28416233,5.63639444 L5.88351748,5.63639444 Z M10.2612746,5.56575129 L10.2612746,9.37863202 L14.1447153,9.37863202 L14.1447153,7.11911348 L11.7439937,7.11911348 L11.7439937,7.89599618 L13.2974391,7.89599618 L13.2974391,8.60191572 L11.1085573,8.60191572 L11.1085573,6.34247399 L14.0741554,6.34247399 L14.0741554,5.56575129 L10.2612746,5.56575129 Z" id="Sign"></path>
        </g>
    </g>
</svg>