<?xml version="1.0" encoding="UTF-8"?>
<svg width="20px" height="20px" viewBox="0 0 20 20" version="1.1" xmlns="http://www.w3.org/2000/svg" xmlns:xlink="http://www.w3.org/1999/xlink">
    <!-- Generator: sketchtool 49.3 (51167) - http://www.bohemiancoding.com/sketch -->
    <title>E44729C0-4AFF-403D-AC4F-4116B27B645D</title>
    <desc>Created with sketchtool.</desc>
    <defs></defs>
    <g id="Coins" stroke="none" stroke-width="1" fill="none" fill-rule="evenodd">
        <g id="Coins/district0x-DNT" fill="#0099F7">
            <path d="M6.4579098,14.1804763 C7.52182415,14.986851 9.15235577,14.8405251 10.065574,13.8715493 C10.874812,13.0683392 11.1008561,11.7423643 10.5779407,10.7251658 C10.1273594,9.75603926 9.06796596,9.11723856 8.00103769,9.15928277 C6.82108736,9.17450307 5.71799203,10.0304568 5.40906505,11.1680616 C5.07451975,12.2622658 5.5190732,13.5296199 6.4579098,14.1804763 Z M12.069832,1.00225446 C12.6515188,1.0082823 13.1638855,1.53406094 13.1518298,2.11725478 C13.1528345,3.16409024 13.1533368,4.73439366 13.1533368,6.82816505 C13.5342033,6.82816505 13.8150003,6.82816505 13.9957279,6.82816505 C14.7882758,6.82816505 15.3670623,7.22283809 15.3987084,7.919054 C15.4288477,8.47075236 15.0204613,8.99954492 14.4732838,9.08996257 C14.0349089,9.12763659 13.5933694,9.09162023 13.1533368,9.10955306 C13.1523322,10.3633445 13.1527842,12.2445339 13.1546931,14.7531214 C13.5285198,14.7552311 13.8088648,14.756286 13.9957279,14.756286 C14.8938531,14.7531214 15.3987084,15.1317274 15.3987084,15.8171864 C15.3987084,16.4817708 14.925372,17.0016577 14.3136966,16.9971368 C12.1044921,17.0031646 9.89528746,16.9956298 7.68608288,17 C6.52120215,16.885471 5.39248848,16.3868176 4.54406953,15.574415 C3.60975382,14.6687316 3.03409478,13.3968566 3.00395556,12.0919793 C2.93764928,10.4808874 3.70921323,8.87145325 4.99766475,7.90699831 C5.72854075,7.33284623 6.62668941,7.02391926 7.53387983,6.86719534 C8.6550587,6.85815357 9.77774452,6.86885299 10.8989234,6.86282515 C10.9034443,5.28940734 10.8974164,3.71779788 10.9019373,2.14453077 C10.874812,1.52049829 11.4474571,0.959908857 12.069832,1.00225446 Z" id="Sign"></path>
        </g>
    </g>
</svg>