<?xml version="1.0" encoding="UTF-8"?>
<svg width="20px" height="20px" viewBox="0 0 20 20" version="1.1" xmlns="http://www.w3.org/2000/svg" xmlns:xlink="http://www.w3.org/1999/xlink">
    <!-- Generator: sketchtool 49.3 (51167) - http://www.bohemiancoding.com/sketch -->
    <title>72DE405D-45EE-42E7-A863-61C26E223527</title>
    <desc>Created with sketchtool.</desc>
    <defs></defs>
    <g id="Coins" stroke="none" stroke-width="1" fill="none" fill-rule="evenodd">
        <g id="Coins/Dogecoin-DOGE" fill="#0099F7">
            <path d="M12.9021385,13.4366091 C11.8917678,14.3480933 9.9584219,14.3164665 7.68582587,14.2029263 L7.68582587,11.2849328 L10.2469637,11.2849328 L10.2469637,8.75320792 L7.68582587,8.75320792 L7.68582587,5.74581603 C9.87619223,5.71513804 11.9497503,5.83742831 13.0131486,6.88121795 C13.688486,7.54401014 14.0119227,8.62585736 14.0018021,10.1881156 C13.9172532,11.7826331 13.5575511,12.8452934 12.9021385,13.4366091 M14.9330004,4.92488987 C12.8234932,2.8545999 9.49582732,2.94716099 6.27716844,3.03687566 L4.94483702,3.07398443 L4.94483702,8.75320792 L3,8.75320792 L3,11.2849328 L4.94483702,11.2849328 L4.94483702,16.8117152 L6.24975856,16.8741254 C6.50561932,16.8864598 6.75926621,16.8996376 7.01038296,16.9128155 C7.8535533,16.9567767 8.68333497,17 9.48380914,17 C11.5127734,17 13.3525041,16.7217896 14.7381793,15.4717933 C15.965299,14.3647501 16.6203953,12.6724003 16.7406826,10.2982823 L16.7423693,10.241354 C16.7638755,7.87999212 16.1720328,6.14094012 14.9330004,4.92488987" id="Sign"></path>
        </g>
    </g>
</svg>