<?xml version="1.0" encoding="UTF-8"?>
<svg width="20px" height="20px" viewBox="0 0 20 20" version="1.1" xmlns="http://www.w3.org/2000/svg" xmlns:xlink="http://www.w3.org/1999/xlink">
    <!-- Generator: sketchtool 49.3 (51167) - http://www.bohemiancoding.com/sketch -->
    <title>BC9486E5-3410-4952-A596-1860525BD444</title>
    <desc>Created with sketchtool.</desc>
    <defs></defs>
    <g id="Coins" stroke="none" stroke-width="1" fill="none" fill-rule="evenodd">
        <g id="Coins/Dollar-USD" fill="#0099F7">
            <path d="M10.7957413,16.7839117 L10.7957413,18.285489 C10.7957413,18.3927445 10.6884858,18.5 10.5812303,18.5 L9.3477918,18.5 C9.24053628,18.5 9.13328076,18.3927445 9.13328076,18.285489 L9.13328076,16.7839117 C7.14905363,16.5694006 5.91561514,15.4968454 5.54022082,15.1750789 C5.48659306,15.1214511 5.48659306,15.0141956 5.54022082,14.9069401 L6.61277603,13.4053628 C6.66640379,13.2981073 6.82728707,13.2981073 6.88091483,13.351735 C7.30993691,13.7271293 8.54337539,14.6388013 10.0449527,14.6388013 C11.0638801,14.6388013 11.9755521,14.1025237 11.9755521,13.0299685 C11.9755521,10.7776025 5.7011041,10.9921136 5.7011041,7.02365931 C5.7011041,5.09305994 7.14905363,3.59148265 9.18690852,3.26971609 L9.18690852,1.71451104 C9.18690852,1.60725552 9.29416404,1.5 9.40141956,1.5 L10.634858,1.5 C10.7421136,1.5 10.8493691,1.60725552 10.8493691,1.71451104 L10.8493691,3.21608833 C12.6190852,3.37697161 13.6916404,4.18138801 14.0134069,4.44952681 C14.0670347,4.50315457 14.1206625,4.61041009 14.0670347,4.66403785 L13.2089905,6.27287066 C13.1553628,6.38012618 12.9944795,6.43375394 12.9408517,6.32649842 C12.5654574,6.00473186 11.4929022,5.30757098 10.205836,5.30757098 C9.079653,5.30757098 8.22160883,5.9511041 8.22160883,6.91640379 C8.22160883,9.11514196 14.4960568,8.73974763 14.4960568,12.9227129 C14.3888013,14.8533123 13.0481073,16.4621451 10.7957413,16.7839117" id="Sign"></path>
        </g>
    </g>
</svg>