<?xml version="1.0" encoding="UTF-8"?>
<svg width="20px" height="20px" viewBox="0 0 20 20" version="1.1" xmlns="http://www.w3.org/2000/svg" xmlns:xlink="http://www.w3.org/1999/xlink">
    <!-- Generator: sketchtool 49.3 (51167) - http://www.bohemiancoding.com/sketch -->
    <title>2726A28B-5D1F-44D9-AE91-BFCF6188527F</title>
    <desc>Created with sketchtool.</desc>
    <defs></defs>
    <g id="Coins" stroke="none" stroke-width="1" fill="none" fill-rule="evenodd">
        <g id="Coins/DRP-Utility-DRPU" fill="#0099F7">
            <path d="M13.1911066,13.7118792 C13.1026342,13.4829027 12.9874215,13.2608869 12.8443033,13.0505876 C12.1012164,11.9587446 11.3615625,10.8645708 10.6201449,9.77162548 C10.4480188,9.5178301 10.2748849,9.26475912 10.0934045,8.99842829 C9.89781385,9.27808196 9.70937282,9.54000333 9.52880581,9.80721605 C9.15620722,10.3585549 8.78934092,10.9137992 8.41721477,11.4654845 C8.06225398,11.991721 7.70187587,12.5143354 7.34688359,13.0405718 C7.10741891,13.3956901 6.9469779,13.7676587 6.85910384,14.155092 C6.85903736,14.1550432 6.85897088,14.1549943 6.85890441,14.1549455 C6.76143766,14.5857819 6.75343765,15.0354829 6.82679202,15.5021603 C7.06502834,16.6301293 7.71781603,17.4306966 8.75803697,17.9305393 C8.71630466,17.9878937 8.66802118,17.9647441 8.62874557,17.9542559 C7.39504424,17.6247754 6.37397292,16.9660665 5.5689017,15.974003 C5.56269697,15.966381 5.56118516,15.9549164 5.55753161,15.9451841 C5.32767324,15.7120502 5.16553144,15.4313886 5.00729515,15.1494357 C4.64383042,14.5018764 4.42250749,13.8064745 4.32543658,13.0708836 C4.28650743,12.7758599 4.4673579,12.562159 4.77538954,12.5562377 C5.00228727,12.5518598 5.22975194,12.54997 5.45661818,12.5570251 C5.45666199,12.5571048 5.4567058,12.5571845 5.45674961,12.5572641 C5.45675734,12.5571568 5.45671768,12.5570847 5.45667803,12.5570125 C5.51796939,12.5588708 5.57932375,12.561107 5.64055212,12.5645086 C5.85819001,12.5766031 6.11088304,12.3785873 6.10631611,12.1229966 C6.10061532,11.8030909 6.10417438,11.4829963 6.10470981,11.1629962 C6.10521375,10.8247913 6.26540279,10.6630589 6.60663129,10.6604763 C6.91611174,10.6581771 7.22565519,10.6616731 7.53513564,10.6595629 C7.83907278,10.6574526 7.99645868,10.4975471 7.99834844,10.1908383 C8.0003012,9.88129482 7.99910435,9.57178288 8.00042718,9.26227093 C8.00178151,8.93597157 8.16464773,8.77153055 8.4932148,8.76888488 C8.8079236,8.7663337 9.12272689,8.77005024 9.43746719,8.76756205 C9.73545157,8.76516835 9.89409731,8.60545174 9.89526267,8.310365 C9.89645952,8.0060814 9.88751463,7.70148284 9.89888471,7.39767168 C9.90666425,7.19001804 9.84811304,7.0281597 9.66682162,6.91867934 C9.57740426,6.88488405 9.48512075,6.87467932 9.38949866,6.87537223 C9.07513632,6.87770294 8.76067949,6.87839586 8.44638014,6.87540373 C8.18552963,6.87294704 8.00738782,6.70375011 8.00304136,6.44680512 C7.99828545,6.16935617 7.99494686,5.37411173 7.99494686,5.11732421 C8.58732508,4.27836321 9.40502623,3.00740202 9.98064853,2.15662999 C10.0123021,2.10985832 10.0461604,2.06456696 10.0922706,2 C10.1943179,2.14655125 10.2877668,2.27672453 10.3770897,2.40966947 C10.98446,3.31373286 11.5891847,4.21959153 12.1984448,5.12239508 C12.5500985,5.64343468 13.344965,6.77537219 13.3567445,6.8403171 C13.3548547,6.84015962 13.3532799,6.8395612 13.3513902,6.83934072 C13.3513902,6.83934072 13.3514217,6.83934072 13.3514217,6.83934072 C13.3532799,6.83959269 13.3548547,6.84015962 13.3567445,6.8403171 C13.3617209,6.84718325 13.3666028,6.85411238 13.3715477,6.86097853 C13.3716107,6.86104152 13.3717051,6.86113601 13.3717681,6.861199 C13.4301934,6.94157699 13.4877052,7.0225849 13.5449336,7.10378178 C13.6588864,7.26535666 13.7708234,7.42831736 13.8817526,7.59197098 C13.9771227,7.73263246 14.0719889,7.8736089 14.1666346,8.01474282 C14.3339701,8.26438387 14.5013403,8.51399028 14.6726475,8.76085653 C14.8601121,9.03096689 15.0527106,9.29685677 15.2089941,9.58718761 C16.4810262,11.9504957 15.9803331,14.9115364 13.8971196,16.7115372 C13.1850877,17.3267501 12.372363,17.7444826 11.4585988,17.9667819 C11.4233547,17.9753803 11.3872917,17.9805142 11.3197326,17.9932071 C11.4911342,17.9035692 11.6348508,17.8308763 11.7761422,17.7538054 C11.9192604,17.6756951 12.0498431,17.5790337 12.1774967,17.4775218 C13.3177177,16.5708757 13.6986313,15.0257727 13.191072,13.7119453 Z M12.5019315,16.7146364 C11.350183,18.1142906 9.7492689,18.0964008 8.69301646,17.5299439 C7.46885844,16.8733137 6.94479522,15.5289666 7.14432287,14.461785 C9.18769385,15.5490611 11.1285136,15.3951398 12.991664,13.9751077 C13.0813019,14.3390133 13.1574279,14.7021631 13.1276326,15.080683 C13.0799475,15.6868564 12.8892388,16.2439276 12.5019315,16.7146364 Z M5.14009206,10.6636983 C4.93026519,10.6636353 4.72040683,10.6658086 4.51064296,10.6630369 C4.3007846,10.6602338 4.20339873,10.5637298 4.20217038,10.3520131 C4.19971369,9.93235941 4.20015464,9.51270568 4.20276881,9.09308345 C4.20412314,8.87475265 4.30513106,8.77053213 4.51842249,8.76908331 C4.94333607,8.76618567 5.36818665,8.76637465 5.79306873,8.76867386 C6.0011948,8.76980772 6.10528934,8.87239044 6.10642319,9.07711494 C6.10897438,9.50722537 6.10932083,9.93739879 6.10695863,10.3674777 C6.10595075,10.5592888 6.00727354,10.6594149 5.81665929,10.6628479 C5.59121037,10.6669109 5.36557247,10.6637928 5.14009206,10.6636983 Z M6.18970512,8.51090682 C6.18110669,8.22832401 6.18098071,7.31714251 6.18853977,7.14526842 C6.19594134,6.97689039 6.30507525,6.87900058 6.47713832,6.87770924 C6.91720151,6.87437066 7.35729619,6.87367775 7.79735938,6.87777224 C8.00095002,6.879662 8.09380045,6.99783528 8.08324927,7.22104798 C8.08580045,7.64605604 8.09219415,8.0710956 8.08904454,8.49604067 C8.0877532,8.66552106 7.9786193,8.7671589 7.80737513,8.76838725 C7.3612017,8.77153685 6.91499678,8.77134788 6.46882336,8.76816677 C6.30208312,8.76700142 6.1946815,8.67550531 6.18970512,8.51090682 Z M5.03164162,6.83713915 C4.87293289,6.83534387 4.79205096,6.7524147 4.79038167,6.5910603 C4.78723206,6.28687119 4.78713757,5.98261908 4.79050765,5.67846147 C4.79214545,5.5273118 4.87176753,5.45087082 5.02685421,5.44693381 C5.18408263,5.4429653 5.34150002,5.44608341 5.49885442,5.44595743 C5.64568913,5.44583145 5.79258684,5.44368971 5.93942155,5.44639837 C6.10383107,5.44945349 6.18594134,5.51795746 6.1902563,5.68280793 C6.19822481,5.99206791 6.19759489,6.30176883 6.19019331,6.61102881 C6.18657126,6.76145407 6.09913815,6.83565883 5.94424045,6.83720214 C5.63998834,6.84019427 5.33576774,6.84050923 5.03164162,6.83713915 Z M4.53723825,7.7623679 C4.53739573,7.89279316 4.4646083,7.95685618 4.34240352,7.95959634 C4.12775775,7.96444673 3.91286002,7.96457272 3.69821426,7.95975382 C3.56678113,7.95679319 3.49890708,7.88422622 3.50016692,7.74841514 C3.50202519,7.54416308 3.50136378,7.33984803 3.50000944,7.13556448 C3.49906456,6.99150142 3.56901735,6.92397383 3.71245048,6.92696596 C3.81720643,6.92917068 3.92199388,6.9274069 4.02674983,6.9274699 C4.13153728,6.92750139 4.23629323,6.9282573 4.34104919,6.92731242 C4.47005712,6.92617856 4.53635636,6.98945417 4.53698628,7.11808415 C4.53796266,7.33282441 4.53698628,7.54762765 4.53723825,7.7623679 Z" id="Sign"></path>
        </g>
    </g>
</svg>