<?xml version="1.0" encoding="UTF-8"?>
<svg width="20px" height="20px" viewBox="0 0 20 20" version="1.1" xmlns="http://www.w3.org/2000/svg" xmlns:xlink="http://www.w3.org/1999/xlink">
    <!-- Generator: sketchtool 49.3 (51167) - http://www.bohemiancoding.com/sketch -->
    <title>C484502F-E117-414D-BB9D-2015B772FE03</title>
    <desc>Created with sketchtool.</desc>
    <defs></defs>
    <g id="Coins" stroke="none" stroke-width="1" fill="none" fill-rule="evenodd">
        <g id="Coins/Edgeless-EDG" fill="#0099F7">
            <path d="M16.7391716,12.2467245 C16.7349703,13.2776021 16.190205,14.2307149 15.3041478,14.7576042 L11.5666606,16.9546239 C10.6550663,17.4900805 9.52500565,17.4900805 8.61341134,16.9546239 L4.8759241,14.758428 C3.98953744,14.2313739 3.44485448,13.2779316 3.44090034,12.2467245 L3.44090034,7.74888886 C3.44526637,6.71825843 3.98994933,5.76547515 4.8759241,5.23883296 L8.61341134,3.04098946 C9.52360522,2.50141394 10.6556429,2.50141394 11.5658368,3.04098946 L15.303324,5.23883296 C16.1888869,5.76580466 16.7335699,6.71834081 16.7383478,7.74888886 L16.7391716,12.2467245 Z M15.6287169,4.68360563 C16.7097626,5.32590645 17.3747998,6.48809446 17.3808957,7.74559375 L17.3808957,12.2467245 C17.373976,13.5050476 16.7068794,14.667318 15.6237742,15.3078888 L11.886287,17.5057323 C11.3417688,17.8281596 10.7208039,17.9988467 10.0879765,18 C9.45490202,17.9990115 8.83360758,17.8283244 8.28884225,17.5057323 L4.55135501,15.3078888 C3.47047402,14.6658352 2.80568403,13.5038943 2.79999995,12.2467245 L2.79999995,7.7472413 C2.80560165,6.48965964 3.47039165,5.32714212 4.55135501,4.68442941 L8.28884225,2.48988103 C9.40077971,1.83670632 10.7792922,1.83670632 11.8912297,2.48988103 L15.6287169,4.68360563 Z M10.2246537,9.41828688 C11.1618689,9.90787698 12.6744816,8.67900582 11.6485186,7.51182302 C11.0567369,6.86487865 10.5371238,6.15507092 10.0988464,5.39483541 L10.0881187,5.37427263 C10.0849003,5.38132272 10.0813894,5.38817699 10.0773909,5.39483541 C9.63911358,6.15536468 9.11979298,6.86585783 8.52869397,7.51378138 C7.49785476,8.67900582 9.03679921,9.90787698 9.97206392,9.41828688 L9.41422094,10.560011 L10.0871434,11.1945198 L10.7610411,10.560011 L10.2246537,9.41828688 Z M12.3311936,10.690242 C12.0826999,10.690144 11.8368394,10.7421385 11.6095086,10.8429941 L11.2301364,11.0701639 L10.0920197,12.0669693 L9.01144271,11.1152062 L8.63207047,10.8713903 L8.57940697,10.8429941 C8.35188116,10.7417468 8.10563054,10.6896545 7.85674675,10.690242 C6.82590754,10.690242 5.98719257,11.5783584 5.98719257,12.6544775 C5.98719257,13.7305965 6.82298179,14.6196921 7.85674675,14.6196921 C7.95934305,14.6196921 8.06184182,14.6108795 8.16297524,14.5932543 C8.30623946,14.5671102 8.44599278,14.5244179 8.57940697,14.4659608 L8.95780396,14.238791 L9.46395869,13.7952224 C9.51642714,13.7494947 9.52218111,13.6697894 9.47663694,13.6170116 L9.03192296,13.1695262 C8.98306293,13.1245819 8.90816374,13.1245819 8.85930371,13.1695262 L8.46920373,13.5122393 L8.20198524,13.6698873 C8.14151974,13.694171 8.07881117,13.7121879 8.01473724,13.7237422 C7.9638292,13.7327507 7.912336,13.7372549 7.86064775,13.7374508 C7.31743352,13.7374508 6.87564529,13.2537357 6.87564529,12.6603525 C6.87564529,12.0669693 7.31743352,11.5832543 7.86064775,11.5832543 C7.97767775,11.5840377 8.09343992,11.6069505 8.20198524,11.6508177 L8.46530273,11.8133617 L9.42299819,12.6534983 L10.0929949,13.2410064 L11.1745471,14.1947279 L11.5539194,14.4385438 L11.6065829,14.4659608 C11.8336211,14.5679914 12.0795791,14.6203776 12.3282678,14.6196921 C13.3600823,14.6196921 14.197822,13.7315757 14.197822,12.6544775 C14.197822,11.5773792 13.3571565,10.690242 12.3311936,10.690242 Z M12.1741783,13.716888 C12.1111772,13.7052357 12.0494439,13.6875126 11.9898561,13.6640123 L11.7265386,13.5014683 L10.7629916,12.6544775 L11.7245881,11.8084658 L11.9918066,11.6488594 C12.0522721,11.6245757 12.1149807,11.6064609 12.1790546,11.5950045 C12.2309379,11.585996 12.2834063,11.5813939 12.3360698,11.581296 C12.8792841,11.581296 13.3210723,12.065011 13.3210723,12.6583942 C13.3210723,13.309549 12.7905363,13.8334104 12.1761288,13.7208047 L12.1741783,13.716888 Z" id="Sign"></path>
        </g>
    </g>
</svg>