<?xml version="1.0" encoding="UTF-8"?>
<svg width="20px" height="20px" viewBox="0 0 20 20" version="1.1" xmlns="http://www.w3.org/2000/svg" xmlns:xlink="http://www.w3.org/1999/xlink">
    <!-- Generator: sketchtool 49.3 (51167) - http://www.bohemiancoding.com/sketch -->
    <title>08BD25AA-41FC-47D7-9BEE-94EB70A57F85</title>
    <desc>Created with sketchtool.</desc>
    <defs></defs>
    <g id="Coins" stroke="none" stroke-width="1" fill="none" fill-rule="evenodd">
        <g id="Coins/EOS" fill="#0099F7">
            <path d="M11.563412,14.8375 C11.5901307,14.6810547 11.6488416,14.5333984 11.6948963,14.3825781 C12.0904041,13.1320703 12.4876698,11.8819141 12.8817713,10.6314062 C12.9770448,10.7597266 13.0466541,10.9038672 13.1264588,11.0416797 C13.8179823,12.2605469 14.5070448,13.4808203 15.1999745,14.6986328 C15.2235291,14.7429297 15.242162,14.7900391 15.2604432,14.8371484 C14.0278651,14.8385547 12.7956385,14.8375 11.563412,14.8375 M14.3752088,15.6573437 C13.2157557,16.3847266 12.0555995,17.1117578 10.8961463,17.8391406 C10.7776698,17.9133203 10.6620057,17.9920703 10.537201,18.055 C10.7980604,17.1701172 11.0916151,16.294375 11.3630213,15.4126562 C11.405912,15.4052734 11.4491541,15.4010547 11.4930995,15.3992969 C12.5129823,15.4007031 13.5328651,15.4007031 14.5527479,15.3996484 C14.6174354,15.3996484 14.6824745,15.4031641 14.7475135,15.4084375 C14.6339588,15.5065234 14.5010682,15.5768359 14.3752088,15.6573437 M10.0179432,17.7698828 C9.85763071,17.3430859 9.73985727,16.9015234 9.59606821,16.46875 C9.48813852,16.1136719 9.36438852,15.7631641 9.26665415,15.4049219 C9.77325571,15.3964844 10.2805604,15.3975391 10.787162,15.4045703 C10.567787,16.1083984 10.3354041,16.8083594 10.1132166,17.5114844 C10.0861463,17.599375 10.0552088,17.6858594 10.0179432,17.7698828 M7.99434946,17.1198438 C7.20895883,16.6280078 6.42427133,16.1351172 5.63888071,15.6429297 C5.52040415,15.5680469 5.39595102,15.5008984 5.28942758,15.4087891 C5.44727915,15.394375 5.60583383,15.4007031 5.76403696,15.4 C6.60778696,15.4 7.45153696,15.4003516 8.29528696,15.4 C8.42114633,15.4007031 8.5480604,15.3908594 8.67286508,15.4123047 C8.94427133,16.2940234 9.23782602,17.1694141 9.4986854,18.0542969 C8.98927133,17.7561719 8.49708383,17.4292188 7.99434946,17.1198438 M7.04126352,10.8198437 C7.07255258,10.7618359 7.10735727,10.7048828 7.15622446,10.6598828 C7.56474008,11.9371094 7.96622446,13.2167969 8.37263071,14.4947266 C8.41130258,14.6117969 8.44891977,14.7292187 8.47950571,14.8491016 C7.24235727,14.8533203 6.00450571,14.8533203 4.76700571,14.84875 C5.51372446,13.4998047 6.28786508,12.1652734 7.04126352,10.8198437 M5.4993104,10.8230078 C5.69653696,9.92265625 5.89270883,9.02195312 6.09063852,8.12160156 C6.12438852,7.9721875 6.1461854,7.81925781 6.19927133,7.67511719 C6.43059946,8.39335937 6.65841196,9.11265625 6.88763071,9.83160156 C6.92313852,9.90050781 6.8718104,9.96519531 6.84192758,10.0249609 C6.20946665,11.1281641 5.5921229,12.2401562 4.95579477,13.34125 C5.12349008,12.4992578 5.32036508,11.6628906 5.4993104,10.8230078 M7.73946665,4.87316406 C8.40532602,3.96753906 9.06099008,3.05347656 9.73317758,2.15207031 C9.74231821,3.02253906 9.73247446,3.89265625 9.73809946,4.763125 C9.7405604,4.84398438 9.7349354,4.92765625 9.68852915,4.99691406 C8.88942758,6.3971875 8.10122446,7.80414062 7.29966196,9.20335938 C7.26591196,9.14957031 7.24270883,9.09015625 7.22513071,9.0296875 C6.97657602,8.22707031 6.70938852,7.43042969 6.46505258,6.62710937 C6.88130258,6.03648437 7.31653696,5.45921875 7.73946665,4.87316406 M10.0179432,5.56433594 C10.8388416,6.98675781 11.6418104,8.42042969 12.4588416,9.8453125 C12.4883729,9.90050781 12.5291541,9.96238281 12.4992713,10.0263672 C11.9916151,11.6273828 11.4843104,13.22875 10.9766541,14.8297656 C10.3448963,14.8476953 9.71208383,14.8336328 9.07997446,14.8367969 C8.5649354,13.2480859 8.07028696,11.6526953 7.56122446,10.0622266 C7.52501352,9.99121094 7.54259165,9.9184375 7.58548227,9.85585937 C8.3989979,8.42675781 9.20020883,6.990625 10.0179432,5.56433594 M10.3027088,2.15207031 C11.3616151,3.58117187 12.4011854,5.02503906 13.4555213,6.45765625 C13.495951,6.5125 13.5335682,6.56980469 13.5708338,6.62710937 C13.3039979,7.496875 13.0230995,8.36277344 12.7481776,9.23007812 C12.3927479,8.63453125 12.0636854,8.02316406 11.718451,7.42128906 C11.2575526,6.60566406 10.7966541,5.7896875 10.3354041,4.9740625 C10.2893495,4.89988281 10.2995448,4.81023437 10.297787,4.72691406 C10.303412,3.86875 10.2932166,3.01023437 10.3027088,2.15207031 M13.8766932,7.79078125 C14.1410682,9.00332031 14.407201,10.2151562 14.671576,11.4276953 C14.8048182,12.0562891 14.9556385,12.6813672 15.076576,13.3120703 C14.8557948,12.9633203 14.6670057,12.5948828 14.4585291,12.2383984 C14.0261073,11.4755078 13.5929823,10.7129687 13.1612635,9.94972656 C13.1109901,9.88539062 13.1538807,9.80839844 13.1707557,9.74054687 C13.3954041,9.05253906 13.6080995,8.36066406 13.833451,7.67300781 C13.8499745,7.71132812 13.8661463,7.75 13.8766932,7.79078125 M15.9607557,14.7148047 C15.3669666,12.0010937 14.7731776,9.28773437 14.1800916,6.57402344 C14.145287,6.41089844 14.0257557,6.28820312 13.9325916,6.15636719 C12.778412,4.57996094 11.6256385,3.0025 10.472162,1.42574219 C10.3607166,1.27703125 10.2654432,1.11003906 10.1111073,1 L9.92302133,1 C9.77079477,1.11179687 9.67481821,1.27738281 9.56372446,1.42574219 C8.4102479,3.00285156 7.25747446,4.5803125 6.10329477,6.15671875 C6.01048227,6.28855469 5.89059946,6.41089844 5.85579477,6.57402344 C5.26270883,9.28738281 4.66927133,12.0010937 4.07513071,14.7144531 C4.04313852,14.8747656 3.9861854,15.0354297 4.0030604,15.2010156 C4.00798227,15.265 4.0564979,15.3128125 4.10677133,15.3469141 C6.05020883,16.5622656 7.98977915,17.7839453 9.93251352,19 L10.1037245,19 C12.0397791,17.7892187 13.9719666,16.5717578 15.9080213,15.3609766 C15.9741151,15.3170312 16.0391541,15.2530469 16.0416151,15.1683203 C16.0412635,15.0136328 15.990287,14.8649219 15.9607557,14.7148047" id="Sign"></path>
        </g>
    </g>
</svg>