<?xml version="1.0" encoding="UTF-8"?>
<svg width="20px" height="20px" viewBox="0 0 20 20" version="1.1" xmlns="http://www.w3.org/2000/svg" xmlns:xlink="http://www.w3.org/1999/xlink">
    <!-- Generator: sketchtool 49.3 (51167) - http://www.bohemiancoding.com/sketch -->
    <title>18EF7F6F-6017-4D2A-88A9-C6453CC864F8</title>
    <desc>Created with sketchtool.</desc>
    <defs></defs>
    <g id="Coins" stroke="none" stroke-width="1" fill="none" fill-rule="evenodd">
        <g id="Coins/Euro-EUR" fill="#0099F7">
            <path d="M15.0161973,17.1830986 C14.646479,17.2887324 13.8014085,17.5 12.7978874,17.5 C9.31197193,17.5 6.67112686,15.334507 5.82605643,12.165493 L4.6112677,12.165493 C4.5056339,12.165493 4.4000001,12.0598592 4.4000001,11.9542254 L4.4000001,10.7922535 C4.4000001,10.6866197 4.5056339,10.5809859 4.6112677,10.5809859 L5.56197193,10.5809859 C5.50915502,10.2640845 5.50915502,9.73591549 5.56197193,9.31338028 L4.6112677,9.31338028 C4.5056339,9.31338028 4.4000001,9.20774648 4.4000001,9.10211268 L4.4000001,7.94014085 C4.4000001,7.83450704 4.5056339,7.72887324 4.6112677,7.72887324 L5.82605643,7.72887324 C6.72394376,4.66549296 9.41760573,2.5 12.7978874,2.5 C13.6429578,2.5 14.4352114,2.6584507 14.8049297,2.71126761 C14.9105635,2.71126761 14.9633804,2.81690141 14.9633804,2.92253521 L14.4352114,4.92957746 C14.4352114,5.03521127 14.3295776,5.08802817 14.2239438,5.08802817 C13.9598593,5.03521127 13.3788733,4.92957746 12.7978874,4.92957746 C10.8436621,4.92957746 9.36478883,5.98591549 8.73098601,7.72887324 L13.2732395,7.72887324 C13.3788733,7.72887324 13.4845071,7.83450704 13.4845071,7.94014085 L13.2732395,9.10211268 C13.2732395,9.20774648 13.1676057,9.26056338 13.0619719,9.26056338 L8.4140846,9.26056338 C8.3612677,9.63028169 8.3612677,10.1056338 8.4140846,10.528169 L12.7450705,10.528169 C12.8507043,10.528169 12.9563381,10.6338028 12.9563381,10.7394366 L12.7450705,11.9014085 C12.7450705,12.0070423 12.6394367,12.0598592 12.5338029,12.0598592 L8.88943672,12.0598592 C9.52323953,13.8028169 11.1077466,14.9119718 12.9563381,14.9119718 C13.6957747,14.9119718 14.3295776,14.7535211 14.646479,14.7007042 C14.7521128,14.6478873 14.8577466,14.7535211 14.8577466,14.8591549 L15.2802818,16.8661972 C15.174648,17.0774648 15.0690142,17.1830986 15.0161973,17.1830986" id="Sign"></path>
        </g>
    </g>
</svg>