<?xml version="1.0" encoding="UTF-8"?>
<svg width="20px" height="20px" viewBox="0 0 20 20" version="1.1" xmlns="http://www.w3.org/2000/svg" xmlns:xlink="http://www.w3.org/1999/xlink">
    <!-- Generator: sketchtool 49.3 (51167) - http://www.bohemiancoding.com/sketch -->
    <title>41CFF71F-B64A-4E62-AEC6-A571A51382C7</title>
    <desc>Created with sketchtool.</desc>
    <defs></defs>
    <g id="Coins" stroke="none" stroke-width="1" fill="none" fill-rule="evenodd">
        <g id="Coins/Expanse-EXP" fill="#0099F7">
            <path d="M13.9109411,11.6073903 C14.1170612,11.1124423 14.2318129,10.5698614 14.2318129,10 C14.2318129,9.43013857 14.1170612,8.88755774 13.9109411,8.3926097 L16.755918,6.75014434 L16.755918,13.2498557 L13.9109411,11.6073903 Z M10.585306,14.1483834 C11.7168014,14.0020208 12.7045323,13.4057448 13.3657621,12.5427252 L16.2146363,14.1873557 L10.585306,17.4372113 L10.585306,14.1483834 Z M6.7227194,12.5427252 C7.38394919,13.4053118 8.37168014,14.0020208 9.50274249,14.1483834 L9.50274249,17.4372113 L3.87384527,14.1873557 L6.7227194,12.5427252 Z M6.17754042,8.3926097 C5.97142032,8.88755774 5.85666859,9.43013857 5.85666859,10 C5.85666859,10.5698614 5.97142032,11.1124423 6.17754042,11.6073903 L3.33256351,13.2498557 L3.33256351,6.75014434 L6.17754042,8.3926097 Z M9.50274249,5.8511836 C8.37168014,5.99754619 7.38394919,6.5942552 6.7227194,7.45727483 L3.87384527,5.81264434 L9.50274249,2.56235566 L9.50274249,5.8511836 Z M10.585306,5.8511836 L10.585306,2.56235566 L16.2146363,5.81264434 L13.3661952,7.45727483 C12.7045323,6.5942552 11.7168014,5.99754619 10.585306,5.8511836 Z M10.0440242,1 L2.25,5.5 L2.25,14.5 L10.0440242,19 L17.8384815,14.5 L17.8384815,5.5 L10.0440242,1 Z" id="Sign"></path>
        </g>
    </g>
</svg>