<?xml version="1.0" encoding="UTF-8"?>
<svg width="20px" height="20px" viewBox="0 0 20 20" version="1.1" xmlns="http://www.w3.org/2000/svg" xmlns:xlink="http://www.w3.org/1999/xlink">
    <!-- Generator: sketchtool 49.3 (51167) - http://www.bohemiancoding.com/sketch -->
    <title>B3813042-CD4E-46FC-B977-6883EC9C7F52</title>
    <desc>Created with sketchtool.</desc>
    <defs></defs>
    <g id="Coins" stroke="none" stroke-width="1" fill="none" fill-rule="evenodd">
        <g id="Coins/Factom-FTC" fill="#0099F7">
            <path d="M5.30274111,3.5043808 C5.73226556,3.18847668 6.27005877,2.87990615 6.8372093,2.62969589 C6.99381549,2.56778942 7.14431553,2.51430616 7.28756453,2.46913706 C7.48187069,2.38923929 7.67285118,2.33262118 7.85369112,2.27883806 C7.86674845,2.27235029 7.88078712,2.26534458 7.89624329,2.25760286 C8.92665474,2 9.55635063,2.1431127 9.44186047,2.71556351 C9.41323792,2.91592129 9.27012522,3.11627907 9.06976744,3.31663685 C8.8980322,3.37388193 8.52593918,3.31663685 8.4686941,3.25939177 C8.64042934,3.05903399 8.72629696,2.88729875 8.78354204,2.74418605 C8.89323452,2.30538887 8.4139569,2.18650992 7.63002641,2.37386489 C7.72208195,2.34145328 7.76479768,2.3226987 7.83828946,2.28647074 L7.40966011,2.4293381 C7.3949672,2.43468098 7.38114661,2.43969674 7.36778942,2.4445762 C7.4585365,2.41742568 7.54593066,2.39398245 7.63002641,2.37386489 C7.57267229,2.39406423 7.49620922,2.41957918 7.38103757,2.45796064 C7.253272,2.4944612 7.18354204,2.51943096 7.08309055,2.56233751 C7.05839339,2.57479513 7.03366897,2.58757986 7.00894454,2.60107335 C6.68204787,2.73388193 6.35891302,2.88860721 6.05232473,3.0573439 C6.01410682,3.0822864 5.98316722,3.1005503 5.89329244,3.15078968 C5.86404293,3.17360593 5.84299855,3.19456853 5.80679785,3.23076923 C5.57781753,3.37388193 5.57781753,3.37388193 5.46332737,3.45974955 C5.17710197,3.63148479 5.14847943,3.63148479 5.06261181,3.71735242 L4.79530454,3.93120368 C4.71159043,4.01399097 4.63796235,4.09568788 4.57602862,4.17531306 C4.46491865,4.28642303 4.37111849,4.363295 4.28110742,4.45897606 C4.37924184,4.37395349 4.46977085,4.28895817 4.57602862,4.2039356 C4.490161,4.3470483 4.40429338,4.490161 4.37567084,4.60465116 C4.3470483,4.71914132 4.3470483,4.80500894 4.40429338,4.86225403 C4.3994957,4.86786949 4.39494335,4.87323963 4.39017293,4.87880058 C4.60955788,5.11694011 5.34123179,5.05369793 6.2647585,4.66189624 C6.57960644,4.54740608 6.89445438,4.40429338 7.15205725,4.23255814 C7.26654741,4.2039356 7.38103757,4.37567084 7.43828265,4.40429338 C7.46690519,4.43291592 7.49552773,4.54740608 7.43828265,4.60465116 C7.09481216,4.80500894 6.72271914,5.00536673 6.32200358,5.14847943 C5.18151802,5.64918306 4.23045915,5.71725019 3.96762246,5.4054008 C3.96053497,5.41521424 3.95342022,5.42478235 3.94633274,5.43470483 C3.88908766,5.32021467 3.86046512,5.26296959 3.9177102,5.11985689 C3.9177102,5.09123435 3.9177102,5.06261181 3.94633274,5.00536673 C3.97370134,4.97115598 4.00281455,4.93863532 4.03348156,4.90690519 C3.98313315,4.95659937 3.93455661,5.00803816 3.88908766,5.06261181 C3.88908766,5.03398927 3.9177102,4.94812165 3.9177102,4.91949911 C4.00357782,4.7763864 4.0608229,4.69051878 4.17531306,4.54740608 C4.19872902,4.52867876 4.2211909,4.50995144 4.24332567,4.49122412 C4.35072834,4.3436136 4.48062016,4.21347645 4.6332737,4.0608229 C4.72241247,3.97612744 4.81921118,3.89145924 4.92255218,3.80741801 C4.94212454,3.79119857 4.96202402,3.77503365 4.98612148,3.75567936 C4.9819235,3.75930488 4.97764375,3.7629304 4.97347304,3.76655592 C4.99903539,3.74623771 5.02497337,3.72596402 5.05127134,3.70574397 C5.06310432,3.69412847 5.07506357,3.68250907 5.08716177,3.67088577 C5.07821725,3.68009922 5.06899647,3.68959054 5.05929537,3.69958466 C5.15910028,3.62310031 5.26403865,3.54739757 5.37326178,3.47297044 C5.34548428,3.4842559 5.32326774,3.49376949 5.30271403,3.50440072 C5.24839643,3.53249361 5.2034165,3.5694593 5.08716177,3.67088577 C5.15533793,3.61533078 5.22743948,3.55977579 5.30273039,3.50438436 Z M2.33742284,12.1065376 C2.38758837,12.2994137 2.4405943,12.473498 2.51520572,12.6475822 C2.45796064,12.4472245 2.37209302,12.2468667 2.34347048,11.9892638 C2.94454383,12.84794 5.26296959,12.6475822 8.21109123,11.3881905 C11.9892665,9.78532822 15.3953488,7.0661869 15.881932,5.32021194 C15.9964222,4.89087384 15.9105546,4.5760259 15.6815742,4.34704557 C15.8533095,4.51878082 16.0250447,4.7191386 16.1681574,4.89087384 C16.3685152,5.11985416 16.3971377,5.4347021 16.3112701,5.83541767 C15.8533095,7.6386377 12.3613596,10.3864016 8.4686941,12.0178864 C5.28960218,13.3838903 2.86530028,13.5211967 2.41036545,12.505151 C2.39510009,12.4770464 2.38185195,12.4478514 2.37209302,12.4186019 C2.32318937,12.2474937 2.25348667,11.9930802 2.19850413,11.7975746 C2.22221995,11.8701668 2.25411364,11.9369255 2.31484794,12.0178864 C2.32070875,12.0413023 2.32656955,12.0642276 2.33245762,12.0870984 C2.33308459,12.0710425 2.33409319,12.0549866 2.33591958,12.0389307 C2.3376642,12.013225 2.3400903,11.9871921 2.34347048,11.9606413 C2.34118068,11.9811677 2.33965414,12.0016942 2.33845472,12.0221934 C2.34000852,12.0112078 2.34126246,12.0002494 2.34347048,11.9892638 C2.3410989,12.0034661 2.3396814,12.0167142 2.33807309,12.0301804 C2.33687591,12.0533692 2.33622538,12.0764834 2.33640616,12.0994756 C2.33774879,12.0834032 2.33939536,12.0671454 2.34180281,12.0504343 C2.34012638,12.0692222 2.3386373,12.0879272 2.33742284,12.1065376 Z M2.02203071,10.6804632 C2.02276506,10.6596984 2.02398173,10.6389335 2.02530115,10.6181392 C2.0273249,10.6685917 2.02862254,10.7161398 2.02862254,10.7584973 C2.02862254,10.7603237 2.02867706,10.7620683 2.02867706,10.7638947 C2.02530539,10.7363568 2.02305242,10.7085301 2.02203235,10.6805082 C2.02303601,10.6596321 2.02404064,10.6387555 2.02528587,10.6177585 C2.02482499,10.606286 2.02432666,10.5946637 2.0237976,10.5829185 C2.02371582,10.5841997 2.02355226,10.5854809 2.02344322,10.5867621 C2.02355226,10.5850447 2.02363404,10.5833546 2.02374308,10.5816373 C2.01556521,10.4010427 2,10.1908442 2,10.0429338 C2,10.2432916 2.05724508,10.3864043 2.1431127,10.529517 C2.1431127,10.5299259 2.14313996,10.5303348 2.14313996,10.5307437 C2.14313996,10.5207939 2.1431127,10.5108442 2.1431127,10.5008945 C4.40429338,12.9051878 14.6225403,6.66547406 14.7370304,4.03220036 C14.7595741,3.64876736 14.6044126,3.46089445 14.4675696,3.35643581 L14.6225403,3.45974955 L14.9660107,3.68872987 C15.2236136,3.9177102 15.3381038,4.26118068 15.2236136,4.71914132 C14.7942755,6.4078712 11.4454383,9.0411449 7.83899821,10.5581395 C4.97033819,11.7909532 2.74971974,11.9633427 2.16930914,11.1566777 C2.06580458,11.052001 2.03366556,10.9468609 2.02924951,10.7977511 C2.02153505,10.7407241 2.01910895,10.6808076 2.02183491,10.6181651 C2.02119862,10.6390124 2.02127916,10.6597909 2.02203071,10.6804632 Z M4.03220036,15.3667263 C3.88908766,15.1949911 3.71735242,15.0232558 3.63148479,14.8515206 C3.7745975,15.0232558 3.97495528,15.2522361 4.11806798,15.4239714 C4.08944544,15.3953488 4.0608229,15.3667263 4.03220036,15.3667263 Z M9.64580015,2.0274362 C9.57304438,2.0411362 9.5033962,2.0511362 9.44187137,2.0511362 L9.32738121,2.0511362 C9.44064469,2.0203362 9.54695698,2.0127362 9.64580015,2.0274362 Z M10.4150268,2.74418605 C10.5371497,2.28006474 10.2212931,2.04544169 9.64578925,2.02216202 C9.80994633,2.01373882 9.98996848,2 10.1288014,2 C10.8443649,2 11.1878354,2.25760286 11.0447227,2.80143113 C10.8729875,3.45974955 9.95706619,4.37567084 8.78354204,5.17710197 C8.55456172,5.29159213 8.29695886,4.97674419 8.38282648,4.83363148 C8.38282648,4.80500894 8.41144902,4.80500894 8.41144902,4.80500894 C9.47048301,4.08944544 10.2432916,3.31663685 10.4150268,2.74418605 Z M17.255814,6.77996422 C17.1413238,6.75134168 16.940966,6.35062612 16.9123435,6.17889088 C16.9123435,6.07323281 16.9042201,5.98354885 16.8799046,5.90133401 L17.0268336,6.17889088 L17.1413238,6.35062612 C17.255814,6.60822898 17.255814,6.60822898 17.255814,6.75134168 L17.255814,6.77996422 Z M16.8798937,5.90133401 C16.8581133,5.82765142 16.8233301,5.75993867 16.7692199,5.69230769 L16.8798937,5.90133401 Z M13.3345259,3.54561717 C13.4668984,3.06906551 13.3052219,2.73957918 12.9178363,2.5568856 C13.1061998,2.63580203 13.336843,2.72881165 13.5062612,2.80143113 C13.9069767,3.00178891 14.078712,3.34525939 13.9355993,3.86046512 C13.5348837,5.40608229 10.5581395,7.72450805 7.29516995,9.12701252 C6.6940966,9.38461538 6.06440072,9.61359571 5.52057245,9.78533095 C5.20572451,9.81395349 5.17710197,9.41323792 5.32021467,9.21288014 C5.34883721,9.15563506 5.37745975,9.15563506 5.43470483,9.09838998 C5.94991055,8.95527728 6.49373882,8.7549195 7.06618962,8.52593918 C10.157424,7.20930233 12.9624329,4.97674419 13.3345259,3.54561717 Z M12.9193175,2.61520572 C12.8874138,2.57962691 12.8542096,2.54614098 12.8193175,2.51520572 C12.8507231,2.54705661 12.8843977,2.58060795 12.9193175,2.61520572 Z M11.3595707,13.3345259 C14.4794275,11.7030411 17.0840787,9.47048301 17.5134168,7.95348837 C17.5706619,7.69588551 17.5706619,7.43828265 17.5134168,7.23792487 C17.5992844,7.49552773 17.7137746,7.75313059 17.7423971,7.98211091 C17.7710197,8.15384615 17.7710197,8.35420394 17.7137746,8.58318426 C17.313059,10.0715564 14.765653,12.2754919 11.6744186,13.8783542 C11.3309481,14.0214669 11.1305903,13.763864 11.1878354,13.5348837 C11.216458,13.4203936 11.3023256,13.3631485 11.3595707,13.3345259 Z M14.8801404,12.8193202 C16.4830026,11.6457961 17.6279043,10.4150268 17.8568846,9.47048301 C17.8855071,9.29874776 17.9141297,9.12701252 17.8855071,8.95527728 L17.9713747,9.38461538 L17.9713747,9.64221825 C17.9713747,9.78533095 17.9713747,9.87119857 17.9427522,10.0429338 C17.7137719,10.9588551 16.5974928,12.1323792 15.0518756,13.3059034 C14.8228953,13.4776386 14.6797826,13.2486583 14.7084051,13.0769231 C14.7370277,12.9338104 14.8515178,12.8479428 14.8801404,12.8193202 Z M4.3470483,6.980322 C3.94633274,7.03756708 3.37388193,7.00894454 3.08765653,6.72271914 C3.20214669,6.52236136 3.28801431,6.35062612 3.43112701,6.15026834 C3.68872987,6.49373882 4.54740608,6.49373882 5.69230769,6.1216458 C5.83542039,6.06440072 5.83542039,6.37924866 5.83542039,6.37924866 C5.83542039,6.5509839 5.80679785,6.77996422 4.3470483,6.980322 Z M2.45796064,9.87119857 C2.11449016,9.69946333 1.97137746,9.44186047 2.02862254,9.01252236 C2.00272596,9.219586 2.04724082,9.40309737 2.14063208,9.54217565 C2.067004,9.40192521 2.03415623,9.25447823 2.05724508,9.06976744 C2.05724508,9.04517932 2.0625607,9.01527558 2.06858506,8.98466309 L2.11449016,8.64042934 L2.1433853,8.51037397 C2.15903229,8.42968566 2.17729619,8.34902462 2.20035778,8.26833631 L2.20035778,8.3255814 L2.14545702,8.57258029 C2.13640685,8.74799557 2.17307096,8.90934492 2.26496294,9.01767442 C2.27161428,8.98736179 2.27864724,8.95702189 2.2862254,8.92665474 C2.34347048,9.0411449 2.45796064,9.09838998 2.60107335,9.15563506 C2.68694097,9.3273703 2.60107335,9.67084079 2.60107335,9.67084079 C2.57245081,9.78533095 2.54382826,9.89982111 2.45796064,9.87119857 Z M2.02182673,10.6335888 C2.02212673,10.6264888 2.02222673,10.6194888 2.02252673,10.6123888 C2.02222673,10.6194888 2.02202673,10.6264888 2.02182673,10.6335888 Z M14.4675751,3.38801704 C14.4307747,3.34694134 14.3952827,3.31463058 14.3649428,3.28801704 L14.4675751,3.38801704 Z M9.24151359,13.449027 C5.96799455,14.8129865 3.47445336,14.9549815 3.04939501,13.9245973 C3.02995894,13.8992187 3.02676957,13.8710595 3.00179981,13.82112 L2.83006457,13.4776495 C3.488383,14.3363258 5.8354313,14.1645905 8.8980431,12.8193311 C11.2164689,11.8461647 13.4204045,10.4436603 14.9087766,9.12702343 C15.1663794,9.01253327 15.252247,9.21289105 15.3094921,9.32738121 C15.3667372,9.52773899 15.3094921,9.67085169 15.252247,9.75671931 C13.7638749,11.1019787 11.5599393,12.4758606 9.24151359,13.449027 Z M6.66547406,15.7674419 C5.43470483,15.9677996 4.57602862,15.881932 4.14669052,15.4239714 C4.01802539,15.2695732 3.84342789,15.0692427 3.70541273,14.9054945 C4.10307522,15.3461998 4.9984428,15.444934 6.2647585,15.2522361 C6.52236136,15.2522361 6.6940966,15.4812165 6.72271914,15.5384615 C6.75134168,15.5957066 6.77996422,15.7388193 6.66547406,15.7674419 Z M3.76010733,14.9515151 C3.72593164,14.9174747 3.69199662,14.8836363 3.66010733,14.8515151 C3.69151528,14.8859596 3.72520962,14.9190909 3.76010733,14.9515151 Z M4.92786779,16.2160961 C4.87471164,16.1780145 4.82332737,16.1421954 4.7763864,16.1109014 C4.82201891,16.1492556 4.87261266,16.1842842 4.92786779,16.2160961 Z M7.97512429,16.6478058 C6.75247841,16.9067989 5.82655286,16.8709798 5.34882903,16.5402395 C5.22403476,16.4362443 5.06917318,16.3173654 4.92785961,16.2160961 C5.54226288,16.5699252 6.74192895,16.5215667 8.31237959,16.0814884 C8.32630923,16.0625157 8.34023886,16.0436794 8.35419576,16.0250338 C8.34012982,16.0438157 8.32658182,16.0625702 8.31289752,16.0813521 C8.81578192,15.9403929 9.35655712,15.7594166 9.92843547,15.5384506 C10.3005285,15.4239605 10.4436412,15.6815633 10.4436412,15.6815633 C10.4722637,15.7101859 10.4722637,15.8532986 10.271906,15.9391662 C9.43345634,16.26639 8.66081131,16.5022125 7.97994923,16.6467699 C7.97079002,16.6684958 7.9616308,16.6902489 7.95348019,16.7119748 C7.95942278,16.6912303 7.96686464,16.6696952 7.97512429,16.6478058 Z M17.9783132,10.7584973 L18.0681336,10.6153846 C18.044267,10.6701763 18.0101353,10.7257041 17.9681336,10.7817225 C17.9715553,10.774008 17.9748915,10.76613 17.9783132,10.7584973 Z M7.81375313,17.1770938 C11.3052941,16.8315516 17.3804419,13.2417398 17.9681308,10.7817007 C17.9406259,10.9764157 17.9141297,11.1943559 17.9141297,11.3595761 C17.9141297,11.3881987 17.9141297,11.4168212 17.8855071,11.4740663 C17.456169,12.9338158 14.593915,15.1949965 11.4454356,16.5402559 C10.0152081,17.1560494 8.77830548,17.4544871 7.87759503,17.4743866 C7.89106125,17.5075342 7.90638112,17.539864 7.92486311,17.5706673 C7.89853037,17.5377105 7.87691354,17.5063075 7.85930386,17.4746319 C7.47036443,17.4816376 7.14450362,17.436523 6.89445166,17.341687 C6.69409388,17.2271969 6.40786847,17.1413292 6.23613323,17.0268391 C6.64622608,17.1959574 7.18315768,17.2382097 7.8017044,17.1782387 C7.80333998,17.1489619 7.80614771,17.117886 7.81037294,17.0840842 C7.81037294,17.1151601 7.81170866,17.1461814 7.81375313,17.1770938 Z M11.8175313,16.9123435 C10.0429338,17.6565295 8.58318426,17.9141324 7.81037567,17.6851521 C8.01073345,17.7423971 8.3255814,17.8282648 8.55456172,17.8568873 C10.7298748,18.2003578 16.2254025,15.4812165 17.3989267,13.0483005 C17.4894284,12.8899225 17.5620206,12.6779521 17.6309055,12.4829372 C17.0895851,13.7998467 14.5731187,15.7274521 11.8175313,16.9123435 Z M17.6309028,12.4829454 C17.669546,12.43197 17.7033651,12.3818124 17.7309028,12.3327452 C17.697737,12.3806948 17.6645711,12.4312613 17.6309028,12.4829454 Z M15.6529517,15.4239714 C15.6815742,15.4239714 15.6815742,15.4812165 15.6243292,15.509839 C15.6243292,15.5384615 15.5670841,15.6529517 15.4239714,15.7388193 C14.6797853,16.3398927 13.6493739,16.9695886 12.6189624,17.3989267 C11.7316637,17.7710197 10.9588551,17.9713775 10.3864043,18 L9.7623784,18 C10.4294744,17.9755209 11.3187086,17.7466769 12.3899821,17.313059 C13.5635063,16.7978533 14.7370304,16.1395349 15.5670841,15.4239714 C15.5957066,15.4239714 15.5957066,15.3953488 15.6243292,15.3953488 C15.6243292,15.3953488 15.6243292,15.4239714 15.6529517,15.4239714 Z M9.76238657,18 L9.52773626,18 C9.60250924,18.0114 9.68088048,18.011 9.76238657,18 Z M3.43112701,6.09302326 C3.28801431,6.35062612 3.17352415,6.52236136 3.08765653,6.72271914 C2.97316637,6.57960644 2.97316637,6.46511628 2.97316637,6.32200358 C2.97316637,6.29338104 2.97316637,6.2647585 3.00178891,6.17889088 L3.04747593,6.11036034 C3.05829798,6.07358719 3.07293637,6.03659596 3.08765653,6.00715564 C3.11627907,5.89266547 3.17352415,5.80679785 3.25939177,5.72093023 C3.25203169,5.74303774 3.24077349,5.76708067 3.22728001,5.79202317 C3.23848369,5.77839339 3.24944203,5.76446375 3.25939177,5.74955277 C3.26879632,5.7119891 3.28158105,5.67461624 3.29711901,5.63906977 C3.27321237,5.67178124 3.25031434,5.70138513 3.23076923,5.72093023 C3.28801431,5.63506261 3.34525939,5.52057245 3.43112701,5.46332737 C3.44325752,5.44817105 3.45462476,5.43339637 3.46563762,5.41881251 C3.48523724,5.38888151 3.5052185,5.35957748 3.52577221,5.33152739 C3.57909192,5.23887214 3.63930829,5.15365874 3.71735242,5.06261181 L3.66335122,5.15259562 C3.68785757,5.12356419 3.71479002,5.09379675 3.74597496,5.06261181 L3.63148479,5.20572451 C3.60932277,5.22788653 3.58789675,5.2523111 3.56701593,5.27804413 C3.54891558,5.303341 3.53111509,5.32877417 3.5126331,5.35467076 C3.45424312,5.45972911 3.40340404,5.57552773 3.34525939,5.72093023 C3.3424244,5.72564614 3.33907147,5.73063464 3.33612744,5.73543232 C3.31840872,5.8985808 3.33081182,6.01778686 3.43112701,6.09302326 Z M2.52247312,8.10643087 C2.51969265,8.12213238 2.51721203,8.13788841 2.51519482,8.15383525 C2.40070466,8.01072255 2.37208212,7.83898731 2.40070466,7.63862953 C2.40070466,7.58138445 2.40070466,7.52413936 2.4293272,7.46689428 C2.48657228,7.2665365 2.5724399,7.09480126 2.65830752,6.89444348 C2.60106244,7.1234238 2.62968498,7.32378158 2.7155526,7.49551682 C2.6693749,7.68028214 2.58596064,7.84640191 2.54043718,8.0239707 C2.59563779,7.86957254 2.66621279,7.69691047 2.7155526,7.52413936 C3.11626817,8.09659017 4.69050788,7.95347747 6.6940857,7.1234238 C9.21286924,6.00714473 11.5599175,4.17530216 11.8747655,3.03040055 C11.9892556,2.60106244 11.8461429,2.31483704 11.4740499,2.17172434 C11.531295,2.1431018 11.531295,2.1431018 11.7316528,2.20034688 C11.8747655,2.22896942 11.9606331,2.25759196 12.0465007,2.25759196 C12.4758388,2.4293272 12.6475741,2.74417514 12.5330839,3.20213579 C12.1896134,4.4901501 9.64220734,6.49372792 6.86582094,7.66725207 C4.67308902,8.57853923 2.99051981,8.75302769 2.52247312,8.10643087 Z M2.26993524,11.8030466 C2.23543524,11.7676948 2.20243524,11.7339866 2.17173524,11.7030466 C2.20253524,11.7385137 2.23393524,11.7712415 2.26993524,11.8030466 Z M2.68694097,6.63685152 C2.68694097,6.75134168 2.65831843,6.80858676 2.62969589,6.89445438 C2.54382826,7.09481216 2.48658318,7.29516995 2.40071556,7.49552773 C2.40071556,7.46690519 2.4293381,7.38103757 2.4293381,7.35241503 C2.48658318,7.15205725 2.62969589,6.8372093 2.68694097,6.63685152 Z" id="Sign"></path>
        </g>
    </g>
</svg>