<?xml version="1.0" encoding="UTF-8"?>
<svg width="20px" height="20px" viewBox="0 0 20 20" version="1.1" xmlns="http://www.w3.org/2000/svg" xmlns:xlink="http://www.w3.org/1999/xlink">
    <!-- Generator: sketchtool 49.3 (51167) - http://www.bohemiancoding.com/sketch -->
    <title>F7F3D06F-AE73-4D5C-9DC1-0082B52F6D15</title>
    <desc>Created with sketchtool.</desc>
    <defs></defs>
    <g id="Coins" stroke="none" stroke-width="1" fill="none" fill-rule="evenodd">
        <g id="Coins/FantomCoin-FCN" fill="#0099F7">
            <path d="M10,16.2791998 C9.29016993,16.2791998 8.61045386,16.1553022 7.9737578,15.9371908 C8.07743601,15.8029684 8.14067541,15.733276 8.21725102,15.6270166 C10.4469778,12.8926651 14.7059583,11.6338998 15.1946655,7.70789417 C14.7145623,7.9901054 13.9307378,8.45171005 13.9307378,8.45171005 C13.9307378,8.45171005 13.4020219,9.10475371 13.0793719,9.52807055 C12.02151,10.9163261 10.2142396,11.5624866 8.48483545,11.6700366 C8.45041945,10.1389546 9.49150355,8.82684448 10.8552377,8.22843622 C12.1544418,7.53968595 13.8283502,7.07162831 14.8397505,6.004302 C15.7384384,7.09055711 16.2791998,8.48354485 16.2791998,10 C16.2791998,13.4622499 13.4622499,16.2791998 10,16.2791998 M3.72080017,10 C3.72080017,6.53775005 6.53775005,3.72080017 10,3.72080017 C11.1112067,3.72080017 12.1540116,4.0141966 13.0604431,4.52269305 C10.5936761,5.53194235 7.45063455,5.94364379 6.17896322,8.59023446 C5.0268875,10.5902345 6.25941063,12.8100667 6.13207141,14.9365455 C4.66724027,13.7857604 3.72080017,12.0030114 3.72080017,10 M10,2 C5.58184556,2 2,5.58184556 2,10 C2,14.4181544 5.58184556,18 10,18 C14.4181544,18 18,14.4181544 18,10 C18,5.58184556 14.4181544,2 10,2" id="Sign"></path>
        </g>
    </g>
</svg>