<?xml version="1.0" encoding="UTF-8"?>
<svg width="20px" height="20px" viewBox="0 0 20 20" version="1.1" xmlns="http://www.w3.org/2000/svg" xmlns:xlink="http://www.w3.org/1999/xlink">
    <!-- Generator: sketchtool 49.3 (51167) - http://www.bohemiancoding.com/sketch -->
    <title>9BA62E66-9A55-44C8-9228-55F2F2E59256</title>
    <desc>Created with sketchtool.</desc>
    <defs></defs>
    <g id="Coins" stroke="none" stroke-width="1" fill="none" fill-rule="evenodd">
        <g id="Coins/FirstBlood-1ST" fill="#0099F7">
            <path d="M11.9057156,2 L11.974287,2 C12.244219,2.02503401 12.464083,2.25578231 12.4423143,2.53333333 C12.4510218,7.47482993 12.4423143,12.4163265 12.446668,17.3567347 C12.4858517,17.654966 12.3106136,17.9619048 11.9971441,18 L11.9296611,18 C11.7598652,17.9673469 11.6161917,17.8726531 11.5008175,17.7463946 C10.6518378,16.887619 9.79850431,16.0321088 8.94843613,15.1744218 C8.77319801,15.0046259 8.64585105,14.7771429 8.65129323,14.5278912 C8.63714356,13.2141497 8.6534701,11.8993197 8.64476261,10.5855782 C8.67306194,10.3178231 8.49238163,10.0217687 8.20503465,10.0119728 C7.12857188,9.97605442 6.04993224,10.0217687 4.97346947,9.99238095 C4.73619052,9.99782313 4.57510205,9.8029932 4.5,9.59836735 L4.5,9.48190476 C4.54789116,9.18911565 4.80258509,9.01061224 4.99197287,8.80816327 C7.07306166,6.71510204 9.15197358,4.62095238 11.2308855,2.52571429 C11.4365998,2.33088435 11.6161917,2.07292517 11.9057156,2" id="Sing"></path>
        </g>
    </g>
</svg>