<?xml version="1.0" encoding="UTF-8"?>
<svg width="20px" height="20px" viewBox="0 0 20 20" version="1.1" xmlns="http://www.w3.org/2000/svg" xmlns:xlink="http://www.w3.org/1999/xlink">
    <!-- Generator: sketchtool 49.3 (51167) - http://www.bohemiancoding.com/sketch -->
    <title>781ED949-3AB9-4C0E-9B10-2C00B475F2DA</title>
    <desc>Created with sketchtool.</desc>
    <defs></defs>
    <g id="Coins" stroke="none" stroke-width="1" fill="none" fill-rule="evenodd">
        <g id="Coins/FunFair-FUN" fill="#0099F7" fill-rule="nonzero">
            <path d="M9.944,5.436 C7.196,5.436 4.832,7.956 5.508,11.116 C5.52,11.16 5.528,11.204 5.54,11.248 C5.548,11.276 5.56,11.316 5.592,11.284 L8.596,8.928 C8.624,8.912 8.644,8.916 8.668,8.936 C8.704,8.972 10.704,11.528 10.704,11.528 C10.732,11.564 10.768,11.6 10.72,11.636 L7.712,13.968 C7.66,14 7.72,14.048 7.744,14.08 L10.776,17.956 C10.776,17.956 10.78,17.96 10.78,17.96 C10.512,17.988 10.244,18 9.972,18 C5.568,18 2,14.432 2,10.028 C2,6.452 4.352,3.428 7.596,2.42 C7.6,2.424 7.604,2.432 7.608,2.436 L9.928,5.408 C9.932,5.416 9.94,5.428 9.944,5.436 Z M10.028,2 C14.432,2 18,5.568 18,9.968 C18,13.544 15.644,16.568 12.404,17.58 C12.4,17.576 12.396,17.568 12.392,17.564 L10.072,14.592 C10.068,14.584 10.06,14.572 10.056,14.564 C12.804,14.564 15.164,12.04 14.488,8.88 C14.476,8.836 14.468,8.792 14.456,8.748 C14.448,8.728 14.44,8.7 14.424,8.7 C14.42,8.7 14.412,8.704 14.404,8.712 L11.4,11.068 C11.388,11.076 11.38,11.08 11.368,11.08 C11.356,11.08 11.344,11.076 11.332,11.064 C11.296,11.028 9.296,8.472 9.296,8.472 C9.268,8.436 9.232,8.4 9.28,8.364 L12.288,6.032 C12.34,6 12.28,5.952 12.256,5.92 L9.224,2.044 C9.224,2.044 9.22,2.04 9.22,2.04 C9.488,2.012 9.756,2 10.028,2 Z M10.6,2.704 L12.78,5.488 C12.944,5.676 13.008,5.884 12.976,6.104 C12.948,6.292 12.844,6.464 12.688,6.576 L10.188,8.512 C10.628,9.076 11.132,9.72 11.468,10.144 L13.968,8.184 C14.096,8.08 14.256,8.02 14.42,8.02 C14.696,8.02 15.016,8.196 15.112,8.588 C15.124,8.636 15.136,8.684 15.148,8.732 C15.152,8.732 15.152,8.736 15.152,8.74 C15.336,9.592 15.332,10.432 15.136,11.236 C14.952,11.996 14.612,12.688 14.12,13.296 C13.636,13.896 13.016,14.388 12.324,14.724 C12.004,14.88 11.664,15 11.32,15.088 L12.644,16.78 C13.212,16.564 13.752,16.272 14.252,15.916 C14.872,15.476 15.416,14.94 15.872,14.332 C16.82,13.064 17.32,11.556 17.32,9.972 C17.32,8.024 16.56,6.192 15.184,4.816 C13.94,3.576 12.332,2.84 10.6,2.704 Z" id="Sign"></path>
        </g>
    </g>
</svg>