<?xml version="1.0" encoding="UTF-8"?>
<svg width="20px" height="20px" viewBox="0 0 20 20" version="1.1" xmlns="http://www.w3.org/2000/svg" xmlns:xlink="http://www.w3.org/1999/xlink">
    <!-- Generator: sketchtool 49.3 (51167) - http://www.bohemiancoding.com/sketch -->
    <title>F7B24A50-18F5-4A07-A3E5-B776AB29BA8E</title>
    <desc>Created with sketchtool.</desc>
    <defs></defs>
    <g id="Coins" stroke="none" stroke-width="1" fill="none" fill-rule="evenodd">
        <g id="Coins/GameCredits-GAME" fill="#0099F7">
            <path d="M15.9669123,15.9627065 L14.4918865,15.9627065 L14.4918865,13.8398932 C13.4009443,15.1145194 11.7821364,15.9247996 9.97673282,15.9247996 C6.69934991,15.9247996 4.03303373,13.2584295 4.03303373,9.98104655 C4.03303373,6.70366364 6.69934991,4.03729354 9.97673282,4.03729354 C12.9200444,4.03729354 15.3691912,6.18822689 15.8381475,9.00048192 L14.3357564,9.00048192 C13.8873982,7.00664921 12.1038328,5.5123194 9.97670586,5.5123194 C7.51267664,5.5123194 5.50803264,7.5169634 5.50803264,9.98104655 C5.50803264,12.4450758 7.51267664,14.4497737 9.97670586,14.4497737 C11.6257637,14.4497737 13.0680053,13.5511699 13.8423736,12.2187128 L10.747812,12.2187128 L10.747812,10.743687 L15.9669123,10.743687 L15.9669123,15.9627065 Z M9.99994608,2 C5.58171653,2 2,5.58168957 2,10.000027 C2,14.4183644 5.58168957,18 9.99994608,18 L17.9999191,18 L17.9999191,10.000027 C17.9999191,5.58168957 14.4182026,2 9.99994608,2 Z" id="Sign"></path>
        </g>
    </g>
</svg>