<?xml version="1.0" encoding="UTF-8"?>
<svg width="20px" height="20px" viewBox="0 0 20 20" version="1.1" xmlns="http://www.w3.org/2000/svg" xmlns:xlink="http://www.w3.org/1999/xlink">
    <!-- Generator: sketchtool 49.3 (51167) - http://www.bohemiancoding.com/sketch -->
    <title>C194E80A-B4D2-4184-98CC-430B745E0F43</title>
    <desc>Created with sketchtool.</desc>
    <defs></defs>
    <g id="Coins" stroke="none" stroke-width="1" fill="none" fill-rule="evenodd">
        <g id="Coins/Gnosis-GNO" fill="#0099F7">
            <path d="M16.6672397,6.2408 C17.4032397,7.4576 17.7912397,8.8488 17.7912397,10.2672 C17.7784397,14.5352 14.3128397,18 10.0456397,18 L10.0320397,18 C5.7648397,18 2.2864397,14.508 2.3000397,10.2408 C2.3000397,8.8096 2.7008397,7.4184 3.4368397,6.2144 L3.5704397,5.9872 L4.2792397,6.696 C4.1456397,6.896 4.0248397,7.1104 3.9448397,7.3512 C3.3832397,8.8896 4.1856397,10.5888 5.7376397,11.1504 C6.6608397,11.4712 7.6376397,11.324 8.4000397,10.816 L10.0456397,12.4752 L11.9320397,10.5888 C12.1064397,10.7096 12.3064397,10.8032 12.5208397,10.8832 C14.0328397,11.4184 15.6912397,10.6288 16.2264397,9.1304 C16.5472397,8.248 16.4000397,7.3248 15.9320397,6.5888 L16.5208397,6 L16.6672397,6.2408 Z M16.3864391,5.0096 L10.0720391,11.2976 L3.67763906,4.876 L3.93203906,4.6088 C5.51043906,2.9368 7.66403906,2 9.97843906,2 L9.99203906,2 C12.3328391,2 14.5808391,3.0032 16.1456391,4.7424 L16.3864391,5.0096 Z M9.99203906,2.7488 C7.99843906,2.7488 6.13923906,3.4984 4.72163906,4.876 L10.0728391,10.2408 L15.3568391,4.9832 C13.9384391,3.5656 12.0120391,2.7488 10.0056391,2.7488 L9.99203906,2.7488 Z M13.7784391,9.9056 C13.4440391,9.9056 13.1496391,9.812 12.8952391,9.6384 L15.0896391,7.444 C15.2632391,7.6984 15.3568391,8.0064 15.3568391,8.3272 C15.3568391,9.1968 14.6480391,9.9056 13.7784391,9.9056 Z M6.4072397,10.1072 C5.5376397,10.1072 4.8288397,9.3984 4.8288397,8.5288 C4.8288397,8.168 4.9488397,7.8328 5.1496397,7.5656 L7.3704397,9.7728 C7.1032397,9.9864 6.7688397,10.1072 6.4072397,10.1072 Z" id="Sign"></path>
        </g>
    </g>
</svg>