<?xml version="1.0" encoding="UTF-8"?>
<svg width="20px" height="20px" viewBox="0 0 20 20" version="1.1" xmlns="http://www.w3.org/2000/svg" xmlns:xlink="http://www.w3.org/1999/xlink">
    <!-- Generator: sketchtool 49.3 (51167) - http://www.bohemiancoding.com/sketch -->
    <title>22C67C9F-8E59-4A05-B344-DCF5608CB096</title>
    <desc>Created with sketchtool.</desc>
    <defs></defs>
    <g id="Coins" stroke="none" stroke-width="1" fill="none" fill-rule="evenodd">
        <g id="Coins/Golem-GNT" fill="#0099F7">
            <path d="M9.842918,8.68670192 C9.07468719,8.6879405 8.33771938,8.38257929 7.79548986,7.8383608 C7.25439948,7.28640341 6.94714875,6.56585364 6.94714875,5.79093266 C6.94642549,5.0228013 7.25170533,4.28602335 7.79548986,3.74350452 C8.3365712,3.19153809 9.06799702,2.89516341 9.842918,2.89516341 C10.6111488,2.89393386 11.3481166,3.19928603 11.8903461,3.74350452 C12.4423126,4.2845949 12.7386873,5.01601168 12.7386873,5.79093266 C12.7399258,6.55916347 12.4345646,7.29613128 11.8903461,7.8383608 C11.3492558,8.39304851 10.6205603,8.68670192 9.842918,8.68670192 M11.8903461,13.4069357 C12.4314365,13.9589022 12.7386873,14.6794429 12.7386873,15.4543639 C12.7399258,16.2226037 12.4345646,16.9595715 11.8903461,17.501792 C11.3492558,18.0537584 10.617839,18.3501331 9.842918,18.3501331 C9.07468719,18.3513717 8.33771938,18.0460105 7.79548986,17.501792 C7.25439948,16.9498346 6.94714875,16.2292939 6.94714875,15.4543639 C6.9459192,14.686133 7.25127138,13.9491652 7.79548986,13.4069357 C8.3365712,12.8549783 9.06799702,12.5586036 9.842918,12.5586036 C10.6205603,12.5613159 11.3492648,12.8549783 11.8903461,13.4069357 M12.3498616,8.28700926 C13.0214646,7.61540625 13.3858169,6.7317157 13.3858169,5.78005661 C13.3857626,4.94927268 13.0942067,4.1448426 12.5619491,3.50695265 L14.6229746,1.44592718 L14.1634591,1 L12.1024337,3.06102546 C11.4661801,2.53082018 10.6776618,2.23716677 9.842918,2.23716677 C7.88487601,2.2385048 6.298663,3.82688759 6.30000104,5.78492959 C6.30064293,6.72318121 6.6731771,7.62291913 7.3359744,8.28700926 C7.92328122,8.87431608 8.69004742,9.24138058 9.51391516,9.31207944 L9.51391516,11.9250623 C8.68823927,11.9935462 7.91494562,12.3575006 7.3359744,12.9501415 C5.95470672,14.3360471 5.95470672,16.5781231 7.3359744,17.9640378 C8.00756836,18.6356317 8.89125891,18.999984 9.842918,18.999984 C10.7832852,19.0028138 11.6858076,18.6298637 12.3498616,17.9640378 C13.0214646,17.2924348 13.3858169,16.4087442 13.3858169,15.4570851 C13.3858169,14.505426 13.0214646,13.6217445 12.3498616,12.9501415 C11.7625548,12.3628347 10.9957886,11.9957612 10.1719208,11.9250623 L10.1719208,9.31207944 C10.9977504,9.24416514 11.7712249,8.88012026 12.3498616,8.28700022" id="Sign"></path>
        </g>
    </g>
</svg>