<?xml version="1.0" encoding="UTF-8"?>
<svg width="20px" height="20px" viewBox="0 0 20 20" version="1.1" xmlns="http://www.w3.org/2000/svg" xmlns:xlink="http://www.w3.org/1999/xlink">
    <!-- Generator: sketchtool 49.3 (51167) - http://www.bohemiancoding.com/sketch -->
    <title>90C1817B-AE44-4B9F-B06C-745D8F7EFCBE</title>
    <desc>Created with sketchtool.</desc>
    <defs></defs>
    <g id="Coins" stroke="none" stroke-width="1" fill="none" fill-rule="evenodd">
        <g id="Coins/Golos-GOLOS" fill="#0099F7">
            <path d="M16.3184884,11.6396052 C17.9018052,12.2077366 17.7341599,13.9214442 17.6410236,14.5175164 C17.5478873,15.0856477 17.2405376,15.728288 17.2405376,15.728288 C17.2405376,15.728288 17.0728923,14.0984031 16.0483932,13.8189943 C14.6979171,13.4464491 12.9376413,14.9459433 10.6185479,16.3616148 C8.44847253,17.68415 7.44260068,18.159145 5.25389804,17.9542452 C3.26078159,17.7679726 3.01862726,15.9145606 3.01862726,15.9145606 C3.01862726,15.9145606 3.44705416,16.2684785 4.13626265,16.4081829 C4.38773061,16.4640647 4.6485122,16.5013192 4.91860742,16.5013192 C6.68819679,16.5013192 7.93622298,13.9586987 7.93622298,12.1797957 C7.92690935,12.1704821 7.92690935,12.1518548 7.91759572,12.1425412 C7.79651855,12.1332275 6.56711962,12.0307776 4.96517556,11.1646102 C4.47155326,10.894515 4.08969451,10.5778516 3.81028566,10.2611883 C3.17695894,9.55335251 3.01862726,8.87345765 3,8.81757588 C4.08969451,9.6464888 5.44948423,9.65580243 6.93035112,9.65580243 C10.4974707,9.65580243 12.7141143,7.25288634 12.7141143,3.67645309 C12.7141143,3.33184884 12.6861734,2.9872446 12.6302916,2.65195398 C13.3008729,3.24802619 14.1763539,4.04899822 14.1949812,6.5171097 C14.2322357,9.88864313 12.5278417,12.1704821 12.5278417,12.1704821 C12.5278417,12.1704821 14.7351716,11.0714739 16.3184884,11.6396052 Z M9.58473518,8.14699465 C7.98279112,8.99453482 4.65782583,8.70581234 4.65782583,8.70581234 L6.31565166,7.59749058 C5.65438405,7.010732 5.23527078,6.1538782 5.23527078,5.19457449 C5.23527078,3.43429875 6.65094228,2 8.39259076,2 C10.1249256,2 11.5405971,3.43429875 11.5312835,5.19457449 C11.5312835,6.52642333 10.7303115,7.67199961 9.58473518,8.14699465 Z" id="Sign"></path>
        </g>
    </g>
</svg>