<?xml version="1.0" encoding="UTF-8"?>
<svg width="20px" height="20px" viewBox="0 0 20 20" version="1.1" xmlns="http://www.w3.org/2000/svg" xmlns:xlink="http://www.w3.org/1999/xlink">
    <!-- Generator: sketchtool 49.3 (51167) - http://www.bohemiancoding.com/sketch -->
    <title>8CFBEAE6-05DC-431D-AC81-543A05EBE676</title>
    <desc>Created with sketchtool.</desc>
    <defs></defs>
    <g id="Coins" stroke="none" stroke-width="1" fill="none" fill-rule="evenodd">
        <g id="Coins/Golos-Gold-GBG" fill="#0099F7" fill-rule="nonzero">
            <path d="M6.25729852,16.50085 C7.35879767,17.13638 8.63693483,17.5 10,17.5 C12.4285736,17.5 14.5875471,16.3457043 15.9582149,14.5558183 C15.9012118,14.2222984 15.6841389,13.3041309 15.0024624,13.1182191 C13.899795,12.814035 12.4625251,14.038376 10.5689791,15.1942756 C8.8199265,16.2602218 7.99712213,16.6518593 6.25729852,16.50085 Z M4.39650768,14.9851835 C4.37138872,14.8886886 4.36362347,14.8292546 4.36362347,14.8292546 C4.36362347,14.8292546 4.71343519,15.1182295 5.27617577,15.2322986 C5.48150004,15.2779262 5.69442891,15.3083446 5.91496238,15.3083446 C7.35983686,15.3083446 8.37885359,13.2322881 8.37885359,11.779809 C8.37124899,11.7722044 8.37124899,11.7569952 8.36364439,11.7493906 C8.26478456,11.741786 7.26097703,11.6581354 5.9529854,10.9509074 C5.54994146,10.7303739 5.23815276,10.4718174 5.01001469,10.2132609 C4.49290172,9.63531113 4.36362347,9.08017515 4.34841427,9.03454753 C5.23815276,9.71135715 6.34842473,9.71896176 7.55755652,9.71896176 C10.4701193,9.71896176 12.2800147,7.75697431 12.2800147,4.83680695 C12.2800147,4.55543666 12.2572009,4.27406636 12.2115733,4.00030067 C12.7591046,4.48699523 13.4739373,5.14099105 13.4891465,7.15621071 C13.5195649,9.90907682 12.1279226,11.7722044 12.1279226,11.7722044 C12.1279226,11.7722044 13.9302134,10.8748613 15.2229958,11.3387421 C16.5157783,11.8026228 16.3788954,13.2018697 16.3028494,13.6885643 C16.265895,13.913986 16.1876375,14.1537741 16.1169457,14.3407337 C16.9878877,13.1156211 17.5,11.6176157 17.5,10 C17.5,5.85786438 14.1421356,2.5 10,2.5 C5.85786438,2.5 2.5,5.85786438 2.5,10 C2.5,11.9137448 3.21677457,13.660078 4.39650768,14.9851835 Z M10,18 C5.581722,18 2,14.418278 2,10 C2,5.581722 5.581722,2 10,2 C14.418278,2 18,5.581722 18,10 C18,14.418278 14.418278,18 10,18 Z M9.72486824,8.48701615 C8.41687661,9.17903498 5.70203351,8.9432923 5.70203351,8.9432923 L7.05565276,8.0383446 C6.51572598,7.55925465 6.17351887,6.85963121 6.17351887,6.07635716 C6.17351887,4.63908728 7.32941845,3.4679785 8.75147912,3.4679785 C10.1659352,3.4679785 11.3218348,4.63908728 11.3142302,6.07635716 C11.3142302,7.16381531 10.6602343,8.09918142 9.72486824,8.48701615 Z" id="Sign"></path>
        </g>
    </g>
</svg>