<?xml version="1.0" encoding="UTF-8"?>
<svg width="20px" height="20px" viewBox="0 0 20 20" version="1.1" xmlns="http://www.w3.org/2000/svg" xmlns:xlink="http://www.w3.org/1999/xlink">
    <!-- Generator: sketchtool 49.3 (51167) - http://www.bohemiancoding.com/sketch -->
    <title>A32447BA-1A56-4FF5-8AF9-AC492D493E4F</title>
    <desc>Created with sketchtool.</desc>
    <defs></defs>
    <g id="Coins" stroke="none" stroke-width="1" fill="none" fill-rule="evenodd">
        <g id="Coins/Gulden-NLG" fill="#0099F7">
            <path d="M10,16.0374853 C6.66562492,16.0374853 3.9625853,13.3344457 3.9625853,10.0000706 C3.9625853,6.66569554 6.66562492,3.96272656 10,3.96272656 C11.67478,3.96272656 13.190084,4.64470164 14.2837443,5.74598971 L13.3411553,6.6616698 C12.4864264,5.80602272 11.3050472,5.27660213 9.99992937,5.27660213 C7.39117691,5.27660213 5.27646088,7.39145942 5.27646088,10.0000706 C5.27646088,12.6088937 7.39124754,14.7236098 9.99992937,14.7236098 C12.3898085,14.7236098 14.3649654,12.9484687 14.6793972,10.6448252 L9.99992937,10.6448252 L9.99992937,9.34761766 L16.0021718,9.34761766 C16.0251256,9.56190022 16.0372734,9.77957288 16.0372734,10.0000706 C16.0374147,13.3343751 13.3343045,16.0374853 10,16.0374853 M10,2 C5.58171112,2 2,5.58171112 2,10 C2,14.4182889 5.58171112,18 10,18 C14.4182183,18 18,14.4182183 18,10 C18,5.58171112 14.4182183,2 10,2" id="Sign"></path>
        </g>
    </g>
</svg>