<?xml version="1.0" encoding="UTF-8"?>
<svg width="20px" height="20px" viewBox="0 0 20 20" version="1.1" xmlns="http://www.w3.org/2000/svg" xmlns:xlink="http://www.w3.org/1999/xlink">
    <!-- Generator: sketchtool 49.3 (51167) - http://www.bohemiancoding.com/sketch -->
    <title>2385BED3-74B1-464C-AEF0-5CFF808DE66D</title>
    <desc>Created with sketchtool.</desc>
    <defs></defs>
    <g id="Coins" stroke="none" stroke-width="1" fill="none" fill-rule="evenodd">
        <g id="Coins/Humaniq-HMQ" fill="#0099F7">
            <path d="M4,2 L16,2 C17.1045695,2 18,2.8954305 18,4 L18,16 C18,17.1045695 17.1045695,18 16,18 L4,18 C2.8954305,18 2,17.1045695 2,16 L2,4 C2,2.8954305 2.8954305,2 4,2 Z M14.8487523,11.7664234 C14.8487523,8.53722628 12.9392633,6.63357664 10.1013071,6.63357664 C8.67065014,6.63357664 7.72466474,7.21167883 6.79035817,8.15766423 L6.79035817,4 L5.30714649,4 L5.30714649,7.37518248 L5.30714649,16 L6.79619759,16 L6.79619759,13.3956204 L6.79619759,13.0452555 L6.79619759,11.3576642 C6.79619759,9.57664234 8.22685452,8.11094891 10.1071465,8.11094891 C12.1451027,8.11094891 13.3655407,9.7810219 13.3655407,11.8189781 L13.3655407,15.9941606 L14.8545918,15.9941606 L14.8487523,11.7664234 Z" id="Sign"></path>
        </g>
    </g>
</svg>