<?xml version="1.0" encoding="UTF-8"?>
<svg width="20px" height="20px" viewBox="0 0 20 20" version="1.1" xmlns="http://www.w3.org/2000/svg" xmlns:xlink="http://www.w3.org/1999/xlink">
    <!-- Generator: sketchtool 49.3 (51167) - http://www.bohemiancoding.com/sketch -->
    <title>91FA71D8-0DBF-4235-8AD5-BA1AD1F8AD21</title>
    <desc>Created with sketchtool.</desc>
    <defs></defs>
    <g id="Coins" stroke="none" stroke-width="1" fill="none" fill-rule="evenodd">
        <g id="Coins/iExec-RLC" fill="#0099F7">
            <path d="M14.1341935,11.5406452 C13.883871,11.5406452 13.6516129,11.476129 13.4477419,11.3625806 C12.916129,11.0503226 12.5548387,11.3419355 12.5419355,11.9303226 C12.5419355,12.7148387 11.9045161,13.3548387 11.1174194,13.3548387 C10.8619355,13.3548387 10.6219355,13.2877419 10.4154839,13.1690323 C9.92516129,12.9109677 9.56387097,13.1354839 9.52258065,13.8090323 C9.48903226,14.5651613 8.86451613,15.1664516 8.10064516,15.1664516 C7.31354839,15.1664516 6.67612903,14.5290323 6.67612903,13.7419355 C6.67612903,12.9548387 7.31354839,12.3174194 8.10064516,12.3174194 C8.35354839,12.3174194 8.59354839,12.3845161 8.8,12.5032258 C9.29548387,12.7509677 9.69290323,12.4696774 9.69290323,11.9303226 C9.69290323,11.1432258 10.3303226,10.5058065 11.1174194,10.5058065 C11.3625806,10.5058065 11.5948387,10.5677419 11.796129,10.676129 C12.3019355,10.9496774 12.7019355,10.6709677 12.7096774,10.116129 C12.7096774,9.32903226 13.3470968,8.6916129 14.1341935,8.6916129 C14.9212903,8.6916129 15.5587097,9.32903226 15.5587097,10.116129 C15.5587097,10.9032258 14.9212903,11.5406452 14.1341935,11.5406452 M6.85677419,5.47096774 C6.85677419,5.34967742 6.95483871,5.25419355 7.07612903,5.25419355 C7.15612903,5.25419355 7.22580645,5.29548387 7.26193548,5.36 L7.87612903,5.10709677 C7.87096774,5.08903226 7.8683871,5.0683871 7.8683871,5.05032258 C7.8683871,4.9316129 7.96387097,4.83354839 8.08516129,4.83354839 C8.20387097,4.83354839 8.30193548,4.9316129 8.30193548,5.05032258 C8.30193548,5.0683871 8.29935484,5.08645161 8.29419355,5.10451613 L8.89806452,5.35225806 C8.93677419,5.28774194 9.00645161,5.24645161 9.08645161,5.24645161 C9.20774194,5.24645161 9.30322581,5.34193548 9.30322581,5.46322581 C9.30322581,5.54322581 9.26193548,5.61290323 9.19741935,5.64903226 L9.45290323,6.26580645 C9.47096774,6.26064516 9.48903226,6.25806452 9.50967742,6.25806452 C9.6283871,6.25806452 9.72645161,6.35354839 9.72645161,6.47483871 C9.72645161,6.59354839 9.6283871,6.6916129 9.50967742,6.6916129 C9.48903226,6.6916129 9.47096774,6.68903226 9.45290323,6.68387097 L9.19225806,7.31096774 C9.25419355,7.34709677 9.29548387,7.41677419 9.29548387,7.49677419 C9.29548387,7.61548387 9.19741935,7.71354839 9.07870968,7.71354839 C9.0116129,7.71354839 8.95225806,7.68258065 8.91096774,7.63354839 C8.67870968,7.80129032 8.39225806,7.89935484 8.08516129,7.89935484 C7.29806452,7.89935484 6.66064516,7.26193548 6.66064516,6.47483871 C6.66064516,6.16 6.76129032,5.87096774 6.93419355,5.63612903 C6.88774194,5.59483871 6.85677419,5.53548387 6.85677419,5.47096774 M11.1251613,6.87225806 C11.9096774,6.87225806 12.5496774,7.50967742 12.5496774,8.29419355 C12.5496774,9.08129032 11.9096774,9.71870968 11.1251613,9.71870968 C10.8645161,9.71870968 10.6322581,9.63096774 10.4129032,9.53032258 C9.88903226,9.30322581 9.53032258,9.50967742 9.53032258,10.1083871 C9.53032258,10.8954839 8.89290323,11.5329032 8.10580645,11.5329032 C7.32129032,11.5329032 6.68387097,10.8954839 6.68387097,10.1083871 C6.68387097,9.32129032 7.32129032,8.68387097 8.10580645,8.68387097 C8.4,8.68387097 8.67354839,8.77419355 8.90064516,8.92645161 C9.3083871,9.17419355 9.69548387,8.93419355 9.70064516,8.29419355 C9.70580645,7.50967742 10.3380645,6.87225806 11.1251613,6.87225806 M10,2 C5.58172043,2 2,5.58172043 2,10 C2,14.4182796 5.58172043,18 10,18 C14.4182796,18 18,14.4182796 18,10 C18,5.58172043 14.4182796,2 10,2" id="Sign"></path>
        </g>
    </g>
</svg>