<?xml version="1.0" encoding="UTF-8"?>
<svg width="20px" height="20px" viewBox="0 0 20 20" version="1.1" xmlns="http://www.w3.org/2000/svg" xmlns:xlink="http://www.w3.org/1999/xlink">
    <!-- Generator: sketchtool 49.3 (51167) - http://www.bohemiancoding.com/sketch -->
    <title>D73100DB-EB01-4C98-A355-6A0430601BC4</title>
    <desc>Created with sketchtool.</desc>
    <defs></defs>
    <g id="Coins" stroke="none" stroke-width="1" fill="none" fill-rule="evenodd">
        <g id="Coins/IOTA-MIOTA" fill="#0099F7">
            <path d="M7.32576521,3.809707 C7.49829228,3.75604305 7.69539443,3.79140107 7.83808034,3.90274122 C7.99756757,4.02260741 8.08358034,4.2297402 8.05925603,4.42759464 C8.03994704,4.6186784 7.91481476,4.79346237 7.74203692,4.87646595 C7.52136276,4.98630149 7.2319787,4.93715134 7.06572078,4.75283826 C6.93381781,4.61266002 6.88216,4.40477493 6.93080862,4.21870649 C6.97995877,4.0263689 7.13668758,3.8673832 7.32576521,3.809707 Z M8.90384124,3.9554021 C9.19748833,3.88619065 9.4994107,4.15099965 9.48035248,4.44916053 C9.48737393,4.73503387 9.20275442,4.97225859 8.92315022,4.92812376 C8.62574164,4.89803183 8.41559966,4.55824378 8.52142295,4.27838882 C8.57859762,4.11238167 8.73206646,3.98699862 8.90384124,3.9554021 Z M5.59824012,4.01633575 C5.94404656,3.92605996 6.32822021,4.1660431 6.40219621,4.51485874 C6.49523043,4.86818816 6.2454674,5.26414781 5.88411347,5.32608704 C5.5237626,5.41260134 5.13281826,5.14277703 5.0844204,4.776157 C5.02323348,4.43887661 5.26371816,4.08629949 5.59824012,4.01633575 Z M10.1070144,4.38496692 C10.2883183,4.33105221 10.5027233,4.41430655 10.5887361,4.58532902 C10.6948101,4.77189899 10.629611,5.03294649 10.4460502,5.14503894 C10.2311436,5.2932417 9.89862781,5.18465998 9.81888419,4.93439542 C9.7278561,4.71171513 9.87104354,4.4353709 10.1070144,4.38496692 Z M11.0629323,4.96749654 C11.2291902,4.91759409 11.4277969,4.99583311 11.4962561,5.15958337 C11.5900426,5.34565181 11.4857239,5.59742096 11.2856125,5.65835712 C11.0982903,5.72932393 10.8685885,5.61346999 10.8156769,5.42012934 C10.7549915,5.23431166 10.871347,5.01413904 11.0629323,4.96749654 Z M7.62693529,5.54375702 C7.77338268,5.50739594 7.93512681,5.52720646 8.06452212,5.60669931 C8.23554459,5.70800881 8.3471355,5.90410789 8.33936175,6.10396847 C8.34186941,6.2774986 8.25736124,6.44877184 8.11918912,6.5540936 C7.94540822,6.69377031 7.68912528,6.71207624 7.49402926,6.60625295 C7.28288421,6.4971697 7.15850423,6.24665437 7.19812527,6.01243884 C7.23373406,5.79051085 7.41027339,5.60118245 7.62693529,5.54375702 Z M11.7377488,5.63829584 C11.9067652,5.57359819 12.1216717,5.67365386 12.157782,5.85646234 C12.2147059,6.05281218 12.0356589,6.26671566 11.8320369,6.24289288 C11.6512345,6.24013445 11.5082979,6.05582138 11.5436559,5.87978358 C11.5576988,5.77220493 11.6359378,5.67540922 11.7377488,5.63829584 Z M9.18369369,5.69421667 C9.34042249,5.66211861 9.51094343,5.71653486 9.62027745,5.83314109 C9.77926315,5.98886683 9.80534282,6.25693578 9.68321974,6.44225192 C9.57890104,6.61151903 9.36600063,6.70104253 9.17165691,6.66091995 C8.94671973,6.62255274 8.76842504,6.4068939 8.77569726,6.178446 C8.76441278,5.94347817 8.95750267,5.73308542 9.18369369,5.69421667 Z M5.82092292,5.76818515 C6.04034325,5.7012306 6.2928647,5.74787309 6.46639484,5.90084041 C6.72317931,6.11499465 6.77232947,6.52574951 6.57522732,6.79557382 C6.37586828,7.09498853 5.92398778,7.1692153 5.63610831,6.95581335 C5.37129932,6.77751866 5.27726204,6.39961416 5.42095101,6.11574695 C5.49944079,5.95199669 5.64689125,5.82134756 5.82092292,5.76818515 Z M10.3868694,6.12202613 C10.6087974,6.05557312 10.8638265,6.20327435 10.907209,6.43247455 C10.9653868,6.66543625 10.7928597,6.92472839 10.5513719,6.94804963 C10.3091319,6.98867374 10.0626288,6.77878252 10.0734118,6.53127639 C10.0606227,6.34144646 10.2055655,6.16616096 10.3868694,6.12202613 Z M4.01766146,6.44400478 C4.35870334,6.39686075 4.71479119,6.60399354 4.83917117,6.92572644 C4.95703123,7.20282297 4.89233358,7.54261102 4.68545155,7.76027599 C4.4321778,8.03561715 3.97578352,8.08903033 3.66934736,7.8718669 C3.37745563,7.67802471 3.25031722,7.27805279 3.37695409,6.95105381 C3.47349904,6.67947414 3.73128658,6.47610284 4.01766146,6.44400478 Z M11.3109424,6.71683578 C11.5115553,6.63282914 11.7688413,6.76448133 11.8019424,6.98340013 C11.8483342,7.1870222 11.6888469,7.40468716 11.4789557,7.41496857 C11.284612,7.44054671 11.0902683,7.28105948 11.0834976,7.0842081 C11.0661947,6.92898389 11.1619874,6.76824282 11.3109424,6.71683578 Z M8.37848628,7.47114268 C8.53446278,7.42098947 8.71125288,7.44456148 8.84992653,7.53107578 C9.00565227,7.62586536 9.1097202,7.79964626 9.12100467,7.98145168 C9.13504757,8.17378927 9.04326718,8.36963759 8.88754144,8.48298386 C8.73933868,8.59281941 8.53772274,8.6239144 8.36293878,8.56523514 C8.12069874,8.48824995 7.94992703,8.23522696 7.97400057,7.98120091 C7.98428198,7.74848998 8.16132284,7.54311255 8.37848628,7.47114268 Z M9.93323604,7.62035352 C10.1682039,7.55665894 10.4292514,7.69683718 10.508995,7.92553585 C10.575448,8.10458284 10.5303101,8.32074321 10.3901319,8.45214464 C10.2266324,8.61539337 9.94527281,8.63595619 9.75870284,8.50104403 C9.57739895,8.37641329 9.50417526,8.12288877 9.58542347,7.91976823 C9.6428489,7.77056241 9.77951642,7.6589715 9.93323604,7.62035352 Z M11.1374098,8.05115964 C11.3016616,7.99348343 11.5005191,8.04288435 11.6065931,8.18406566 C11.7495298,8.3568435 11.7216948,8.63970765 11.542397,8.77662594 C11.3465487,8.94639458 11.0087668,8.87567854 10.8974266,8.64146301 C10.7785635,8.42404881 10.8954205,8.11911725 11.1374098,8.05115964 Z M6.64944907,7.67476726 C6.85959105,7.62586787 7.09180045,7.68053488 7.25254152,7.82597921 C7.52512426,8.05869014 7.55270853,8.51583672 7.30545316,8.77663346 C7.07650372,9.04821313 6.62537552,9.07504511 6.36457879,8.83506196 C6.1403939,8.64748892 6.07243629,8.30694857 6.19731781,8.04464724 C6.28082291,7.8608357 6.45234692,7.71965439 6.64944907,7.67476726 Z M4.76620074,8.36913605 C5.16617266,8.29892155 5.59071965,8.58504566 5.66218798,8.98752523 C5.75045765,9.37796804 5.48865785,9.80477192 5.09921811,9.9003138 C4.73335039,10.0086448 4.31055876,9.80452116 4.16937745,9.4499379 C4.01340094,9.10337917 4.15633761,8.65601246 4.48860268,8.46944249 C4.57411392,8.41954004 4.66840197,8.38493432 4.76620074,8.36913605 Z M2.60334321,9.71775107 C2.96996324,9.58158509 3.41281615,9.71323728 3.64577785,10.0269457 C3.91735753,10.3709967 3.88525947,10.9073854 3.57807101,11.2190877 C3.29169613,11.5282822 2.78640246,11.5919768 2.43181921,11.3640305 C2.19108376,11.2175831 2.02708274,10.9547802 2,10.6744237 L2,10.4893583 C2.03209806,10.1440534 2.27534117,9.83109735 2.60334321,9.71775107 Z M17.2821821,10.4306966 C17.2421347,10.6068849 17.1127143,10.7597017 16.9448515,10.8273333 C16.7611904,10.9052464 16.5388361,10.8758315 16.3798254,10.7555892 C16.2241749,10.6430955 16.1356795,10.447197 16.1504747,10.2560882 C16.1660724,10.0100867 16.3536705,9.78434702 16.5964873,9.73286474 C16.7839098,9.68900576 16.9896885,9.74853763 17.1262808,9.88390116 C17.268089,10.0228507 17.3270692,10.2381835 17.2821821,10.4306966 Z M16.3650001,11.7230974 C16.2776833,12.0118796 15.8971709,12.1403722 15.648762,11.9743901 C15.3978705,11.8371458 15.3353044,11.4719552 15.5136743,11.2521587 C15.6887842,11.0099186 16.0881543,10.9984336 16.2772319,11.2302919 C16.3922082,11.3629722 16.4237796,11.5586199 16.3650001,11.7230974 Z M17.9694442,8.83234365 C17.8742032,9.17682103 17.4739554,9.38891899 17.1350451,9.2780553 C16.7826936,9.18141005 16.5652794,8.76681847 16.6928441,8.42309339 C16.7986424,8.06793338 17.2281044,7.86491315 17.5695976,8.00684676 C17.8921079,8.12297654 18.0765965,8.50782726 17.9694442,8.83234365 Z M15.3901344,12.5488125 C15.3458992,12.7326992 15.1663758,12.8764885 14.9752669,12.865179 C14.7606613,12.8634236 14.5674711,12.6761515 14.562506,12.4611196 C14.5420184,12.2008745 14.8026646,11.9675868 15.0591733,12.0240593 C15.2975014,12.0569348 15.4648125,12.3193615 15.3901344,12.5488125 Z M14.4068705,13.0838946 C14.3666978,13.2527605 14.1994368,13.3853907 14.0234241,13.3625208 C13.8154136,13.3504088 13.6498829,13.1339225 13.6974532,12.9302252 C13.7299776,12.7325713 13.9453606,12.5918916 14.1391777,12.6430228 C14.3303868,12.683697 14.4625656,12.8947418 14.4068705,13.0838946 Z M15.6307996,9.82196444 C15.5888464,9.96690724 15.4906214,10.0969295 15.356963,10.1690498 C15.1835583,10.2662217 14.957944,10.2644663 14.7889026,10.1575647 C14.6375151,10.0727305 14.5316667,9.91374483 14.509825,9.7413933 C14.4760719,9.52102006 14.588716,9.29008957 14.7780946,9.17431086 C14.9783313,9.04629477 15.257434,9.0642747 15.4402424,9.21596311 C15.6143995,9.35804718 15.6897296,9.60570377 15.6307996,9.82196444 Z M13.4881588,13.3314885 C13.459421,13.5101594 13.2651024,13.6459743 13.0888138,13.5855647 C12.8903826,13.5363644 12.7950664,13.2742136 12.9177663,13.1099869 C13.0107754,12.9549131 13.2419065,12.9236426 13.3765178,13.0425057 C13.4625556,13.1085575 13.5070917,13.2247876 13.4881588,13.3314885 Z M14.7201751,11.0935366 C14.6693699,11.2452501 14.536815,11.3655175 14.3811143,11.4016529 C14.1666591,11.4611597 13.9216356,11.349318 13.8225078,11.1507614 C13.7283451,10.9756264 13.7576095,10.7465516 13.8897632,10.5984993 C14.0357342,10.4231135 14.3117023,10.3769474 14.50572,10.4977665 C14.7146834,10.6057966 14.7999438,10.8783291 14.7201751,11.0935366 Z M16.3419998,8.14677675 C16.2899408,8.37020933 16.1229807,8.56530535 15.9036356,8.63877982 C15.5896012,8.75360561 15.2095401,8.59020642 15.0748788,8.28439718 C14.9157677,7.9617866 15.0780635,7.53357842 15.4070435,7.39146928 C15.6940704,7.25174242 16.0681883,7.3598226 16.2417937,7.62646218 C16.3441062,7.77644538 16.3832508,7.96953527 16.3419998,8.14677675 Z M13.7468341,11.9201344 C13.6930698,12.1454728 13.4374138,12.2920957 13.2173415,12.2147344 C12.9866116,12.1482813 12.8487655,11.8690031 12.9496236,11.6483791 C13.0359373,11.4184016 13.3411196,11.3103465 13.5498824,11.4437289 C13.7205287,11.5278359 13.7995451,11.7411375 13.7468341,11.9201344 Z M16.6612551,6.24769004 C16.5310825,6.56641374 16.1733396,6.77066272 15.8325986,6.71699877 C15.5337606,6.68008601 15.2721865,6.45374453 15.187553,6.16563937 C15.0762881,5.80844815 15.2588709,5.38675989 15.6004143,5.23048247 C15.9144486,5.0751078 16.3242757,5.16560928 16.5437211,5.43911985 C16.7303161,5.65879095 16.7770589,5.98380888 16.6612551,6.24769004 Z M12.7689015,12.4214935 C12.7410163,12.6372025 12.4981243,12.7938059 12.2920949,12.7127082 C12.0926606,12.6507689 11.9842795,12.403664 12.0805987,12.2168935 C12.1559038,12.0359156 12.391323,11.9476961 12.5650537,12.0405297 C12.7080406,12.1033716 12.7990937,12.2668461 12.7689015,12.4214935 Z M13.5863388,9.5060092 C13.5515324,9.66612335 13.4425244,9.80725451 13.2981333,9.88388862 C13.1380442,9.97110507 12.9355005,9.97403903 12.7725526,9.89264036 C12.5990727,9.80838295 12.4756456,9.63079041 12.4556345,9.43920511 C12.4348961,9.25592018 12.5090727,9.06588964 12.6474454,8.94406747 C12.83552,8.773045 13.1400504,8.75215618 13.347785,8.90033386 C13.5439844,9.02589244 13.6329311,9.28202493 13.5863388,9.5060092 Z M12.6778082,10.7764654 C12.6151167,11.0117091 12.3629714,11.1673095 12.1250947,11.12167 C11.9368696,11.0893964 11.7724674,10.9419711 11.7290347,10.7547993 C11.6697536,10.5314921 11.7930051,10.2777418 12.0032725,10.1839553 C12.2020046,10.0895419 12.458087,10.1532866 12.5930994,10.3254125 C12.6934059,10.4499178 12.7214415,10.6241 12.6778082,10.7764654 Z M11.7013576,11.6024263 C11.6689085,11.7734487 11.5264734,11.9207487 11.3511377,11.9417629 C11.1299871,11.9788262 10.899182,11.8129444 10.8706197,11.5891607 C10.8218959,11.334583 11.0524252,11.0777734 11.3108898,11.0988378 C11.5585965,11.1049816 11.7638736,11.3589825 11.7013576,11.6024263 Z M14.2769561,7.90786437 C14.2139135,8.11421978 14.0502134,8.28772484 13.8437828,8.35390201 C13.5057751,8.47309114 13.0963744,8.26778894 12.9946888,7.92308587 C12.8744715,7.58883975 13.0774165,7.18505619 13.4158003,7.07970935 C13.6904894,6.97975399 14.0192187,7.0916709 14.1835708,7.33122774 C14.3007538,7.49562999 14.3369143,7.71482463 14.2769561,7.90786437 Z M14.6202599,5.93025276 C14.480508,6.31154261 14.0201014,6.53542657 13.636003,6.39549909 C13.2539358,6.27613443 13.0158835,5.8356638 13.1284524,5.450788 C13.2181264,5.07990495 13.6067135,4.81642502 13.984292,4.87201986 C14.362347,4.9107883 14.6777606,5.25875133 14.6726449,5.6397904 C14.6729459,5.73879285 14.6556179,5.83772008 14.6202599,5.93025276 Z M14.53764,3.38273008 C14.4716634,3.76820772 14.1357372,4.08540174 13.7475011,4.12968704 C13.3136758,4.19220302 12.865632,3.89552166 12.7499285,3.47345725 C12.6259749,3.07067676 12.8241804,2.60151848 13.199176,2.40900535 C13.4465567,2.27411827 13.7561776,2.26396225 14.0123352,2.38107001 L14.1724744,2.47385346 C14.455163,2.67474218 14.6039927,3.04208943 14.53764,3.38273008 Z M6.57982135,15.7235011 C6.44709086,15.6009016 6.37920848,15.4125261 6.40428509,15.2332785 C6.42838371,15.0352235 6.56480047,14.8572046 6.74831109,14.7793668 C6.92344613,14.7005761 7.13739976,14.7215652 7.29563316,14.8297206 C7.50108582,14.9659368 7.60317269,15.2411526 7.52666396,15.4772739 C7.47116942,15.661587 7.31694828,15.8102411 7.13148168,15.8611216 C6.94032269,15.9147103 6.7242877,15.8584384 6.57982135,15.7235011 Z M5.91715942,14.2839107 C5.71042786,14.0641894 5.78884241,13.6703111 6.05661045,13.5377813 C6.30068108,13.3888011 6.64841842,13.5167169 6.74997869,13.7809491 C6.87257823,14.053557 6.68332506,14.4054319 6.38804799,14.4536793 C6.21569645,14.4871315 6.03038031,14.4168919 5.91715942,14.2839107 Z M7.62234376,17.1164165 C7.37130183,16.8620394 7.38710009,16.4093564 7.65223508,16.170903 C7.91172783,15.9137173 8.37953197,15.9320984 8.61379765,16.21411 C8.86887692,16.4829563 8.83061001,16.9564277 8.53726384,17.1816157 C8.27573989,17.4032177 7.85016475,17.3711698 7.62234376,17.1164165 Z M5.68775359,13.0271162 C5.55043408,12.8970438 5.5153519,12.6697494 5.62047305,12.5097607 C5.72902969,12.3246201 5.98771999,12.2505939 6.17657193,12.3535334 C6.41236728,12.4655757 6.48453776,12.8078463 6.30764736,13.0020145 C6.16029721,13.1921704 5.84937233,13.2063136 5.68775359,13.0271162 Z M5.71443259,11.9080123 C5.58809664,11.7889486 5.55657534,11.5778286 5.66417907,11.4366975 C5.77845318,11.2624401 6.04865364,11.2269316 6.20147049,11.3697931 C6.35656932,11.4965553 6.3710636,11.753415 6.23005783,11.8959003 C6.09945885,12.0413447 5.85059858,12.050623 5.71443259,11.9080123 Z M7.93111706,14.5958361 C7.82642222,14.4871792 7.76272763,14.337196 7.76689035,14.1853822 C7.76914725,13.986625 7.88319566,13.7919553 8.06018637,13.6987706 C8.20921666,13.6098489 8.39979889,13.597436 8.56008857,13.6644407 C8.76794858,13.7451372 8.9119134,13.9579624 8.91778132,14.1798403 C8.92884011,14.4172154 8.77406728,14.6501771 8.55138699,14.732955 C8.34139546,14.8130497 8.08914985,14.7547717 7.93111706,14.5958361 Z M5.95807943,10.9882349 C5.81755012,10.8742116 5.79678668,10.6380651 5.93706523,10.5153904 C6.07867285,10.3679399 6.35343725,10.416087 6.43458516,10.6043371 C6.52257898,10.7623197 6.43438455,10.9782544 6.26426483,11.0356297 C6.1640587,11.0772318 6.04110809,11.0578726 5.95807943,10.9882349 Z M7.28323278,13.1723348 C7.17708349,13.0526442 7.13899212,12.8777348 7.18530862,12.7247675 C7.24070285,12.5092341 7.45984733,12.3526306 7.68139918,12.3657708 C7.88015638,12.3714882 8.06411838,12.5111399 8.12650899,12.6995154 C8.20572599,12.9135191 8.10807768,13.1757452 7.90656205,13.2836248 C7.7087076,13.4108635 7.42998109,13.3487989 7.28323278,13.1723348 Z M9.02829143,16.047832 C8.86062922,15.8912536 8.77479199,15.6492393 8.82053173,15.4224966 C8.87763116,15.0930401 9.20881794,14.8451327 9.54105793,14.8809672 C9.90002959,14.9039624 10.190191,15.2582197 10.149266,15.6142323 C10.1272237,15.9327053 9.84694241,16.2030562 9.52924685,16.2205095 C9.34819373,16.2343769 9.16132284,16.1719863 9.02829143,16.047832 Z M7.05230981,11.916423 C6.88382007,11.7574373 6.88427145,11.4627119 7.06108662,11.3105721 C7.23376415,11.1437375 7.54458872,11.163548 7.68549419,11.3610263 C7.84177161,11.5505302 7.78319265,11.8689279 7.56344633,11.9833274 C7.40543862,12.0893012 7.1811785,12.0513853 7.05230981,11.916423 Z M10.5150309,17.2717987 C10.3037103,16.9999933 10.3051146,16.5880348 10.5215759,16.3194894 C10.7026541,16.0789044 11.029302,15.9650817 11.3212188,16.0354466 C11.6863092,16.1171713 11.9606974,16.4857473 11.9258159,16.8597148 C11.9038237,17.2094081 11.6209846,17.5194553 11.2744509,17.5732446 C10.990985,17.6253789 10.6859782,17.5037824 10.5150309,17.2717987 Z M7.10555497,10.8187471 C6.93250129,10.6869946 6.91793178,10.3983378 7.09098546,10.2602409 C7.24415339,10.1182822 7.51239788,10.1475968 7.6262206,10.3242364 C7.74551003,10.4797866 7.70453485,10.7278444 7.53742433,10.8320879 C7.41164006,10.9246707 7.22454348,10.9220627 7.10555497,10.8187471 Z M9.22472905,12.9814692 C9.10333318,12.8714581 9.03537557,12.7065544 9.04096766,12.5431803 C9.04523068,12.3609485 9.14370652,12.1839328 9.29554539,12.0832752 C9.45510786,11.9749694 9.67059116,11.9565631 9.84660388,12.0347771 C10.0158208,12.1082265 10.143536,12.2673125 10.1800977,12.4480145 C10.2345139,12.696298 10.1007302,12.9706863 9.86867129,13.0768105 C9.66198988,13.1842387 9.39562614,13.1335589 9.22472905,12.9814692 Z M8.57676702,11.5603176 C8.40413965,11.3886682 8.39506192,11.0924884 8.55327024,10.9091032 C8.67511748,10.7620539 8.8849084,10.6930932 9.06879517,10.7488135 C9.29190176,10.8088218 9.45036085,11.0422098 9.42676376,11.2712345 C9.4094609,11.4905796 9.22650196,11.6807104 9.00996545,11.7118806 C8.85203296,11.7367316 8.68705395,11.6741654 8.57676702,11.5603176 Z M8.34794798,10.302031 C8.21589456,10.1886095 8.15927158,9.99168293 8.22853317,9.82923666 C8.30669696,9.6190696 8.56561295,9.5017863 8.77382403,9.5886266 C9.01874727,9.67338554 9.12637608,10.0012873 8.97917638,10.2147895 C8.85028261,10.4264361 8.52777235,10.4776425 8.34794798,10.302031 Z M10.2653983,14.3771882 C10.117998,14.2196318 10.049263,13.9911839 10.0948774,13.7792615 C10.1601768,13.4268599 10.5423193,13.1744388 10.8917869,13.2582197 C11.2414551,13.3207608 11.4902151,13.6980634 11.4127284,14.0438949 C11.3623244,14.3318246 11.1013772,14.5609245 10.8117675,14.5838696 C10.6108286,14.6034293 10.402793,14.5254661 10.2653983,14.3771882 Z M11.8081965,15.6611532 C11.54745,15.3498271 11.5830337,14.8391168 11.8958894,14.5760381 C12.1899127,14.3044083 12.6904418,14.3177992 12.9678643,14.6073337 C13.2445847,14.8700614 13.2791403,15.3382667 13.0426177,15.6377818 C12.8204139,15.9461238 12.3615119,16.0459537 12.0338359,15.8514345 C11.9478733,15.8023345 11.8707627,15.7379628 11.8081965,15.6611532 Z M14.0573953,16.8602389 C13.7562002,16.6107768 13.6488472,16.161429 13.8040965,15.8028335 C13.9663171,15.3956395 14.4469354,15.1553053 14.8704542,15.2655421 C15.2813846,15.3590026 15.5891499,15.7647923 15.5689632,16.1858536 C15.5624683,16.4675643 15.4168485,16.7409745 15.187573,16.9045743 L15.0272834,16.9970819 C14.7121707,17.1418993 14.3195211,17.0876586 14.0573953,16.8602389 Z" id="Sign"></path>
        </g>
    </g>
</svg>