<?xml version="1.0" encoding="UTF-8"?>
<svg width="20px" height="20px" viewBox="0 0 20 20" version="1.1" xmlns="http://www.w3.org/2000/svg" xmlns:xlink="http://www.w3.org/1999/xlink">
    <!-- Generator: sketchtool 49.3 (51167) - http://www.bohemiancoding.com/sketch -->
    <title>8E5AFCE0-8D8B-4ABB-B829-CD0AFF1DA72D</title>
    <desc>Created with sketchtool.</desc>
    <defs></defs>
    <g id="Coins" stroke="none" stroke-width="1" fill="none" fill-rule="evenodd">
        <g id="Coins/Komodo-KMD" fill="#0099F7">
            <path d="M14.9322525,10.2114369 C14.4797199,11.3295867 14.0019419,12.4378503 13.5449958,13.5548821 C12.3598782,14.0414282 11.1758198,14.533506 9.99064334,15.0201109 C8.80664381,14.5269151 7.62258544,14.0370735 6.43964515,13.5417004 C6.01235785,12.5048181 5.58948406,11.4657585 5.15231048,10.4333485 C5.0798111,10.2312095 4.9425213,10.0104159 5.05786121,9.7962132 C5.50709841,8.68253571 5.99805805,7.58415842 6.42864078,6.46265429 C7.6148765,5.94974475 8.815412,5.46973063 10.0104159,4.97547556 C11.1868242,5.46537596 12.3598782,5.96180837 13.5406411,6.43958631 C13.9876422,7.46987775 14.396275,8.51664632 14.8399806,9.54911509 C14.91248,9.75890427 15.0519471,9.99064334 14.9322525,10.2114369 M17.8341694,9.60072382 C17.9132597,9.79950863 18.0329543,10.0203022 17.9066688,10.227914 C17.1850293,11.9622497 16.4622718,13.6965854 15.7439277,15.4319803 C15.6549512,15.753814 15.283745,15.7933591 15.0267018,15.9208215 C13.3538611,16.610566 11.6755476,17.2860695 10.0126521,18 C8.11466318,17.2289291 6.22985597,16.4282583 4.33622174,15.6484192 C3.55967811,13.7558442 2.76448001,11.8689185 2,9.97087079 C2.77872096,8.10583614 3.57174172,6.2463331 4.3197446,4.37029409 C6.20237447,3.54320098 8.11684051,2.787548 10.0170068,2 C11.8919277,2.77983905 13.7635532,3.56844629 15.6440057,4.33516249 C16.395304,6.08044371 17.0916393,7.85102909 17.8341694,9.60072382 Z M10.0181366,7.02944993 C9.30750151,7.31173848 8.60010298,7.60609065 7.89494064,7.90262016 C7.6302473,8.59136422 7.30847248,9.25915878 7.06237477,9.95443485 C7.25350948,10.6903153 7.62918806,11.3768232 7.89717682,12.0918129 C8.60339841,12.3851059 9.30420608,12.6915805 10.0181366,12.9661601 C10.7024083,12.6652171 11.395507,12.3884013 12.0874877,12.1061127 C12.3675401,11.4174275 12.6849602,10.7441602 12.9342945,10.0444706 C12.7465141,9.30417666 12.3642446,8.61331411 12.0918423,7.89608815 C11.3988025,7.61162226 10.7057037,7.32603828 10.0181366,7.02944993 Z" id="Sign"></path>
        </g>
    </g>
</svg>