<?xml version="1.0" encoding="UTF-8"?>
<svg width="20px" height="20px" viewBox="0 0 20 20" version="1.1" xmlns="http://www.w3.org/2000/svg" xmlns:xlink="http://www.w3.org/1999/xlink">
    <!-- Generator: sketchtool 49.3 (51167) - http://www.bohemiancoding.com/sketch -->
    <title>0E508F6E-8C29-4467-8B39-74AA254B3F7E</title>
    <desc>Created with sketchtool.</desc>
    <defs></defs>
    <g id="Coins" stroke="none" stroke-width="1" fill="none" fill-rule="evenodd">
        <g id="Coins/LBRY-Credits-LBC" fill="#0099F7" fill-rule="nonzero">
            <polygon id="Sign" points="9.78445964 16.0835395 1.0550834 11.7690571 1 11.6803881 1.04687074 8.6614697 10.1899986 3.00496493 10.2850241 3 18.5753678 7.00087509 18.6312875 7.08995251 18.5841664 8.05842653 9.78464307 13.4121893 3.2251485 10.1951902 3.16982437 10.1038819 3.18237579 9.60850154 3.32493821 9.52226955 9.75132799 12.737494 17.9944391 7.7299857 17.9944391 7.42765042 10.3191679 3.67489539 1.63675934 8.99011225 1.63675934 11.343363 9.75137795 15.4088586 17.9576762 10.3753305 17.7630546 10.3418388 17.682215 10.2284152 17.7324207 9.92112806 17.8465651 9.83955979 18.9188655 10.0213328 19 10.1344788 18.8243692 11.231971 18.710751 11.3139547 18.4035528 11.263749 18.321821 11.1506296 18.36435 10.8827124"></polygon>
        </g>
    </g>
</svg>