<?xml version="1.0" encoding="UTF-8"?>
<svg width="20px" height="20px" viewBox="0 0 20 20" version="1.1" xmlns="http://www.w3.org/2000/svg" xmlns:xlink="http://www.w3.org/1999/xlink">
    <!-- Generator: sketchtool 49.3 (51167) - http://www.bohemiancoding.com/sketch -->
    <title>C0CEEE1E-B6F5-4440-B4EB-801D8DC4C1FC</title>
    <desc>Created with sketchtool.</desc>
    <defs></defs>
    <g id="Coins" stroke="none" stroke-width="1" fill="none" fill-rule="evenodd">
        <g id="Coins/Lisk-LSK" fill="#0099F7">
            <path d="M9.97542302,2 L9.9982191,2 C12.2585931,5.8475512 14.5139805,9.69866429 16.7650935,13.5519145 C15.4443456,15.0329475 14.1371327,16.5260908 12.8085486,18 C11.7186109,17.9764915 10.6279609,17.9950134 9.5380232,18 C10.9463936,16.4292075 12.3455032,14.8505788 13.7531612,13.2790739 C12.0270704,10.3077471 10.2881568,7.3428317 8.55636692,4.37506679 C9.02724849,3.58147818 9.51451474,2.79857524 9.97542302,2 Z M7.07113095,17.9928905 C6.99925205,17.9284203 4.42030281,14.98452 3.20000005,13.5875476 C4.84060557,10.8185361 6.46055214,8.03670169 8.10329479,5.26840249 C8.58486202,6.02423508 9.04933219,6.79146572 9.53232418,7.54658593 C8.41887805,9.43794835 7.30828144,11.3300232 6.19341056,13.2206732 C6.89296532,13.9886162 7.57827253,14.769382 8.28067681,15.5344755 C9.06571688,15.531626 9.85075695,15.5330508 10.635797,15.5337631 C9.95333932,16.3323384 8.52637583,17.9928905 8.52637583,17.9928905 L7.07113095,17.9928905 Z" id="Sign"></path>
        </g>
    </g>
</svg>