<?xml version="1.0" encoding="UTF-8"?>
<svg width="20px" height="20px" viewBox="0 0 20 20" version="1.1" xmlns="http://www.w3.org/2000/svg" xmlns:xlink="http://www.w3.org/1999/xlink">
    <!-- Generator: sketchtool 49.3 (51167) - http://www.bohemiancoding.com/sketch -->
    <title>3A28D4A7-533D-45BD-9F14-E1EB4D6FA2B3</title>
    <desc>Created with sketchtool.</desc>
    <defs></defs>
    <g id="Coins" stroke="none" stroke-width="1" fill="none" fill-rule="evenodd">
        <g id="Coins/Lunyr-LUN" fill="#0099F7">
            <path d="M10.2594624,7.2758122 C10.8659552,7.17242039 11.3280622,6.64726253 11.3280622,6.01305351 C11.3280622,5.30498283 10.7521154,4.73077734 10.0417229,4.73077734 C9.33125789,4.73077734 8.75545618,5.30498283 8.75545618,6.01305351 C8.75545618,6.6437073 9.21248428,7.16676105 9.81404325,7.27414342 L9.81404325,9.03209449 C9.51547671,9.08527779 9.25297034,9.24105479 9.06381773,9.46126121 L3.46854296,6.24631995 C3.2747468,6.13494702 3.27438402,5.85604306 3.46810763,5.74430735 L9.89291125,2.03896239 C9.93804087,2.01306002 9.98832194,2 10.038603,2 C10.088739,2 10.1388024,2.01298746 10.1837869,2.03859961 L16.6149029,5.73298866 C16.8087716,5.8443616 16.8089892,6.12326556 16.6153382,6.23507383 L11.0205713,9.46213188 C10.829242,9.23902323 10.5623823,9.08208534 10.2594624,9.03049826 L10.2594624,7.2758122 Z M9.0510697,11.1109883 C9.24131064,11.339466 9.50998425,11.4993787 9.81537102,11.5536503 L9.8100019,17.709998 C9.80992934,17.9330341 9.56744833,18.0724135 9.37379728,17.9605327 L3.1451116,14.3683746 C3.05521514,14.3165698 2.99985517,14.2208689 3.00000028,14.1174046 L3.00624007,6.94360886 C3.00638518,6.77440906 3.14554694,6.65353134 3.29747849,6.65353134 C3.34587311,6.65353134 3.39571885,6.6658658 3.44258981,6.69292906 L8.8503082,9.81187918 C8.78972422,9.96054572 8.75547795,10.1227076 8.75547795,10.2931409 C8.75547795,10.4447822 8.78312166,10.5894582 8.83166139,10.7244843 L7.30784744,11.5983446 C7.11049604,11.3142167 6.80075594,11.1089567 6.43043185,11.0569343 C5.72700473,10.9580409 5.07632558,11.4464856 4.97721455,12.1478086 C4.87803097,12.8491316 5.36785422,13.4976341 6.07135389,13.5966726 C6.77478101,13.6954208 7.42546016,13.2071213 7.52464375,12.5057982 C7.549095,12.3323902 7.53741354,12.1623923 7.49562148,12.0029875 L9.0510697,11.1109883 Z M17.0696309,6.94358709 L17.0757982,14.1173828 C17.0758707,14.2208472 17.0205108,14.3165481 16.9305417,14.3683528 L10.7020737,17.9605835 C10.5082776,18.0723918 10.2658691,17.9330123 10.265724,17.7100488 L10.2604274,11.5549346 C10.5690792,11.5020415 10.8408001,11.3414033 11.0323471,11.1108939 L12.5881581,12.0030383 C12.5465111,12.1623705 12.5346846,12.3323685 12.5592084,12.5057765 C12.6583194,13.2070995 13.3089986,13.6954716 14.0124257,13.5966508 C14.7159254,13.4976849 15.2057486,12.8491099 15.1066376,12.1477869 C15.007454,11.4465364 14.3567748,10.9580917 13.6533477,11.0569851 C13.2830236,11.1090075 12.9731384,11.3141949 12.7760772,11.5983954 L11.2519005,10.7243899 C11.3002951,10.5893639 11.328084,10.4446879 11.328084,10.2931191 C11.328084,10.1212347 11.2931121,9.9578394 11.2315849,9.80822963 L16.6331361,6.69297985 C16.6800796,6.66584403 16.7299253,6.65350957 16.77832,6.65350957 C16.930179,6.65350957 17.0694133,6.77453241 17.0696309,6.94358709 Z" id="Sign"></path>
        </g>
    </g>
</svg>