<?xml version="1.0" encoding="UTF-8"?>
<svg width="20px" height="20px" viewBox="0 0 20 20" version="1.1" xmlns="http://www.w3.org/2000/svg" xmlns:xlink="http://www.w3.org/1999/xlink">
    <!-- Generator: sketchtool 49.3 (51167) - http://www.bohemiancoding.com/sketch -->
    <title>D6763039-1019-4891-A1A4-1B354926A9ED</title>
    <desc>Created with sketchtool.</desc>
    <defs></defs>
    <g id="Coins" stroke="none" stroke-width="1" fill="none" fill-rule="evenodd">
        <g id="Coins/MaidSafeCoin-MAID" fill="#0099F7">
            <path d="M10.9296884,2.78024205 C14.0850368,0.896466713 16.2357238,3.01580223 16.2357238,3.01580223 L16.2357238,3.01735568 L6.89995699,8.26852594 L10.594001,10.4031136 L10.5955545,12.5759726 L2.53164313,7.79239216 C4.01596884,6.90642885 8.34551695,4.3228223 10.9296884,2.78024205 Z M9.78753927,9.2781301 L8.0427275,8.27445731 L16.2356462,3.66549924 L16.2356462,14.2562454 C16.2356462,16.5082601 13.5891953,17.9154073 13.4258708,18 L13.4258708,7.13485726 L9.78753927,9.2781301 Z M11.1614285,13.5685594 L11.15698,9.14022571 L12.8605546,8.12857382 L12.8605546,17.6847194 C10.8795471,16.5172277 4.13374187,12.5287335 3.06447094,11.7129581 C1.89358997,10.8206397 1.99138699,8.45854166 2.00988722,8.14029534 L11.1614285,13.5685594 Z" id="Sign"></path>
        </g>
    </g>
</svg>