<?xml version="1.0" encoding="UTF-8"?>
<svg width="40px" height="24px" viewBox="0 0 40 24" version="1.1" xmlns="http://www.w3.org/2000/svg" xmlns:xlink="http://www.w3.org/1999/xlink">
    <!-- Generator: sketchtool 49.3 (51167) - http://www.bohemiancoding.com/sketch -->
    <title>8E6938A5-0BDB-4031-BC43-3EDFA3A3E5B0</title>
    <desc>Created with sketchtool.</desc>
    <defs></defs>
    <g id="Symbols" stroke="none" stroke-width="1" fill="none" fill-rule="evenodd">
        <g id="mastercard" fill-rule="nonzero">
            <g transform="translate(4.000000, 2.000000)" id="g3115">
                <g>
                    <g id="g3110">
                        <path d="M31.2386207,9.64413793 C31.2386207,14.9704482 26.9207931,19.2882759 21.5944828,19.2882759 C16.2681725,19.2882759 11.9503448,14.9704482 11.9503448,9.64413793 C11.9503448,4.31782763 16.2681725,9.7842733e-16 21.5944828,0 C26.9207931,3.26142443e-16 31.2386207,4.31782763 31.2386207,9.64413793 Z" id="path2997" fill="#F79F1A"></path>
                        <path d="M19.2882759,9.64413793 C19.2882759,14.9704482 14.9704482,19.2882759 9.64413793,19.2882759 C4.31782763,19.2882759 6.52284887e-16,14.9704482 0,9.64413793 C-6.52284887e-16,4.31782763 4.31782763,9.7842733e-16 9.64413793,0 C14.9704482,2.69149938e-15 19.2882759,4.31782763 19.2882759,9.64413793 Z" id="path2995" fill="#EA001B"></path>
                        <path d="M15.5806897,2.00827586 C13.2373453,3.84919714 11.8690453,6.66416243 11.8690453,9.64413793 C11.8690453,12.6241134 13.2373453,15.4390787 15.5806897,17.28 C17.924034,15.4390787 19.292334,12.6241134 19.292334,9.64413793 C19.292334,6.66416243 17.924034,3.84919714 15.5806897,2.00827586 Z" id="path2999" fill="#FF5F01"></path>
                    </g>
                </g>
            </g>
        </g>
    </g>
</svg>