<?xml version="1.0" encoding="UTF-8"?>
<svg width="20px" height="20px" viewBox="0 0 20 20" version="1.1" xmlns="http://www.w3.org/2000/svg" xmlns:xlink="http://www.w3.org/1999/xlink">
    <!-- Generator: sketchtool 49.3 (51167) - http://www.bohemiancoding.com/sketch -->
    <title>A4763FBE-A032-4F48-9ECD-BCE1009F6F3E</title>
    <desc>Created with sketchtool.</desc>
    <defs></defs>
    <g id="Coins" stroke="none" stroke-width="1" fill="none" fill-rule="evenodd">
        <g id="Coins/Matchpool-Guppy-GUP" fill="#0099F7">
            <path d="M14.3400659,8.81873727 C13.8146076,8.01221996 13.3135893,7.18940937 12.7799844,6.38289206 C11.9408805,7.05906314 11.0447502,7.6700611 10.0956667,8.18737271 C10.0671534,8.20773931 10.0345669,8.21995927 9.997907,8.22403259 C9.96124712,8.21995927 9.92866056,8.20773931 9.90014732,8.18737271 C8.95106382,7.6700611 8.05493347,7.05906314 7.2158296,6.38289206 C6.68222472,7.18940937 6.18120639,8.01221996 5.65574814,8.81873727 C5.34617584,9.31568228 4.99179702,9.79633401 4.79627767,10.3503055 C4.49077869,11.0875764 4.37265241,11.8940937 4.40523897,12.6924644 C4.45819213,13.7881874 4.84923083,14.8594705 5.50096199,15.7393075 C6.08344671,16.5132383 6.8655241,17.1364562 7.75350781,17.5274949 C8.45819213,17.8329939 9.22804956,17.9959267 9.997907,18 C10.7677644,17.9959267 11.5376219,17.8329939 12.2423062,17.5274949 C13.1302899,17.1364562 13.9123673,16.5132383 14.494852,15.7393075 C15.1465832,14.8594705 15.5376219,13.7881874 15.590575,12.6924644 C15.6231616,11.8940937 15.5050353,11.0875764 15.1995363,10.3503055 C15.004017,9.79633401 14.6496382,9.31568228 14.3400659,8.81873727 M9.997907,7.16904277 C10.0142003,7.16904277 10.0264202,7.16496945 10.0427135,7.15682281 C10.7840577,6.73319756 11.6068683,6.15071283 12.2667461,5.60081466 C11.9245872,4.98574338 11.5131819,4.4114053 11.1425098,3.80855397 C10.7677644,3.20162933 10.3645058,2.61099796 9.997907,2 C9.63130822,2.61099796 9.22804956,3.20162933 8.85330415,3.80855397 C8.48263205,4.4114053 8.07122675,4.98574338 7.72906789,5.60081466 C8.38894569,6.15071283 9.21175628,6.73319756 9.95310048,7.15682281 C9.96939376,7.16496945 9.98161372,7.16904277 9.997907,7.16904277" id="Sign"></path>
        </g>
    </g>
</svg>