<?xml version="1.0" encoding="UTF-8"?>
<svg width="20px" height="20px" viewBox="0 0 20 20" version="1.1" xmlns="http://www.w3.org/2000/svg" xmlns:xlink="http://www.w3.org/1999/xlink">
    <!-- Generator: sketchtool 49.3 (51167) - http://www.bohemiancoding.com/sketch -->
    <title>BFD1F729-B84C-4D26-911F-CA32EF921AFC</title>
    <desc>Created with sketchtool.</desc>
    <defs></defs>
    <g id="Coins" stroke="none" stroke-width="1" fill="none" fill-rule="evenodd">
        <g id="Coins/Melon-MLN" fill="#0099F7">
            <path d="M9.99104143,2 C14.3986562,2 17.9820829,5.56550952 18,9.99104143 C17.9820829,14.3986562 14.4165733,17.9820829 10.0089586,18 C5.60134378,18 2.01791713,14.4344905 2,10.0089586 C2,5.60134378 5.56550952,2.01791713 9.99104143,2 Z M10.0089586,17.6595745 C14.2553191,17.6595745 17.6774916,14.237402 17.6774916,9.99104143 C17.6595745,5.76259798 14.237402,2.34042553 10.0089586,2.3225084 C5.78051512,2.3225084 2.34042553,5.74468085 2.34042553,9.99104143 C2.34042553,14.2194849 5.76259798,17.6595745 10.0089586,17.6595745 Z M10.0089048,2.84208735 C13.9506741,2.84208735 17.157841,6.0492542 17.157841,9.99102352 C17.157841,13.9327928 13.9506741,17.1399597 10.0089048,17.1399597 C6.0671355,17.1399597 2.85996865,13.9327928 2.85996865,9.99102352 C2.85996865,6.0492542 6.0671355,2.84208735 10.0089048,2.84208735 Z M13.8969227,13.3773617 L13.8969227,13.144439 C13.7177514,13.1265218 13.5385801,13.1086047 13.3594087,13.0548533 C13.2519059,13.0369362 13.1623203,12.9652676 13.1085689,12.8577648 C13.0369003,12.7144278 13.0189832,12.5531736 13.0189832,12.4098365 L13.0189832,8.61140426 C13.0189832,8.34264726 13.0369003,8.09180739 13.0548175,7.84096753 C13.0548175,7.69763046 13.126486,7.59012766 13.2519059,7.51845913 C13.4489944,7.41095633 13.664,7.37512206 13.8790056,7.39303919 L13.8610885,7.17803359 L11.9797895,7.17803359 L10.0626562,11.8723225 L8.10968869,7.17803359 L6.10296976,7.17803359 L6.10296976,7.41095633 C6.2821411,7.41095633 6.46131243,7.44679059 6.64048376,7.50054199 C6.80173796,7.55429339 6.96299216,7.66179619 7.07049496,7.78721613 L7.07049496,11.8544054 C7.08841209,12.1589966 6.99882643,12.481505 6.8196551,12.7323449 C6.64048376,12.9473505 6.37172676,13.0906876 6.08505263,13.1086047 L6.08505263,13.3415274 L8.30677716,13.3415274 L8.30677716,13.1086047 C8.00218589,13.0548533 7.73342889,12.8935991 7.53634043,12.6427592 C7.37508623,12.3560851 7.28550056,12.0335767 7.30341769,11.6931512 L7.30341769,8.09180739 L9.45347368,13.3415274 L9.70431355,13.3415274 L11.9081209,7.93055319 L11.9081209,12.212748 C11.9081209,12.3919194 11.8902038,12.5890078 11.8722867,12.7681792 C11.8543695,12.8935991 11.7647839,12.9831848 11.6572811,13.0369362 C11.4601926,13.1265218 11.2631041,13.1623561 11.0480985,13.144439 L11.0480985,13.3773617 L13.8969227,13.3773617 Z M7.82303247,8.18139306 L9.5609944,12.4098365 C9.6147458,12.5173393 9.65058007,12.6427592 9.6684972,12.7681792 C9.65058007,12.875682 9.6147458,12.9831848 9.5609944,13.0727704 L7.53635834,8.23514446 C7.44677268,8.03805599 7.33926988,7.84096753 7.21384994,7.66179619 C7.08843001,7.53637626 6.94509295,7.42887346 6.78383875,7.37512206 L6.96301008,7.37512206 C7.16009854,7.35720493 7.33926988,7.42887346 7.48260694,7.57221053 C7.62594401,7.75138186 7.75136394,7.96638746 7.82303247,8.18139306 Z M12.1948309,7.50055991 C12.2485823,7.42889138 12.3202508,7.41097424 12.4456708,7.39305711 C12.3740022,7.62597984 12.338168,7.85890258 12.3560851,8.09182531 L12.3560851,12.3381859 C12.3560851,12.5352744 12.338168,12.7323628 12.2844166,12.9294513 C12.2306652,13.0369541 12.1052452,13.0907055 11.9081568,13.0907055 L11.7469026,13.0907055 C11.8364882,13.0369541 11.9260739,12.9652856 12.0156596,12.893617 C12.0873281,12.75028 12.1052452,12.6069429 12.0873281,12.4636058 L12.0873281,8.21724524 C12.0873281,8.05599104 12.0873281,7.89473684 12.1052452,7.73348264 C12.1052452,7.64389698 12.1410795,7.57222844 12.1948309,7.50055991 Z M7.12428219,12.5173214 C7.16011646,12.6427413 7.19595073,12.7502441 7.28553639,12.8577469 C7.33928779,12.9473326 7.42887346,13.0369183 7.53637626,13.0906697 L6.62260246,13.0906697 C6.73010526,13.0190011 6.83760806,12.9294155 6.94511086,12.8398298 C7.0167794,12.7502441 7.08844793,12.6427413 7.12428219,12.5173214 Z" id="Sign"></path>
        </g>
    </g>
</svg>