<?xml version="1.0" encoding="UTF-8"?>
<svg width="20px" height="20px" viewBox="0 0 20 20" version="1.1" xmlns="http://www.w3.org/2000/svg" xmlns:xlink="http://www.w3.org/1999/xlink">
    <!-- Generator: sketchtool 49.3 (51167) - http://www.bohemiancoding.com/sketch -->
    <title>CCB43EBD-D911-4554-BA1E-D898305A577E</title>
    <desc>Created with sketchtool.</desc>
    <defs></defs>
    <g id="Coins" stroke="none" stroke-width="1" fill="none" fill-rule="evenodd">
        <g id="Coins/Monaco-MCO" fill="#0099F7">
            <path d="M16.9690595,5.98991876 L16.9656469,6.12642052 C16.9622344,8.37528704 16.9622344,10.620741 16.9656469,12.866195 L16.9656469,13.869483 L16.9656469,14.0093973 L16.8427953,14.0810607 C15.6074544,14.8011075 14.2697371,15.5723424 12.9320198,16.3401648 C12.0891215,16.8247461 11.2462231,17.3093273 10.2019846,17.9133476 L10.1849219,17.9235853 C10.1849219,17.9235853 10.1780968,17.9269978 10.1678592,17.9304104 C10.1132585,17.9645358 10.0586578,17.9986612 9.96310653,17.9986612 C9.93921872,18.0020738 9.91191837,17.9986612 9.88803056,17.9918362 C9.86414276,17.9884236 9.8368424,17.978186 9.81295459,17.9679483 L9.79589187,17.9577107 C8.66975234,17.3093273 7.75860308,16.780383 6.84745382,16.2514387 C5.63941323,15.5518672 4.43478518,14.8522956 3.12436827,14.1015359 L3.00151669,14.0332851 L3.00151669,13.8899582 L3.00151669,13.5384662 C3.00151669,11.0643717 2.99810414,8.58686477 3.00151669,6.1093578 L3.00492923,5.96603095 L3.12436827,5.89778007 C4.4518479,5.13678275 5.70425157,4.41332341 6.95324269,3.68986407 C7.83709159,3.17456992 8.72435305,2.65927577 9.79589187,2.0416053 L9.81295459,2.03136767 C9.83342986,2.02454258 9.85731767,2.01430495 9.87779293,2.0108924 C9.90168074,2.00406732 9.922156,2.00065477 9.94604381,2.00065477 C10.0654829,1.99382968 10.1405588,2.0416053 10.2122222,2.08596837 C10.2258724,2.096206 10.2395226,2.10303109 10.2395226,2.10303109 L10.2599979,2.11326873 C11.0107576,2.54666182 11.7478671,2.96640474 12.4849766,3.38273511 C13.9455454,4.21198331 15.4095268,5.04464406 16.8496204,5.91825533 L16.9690595,5.98991876 Z M16.4776531,12.866195 C16.4742406,10.6651041 16.4742406,8.46401319 16.4776531,6.26292228 C15.1023979,5.43026153 13.6725419,4.61807605 12.242686,3.80930311 C11.4919263,3.38273511 10.7411666,2.9561671 10.0177072,2.53642419 C9.99723197,2.52618655 9.98016925,2.51594892 9.96651908,2.50571129 C9.15433359,2.97664237 8.17493345,3.54312468 7.19553331,4.10960699 C5.93971711,4.83989141 4.6839009,5.57017584 3.48951048,6.25268465 C3.48609794,8.68241601 3.48609794,11.1087348 3.48951048,13.5384662 L3.48951048,13.7466314 C4.63271274,14.4052524 5.86464114,15.1184741 7.09315699,15.8316958 C8.11350766,16.4220659 9.13044579,17.012436 9.95969399,17.4901922 C10.7343415,17.0431489 11.7103291,16.4800791 12.6897292,15.9170094 C13.9250702,15.2106128 15.1569986,14.5008036 16.4776531,13.7295686 L16.4776531,12.866195 Z M8.29778504,12.0710722 C8.66975234,12.4191517 9.03489455,12.7774689 9.40003677,13.1323734 C9.41368694,13.3132383 9.4102744,13.5009282 9.40003677,13.681793 C9.04854473,14.0230474 8.68340252,14.3472391 8.32849794,14.685081 C8.2943725,14.729444 8.24318434,14.7465068 8.19199617,14.7396817 L7.29790964,14.7396817 C6.76896531,13.8148822 6.23660844,12.8934954 5.70766411,11.9686959 C5.43807313,11.4875272 5.14459434,11.0165961 4.88865354,10.5286023 C5.47902366,10.0986218 6.0557436,9.65499106 6.64270118,9.22159797 L6.67682662,9.22501051 C7.17505805,9.53896456 7.66987694,9.85633116 8.16810837,10.1702852 C8.20905889,10.1873479 8.22612162,10.2180608 8.22270907,10.2590114 L8.22270907,11.937983 C8.21247144,11.9959963 8.2636596,12.0369468 8.29778504,12.0710722 Z M13.2050234,8.30021107 L9.95628144,8.30021107 L6.67682662,8.30021107 C6.86451654,7.3958869 7.08291936,6.50180036 7.28084692,5.60088874 L9.95628144,5.60088874 C10.8264802,5.60088874 11.6966789,5.60088874 12.5668776,5.59747619 C12.7852805,6.49838782 13.0036833,7.39929945 13.2050234,8.30021107 Z M11.2428105,11.8867949 C10.8162425,11.89362 10.386262,11.8765572 9.95628144,11.89362 C9.8982682,11.8970325 9.8368424,11.900445 9.77882915,11.9038576 C9.40003677,11.900445 9.02465692,11.9106827 8.64586453,11.8970325 C8.64245199,11.7741809 8.65268962,11.6479168 8.6663398,11.5250652 C8.72435305,11.0916721 8.7516534,10.6548665 8.80966665,10.2180608 C8.62197672,9.70959176 8.41722408,9.21136033 8.23635925,8.69947873 C8.80966665,8.70630381 9.38297405,8.68924109 9.95628144,8.70630381 C10.0620703,8.70971636 10.1644466,8.7131289 10.266823,8.71654145 C10.7241039,8.69947873 11.1847973,8.7131289 11.6420782,8.70971636 C11.4953388,9.16358472 11.314474,9.6038029 11.1472593,10.0508462 C11.0482955,10.2487737 11.1267841,10.4671765 11.1404342,10.6719292 C11.164322,11.0780219 11.2291604,11.4807021 11.2428105,11.8867949 Z M11.7342169,10.1873527 C12.2290358,9.86316098 12.7272672,9.54579439 13.2186735,9.21819016 C13.8090437,9.65158325 14.3960012,10.095214 14.9829588,10.5422572 C14.1741859,11.9311627 13.3824757,13.3268932 12.5907654,14.7226237 C12.2768114,14.7294488 11.9628573,14.7226237 11.6489033,14.7260362 C11.2735234,14.3779568 10.8913185,14.0367023 10.5227638,13.6817978 C10.5193512,13.5009329 10.4852258,13.313243 10.5227638,13.1357907 C10.9015561,12.7535858 11.3008238,12.3884436 11.6830287,12.0096512 C11.7000915,11.4568191 11.6898538,10.9005744 11.6898538,10.3477422 C11.6966789,10.2931415 11.6830287,10.2214781 11.7342169,10.1873527 Z" id="Sing"></path>
        </g>
    </g>
</svg>