<?xml version="1.0" encoding="UTF-8"?>
<svg width="20px" height="20px" viewBox="0 0 20 20" version="1.1" xmlns="http://www.w3.org/2000/svg" xmlns:xlink="http://www.w3.org/1999/xlink">
    <!-- Generator: sketchtool 49.3 (51167) - http://www.bohemiancoding.com/sketch -->
    <title>4DE40242-F92F-4C69-BE9A-51525C843973</title>
    <desc>Created with sketchtool.</desc>
    <defs></defs>
    <g id="Coins" stroke="none" stroke-width="1" fill="none" fill-rule="evenodd">
        <g id="Coins/Monero-XMR" fill="#0099F7">
            <path d="M9.99999648,2 C14.4177548,2 18.000249,5.58218054 18.0003066,10.0000029 C18.0003066,10.8829542 17.8571811,11.7322794 17.5927418,12.5269158 L15.2000774,12.5269158 L15.2000774,5.79587346 L10.0001245,10.9959544 L4.80004357,5.79587346 L4.80004357,12.5269798 L2.40737914,12.5269798 C2.14312543,11.732337 2,10.8830118 2,10.0000605 C2,5.58236614 5.58243014,2 9.99999648,2 Z M13.464988,9.92199911 L13.464988,14.1574378 L16.83585,14.1574378 C15.4316426,16.4614097 12.8950399,18 9.99987168,18 C7.10470343,18 4.56835036,16.4614161 3.16395091,14.1574378 L6.53487696,14.1574378 L6.53487696,9.92206311 L8.80428827,12.191532 L8.80428827,12.191468 L8.80441628,12.191468 L9.99993568,13.3869874 L11.1955767,12.1914104 L13.464988,9.92199911 Z" id="Sign"></path>
        </g>
    </g>
</svg>