<?xml version="1.0" encoding="UTF-8"?>
<svg width="20px" height="20px" viewBox="0 0 20 20" version="1.1" xmlns="http://www.w3.org/2000/svg" xmlns:xlink="http://www.w3.org/1999/xlink">
    <!-- Generator: sketchtool 49.3 (51167) - http://www.bohemiancoding.com/sketch -->
    <title>02114554-23E4-4801-B734-0D1DBC6A37F3</title>
    <desc>Created with sketchtool.</desc>
    <defs></defs>
    <g id="Coins" stroke="none" stroke-width="1" fill="none" fill-rule="evenodd">
        <g id="Coins/Mysterium-MYST" fill="#0099F7">
            <path d="M18.4044862,11.1299105 C17.8804937,10.9347797 17.3562686,10.7405792 16.8325087,10.5452158 C16.8090185,10.4942817 16.7859936,10.4428826 16.762736,10.3919485 C16.5445802,9.90795899 16.3247964,9.42489975 16.106408,8.9409102 C16.2287427,8.96788895 16.3624736,8.95951623 16.4782962,9.00696163 C17.0753174,9.59165636 17.6646637,10.1847238 18.2600569,10.7712791 C18.3440166,10.8554714 18.4282089,10.9394312 18.5133316,11.0229258 C18.4768172,11.0585098 18.440768,11.0943265 18.4044862,11.1299105 M17.8881687,11.6432046 C17.7593219,11.7706559 17.6311728,11.8981073 17.5025586,12.0255586 C17.4858131,11.9892769 17.4693003,11.9529951 17.45302,11.9169459 C17.3460353,11.6797189 17.238818,11.4429571 17.1313681,11.2059627 C17.1099712,11.1582847 17.0885742,11.1108393 17.0674099,11.0631613 C17.4083655,11.1892172 17.7490886,11.3162035 18.0895791,11.4431897 C18.0221322,11.5094737 17.9549179,11.5762228 17.8881687,11.6432046 M16.9062351,12.6163003 C16.6901725,12.8321304 16.472947,13.0467975 16.2564192,13.2619298 C16.1264095,13.3912418 15.9966324,13.5207863 15.8656924,13.649168 C15.7568471,13.5393924 15.6459086,13.4314773 15.5368307,13.3219343 C15.5212482,13.1770398 15.5056656,13.0321453 15.4905482,12.8872507 C15.4770588,12.7607297 15.4635694,12.6342086 15.4498475,12.5079202 C15.5917185,12.2534826 15.7342873,11.9995102 15.8766235,11.7455378 C15.9750029,11.5697107 16.0733823,11.3936511 16.1719943,11.217824 C16.258745,11.0636265 16.3447979,10.9089638 16.4315485,10.7547663 C16.4385258,10.7422072 16.4527129,10.7173216 16.4596902,10.7047625 C16.4922507,10.7768609 16.5252765,10.8491919 16.5583022,10.9212903 C16.7159883,11.2727118 16.8760003,11.6229705 17.033919,11.974392 C17.0881091,12.0927729 17.1416014,12.2113864 17.1950938,12.3302325 C17.098575,12.4253559 17.0029865,12.5214095 16.9062351,12.6163003 M15.3398393,11.4752851 C15.2916962,11.0171114 15.2423902,10.5591703 15.1937819,10.1009966 C15.1535463,9.71747968 15.1116828,9.33442789 15.0719124,8.95114352 C15.066098,8.89672086 15.060051,8.8422982 15.0542366,8.78810811 C15.2461114,8.81531944 15.437521,8.84369365 15.6293958,8.87113756 C15.816619,9.28140068 16.0010514,9.69305926 16.188042,10.103555 C16.2092064,10.1496049 16.2303708,10.19612 16.2522329,10.2421699 C16.1978102,10.3458986 16.1389686,10.4473015 16.0819876,10.5496347 C15.9959347,10.7035997 15.9094166,10.8575646 15.8233637,11.0115296 C15.7261471,11.1852635 15.6284655,11.3587648 15.5314815,11.5324986 C15.4796172,11.6250637 15.4279854,11.7176287 15.3758885,11.8101937 C15.363562,11.6985575 15.3517006,11.5869213 15.3398393,11.4752851 M14.9232966,12.71561 C14.5797827,12.3707006 14.2327801,12.0292798 13.8874055,11.6864636 C13.9069418,11.5008684 13.9285714,11.3155057 13.949038,11.1301431 C13.9729933,10.9180343 13.9964834,10.7059254 14.0204387,10.4940492 C14.0490454,10.237751 14.0776522,9.98145284 14.106259,9.72538725 C14.1316097,9.50071935 14.1564953,9.27581887 14.181846,9.05115097 C14.1960331,8.92323446 14.2102202,8.79531795 14.2248725,8.66740145 C14.3632549,8.68740294 14.5018699,8.70740443 14.6402523,8.72810364 C14.6802553,9.10464333 14.7200257,9.48141558 14.7602612,9.85818784 C14.8107301,10.3284554 14.8598035,10.798723 14.910505,11.2689906 C14.9621367,11.7567014 15.0137685,12.2441796 15.0658654,12.7318903 C15.0705169,12.7774751 15.075401,12.8232925 15.0805176,12.8693424 C15.0281882,12.8177107 14.9765564,12.7656138 14.9232966,12.71561 M13.3452721,8.56623112 C13.3201539,8.57879019 13.2952684,8.59111669 13.2703828,8.60367577 C12.545445,8.17341115 11.8205073,7.74291396 11.0960347,7.31218419 C11.1248741,7.28357741 11.1537134,7.2552032 11.1827854,7.226829 C11.3227958,7.08821402 11.4611782,6.94797101 11.6011886,6.80935603 C12.2724014,7.04495498 12.9436142,7.2798562 13.6143619,7.51661803 C13.6690171,7.74570487 13.7246027,7.9747917 13.7804208,8.20364596 C13.7904215,8.24667242 13.8008874,8.28969889 13.8111207,8.33272535 C13.6557603,8.41040555 13.5008651,8.48901606 13.3452721,8.56623112 M13.799492,8.82276186 C13.7741412,9.05208127 13.7478602,9.28140068 13.7225095,9.51072009 C13.6941353,9.76515766 13.6655285,10.0195952 13.6371543,10.2738002 C13.613199,10.4889325 13.5890112,10.7038322 13.5650559,10.9189646 C13.5501711,11.0526954 13.5352862,11.1864263 13.5201688,11.3201572 C13.3699251,11.1750301 13.2243328,11.025019 13.0740891,10.8801244 C12.9987346,10.8040723 12.8652363,10.8059329 12.7910447,10.8824502 C12.6126594,11.0571144 12.4365997,11.2338717 12.2589121,11.4092336 C12.1163433,11.5511047 11.973542,11.6925106 11.8307406,11.834149 C11.702359,11.961833 11.5739773,12.0895169 11.4448979,12.2162705 C11.372567,12.0197442 11.3076784,11.8201945 11.2313937,11.6250637 C11.2306959,11.6159932 11.2293005,11.5976198 11.2288353,11.5883167 C11.3918707,11.3050398 11.5670001,11.0285076 11.734687,10.7480216 C11.8577194,10.5454484 11.9802867,10.3428751 12.1033191,10.1403019 C12.2396083,9.91563398 12.3765953,9.69119866 12.5117216,9.46583303 C12.5503291,9.38605964 12.6431267,9.365593 12.7145274,9.32559002 C13.063158,9.15348417 13.4106258,8.97905257 13.7590238,8.806249 C13.7732109,8.79927174 13.787398,8.7920619 13.8018177,8.78508463 C13.8013526,8.79462023 13.7999571,8.81345884 13.799492,8.82276186 M10.7439155,12.9123689 C10.4969203,13.1586663 10.2485297,13.4033357 10.0015346,13.6498657 C9.8515234,13.5007848 9.69965162,13.3535646 9.5519662,13.2021579 C9.53917455,12.8667841 9.52684805,12.5314103 9.51126549,12.1960364 C9.50196247,11.8922929 9.48754279,11.5885493 9.47614659,11.2848058 C9.47544887,11.2666649 9.47405341,11.2303831 9.47335569,11.2122422 C9.95967099,11.5134274 10.4443583,11.817171 10.9313713,12.1171934 C11.0323091,12.1658016 11.030681,12.2941833 11.0739401,12.3844226 C11.0906855,12.4337286 11.1085938,12.4830346 11.1262695,12.5323406 C10.9995159,12.6597919 10.8713668,12.7856153 10.7439155,12.9123689 M8.07511197,11.7390257 C8.09395059,11.627622 8.11325435,11.5164509 8.13255811,11.4052799 C8.17302625,11.1731695 8.21279665,10.9408266 8.25303221,10.7087163 C8.26628901,10.6319664 8.27954581,10.5554491 8.29326776,10.4786992 C8.54468184,10.6380134 8.80237546,10.7887223 9.05006834,10.9533857 C9.07100013,11.0252515 9.05983651,11.1043272 9.06658119,11.1792165 C9.07588421,11.4196995 9.08635011,11.6604151 9.0949554,11.9011308 C9.10774705,12.1960364 9.11891067,12.4909421 9.13030687,12.7856153 C8.77842019,12.4367521 8.42723123,12.0876563 8.07511197,11.7390257 M7.93091518,10.565915 C7.89323796,10.786164 7.85463043,11.0061804 7.81672063,11.2264293 C7.80741761,11.280852 7.79788202,11.3355072 7.788579,11.3901625 C7.61298452,11.2268945 7.43808777,11.0629288 7.26319101,10.8994282 C7.17271916,10.8091889 7.00526482,10.7908155 6.91502554,10.8908229 C6.64779633,11.1550287 6.38126484,11.4199321 6.11450078,11.684603 C5.96495475,11.8334513 5.81494357,11.9818344 5.66516497,12.1304502 C5.40886681,12.3853529 5.15187092,12.6395579 4.89534017,12.8944606 C4.87673414,12.9123689 4.85836067,12.9307424 4.83998721,12.9488832 C4.85301144,12.7607297 4.86580309,12.5725761 4.87905989,12.3846552 C4.88859549,12.2520871 4.89673563,12.1192865 4.90720152,11.9869511 C4.9604613,11.9288072 5.01325594,11.8704308 5.06628314,11.8122869 C5.21094508,11.6534379 5.35537445,11.4941237 5.50003639,11.3352746 C5.64911727,11.1715415 5.79773299,11.0073432 5.94681387,10.8436101 C6.11985001,10.6538285 6.29218844,10.4635818 6.46499201,10.2738002 C6.72617426,9.98703465 6.98665878,9.69957137 7.24784103,9.41280582 C7.32273033,9.33047411 7.39738706,9.24790981 7.47250894,9.16581067 C7.6918276,9.24721209 7.91137884,9.32814835 8.13093009,9.40978234 C8.09557862,9.61375103 8.05999457,9.81771971 8.02487567,10.0216884 C7.99394314,10.2030973 7.9620803,10.3845061 7.93091518,10.565915 M4.58996858,8.61181591 C4.27622428,8.70042716 3.96294512,8.78996872 3.64920082,8.87788224 C3.75013857,8.77903767 3.84968087,8.67879764 3.95038605,8.57972049 C4.09574571,8.43505855 4.24157053,8.29086176 4.3869302,8.14619982 C4.5348482,7.99967728 4.68253362,7.85292216 4.83045162,7.70616704 C5.03209455,7.50638471 5.2335049,7.30613723 5.43514784,7.10612233 C5.59609006,6.94680813 5.75633456,6.78702879 5.91750936,6.62771459 C5.91657905,7.00216109 5.91309042,7.37684017 5.91262527,7.75128668 C5.91076467,7.9131592 5.91122982,8.0752643 5.90983437,8.23713683 C5.73935655,8.28621025 5.56841358,8.33365565 5.39793576,8.38272907 C5.12861337,8.4592464 4.8590584,8.535066 4.58996858,8.61181591 M4.61880794,10.2742654 C4.60624887,10.4538136 4.59368979,10.6335945 4.58136329,10.8131427 C4.57996784,10.8322139 4.57740951,10.8701237 4.57601406,10.8891949 C3.91736033,10.5663801 3.25917176,10.2428677 2.60098318,9.91958777 C2.65191721,9.86772344 2.70308381,9.81632426 2.75494814,9.76539023 C2.84286167,9.67980246 2.92868202,9.59188893 3.01613039,9.50583601 C3.06892502,9.44629669 3.15195446,9.43978458 3.22335513,9.41722475 C3.71827573,9.27814463 4.21226602,9.13650616 4.70718662,8.99719346 C4.67811469,9.42280657 4.6476473,9.84841967 4.61880794,10.2742654 M4.53508077,11.4864487 C4.51973079,11.7115817 4.50368309,11.9367148 4.4883331,12.1616153 C4.48577477,12.1985948 4.48321644,12.2355743 4.48065811,12.2725538 C3.81642258,12.1511494 3.15265219,12.0278844 2.48818408,11.9074103 C2.42934249,11.8943861 2.35910469,11.8962467 2.31724111,11.8450801 C2.04187176,11.5701759 1.76533952,11.2964345 1.48903987,11.0222281 C1.56090569,10.9494319 1.63439954,10.8780313 1.70696308,10.8057003 C1.90465223,10.6098718 2.10187623,10.4133455 2.29979795,10.2175169 C3.0454349,10.592196 3.79804912,10.9540834 4.5462444,11.3236459 C4.54252319,11.377836 4.53856941,11.4322586 4.53508077,11.4864487 M4.40646654,13.3435638 C4.40530366,13.353332 4.40274533,13.3728683 4.40158245,13.3826365 C4.31506438,13.4731083 4.2238948,13.5591613 4.13621385,13.6487028 C3.89270733,13.4096152 3.65292202,13.1668065 3.40848521,12.9286492 C3.22823922,12.7453797 3.04403945,12.566064 2.86216543,12.3844226 C3.3924375,12.4818717 3.92270957,12.5786231 4.45274906,12.6763048 C4.43693393,12.8988795 4.4220491,13.1212217 4.40646654,13.3435638 M6.11612881,10.0565747 C5.937976,10.2519381 5.76028834,10.4475341 5.58260068,10.64313 C5.43491526,10.8059329 5.28676469,10.9682706 5.13907926,11.1310734 C5.07698161,11.1996831 5.01465139,11.2682929 4.95185601,11.3364375 C4.95836813,11.2350346 4.96557797,11.1338643 4.97255523,11.032694 C4.98534688,10.8522154 4.9974408,10.6715043 5.01023246,10.4910257 C5.04651423,9.96424226 5.08349373,9.4376914 5.1188452,8.91090796 C5.1207058,8.90276782 5.12489216,8.88672011 5.12698534,8.87881255 C5.19652541,8.85671788 5.26746092,8.83857699 5.33769871,8.81904065 C5.59748551,9.23139696 5.8535511,9.64607902 6.11612881,10.0565747 M6.11170987,8.61018788 C6.43429205,8.73601121 6.75315301,8.87206786 7.07410716,9.00231012 C7.00247392,9.0811532 6.93084067,9.15976371 6.85944,9.2386068 C6.70570762,9.40792174 6.55174266,9.57723668 6.39754512,9.74631904 C6.17915676,9.39885129 5.96076839,9.05138354 5.74307776,8.70345064 C5.77796408,8.6934499 5.8128504,8.68368173 5.84796929,8.67391356 C5.93588282,8.65484237 6.02147059,8.60995531 6.11170987,8.61018788 M6.31707401,7.79826692 C6.31707401,7.72058671 6.31800431,7.64313908 6.31893461,7.56592403 C6.84874153,7.60825276 7.37831587,7.65220953 7.90812279,7.69407311 C8.12744145,7.7131443 8.34676012,7.72942458 8.56607879,7.74849577 C8.61259388,7.87943576 8.66003928,8.01037575 8.70771725,8.14108316 C8.85865873,8.57041748 9.02355473,8.99533286 9.16635607,9.42745808 C8.21768074,9.03347523 7.26574934,8.6469348 6.31591113,8.25574287 C6.31474826,8.10317336 6.31684144,7.95060385 6.31707401,7.79826692 M6.3256793,6.25396581 C6.32428385,6.20163633 6.37847393,6.174425 6.40801102,6.13884096 C6.55174266,5.9999934 6.69175309,5.85719206 6.83432185,5.71718163 C6.91246721,5.639734 6.98991484,5.56182122 7.06875792,5.48507132 C7.3904098,5.8018391 7.70903819,6.1213978 8.03069006,6.43839816 C8.07139077,6.48002917 8.12116192,6.51770639 8.14186113,6.57445481 C8.23279814,6.82261283 8.31885106,7.07286404 8.41304413,7.31985918 C8.4086252,7.32171979 8.40025248,7.32567357 8.39606612,7.32753417 C7.98231436,7.30195087 7.56972548,7.26055244 7.1562063,7.23078278 C6.87758089,7.20636235 6.59849033,7.18566314 6.31986492,7.16194044 C6.3238187,6.85935976 6.32056264,6.5565465 6.3256793,6.25396581 M10.7769412,11.5469183 C9.97339294,11.0487417 9.17100758,10.5484718 8.36745934,10.0500626 C8.39536839,9.88912038 8.4228123,9.72817816 8.45095393,9.56746851 C9.08495466,9.82748788 9.71872281,10.0872747 10.352491,10.3479918 C10.4843612,10.7196474 10.6155338,11.0917681 10.7478693,11.4634237 C10.7550791,11.4843555 10.7697313,11.5262191 10.7769412,11.5469183 M11.2583724,9.59049348 C11.3051201,9.24069997 11.3539609,8.89113905 11.4016389,8.54134554 C11.4265245,8.36179728 11.4507123,8.18224902 11.4755979,8.00270076 C11.9305155,8.2724883 12.3852005,8.54250842 12.8398856,8.81299369 C12.6615002,8.90230267 12.4826497,8.99091392 12.3040317,9.07975775 C11.9588897,9.25232875 11.6128174,9.42350429 11.2676754,9.59584271 C11.2653497,9.59444726 11.2606982,9.59188893 11.2583724,9.59049348 M11.6851484,9.83818635 C11.7463157,9.80795154 11.8070179,9.77725158 11.8681853,9.74701677 C11.8286475,9.81283563 11.788877,9.87818933 11.7493392,9.94377561 C11.6295629,10.1414648 11.5093213,10.3389213 11.3897775,10.5366105 C11.2762807,10.7238337 11.1627839,10.9112896 11.0488219,11.0982802 C10.9592804,10.8494245 10.8725297,10.5996384 10.7827556,10.3510153 C10.7785692,10.337991 10.7699639,10.31171 10.7657776,10.2986858 C11.0697537,10.1400693 11.3790791,9.99215131 11.6851484,9.83818635 M9.85012795,8.24434667 C9.92315664,8.32598066 10.061539,8.33365565 10.139917,8.25527772 C10.3245819,8.07596203 10.505293,7.89222741 10.6890277,7.71198142 C10.7262397,7.6752345 10.7629867,7.638255 10.7999662,7.60150808 C10.8992759,7.65965194 10.9978879,7.71872611 11.0967325,7.7775677 C11.0716143,7.96618641 11.0451007,8.15433996 11.01975,8.34272609 C10.9727697,8.68437945 10.9255569,9.02580024 10.8788092,9.3674536 C10.8585752,9.51769736 10.8369457,9.66770853 10.8176419,9.81795229 C10.7143784,9.8719098 10.6097194,9.9230764 10.505293,9.97447558 C10.2299237,9.86260678 9.95571721,9.74794707 9.68011528,9.63700857 C9.52754577,9.22372197 9.38055808,8.80834218 9.2296166,8.39459042 C9.129144,8.11410441 9.02750852,7.83408354 8.92633819,7.5538301 C8.8844746,7.43707722 8.84191329,7.32055691 8.80028228,7.20380402 C9.15147124,7.54941117 9.49963672,7.89827437 9.85012795,8.24434667 M12.4400884,5.97394495 C12.6042866,5.8104444 12.7689501,5.64740899 12.9333809,5.48414101 C13.0059445,5.55903031 13.0826944,5.62996583 13.1552579,5.70532028 C13.1799109,5.72834525 13.1885162,5.76183612 13.1971215,5.79346639 C13.2906168,6.18837953 13.3878334,6.58259495 13.4831893,6.97704294 C13.4873757,6.99471868 13.4957484,7.02983757 13.5001673,7.04751331 C12.9726862,6.86261581 12.4456702,6.67702059 11.9188867,6.49119279 C12.0926206,6.31885437 12.2658893,6.1460508 12.4400884,5.97394495 M14.7060711,7.24450473 C15.0712146,7.60569443 15.4337998,7.96967504 15.8005713,8.32923672 C15.8622038,8.39226467 15.9240689,8.45506004 15.987562,8.51645997 C15.3954248,8.43110477 14.8037528,8.3445867 14.2118483,8.25876635 C14.1283537,7.91827586 14.0462545,7.57732023 13.9632251,7.23682974 C13.8862426,6.91657332 13.8076321,6.59654948 13.7306496,6.27629306 C14.0560227,6.59887523 14.3809306,6.92192256 14.7060711,7.24450473 M18.960109,10.9015214 C18.8847546,10.8145382 18.7968411,10.7394163 18.7175328,10.6561543 C18.1500487,10.0970428 17.5897744,9.52955871 17.0183364,8.97533137 C16.8666972,8.81159824 16.702499,8.66042418 16.5464408,8.50110999 C16.274095,8.23388077 16.0070983,7.96083717 15.7321941,7.69663144 C14.8558497,6.81842647 13.9713652,5.94812907 13.09223,5.07271501 C13.0208293,4.98689466 12.8787257,4.97340529 12.7973243,5.05178322 C12.559167,5.28342838 12.3256612,5.51995764 12.0888994,5.75299825 C11.6658446,6.16930834 11.2499997,6.59375857 10.8213631,7.00425427 C10.8213631,7.00425427 10.4578476,7.37172351 10.321791,7.50684986 C10.2145737,7.6126717 10.1082867,7.71965641 10.0006043,7.82478052 C9.73058416,7.55964449 9.46591327,7.28822892 9.1926371,7.02704667 C8.54258866,6.37118385 7.88207434,5.72578692 7.22853727,5.07318016 C7.1571366,4.98782496 7.01642844,4.97294013 6.93409673,5.05085292 C6.7845507,5.1941194 6.64012134,5.34273513 6.49197076,5.48762965 C6.34777397,5.63159386 6.2024143,5.77462777 6.05798494,5.91835941 C5.67330511,6.30071348 5.28792756,6.68190467 4.90324774,7.06425874 C4.75556232,7.21147902 4.60694659,7.35753641 4.45949375,7.50498926 C4.29622577,7.6656989 4.13458582,7.82826916 3.97108526,7.98874623 C3.84154073,8.11898849 3.71036816,8.24760273 3.5801259,8.37714726 C3.31080351,8.64530678 3.04031824,8.91230341 2.77099585,9.18046293 C2.63075284,9.32326427 2.48143939,9.46025122 2.34631304,9.60630861 L2.35073198,9.61770481 L2.33026534,9.62258889 C2.19792989,9.74190011 2.07606035,9.87307267 1.94791127,9.99726797 C1.74626834,10.1972829 1.5446254,10.3975304 1.3427499,10.5973127 C1.24692881,10.6963898 1.14506075,10.7891874 1.05063511,10.88966 C0.977141262,10.9664099 0.985513979,11.098978 1.06365934,11.1694483 C1.45833991,11.561338 1.85162502,11.9546231 2.24863135,12.344187 C2.82448821,12.9195787 3.40406627,13.4914818 3.98131858,14.0654781 C4.05620788,14.1524613 4.20319558,14.1575779 4.28157351,14.0726879 C4.45553996,13.9022101 4.62671551,13.7287088 4.80091453,13.558231 C4.94929768,13.4100804 5.09861113,13.2626275 5.24699428,13.1147095 C5.50492048,12.8593417 5.76238152,12.6035087 6.01984256,12.3476757 C6.17241207,12.1974319 6.32358612,12.0460253 6.47569048,11.8955489 C6.67337963,11.7001856 6.8699059,11.5038919 7.06759505,11.3085285 C7.99301283,12.2267364 8.91843062,13.1451769 9.84338326,14.06385 C9.91850513,14.1501355 10.0640974,14.1610666 10.1445685,14.0764091 C10.4683135,13.7573156 10.790198,13.4361288 11.1127802,13.1156398 C11.2734898,12.9584188 11.4316411,12.7986395 11.5921182,12.6411859 C11.7925983,12.441171 11.9940086,12.2420864 12.1949538,12.0425366 C12.3365923,11.9018285 12.4786959,11.7613529 12.6198692,11.6201796 C12.725691,11.5176138 12.8284894,11.4122571 12.9340787,11.3096913 C13.1868882,11.5559888 13.4327205,11.8101937 13.6880883,12.0534677 C14.3574405,12.7270062 15.0356306,13.3921721 15.7082388,14.0626872 C15.7856865,14.1559499 15.9412795,14.1585082 16.0205877,14.0661758 C16.2217655,13.8659283 16.4229433,13.6659134 16.6245862,13.4663637 C16.8532079,13.2389048 17.0825273,13.0121438 17.311149,12.784685 C17.6218698,12.4769876 17.9321255,12.1690577 18.241916,11.86043 C18.4126264,11.6929757 18.5812436,11.5236608 18.7514888,11.3555087 C18.8303319,11.273177 18.9187106,11.1996831 18.9880181,11.1085136 C19.0054612,11.0394386 19.0096476,10.9589675 18.960109,10.9015214" id="Sign"></path>
        </g>
    </g>
</svg>