<?xml version="1.0" encoding="UTF-8"?>
<svg width="20px" height="20px" viewBox="0 0 20 20" version="1.1" xmlns="http://www.w3.org/2000/svg" xmlns:xlink="http://www.w3.org/1999/xlink">
    <!-- Generator: sketchtool 49.3 (51167) - http://www.bohemiancoding.com/sketch -->
    <title>A87195A3-87B7-4AA1-B5C5-87133925DEFA</title>
    <desc>Created with sketchtool.</desc>
    <defs></defs>
    <g id="Coins" stroke="none" stroke-width="1" fill="none" fill-rule="evenodd">
        <g id="Coins/NEM-XEM" fill="#0099F7">
            <path d="M9.58575888,10.3393024 C11.2366757,10.1340031 12.8797314,11.1132498 13.3931863,12.8190289 C13.6538444,13.6956673 13.5752332,14.5484742 13.1719994,15.3777804 C13.1167234,15.4883325 13.0693084,15.5910235 13.0140324,15.6936317 C12.9824224,15.7568516 12.9429513,15.8199888 12.8876753,15.8674037 C12.0503425,16.6571561 11.1340675,17.3520787 10.1387676,17.9361181 C10.0992965,17.9597842 10.0597427,17.983533 10.0282155,17.999338 L10.0279673,18 C9.90947131,17.9525851 9.54612231,17.7314809 9.15910722,17.4709056 C8.29785177,16.8939743 7.49843433,16.2297101 6.77354853,15.4886635 C6.04681744,14.7483616 5.40071657,13.9330316 4.84608596,13.0563518 C4.32610219,12.2468556 3.8894214,11.3868 3.54271315,10.4893255 C3.5326261,10.4637231 3.52470706,10.4373181 3.51904705,10.4103834 C3.55851812,10.4340495 3.5743231,10.4419933 3.59807194,10.4577983 C3.87453494,10.6710414 4.1668029,10.8526745 4.48281971,10.9868927 C4.88572253,11.1606647 5.30434757,11.2790779 5.74672146,11.318549 C6.63933035,11.405435 7.47666318,11.2238019 8.26658109,10.7815108 C8.67462259,10.5525372 9.12215171,10.402514 9.58575888,10.3393024 Z M17.5401296,5.00872435 C17.5401296,5.04033431 17.5484044,5.0640004 17.5484044,5.09561035 C17.5484044,5.51415265 17.5247383,5.94063881 17.4931284,6.3591811 C17.4369752,6.97478086 17.3446609,7.58654935 17.2166654,8.19131732 C16.8295675,9.97612135 16.1423406,11.6266244 15.1470407,13.1587143 C14.8705778,13.5852005 14.5703659,13.9957989 14.2544319,14.3906751 C14.2224909,14.4146722 14.2066859,14.4462822 14.159271,14.4699482 C14.175076,14.3199251 14.190881,14.1856241 14.1987421,14.0434621 C14.2382131,13.2616535 14.072385,12.5193161 13.7010921,11.8322546 C13.3452733,11.1768032 12.8479543,10.6555699 12.2081423,10.2606937 C12.1528663,10.2212226 12.0896464,10.1896127 12.0343703,10.1501416 C11.1572354,9.59729837 10.6203627,8.81548982 10.4307857,7.79677211 C10.0915165,5.9646359 11.2443697,4.19563685 13.0533363,3.76128957 C13.6931483,3.6112664 14.317238,3.62707138 14.941245,3.82442674 C15.4542862,3.98239377 15.9444888,4.19563685 16.4341948,4.42460215 C16.773464,4.58256919 17.0977557,4.75625845 17.4216336,4.93764332 C17.4611047,4.96130942 17.4927146,4.97711439 17.5401296,5.00872435 Z M6.9473222,10.5918518 C5.32007146,10.9635584 3.67685024,10.1583321 2.96603998,8.64966002 C2.92656891,8.56277402 2.89495895,8.47588802 2.87915397,8.38908476 C2.76217231,7.87826125 2.67251423,7.3615626 2.6105521,6.8411899 C2.53947107,6.26468058 2.5,5.68817125 2.5,5.11174467 C2.50667781,5.07794188 2.50944989,5.04348537 2.50827486,5.00905369 L2.50794386,5.00897094 C3.51132827,4.42733948 4.57981925,3.96610719 5.69128157,3.63484809 C7.20789746,3.18469584 8.7482622,2.97145276 10.3281808,3.00306272 C11.0628226,3.0188677 12.2871705,3.13728091 12.4925525,3.2163058 C12.5008274,3.23211078 12.4842776,3.23997189 12.4688864,3.23997189 C12.3978054,3.27158185 12.3187805,3.29524794 12.2476995,3.3268579 C10.9443266,3.87175727 10.0201078,5.0169148 9.75150593,6.40675988 C9.71221691,6.6338137 9.68846807,6.86328377 9.6804249,7.09357306 C9.67215005,7.44111708 9.64095383,7.78866109 9.53826285,8.12793025 C9.19071883,9.35202993 8.1874751,10.3076105 6.9473222,10.5918518 Z" id="Sing"></path>
        </g>
    </g>
</svg>