<?xml version="1.0" encoding="UTF-8"?>
<svg width="20px" height="20px" viewBox="0 0 20 20" version="1.1" xmlns="http://www.w3.org/2000/svg" xmlns:xlink="http://www.w3.org/1999/xlink">
    <!-- Generator: sketchtool 49.3 (51167) - http://www.bohemiancoding.com/sketch -->
    <title>5B2B4759-6DF3-490B-85C1-382926B1FB88</title>
    <desc>Created with sketchtool.</desc>
    <defs></defs>
    <g id="Coins" stroke="none" stroke-width="1" fill="none" fill-rule="evenodd">
        <g id="Coins/NuBits-NBT" fill="#0099F7">
            <path d="M12.2703917,15.0660826 C11.9829755,15.0640186 11.7195537,14.8836739 11.5753296,14.6416664 C11.5038626,14.5286608 11.4721281,14.3975949 11.4342015,14.271173 C10.502034,11.181578 9.5647063,8.09327297 8.63047468,5.00445195 C8.98471385,5.00470995 9.33869501,5.00341993 9.69293417,5.00496795 C9.99557258,5.00316193 10.2938249,5.20646889 10.36942,5.50549525 C11.3325481,8.69287371 12.2987722,11.8794781 13.2637062,15.0663406 C12.9326874,15.0663406 12.6014106,15.0671146 12.2703917,15.0660826 M10.2058456,15.0691786 C9.87972889,15.0611805 9.57528446,14.8263971 9.48575715,14.5126645 C8.51308297,11.3430883 7.53886077,8.17402814 6.5664446,5.00445195 C6.92042576,5.00419394 7.27414892,5.00445195 7.62813008,5.00419394 C7.85826943,5.0013559 8.09150483,5.11152351 8.22205473,5.3034783 C8.27597752,5.38036343 8.29997187,5.47221276 8.32706226,5.56070805 C9.30051045,8.73002625 10.2731846,11.8998604 11.2456008,15.0694366 C10.8991017,15.0694366 10.5523447,15.0704687 10.2058456,15.0691786 M17.7444644,7.98697019 C17.5094228,7.0803445 17.1128709,6.21603145 16.5785449,5.44692184 C15.5968401,8.62165977 14.6169414,11.7971717 13.6352367,14.9719096 C13.3731047,14.1259149 13.1117468,13.2799201 12.8498729,12.4341833 C12.8263945,12.3745844 12.8658691,12.3160175 12.8790273,12.2589987 C13.720636,9.53989563 14.5612126,6.82027657 15.4023052,4.10091552 C15.2898155,3.99951999 15.1757778,3.90018849 15.058644,3.80421104 C14.2441258,6.42682063 13.4314136,9.04994623 12.6153474,11.6720398 C12.3697277,10.822691 12.0936635,9.98263032 11.8348857,9.13740956 C11.8080533,9.05949238 11.8532039,8.98363923 11.8725542,8.90985012 C12.4948596,6.91548001 13.121035,4.92239992 13.7381802,2.92648179 C13.2304286,2.65867374 12.6942966,2.4440145 12.1411363,2.29050219 C10.993277,1.96980334 9.77343472,1.91613853 8.60029111,2.12202564 C7.05175187,2.39163971 5.59222396,3.13727097 4.46087698,4.22733743 C3.27896124,5.35687848 2.45592889,6.85717113 2.14761426,8.46324538 C1.90844467,9.69624599 1.95927143,10.9857495 2.30473862,12.1937237 C2.55293834,13.0657769 2.95129632,13.8947434 3.47814023,14.6326345 C4.42424043,11.5048533 5.37059864,8.37733008 6.31850486,5.25006487 C6.58424885,6.11386191 6.85618493,6.97585292 7.11780086,7.84042397 C6.99473301,8.2790306 6.85489491,8.71350916 6.72563497,9.15056775 C6.03831266,11.420744 5.35279637,13.6914363 4.66470004,15.9613546 C4.77460969,16.0588801 4.88606736,16.1545995 5.00087909,16.2467069 C5.77798675,13.6744081 6.55690044,11.1026252 7.33478212,8.53058439 C7.59975209,9.39644547 7.87581624,10.2597265 8.13407811,11.1271356 C7.53705715,13.1222797 6.92558797,15.1135538 6.32934102,17.1089559 C6.94287423,17.4273327 7.59897808,17.6641803 8.27417422,17.8133065 C10.0954236,18.2170826 12.056769,17.9621748 13.7079938,17.0908956 C15.2180904,16.3029517 16.4629591,15.0196404 17.2029142,13.4852912 C18.0285266,11.7940757 18.2194495,9.80692966 17.7444644,7.98697019" id="Sign"></path>
        </g>
    </g>
</svg>