<?xml version="1.0" encoding="UTF-8"?>
<svg width="20px" height="20px" viewBox="0 0 20 20" version="1.1" xmlns="http://www.w3.org/2000/svg" xmlns:xlink="http://www.w3.org/1999/xlink">
    <!-- Generator: sketchtool 49.3 (51167) - http://www.bohemiancoding.com/sketch -->
    <title>B525FF08-259F-40D3-BDAA-D9F0F2C05540</title>
    <desc>Created with sketchtool.</desc>
    <defs></defs>
    <g id="Coins" stroke="none" stroke-width="1" fill="none" fill-rule="evenodd">
        <g id="Coins/Numeraire-NMR" fill="#0099F7">
            <path d="M16.8709941,10.6406055 C16.867594,10.7713378 16.8735441,10.9020701 16.8697191,11.0328023 C16.8757542,11.1395642 16.8465987,11.2445411 16.8527188,11.3517279 C16.7438319,11.3513029 16.634945,11.3517279 16.526058,11.3504529 C16.5273331,10.8592293 16.526058,10.3675807 16.5269081,9.87635704 C16.2598334,9.86904691 15.9928437,9.87465701 15.725769,9.87253197 C15.725344,9.96382358 15.725344,10.0551152 15.723644,10.1468318 C15.6113315,10.1485318 15.4990105,10.1491013 15.386698,10.1485318 C15.384573,9.99807918 15.384998,9.84720153 15.385423,9.69674889 C15.4371889,9.64489798 15.4881898,9.59253706 15.5391907,9.53941112 C15.9216974,9.53558606 16.3047142,9.53167599 16.6867109,9.54068615 C16.7831876,9.60018719 16.8919895,9.69674889 16.8709941,9.82357111 C16.8709941,10.0955759 16.8692941,10.3683457 16.8709941,10.6406055 Z M16.4251613,12.6025249 C15.7658897,12.6046754 15.1066436,12.60482 14.4474315,12.6029499 C14.4456465,12.4893029 14.4456465,12.3757409 14.4464965,12.2626039 C14.8630038,11.9912792 15.2836762,11.7270945 15.7036686,11.4618899 C15.8039704,11.5287861 15.9025721,11.5990823 16.0003238,11.6693785 C15.698118,11.8620514 15.3960737,12.0542398 15.0942079,12.2459436 C15.5378307,12.2506187 15.9815385,12.2455186 16.4255863,12.2484937 C16.4264363,12.3663908 16.4264363,12.4847128 16.4251613,12.6025249 Z M15.159319,13.7559952 C15.0384469,13.7589702 14.9179998,13.7589702 14.7975527,13.7538701 C14.7954277,13.6393731 14.7954277,13.5253861 14.7971277,13.4108891 C14.9175748,13.407064 15.0384469,13.407064 15.159319,13.4096141 C15.1597696,13.5249356 15.1597696,13.6403931 15.159319,13.7559952 Z M14.2866937,14.3273752 C14.1251909,14.5661444 13.9703182,14.8095887 13.8117904,15.0498879 C13.621047,14.7653029 13.4363388,14.4776578 13.2477205,14.1913728 C13.2468705,14.0010545 13.2451704,13.8107361 13.2498455,13.6208428 C13.4349788,13.8982027 13.6099118,14.1827877 13.7993802,14.4575125 C13.8528461,14.4349021 13.8769015,14.3775261 13.9094571,14.3333253 C14.0552347,14.0988912 14.2112124,13.8712572 14.35784,13.6372481 C14.36209,13.8108211 14.3647251,13.9849042 14.36039,14.1589022 C14.3646401,14.2240984 14.3171243,14.2746743 14.2866937,14.3273752 Z M13.1668841,11.7822605 C12.9033794,11.7818355 12.6409798,11.7822605 12.3781552,11.7818355 C12.3785802,11.8769522 12.3781552,11.9721538 12.3760302,12.0672705 C12.2633182,12.0689705 12.1506062,12.0689705 12.0382342,12.0685455 C12.0345792,11.9145228 12.0354292,11.7606701 12.0358542,11.6064774 C12.0937402,11.5520765 12.1520512,11.4975905 12.2116373,11.4444646 C12.5870889,11.4474396 12.9626255,11.4448896 13.3380771,11.4457396 C13.3946881,11.4997155 13.451214,11.5542015 13.50808,11.6077524 C13.5085306,11.979379 13.5086751,12.350861 13.5085051,12.722207 C13.394093,12.723057 13.279596,12.722632 13.165609,12.719232 C13.165184,12.4067665 13.163059,12.094726 13.1668841,11.7822605 Z M12.1061504,15.7909309 C12.1944415,15.7909309 12.2830385,15.7919254 12.3719501,15.793906 C12.3728001,15.909678 12.3728001,16.02579 12.3711001,16.1415621 C12.0101837,16.1467471 11.6492674,16.1453871 11.2883511,16.1424121 C11.2810409,16.0331002 11.2798509,15.9233632 11.2789159,15.8144763 C11.6642277,15.5505467 12.0662847,15.3125425 12.4567816,15.056433 C12.5879389,14.9459311 12.707111,15.1301293 12.819398,15.1839352 C12.819398,15.1942204 12.819823,15.2152158 12.819823,15.225501 C12.5266528,15.4145443 12.2265975,15.5933024 11.9398025,15.7922059 L12.1061504,15.7909309 Z M11.4601391,13.1960053 C11.681143,13.1917553 11.9016368,13.1947303 12.1223857,13.1934553 C12.2578186,13.6679931 12.39343,14.142497 12.5292029,14.6169753 C12.4152159,14.6174003 12.3011439,14.6174003 12.1875819,14.6144252 C12.0906802,14.2518089 11.9857033,13.8913175 11.8871016,13.5291262 C11.8253905,13.5253011 11.7636794,13.5226661 11.7019683,13.519691 C11.5999665,13.8857584 11.4982453,14.2516899 11.396813,14.6174853 C11.282826,14.6170603 11.169179,14.6170603 11.055617,14.6157853 C11.1944244,14.143432 11.3324668,13.6710787 11.4601391,13.1960053 Z M9.75050407,12.666191 C9.73358877,12.5549241 9.73358877,12.4422121 9.73273875,12.3298401 C10.1506911,12.0516302 10.5819037,11.7935657 10.999771,11.5154408 C11.0992227,11.584037 11.1973995,11.6539083 11.2985512,11.7198694 C11.0095462,11.923023 10.7027758,12.1000811 10.4082456,12.2959245 C10.8493184,12.3036597 11.2903911,12.2950745 11.7314639,12.3005996 C11.7344389,12.4218967 11.7344389,12.5436189 11.7310388,12.664916 C11.0709173,12.6687411 10.4107957,12.666191 9.75050407,12.666191 Z M10.8981942,16.991747 C10.7880323,16.9921975 10.6781509,16.9921975 10.5685584,16.991747 C10.5643084,16.8730849 10.5643084,16.7551878 10.5660084,16.6372908 C10.6813554,16.6364407 10.7966174,16.6381408 10.9114545,16.6457909 C10.9135795,16.7611379 10.9127295,16.876825 10.8981942,16.991747 Z M9.9290922,13.2656216 C10.0522084,13.2669901 10.175265,13.2595439 10.2973187,13.2433512 C10.4418212,13.4813553 10.6123342,13.7174045 10.6865405,13.9883042 C10.5712785,13.9891543 10.4559315,13.9891543 10.3410944,13.9900043 C10.2054321,13.74741 10.0680951,13.5059463 9.9290922,13.2656216 Z M10.3618348,16.0469554 C10.3121344,16.0988063 10.2629781,16.1512522 10.2143572,16.2042932 C10.0557444,16.2076932 9.89713164,16.2081182 9.73834885,16.2034431 C9.74047389,16.0962563 9.72678865,15.9869443 9.7524591,15.8819675 C9.84205067,15.8725323 9.93206725,15.8759324 10.0225088,15.8750824 C10.0233589,15.6097927 10.0225088,15.3448431 10.0229338,15.0799784 C9.58398614,15.0774284 9.14461343,15.0855885 8.70617573,15.0757283 C8.70487521,14.9647164 8.70501121,14.8538149 8.70660074,14.7430325 C9.20207444,14.7357224 9.69720813,14.7426075 10.1926818,14.7392074 C10.2493523,14.7958779 10.3060143,14.8528799 10.3626848,14.9102304 C10.3605598,15.2887421 10.3614098,15.6676787 10.3618348,16.0469554 Z M10.1150755,17.7846409 C9.9974929,17.7864514 9.87990184,17.7863664 9.76231927,17.7843859 C9.76274428,17.5151862 9.75628417,17.2455614 9.76656935,16.9763617 C9.88276639,16.9767867 9.99930344,16.9828218 10.1150755,16.993362 C10.116376,17.2569771 10.116376,17.5207368 10.1150755,17.7846409 Z M8.64624968,16.9994821 C8.50166214,16.7581629 8.36667977,16.5110635 8.2260873,16.2677893 C8.35809462,16.2665142 8.49010193,16.2660892 8.62219425,16.2686393 C8.7443414,16.5116586 8.90677925,16.7354675 9.0007059,16.992172 C8.88238382,16.9986321 8.76448675,16.9986321 8.64624968,16.9994821 Z M6.97699036,15.7272648 C6.97486533,15.6107277 6.97529033,15.4941057 6.97741537,15.3779086 C7.4459436,15.3762086 7.91489683,15.3736586 8.38334006,15.3791837 C8.38419007,15.4945052 8.38419007,15.6099627 8.38334006,15.7255648 C7.91438682,15.7324499 7.4458586,15.7293898 6.97699036,15.7272648 Z M6.67438505,15.2181058 C6.5578225,15.2198059 6.44165096,15.2199504 6.32587893,15.2185308 C6.3242894,15.1019088 6.32443391,14.9854568 6.32630394,14.8691747 C6.44201647,14.8674747 6.55790751,14.8677552 6.67396004,14.8700247 C6.67566007,14.9857373 6.67580458,15.1017643 6.67438505,15.2181058 Z M5.39188253,12.6072 C5.3900125,12.4147566 5.38805746,12.2218882 5.39400757,12.0297849 C5.57744079,12.3102898 5.76138402,12.5907947 5.9426922,12.8720646 C6.13726062,12.5942798 6.31134368,12.3025546 6.50421206,12.0233247 C6.50803713,12.2123681 6.50506208,12.4018364 6.50676211,12.5908797 C6.31474374,12.8720646 6.13896065,13.1643848 5.94184219,13.4417446 C5.75925898,13.1631098 5.58220087,12.8807348 5.39188253,12.6072 Z M5.86126077,14.3368104 C5.55432038,14.3517706 5.24618997,14.3445455 4.93924958,14.3389354 C4.93797456,14.2245234 4.93797456,14.1104514 4.93882457,13.9960394 C5.24789,13.9857542 5.55738044,13.9908543 5.86687087,13.9930643 C5.8685709,14.1074763 5.87588103,14.2225684 5.86126077,14.3368104 Z M4.66885983,12.6910965 C4.56124794,12.6915215 4.45321105,12.6919465 4.34585416,12.6919465 C3.9605424,12.6881214 3.57472062,12.6984066 3.18940886,12.6872714 C3.12514773,12.6508058 3.06037659,12.5907947 3.03122108,12.5227085 C3.0211059,12.1438569 3.03003106,11.7644952 3.02790602,11.3854735 C3.08324199,11.3314976 3.13891797,11.2770116 3.19467895,11.2230357 C3.34215654,11.2221857 3.48954913,11.2217607 3.63668671,11.2247357 C3.63838674,11.3361727 3.63838674,11.4480346 3.63753672,11.5594716 C3.54582011,11.5615966 3.45452851,11.5620216 3.3628119,11.5628717 C3.36493694,11.8286713 3.36153688,12.094386 3.36493694,12.3601857 C3.79912456,12.3614607 4.23339719,12.3572106 4.66758481,12.3623107 C4.66970985,12.4720476 4.66970985,12.5813595 4.66885983,12.6910965 Z M3.88863113,9.87465701 C3.88993166,9.98526945 3.88993166,10.0960009 3.88863113,10.2068428 C3.77115907,10.2081179 3.65377201,10.2085429 3.53629995,10.2064178 C3.53502492,10.0923458 3.53544993,9.97878384 3.539275,9.86522184 C3.65589705,9.86352181 3.77243409,9.86692187 3.88863113,9.87465701 Z M3.02748101,7.87117183 C3.61399131,7.86777177 4.20152163,7.86649675 4.78879694,7.87202184 C4.79007196,7.98303379 4.79007196,8.09447075 4.79049697,8.20590771 C4.52818236,8.37778073 4.26586776,8.55050376 3.99624302,8.70996656 C3.88225602,8.66840083 3.79606451,8.57396417 3.6987378,8.50468795 C3.84400535,8.41297134 3.99148294,8.32422979 4.13224541,8.22605306 C3.76401895,8.22435303 3.39587748,8.2281781 3.02722601,8.22392802 C3.02552598,8.10645596 3.02561098,7.9888734 3.02748101,7.87117183 Z M5.00988582,10.672311 L4.65287955,10.672311 C4.65457958,10.2994095 4.65330456,9.92608291 4.65415458,9.55309636 L5.00946082,9.55309636 C5.01031083,9.92642292 5.00946082,10.2993245 5.00988582,10.672311 Z M3.96921255,6.62768499 C4.47845649,6.62470994 4.98812544,6.62343492 5.49728438,6.62811 C5.50025943,6.74515706 5.50025943,6.8616941 5.49770939,6.97874116 C4.98770043,6.98341624 4.47837149,6.98214122 3.96870254,6.97916617 C3.96708751,6.86211911 3.96708751,6.74439204 3.96921255,6.62768499 Z M5.7374136,6.62811 C5.85318563,6.62725999 5.96887266,6.62683498 6.0850697,6.62768499 C6.08761975,6.74515706 6.08761975,6.86296913 6.0850697,6.98044119 C5.96887266,6.98171621 5.85318563,6.9812912 5.7374136,6.98001618 C5.73605357,6.86254412 5.73605357,6.74549706 5.7374136,6.62811 Z M6.20585682,5.21139013 C6.20370629,5.09482758 6.20328128,4.97851154 6.2045818,4.862459 C6.29927346,4.86075897 6.39405013,4.86118398 6.48874179,4.86203399 C6.74162123,4.84503369 6.99407566,4.85004878 7.24704011,4.86458404 C7.24789012,4.97432096 7.24746511,5.0844829 7.24619009,5.19421982 C6.87218352,5.41879377 6.51279721,5.66784814 6.13343555,5.88273191 C6.02157359,5.84023117 5.93623209,5.7507246 5.84494049,5.67609329 C6.09314484,5.52479063 6.33616411,5.36532783 6.58691851,5.21827525 C6.46001129,5.21181513 6.33276405,5.21266515 6.20585682,5.21139013 Z M7.36017709,7.46027461 C7.24483007,7.46112463 7.12956804,7.46154964 7.01473103,7.46069962 C7.01354101,7.18826984 7.00997094,6.91524504 7.01728107,6.64239025 C7.13084307,6.64154024 7.24491507,6.64196525 7.35847706,6.64324027 C7.36187712,6.91524504 7.36017709,7.18801483 7.36017709,7.46027461 Z M7.4913344,5.33396228 C7.67740266,5.61599723 7.85786083,5.90194225 8.04639414,6.18227717 C8.23458745,5.89854219 8.41632064,5.61047213 8.60621397,5.32801217 C8.60621397,5.51501546 8.61862419,5.70397377 8.60238891,5.89080706 C8.43009088,6.18610224 8.23076238,6.46516214 8.04511912,6.75238218 C7.86253591,6.46992222 7.66915752,6.19341237 7.49600948,5.90542731 C7.47637413,5.71587398 7.49048438,5.52428062 7.4913344,5.33396228 Z M8.28006325,3.33141211 C8.40136038,3.32673703 8.52265751,3.32673703 8.64437964,3.32971208 C8.64607967,3.84193108 8.64820471,4.35372506 8.64310462,4.86551905 C8.52733259,4.8680691 8.41164556,4.8680691 8.29629853,4.86721908 C8.25779285,4.35712512 8.2885634,3.8432061 8.28006325,3.33141211 Z M8.88008878,6.85625401 C8.88306383,6.94372054 8.88263883,7.03110208 8.8813638,7.11856861 C9.14758848,7.14857414 9.41585319,7.12706876 9.68335289,7.13352888 C9.68471291,6.69704621 9.68046284,6.25988354 9.68598793,5.82391088 C9.79827491,5.82178584 9.91098688,5.82178584 10.0237839,5.82306087 C10.029394,6.31853457 10.0233589,6.81451828 10.0267589,7.31058699 C9.974483,7.36031286 9.92263209,7.41088875 9.87163119,7.46146464 C9.4845344,7.46571471 9.0975226,7.46188964 8.71085081,7.46358967 C8.65984991,7.41471381 8.607574,7.36796299 8.56167319,7.31526207 C8.54195284,7.1635344 8.5564881,7.00874669 8.55606309,6.85625401 C8.66407449,6.85540399 8.77207739,6.85540399 8.88008878,6.85625401 Z M9.17461895,2.87962918 C9.23463001,2.81162799 9.29549108,2.70563113 9.40097793,2.71974137 C9.75976923,2.72186641 10.1194105,2.71413127 10.4781168,2.72356644 C10.5402529,2.76215712 10.5878538,2.82004313 10.6409797,2.86976901 C10.6396792,3.24009501 10.6396792,3.61044651 10.6409797,3.98082352 C10.5342178,3.98209854 10.4271159,3.98685862 10.3203541,3.97954849 C10.313894,3.95336803 10.3010587,3.90194213 10.2948536,3.87584667 C10.2948536,3.59933682 10.318824,3.32248696 10.2957036,3.04640211 C10.0320885,3.04685262 9.76858388,3.04685262 9.50518976,3.04640211 C9.50391474,3.13939374 9.50348973,3.23289538 9.50263971,3.32588702 C9.39162776,3.32588702 9.28019081,3.32588702 9.16875385,3.325037 C9.16951886,3.1770494 9.15319858,3.02659676 9.17461895,2.87962918 Z M10.2707132,8.21534287 C10.2711637,8.32935538 10.2710192,8.44308737 10.2702882,8.55653886 C10.1485661,8.55993892 10.0264189,8.55993892 9.90478178,8.55781389 C9.90359175,8.44297687 9.90359175,8.32847986 9.90461177,8.21364284 C10.0267589,8.2110928 10.1484811,8.2110928 10.2707132,8.21534287 Z M9.54548047,5.34212242 C9.42930893,5.34558198 9.31314589,5.34571798 9.19697435,5.34254743 C9.1942543,5.22598488 9.1941098,5.10938833 9.19654934,4.99276629 C9.31274638,4.98936623 9.42928343,4.98979123 9.54505546,4.99276629 C9.54803051,5.10938833 9.54803051,5.22550037 9.54548047,5.34212242 Z M9.40701303,4.05621984 C9.53732032,4.05324479 9.66762761,4.0536698 9.7980199,4.0536698 C9.92271709,4.29626406 10.0792048,4.52262303 10.1805266,4.77677749 C10.0609295,4.78238759 9.94090741,4.78238759 9.82131031,4.7828126 C9.67918781,4.54285339 9.5419954,4.30008912 9.40701303,4.05621984 Z M9.2571554,11.0481876 C9.25520037,10.7602026 9.25477536,10.4721325 9.25758041,10.1844875 C9.37545198,10.1819374 9.49331505,10.1816569 9.61118662,10.1836374 C9.61288665,10.4721325 9.61246164,10.7606276 9.61161163,11.0490376 C9.49328955,11.0511627 9.37539248,11.0511627 9.2571554,11.0481876 Z M9.03878657,12.9227255 C9.15583362,12.9214505 9.27322069,12.9210255 9.39026774,12.9223005 C9.39324279,13.3581882 9.39026774,13.7941608 9.39196777,14.2300485 C9.30883631,14.2334485 9.22561985,14.2373586 9.14248839,14.2450088 C9.11588292,14.2398237 9.06275699,14.2304735 9.03615152,14.2257134 C9.03878657,13.7915258 9.03402649,13.3569132 9.03878657,12.9227255 Z M8.05038921,8.56172396 C8.0494797,8.4446514 8.04916519,8.32791035 8.0494542,8.21151781 C8.55742312,8.21364284 9.06530703,8.20896776 9.57285095,8.21364284 C9.58522716,8.32915137 9.58365464,8.44573942 9.56817586,8.56087394 C9.06190697,8.56299898 8.55614809,8.56129895 8.05038921,8.56172396 Z M7.753479,12.3983513 C7.75602904,12.5153729 7.75588454,12.6323859 7.75305399,12.7494075 C7.63711196,12.7503425 7.52091492,12.7507675 7.40454787,12.7494925 C7.4002978,12.6294704 7.39987279,12.5094483 7.40667291,12.3898512 C7.52201993,12.3885762 7.63813197,12.3890012 7.753479,12.3983513 Z M7.24313004,9.36277802 C7.23814045,9.24354643 7.23788545,9.12468884 7.24236502,9.00619676 C7.52873505,9.00577175 7.81459507,9.00619676 8.1008801,9.00577175 C8.10343014,9.12477384 8.10343014,9.24377593 8.10045509,9.36277802 C7.81456957,9.36322853 7.52879455,9.36322853 7.24313004,9.36277802 Z M6.53200755,11.1030986 C6.63649139,11.1017981 6.74095822,11.1065156 6.84489804,11.1172088 C6.84659807,11.2351059 6.84617307,11.353428 6.84532305,11.47124 C6.3353141,11.47039 5.82641016,11.4737901 5.31725122,11.46954 C5.31427617,11.354703 5.31427617,11.239866 5.31512618,11.124944 C5.71888327,11.0812532 6.12655043,11.1159338 6.53200755,11.1030986 Z M6.62253414,9.11159861 C6.75539147,9.58607694 6.89810898,10.0580052 7.02374119,10.5346936 C6.91323924,10.5346936 6.8027373,10.5346936 6.69283037,10.5355436 C6.5801184,10.1694422 6.49307687,9.79654064 6.37687983,9.43222424 C6.31431873,9.43604931 6.25175763,9.44072439 6.18911153,9.44548447 C6.10598007,9.81243592 5.98723298,10.1698672 5.89636639,10.5351186 C5.78280439,10.5346936 5.6691574,10.5346936 5.55636042,10.5338436 C5.69151279,10.0594503 5.82607015,9.58437691 5.96453759,9.1107486 C6.18401144,9.10947357 6.40306029,9.10819855 6.62253414,9.11159861 Z M6.90201905,8.70138141 C6.71042568,8.70478147 6.51883232,8.70265643 6.32723895,8.70308144 C6.0507291,8.51539814 5.76350906,8.34242011 5.49133428,8.1484467 C5.7660591,7.94784318 6.05931425,7.77342011 6.3413492,7.58395179 C6.52784248,7.58607682 6.71382574,7.58352678 6.90031902,7.58650183 C6.62338416,7.78455531 6.32893898,7.95557831 6.05030409,8.15099674 C6.33667412,8.3310299 6.61743405,8.51964822 6.90201905,8.70138141 Z M6.45576121,13.9822691 C6.8762636,13.7122194 7.29591596,13.4404696 7.72228345,13.17943 C7.82046018,13.2484513 7.91948691,13.3154324 8.01672862,13.3860687 C7.71157326,13.575962 7.41236801,13.7757155 7.1041526,13.9604238 C7.55083544,13.9689239 7.99785829,13.9591487 8.44496614,13.9656088 C8.44709118,14.0830809 8.44751619,14.200468 8.44411613,14.31794 C7.7818695,14.3200651 7.11962287,14.3231251 6.45737624,14.316665 C6.45406118,14.2051431 6.45448619,14.0937061 6.45576121,13.9822691 Z M8.95871516,11.7814105 C8.91842446,11.7818355 8.87813375,11.7822605 8.83826805,11.7831105 C8.58836366,11.3861536 8.32732408,10.9960817 8.08812988,10.5930896 C8.04486412,11.0311873 8.08039474,11.4731101 8.06628449,11.9129078 C7.94855742,11.9140978 7.83125536,11.9140978 7.71429331,11.9111228 C7.71128426,11.2510012 7.71114826,10.5908201 7.7138683,9.93058799 C7.82964034,9.92888796 7.94532737,9.92888796 8.0610994,9.93143801 C8.33310418,10.3699607 8.6136091,10.8037233 8.89139398,11.239186 C9.01141609,11.3938887 8.93941982,11.6013773 8.95871516,11.7814105 Z M10.7841222,9.3105021 C10.7832722,9.6405374 10.7831277,9.9708787 10.7836972,10.3015345 C10.7262362,10.3636706 10.6684352,10.4249567 10.6105492,10.4866678 C10.4617966,10.4866678 10.313469,10.4870928 10.1648013,10.4849677 C10.1634923,10.3716352 10.1633563,10.2584643 10.1643763,10.1454718 C10.257368,10.1441967 10.3504446,10.1433467 10.4434362,10.1420717 C10.4438612,9.88230714 10.4430112,9.62211758 10.4442862,9.36235301 C10.0078886,9.32333733 9.56817586,9.3558929 9.13050318,9.3443327 C9.12936416,9.23122121 9.12936416,9.11850923 9.13050318,9.00619676 C9.57973607,9.00577175 10.028969,9.00662177 10.4781168,9.00534675 C10.6414047,8.9798463 10.8047776,9.14933927 10.7841222,9.3105021 Z M11.1049178,11.2269458 C10.9915769,11.2286458 10.8782444,11.2286458 10.7649119,11.2269458 C10.7640619,11.1099837 10.7640619,10.9925116 10.7649119,10.8754646 C10.8780489,10.8750396 10.9916959,10.8746146 11.1049178,10.8758896 C11.1061929,10.9925116 11.1066179,11.1094737 11.1049178,11.2269458 Z M11.1057679,8.29711431 C10.9917809,8.29796432 10.8781339,8.29838933 10.7641469,8.29838933 C10.7644869,7.92514778 10.7636369,7.55139621 10.7649119,7.17789966 C10.8782444,7.17704964 10.9915769,7.17719414 11.1049178,7.17832466 C11.1074679,7.55122621 11.1057679,7.92412776 11.1057679,8.29711431 Z M10.7374564,4.48275733 C10.8501684,4.48020729 10.9628804,4.48063229 11.0761023,4.48233232 C11.3830427,4.95834068 11.681313,5.43995914 11.9903784,5.91486248 C11.9899534,6.05936502 11.9908034,6.20386755 11.9878284,6.34837009 C11.9544228,6.34233498 11.8883766,6.33077478 11.855396,6.32524968 C11.5930814,5.93424282 11.3517622,5.52929571 11.0924226,5.13658881 C11.0881726,5.57859657 11.0936977,6.02060433 11.0894476,6.4626121 C10.9719755,6.46476263 10.8542484,6.46476263 10.7362664,6.4626121 C10.7349064,5.80291551 10.7327813,5.14279392 10.7374564,4.48275733 Z M11.3656174,3.88179678 C11.6886231,3.8775467 12.0111188,3.87882173 12.3339544,3.88094676 C12.3356545,3.99926884 12.3356545,4.11716591 12.3343794,4.23540299 C12.0113738,4.23880305 11.6883681,4.24007807 11.3653624,4.23455297 C11.3641724,4.11708091 11.3641724,3.99884383 11.3656174,3.88179678 Z M12.4987723,5.09145302 C12.3787502,5.09442807 12.2583031,5.09442807 12.138706,5.09230303 C12.137856,4.97868154 12.1377115,4.86477954 12.138281,4.75059703 C12.2583031,4.74804699 12.3787502,4.74804699 12.4987723,4.75144705 C12.4996223,4.86458404 12.4996223,4.97823103 12.4987723,5.09145302 Z M12.6423398,5.38156311 C13.2008592,5.37901307 13.75937,5.37915757 14.3178893,5.38198812 C14.3183143,5.49512511 14.3183143,5.6087721 14.3174643,5.72199409 C13.7593445,5.72329461 13.2009697,5.72343912 12.6423398,5.7224191 C12.6419148,5.6087721 12.6414898,5.4948701 12.6423398,5.38156311 Z M13.5287354,8.59895461 C13.5300359,8.71466714 13.5298999,8.83041367 13.5283104,8.94618571 C13.4070133,8.95043578 13.2861412,8.95043578 13.164844,8.94661071 C13.163569,8.83041367 13.163569,8.71472664 13.164844,8.5985296 C13.2857161,8.59427953 13.4074383,8.59427953 13.5287354,8.59895461 Z M12.5189177,10.5856945 C12.878134,10.5810194 13.2373503,10.5835695 13.5969916,10.5844195 C13.6115269,10.6893963 13.620537,10.7961582 13.6102518,10.9024951 C13.5762512,10.9715163 13.4949048,10.9440608 13.4340437,10.9505209 C13.1280384,10.9415107 12.821098,10.9681162 12.5172176,10.9335206 C12.5150926,10.8171536 12.5150926,10.7014665 12.5189177,10.5856945 Z M11.9610529,7.28092147 C12.0754649,7.27922144 12.1905569,7.27922144 12.3052239,7.28219649 C12.3056489,7.39881854 12.3060739,7.51535558 12.3043739,7.63197763 C12.1901319,7.63240264 12.0752949,7.63197763 11.9606279,7.63155262 C11.9593274,7.51499008 11.9594634,7.39811302 11.9610529,7.28092147 Z M11.6711128,9.92659292 C11.6081267,9.84431148 11.4872546,9.78209039 11.5026398,9.66257829 C11.5004893,9.34348268 11.5003448,9.02424258 11.5022148,8.70486647 C11.4863195,8.58441935 11.6098267,8.52270827 11.6732378,8.44000182 C11.8224154,8.44042683 11.9715931,8.4391518 12.1207707,8.44212686 C12.1241707,8.55441383 12.1241707,8.6667008 12.1224707,8.77949778 C12.0282041,8.78119781 11.9334274,8.78119781 11.8391607,8.78247283 L11.8391607,9.58233688 C12.2776834,9.58531193 12.7161211,9.58063685 13.1546438,9.58488692 C13.1559189,9.69844892 13.1559189,9.81209591 13.1529438,9.92489289 C12.6591701,9.92829295 12.1648865,9.9253179 11.6711128,9.92659292 Z M11.741409,10.5703092 C11.7435596,10.6877813 11.7435596,10.8052279 11.741409,10.9226404 C11.6256965,10.9230909 11.5100945,10.9229549 11.3946029,10.9222154 C11.3933024,10.8051939 11.3933024,10.6878918 11.3946029,10.5703092 C11.50995,10.5694592 11.625637,10.5690342 11.741409,10.5703092 Z M14.1514563,7.86471172 C14.0434194,7.49997031 13.9512778,7.13089383 13.8398409,6.76691744 C13.7777048,6.76776745 13.7155687,6.76861747 13.6533476,6.76904248 C13.560781,7.13641893 13.449344,7.49818528 13.3537173,7.86420171 C13.2397048,7.86465222 13.1256838,7.86451621 13.0116713,7.8637767 C13.1520088,7.39363344 13.2835911,6.92043014 13.4178085,6.44850185 C13.6388123,6.44637681 13.8610062,6.41203621 14.0808201,6.44765183 C14.2248126,6.91703008 14.3483198,7.39363344 14.4914623,7.8638617 C14.3783253,7.86471172 14.2646783,7.86471172 14.1514563,7.86471172 Z M14.3188243,11.8621619 C14.2018027,11.8643124 14.0849257,11.8641764 13.9681931,11.8617369 C13.9643426,11.4529902 13.9643426,11.044218 13.9681931,10.6354204 C14.0839652,10.6337203 14.2009272,10.6259852 14.3162742,10.6439205 C14.3274094,11.0493776 14.3209493,11.4561948 14.3188243,11.8621619 Z M15.8525062,8.59597956 C15.8533562,8.71387663 15.8533562,8.83219871 15.8520812,8.95001077 C15.3415622,8.95001077 14.8310433,8.95426085 14.3205243,8.94788574 C14.3188243,8.83132319 14.3186798,8.71487115 14.3200993,8.5985296 C14.8310433,8.59164448 15.3415622,8.59640456 15.8525062,8.59597956 Z M15.4379539,8.17462716 C15.3209069,8.1771772 15.2035198,8.1767522 15.0864728,8.17420215 C15.0839227,8.0571806 15.0837782,7.94016754 15.0860478,7.82314599 C15.2035198,7.82059594 15.3209069,7.82017093 15.438804,7.82272098 C15.441779,7.94019304 15.441354,8.0571551 15.4379539,8.17462716 Z M15.0856227,6.16578688 C15.2026698,6.16323684 15.3196319,6.16281183 15.4371039,6.16578688 C15.4409545,6.53979345 15.4408185,6.91414002 15.4366789,7.2888266 C15.3196319,7.29078164 15.2026698,7.29035663 15.0856227,7.2884016 C15.0821632,6.91439503 15.0821632,6.54019296 15.0856227,6.16578688 Z M15.9188924,6.88693955 C16.0496247,6.8843895 16.180782,6.88481451 16.3115143,6.8843895 C16.4409715,7.12443372 16.5983093,7.35189771 16.694701,7.60834721 C16.5756989,7.61259729 16.4559318,7.6130223 16.3367597,7.61353231 C16.1958272,7.37221307 16.0616099,7.12689876 15.9188924,6.88693955 Z M17.4245238,12.8673046 C17.4249743,10.955111 17.4249743,9.04294291 17.4245238,7.13080883 C17.432259,6.9353054 17.3340822,6.74073698 17.1771695,6.62547496 C14.89856,4.96057622 12.619925,3.29543098 10.3412644,1.63002224 C10.2018365,1.52099932 10.0220668,1.47760606 9.84825578,1.51102015 C9.74208892,1.53184551 9.64637724,1.58480144 9.56112074,1.64889257 C7.29872101,3.30257111 5.03621078,4.95610514 2.77358155,6.60949468 C2.60192104,6.72886227 2.49997875,6.92504572 2.50098177,7.13412389 C2.49967274,9.04586696 2.49967274,10.9574655 2.50098177,12.8689196 C2.49800671,13.0759832 2.6055336,13.2769268 2.77570659,13.3935488 C5.03810632,15.0463773 7.30004704,16.6995119 9.56154575,18.3529609 C9.77804455,18.5380941 10.1174555,18.5527144 10.3408394,18.3722562 C12.6121898,16.7138176 14.8827242,15.0545375 17.152434,13.3943988 C17.323372,13.2792218 17.433959,13.0747082 17.4245238,12.8673046 Z" id="Sign"></path>
        </g>
    </g>
</svg>