<?xml version="1.0" encoding="UTF-8"?>
<svg width="20px" height="20px" viewBox="0 0 20 20" version="1.1" xmlns="http://www.w3.org/2000/svg" xmlns:xlink="http://www.w3.org/1999/xlink">
    <!-- Generator: sketchtool 49.3 (51167) - http://www.bohemiancoding.com/sketch -->
    <title>29B0B69F-0CD2-4392-B4CC-B66D90762BFC</title>
    <desc>Created with sketchtool.</desc>
    <defs></defs>
    <g id="Coins" stroke="none" stroke-width="1" fill="none" fill-rule="evenodd">
        <g id="Coins/Nxt-NXT" fill="#0099F7">
            <path d="M15.7151377,8.86370909 C15.0349437,8.86370909 14.4835879,8.31332987 14.4835879,7.63460433 C14.4835879,6.95548398 15.0349437,6.40507013 15.7151377,6.40507013 L17.0210632,6.40507013 C15.7045472,3.79229784 12.9978874,2 9.87250563,2 C5.97395671,2 2.72675325,4.78865455 2.01674805,8.48003463 L6.27193766,11.3230061 L8.35778355,11.3230061 C9.03772121,11.3230061 9.58922944,11.8734199 9.58922944,12.5521524 C9.58922944,13.2315013 9.03772121,13.7819429 8.35778355,13.7819429 L5.89415758,13.7819429 C5.68981472,13.7819429 5.49646407,13.7319896 5.32684329,13.6437195 L2,11.4298736 C2.67411255,15.1658667 5.94230303,18 9.87250563,18 C12.9227498,18 15.5741645,16.2928485 16.9237264,13.7819429 L15.7151377,13.7819429 C15.510213,13.7819429 15.3174442,13.7319896 15.1476641,13.6437195 L7.96464069,8.86370909 L5.89435152,8.86370909 C5.21410216,8.86370909 4.66271169,8.31332987 4.66271169,7.63460433 C4.66271169,6.95548398 5.21410216,6.40507013 5.89435152,6.40507013 L8.35767965,6.40507013 C8.62299567,6.40507013 8.86925714,6.48887965 9.07041385,6.63156364 L16.0925853,11.3230061 L17.03209,11.3230061 L17.7635879,11.3230061 C17.8352069,10.8926476 17.8725056,10.4506805 17.8725056,10 C17.8725056,9.61424069 17.8451117,9.23488831 17.7923325,8.86370909 L15.7151377,8.86370909 Z" id="Sign"></path>
        </g>
    </g>
</svg>