<?xml version="1.0" encoding="UTF-8"?>
<svg width="20px" height="20px" viewBox="0 0 20 20" version="1.1" xmlns="http://www.w3.org/2000/svg" xmlns:xlink="http://www.w3.org/1999/xlink">
    <!-- Generator: sketchtool 49.3 (51167) - http://www.bohemiancoding.com/sketch -->
    <title>8C4027A8-034C-47A5-B8AA-A9EC5C8B5D0E</title>
    <desc>Created with sketchtool.</desc>
    <defs></defs>
    <g id="Coins" stroke="none" stroke-width="1" fill="none" fill-rule="evenodd">
        <g id="Coins/OmiseGo-OMG" fill="#0099F7">
            <path d="M5.83942612,16.8294479 L5.83942612,16.8289504 C4.36193363,16.8289504 3.164518,15.6200929 3.164518,14.1286712 C3.164518,12.6377469 4.36193363,11.4288895 5.83942612,11.4288895 C7.31691861,11.4288895 8.51433424,12.6377469 8.51433424,14.1286712 C8.51284183,15.6195954 7.31642114,16.827458 5.83942612,16.8294479 M5.83942612,10.2578399 C7.95766283,10.2578399 9.67493693,11.9910331 9.67493693,14.1286712 C9.67493693,16.2668068 7.95766283,18 5.83942612,18 C3.72118941,18 2.00391531,16.2668068 2.00391531,14.1286712 C2.00391531,11.9910331 3.72118941,10.2578399 5.83942612,10.2578399 Z M14.0315996,2 C16.1498363,2 17.8671104,3.73319321 17.8671104,5.87132881 C17.8671104,7.43687388 16.9323601,8.84820257 15.4991427,9.44765659 C14.0659252,10.0466131 12.4163073,9.71579412 11.3193811,8.60842096 C10.2224549,7.50154527 9.89462066,5.83650576 10.488105,4.38985654 C11.0815894,2.94320733 12.4804813,2 14.0315996,2 Z M14.0315996,8.57111054 C15.5080972,8.56912066 16.7045179,7.36125811 16.7065078,5.87132881 C16.7065078,4.3799071 15.5090921,3.1710496 14.0315996,3.1710496 C12.5541071,3.1710496 11.3566915,4.3799071 11.3566915,5.87132881 C11.3566915,7.36225305 12.5541071,8.57111054 14.0315996,8.57111054 Z M9.67468819,3.17035314 L8.58671645,3.17035314 C9.86124028,4.49064441 10.0373454,6.53475776 9.00757795,8.05702275 C7.97781045,9.57928774 6.02821683,10.1583454 4.34576578,9.44148794 C2.66331474,8.72463047 1.71413774,6.91084676 2.07679499,5.10402766 C2.43945224,3.29770603 4.01345434,1.99930354 5.83967486,2.00029848 L9.67468819,2.00029848 L9.67468819,3.17035314 Z M5.83967486,8.57041408 C7.31716735,8.57041408 8.51508045,7.36205406 8.51508045,5.87112982 C8.51358804,4.38070305 7.31716735,3.17234303 5.84017233,3.17035314 C4.36267984,3.17035314 3.16526421,4.37921064 3.16526421,5.87013488 C3.16476673,7.36105912 4.36218237,8.56991661 5.83967486,8.57041408 Z" id="Sign"></path>
        </g>
    </g>
</svg>