<?xml version="1.0" encoding="UTF-8"?>
<svg width="20px" height="20px" viewBox="0 0 20 20" version="1.1" xmlns="http://www.w3.org/2000/svg" xmlns:xlink="http://www.w3.org/1999/xlink">
    <!-- Generator: sketchtool 49.3 (51167) - http://www.bohemiancoding.com/sketch -->
    <title>078D4670-7120-4A7B-B79E-1D1D5A468799</title>
    <desc>Created with sketchtool.</desc>
    <defs></defs>
    <g id="Coins" stroke="none" stroke-width="1" fill="none" fill-rule="evenodd">
        <g id="Coins/Patientory-PTOY" fill="#0099F7">
            <path d="M15.1469887,7.80380957 C16.1292001,7.82869819 16.5896395,8.28024878 16.615417,9.24468262 C16.6331946,9.9095642 16.6243058,10.5744458 16.6163059,11.2393274 C16.6056393,12.0793181 16.1540887,12.5397575 15.3345422,12.5762015 C14.4909959,12.6144233 13.6438941,12.5833126 12.7985701,12.5833126 C12.7976812,12.5833126 12.7976812,12.5833126 12.7967923,12.5833126 C12.7976812,12.5833126 12.7976812,12.5833126 12.7985701,12.5833126 C11.9843568,12.7966436 11.6234719,13.3201934 11.6608048,14.1628508 C11.6901378,14.8188436 11.6705825,15.4783919 11.6652492,16.1361624 C11.6608048,16.7530445 11.4848067,17.4214816 10.806592,17.4383703 C9.79771416,17.4632589 8.79861403,17.4285926 7.66884867,17.4179261 C7.0164114,17.4117039 6.89107945,16.7157116 6.88841281,16.1326069 C6.88396841,15.4072815 6.91330142,14.6801784 6.87507962,13.9566308 C6.82885791,13.0784182 6.37641844,12.639312 5.49553923,12.6028679 C4.77110275,12.5735349 4.04488852,12.6073123 3.31956316,12.5904236 C2.74623613,12.5762015 2.04668826,12.4446474 2.03957723,11.7904324 C2.02979956,10.9326641 1.96580026,9.38690328 2.02446629,8.65980016 C2.08046567,7.97180772 2.73201406,7.81269836 3.34445177,7.80292069 C4.00755559,7.79225414 4.67154829,7.78069871 5.33376323,7.80469845 C6.092866,7.83314258 6.6119714,7.53981247 6.84841325,6.80026505 C6.86174643,5.95405213 6.86352419,5.10783921 6.89196832,4.26340405 C6.92396797,3.31852555 7.35507434,2.88475254 8.28750854,2.85719729 C8.92216823,2.83764195 9.55771679,2.84119747 10.1914876,2.85541953 C11.2039209,2.87853039 11.6465827,3.34074753 11.6643603,4.38340273 C11.6750268,5.01806242 11.6581381,5.65361099 11.6688047,6.28827068 C11.6856934,7.32470373 12.1310218,7.77803208 13.1523439,7.79758742 C13.8172255,7.81003173 14.4821071,7.78692087 15.1469887,7.80380957 Z M17.9917574,2.79639796 C18.1526445,5.33325896 15.9331134,7.00524057 13.5366953,6.15813878 C13.200699,6.03902897 13.1535884,5.85769764 13.1402552,5.56170089 C13.0638116,3.88971927 14.7037935,2.65151066 15.6575608,2.45329062 C16.2691097,2.32618091 16.7019938,2.28173695 17.5153182,2.30662557 C17.8539811,2.31729212 17.9695354,2.45062398 17.9917574,2.79639796 Z" id="Sign"></path>
        </g>
    </g>
</svg>