<?xml version="1.0" encoding="UTF-8"?>
<svg width="20px" height="20px" viewBox="0 0 20 20" version="1.1" xmlns="http://www.w3.org/2000/svg" xmlns:xlink="http://www.w3.org/1999/xlink">
    <!-- Generator: sketchtool 49.3 (51167) - http://www.bohemiancoding.com/sketch -->
    <title>76DCBEA2-CCB4-4215-840C-99E826E7AFF4</title>
    <desc>Created with sketchtool.</desc>
    <defs></defs>
    <g id="Coins" stroke="none" stroke-width="1" fill="none" fill-rule="evenodd">
        <g id="Coins/PIVX" fill="#0099F7">
            <path d="M15.5420519,12.4147238 C15.5420519,14.3890142 11.2973955,16.4759429 9.52926206,17.1716124 L9.44318335,17.1384929 L9.41006385,17.1252131 L9.35046474,17.0987335 L9.31734524,17.0854537 L9.25774613,17.0589741 L9.23790643,17.0523342 L9.16502752,17.0192147 L9.14518782,17.0125748 L9.06574901,16.9794553 L9.05246921,16.9728154 L8.9663905,16.9396959 L8.9599106,16.9396959 L8.86055209,16.8996965 L8.85391219,16.8996965 C7.9732054,16.5088224 6.82762259,15.932431 5.82107768,15.2566811 L5.70187947,15.1771623 L5.58268126,15.0910036 L5.47012295,15.0114848 L5.46348305,15.0048449 L5.35756464,14.9253261 L5.35092474,14.9186862 L5.24484633,14.8398074 L5.23820643,14.8331675 L5.13228802,14.7536487 L5.11900821,14.7470088 L5.01964971,14.6741299 L5.0063699,14.66749 L4.9136513,14.5946111 L4.90037149,14.5813313 L4.81429279,14.5084524 L4.80101298,14.4951726 L4.72157418,14.4222937 L4.70173447,14.4090139 L4.62885557,14.336135 L4.60901586,14.3162953 L4.53613696,14.2434163 L4.51629726,14.2235766 L4.44341835,14.1573376 L4.42357865,14.1374979 L4.35733964,14.0712589 L4.33749994,14.0447793 L4.27790083,13.9785403 L4.25806113,13.9520607 L4.19846202,13.8858217 L4.17862232,13.8593421 L4.12566312,13.7931031 L4.09918351,13.7666235 L4.05286421,13.7070244 L4.0263846,13.6739049 L3.9800653,13.6143058 L3.9535857,13.5811863 L3.9135863,13.5215872 L3.89374659,13.4884677 L3.85374719,13.4288686 L3.83390749,13.3888692 C3.82062769,13.3690295 3.81406779,13.3488698 3.80078799,13.33583 L3.77430839,13.2958306 C3.76287656,13.2795748 3.75394869,13.2616951 3.74782878,13.2427914 L3.72798908,13.202792 C3.72134918,13.1829523 3.70814938,13.1696725 3.70150948,13.1497528 C3.69626156,13.135785 3.68962166,13.1223772 3.68166977,13.1097534 C3.67396589,13.0924976 3.66733399,13.0747859 3.66183007,13.0567141 C3.65519017,13.0368744 3.64855027,13.0302345 3.64199037,13.0103148 C3.63659845,12.9943551 3.62996655,12.9788433 3.62215067,12.9639155 C3.61470278,12.9494758 3.61018285,12.933708 3.60887087,12.9175162 C3.60887087,12.9042364 3.59559107,12.8843967 3.59559107,12.8711169 C3.59427109,12.8549252 3.58975915,12.8391494 3.58231127,12.8247176 C3.57567136,12.8114378 3.57567136,12.798238 3.56903146,12.7783183 C3.56239156,12.7583986 3.56239156,12.7451988 3.55575166,12.7252791 C3.55078374,12.7125513 3.54852777,12.6989275 3.54911176,12.6852797 C3.54911176,12.6719999 3.54247186,12.6521602 3.54247186,12.6322405 C3.54247186,12.6123208 3.53583196,12.6057609 3.53583196,12.5922411 C3.53389599,12.5718974 3.52943206,12.5518737 3.52255216,12.532642 C3.51591226,12.5128023 3.52255216,12.5128023 3.52255216,12.4995225 L3.52255216,3.84845227 L9.50278246,2.88798668 L9.55574166,2.88798668 L15.535812,3.84845227 L15.5424519,12.4148038 L15.5420519,12.4147238 Z M9.52926206,2 L16.0717239,3.36477953 L16.0717239,12.4147238 C16.0717239,15.2370814 9.9066164,17.8606421 9.64174037,17.9600006 L9.53582196,18 L9.42990355,17.9600006 C8.18496223,17.3836092 6.97954031,16.7210592 5.82755759,15.9657905 C4.35749964,14.9918851 3,13.7397439 3,12.4147238 L3,3.36477953 L9.52926206,2 Z M4.9999708,4.27908581 L4.06614481,4.42484363 L4.06614481,12.1828873 C4.06614481,13.9783003 7.9267269,15.8797118 9.52926286,16.5091424 C10.4629289,16.1447478 12.1581834,15.3497198 13.4097647,14.3957341 C13.5024833,14.3228552 13.6017618,14.2499763 13.6879205,14.1770973 C14.118314,13.8259826 14.4759087,13.4549482 14.7077452,13.0773538 C14.8865425,12.7858382 14.9924609,12.4876827 14.9924609,12.1893672 L14.9924609,4.42484363 L9.52926286,3.55029675 L4.9999708,4.27908581 Z M13.1049692,7.97591036 L13.1051292,7.97591036 C13.1051292,9.54604681 12.0125056,10.5598716 10.5026883,10.5598716 L8.41015965,10.5598716 L8.41015965,13.8724619 L7.58241206,13.8724619 L7.58241206,9.81108283 L10.3903699,9.81108283 C11.5161131,9.81108283 12.251142,9.12869307 12.251142,7.97591036 C12.251142,6.83640745 11.5161131,6.17385739 10.4035697,6.17385739 L9.52926286,6.17385739 L7.43673425,6.18049729 L7.43673425,5.42522862 L10.4958884,5.42522862 C12.0123456,5.42522862 13.1049692,6.40577391 13.1049692,7.97591036 Z M6.89370239,8.32702509 L6.89370239,7.66447503 L10.0788546,7.66447503 L10.0788546,8.32702509 L6.89370239,8.32702509 Z" id="Sign"></path>
        </g>
    </g>
</svg>