<?xml version="1.0" encoding="UTF-8"?>
<svg width="20px" height="20px" viewBox="0 0 20 20" version="1.1" xmlns="http://www.w3.org/2000/svg" xmlns:xlink="http://www.w3.org/1999/xlink">
    <!-- Generator: sketchtool 49.3 (51167) - http://www.bohemiancoding.com/sketch -->
    <title>44D526AC-34FF-4263-A160-0FC6D61F497B</title>
    <desc>Created with sketchtool.</desc>
    <defs></defs>
    <g id="Coins" stroke="none" stroke-width="1" fill="none" fill-rule="evenodd">
        <g id="Coins/Populous-PPT" fill="#0099F7">
            <path d="M10,2 C14.41824,2 18,5.58614322 18,10.0097901 C18,14.2472894 14.71264,17.7139266 10.55248,17.9984343 L10.55248,14.9402965 L11.57264,14.9402965 C12.83824,14.9402965 13.86784,13.9092763 13.86784,12.6421275 L13.86784,9.23748613 C13.86784,7.97033733 12.83824,6.93931715 11.57264,6.93931715 L8.68208,6.93931715 L8.68208,17.9095257 C4.8912,17.2801164 2,13.9837673 2,10.0097901 C2,5.58614322 5.5816,2 10,2 Z M11.9976,12.6421435 C11.9976,12.8768304 11.80704,13.0677838 11.57264,13.0677838 L10.55248,13.0677838 L10.55248,8.8118619 L11.57264,8.8118619 C11.80704,8.8118619 11.9976,9.0028153 11.9976,9.23750215 L11.9976,12.6421435 Z M9.61728,6.08819686 C10.41552,6.08819686 11.06256,5.44052523 11.06256,4.64130838 C11.06256,3.84209152 10.41552,3.1942597 9.61728,3.1942597 C8.8192,3.1942597 8.17216,3.84209152 8.17216,4.64130838 C8.17216,5.44052523 8.8192,6.08819686 9.61728,6.08819686 Z M8.00208,14.9402965 L8.00208,7.02454132 L7.83216,7.02454132 C6.89312,7.02454132 6.13184,7.78659275 6.13184,8.72694211 L6.13184,14.9402965 L8.00208,14.9402965 Z" id="Sign"></path>
        </g>
    </g>
</svg>