<?xml version="1.0" encoding="UTF-8"?>
<svg width="20px" height="20px" viewBox="0 0 20 20" version="1.1" xmlns="http://www.w3.org/2000/svg" xmlns:xlink="http://www.w3.org/1999/xlink">
    <!-- Generator: sketchtool 49.3 (51167) - http://www.bohemiancoding.com/sketch -->
    <title>DB6149A2-68A3-4DAF-9E52-ADFF3949AC48</title>
    <desc>Created with sketchtool.</desc>
    <defs></defs>
    <g id="Coins" stroke="none" stroke-width="1" fill="none" fill-rule="evenodd">
        <g id="Coins/PotCoin-POT" fill="#0099F7">
            <path d="M14.1497076,7.10013142 C13.9777652,8.60797665 12.6418624,9.5602967 11.2002011,9.5602967 L6.93584463,9.5602967 L7.19619689,8.21118177 L10.7373458,8.21118177 L11.0548064,6.53139415 L7.52051049,6.53139415 L7.73499087,5.4203438 L11.7425759,5.4203438 C12.8402907,5.42040554 14.3217118,5.59234792 14.1497076,7.10013142 M10.8034062,3 L5.72453057,3 L5.03731666,6.53145589 L3.56873727,6.53145589 L3.25127667,8.21118177 L4.71034829,8.21118177 L3,17 L5.49973982,17 L6.47879274,11.9277304 L10.2082448,11.9277304 C12.0070029,11.9277304 16.1732565,11.5739674 16.6919854,7.30430143 C17.1763876,3.31665799 14.1993456,3 10.8034062,3" id="Sign"></path>
        </g>
    </g>
</svg>