<?xml version="1.0" encoding="UTF-8"?>
<svg width="20px" height="20px" viewBox="0 0 20 20" version="1.1" xmlns="http://www.w3.org/2000/svg" xmlns:xlink="http://www.w3.org/1999/xlink">
    <!-- Generator: sketchtool 49.3 (51167) - http://www.bohemiancoding.com/sketch -->
    <title>459C74B4-EA96-41BA-8A8B-8416CD206EC7</title>
    <desc>Created with sketchtool.</desc>
    <defs></defs>
    <g id="Coins" stroke="none" stroke-width="1" fill="none" fill-rule="evenodd">
        <g id="Coins/Power-Ledger-POWR" fill="#0099F7">
            <path d="M10.136874,16.656087 C10.136874,17.2709938 10.1363132,17.8864596 10.1374347,18.5013665 C10.6258459,18.0172671 11.1092104,17.5275776 11.5970609,17.0429193 C11.1103319,16.9132298 10.6236029,16.7852174 10.136874,16.656087 M8.38621975,17.0423602 C8.87070573,17.5320497 9.35799545,18.0183851 9.84584592,18.5046646 C9.84640666,17.8881366 9.84584592,17.2721118 9.84584592,16.655472 C9.35911694,16.7840994 8.87238797,16.9126708 8.38621975,17.0423602 M12.1600515,16.8908696 C12.6613599,17.023913 13.1632291,17.1569565 13.6650983,17.289441 C13.294444,17.0250311 12.9215469,16.7639752 12.5503319,16.5017453 C12.4196777,16.6309317 12.2895842,16.7606211 12.1600515,16.8908696 M10.5591169,16.466528 C10.9836029,16.5800621 11.4080889,16.6918634 11.8325749,16.8041677 C11.9912665,16.6465839 12.1493973,16.4889441 12.3075282,16.3307453 C12.1953786,16.2508075 12.0832291,16.1714286 11.9705188,16.0926087 C11.5000515,16.2167081 11.0295842,16.3413665 10.5591169,16.466528 M12.7600515,16.292118 C13.1570609,16.573354 13.5551917,16.8539752 13.9527618,17.1345963 C13.7043506,16.7041056 13.4553786,16.2748447 13.2058459,15.844913 C13.0561263,15.9931056 12.9064067,16.1412422 12.7600515,16.292118 M12.3383693,15.9970186 C12.3978085,16.0372671 12.4600515,16.0791925 12.5200515,16.121118 C12.5957525,16.0422981 12.6720141,15.9640373 12.7488366,15.8857764 C12.6114534,15.9221118 12.474631,15.9589503 12.3383693,15.9970186 M7.22883657,15.8857764 C7.53444405,16.1914969 7.83893003,16.4989503 8.14509825,16.8041677 C8.57014498,16.6929814 8.99519171,16.5805652 9.41967769,16.466528 C8.68958423,16.2720497 7.95893003,16.0791925 7.22883657,15.8857764 M5.86902349,17.4073354 C6.51949078,17.2357764 7.16939732,17.0636025 7.81930386,16.8908696 C7.47051881,16.5426087 7.12397676,16.1914969 6.77350947,15.844913 C6.47182722,16.3654037 6.16958423,16.8857826 5.86902349,17.4073354 M5.90771507,15.5358385 C5.86341601,16.0204969 5.8174347,16.5045963 5.77313564,16.9892547 C6.0221076,16.5588199 6.27164031,16.1288882 6.52005152,15.6985093 C6.31593937,15.6437267 6.11182722,15.5895031 5.90771507,15.5358385 M13.4587431,15.6985093 C13.7609861,16.2194472 14.0621076,16.7410559 14.3654721,17.2614907 C14.5409861,16.6141615 14.7165001,15.9668323 14.8914534,15.3189441 C14.4136964,15.4447205 13.9365001,15.5716149 13.4587431,15.6985093 M5.08846274,15.3189441 C5.22416367,15.8191988 5.35874311,16.3190062 5.49556554,16.8187578 C5.53818236,16.3659627 5.58023844,15.9131677 5.62229451,15.4603168 C5.4445375,15.4122981 5.26621975,15.3653416 5.08846274,15.3189441 M5.95481788,15.0260248 C5.94808891,15.0981366 5.94192068,15.1702484 5.93519171,15.2429193 C6.04229451,15.2708696 6.14883657,15.2982609 6.25650012,15.3267702 C6.15668704,15.2255901 6.05575246,15.125528 5.95481788,15.0260248 M13.721173,15.3278323 C14.1406123,15.216646 14.5600515,15.1059627 14.9794908,14.9941615 C15.094444,14.5721118 15.2088366,14.1500621 15.3226683,13.7273975 C14.7865936,14.2584534 14.2561263,14.7957143 13.721173,15.3278323 M4.65724779,13.7246584 C4.77051881,14.1483851 4.88547208,14.5715528 5.0009861,14.9946646 C5.21687395,15.0517391 5.43332255,15.1093168 5.64977115,15.1663354 C5.6621076,15.029323 5.67444405,14.8924224 5.68790199,14.7554658 C5.34360293,14.4121801 4.99986461,14.0690062 4.65724779,13.7246584 M15.6994908,13.4546025 C15.5671543,13.9387578 15.4370609,14.4234161 15.3052852,14.9080186 C15.9720141,14.7319876 16.6387431,14.5547826 17.3054721,14.3786957 C16.7705188,14.0700683 16.2355655,13.7615528 15.6994908,13.4546025 M6.96472442,15.5151553 C7.87425713,15.756646 8.78435059,15.9953416 9.6938833,16.2390683 C9.82958423,16.2708758 9.97201414,16.3374534 10.1122011,16.2848509 C10.6275282,16.1462733 11.1439768,16.0115528 11.6598646,15.8734783 C10.4996777,15.0539752 9.33949078,14.2355901 8.17874311,13.416646 C7.7738833,14.1159627 7.36846274,14.8152236 6.96472442,15.5151553 M2.67500479,14.3786957 C3.34173377,14.5553416 4.00790199,14.7319876 4.67463096,14.9080186 C4.54397676,14.4234161 4.41220106,13.9392609 4.2809861,13.4546025 C3.74491134,13.7615528 3.20995807,14.0695093 2.67500479,14.3786957 M11.3396777,12.6250932 C11.1680889,12.9213106 10.9965001,13.2170248 10.8254721,13.513913 C11.096874,13.3897578 11.3677151,13.2651553 11.6391169,13.140441 C11.5393039,12.9682671 11.4394908,12.7967081 11.3396777,12.6250932 M8.72042536,12.4780745 C8.58977115,12.7072112 8.45631321,12.9347826 8.325659,13.1634161 C9.5609861,14.0337888 10.7940702,14.9069565 12.0299581,15.7762112 C12.3579954,15.6883913 12.6865936,15.6023043 13.014631,15.5151553 C12.6052852,14.8079565 12.1959394,14.1002547 11.7854721,13.3942298 C11.3637898,13.5831739 10.9482758,13.7855342 10.5243506,13.9678261 C10.3987431,14.0388199 10.2607992,13.864913 10.3510796,13.7559627 C10.5905188,13.326087 10.8439768,12.9045963 11.087902,12.4769006 C10.2983693,12.4775155 9.50939732,12.4758385 8.72042536,12.4780745 M7.35500479,12.4775155 C7.59836928,12.6502484 7.84173377,12.8224224 8.0867805,12.9934224 C8.18547208,12.8212484 8.28528517,12.6496894 8.38509825,12.4775155 C8.04135993,12.4763416 7.69818236,12.4769006 7.35500479,12.4775155 M15.8469674,13.2025466 C16.3819207,13.51 16.9157525,13.8185155 17.4512665,14.1254099 C17.272388,13.4618696 17.092388,12.7989441 16.912388,12.1359627 C16.5551917,12.4898137 16.2007992,12.8459006 15.8469674,13.2025466 M2.52864965,14.1259689 C3.06360293,13.8185155 3.5985562,13.5105031 4.13294872,13.2030497 C3.78248143,12.8424907 3.42023844,12.4931118 3.06808891,12.1342298 C2.88864965,12.7977702 2.70808891,13.4618696 2.52864965,14.1259689 M12.052388,13.2718634 C12.4578085,13.9711801 12.8626683,14.671 13.2686497,15.3697578 C13.9779954,14.6564658 14.6907057,13.946528 15.4006123,13.2344099 C15.465659,13.1785093 15.4981824,13.0996894 15.5172478,13.0180745 C15.6512665,12.5099379 15.7920141,12.0034783 15.9277151,11.4958447 C14.6351917,12.0867702 13.3437898,12.6792609 12.052388,13.2718634 M16.2692104,11.342118 C16.1480889,11.8167702 16.012388,12.2896894 15.8839768,12.7603727 C16.1873412,12.433913 16.5131356,12.1281366 16.8243506,11.8083292 C16.7649113,11.5936708 16.7077151,11.3790683 16.6488366,11.1644099 C16.5209861,11.2219876 16.3942571,11.2801242 16.2692104,11.342118 M16.3729487,10.9704348 C16.4385562,10.9396335 16.5047244,10.9088882 16.5720141,10.8787019 C16.543416,10.7719317 16.5120141,10.6657764 16.4850983,10.5590062 C16.4464067,10.6959627 16.4093973,10.8329193 16.3729487,10.9704348 M3.15668704,11.8072671 C3.46285526,12.1219876 3.77631321,12.428882 4.08640666,12.7391304 C3.89182722,12.0135404 3.69220106,11.2885093 3.49818236,10.5623043 C3.37762162,10.9754658 3.27164031,11.3924845 3.15668704,11.8072671 M16.9191169,11.0391925 C16.9645375,11.2163416 17.0127618,11.3935466 17.0615469,11.5702484 C17.4288366,11.2063354 17.7938833,10.8396273 18.1583693,10.4723602 C17.7445375,10.6601304 17.3329487,10.8519255 16.9191169,11.0391925 M13.836687,10.1470186 C13.7873412,10.6121118 13.7593039,11.080559 13.6998646,11.5445342 C13.6819207,11.6714286 13.4839768,11.6887578 13.436874,11.5713665 C13.1817338,11.1487578 12.9417338,10.717205 12.6916403,10.2912422 C12.296874,10.9720559 11.9026683,11.6529814 11.5090235,12.3338509 C11.6407992,12.5619255 11.7731356,12.789441 11.9049113,13.0180745 C13.2798646,12.3886335 14.6553786,11.7591366 16.0292104,11.1263975 C16.1155655,10.7993789 16.2058459,10.4734224 16.2933226,10.1470186 C15.474631,10.1464596 14.6553786,10.1464596 13.836687,10.1470186 M12.9462197,10.1470186 C13.116687,10.4438509 13.2882758,10.7401242 13.4604254,11.0363975 C13.4890235,10.7395652 13.5165001,10.443236 13.543416,10.1470186 C13.3443506,10.1464596 13.1447244,10.1464596 12.9462197,10.1470186 M5.99014498,14.6475217 C6.23014498,14.8879503 6.47238797,15.126646 6.71126648,15.3681366 C7.12117302,14.6614969 7.52939732,13.9544099 7.93874311,13.2477702 C7.58939732,12.9996273 7.23949078,12.7531056 6.88902349,12.507087 C6.84023844,12.4596273 6.74883657,12.430559 6.7538833,12.3500621 C6.72304218,12.2460311 6.84248143,12.1734161 6.9338833,12.1878944 C7.41780853,12.1840373 7.90229451,12.1890683 8.3867805,12.1868323 C7.99313564,11.5053478 7.59724779,10.8250373 7.20416367,10.1436646 C6.93893003,10.1425466 6.67425713,10.1430497 6.40958423,10.1430497 C6.26883657,11.6445963 6.13089265,13.146087 5.99014498,14.6475217 M3.68603283,10.1436646 C3.94397676,11.1012422 4.20640666,12.0582609 4.46322909,13.0169006 C4.48285526,13.0851553 4.4985562,13.1606211 4.55575246,13.2103168 C4.94435059,13.598882 5.33126648,13.9901863 5.72266835,14.3769627 C5.85500479,12.9660311 5.985659,11.5545404 6.11687395,10.1436646 C5.30603283,10.1430497 4.49575246,10.1430497 3.68603283,10.1436646 M1.49631321,10.1481366 C1.97014498,10.622677 2.44341601,11.0978323 2.91836928,11.5707516 C3.04790199,11.0955963 3.17687395,10.6193789 3.30528517,10.1436646 C2.70248143,10.1447826 2.09967769,10.1386335 1.49631321,10.1481366 M16.6757525,10.1470186 C16.730145,10.349882 16.7850983,10.5528012 16.8406123,10.7557764 C17.2830422,10.5528012 17.7254721,10.3510559 18.1667805,10.1470186 C17.6699581,10.1464596 17.1725749,10.1464596 16.6757525,10.1470186 M1.80752816,9.85409938 C2.30603283,9.85186335 2.80509825,9.85409938 3.30416367,9.85298137 C3.2503319,9.65006211 3.19481788,9.44714286 3.13930386,9.24478261 C2.69519171,9.44714286 2.25220106,9.65229814 1.80752816,9.85409938 M3.40846274,9.12124224 C3.43930386,9.23136646 3.4667805,9.34204969 3.49650012,9.45329193 C3.53126648,9.31130435 3.56827582,9.17043478 3.60640666,9.03012422 C3.54023844,9.06031056 3.47407022,9.09049689 3.40846274,9.12124224 M6.51949078,8.96360248 C6.49089265,9.26043478 6.46397676,9.55670807 6.43650012,9.85298137 C6.63556554,9.85354037 6.83463096,9.85354037 7.03425713,9.85298137 C6.86322909,9.55614907 6.69164031,9.25987578 6.51949078,8.96360248 M1.81986461,9.52819876 C2.23425713,9.33925466 2.64808891,9.14863354 3.06248143,8.95857143 C3.01425713,8.78192547 2.96659358,8.6052795 2.91836928,8.42919255 C2.55051881,8.79310559 2.18715433,9.1626087 1.81986461,9.52819876 M16.6751917,9.8563354 C17.2796777,9.85689441 17.8841637,9.85689441 18.4892104,9.8563354 C18.0120141,9.38173913 17.5393039,8.90267081 17.0615469,8.42919255 C16.9325749,8.90490683 16.8030422,9.38062112 16.6751917,9.8563354 M7.45762162,10 C7.87986461,10.7289441 8.30154685,11.4584472 8.72491134,12.1868323 C9.56827582,12.1868323 10.4122011,12.1868323 11.2555655,12.1873913 C11.6783693,11.4584472 12.1006123,10.7289441 12.5228553,10 C12.1006123,9.2710559 11.6783693,8.5415528 11.2561263,7.8131677 C10.4122011,7.8126087 9.56827582,7.8131677 8.72491134,7.8126087 C8.30154685,8.54099379 7.87986461,9.2710559 7.45762162,10 M15.892388,7.25695652 C16.0892104,7.98534161 16.2865936,8.71372671 16.4850983,9.4421118 C16.5983693,9.02565217 16.7093973,8.60807453 16.8249113,8.19217391 C16.5159394,7.87857143 16.2013599,7.57055901 15.892388,7.25695652 M3.15612629,8.19273292 C3.21500479,8.4068323 3.2727618,8.62093168 3.33107956,8.83503106 C3.45556554,8.77857143 3.57949078,8.7215528 3.7045375,8.66565217 C3.83463096,8.19832298 3.96023844,7.72931677 4.08640666,7.26086957 C3.77631321,7.57111801 3.46229451,7.87801242 3.15612629,8.19273292 M11.8936964,7.00596273 C11.794444,7.17869565 11.694631,7.35031056 11.5959394,7.52304348 C11.9385562,7.52304348 12.2817338,7.52304348 12.6249113,7.52248447 C12.3821076,7.34975155 12.1381824,7.17757764 11.8936964,7.00596273 M3.95350947,8.87080745 C3.86378984,9.19838509 3.77519171,9.52540373 3.68659358,9.85298137 C4.50584592,9.85354037 5.32509825,9.85354037 6.14435059,9.85298137 C6.18864965,9.39850932 6.22397676,8.94291925 6.2738833,8.48900621 C6.26771507,8.34142857 6.49145339,8.29503106 6.54640666,8.43198758 C6.79930386,8.85403727 7.03930386,9.28391304 7.28883657,9.70819876 C7.68360293,9.0278882 8.07780853,8.34701863 8.47145339,7.66614907 C8.33911694,7.43807453 8.2067805,7.21055901 8.07556554,6.98192547 C6.70061227,7.60968944 5.32734124,8.24136646 3.95350947,8.87080745 M8.34135993,6.8589441 C8.44005152,7.03111801 8.53986461,7.20329193 8.64079919,7.37434783 C8.81182722,7.07863354 8.98397676,6.78291925 9.15444405,6.48664596 C8.88304218,6.61018634 8.61220106,6.73428571 8.34135993,6.8589441 M15.8469674,6.79745342 C16.2002384,7.15465839 16.5551917,7.51018634 16.912388,7.86403727 C17.092388,7.2010559 17.272388,6.53807453 17.4512665,5.87453416 C16.9163132,6.18142857 16.3819207,6.49 15.8469674,6.79745342 M2.5292104,5.87453416 C2.70808891,6.53863354 2.88864965,7.20217391 3.06808891,7.86627329 C3.42023844,7.5068323 3.78248143,7.15745342 4.13350947,6.79745342 C3.5985562,6.48944099 3.06416367,6.18142857 2.5292104,5.87453416 M14.2578085,5.61962733 C14.1254721,7.03167702 13.9948179,8.44428571 13.8636029,9.8563354 C14.6738833,9.85689441 15.4841637,9.85689441 16.294444,9.85689441 C16.0493973,8.94627329 15.7998646,8.03677019 15.5559394,7.12614907 C15.516687,7.00204969 15.5071543,6.85614907 15.4017338,6.76614907 C15.0221076,6.3821118 14.6357525,6.00478261 14.2578085,5.61962733 M15.3052852,5.09192547 C15.4365001,5.57658385 15.5677151,6.06124224 15.6994908,6.54534161 C16.2350048,6.2384472 16.7699581,5.93043478 17.3049113,5.62186335 C16.6387431,5.44465839 15.9720141,5.26801242 15.3052852,5.09192547 M2.67556554,5.62130435 C3.20995807,5.93043478 3.74491134,6.2384472 4.2809861,6.54534161 C4.41220106,6.06068323 4.54397676,5.57658385 4.67463096,5.09192547 C4.00790199,5.26801242 3.34173377,5.44521739 2.67556554,5.62130435 M14.2925749,5.24062112 C14.632388,5.58888199 14.9800515,5.92931677 15.3237898,6.2742236 C15.2088366,5.85161491 15.094444,5.4284472 14.9794908,5.00583851 C14.7630422,4.94770186 14.5471543,4.89068323 14.3307057,4.8336646 C14.3178085,4.96950311 14.3043506,5.10478261 14.2925749,5.24062112 M13.7239768,4.67322981 C13.8226683,4.77496894 13.9236029,4.87503106 14.0250983,4.97453416 C14.0307057,4.90242236 14.0374347,4.83031056 14.0452852,4.75819876 C13.9381824,4.72857143 13.8305188,4.70173913 13.7239768,4.67322981 M12.0417338,6.75273292 C12.3933226,7.00149068 12.7454721,7.25024845 13.0987431,7.49732919 C13.1643506,7.54708075 13.2585562,7.60745342 13.2260328,7.70583851 C13.2052852,7.81204969 13.0841637,7.81428571 12.9994908,7.81372671 C12.5307057,7.81372671 12.0624814,7.81204969 11.5942571,7.8131677 C11.987902,8.49459627 12.3821076,9.17602484 12.7774347,9.85689441 C13.0415469,9.85689441 13.3062197,9.85689441 13.5703319,9.8563354 C13.7110796,8.35540373 13.8495842,6.85447205 13.9897711,5.35298137 C13.7480889,5.11372671 13.5092104,4.87167702 13.2692104,4.63130435 C12.8598646,5.3384472 12.4505188,6.04503106 12.0417338,6.75273292 M5.0009861,5.0047205 C4.88547208,5.4278882 4.77051881,5.85161491 4.65724779,6.27534161 C5.18995807,5.74093168 5.72378984,5.20763975 6.25650012,4.67322981 C5.83762162,4.78279503 5.41986461,4.89515528 5.0009861,5.0047205 M4.67070573,6.67279503 C4.60005152,6.74881988 4.50304218,6.8142236 4.48117302,6.9221118 C4.33706087,7.44925466 4.19519171,7.97751553 4.05220106,8.50521739 C5.34416367,7.91267081 6.63612629,7.32068323 7.92808891,6.72757764 C7.52266835,6.02937888 7.11893003,5.33006211 6.71294872,4.63186335 C6.02995807,5.30993789 5.35313564,5.99416149 4.67070573,6.67279503 M6.96584592,4.48596273 C7.37519171,5.19198758 7.7845375,5.89913043 8.19444405,6.60571429 C8.62061227,6.41677019 9.03836928,6.20770186 9.46902349,6.02881988 C9.59238797,5.97012422 9.71799545,6.14509317 9.62659358,6.24850932 C9.38883657,6.67670807 9.13481788,7.09652174 8.89313564,7.52248447 C9.68042536,7.52360248 10.4682758,7.52192547 11.2561263,7.52360248 C11.3907057,7.29552795 11.5224814,7.0657764 11.6548179,6.83658385 C10.4200515,5.96621118 9.18640666,5.09416149 7.95107956,4.22378882 C7.62248143,4.31099379 7.2938833,4.39708075 6.96584592,4.48596273 M7.22883657,4.1142236 C7.36621975,4.0778882 7.50416367,4.0415528 7.64154685,4.00465839 C7.58154685,3.96273292 7.5221076,3.92136646 7.46378984,3.87944099 C7.38472442,3.95770186 7.3067805,4.03596273 7.22883657,4.1142236 M9.88958423,3.70950311 C9.36696741,3.84925466 8.84378984,3.98677019 8.32117302,4.12652174 C9.48079919,4.94658385 10.6415469,5.76440994 11.8017338,6.58335404 C12.2065936,5.88403727 12.6114534,5.1847205 13.0157525,4.48540373 C12.047902,4.22826087 11.07893,3.97335404 10.1110796,3.71453416 C10.0381824,3.69329193 9.96135993,3.68434783 9.88958423,3.70950311 M14.4843506,3.17900621 C14.4417338,3.63291925 14.3996777,4.08627329 14.3576216,4.53962733 C14.5353786,4.58714286 14.7131356,4.63465839 14.8914534,4.6810559 C14.7557525,4.18018634 14.6206123,3.67987578 14.4843506,3.17900621 M10.5596777,3.53397516 C11.2892104,3.7273913 12.0193039,3.92080745 12.7493973,4.1142236 C12.4471543,3.80453416 12.1387431,3.5015528 11.8331356,3.1957764 C11.4080889,3.30813665 10.9836029,3.41937888 10.5596777,3.53397516 M8.14509825,3.1957764 C7.98808891,3.35397516 7.82995807,3.5110559 7.67238797,3.66757764 C7.78397676,3.74863354 7.89668704,3.82857143 8.01051881,3.9073913 C8.47986461,3.78273292 8.9503319,3.65863354 9.41967769,3.53341615 C8.99519171,3.41937888 8.57070573,3.30701863 8.14509825,3.1957764 M14.2073412,3.01186335 C13.9572478,3.44118012 13.7088366,3.87161491 13.4598646,4.30204969 C13.6639768,4.35627329 13.8680889,4.41049689 14.0722011,4.46416149 C14.1181824,3.98006211 14.1630422,3.49596273 14.2073412,3.01186335 M6.02883657,2.86708075 C6.27612629,3.29695652 6.52509825,3.72571429 6.77407022,4.15391304 C6.92378984,4.0057764 7.07294872,3.85708075 7.22154685,3.70782609 C6.82341601,3.42832298 6.42696741,3.14602484 6.02883657,2.86708075 M5.08846274,4.6810559 C5.56621975,4.5547205 6.04341601,4.4289441 6.52117302,4.30149068 C6.22005152,3.77937888 5.91724779,3.2589441 5.61556554,2.7373913 C5.43893003,3.3852795 5.26397676,4.0331677 5.08846274,4.6810559 M6.31650012,2.71111801 C6.68659358,2.97496894 7.05893003,3.23602484 7.43014498,3.49875776 C7.55967769,3.36906832 7.6892104,3.23881988 7.81762162,3.10801242 C7.31687395,2.97608696 6.81668704,2.84248447 6.31650012,2.71111801 M12.1600515,3.10913043 C12.5105188,3.45627329 12.8559394,3.80900621 13.2069674,4.15559006 C13.5086497,3.63459627 13.8103319,3.11360248 14.1120141,2.59204969 C13.4609861,2.7636646 12.8105188,2.93639752 12.1600515,3.10913043 M10.1374347,1.49863354 C10.1363132,2.11354037 10.136874,2.72900621 10.1374347,3.34391304 C10.6236029,3.21478261 11.1103319,3.08677019 11.5970609,2.95708075 C11.1092104,2.47242236 10.6258459,1.98273292 10.1374347,1.49863354 M8.39294872,2.95931677 C8.87687395,3.0884472 9.36135993,3.21645963 9.84584592,3.34447205 C9.84584592,2.7278882 9.84640666,2.11186335 9.84584592,1.4952795 C9.36192068,1.98385093 8.86621975,2.46124224 8.39294872,2.95931677 M9.93668704,1 L10.0415469,1 C10.6802384,1.6121118 11.2936964,2.24937888 11.9228553,2.87099379 C12.5979954,2.6921118 13.2731356,2.51378882 13.9482758,2.33434783 C14.1131356,2.29242236 14.2751917,2.2325528 14.4467805,2.22086957 C14.5421076,2.23708075 14.554444,2.34888199 14.5836029,2.42322981 C14.7927618,3.2052795 15.0052852,3.98621118 15.2178085,4.76770186 C15.9249113,4.95496894 16.6314534,5.14335404 17.3385562,5.3289441 C17.4849113,5.36975155 17.6374347,5.39546584 17.7765001,5.46031056 C17.8667805,5.52347826 17.8084627,5.6352795 17.796687,5.72080745 C17.5791169,6.51515528 17.3649113,7.30950311 17.1495842,8.10385093 C17.7181824,8.67068323 18.2839768,9.24031056 18.8531356,9.80714286 C18.9069674,9.8742236 19.003416,9.9373913 18.9793039,10.0363354 C18.9086497,10.1503727 18.8054721,10.2386957 18.7129487,10.3336708 C18.1897711,10.8524845 17.6722011,11.3762733 17.1495842,11.8955901 C17.3363132,12.5842857 17.5219207,13.2729255 17.7097711,13.961118 C17.7535095,14.1293789 17.8140702,14.2948447 17.8280889,14.4686957 C17.7972478,14.5575776 17.6940702,14.5703789 17.6183693,14.5978261 C16.8176216,14.8074534 16.0174347,15.0203789 15.2178085,15.2322422 C15.0316403,15.9198758 14.8437898,16.6062795 14.6593039,17.293913 C14.6178085,17.4403168 14.5897711,17.5918075 14.5252852,17.7304969 C14.4585562,17.817646 14.3469674,17.7623602 14.261173,17.7495031 C13.4822945,17.5409938 12.703416,17.3358385 11.9245375,17.1295652 C11.2936964,17.7495031 10.6802384,18.3862112 10.0437898,19 L9.94005152,19 C9.30023844,18.3895652 8.6867805,17.7511801 8.05818236,17.1290062 C7.28322909,17.3347205 6.50771507,17.5376398 5.73332255,17.7461491 C5.64360293,17.7606832 5.53874311,17.8137888 5.46135993,17.741118 C5.38790199,17.5918075 5.35818236,17.4269565 5.31444405,17.2681988 C5.13107956,16.5895652 4.94659358,15.9114907 4.76266835,15.2328571 C3.97089265,15.0226149 3.17967769,14.8113665 2.38734124,14.6050932 C2.30154685,14.5754099 2.19107956,14.5642857 2.15070573,14.4703168 C2.16808891,14.2914907 2.22808891,14.1215528 2.27407022,13.9493789 C2.46023844,13.2651553 2.64528517,12.5809317 2.83089265,11.8966522 C2.23874311,11.3008075 1.63930386,10.7116149 1.05220106,10.1112422 C0.964724421,10.0419255 0.997247785,9.92229814 1.07575246,9.86136646 C1.65893003,9.27385093 2.24603283,8.68968944 2.8303319,8.10329193 C2.61556554,7.31229814 2.40248143,6.52018634 2.18603283,5.72919255 C2.16135993,5.63136646 2.10808891,5.47652174 2.24715433,5.44074534 C3.08154685,5.2026087 3.92547208,4.99521739 4.76266835,4.76714286 C4.98528517,3.95937888 5.19500479,3.14826087 5.42435059,2.34273292 C5.43949078,2.21024845 5.58696741,2.20521739 5.6867805,2.24322981 C6.47687395,2.45173913 7.26752816,2.66248447 8.05818236,2.87099379 C8.685659,2.24881988 9.30079919,1.61378882 9.93668704,1" id="Sign"></path>
        </g>
    </g>
</svg>