<?xml version="1.0" encoding="UTF-8"?>
<svg width="20px" height="20px" viewBox="0 0 20 20" version="1.1" xmlns="http://www.w3.org/2000/svg" xmlns:xlink="http://www.w3.org/1999/xlink">
    <!-- Generator: sketchtool 49.3 (51167) - http://www.bohemiancoding.com/sketch -->
    <title>9A683212-00C0-40E3-8836-E9C4911A15F7</title>
    <desc>Created with sketchtool.</desc>
    <defs></defs>
    <g id="Coins" stroke="none" stroke-width="1" fill="none" fill-rule="evenodd">
        <g id="Coins/Qtum-QTUM" fill="#0099F7">
            <path d="M18.6719951,15.7200277 C18.4465389,15.7200277 18.2426427,15.8038038 18.0818665,15.9374759 L16.4433049,14.5325325 L17.7016401,10.6555787 C17.7159621,10.6563487 17.7293602,10.6598907 17.7439902,10.6598907 C18.0968045,10.6598907 18.3830908,10.3734504 18.3830908,10.02002 C18.3830908,9.66674367 18.0968045,9.38045738 17.7439902,9.38045738 C17.7293602,9.38045738 17.7158081,9.38369138 17.7013321,9.38476938 L16.602541,5.99923 C16.7821052,5.88588589 16.9023793,5.68707169 16.9023793,5.45899746 C16.9023793,5.10556711 16.616247,4.81912682 16.2632787,4.81912682 C16.1069685,4.81912682 15.9655964,4.87764688 15.8545623,4.97097097 L12.9564334,2.87579888 C12.9856934,2.8026488 13.0026334,2.72349272 13.0026334,2.63987064 C13.0026334,2.28644029 12.7165011,2 12.3636868,2 C12.0647725,2 11.8159082,2.20620621 11.7459922,2.48386848 L8.23694466,2.48386848 C8.16702859,2.20620621 7.91816434,2 7.61925004,2 C7.26643569,2 6.9801494,2.28644029 6.9801494,2.63987064 C6.9801494,2.72349272 6.99724342,2.8028028 7.02650345,2.87595288 L4.12837455,4.97097097 C4.01734044,4.87764688 3.8759683,4.81912682 3.71965814,4.81912682 C3.36668979,4.81912682 3.0804035,5.10556711 3.0804035,5.45899746 C3.0804035,5.68707169 3.20083162,5.88588589 3.3803958,5.99923 L2.28668671,9.36859937 C2.27067069,9.36752137 2.25527068,9.36382536 2.23894666,9.36382536 C1.88597831,9.36382536 1.60000002,9.65026565 1.60000002,10.003542 C1.60000002,10.3566644 1.88597831,10.6432586 2.23894666,10.6432586 C2.25172868,10.6432586 2.26343269,10.6401786 2.2760607,10.6394086 L3.3803958,14.04158 C3.20083162,14.1547702 3.0804035,14.3535844 3.0804035,14.5819666 C3.0804035,14.9350889 3.36668979,15.2215292 3.71965814,15.2215292 C3.8722723,15.2215292 4.01056443,15.1656272 4.12052054,15.0761531 L7.02588745,17.1662432 C6.99724342,17.2390852 6.9801494,17.3177793 6.9801494,17.4010934 C6.9801494,17.7542158 7.26643569,18.040656 7.61925004,18.040656 C7.91816434,18.040656 8.16702859,17.8344498 8.23694466,17.5569416 L11.7459922,17.5569416 C11.8159082,17.8344498 12.0647725,18.040656 12.3636868,18.040656 C12.7165011,18.040656 13.0026334,17.7542158 13.0026334,17.4010934 C13.0026334,17.3180873 12.9858474,17.2395472 12.9572034,17.1670132 L16.2540387,14.7810888 L17.8784323,16.1738662 C17.7948102,16.3133903 17.7439902,16.4746285 17.7439902,16.6489566 C17.7439902,17.1619312 18.1593286,17.5778856 18.6719951,17.5778856 C19.1843536,17.5778856 19.6,17.1619312 19.6,16.6489566 C19.6,16.1359821 19.1843536,15.7200277 18.6719951,15.7200277 Z M16.3666128,6.28182028 L17.4047278,9.47978748 C17.2675137,9.56633557 17.1666436,9.7027797 17.1261415,9.86447986 L16.7445292,9.86463386 L16.593147,9.86463386 C16.543867,9.64287364 16.3795488,9.46700547 16.1662586,9.3977054 L16.3666128,6.28182028 Z M16.0683145,6.06498806 L15.8554863,9.37537538 C15.8403943,9.37814738 15.8259182,9.38230538 15.8109802,9.38630939 L14.4901209,6.88811889 C14.618865,6.77107877 14.7014091,6.6038346 14.7014091,6.41595442 C14.7014091,6.37976438 14.6964811,6.34480634 14.6906291,6.31015631 L14.8623393,6.23592824 L15.7587742,5.84738585 C15.8370063,5.94871795 15.9438824,6.02479402 16.0683145,6.06498806 Z M12.4859629,9.39339339 C12.4463849,9.38553939 12.4055748,9.38076538 12.3636868,9.38076538 C12.3030107,9.38076538 12.2457227,9.39200739 12.1902826,9.40771541 L10.4289829,6.35420035 C10.4935089,6.29337029 10.545869,6.22037422 10.580673,6.13736814 L13.4309079,6.49110649 C13.4506199,6.65850466 13.53378,6.8048048 13.6571341,6.90690691 L12.4859629,9.39339339 Z M13.9411104,7.04335104 C13.9803804,7.05089705 14.0208824,7.05567106 14.0623085,7.05567106 C14.1152845,7.05567106 14.1659506,7.04750905 14.2152306,7.03518904 L15.537476,9.53538154 C15.4438439,9.62208362 15.3759298,9.73558174 15.3472858,9.86463386 L14.1973666,9.86463386 L12.9812274,9.86447986 C12.9488874,9.73619774 12.8782013,9.62454762 12.7817972,9.54046354 L13.9411104,7.04335104 Z M11.9187803,9.56248556 C11.8354663,9.64379764 11.7754062,9.74790175 11.7459922,9.86447986 L8.23679066,9.86447986 C8.20753063,9.74759375 8.14731657,9.64333564 8.06354049,9.56202356 L9.82653425,6.50542851 C9.8793563,6.51975052 9.93402636,6.52960653 9.99146842,6.52960653 C10.0489105,6.52960653 10.1035805,6.51975052 10.1564026,6.50542851 L11.9187803,9.56248556 Z M7.79142222,9.40740741 C7.73629016,9.39200739 7.6794641,9.38076538 7.61925004,9.38076538 C7.577054,9.38076538 7.53608996,9.38553939 7.49635792,9.39339339 L6.32626475,6.90798491 C6.45008087,6.80588281 6.53370296,6.65942866 6.55387698,6.49172249 L9.39795182,6.12397012 C9.43167786,6.20974821 9.48295991,6.28613229 9.54794797,6.34927235 L7.79142222,9.40740741 Z M7.21546164,9.52860553 C7.11166554,9.61392161 7.03543546,9.73019173 7.00170943,9.86447986 L5.86965429,9.86463386 L4.65382308,9.86463386 C4.62225305,9.73912374 4.55403098,9.62932163 4.46055288,9.54554555 L5.7735582,7.03642104 C5.82145225,7.04797105 5.87073229,7.05567106 5.92232235,7.05567106 C5.96436439,7.05567106 6.00548243,7.05105105 6.04536847,7.04335104 L7.21546164,9.52860553 Z M4.65382308,10.1766382 L5.86903829,10.1764842 L7.00155543,10.1764842 C7.03528146,10.3107723 7.11151154,10.4270424 7.21546164,10.5125125 L6.04382847,13.000847 C6.00425043,12.993301 5.96390239,12.988527 5.92232235,12.988527 C5.87057829,12.988527 5.82083624,12.996381 5.7724802,13.008085 L4.46024488,10.4958805 C4.55372298,10.4122584 4.62225305,10.3023023 4.65382308,10.1766382 Z M7.49651192,10.6478786 C7.53639796,10.6557327 7.577208,10.6601987 7.61925004,10.6601987 C7.6797721,10.6601987 7.73736816,10.6491106 7.79280822,10.6334026 L9.54702397,13.6749057 C9.48157391,13.7383537 9.43059985,13.8159698 9.39702782,13.9025179 L6.55341498,13.5497035 C6.53277896,13.3826134 6.44884887,13.2369292 6.32503275,13.1354431 L7.49651192,10.6478786 Z M8.06431049,10.4786325 C8.14777857,10.3971664 8.20753063,10.2930623 8.23694466,10.1764842 L11.7459922,10.1764842 C11.7752522,10.2930623 11.8351583,10.3971664 11.9186263,10.4784785 L10.1648726,13.5205975 C10.1094325,13.5047355 10.0519905,13.4936475 9.99146842,13.4936475 C9.93094635,13.4936475 9.8735043,13.5047355 9.81806424,13.5205975 L8.06431049,10.4786325 Z M12.1899746,10.6334026 C12.2455687,10.6491106 12.3030107,10.6601987 12.3636868,10.6601987 C12.4057288,10.6601987 12.4465389,10.6557327 12.4862709,10.6478786 L13.6583661,13.1363671 C13.53532,13.2378532 13.4518519,13.3830754 13.4312159,13.5493955 L10.585909,13.9025179 C10.552337,13.8159698 10.5013629,13.7383537 10.4357589,13.6749057 L12.1899746,10.6334026 Z M12.7676292,10.5125125 C12.8714253,10.4270424 12.9475014,10.3107723 12.9813814,10.1764842 L14.0427505,10.1764842 L15.3577578,10.1766382 C15.3917918,10.2967583 15.4587819,10.4016324 15.54995,10.4820205 L14.2136906,13.008701 C14.1648726,12.996689 14.1146685,12.988527 14.0623085,12.988527 C14.0201124,12.988527 13.9791484,12.993301 13.9394164,13.001001 L12.7676292,10.5125125 Z M12.7725572,3.12758913 L15.6705321,5.22260722 C15.6412721,5.2959113 15.624332,5.37537538 15.624332,5.45899746 C15.624332,5.49395549 15.6291061,5.52768153 15.6344961,5.56125356 L14.564657,6.02479402 C14.4476169,5.87464387 14.2672827,5.77639178 14.0623085,5.77639178 C14.0244244,5.77639178 13.9877724,5.78116578 13.9518904,5.78747979 L12.8241472,3.28297528 L12.7591592,3.13852314 C12.7636252,3.13498113 12.7680912,3.13143913 12.7725572,3.12758913 Z M12.1259105,3.23261723 C12.1993686,3.26218526 12.2794487,3.27943328 12.3636868,3.27943328 C12.4018788,3.27943328 12.4391469,3.27465927 12.4756449,3.26803727 L12.6468931,3.64841765 L13.6680681,5.91606992 C13.581212,5.98506199 13.5117579,6.07422807 13.4698699,6.17864018 L10.622407,5.81027181 C10.607315,5.68968969 10.559421,5.58050358 10.4867329,5.49041349 L12.1259105,3.23261723 Z M8.23694466,2.7957188 L11.7459922,2.7957188 C11.7694002,2.88858089 11.8132902,2.97220297 11.8722723,3.04396704 L10.2153846,5.29283129 C10.1454686,5.26665127 10.0704705,5.25032725 9.99146842,5.25032725 C9.90753833,5.25032725 9.82761225,5.26757527 9.75415418,5.2971433 L8.10912453,3.04596905 C8.16903059,2.97389697 8.21322864,2.88935089 8.23694466,2.7957188 Z M7.61925004,3.27943328 C7.70333413,3.27943328 7.78341421,3.26218526 7.85702628,3.23261723 L9.49604992,5.49041349 C9.42382385,5.58019558 9.3760838,5.68876569 9.36068378,5.80873181 L6.51553094,6.18110418 C6.4739509,6.07592208 6.40449683,5.98598599 6.31748674,5.91683992 L7.50759993,3.26803727 C7.54409797,3.27465927 7.581058,3.27943328 7.61925004,3.27943328 Z M7.21037963,3.12758913 C7.21499964,3.13143913 7.21946564,3.13528914 7.22393165,3.13883114 L6.03381846,5.78763379 C5.99747442,5.78116578 5.96051438,5.77639178 5.92232235,5.77639178 C5.71627014,5.77639178 5.53516596,5.87541388 5.41827984,6.02695003 L4.34813277,5.56202356 C4.35367678,5.52814353 4.35860478,5.49410949 4.35860478,5.45899746 C4.35860478,5.37537538 4.34151077,5.2959113 4.31225074,5.22260722 L7.21037963,3.12758913 Z M4.22354665,5.84784785 L5.29353972,6.31277431 C5.28814971,6.34665435 5.28337571,6.38068838 5.28337571,6.41595442 C5.28337571,6.60537461 5.36715179,6.77369677 5.49789792,6.89089089 L4.18489261,9.4001694 C4.1730346,9.3972434 4.16102258,9.39447139 4.14870257,9.39216139 L3.91785634,6.06406406 C4.04074846,6.02356202 4.14623857,5.94810195 4.22354665,5.84784785 Z M3.61971204,13.7696158 L2.573435,10.5462385 C2.70787713,10.4630785 2.80751523,10.3321783 2.85140528,10.1764842 L3.24918767,10.1764842 L3.41843384,10.1764842 C3.4720259,10.3893124 3.63141606,10.5579426 3.83793026,10.6257026 L3.61971204,13.7696158 Z M3.41843384,9.86463386 L3.24918767,9.86463386 L2.86187729,9.86447986 C2.82476325,9.6972357 2.72235315,9.55540156 2.58298301,9.46577347 L3.61971204,6.27104027 L3.83793026,9.41556942 C3.63141606,9.48332948 3.4720259,9.65180565 3.41843384,9.86463386 Z M3.91785634,13.976746 L4.14870257,10.6489566 C4.16086858,10.6468006 4.1725726,10.6440286 4.18443061,10.6412566 L5.40857783,12.984677 L5.49712792,13.1539232 C5.36668979,13.2711173 5.28337571,13.4391314 5.28337571,13.6282436 C5.28337571,13.6624317 5.28814971,13.6950797 5.29338572,13.7278817 L4.22015864,14.1888042 C4.14315857,14.0905521 4.03890046,14.016478 3.91785634,13.976746 Z M7.20930163,16.9139909 L4.30932473,14.8279048 C4.34089476,14.7521368 4.35860478,14.6691307 4.35860478,14.5819666 C4.35860478,14.5468545 4.35367678,14.5129745 4.34828677,14.4794025 L5.41735584,14.016324 C5.53424196,14.1684762 5.71580814,14.2679603 5.92232235,14.2679603 C5.96020638,14.2679603 5.99670442,14.2631863 6.03274046,14.2568723 L7.22377765,16.9021329 C7.21884964,16.9059829 7.21407564,16.9099869 7.20930163,16.9139909 Z M7.85702628,16.8080388 C7.78341421,16.7786248 7.70333413,16.7612228 7.61925004,16.7612228 C7.580904,16.7612228 7.54378997,16.7661508 7.50729193,16.7726188 L7.25072767,16.2026642 L6.31671674,14.1281281 C6.40526683,14.0580581 6.4750289,13.966582 6.51676294,13.8593979 L7.20606763,13.9448679 L9.36037578,14.2123662 C9.3759298,14.3369523 9.42644185,14.4495264 9.50282593,14.5411565 L9.22439365,14.9247709 L7.85702628,16.8080388 Z M11.7459922,17.2450912 L8.23694466,17.2450912 C8.21307464,17.1505352 8.16826059,17.0656811 8.10789253,16.993147 L9.75369218,14.7262647 C9.82730425,14.7558328 9.90723033,14.7730808 9.99146842,14.7730808 C10.0757065,14.7730808 10.1556326,14.7558328 10.2290907,14.7262647 L11.8750443,16.993301 C11.8146762,17.0656811 11.7697082,17.1505352 11.7459922,17.2450912 Z M12.4756449,16.7726188 C12.4391469,16.7661508 12.4018788,16.7612228 12.3636868,16.7612228 C12.2794487,16.7612228 12.1993686,16.7786248 12.1259105,16.8080388 L11.4518519,15.8795719 L10.4799569,14.5411565 C10.556649,14.4495264 10.607007,14.3369523 10.622561,14.2123662 L12.8093632,13.9408639 L13.4678679,13.8592439 C13.5074459,13.961038 13.572742,14.048818 13.6551321,14.1175021 L12.5161469,16.6828367 L12.4756449,16.7726188 Z M12.7731732,16.9136829 C12.7685532,16.9098329 12.7642412,16.9061369 12.7596212,16.9024409 L12.7999692,16.8117348 L13.9503504,14.2565643 C13.9866944,14.2631863 14.0238084,14.2679603 14.0623085,14.2679603 C14.2663587,14.2679603 14.4460769,14.1704782 14.562963,14.021252 L15.9478864,14.6161546 L12.7731732,16.9136829 Z M14.6909371,13.7306537 C14.6964811,13.6970817 14.7014091,13.6633557 14.7014091,13.6282436 C14.7014091,13.4399014 14.618403,13.2720413 14.4888889,13.1550012 L15.2268577,11.7594518 L15.8265343,10.6255486 C15.8356203,10.6277046 15.8442443,10.6297066 15.8533303,10.6314006 L16.0915685,14.3374143 L14.6909371,13.7306537 Z M16.1642566,10.6099946 C16.3672288,10.5448525 16.5246169,10.3826904 16.582521,10.1764842 L16.7445292,10.1764842 L17.1264496,10.1764842 C17.1671056,10.3377223 17.2678217,10.4741665 17.4048818,10.5604066 L16.3666128,13.7589898 L16.1642566,10.6099946 Z" id="Sign"></path>
        </g>
    </g>
</svg>