<?xml version="1.0" encoding="UTF-8"?>
<svg width="20px" height="20px" viewBox="0 0 20 20" version="1.1" xmlns="http://www.w3.org/2000/svg" xmlns:xlink="http://www.w3.org/1999/xlink">
    <!-- Generator: sketchtool 49.3 (51167) - http://www.bohemiancoding.com/sketch -->
    <title>3FA377DD-76F6-4A6A-8CC9-A9860E8008D4</title>
    <desc>Created with sketchtool.</desc>
    <defs></defs>
    <g id="Coins" stroke="none" stroke-width="1" fill="none" fill-rule="evenodd">
        <g id="Coins/QuazarCoin-QCN" fill="#0099F7">
            <path d="M9.94874031,1.60000002 L7.48424972,7.76184877 L2,7.76184877 L5.96121977,11.4697904 L3.37730216,17.6 L9.94874031,13.7609438 L16.5196417,17.6 L13.9357241,11.4697904 L18,7.76184877 L12.4132309,7.76184877 L9.94874031,1.60000002 Z M7.19789325,11.9902268 L7.56073669,11.1298041 L6.87852662,10.4913914 L5.39467946,9.10275671 L7.48424972,9.10275671 L8.39296857,9.10275671 L8.73031635,8.25922614 L9.94874031,5.21302434 L11.1671643,8.25922614 L11.5042437,9.10248859 L12.4132309,9.10248859 L14.5406421,9.10248859 L13.0307625,10.4798619 L12.3313764,11.1182746 L12.6990506,11.9902268 L13.7194136,14.410886 L10.6261196,12.6037035 L9.94874031,12.2079467 L9.271361,12.6037035 L6.1772619,14.4111541 L7.19789325,11.9902268 Z" id="Sign"></path>
        </g>
    </g>
</svg>