<?xml version="1.0" encoding="UTF-8"?>
<svg width="20px" height="20px" viewBox="0 0 20 20" version="1.1" xmlns="http://www.w3.org/2000/svg" xmlns:xlink="http://www.w3.org/1999/xlink">
    <!-- Generator: sketchtool 49.3 (51167) - http://www.bohemiancoding.com/sketch -->
    <title>C930C056-8492-430C-B246-1F1490390383</title>
    <desc>Created with sketchtool.</desc>
    <defs></defs>
    <g id="Coins" stroke="none" stroke-width="1" fill="none" fill-rule="evenodd">
        <g id="Coins/Radium-RADS" fill="#0099F7">
            <path d="M10,2 C14.4154839,2 18,5.58451613 18,10 C18,14.4154839 14.4154839,18 10,18 C5.58451613,18 2,14.4154839 2,10 C2,5.58451613 5.58451613,2 10,2 Z M12.2658065,14.1703226 C13.316129,14.1703226 14.1703226,13.316129 14.1703226,12.2658065 C14.1703226,11.2129032 13.316129,10.3612903 12.2658065,10.3612903 C11.2129032,10.3612903 10.3612903,11.2129032 10.3612903,12.2658065 C10.3612903,13.316129 11.2129032,14.1703226 12.2658065,14.1703226 Z M7.73419355,5.82967742 C6.68387097,5.82967742 5.82967742,6.68387097 5.82967742,7.73419355 C5.82967742,8.78709677 6.68387097,9.63870968 7.73419355,9.63870968 C8.78709677,9.63870968 9.63870968,8.78709677 9.63870968,7.73419355 C9.63870968,6.68387097 8.78709677,5.82967742 7.73419355,5.82967742 Z M9.63870968,12.2658065 C9.63870968,10.8154839 10.8154839,9.63870968 12.2658065,9.63870968 C13.316129,9.63870968 14.1703226,8.78709677 14.1703226,7.73419355 C14.1703226,6.68387097 13.316129,5.82967742 12.2658065,5.82967742 C11.2129032,5.82967742 10.3612903,6.68387097 10.3612903,7.73419355 C10.3612903,9.18451613 9.18451613,10.3612903 7.73419355,10.3612903 C6.68387097,10.3612903 5.82967742,11.2129032 5.82967742,12.2658065 C5.82967742,13.316129 6.68387097,14.1703226 7.73419355,14.1703226 C8.78709677,14.1703226 9.63870968,13.316129 9.63870968,12.2658065 Z M12.2658065,11.6929032 C12.5822222,11.6929032 12.8387097,11.9493907 12.8387097,12.2658065 C12.8387097,12.5822222 12.5822222,12.8387097 12.2658065,12.8387097 C11.9493907,12.8387097 11.6929032,12.5822222 11.6929032,12.2658065 C11.6929032,11.9493907 11.9493907,11.6929032 12.2658065,11.6929032 Z M7.73419355,11.6929032 C8.05060932,11.6929032 8.30709677,11.9493907 8.30709677,12.2658065 C8.30709677,12.5822222 8.05060932,12.8387097 7.73419355,12.8387097 C7.41777778,12.8387097 7.16129032,12.5822222 7.16129032,12.2658065 C7.16129032,11.9493907 7.41777778,11.6929032 7.73419355,11.6929032 Z M12.2658065,7.16129032 C12.5822222,7.16129032 12.8387097,7.41777778 12.8387097,7.73419355 C12.8387097,8.05060932 12.5822222,8.30709677 12.2658065,8.30709677 C11.9493907,8.30709677 11.6929032,8.05060932 11.6929032,7.73419355 C11.6929032,7.41777778 11.9493907,7.16129032 12.2658065,7.16129032 Z M7.73419355,7.16129032 C8.05060932,7.16129032 8.30709677,7.41777778 8.30709677,7.73419355 C8.30709677,8.05060932 8.05060932,8.30709677 7.73419355,8.30709677 C7.41777778,8.30709677 7.16129032,8.05060932 7.16129032,7.73419355 C7.16129032,7.41777778 7.41777778,7.16129032 7.73419355,7.16129032 Z" id="Sign"></path>
        </g>
    </g>
</svg>