<?xml version="1.0" encoding="UTF-8"?>
<svg width="20px" height="20px" viewBox="0 0 20 20" version="1.1" xmlns="http://www.w3.org/2000/svg" xmlns:xlink="http://www.w3.org/1999/xlink">
    <!-- Generator: sketchtool 49.3 (51167) - http://www.bohemiancoding.com/sketch -->
    <title>FE870F70-54DF-4ACC-9F40-A99E8A9BF9F6</title>
    <desc>Created with sketchtool.</desc>
    <defs></defs>
    <g id="Coins" stroke="none" stroke-width="1" fill="none" fill-rule="evenodd">
        <g id="Coins/Ripio-Credit-Network-RCN" fill="#0099F7">
            <path d="M8.69635756,3.55570058 C7.14565702,3.86405162 5.71387685,4.75332339 4.75883054,6.01514215 C4.05004411,6.93703809 3.58856994,8.05152189 3.45438988,9.20757519 C3.41913473,9.59222469 3.3670413,9.98318855 3.44386596,10.3662595 C4.50257294,9.30281672 5.82227329,8.52615096 7.2198507,7.99784986 C8.42536646,7.5500568 9.69192098,7.27275134 10.970578,7.1506738 C11.31892,7.09700177 11.6751549,7.14699042 12.0213921,7.07437533 C11.3652253,6.39873927 10.6901154,5.74099387 10.0244771,5.07430314 C10.2396913,4.85330069 10.458589,4.63545542 10.6795915,4.41971493 C11.6193781,5.35581817 12.5560075,6.2945524 13.4968465,7.22960324 C13.5968238,7.3353687 13.7241633,7.42376968 13.7820449,7.56215931 C13.6162931,7.76579729 13.4126551,7.93418011 13.2332222,8.12518937 C12.5086498,8.84029016 11.8003896,9.57117684 11.0663458,10.2757537 C10.8516577,10.0600132 10.6264456,9.85479665 10.4259648,9.62537506 C10.7274753,9.31544543 11.0363526,9.01340875 11.3410202,8.7066363 C11.5609703,8.48142427 11.8061778,8.2783125 11.9887679,8.01942391 C11.6072756,7.99995465 11.2294666,8.06046722 10.8500791,8.08414606 C10.2396913,8.18728053 9.6182535,8.23779538 9.02259927,8.41196636 C6.99937445,8.87817629 5.04718612,9.87110874 3.66802559,11.4491715 C3.5375289,11.5607251 3.64382056,11.7248983 3.67802332,11.855395 C3.90586632,12.6052248 4.26210122,13.3171684 4.73830889,13.9402374 C5.58390636,15.0641402 6.80047224,15.8992137 8.1485872,16.2954395 C8.61742811,16.4090979 9.08837381,16.5511709 9.5756316,16.5469614 C9.96133349,16.5480138 10.348614,16.5585377 10.7337897,16.5338065 C11.8593236,16.3785785 12.9590739,15.9755122 13.8772865,15.2993499 C15.6642491,14.0296382 16.7303229,11.8106683 16.5871975,9.62169168 C16.3330447,9.82796064 16.0983611,10.0563298 15.8431559,10.2615464 C14.8802166,11.0455789 13.7646804,11.6270258 12.6017866,12.0527187 C11.6883098,12.3873795 10.7332635,12.5894389 9.77506,12.7457192 C9.18045817,12.8446441 8.57375382,12.8262272 7.97967818,12.9183116 C8.63952836,13.5839499 9.30306191,14.2459049 9.96975264,14.9052289 C9.77032423,15.114655 9.58247215,15.3409194 9.35041957,15.5145642 C9.22202767,15.4987783 9.14257203,15.3840675 9.05364485,15.3040857 C8.25066928,14.4932172 7.43927456,13.6907678 6.63208942,12.8841088 C6.4921212,12.741036 6.33636709,12.6110129 6.21586814,12.4499969 C6.2500709,12.3452838 6.34320764,12.2774045 6.41529654,12.2005798 C7.26142021,11.378135 8.07386732,10.5209612 8.9326197,9.71167125 C9.15151737,9.92109739 9.37357221,10.1284187 9.57089583,10.3594189 C9.05680203,10.9029797 8.50113872,11.4065496 7.99599026,11.9585295 C8.30276271,11.9737892 8.61006136,11.9580033 8.91472903,11.9174862 C9.69086859,11.8238233 10.4722701,11.7270031 11.2257832,11.5091579 C13.0727323,11.0424217 14.8475925,10.1378903 16.1541379,8.73031513 C16.2404341,8.61876151 16.4003978,8.52351998 16.393031,8.36829207 C15.8920921,6.37769141 14.3971684,4.666501 12.4854972,3.91193549 C11.9272029,3.67619954 11.3310225,3.5399147 10.7332635,3.45046132 C10.0549964,3.43625402 9.3604173,3.37942482 8.69635756,3.55570058 M8.74634621,2.61012581 C9.31148105,2.53908931 9.88240405,2.46384323 10.4528009,2.51909385 C10.7948285,2.554349 11.1384346,2.58434219 11.4767789,2.64853814 C12.7307047,2.90269096 13.9209608,3.47519255 14.8923191,4.3097399 C15.8973541,5.14481345 16.6303456,6.27245215 17.0991865,7.48586085 C17.2833552,7.22697226 17.4296378,6.94440484 17.5680274,6.65973264 C17.6401163,6.51765963 17.7295697,6.35506497 17.8969001,6.31402166 C18.0905403,6.24824712 18.3320644,6.32138841 18.4346727,6.50450472 C18.5367548,6.65710166 18.5072878,6.85863484 18.4278322,7.01438895 C18.1763103,7.54269005 17.8674331,8.04257655 17.515934,8.51036507 C17.4696287,8.58982071 17.3817539,8.66980255 17.4133257,8.76977985 C17.5390866,9.39384868 17.513303,10.0347558 17.4917289,10.6667176 C17.4012232,11.5412558 17.1796945,12.4068488 16.7929402,13.1987742 C16.1530855,14.5468892 15.0917475,15.685578 13.8094071,16.4454055 C12.9011923,16.972128 11.884581,17.3199437 10.8385027,17.4267616 C10.2781037,17.457281 9.71559982,17.4578072 9.15572694,17.4257092 C7.8333956,17.2867934 6.55368617,16.7758568 5.4934006,15.974986 C4.31735184,15.0978693 3.41071559,13.8707269 2.91082909,12.4915664 C2.72876517,12.7431408 2.5819564,13.0172891 2.44725014,13.2966467 C2.37463505,13.4387197 2.29307462,13.5992096 2.13311094,13.6576174 C1.86106745,13.7907451 1.50009678,13.5544829 1.50009678,13.254551 C1.4969396,13.1087947 1.57165947,12.9772456 1.63217205,12.8499061 C1.86632941,12.4042178 2.11522027,11.9643177 2.41883554,11.5617775 C2.47671713,11.4712717 2.56353953,11.3855017 2.56301333,11.2713171 C2.57353726,11.0013784 2.4961864,10.7382803 2.4961864,10.4688677 C2.49355542,10.0663276 2.48355769,9.662735 2.50828891,9.26072101 C2.61721155,8.40302102 2.84031879,7.55584496 3.21391817,6.77391724 C4.12371159,4.87697953 5.85805464,3.38679157 7.88548904,2.8111328 C8.16700407,2.72273182 8.45430725,2.65222151 8.74634621,2.61012581" id="Sign"></path>
        </g>
    </g>
</svg>