<?xml version="1.0" encoding="UTF-8"?>
<svg width="20px" height="20px" viewBox="0 0 20 20" version="1.1" xmlns="http://www.w3.org/2000/svg" xmlns:xlink="http://www.w3.org/1999/xlink">
    <!-- Generator: sketchtool 49.3 (51167) - http://www.bohemiancoding.com/sketch -->
    <title>468E36D3-AFEE-4387-A557-C6E899E51133</title>
    <desc>Created with sketchtool.</desc>
    <defs></defs>
    <g id="Coins" stroke="none" stroke-width="1" fill="none" fill-rule="evenodd">
        <g id="Coins/Ripple-XRP" fill="#0099F7">
            <path d="M14.9762754,11.817962 C14.4385667,11.5231077 13.853534,11.3865198 13.2773567,11.3910538 L13.282245,11.3882909 C12.4917636,11.397359 11.8433251,10.7825716 11.8340445,10.0153271 C11.8249056,9.25828425 12.4408265,8.63619988 13.2158638,8.61034169 L13.2158638,8.60998747 L13.2144469,8.60927903 C13.8007549,8.60644525 14.3939348,8.45731786 14.9343356,8.14546097 C16.5502955,7.21279492 17.0815574,5.18508752 16.1209078,3.61638076 C15.1600457,2.04760316 13.0712705,1.53192703 11.4553105,2.46459308 C9.83935059,3.3971883 9.30815954,5.42496654 10.26888,6.9936733 C10.6690089,7.64735425 10.4478328,8.49217329 9.77452799,8.88082547 C9.11078714,9.26388095 8.25612073,9.06034509 7.84841142,8.4286259 L7.84805719,8.42876759 L7.84805719,8.4305387 C7.55426562,7.93809952 7.12622397,7.51267911 6.5790221,7.21258238 C4.94230475,6.3148426 2.86557305,6.87507983 1.94084156,8.46418977 C1.01611007,10.0529455 1.59349164,12.0688927 3.23027984,12.9665617 C4.86713888,13.8643014 6.94358719,13.3039934 7.86838953,11.7149543 C7.87398623,11.7053903 7.87894534,11.6954721 7.88440035,11.6858372 L7.88440035,11.6881751 L7.88475457,11.6883168 C8.27758658,11.0468919 9.12842739,10.8246531 9.8008821,11.1934689 C10.4829716,11.567598 10.7233466,12.4074579 10.3380949,13.0694277 C9.41322174,14.6585376 9.99067415,16.6743432 11.6273915,17.5719412 C13.2641797,18.4697519 15.3408405,17.909373 16.265572,16.3203339 C17.1901618,14.7314365 16.6129928,12.7157018 14.9762754,11.817962" id="Sign"></path>
        </g>
    </g>
</svg>