<?xml version="1.0" encoding="UTF-8"?>
<svg width="20px" height="20px" viewBox="0 0 20 20" version="1.1" xmlns="http://www.w3.org/2000/svg" xmlns:xlink="http://www.w3.org/1999/xlink">
    <!-- Generator: sketchtool 49.3 (51167) - http://www.bohemiancoding.com/sketch -->
    <title>C7853BFE-7F2C-453B-9A12-674161D92E0B</title>
    <desc>Created with sketchtool.</desc>
    <defs></defs>
    <g id="Coins" stroke="none" stroke-width="1" fill="none" fill-rule="evenodd">
        <g id="Coins/SingularDTV-SNGLS" fill="#0099F7">
            <path d="M1.76377953,10.2362205 C1.76377953,10.2362205 5.08661417,8.03937008 8.50393701,7.48031496 L7.96062992,8.38582677 L8.38582677,9.18897638 L9.53543307,7.36220472 C9.69291339,7.35433071 9.8503937,7.34645669 10,7.34645669 C10.1496063,7.34645669 10.3070866,7.35433071 10.4566929,7.36220472 L11.5826772,9.18897638 L12.015748,8.34645669 L11.496063,7.47244094 C14.9133858,8.02362205 18.2362205,10.1732283 18.2362205,10.2283465 C18.2362205,10.2913386 14.7480315,12.5433071 11.2440945,13.023622 L12.9527559,9.92125984 L12.488189,9.14173228 L11.5984252,10.7480315 L10.3779528,13.1023622 C10.2440945,13.1102362 10.1181102,13.1102362 9.98425197,13.1102362 C9.8503937,13.1102362 9.71653543,13.1102362 9.58267717,13.1023622 L7.92125984,9.93700787 L7.92913386,9.92913386 L7.50393701,9.15748031 L7.03937008,9.93700787 L8.7480315,13.0314961 C5.24409449,12.5433071 1.75590551,10.2362205 1.76377953,10.2362205 Z M10.7637795,13.9133858 C15.3779528,13.5669291 19,10.2362205 19,10.2362205 C19,10.2362205 15.480315,6.99212598 10.9606299,6.57480315 L10.6141732,5.99212598 L10,5 L9.63779528,5.58267717 L9.03937008,6.57480315 C4.51968504,7 1,10.2283465 1,10.2362205 C1,10.2362205 4.62204724,13.5669291 9.23622047,13.9133858 L10,15.2913386 L10.7637795,13.9133858 Z" id="Sign"></path>
        </g>
    </g>
</svg>