<?xml version="1.0" encoding="UTF-8"?>
<svg width="20px" height="20px" viewBox="0 0 20 20" version="1.1" xmlns="http://www.w3.org/2000/svg" xmlns:xlink="http://www.w3.org/1999/xlink">
    <!-- Generator: sketchtool 49.3 (51167) - http://www.bohemiancoding.com/sketch -->
    <title>AFA9F326-3674-4D3E-9F2C-BD7644FF31D8</title>
    <desc>Created with sketchtool.</desc>
    <defs></defs>
    <g id="Coins" stroke="none" stroke-width="1" fill="none" fill-rule="evenodd">
        <g id="Coins/SONM-SNM" fill="#0099F7">
            <path d="M16.3479137,10.1497797 C16.1933026,10.1497797 16.0519438,10.1982379 15.9326724,10.2687225 C16.427428,9.68281938 16.7278154,8.92511013 16.7278154,8.0969163 C16.7278154,7.70044053 16.657136,7.3215859 16.5334029,6.969163 C16.9663583,7.88986784 17.2093186,8.91629956 17.204857,10.0044053 C17.204857,10.3039648 17.1827697,10.5947137 17.1474742,10.8854626 C17.1121345,10.4713656 16.7675725,10.1497797 16.3479137,10.1497797 M16.4583502,13.1938326 C16.484855,13.0748899 16.5025249,12.9559471 16.5025249,12.8281938 C16.5025249,12.3920705 16.3258264,11.9955947 16.0431089,11.7004405 C16.140293,11.7400881 16.2418946,11.7621145 16.3523312,11.7621145 C16.6836408,11.7621145 16.9707757,11.5594714 17.0944205,11.2731278 C16.9707757,11.9515419 16.754276,12.5947137 16.4583502,13.1938326 M15.9503422,10.9515419 C15.9503422,10.7312775 16.1314581,10.5506608 16.3523312,10.5506608 C16.5732042,10.5506608 16.754276,10.7312775 16.754276,10.9515419 C16.754276,11.1718062 16.5732042,11.3524229 16.3523312,11.3524229 C16.1314581,11.3524229 15.9503422,11.1762115 15.9503422,10.9515419 M14.5985549,15.5418502 C14.7089915,15.4052863 14.779715,15.2378855 14.779715,15.0484581 C14.779715,14.7797357 14.6427295,14.5418502 14.4351089,14.4008811 C14.5720943,14.4361233 14.7178706,14.4581498 14.8680642,14.4581498 C15.2965138,14.4581498 15.6852945,14.2907489 15.976847,14.0220264 C15.5924837,14.5903084 15.1286503,15.1013216 14.5985549,15.5418502 M13.9933628,15.4273128 C13.7857863,15.4273128 13.6135053,15.2555066 13.6135053,15.0484581 C13.6135053,14.8414097 13.7857863,14.6696035 13.9933628,14.6696035 C14.2009834,14.6696035 14.3733086,14.8414097 14.3733086,15.0484581 C14.3733086,15.2555066 14.2009834,15.4273128 13.9933628,15.4273128 M10.9806985,17.1409692 C12.0320542,16.8237885 12.8669102,16.0132159 13.2159338,14.9779736 C13.2115163,15 13.2070547,15.0264317 13.2070547,15.0484581 C13.2070547,15.4801762 13.5604516,15.8325991 13.9933628,15.8325991 C14.1170959,15.8325991 14.2319498,15.8017621 14.3335073,15.753304 C13.3705449,16.4757709 12.222005,16.969163 10.9806985,17.1409692 M7.22139487,13.9030837 C7.22139487,12.3700441 8.46716308,11.1277533 10.0000221,11.1277533 C11.5328811,11.1321586 12.778561,12.3744493 12.778561,13.9030837 C12.778561,15.4317181 11.5328811,16.6740088 10.0000221,16.6784141 C8.46716308,16.6740088 7.22139487,15.4361233 7.22139487,13.9030837 M5.67091019,15.753304 C5.7725118,15.8017621 5.88736579,15.8325991 6.0110547,15.8325991 C6.44396589,15.8325991 6.79736278,15.4801762 6.79736278,15.0484581 C6.79736278,15.0220264 6.78852785,15 6.78852785,14.9779736 C7.13750728,16.0132159 7.97236326,16.8237885 9.02376318,17.1409692 C7.77803914,16.969163 6.62949925,16.4757709 5.67091019,15.753304 M6.00659306,14.6696035 C6.21425791,14.6696035 6.38653889,14.8414097 6.38653889,15.0484581 C6.38653889,15.2555066 6.21425791,15.4273128 6.00659306,15.4273128 C5.79901656,15.4273128 5.62673558,15.2555066 5.62673558,15.0484581 C5.62673558,14.8370044 5.79901656,14.6696035 6.00659306,14.6696035 M5.22032916,15.0484581 C5.22032916,15.2378855 5.29100853,15.4052863 5.40144506,15.5418502 C4.87134973,15.1013216 4.40751631,14.5903084 4.02319719,14.0220264 C4.31474963,14.2907489 4.70344203,14.4581498 5.13197993,14.4581498 C5.28217361,14.4581498 5.42794983,14.4405286 5.56484695,14.4008811 C5.35727045,14.5418502 5.22032916,14.7797357 5.22032916,15.0484581 M3.54169393,13.1938326 C3.24130657,12.5947137 3.02926844,11.9515419 2.90557953,11.2731278 C3.02926844,11.5594714 3.31640341,11.7621145 3.647713,11.7621145 C3.75814953,11.7621145 3.86412442,11.7400881 3.95693528,11.7004405 C3.67421776,11.9911894 3.49751932,12.3876652 3.49751932,12.8281938 C3.49751932,12.9559471 3.51518916,13.0748899 3.54169393,13.1938326 M4.04970196,10.9559471 C4.04970196,11.1762115 3.86858605,11.3568282 3.647713,11.3568282 C3.42683994,11.3568282 3.24567986,11.1762115 3.24567986,10.9559471 C3.24567986,10.7356828 3.42683994,10.5550661 3.647713,10.5550661 C3.86858605,10.5550661 4.04970196,10.7312775 4.04970196,10.9559471 M2.79072554,10 C2.79072554,8.91629956 3.02926844,7.88546256 3.46217963,6.96475771 C3.33849072,7.3215859 3.26776717,7.69603524 3.26776717,8.09251101 C3.26776717,8.92070485 3.5681987,9.6784141 4.06291017,10.2643172 C3.93926543,10.1894273 3.7978625,10.1453744 3.647713,10.1453744 C3.22805419,10.1453744 2.88349222,10.4713656 2.84810836,10.8810573 C2.81281285,10.5947137 2.79072554,10.2995595 2.79072554,10 M6.63833418,13.4581498 C6.62066433,13.6035242 6.60741195,13.753304 6.60741195,13.9030837 C6.60741195,14.1762115 6.64275164,14.4405286 6.70459609,14.6960352 C6.57648972,14.4405286 6.31144205,14.2643172 6.00659306,14.2643172 C5.96241845,14.2643172 5.92270547,14.2731278 5.88294832,14.277533 C6.22309283,14.1013216 6.49251378,13.8105727 6.63833418,13.4581498 M5.13197993,11.8017621 C5.69737078,11.8017621 6.1612042,12.2599119 6.1612042,12.8281938 C6.1612042,13.3920705 5.70183242,13.8546256 5.13197993,13.8546256 C4.56654491,13.8546256 4.10271149,13.3964758 4.10271149,12.8281938 C4.10271149,12.2599119 4.56654491,11.7973568 5.13197993,11.8017621 M4.35004514,10.5682819 C4.64164175,10.8414097 4.97736879,11.061674 5.34843553,11.215859 C5.27771198,11.2026432 5.20707677,11.1982379 5.13197993,11.1982379 C4.82717512,11.1982379 4.54004014,11.2819383 4.29707978,11.4273128 C4.39868139,11.2951542 4.45610838,11.1321586 4.45610838,10.9559471 C4.45610838,10.8105727 4.41630706,10.6828194 4.35004514,10.5682819 M5.89615653,11.3832599 C6.14357853,11.4405286 6.39979127,11.4713656 6.66042148,11.4713656 C7.11095834,11.4713656 7.53949624,11.3832599 7.93265028,11.2246696 C7.38930257,11.6431718 6.97843451,12.2202643 6.76644055,12.8854626 C6.76644055,12.8678414 6.77085801,12.845815 6.77085801,12.8281938 C6.77085801,12.2026432 6.41746112,11.660793 5.89615653,11.3832599 M6.66042148,5.31718062 C8.19769795,5.31718062 9.44342199,6.56387665 9.44342199,8.09251101 C9.44342199,9.62555066 8.19323631,10.8678414 6.66042148,10.8678414 C5.12310084,10.8678414 3.87742098,9.62114537 3.87742098,8.09251101 C3.87742098,6.56387665 5.12756247,5.3215859 6.66042148,5.31718062 M7.09333267,3.41409692 C6.91217259,3.55947137 6.79294531,3.78414097 6.79294531,4.03524229 C6.79294531,4.36563877 6.99173106,4.64757709 7.27444858,4.77092511 C7.07566283,4.73568282 6.87245961,4.71365639 6.66042148,4.71365639 C5.62231812,4.71365639 4.69906874,5.17621145 4.07620673,5.90748899 C4.82717512,4.82378855 5.87406923,3.95154185 7.09333267,3.41409692 M7.6013407,3.63436123 C7.82221376,3.63436123 8.00332966,3.81497797 8.00332966,4.03524229 C8.00332966,4.25550661 7.82221376,4.43612335 7.6013407,4.43612335 C7.38046764,4.43612335 7.19930756,4.25550661 7.19930756,4.03524229 C7.19930756,3.81057269 7.38046764,3.63436123 7.6013407,3.63436123 M8.70570598,5.40088106 C8.36556147,5.14537445 7.97682489,4.95154185 7.55716609,4.83700441 C7.57041847,4.83700441 7.58367085,4.84140969 7.6013407,4.84140969 C7.94148521,4.84140969 8.23303764,4.62995595 8.35230909,4.33039648 C8.34784745,4.34801762 8.34784745,4.36563877 8.34784745,4.38325991 C8.34784745,4.76651982 8.48037129,5.11894273 8.70570598,5.40088106 M9.49638735,2.81057269 C8.95750126,2.98237885 8.54225992,3.4185022 8.40090116,3.969163 C8.36993476,3.55066079 8.02541697,3.2246696 7.6013407,3.2246696 C7.57479176,3.2246696 7.54833117,3.22907489 7.5218264,3.23348018 C8.14468842,3.00440529 8.80730759,2.86343612 9.49638735,2.81057269 M11.0424987,4.38325991 C11.0424987,4.95594714 10.574292,5.42290749 10.0000221,5.42290749 C9.42575214,5.42290749 8.95750126,4.95594714 8.95750126,4.38325991 C8.95750126,3.81057269 9.42575214,3.34361233 10.0000221,3.34361233 C10.574292,3.34361233 11.0424987,3.81057269 11.0424987,4.38325991 M12.4738003,3.23348018 C12.4472514,3.22907489 12.4207908,3.2246696 12.394286,3.2246696 C11.9701656,3.2246696 11.6256478,3.55506608 11.5946814,3.969163 C11.4533226,3.4185022 11.0381255,2.98237885 10.4991952,2.81057269 C11.188275,2.86343612 11.8553558,3.00440529 12.4738003,3.23348018 M12.8006483,4.03524229 C12.8006483,4.25550661 12.6195765,4.43612335 12.3987035,4.43612335 C12.1778304,4.43612335 11.9967145,4.25550661 11.9967145,4.03524229 C11.9967145,3.81497797 12.1778304,3.63436123 12.3987035,3.63436123 C12.6195765,3.63436123 12.8006483,3.81057269 12.8006483,4.03524229 M15.9237933,5.9030837 C15.3009754,5.17621145 14.3776819,4.7092511 13.3395785,4.7092511 C13.1319578,4.7092511 12.9243813,4.73127753 12.7255956,4.76651982 C13.0082689,4.64317181 13.2070547,4.36123348 13.2070547,4.030837 C13.2070547,3.77973568 13.0877832,3.55947137 12.9067115,3.40969163 C14.1258866,3.95154185 15.1728249,4.82378855 15.9237933,5.9030837 M11.6521084,4.33039648 C11.7713798,4.62995595 12.0629764,4.84140969 12.4030768,4.84140969 C12.4163733,4.84140969 12.4296257,4.83700441 12.4472514,4.83700441 C12.0232193,4.95154185 11.638856,5.14537445 11.2987115,5.40088106 C11.5195845,5.11894273 11.6521084,4.76651982 11.6521084,4.38325991 C11.6521084,4.36563877 11.6477351,4.34801762 11.6521084,4.33039648 M9.12978225,5.77973568 C9.38157753,5.93832599 9.67754743,6.030837 10.0000221,6.030837 C10.3224967,6.030837 10.6184666,5.93832599 10.8702619,5.77973568 C10.4240542,6.25550661 10.1148319,6.85903084 10.0000221,7.53303965 C9.88958556,6.86343612 9.58036328,6.25550661 9.12978225,5.77973568 M11.2722509,10.7665198 C10.8790527,10.6079295 10.4506031,10.5198238 10.0000221,10.5198238 C9.54944105,10.5198238 9.12090315,10.6123348 8.72779328,10.7665198 C9.39041245,10.2555066 9.85866333,9.50660793 10.0000221,8.64317181 C10.1413808,9.50220264 10.6052143,10.2555066 11.2722509,10.7665198 M13.3395785,10.8678414 C11.8023462,10.8678414 10.556578,9.62114537 10.556578,8.09251101 C10.556578,6.55947137 11.8067195,5.31718062 13.3395785,5.31718062 C14.876855,5.31718062 16.122579,6.56387665 16.122579,8.09251101 C16.122579,9.62114537 14.8724817,10.8678414 13.3395785,10.8678414 M15.6985469,11.4273128 C15.4555866,11.2819383 15.1684516,11.1982379 14.8636026,11.1982379 C14.7885058,11.1982379 14.7178706,11.2070485 14.6471912,11.215859 C15.0182137,11.0572687 15.353985,10.8370044 15.6455374,10.5682819 C15.5836488,10.6828194 15.5439358,10.814978 15.5439358,10.9559471 C15.5439358,11.1321586 15.6013628,11.2951542 15.6985469,11.4273128 M13.8343783,12.8281938 C13.8343783,12.2643172 14.2937943,11.8017621 14.8636026,11.8017621 C15.4334993,11.8017621 15.8973327,12.2599119 15.8973327,12.8281938 C15.8973327,13.3920705 15.4334993,13.8546256 14.8636026,13.8546256 C14.2982118,13.8546256 13.8343783,13.3964758 13.8343783,12.8281938 M13.3528309,13.4625551 C13.5030688,13.814978 13.7724897,14.1013216 14.1126342,14.277533 C14.0729212,14.2687225 14.0331641,14.2643172 13.9889895,14.2643172 C13.6841405,14.2643172 13.4190928,14.4405286 13.2910306,14.6960352 C13.3528309,14.4405286 13.3882148,14.1762115 13.3882148,13.9030837 C13.3882148,13.753304 13.3749182,13.6035242 13.3528309,13.4625551 M13.229142,12.8898678 C13.017148,12.2202643 12.6063241,11.6475771 12.0629764,11.2290749 C12.4560863,11.3876652 12.8846242,11.4757709 13.3352052,11.4757709 C13.6002529,11.4757709 13.8520482,11.4449339 14.099426,11.3876652 C13.5825389,11.660793 13.229142,12.2026432 13.229142,12.8281938 C13.229142,12.845815 13.2336036,12.8634361 13.229142,12.8898678 M10.0000221,2 C5.58693425,2.01321586 2,5.59471366 2,10 C2,14.4052863 5.58693425,17.9867841 10.0000221,18 C14.4130216,17.9911894 18,14.4052863 18,10 C18,5.59471366 14.4130216,2.01321586 10.0000221,2" id="Sign"></path>
        </g>
    </g>
</svg>