<?xml version="1.0" encoding="UTF-8"?>
<svg width="20px" height="20px" viewBox="0 0 20 20" version="1.1" xmlns="http://www.w3.org/2000/svg" xmlns:xlink="http://www.w3.org/1999/xlink">
    <!-- Generator: sketchtool 49.3 (51167) - http://www.bohemiancoding.com/sketch -->
    <title>A9C1939E-3598-4A35-884B-6438EEC0818B</title>
    <desc>Created with sketchtool.</desc>
    <defs></defs>
    <g id="Coins" stroke="none" stroke-width="1" fill="none" fill-rule="evenodd">
        <g id="Coins/Status-SNT" fill="#0099F7">
            <path d="M11.432,9.72736 C10.30736,9.72728 9.77496,9.51032 8.65016,9.51032 C8.371224,9.50876 8.092728,9.53272 7.81816,9.58192 C8.04416,7.49168 9.78616,5.90896 11.86008,5.90912 C13.12992,5.90912 14,6.53088 14,7.81824 C14,9.1056 12.95568,9.72736 11.432,9.72736 M8.13992,14.09096 C6.87008,14.09096 6,13.4692 6,12.18184 C6,10.89448 7.0444,10.27272 8.568,10.27272 C9.69264,10.27272 10.22504,10.48968 11.34984,10.48976 C11.628776,10.49132 11.907272,10.46736 12.18184,10.41816 C11.95592,12.5084 10.21408,14.09096 8.13992,14.09096 M10,2 C5.58172,2 2,5.58172 2,10 C2,14.41828 5.58172,18 10,18 C14.41828,18 18,14.41828 18,10 C18,5.58172 14.41828,2 10,2" id="Sign"></path>
        </g>
    </g>
</svg>