<?xml version="1.0" encoding="UTF-8"?>
<svg width="20px" height="20px" viewBox="0 0 20 20" version="1.1" xmlns="http://www.w3.org/2000/svg" xmlns:xlink="http://www.w3.org/1999/xlink">
    <!-- Generator: sketchtool 49.3 (51167) - http://www.bohemiancoding.com/sketch -->
    <title>92A432E9-3D7F-497C-B36D-E0B88538CD54</title>
    <desc>Created with sketchtool.</desc>
    <defs></defs>
    <g id="Coins" stroke="none" stroke-width="1" fill="none" fill-rule="evenodd">
        <g id="Coins/Steem-Dollars-SBD" fill="#0099F7">
            <path d="M4.52699268,6.75978416 C4.43207081,6.62689354 4.47003956,6.53200209 4.5839458,6.55098647 C4.79277392,6.56994042 4.98258724,6.62689354 5.19141535,6.64587792 C5.47615054,6.68384666 5.74193177,6.68384666 6.02666696,6.66486229 C6.38733964,6.64587792 6.72905837,6.56994042 7.05176231,6.43708022 C7.35551229,6.30418961 7.65923185,6.15231461 7.94399746,6.00047005 C8.34434262,5.80983529 8.74465735,5.61920053 9.14500251,5.43096925 L9.14500251,4.0237221 C9.14500251,3.15917249 9.64221665,2.37168605 10.4227969,2 L10.4227969,4.84300128 C10.7899194,4.68473732 11.1433208,4.52762945 11.5128468,4.38688953 C11.9304726,4.23501453 12.329114,4.15907704 12.7657242,4.29196766 C13.638975,4.55771847 14.2843829,5.27909426 14.8538837,5.94351692 C14.9488055,6.05739274 15.2904939,6.3801271 14.9488055,6.30418961 C14.4362579,6.20926774 13.9426946,6.03843879 13.4301469,5.9625013 C12.7087711,5.86757943 11.949457,6.26622086 11.3040187,6.55098647 C10.4877515,6.91165915 9.70942255,7.32928496 8.91210927,7.70894201 C8.13381078,8.08862949 7.24160605,8.48727092 6.36838569,8.20250531 C5.62802553,7.95573888 5.02055598,7.34826933 4.52699268,6.75978416 Z M16.5054269,9.91000372 C16.56238,9.9859108 16.6193331,10.0618787 16.4864425,10.0808327 C16.3156135,10.099817 16.0878011,9.9859108 15.9169417,9.94797247 C15.3284565,9.7771131 14.6640643,9.56828499 14.0376104,9.60625374 C13.5250627,9.64422249 13.012515,9.8530506 12.5569205,10.0428943 C11.2660439,10.5744264 10.0700892,11.2957718 8.79822736,11.8462882 C8.1338047,12.1310538 7.45042808,12.3968046 6.76702104,12.5866483 C6.19752024,12.7384929 5.62801944,12.7005242 5.07750302,12.415789 C4.29920453,12.0171475 3.63478187,11.2957718 3.08426544,10.6313491 C2.95137483,10.4605201 2.9703592,10.3466139 3.17918731,10.403567 C3.40696938,10.403567 3.61579749,10.4795045 3.84360998,10.4984889 C4.18529829,10.5364576 4.54597097,10.555442 4.8876897,10.5364576 C5.34325383,10.5174733 5.79887881,10.4415358 6.23548899,10.2706764 C6.55819292,10.1568006 6.86191248,9.96695685 7.18464684,9.81508185 C8.09583595,9.3594873 9.00705548,8.92287712 9.93722896,8.50522089 C10.4307923,8.27743883 10.9243556,8.04965676 11.4369032,7.84082865 C11.8735134,7.65098491 12.329108,7.42320284 12.8036869,7.3852341 C13.9616729,7.3092966 14.9487995,8.20150133 15.6891596,8.97983024 C15.9738948,9.26456543 16.2586604,9.58729979 16.5054269,9.91000372 Z M12.7657212,11.7693528 C13.638972,12.0351036 14.2843798,12.7564794 14.8538806,13.4209021 C14.9488025,13.5347779 15.2904908,13.8575122 14.9488025,13.7815747 C14.4362548,13.6866529 13.9426915,13.5157935 13.4301439,13.4398864 C12.7087985,13.3449646 11.949454,13.743606 11.3040157,14.0283412 C11.0061374,14.1599844 10.71334,14.299264 10.4227939,14.4414643 L10.4227939,15.9762475 C10.4227939,16.8407971 9.92557973,17.6282835 9.14499947,18 L9.14499947,15.0738812 C9.06747994,15.1116066 8.98996041,15.1492711 8.91213665,15.1863271 C8.13380774,15.5660146 7.24160301,15.9646561 6.36838265,15.6798904 C5.62802249,15.433124 5.02055294,14.8256545 4.52698964,14.2371693 C4.43209819,14.1043091 4.47003652,14.0093872 4.58394276,14.0283412 C4.79277088,14.0473255 4.98261462,14.1043091 5.19141231,14.123263 C5.47614749,14.1612318 5.74192873,14.1612318 6.02666392,14.1422474 C6.3873366,14.123263 6.72905533,14.0473255 7.05178969,13.9144654 C7.35550925,13.7815747 7.65922881,13.6296997 7.94399442,13.4778552 C8.74127728,13.0981677 9.53859057,12.7185106 10.3358734,12.357838 C10.7345149,12.1869786 11.1142023,12.0161496 11.5128438,11.8642747 C11.9304696,11.7123997 12.329111,11.6364622 12.7657212,11.7693528 Z" id="Sign"></path>
        </g>
    </g>
</svg>