<?xml version="1.0" encoding="UTF-8"?>
<svg width="20px" height="20px" viewBox="0 0 20 20" version="1.1" xmlns="http://www.w3.org/2000/svg" xmlns:xlink="http://www.w3.org/1999/xlink">
    <!-- Generator: sketchtool 49.3 (51167) - http://www.bohemiancoding.com/sketch -->
    <title>7FA422CA-2E24-4E3C-A641-767066962E7C</title>
    <desc>Created with sketchtool.</desc>
    <defs></defs>
    <g id="Coins" stroke="none" stroke-width="1" fill="none" fill-rule="evenodd">
        <g id="Coins/Steem-STEEM" fill="#0099F7">
            <path d="M14.6682235,3.80072384 C13.9742528,4.38276775 13.2578844,5.09912376 12.9668625,5.97218962 C12.6310698,7.00195293 13.1011746,8.0541016 13.5489064,8.97193816 C13.9966258,9.91216007 14.4891283,10.8299966 14.9144623,11.7926039 C15.250255,12.553743 15.7203721,13.4491942 15.608433,14.2998623 C15.5188916,14.9042916 15.3174234,15.4863355 15.2054843,16.0907647 C15.1159429,16.4937134 15.4965062,16.0907647 15.6308183,15.9788256 C16.4143428,15.3072403 17.2650233,14.5461136 17.5784306,13.5163379 C17.7351281,13.0014624 17.6455867,12.5313576 17.4665039,12.0388551 C17.2874087,11.5687504 17.0859405,11.1210186 16.88446,10.6509138 C16.4591135,9.71069191 16.0113817,8.77047 15.5636623,7.83024809 C15.3845795,7.49444304 15.2054843,7.13626504 15.0487744,6.77809943 C14.8920894,6.39752368 14.8025356,5.99457497 14.7801502,5.56924091 C14.7577649,5.23343586 14.7577649,4.92002856 14.8025356,4.58423591 C14.8249209,4.33799705 14.8920894,4.11413115 14.9144623,3.8678799 C14.9368477,3.73356779 14.8249209,3.68879709 14.6682111,3.80072384 L14.6682235,3.80072384 Z M4.41532385,3.80072384 C4.57202131,3.68879709 4.68396046,3.73356779 4.66157511,3.8678799 C4.63918976,4.11413115 4.57202131,4.33799705 4.54964835,4.58423591 C4.50486526,4.92002856 4.50486526,5.23343586 4.527263,5.56924091 C4.54964835,5.99457497 4.63918976,6.39752368 4.79588721,6.77809943 C4.95259706,7.13626504 5.13167986,7.49444304 5.31077506,7.83024809 C5.75850687,8.77047 6.20622627,9.71069191 6.63156033,10.6509138 C6.83304088,11.1210186 7.03450904,11.5687504 7.21360424,12.0388551 C7.39268704,12.5313576 7.48224084,13.0014624 7.32553099,13.5163379 C7.01212369,14.5461136 6.16145557,15.3072403 5.37793112,15.9788256 C5.24361901,16.0907647 4.86304326,16.4937134 4.95259706,16.0907647 C5.06452381,15.4863355 5.26600436,14.9042916 5.35554577,14.2998623 C5.46748491,13.4491942 4.99736776,12.553743 4.66157511,11.7926039 C4.23624105,10.8299966 3.74373855,9.91216007 3.29601914,8.97193816 C2.84828734,8.0541016 2.37818258,7.00195293 2.71397523,5.97218962 C3.00499719,5.09912376 3.72135319,4.38276775 4.41532385,3.80072384 Z M9.38507001,2.09936655 C9.58653817,1.9426567 9.72086267,1.96505444 9.65370661,2.2112933 C9.65370661,2.4799299 9.56415282,2.72618115 9.54176747,2.99481776 C9.49699677,3.39776646 9.47461141,3.82310052 9.49699677,4.22606162 C9.51938212,4.76332243 9.60893591,5.30059563 9.81040407,5.81548349 C9.94471617,6.19604684 10.1685821,6.55422485 10.3476773,6.9347882 C10.8849381,8.00933461 11.3998259,9.08386863 11.8923284,10.1808004 C12.160965,10.7628443 12.4295893,11.3448758 12.6758529,11.9493051 C12.8997064,12.4641929 13.168343,13.0014661 13.2131137,13.5611123 C13.3026551,14.9266806 12.2505064,16.0907561 11.3326699,16.9638219 C10.9968772,17.2996146 10.6163015,17.6354196 10.2357381,17.9264292 C10.1462091,17.9935852 10.0566553,18.0607537 10.03427,17.9040438 C10.0118846,17.7025757 10.1462091,17.4339391 10.1909674,17.2324585 C10.392448,16.5384879 10.6386992,15.7549758 10.5939285,15.016222 C10.5491578,14.4117928 10.3028942,13.8073635 10.0790407,13.2700903 C9.45222606,11.7478369 8.60154556,10.3374978 7.9523456,8.83761738 C7.61655294,8.05410532 7.30314564,7.24819551 7.07929213,6.4422981 C6.90019693,5.77071279 6.94496763,5.09912748 7.28076029,4.44992752 C7.75087744,3.53209096 8.60154556,2.7485665 9.38507001,2.09936655 Z" id="Sign"></path>
        </g>
    </g>
</svg>