<?xml version="1.0" encoding="UTF-8"?>
<svg width="20px" height="20px" viewBox="0 0 20 20" version="1.1" xmlns="http://www.w3.org/2000/svg" xmlns:xlink="http://www.w3.org/1999/xlink">
    <!-- Generator: sketchtool 49.3 (51167) - http://www.bohemiancoding.com/sketch -->
    <title>B486B7C8-9A88-434B-B2C2-8613FA472086</title>
    <desc>Created with sketchtool.</desc>
    <defs></defs>
    <g id="Coins" stroke="none" stroke-width="1" fill="none" fill-rule="evenodd">
        <g id="Coins/Stellar-XLM-STR" fill="#0099F7">
            <path d="M5.8144788,14.557273 C5.93144192,14.5285013 6.05966352,14.6151291 6.07561304,14.7349068 C6.09093708,14.8096506 6.04934325,14.8784525 6.00900035,14.9375595 C5.30471975,15.9223639 4.60513019,16.9106085 3.90116233,17.8957256 C3.83892794,17.9954883 3.69725871,18.0342675 3.59812152,17.9648402 C3.48710038,17.8982275 3.46833625,17.7365432 3.55183665,17.6402207 C4.25361537,16.6529143 4.95727049,15.6671717 5.65842373,14.6795526 C5.69845389,14.6263876 5.74536423,14.5694697 5.8144788,14.557273 Z M6.31141569,15.5514595 C6.42462598,15.5111166 6.56035323,15.5827331 6.58881217,15.7000089 C6.62102394,15.7978952 6.5556622,15.8867121 6.50187167,15.9617686 C6.1297163,16.4762187 5.76068828,16.9928579 5.39134752,17.5091844 C5.35069189,17.5636004 5.30253061,17.6211438 5.23185236,17.6333405 C5.11238735,17.6624249 4.98322755,17.5707933 4.97071812,17.4485137 C4.95789596,17.3747081 5.00136621,17.3093464 5.04045816,17.2511776 C5.41104986,16.736102 5.78226703,16.2207137 6.15004411,15.703449 C6.19445257,15.6449675 6.23729735,15.5749147 6.31141569,15.5514595 Z M15.2650362,2 L15.8245202,2 C15.9730697,2.43094967 16.0806507,2.87534698 16.1672785,3.3225589 C16.2889326,3.97867821 16.3599236,4.65074704 16.3005038,5.3178121 C16.2288874,6.13029922 15.9402324,6.91682928 15.4986497,7.60078206 C15.1999872,8.07301283 14.819388,8.4845729 14.4710005,8.91958813 C14.2120554,9.24295676 13.9371608,9.55412869 13.6879105,9.88469023 C13.7601525,10.0679533 13.8583515,10.2405834 13.9130802,10.4310393 C14.1423154,11.1278143 14.129806,11.8905764 13.9218368,12.5907915 C13.73701,13.2262702 13.4421004,13.8361047 13.0292894,14.3552458 C12.959862,13.8307882 12.9163918,13.2744315 12.6186675,12.8197139 C12.4097601,12.4929052 12.1970999,12.1645328 11.9397185,11.873376 C11.7567682,12.0388131 11.5606829,12.2264545 11.3017378,12.2480332 C11.0681243,12.2583535 10.8807957,12.0954183 10.678143,12.0056631 C10.5846351,12.1126187 10.5108295,12.2345856 10.422638,12.3456068 C10.0814435,12.7831239 9.68208011,13.1809236 9.21735499,13.4870917 C8.92369625,13.6778605 8.60064036,13.8361047 8.25194016,13.8917716 C7.98924224,13.9333655 7.70027454,13.8989645 7.48417423,13.7329019 C7.25963006,13.5649629 7.14610703,13.2881919 7.10920423,13.0170501 C7.05416276,12.6076792 7.12984478,12.1920536 7.25087346,11.8008213 C7.42788182,11.2450901 7.70590378,10.7237599 8.04960021,10.2537183 C8.07743368,10.2155645 8.10057612,10.1742834 8.12528223,10.1339405 C7.96891443,9.96381234 7.76375987,9.82808508 7.6674373,9.61073384 C7.59331896,9.38806608 7.68338681,9.15883088 7.75813062,8.94961075 C7.41912522,8.81450897 7.06166842,8.72319017 6.69920785,8.67815624 C6.16317901,8.61373271 5.62715017,8.71537178 5.1048817,8.82701839 C5.19588776,8.65782843 5.31535277,8.50677713 5.43294136,8.35603856 C5.84137406,7.84502857 6.33549633,7.38906005 6.92562843,7.09696499 C7.45727897,6.83895811 8.04209456,6.70760916 8.62753562,6.64850213 C8.79516191,6.62942525 8.96435188,6.63442902 9.13166543,6.61347574 C9.15230598,6.5815767 9.17607389,6.55217956 9.19515076,6.51934232 C9.50538448,5.97674603 9.82030925,5.43696437 10.1392996,4.89937185 C10.4007465,4.45747643 10.7162968,4.04685458 11.0865757,3.69033598 C11.7899181,3.0204563 12.6530684,2.50913358 13.5944026,2.25863235 C14.1385626,2.10633011 14.7021121,2.0369028 15.2650362,2 Z M8.02895966,11.5187338 C7.95046303,11.8233383 7.91700032,12.1589036 8.04021815,12.4566279 C8.12309308,12.6633461 8.31261086,12.8234668 8.53340221,12.8619332 C8.84989064,12.9191639 9.16794276,12.8015753 9.43908454,12.6455202 C9.80217058,12.4300454 10.1152189,12.1313829 10.3582145,11.787061 C9.76214042,11.3414127 9.16700455,10.8920116 8.55435549,10.4691931 C8.31417454,10.780365 8.13372609,11.1396982 8.02895966,11.5187338 Z M12.8760489,4.38420248 C12.4973261,4.44174583 12.1467495,4.65534425 11.9197034,4.96338883 C11.6792097,5.28394283 11.580698,5.70488497 11.6520017,6.09893184 C11.7211163,6.51017916 11.9772468,6.88389822 12.3328271,7.10093673 C12.6699561,7.31046959 13.0937129,7.37270398 13.4777522,7.27169038 C13.8630425,7.17317866 14.2017352,6.91016801 14.3943803,6.56271875 C14.5848363,6.22558976 14.6320594,5.81246602 14.526042,5.44031064 C14.4234647,5.07222082 14.1701489,4.74979041 13.8383364,4.5608981 C13.5499941,4.39421002 13.2044213,4.33322657 12.8760489,4.38420248 Z" id="Sign"></path>
        </g>
    </g>
</svg>