<?xml version="1.0" encoding="UTF-8"?>
<svg width="20px" height="20px" viewBox="0 0 20 20" version="1.1" xmlns="http://www.w3.org/2000/svg" xmlns:xlink="http://www.w3.org/1999/xlink">
    <!-- Generator: sketchtool 49.3 (51167) - http://www.bohemiancoding.com/sketch -->
    <title>06F756CB-1009-4D63-94EA-82F0BA9BAB4A</title>
    <desc>Created with sketchtool.</desc>
    <defs></defs>
    <g id="Coins" stroke="none" stroke-width="1" fill="none" fill-rule="evenodd">
        <g id="Coins/Storj-STORJ" fill="#0099F7">
            <path d="M6.75689997,11.4168262 C6.74433142,11.427719 6.73587621,11.4368597 6.72536434,11.4427251 C6.03637917,11.8408815 5.34792722,12.2397236 4.65642834,12.6331574 C4.61818948,12.6548667 4.54392076,12.6503725 4.50507251,12.6269112 C4.32233338,12.5166126 4.12771126,12.4433341 3.91473144,12.4376212 C3.2061698,12.419492 2.7752589,12.9982547 2.75103588,13.501073 C2.7230042,14.090043 3.16861649,14.6933334 3.88928964,14.6879252 C4.52129737,14.6832024 5.00225396,14.1764232 4.99600777,13.5441108 C4.99501752,13.4311461 5.02822896,13.367237 5.12733009,13.3109451 C5.86163821,12.8928313 6.59297559,12.46969 7.32362741,12.0454823 C7.39423982,12.0042727 7.45106491,11.9974933 7.5279235,12.0337517 C7.98359064,12.2479503 8.45479708,12.2842086 8.94055257,12.1468687 C8.98884627,12.1333099 9.05298398,12.147021 9.10127768,12.1676639 C9.24410214,12.22845 9.38052806,12.3056894 9.52426659,12.3634286 C9.60622878,12.3966401 9.63387959,12.4413536 9.63372725,12.5284194 C9.63121354,13.6736811 9.63144206,14.8186381 9.63349873,15.9638236 C9.6335749,16.0446432 9.6081331,16.0906517 9.53447377,16.1259198 C9.14858114,16.3119344 8.8573716,16.7919007 8.93682009,17.3052309 C9.02898947,17.9015896 9.64164924,18.3519246 10.2329044,18.236294 C10.7537757,18.134603 11.095945,17.778951 11.1692234,17.2318762 C11.2188121,16.8608373 11.0403386,16.3710447 10.5631907,16.1257675 C10.4984436,16.0927084 10.4627185,16.0565262 10.462947,15.9770015 C10.4653083,14.8646466 10.4655369,13.7522917 10.462947,12.6401653 C10.462947,12.5412927 10.5083461,12.5210306 10.5949549,12.5057199 C10.823474,12.4656528 11.0525263,12.4213963 11.2758657,12.3587059 C11.3769473,12.3303695 11.4567767,12.3263323 11.5547352,12.3685322 C12.0444517,12.5791507 12.5212187,12.5431208 12.9773429,12.2678314 C13.0424709,12.2288308 13.0891649,12.2270789 13.1545214,12.2652416 C13.7570502,12.6160946 14.3605692,12.9655003 14.9668304,13.3096501 C15.0649413,13.3651803 15.1027993,13.4265758 15.0999047,13.5414447 C15.0823849,14.2070447 15.6627473,14.7507679 16.3393925,14.678632 C17.0036976,14.6080196 17.4743708,13.9686231 17.3202727,13.3220663 C17.1355531,12.5472342 16.2962785,12.1975999 15.6183385,12.6163993 C15.5468881,12.6604273 15.4952428,12.6724626 15.4189936,12.6278252 C14.8453344,12.2926639 14.2703041,11.9597877 13.6929125,11.631101 C13.6075225,11.5825788 13.5961727,11.5374843 13.6233665,11.4460005 C13.7974981,10.8593157 13.6791252,10.337378 13.2590308,9.88788092 C13.1769163,9.79997723 12.791633,9.18472757 12.737931,9.07130591 C12.6954265,8.98157407 12.7134795,8.93366123 12.7989457,8.88460579 C13.6744024,8.38323483 14.5485643,7.87935015 15.4212026,7.37310412 C15.4915103,7.33250389 15.5391947,7.33181833 15.6082074,7.37813154 C15.8541702,7.54319852 16.1299166,7.59545323 16.4192218,7.54479815 C16.9823691,7.44607789 17.3905043,6.93648024 17.3403062,6.33494173 C17.2856902,5.68236728 16.6456081,5.19455512 16.0062878,5.33608463 C15.4452733,5.46032286 15.0928206,5.89877489 15.0992953,6.4751763 C15.1002094,6.57336335 15.0729395,6.62935054 14.9853405,6.6794724 C14.0988386,7.18670868 13.2145458,7.69737276 12.3318526,8.21108375 C12.2522517,8.25732079 12.2087569,8.24772298 12.1446954,8.18602282 C11.7287906,7.78535262 11.2283337,7.56033745 10.6574168,7.48896331 C10.464699,7.46474029 10.4646228,7.46573054 10.4646228,7.26684272 C10.4645466,6.22433847 10.4671365,5.18183422 10.4614997,4.13940614 C10.460738,3.99391563 10.4947111,3.90959208 10.6310609,3.83128619 C11.1198633,3.55043618 11.3056493,2.94585075 11.0820053,2.4303116 C10.8564569,1.91027825 10.280284,1.63247516 9.73991247,1.79708511 C9.24806314,1.94691748 8.97391636,2.29434272 8.92569882,2.79997938 C8.88860255,3.1901377 9.07316983,3.6235623 9.51847743,3.86693517 C9.58688083,3.90425996 9.63456515,3.93709055 9.63426046,4.03093573 C9.63060415,5.18031076 9.63083267,6.32945727 9.63372725,7.4788323 C9.63387959,7.56993526 9.59236529,7.60078534 9.51809657,7.63841482 C9.29574746,7.75046537 9.05717349,7.84850007 8.8684167,8.00465481 C8.65063797,8.18434701 8.4471036,8.28824704 8.14393489,8.28824704 C8.11437975,8.28733297 8.09533649,8.29015137 8.06456258,8.28954198 C7.98945597,8.28794235 7.90505623,8.28481926 7.84358459,8.24970348 C6.94938925,7.73972497 6.05984047,7.22136742 5.16450253,6.71306471 C5.036608,6.64054797 4.97490783,6.5627753 4.99623628,6.41545664 C5.00476767,6.35672722 4.98663848,6.29380829 4.97704068,6.23332689 C4.8896702,5.68267197 4.35112679,5.22205359 3.70106605,5.32884819 C3.06334535,5.43381464 2.65840946,6.01090161 2.7636806,6.62858881 C2.8978975,7.41743683 3.79811051,7.81673591 4.47726935,7.38521563 C4.55389943,7.33654106 4.60691587,7.33273241 4.68545027,7.3785124 C5.35851527,7.77110826 6.03439867,8.15905756 6.709368,8.54853033 C6.82507485,8.61533408 6.94032466,8.68259488 7.05526978,8.74932247 C6.27990439,9.5709249 6.1928386,10.4533896 6.75689997,11.4168262 M17.5954098,6.43259557 C17.5817748,6.96519748 17.3505896,7.3621352 16.9044441,7.62965492 C16.822101,7.67886271 16.7935361,7.72898457 16.7937647,7.82282976 C16.7965831,9.27575436 16.7963545,10.7287551 16.7941455,12.181375 C16.7939932,12.2686693 16.8162357,12.3213049 16.8962936,12.3673896 C17.4124421,12.6656832 17.6736395,13.2158811 17.5809369,13.794263 C17.4920429,14.3484981 17.0490205,14.8037844 16.4751328,14.912788 C16.142409,14.9762401 15.8201208,14.9257374 15.5285304,14.7468069 C15.4396365,14.6924194 15.3770223,14.7020172 15.2936889,14.7500062 C14.0446796,15.4734977 12.7942991,16.195085 11.5424713,16.91393 C11.4568528,16.9632139 11.424784,17.0172968 11.4250125,17.1172358 C11.4263074,17.8162758 10.8867738,18.4245937 10.2127947,18.4923877 C9.49493996,18.5648283 8.86026618,18.1137315 8.70517787,17.4171291 C8.68141188,17.3100298 8.67341371,17.1980554 8.67097617,17.0884424 C8.66914802,17.0141737 8.6485813,16.9686984 8.58253927,16.9304595 C7.31342022,16.2004171 6.04536759,15.4686227 4.77784817,14.7357618 C4.70921626,14.695771 4.65528575,14.6954663 4.58604445,14.7373615 C3.75781497,15.235914 2.70220896,14.7580044 2.52655392,13.8266366 C2.41572215,13.238276 2.65521019,12.6881543 3.18179443,12.3782824 C3.26497539,12.3291507 3.30260487,12.2797144 3.30245253,12.1780234 C3.29864387,10.7249465 3.29925326,9.27217422 3.30153845,7.8193258 C3.30161462,7.73203149 3.27891506,7.68038617 3.19900953,7.63399679 C2.67036862,7.32694325 2.42166364,6.79342727 2.52320231,6.19440247 C2.62405541,5.59933866 3.08421676,5.16279096 3.68308922,5.07747716 C4.00408241,5.0318495 4.31364966,5.0903504 4.59137657,5.26768124 C4.65589513,5.30896703 4.70380798,5.30767209 4.76946914,5.26981409 C6.03325608,4.53847671 7.29803326,3.80919601 8.5638007,3.08159111 C8.64035461,3.03756309 8.67021444,2.98706037 8.67044296,2.89687149 C8.67249963,2.09667368 9.30481205,1.48409008 10.1060001,1.50031494 C10.7304667,1.51280731 11.3147901,2.02827029 11.4033794,2.6445102 C11.4114537,2.70118294 11.4241746,2.73607019 11.4241746,2.81407139 C11.4241746,2.98492752 11.4870935,3.05736808 11.6200917,3.13338878 C12.8483058,3.83616126 14.0730921,4.54441821 15.2970406,5.25389392 C15.3811356,5.30279701 15.4422264,5.30477751 15.5298254,5.25511269 C16.361178,4.7809355 17.3691758,5.23538387 17.5715676,6.1736834 C17.5906109,6.26097771 17.5887827,6.3528424 17.5954098,6.43259557 Z M8.62169221,8.76196719 C7.65345668,8.71877708 6.89911504,9.6330821 7.13974568,10.5787704 C7.34975476,11.4034198 8.20990075,11.872798 9.03691146,11.6026123 C9.13448913,11.5706196 9.20990044,11.5750376 9.30001315,11.6319389 C9.88692644,12.0009973 10.5043851,12.0465488 11.1419535,11.7784196 C11.2413593,11.7368292 11.3174562,11.7303545 11.4136627,11.7896933 C11.6283183,11.9217773 11.8703963,11.9497328 12.1144547,11.9108084 C12.572407,11.8382155 12.8962948,11.4957415 12.9915873,11.0017593 C13.0650181,10.6202847 12.851048,10.1623324 12.4793236,9.95064751 C12.3493724,9.87653114 12.2920902,9.78900831 12.2634492,9.6435178 C12.1170446,8.90037361 11.6750124,8.39382288 10.9621851,8.15707706 C10.2371701,7.91629408 9.57682598,8.07732389 9.01710647,8.59750959 C8.88745995,8.71801535 8.7991754,8.77765884 8.62169221,8.76196719 Z M15.9069581,13.5652107 C15.9070343,13.7459693 16.0466595,13.887575 16.2245235,13.887575 C16.3906569,13.8872703 16.5502394,13.7278401 16.5483351,13.5630017 C16.5465831,13.3917647 16.3972078,13.2471121 16.2219336,13.246198 C16.0398801,13.2458171 15.9069581,13.3801864 15.9069581,13.5652107 Z M9.72757243,2.87668563 C9.72703922,3.04723707 9.8768716,3.19790735 10.0490988,3.19958315 C10.2185077,3.201716 10.3691018,3.04921757 10.3686448,2.8767618 C10.3679592,2.69691725 10.2293243,2.55896787 10.0484895,2.55912022 C9.86795935,2.55927256 9.72825799,2.69752663 9.72757243,2.87668563 Z M4.18903056,13.5665056 C4.18971612,13.3814051 4.05747972,13.2463503 3.87565466,13.246198 C3.70015198,13.246198 3.54719651,13.3935167 3.54803441,13.5617067 C3.54879614,13.7300492 3.70335124,13.8859754 3.87055107,13.887575 C4.04750105,13.8890223 4.188345,13.7471119 4.18903056,13.5665056 Z M10.0519934,16.8112487 C9.8709301,16.8098776 9.72962911,16.94478 9.72757243,17.1218062 C9.72559193,17.2998226 9.86422687,17.4380005 10.0455187,17.4389146 C10.228334,17.4400572 10.367426,17.3060688 10.3685686,17.1282047 C10.3694065,16.9496551 10.2323712,16.8124675 10.0519934,16.8112487 Z M3.8792348,6.75252235 C4.06425912,6.75084654 4.19184896,6.61944804 4.18903056,6.43305261 C4.1863645,6.24757125 4.05565156,6.12219042 3.86750415,6.12500883 C3.68727873,6.12759871 3.5427023,6.27209897 3.54811058,6.44425005 C3.55351887,6.62089533 3.6964195,6.75412198 3.8792348,6.75252235 Z M16.2179726,6.75297938 C16.3995692,6.75427433 16.54346,6.61937187 16.5477257,6.44402153 C16.5519914,6.27095638 16.4084052,6.12775106 16.2280275,6.12523735 C16.0398801,6.12279981 15.9087863,6.24863767 15.9069581,6.43366199 C15.90513,6.62005743 16.0331768,6.75168444 16.2179726,6.75297938 Z" id="Sign"></path>
        </g>
    </g>
</svg>