<?xml version="1.0" encoding="UTF-8"?>
<svg width="20px" height="20px" viewBox="0 0 20 20" version="1.1" xmlns="http://www.w3.org/2000/svg" xmlns:xlink="http://www.w3.org/1999/xlink">
    <!-- Generator: sketchtool 49.3 (51167) - http://www.bohemiancoding.com/sketch -->
    <title>CBDB7BE7-E374-4C11-82D4-B9B34514937C</title>
    <desc>Created with sketchtool.</desc>
    <defs></defs>
    <g id="Coins" stroke="none" stroke-width="1" fill="none" fill-rule="evenodd">
        <g id="Coins/Stox-STX" fill="#0099F7">
            <path d="M18.7106109,11.5749598 L19,11.5749598 L19,12.4937701 L18.7106109,12.4937701 C17.7652492,12.4937701 16.9312299,11.9599196 16.5090113,11.1719132 C16.0844775,11.9598473 15.2518328,12.4937701 14.3118971,12.4937701 L14.022508,12.4937701 L14.022508,11.5749598 L14.3118971,11.5749598 C15.1815836,11.5749598 15.8890675,10.8674759 15.8890675,9.99778939 C15.8890675,9.12817524 15.1815836,8.42061897 14.3118971,8.42061897 L14.022508,8.42061897 L14.022508,7.5 L14.3137781,7.50180868 C15.2545096,7.50774116 16.0844051,8.04159164 16.5055386,8.82511254 C16.9299277,8.03631029 17.7629341,7.50180868 18.7033762,7.50180868 L18.9927653,7.50180868 L18.9927653,8.42061897 L18.7033762,8.42061897 C17.8377412,8.42061897 17.1334405,9.12817524 17.1334405,9.99778939 C17.1334405,10.8674759 17.8409244,11.5749598 18.7106109,11.5749598 Z M11.3239839,7.50180868 C12.700246,7.50180868 13.8199646,8.62152733 13.8199646,9.99778939 C13.8199646,11.3741238 12.700246,12.4937701 11.3239839,12.4937701 C9.94772186,12.4937701 8.82800322,11.3741238 8.82800322,9.99778939 C8.82800322,8.62152733 9.94772186,7.50180868 11.3239839,7.50180868 Z M11.3239839,11.5749598 C12.1936704,11.5749598 12.9011543,10.8674759 12.9011543,9.99778939 C12.9011543,9.12817524 12.1936704,8.42061897 11.3239839,8.42061897 C10.4542974,8.42061897 9.7468135,9.12817524 9.7468135,9.99778939 C9.7468135,10.8674759 10.4542974,11.5749598 11.3239839,11.5749598 Z M7.19185531,9.70841479 L7.20017524,12.4940016 L6.91078617,12.4940016 L6.57798875,12.4940016 L6.28859968,12.4940016 L6.28859968,9.70841479 L7.19185531,9.70841479 Z M2.86655949,9.99780386 C2.86655949,8.6215418 3.98627814,7.50182315 5.36254019,7.50182315 L8.48794212,7.50182315 L8.48794212,8.42063344 L5.36254019,8.42063344 C4.4928537,8.42063344 3.78536977,9.12811736 3.78536977,9.99780386 C3.78536977,11.3740659 2.66572347,12.4937846 1.28938907,12.4937846 L1,12.4937846 L1,11.5749743 L1.28938907,11.5749743 C2.15907556,11.5749743 2.86655949,10.8674904 2.86655949,9.99780386 Z" id="Sign"></path>
        </g>
    </g>
</svg>