<?xml version="1.0" encoding="UTF-8"?>
<svg width="20px" height="20px" viewBox="0 0 20 20" version="1.1" xmlns="http://www.w3.org/2000/svg" xmlns:xlink="http://www.w3.org/1999/xlink">
    <!-- Generator: sketchtool 49.3 (51167) - http://www.bohemiancoding.com/sketch -->
    <title>4A34388D-4D2B-4D9B-AC6A-B1F9DA0F3EC6</title>
    <desc>Created with sketchtool.</desc>
    <defs></defs>
    <g id="Coins" stroke="none" stroke-width="1" fill="none" fill-rule="evenodd">
        <g id="Coins/Stratis-STRAT" fill="#0099F7">
            <path d="M9.95783594,3.05655853 C11.5928687,3.96433198 16.2786154,6.56518218 17.6884591,7.34513174 C16.3176643,8.10514852 11.3824704,10.8421708 10.0422554,11.5854005 C9.98657061,11.6161919 9.9400507,11.6222111 9.89561783,11.5972875 C9.61743602,11.4411827 3.93142041,8.25242124 2.31166243,7.34437557 C3.79186067,6.51421596 8.77511711,3.71969411 9.95783594,3.05655853 M18.6476828,9.82638523 C18.391793,9.6731841 18.0468863,9.68507117 17.7251185,9.8576909 C17.671914,9.88624408 10.325065,13.9771228 10.0382628,14.1516481 C9.98533048,14.1838007 9.95886434,14.200134 9.84776705,14.1394585 C9.72726294,14.073762 2.36190273,9.95865544 2.20313614,9.8713323 C2.13299331,9.83261612 2.03971151,9.76365292 2.03971151,9.61184315 L2.03971151,8.38387478 C3.91045922,9.43287155 9.12102199,12.3550056 9.38689326,12.5040629 C9.55993644,12.6012163 9.75533217,12.6526059 9.95193778,12.6526059 C10.1548348,12.6526059 10.3602725,12.5979193 10.5464731,12.494777 C12.0841105,11.6418414 18.3541052,8.16476539 18.5435725,8.0597175 C18.8275315,7.90231203 19.00245,7.61889749 18.9999698,7.32008721 C18.9976407,7.03915292 18.8402655,6.78813294 18.5788103,6.64869419 C18.4268493,6.56763219 14.2696691,4.26120645 10.4299314,2.12963871 C10.2750062,2.04376743 10.1129729,2 9.94836863,2 C9.79637737,2 9.64629167,2.03910939 9.51441468,2.11321458 C8.2962161,2.79628295 1.55566851,6.5761316 1.38976362,6.66932266 C1.14542822,6.80634164 0.999667851,7.0576036 1.00000057,7.34153235 C1.00000057,7.34256075 1.00018205,7.34343791 1.00018205,7.34437557 L1.00000057,7.34437557 L1.00000057,9.6118129 C1.00000057,10.1102837 1.25592057,10.5368272 1.70215481,10.7821607 C1.8578362,10.8679715 9.22489024,14.983925 9.35014314,15.0521925 C9.8766832,15.3392972 10.3087316,15.2041535 10.5781418,15.0401844 C10.7490374,14.9371933 16.6157487,11.6596871 17.9602588,10.9150963 L17.9602588,12.0541082 C17.9602588,12.0680219 17.9602588,12.110156 17.7594186,12.2366792 C17.4990523,12.3977748 10.4431796,16.3657297 10.1094642,16.5465766 C9.96675881,16.6239787 9.94906431,16.6136342 9.89044559,16.5799693 C9.63667312,16.4341787 1.92876545,12.104651 1.60073656,11.9203257 L1.09155829,12.8269195 C1.17183387,12.8721388 9.12310903,17.3383225 9.37258642,17.4815724 C9.58295442,17.6024394 9.77910632,17.6467816 9.9567168,17.6467816 C10.2174763,17.6467816 10.4380376,17.5510195 10.6046986,17.4607624 C10.6627427,17.4293055 18.0231726,13.2995896 18.3131508,13.1166557 C18.5009847,12.9983898 19,12.6837301 19,12.0541385 L19,10.4837436 C18.9999698,10.2000266 18.8716317,9.96034927 18.6476828,9.82638523" id="Sign"></path>
        </g>
    </g>
</svg>