<?xml version="1.0" encoding="UTF-8"?>
<svg width="20px" height="20px" viewBox="0 0 20 20" version="1.1" xmlns="http://www.w3.org/2000/svg" xmlns:xlink="http://www.w3.org/1999/xlink">
    <!-- Generator: sketchtool 49.3 (51167) - http://www.bohemiancoding.com/sketch -->
    <title>0C17D22E-D61A-4E88-8AD6-BA255576A712</title>
    <desc>Created with sketchtool.</desc>
    <defs></defs>
    <g id="Coins" stroke="none" stroke-width="1" fill="none" fill-rule="evenodd">
        <g id="Coins/Swarm-City-SWT" fill="#0099F7">
            <path d="M14.0777777,12.6579121 L14.077902,12.6579121 C12.0334509,12.6579121 10.0409217,11.7667953 8.31147933,10.4037865 C10.3035117,8.67384731 12.2955441,6.73423355 14.6020883,6.73423355 C19.2151767,6.73386091 19.320014,12.7100823 14.0777777,12.6579121 M14.7069256,6 C20.4209296,6 20.6306041,13.2342687 14.1301964,13.2342687 C11.6142261,13.2342687 9.62194524,12.0810587 8.04926194,10.6656313 C6.58154012,11.9236785 5.16611273,12.9721755 3.59342943,12.9721755 C0.290806914,12.9721755 0.133551006,8.62093181 3.1729624,7.88719512 C3.27779968,7.83477648 3.27779968,7.99203239 3.1729624,7.99203239 C0.866418195,8.7258933 0.866418195,12.3954463 3.53989286,12.3954463 C4.85085562,12.3954463 6.5283762,11.137399 7.57687314,10.1413207 C6.94847057,9.56471569 6.37198979,8.88314921 5.89997364,8.30654421 C5.847555,8.25412557 5.847555,8.20170694 5.89997364,8.1492883 C5.95239227,8.1492883 6.00481091,8.1492883 6.05722954,8.20170694 C6.58141591,8.77843615 7.21056376,9.40745978 7.78716875,9.93164615 C9.77920115,8.14891566 12.0334509,6 14.7069256,6 Z M4.58938351,8.20170569 C4.21303758,8.20170569 3.90794124,7.89660936 3.90794124,7.52026342 C3.90794124,7.14391749 4.21303758,6.83882115 4.58938351,6.83882115 C4.96572945,6.83882115 5.27082579,7.14391749 5.27082579,7.52026342 C5.27082579,7.89660936 4.96572945,8.20170569 4.58938351,8.20170569 Z" id="Sign"></path>
        </g>
    </g>
</svg>