<?xml version="1.0" encoding="UTF-8"?>
<svg width="20px" height="20px" viewBox="0 0 20 20" version="1.1" xmlns="http://www.w3.org/2000/svg" xmlns:xlink="http://www.w3.org/1999/xlink">
    <!-- Generator: sketchtool 49.3 (51167) - http://www.bohemiancoding.com/sketch -->
    <title>1B1DC4F3-BF3F-47CF-920E-D64C22439FF8</title>
    <desc>Created with sketchtool.</desc>
    <defs></defs>
    <g id="Coins" stroke="none" stroke-width="1" fill="none" fill-rule="evenodd">
        <g id="Coins/Synereo-AMP" fill="#0099F7">
            <path d="M13.1247966,11.7327683 C11.7615543,11.7327683 10.6563981,12.8379245 10.6563981,14.2012373 C10.6563981,15.1665557 9.87388492,15.9489278 8.90863712,15.9489278 C7.94338932,15.9489278 7.16094666,15.1664851 7.16094666,14.2012373 C7.16094666,13.2359895 7.94338932,12.4535469 8.90863712,12.4535469 C10.2718794,12.4535469 11.3771767,11.3483907 11.3771767,9.98507785 C11.3771767,8.62176499 10.2718794,7.51660883 8.90863712,7.51660883 L8.90962487,7.51569163 C8.90320447,7.51576218 8.89692517,7.51660883 8.89057532,7.51660883 C7.92525697,7.51660883 7.14281431,6.73409561 7.14281431,5.76884781 C7.14281431,4.80367057 7.92525697,4.02108679 8.89057532,4.02108679 C9.85575257,4.02108679 10.6382658,4.80367057 10.6382658,5.76884781 L10.6384069,5.76884781 C10.6384069,7.13223122 11.7434925,8.23738739 13.1068054,8.23738739 L13.1058176,8.23837514 C13.1121675,8.23823404 13.1184468,8.23738739 13.1247966,8.23738739 C14.090115,8.23738739 14.8725576,9.01983005 14.8725576,9.98507785 C14.8726282,10.9503257 14.090115,11.7327683 13.1247966,11.7327683 M5.98975205,9.98507785 C5.98975205,9.01983005 6.77219471,8.23738739 7.73751306,8.23738739 C8.70269031,8.23738739 9.48520353,9.01983005 9.48520353,9.98507785 C9.48520353,10.9503962 8.70269031,11.7327683 7.73751306,11.7327683 C6.77219471,11.7327683 5.98975205,10.9503257 5.98975205,9.98507785 M9.99996472,2 C5.58166833,2 2,5.58159778 2,10.0000353 C2,14.4184022 5.58173889,18 10.0000353,18 C14.4182611,18 18,14.4183317 18,10.0000353 C17.9999294,5.58159778 14.4181906,2 9.99996472,2" id="Sign"></path>
        </g>
    </g>
</svg>