<?xml version="1.0" encoding="UTF-8"?>
<svg width="20px" height="20px" viewBox="0 0 20 20" version="1.1" xmlns="http://www.w3.org/2000/svg" xmlns:xlink="http://www.w3.org/1999/xlink">
    <!-- Generator: sketchtool 49.3 (51167) - http://www.bohemiancoding.com/sketch -->
    <title>A77E3E67-462C-4BE3-AF64-DE39D10FED08</title>
    <desc>Created with sketchtool.</desc>
    <defs></defs>
    <g id="Coins" stroke="none" stroke-width="1" fill="none" fill-rule="evenodd">
        <g id="Coins/Syscoin-SYS" fill="#0099F7">
            <path d="M11.53441,9.38645506 C11.502073,9.38003806 11.468917,9.39269206 11.44909,9.41903506 C11.42029,9.45738406 11.42803,9.51181606 11.46637,9.54062506 C14.75011,12.0234551 10.07578,17.7083951 1,11.6587751 C8.695,19.2023951 19.41004,10.8695651 11.53441,9.38645506 Z M7.15123,6.06815506 C0.33688,8.33867506 8.14357,13.6952951 8.821,10.9893551 C8.832817,10.9424021 8.804341,10.8947651 8.757388,10.8829481 C8.741881,10.8790421 8.725591,10.8794561 8.7103,10.8841451 C7.70815,11.2233551 2.18467,9.61505506 7.15123,6.06815506 Z M19,7.43264416 C13.10005,3.04964416 2.0287,6.66413416 7.73992,9.75833416 C7.782382,9.78096016 7.835149,9.76487716 7.857775,9.72241516 L7.85782,9.72233416 C7.870474,9.69839416 7.871473,9.66997216 7.86052,9.64520416 C5.53744,4.53338416 17.335,6.08813416 19,7.43264416 Z M14.104,13.8014051 C17.22268,12.3236951 14.68639,7.26830506 10.56079,8.24435506 C10.513981,8.25439906 10.467829,8.22483406 10.45738,8.17811506 C10.450342,8.14631806 10.461961,8.11327906 10.48735,8.09288506 C13.69792,5.57927506 19.72297,11.4455651 14.104,13.8014051 Z" id="Sign"></path>
        </g>
    </g>
</svg>