<?xml version="1.0" encoding="UTF-8"?>
<svg width="20px" height="20px" viewBox="0 0 20 20" version="1.1" xmlns="http://www.w3.org/2000/svg" xmlns:xlink="http://www.w3.org/1999/xlink">
    <!-- Generator: sketchtool 49.3 (51167) - http://www.bohemiancoding.com/sketch -->
    <title>7E2095F8-ED0B-4708-A829-A1F29647642B</title>
    <desc>Created with sketchtool.</desc>
    <defs></defs>
    <g id="Coins" stroke="none" stroke-width="1" fill="none" fill-rule="evenodd">
        <g id="Coins/TenX-PAY" fill="#0099F7">
            <path d="M15.7498648,10.3042436 L15.7498648,10.3043236 C15.7036248,10.3996037 15.5633047,10.5577638 15.5633047,10.5577638 L13.5921033,12.6624852 L11.0481016,10.0033634 L13.5527433,7.30576156 C13.5527433,7.30576156 14.9957043,8.77464256 15.6567447,9.56384309 C15.7127448,9.63320314 15.7787448,9.69832319 15.8071448,9.78488324 C15.8679449,9.95568336 15.8296248,10.1462435 15.7498648,10.3042436 Z M6.42609846,12.6896852 C6.42609846,12.6896852 4.87033741,11.0572041 4.1220169,10.2139235 C4.00609682,10.0790434 4.04497685,9.8664033 4.15321692,9.73896321 C4.60857723,9.22944287 6.43065847,7.30832157 6.43065847,7.30832157 L8.96842019,9.95704336 L6.42609846,12.6896852 Z M17.9346663,9.78568324 C17.8980262,9.70392319 17.8386662,9.63568314 17.7782662,9.5708031 C16.3950652,8.03248206 13.5799433,5 13.5799433,5 L10.0039409,8.84352261 L6.38145843,5.03632002 C6.38145843,5.03632002 3.5334565,8.0947221 2.13857556,9.65064315 C1.95705543,9.82664327 1.95705543,10.1434435 2.11985554,10.3312836 C2.84489604,11.1429642 6.40657845,15.0028868 6.40657845,15.0028868 L9.99946089,11.1331242 L13.5666633,15.0063268 L17.8701062,10.3276836 C17.8701062,10.3276836 17.9609063,10.2350435 17.9801063,10.1725635 C18.0225063,10.0443234 17.9923463,9.90384332 17.9346663,9.78568324 Z" id="Sign"></path>
        </g>
    </g>
</svg>