<?xml version="1.0" encoding="UTF-8"?>
<svg width="20px" height="20px" viewBox="0 0 20 20" version="1.1" xmlns="http://www.w3.org/2000/svg" xmlns:xlink="http://www.w3.org/1999/xlink">
    <!-- Generator: sketchtool 49.3 (51167) - http://www.bohemiancoding.com/sketch -->
    <title>940E0362-6F44-4D2B-9E9C-C77AFE15483A</title>
    <desc>Created with sketchtool.</desc>
    <defs></defs>
    <g id="Coins" stroke="none" stroke-width="1" fill="none" fill-rule="evenodd">
        <g id="Coins/Tether-USD-USDT" fill="#0099F7">
            <path d="M10,2 C14.41808,2 18,5.58192 18,10 C18,14.41808 14.41792,18 10,18 C5.58208,18 2,14.41904 2,10 C2,5.58096 5.58144,2 10,2 Z M10.988,11.0624 C13.196,10.96048 14.85584,10.52272 14.85584,9.9984 C14.85584,9.47408 13.196,9.03632 10.988,8.9344 L10.98736,8.93408 L10.98736,7.744 L13.7088,7.744 L13.7088,5.93072 L6.29824,5.93072 L6.29824,7.744 L9.02,7.744 L9.02,8.93312 C6.808,9.03472 5.1448,9.4728 5.1448,9.9976 C5.1448,10.5224 6.8088,10.96048 9.02,11.06272 L9.02,14.87472 L10.988,14.87472 L10.988,11.0624 Z M10.98832,9.072 C12.93872,9.15888 14.39408,9.49952 14.39408,9.90528 C14.39408,10.31104 12.93808,10.65184 10.98832,10.73872 L10.988,10.73952 L10.988,10.73856 C10.93248,10.74208 10.6472,10.7592 10.012,10.7592 C9.50416,10.7592 9.14688,10.7448 9.02096,10.73824 L9.02096,10.73984 C7.06672,10.65328 5.608,10.31296 5.608,9.90576 C5.608,9.49856 7.06688,9.15872 9.02096,9.072 L9.02096,10.4008 C9.14896,10.4096 9.51504,10.4312 10.02032,10.4312 C10.6272,10.4312 10.93232,10.40592 10.98832,10.4008 L10.98832,9.072 Z" id="Sign"></path>
        </g>
    </g>
</svg>