<?xml version="1.0" encoding="UTF-8"?>
<svg width="20px" height="20px" viewBox="0 0 20 20" version="1.1" xmlns="http://www.w3.org/2000/svg" xmlns:xlink="http://www.w3.org/1999/xlink">
    <!-- Generator: sketchtool 49.3 (51167) - http://www.bohemiancoding.com/sketch -->
    <title>024925D9-3CC4-46D8-897C-D00E456E04F8</title>
    <desc>Created with sketchtool.</desc>
    <defs></defs>
    <g id="Coins" stroke="none" stroke-width="1" fill="none" fill-rule="evenodd">
        <g id="Coins/TokenCard-TKN" fill="#0099F7">
            <path d="M5.43149443,9.62039274 C4.47542907,9.62039274 3.70000005,8.83939405 3.70000005,7.87706003 C3.70000005,6.91352908 4.47542907,6.13312886 5.43149443,6.13312886 C6.38755978,6.13312886 7.1629888,6.91352908 7.1629888,7.87706003 C7.1629888,8.83939405 6.38755978,9.62039274 5.43149443,9.62039274 Z M16.0138129,8.8207219 L11.8698727,8.8207219 L11.8698727,13.3050309 C11.8698727,14.3331962 12.5181432,14.9172994 13.4908461,14.9172994 C14.1854641,14.9172994 14.6721127,14.7539181 14.9959509,14.5665981 L15.8527851,17.2764541 C15.2276883,17.6504956 14.3708541,18 13.1664138,18 C10.2946525,18 8.46511536,16.3416495 8.46511536,13.3523097 L8.46511536,3.44290256 L11.8698727,2 L11.8698727,5.92414438 L16.0138129,5.92414438 L16.0138129,8.8207219 Z" id="Sign"></path>
        </g>
    </g>
</svg>