<?xml version="1.0" encoding="UTF-8"?>
<svg width="20px" height="20px" viewBox="0 0 20 20" version="1.1" xmlns="http://www.w3.org/2000/svg" xmlns:xlink="http://www.w3.org/1999/xlink">
    <!-- Generator: sketchtool 49.3 (51167) - http://www.bohemiancoding.com/sketch -->
    <title>47F2469F-1F6B-4714-81C8-82ED779AD47C</title>
    <desc>Created with sketchtool.</desc>
    <defs></defs>
    <g id="Coins" stroke="none" stroke-width="1" fill="none" fill-rule="evenodd">
        <g id="Coins/Tron-TRX" fill="#0099F7">
            <path d="M15.9658414,6.78088975 C15.7722631,6.89369439 15.5626692,6.9762089 15.3708317,7.09145068 C15.1480077,7.21922631 14.908472,7.31497099 14.6877369,7.4465764 C14.4830174,7.56425532 14.2619342,7.6516441 14.06,7.77454545 C13.8667698,7.88386847 13.6606576,7.96777563 13.4705609,8.08266925 C13.2390329,8.21218569 12.9921857,8.3131528 12.7644874,8.45032882 C12.5917988,8.54537718 12.4093617,8.62092843 12.2394584,8.72119923 C12.0375242,8.84166344 11.8171373,8.92800774 11.6138104,9.04638298 C11.398646,9.17415861 11.1657253,9.26781431 10.9488201,9.39245648 C10.7430561,9.51535783 10.5184913,9.60274662 10.3137718,9.72773694 C10.0832882,9.84471954 9.8559381,9.97075435 9.615706,10.0668472 C9.6017795,10.5058801 9.51334623,10.9376015 9.49001934,11.3755899 C9.46738878,11.7160928 9.39914894,12.0510251 9.38313346,12.3922244 C9.35736944,12.79853 9.27659574,13.199265 9.25953578,13.6066151 C9.24978723,13.7817408 9.21601547,13.9540812 9.20104449,14.1285106 C9.1470793,14.5059188 9.14533849,14.8902901 9.07814313,15.2656093 C9.04646035,15.5855706 9.02174081,15.9062282 8.9893617,16.2261896 C8.92982592,16.5694778 8.91903288,16.9207737 8.88352031,17.2678917 C8.85636364,17.3636364 8.85880077,17.4646035 8.83860735,17.5624371 C8.82955513,17.6567892 8.8205029,17.7511412 8.80692456,17.8454932 C9.26336557,17.1930368 9.7093617,16.5332689 10.1626692,15.8787234 C11.0097485,14.6336944 11.8777176,13.4032882 12.714352,12.1512959 C12.7331528,12.1331915 12.7519536,12.1154352 12.7711025,12.0976789 C12.896441,11.8755513 13.0586847,11.6774468 13.1958607,11.4629787 C14.3583752,9.78030948 15.5090522,8.09102515 16.6726112,6.40905222 C16.444913,6.54762089 16.1956286,6.64580271 15.9658414,6.78088975 M14.5805029,4.62263056 C14.475706,4.79914894 14.3005803,4.91508704 14.1780271,5.07698259 C14.0774081,5.20754352 13.9447582,5.30816248 13.8420503,5.43663443 C13.7219342,5.59087041 13.5638685,5.70994197 13.4434043,5.86348162 C13.3302515,6.00448743 13.183675,6.11485493 13.0729594,6.25829787 C12.9674662,6.39756286 12.8240232,6.50201161 12.7188781,6.6412766 C12.6126886,6.78054159 12.4702901,6.88673114 12.3627079,7.02495164 C12.2467698,7.1701354 12.0977563,7.28468085 11.98147,7.4298646 C11.8745841,7.56529981 11.7353191,7.6711412 11.6305222,7.80901354 C11.5177176,7.95176015 11.3697485,8.0617795 11.2590329,8.20626692 C11.1486654,8.35110251 11.0006963,8.46112186 10.888588,8.6045648 C10.7886654,8.7316441 10.6601934,8.83261122 10.5571373,8.95725338 C10.4394584,9.10487427 10.2963636,9.22916828 10.1644101,9.36355899 C10.2636364,9.31551257 10.3642553,9.27025145 10.4575629,9.21106383 C10.6588008,9.09547389 10.873617,9.00564797 11.0769439,8.89284333 C11.2583366,8.78038685 11.4588781,8.70274662 11.6427079,8.59411992 C11.8617021,8.46599613 12.0977563,8.37129594 12.3167505,8.24352031 C12.5381818,8.11365571 12.7777176,8.01791103 12.9994971,7.88909091 C13.1913346,7.77350097 13.4023211,7.69307544 13.5941586,7.57748549 C13.8096712,7.452147 14.04294,7.36058027 14.25706,7.23280464 C14.4635203,7.11338491 14.6859961,7.02460348 14.8907157,6.90239845 C15.0637524,6.8017795 15.249323,6.72553191 15.4234043,6.62700193 C15.6235977,6.50375242 15.8436364,6.41775629 16.0473114,6.30112186 C16.2213926,6.19841393 16.4045261,6.11276596 16.5873114,6.02746615 C15.9627079,5.60131528 15.349942,5.15845261 14.7256867,4.73160542 C14.6765957,4.69609284 14.6282012,4.65953578 14.5805029,4.62263056 M3.05911025,1.80181818 C3.31431335,2.10854932 3.5754352,2.41005803 3.82193424,2.72375242 C4.66692456,3.72332689 5.49415861,4.73787234 6.3367118,5.73953578 C7.3832882,7.00858801 8.44239845,8.26719536 9.48793037,9.53694391 C9.71632495,9.33152805 9.90154739,9.0860735 10.1212379,8.87230174 C10.2493617,8.69891683 10.4230948,8.56661509 10.5557447,8.39740812 C10.6594971,8.27276596 10.7883172,8.17179884 10.8889362,8.04437137 C11.0003482,7.90197292 11.1472727,7.79230174 11.2576402,7.6488588 C11.3742747,7.49740812 11.5309478,7.38286267 11.6468859,7.23071567 C11.7464603,7.10085106 11.8780658,7.00092843 11.979381,6.87245648 C12.0935783,6.72762089 12.2422437,6.61446809 12.3567892,6.4696325 C12.4622824,6.33628627 12.5991103,6.23183752 12.703559,6.09709865 C12.8139265,5.95400387 12.9615474,5.84537718 13.0708704,5.70123791 C13.1815861,5.55640232 13.3299033,5.44603482 13.4437524,5.30363636 C13.5440232,5.17307544 13.6749323,5.07106383 13.779381,4.94433269 C13.9075048,4.7855706 14.0627853,4.65222437 14.2023985,4.50425532 C13.9419729,4.4729207 13.6954739,4.37891683 13.4378337,4.33400387 C13.3904836,4.31659574 13.3424371,4.30058027 13.295087,4.28421663 C13.1927273,4.26471954 13.0900193,4.24487427 12.9869632,4.22851064 C12.9389168,4.21145068 12.8908704,4.19508704 12.8431721,4.17802708 C12.7519536,4.15992263 12.6603868,4.14216634 12.5698646,4.12232108 C12.4107544,4.06208897 12.2422437,4.03945841 12.0775629,4.00185687 C11.569942,3.86189555 11.0511799,3.76649903 10.545648,3.61992263 C10.3948936,3.5868472 10.2399613,3.56874275 10.0930368,3.51860735 C10.0575242,3.50781431 10.0220116,3.49702128 9.98649903,3.48622824 C9.8949323,3.46916828 9.80371373,3.44967118 9.71319149,3.42704062 C9.56765957,3.37237911 9.4134236,3.3511412 9.2612766,3.32433269 C9.22646035,3.31145068 9.19199226,3.29891683 9.15717602,3.28673114 C8.71535783,3.18541586 8.27736944,3.07017408 7.83450677,2.97547389 C7.78646035,2.95806576 7.73806576,2.94170213 7.69001934,2.92394584 C7.58800774,2.90305609 7.48564797,2.88425532 7.38259188,2.86893617 C7.33454545,2.85222437 7.2868472,2.83655706 7.23914894,2.81914894 C7.14793037,2.79895551 7.05636364,2.78015474 6.96444874,2.76239845 C6.92893617,2.75090909 6.89377176,2.74011605 6.85825919,2.72897485 C6.70994197,2.68371373 6.55744681,2.65446809 6.40529981,2.62765957 C6.37083172,2.61512573 6.33636364,2.6032882 6.30189555,2.59145068 C5.88096712,2.49883946 5.46491296,2.38777563 5.04398453,2.29516441 C5.02866538,2.29098646 4.99767892,2.2822824 4.98201161,2.27810445 C4.83473888,2.22588008 4.67841393,2.21021277 4.52696325,2.17539652 C4.47891683,2.15764023 4.43052224,2.1412766 4.38247582,2.12421663 C4.29125725,2.10680851 4.20003868,2.08905222 4.10916828,2.0688588 C3.96363636,2.0131528 3.81009671,1.98704062 3.65655706,1.9640619 C3.62139265,1.95187621 3.58622824,1.93969052 3.55071567,1.927853 C3.38847195,1.87945841 3.21856867,1.8610058 3.05911025,1.80181818 M2.5232882,1.74750484 C2.58073501,1.872147 2.63226306,1.99957447 2.67578337,2.12978723 C3.78990329,5.21729207 4.89775629,8.30549323 6.01466151,11.3923017 C6.74615087,13.4325338 7.48251451,15.4717215 8.21748549,17.5119536 C8.27249516,17.6895164 8.3612766,17.8569826 8.38564797,18.0435977 C8.44866538,17.8952805 8.44727273,17.7323404 8.46085106,17.5746228 C8.48174081,17.1794584 8.55485493,16.7898646 8.58340426,16.3953965 C8.60185687,15.9950097 8.68750484,15.6015861 8.7017795,15.2008511 C8.73067698,14.8648743 8.78951644,14.5316828 8.80901354,14.1946615 C8.82816248,13.8691296 8.89152805,13.548472 8.91381044,13.2232882 C8.92286267,13.0088201 8.95802708,12.796441 8.97195358,12.5823211 C9.03079304,12.2383366 9.04263056,11.8863443 9.07779497,11.5388781 C9.14116054,11.2060348 9.14916828,10.8655319 9.18433269,10.529207 C9.21566731,10.4219729 9.19791103,10.3077756 9.22994197,10.2005416 C9.24073501,10.0852998 9.2529207,9.97005803 9.26615087,9.85516441 C8.61856867,9.08676983 7.97794971,8.31210832 7.33489362,7.53953578 C5.73195358,5.60793037 4.12309478,3.68154739 2.5232882,1.74750484 M2.21272727,1 L2.45644101,1 C2.82479691,1.12185687 3.20916828,1.18800774 3.58413926,1.28723404 C3.99079304,1.387853 4.39883946,1.48290135 4.80618956,1.58108317 C4.8215087,1.58630561 4.85249516,1.59744681 4.86816248,1.60266925 C5.79984526,1.82444874 6.73117988,2.04622824 7.66007737,2.27880077 C7.80978723,2.31953578 7.96332689,2.34147002 8.11373308,2.38011605 C8.12940039,2.38603482 8.16073501,2.39752418 8.17640232,2.40344294 C8.31705996,2.43582205 8.45876209,2.46402321 8.59628627,2.50754352 C8.74564797,2.54862669 8.89918762,2.57125725 9.04889749,2.61094778 C10.9529981,3.07922631 12.8595358,3.53705996 14.7646809,3.99907157 C15.5995745,4.56866538 16.4205416,5.15880077 17.2526499,5.73222437 C17.3480464,5.79558994 17.4594584,5.86522244 17.4841779,5.98638298 C17.5071567,6.10023211 17.5242166,6.22940039 17.4702515,6.33663443 C14.6546615,10.4275435 11.8429014,14.5222824 9.03009671,18.6156286 C8.92529981,18.7475822 8.85914894,18.929323 8.69551257,19 L8.45736944,19 C8.29686654,18.9456867 8.25891683,18.7726499 8.21539652,18.6302515 C6.14243714,12.8806963 4.07156673,7.13044487 2,1.38019342 L2,1.2384913 C2.04769826,1.14065764 2.11454545,1.05152805 2.21272727,1" id="Sign"></path>
        </g>
    </g>
</svg>