<?xml version="1.0" encoding="UTF-8"?>
<svg width="20px" height="20px" viewBox="0 0 20 20" version="1.1" xmlns="http://www.w3.org/2000/svg" xmlns:xlink="http://www.w3.org/1999/xlink">
    <!-- Generator: sketchtool 49.3 (51167) - http://www.bohemiancoding.com/sketch -->
    <title>A7D27711-76BF-4A14-952A-A670BA3E89BC</title>
    <desc>Created with sketchtool.</desc>
    <defs></defs>
    <g id="Coins" stroke="none" stroke-width="1" fill="none" fill-rule="evenodd">
        <g id="Coins/Waves-WAVES" fill="#0099F7">
            <path d="M15.1844616,8.1622832 C15.3045829,8.05245691 15.4575164,7.99624408 15.6093678,7.99625688 C15.7588696,7.99626969 15.9073342,8.05077949 16.0222184,8.1622832 L16.9961985,9.08858481 C17.7862704,9.8377968 18.5423009,10.1579154 17.4661582,11.2340645 L11.2476814,17.4525349 C10.5597657,18.1404442 9.44275665,18.1404442 8.75484096,17.4525349 L2.53637055,11.2340645 C1.41254936,10.1034248 2.27754825,9.75606411 3.1016872,8.99322787 L4.00074031,8.1622832 C4.23746802,7.94434005 4.6017694,7.94434005 4.83849711,8.1622832 L6.43909015,9.64027721 C6.87499566,10.0489406 7.54929349,10.0489406 7.99201113,9.64027721 L9.59260417,8.1622832 C9.82933188,7.94434645 10.1936269,7.94434645 10.430361,8.1622832 L12.0309476,9.64027721 C12.4668595,10.0489406 13.1411509,10.0489406 13.5838686,9.64027721 L15.1844616,8.1622832 Z M8.75484096,2.51593516 C9.09880201,2.17198052 9.55002839,2 10.0012612,2 C10.452494,2 10.9037268,2.17198052 11.2476814,2.51593516 L15.2185158,6.4867696 C15.4432775,6.7183434 15.4432775,7.0929462 15.2185158,7.31771428 L14.0197741,8.5096439 L13.2228836,9.25205017 C12.9844977,9.46999972 12.6235064,9.46999972 12.3851204,9.25205017 L10.7845274,7.77405616 C10.3486219,7.36539274 9.67433045,7.36539274 9.23161922,7.77405616 L7.63101978,9.25205017 C7.39263385,9.46999972 7.0316489,9.46999972 6.79326298,9.25205017 L5.99637252,8.5096439 L4.79763077,7.31090855 C4.56605697,7.07933475 4.56605697,6.71153128 4.79763077,6.47995748 L8.75484096,2.51593516 Z" id="Sign"></path>
        </g>
    </g>
</svg>