<?xml version="1.0" encoding="UTF-8"?>
<svg width="20px" height="20px" viewBox="0 0 20 20" version="1.1" xmlns="http://www.w3.org/2000/svg" xmlns:xlink="http://www.w3.org/1999/xlink">
    <!-- Generator: sketchtool 49.3 (51167) - http://www.bohemiancoding.com/sketch -->
    <title>81FF8FFE-E32C-40ED-B4A6-FA269D6878D0</title>
    <desc>Created with sketchtool.</desc>
    <defs></defs>
    <g id="Coins" stroke="none" stroke-width="1" fill="none" fill-rule="evenodd">
        <g id="Coins/WAX-WAX" fill="#0099F7">
            <path d="M10,18 C5.581722,18 2,14.418278 2,10 C2,5.581722 5.581722,2 10,2 C14.418278,2 18,5.581722 18,10 C18,14.418278 14.418278,18 10,18 Z M14.2287181,7.19999981 L13.7474016,8.52170236 L14.7560629,11.303687 L16.2497525,7.19999981 L14.2287181,7.19999981 Z M8.76435288,7.19999981 L7.26769364,11.3116058 L5.77152932,7.19999981 L3.75024746,7.19999981 L5.93386538,13.1999998 L8.6015219,13.1999998 L10.0036501,9.34773552 L11.4057783,13.1999998 L13.424338,13.1999998 L12.6963004,11.1930708 L11.2429473,7.19999981 L8.76435288,7.19999981 Z" id="Sign"></path>
        </g>
    </g>
</svg>