<?xml version="1.0" encoding="UTF-8"?>
<svg width="20px" height="20px" viewBox="0 0 20 20" version="1.1" xmlns="http://www.w3.org/2000/svg" xmlns:xlink="http://www.w3.org/1999/xlink">
    <!-- Generator: sketchtool 49.3 (51167) - http://www.bohemiancoding.com/sketch -->
    <title>3C6A483E-3515-413F-B174-480C76D632BD</title>
    <desc>Created with sketchtool.</desc>
    <defs></defs>
    <g id="Coins" stroke="none" stroke-width="1" fill="none" fill-rule="evenodd">
        <g id="Coins/WeTrust-TRST" fill="#0099F7">
            <path d="M9.43016166,3.70852736 C7.98315277,3.83182469 6.5900531,4.48247162 5.56204161,5.50674682 C4.5249563,6.52248195 3.85722922,7.90650779 3.71631798,9.35191542 C3.56366415,10.7850467 3.92288104,12.2672834 4.72031051,13.4682314 C5.56951418,14.763654 6.90763712,15.7302837 8.40962274,16.1151208 C9.76856212,16.4695339 11.245995,16.3558441 12.53181,15.7884629 C13.9740151,15.1613012 15.162153,13.9736971 15.7898485,12.5309582 C16.4004638,11.1453311 16.4842633,9.53766204 16.0252343,8.09545694 C15.5944943,6.71890366 14.6700312,5.50781433 13.4648132,4.71785743 C12.2857491,3.93697435 10.8376727,3.5761562 9.43016166,3.70852736 M8.74748945,2.09498701 C10.3071206,1.85586492 11.9393423,2.06723177 13.3703386,2.7402964 C14.9646638,3.47634408 16.2995842,4.75575401 17.1055537,6.31591889 C17.7780846,7.60440265 18.0823248,9.0802343 17.9809114,10.529912 C17.8827005,12.2315218 17.2021633,13.8888301 16.0967574,15.1837189 C14.9651975,16.5213081 13.3820812,17.4687226 11.6665937,17.8279395 C10.1176377,18.1508611 8.47047078,18.0195574 7.00264545,17.4217522 C5.40671901,16.7801791 4.03230075,15.6064526 3.146268,14.1322222 C2.30240188,12.742325 1.9042209,11.0898206 2.01951191,9.46827394 C2.11505399,7.81683701 2.75929587,6.20703294 3.80812379,4.93029178 C5.03415825,3.42350237 6.82650641,2.39122085 8.74748945,2.09498701 Z M6.35893733,6.14938744 C6.35840357,6.76160404 6.35893733,7.37382064 6.35840357,7.98657099 C7.20120219,7.98710474 8.0440008,7.98496973 8.88626566,7.9876385 C8.8857319,10.2043216 8.88679941,12.4215385 8.8857319,14.6382216 C9.62231334,14.6387554 10.3594285,14.6355528 11.09601,14.6398229 C11.0970775,12.420471 11.0970775,10.2011191 11.09601,7.9817672 C11.9446799,7.98069969 12.792816,7.9817672 13.641486,7.98123344 L13.641486,6.14938744 C11.2139697,6.14885368 8.78645354,6.14885368 6.35893733,6.14938744 Z" id="Sign"></path>
        </g>
    </g>
</svg>