<?xml version="1.0" encoding="UTF-8"?>
<svg width="20px" height="20px" viewBox="0 0 20 20" version="1.1" xmlns="http://www.w3.org/2000/svg" xmlns:xlink="http://www.w3.org/1999/xlink">
    <!-- Generator: sketchtool 49.3 (51167) - http://www.bohemiancoding.com/sketch -->
    <title>9571AE66-C050-4C9F-8335-611D5639C266</title>
    <desc>Created with sketchtool.</desc>
    <defs></defs>
    <g id="Coins" stroke="none" stroke-width="1" fill="none" fill-rule="evenodd">
        <g id="Coins/Xaurum-XAUR" fill="#0099F7">
            <path d="M10.0849358,8.11137051 L15.9873152,2.0791449 C16.0496126,2.01535711 16.1587076,1.99955921 16.2520046,2.03115502 C16.3453017,2.06304891 16.4075991,2.15873059 16.4075991,2.25411418 L16.4075991,5.00771943 C16.4075991,5.23038052 16.3298019,5.42144579 16.1742074,5.58061717 L12.2029709,9.63948735 C12.0470783,9.79865873 11.8601861,9.87824441 11.6422942,9.87824441 L8.68331613,9.87824441 C8.67641473,9.87292802 8.66951332,9.86761528 8.66259084,9.86232728 L8.54319167,9.86232728 C8.30950185,9.86232728 8.09160994,9.7666456 7.92021754,9.60747423 L3.99577862,5.59659392 C3.82438622,5.42162463 3.74658897,5.19866547 3.74658897,4.9599084 L3.74658897,2.23819705 C3.74658897,2.14281345 3.80888639,2.04713178 3.90248154,2.01523789 C4.01127846,1.98364207 4.10487361,1.99943998 4.18267086,2.07902567 L10.0849358,8.11137051 Z M9.96809827,8.23077835 L4.05807604,2.19050525 C4.02707637,2.15861136 3.98027879,2.17440926 3.98027879,2.17440926 C3.98027879,2.17440926 3.93348121,2.19050525 3.93348121,2.23819705 L3.93348121,4.9599084 C3.93348121,5.15097367 4.01127846,5.34203895 4.13587328,5.46931643 L8.0603122,9.48019674 C8.19684315,9.61962643 8.36240991,9.68350665 8.54330514,9.68691546 L9.96809827,8.23077835 Z M12.0511321,10.4848543 L15.987494,14.477254 C16.1418962,14.6337427 16.2190973,14.8215292 16.2190973,15.0409115 L16.2190973,17.7650074 C16.2190973,17.8589007 16.157396,17.953092 16.0801949,17.9843897 C15.987494,18.0156874 15.8947931,17.9998895 15.817592,17.937294 L10.0597015,12.0974332 L11.3101208,10.8294275 C11.3411205,10.7981298 11.3411205,10.7510341 11.3101208,10.7197364 C11.2794192,10.6884387 11.2329197,10.6884387 11.2022181,10.7197364 L9.95179876,11.9877421 L4.10120731,17.9217942 C4.02400621,17.9843897 3.93160335,18.0156874 3.83890241,17.9685918 C3.74620148,17.9217942 3.70000005,17.8434008 3.70000005,17.7495076 L3.70000005,15.0722092 C3.70000005,14.8373271 3.79240291,14.6182429 3.94680511,14.4459563 L7.83696554,10.5006522 C8.00686758,10.3283656 8.22297104,10.2499722 8.45427627,10.2499722 L10.1524024,10.2499722 L11.4335233,10.2499722 L11.4955227,10.2499722 C11.7116261,10.2499722 11.8967299,10.3283656 12.0511321,10.4848543 Z M16.1897072,2.17452849 C16.1742074,2.17452849 16.1429097,2.15873059 16.11191,2.1903264 L8.76111338,9.70297705 L11.6422942,9.70297705 C11.7978887,9.70297705 11.9537813,9.63948735 12.0783761,9.51220986 L16.0496126,5.45333968 C16.1742074,5.3418601 16.2365048,5.18268872 16.2365048,5.00771943 L16.2365048,2.25411418 C16.2365048,2.1903264 16.2052071,2.17452849 16.1897072,2.17452849 Z" id="Sign"></path>
        </g>
    </g>
</svg>