<?xml version="1.0" encoding="UTF-8"?>
<svg width="20px" height="20px" viewBox="0 0 20 20" version="1.1" xmlns="http://www.w3.org/2000/svg" xmlns:xlink="http://www.w3.org/1999/xlink">
    <!-- Generator: sketchtool 49.3 (51167) - http://www.bohemiancoding.com/sketch -->
    <title>31C50EF9-F395-467E-BE51-39E025158AF9</title>
    <desc>Created with sketchtool.</desc>
    <defs></defs>
    <g id="Coins" stroke="none" stroke-width="1" fill="none" fill-rule="evenodd">
        <g id="Coins/XMO" fill="#0099F7">
            <path d="M8.08820674,2.25694505 C9.84551011,1.82778617 11.7490307,2.00931888 13.3858846,2.78210393 C14.0483566,3.09253383 14.667982,3.49417869 15.220791,3.97298243 C13.5557723,5.63309458 10.074424,9.12049645 9.98243895,9.18658991 C8.24580974,7.44662729 6.50019176,5.71533757 4.7653603,3.97358056 C5.71397453,3.1472628 6.86513558,2.55481421 8.08820674,2.25694505 Z M3.56745169,5.2532815 C3.61239551,5.28767402 3.65524195,5.3250572 3.69449288,5.36573009 C4.086403,5.7634871 4.48969888,6.15107589 4.87681498,6.55272075 C4.84145918,6.63795439 4.78453034,6.71152449 4.73748914,6.79017869 C4.12535431,7.77769271 3.80415581,8.94344972 3.82722697,10.1047207 C3.83891236,11.8330198 4.64100974,13.5326086 5.95366891,14.6564964 C6.85014831,15.4400479 7.98123446,15.9544404 9.16265768,16.1108516 C10.4789124,16.2920852 11.8526951,16.0333936 13.0086502,15.3781413 C13.9296989,14.8616553 14.7129199,14.1044217 15.262433,13.2045338 C15.9371895,12.1057675 16.2482007,10.7907768 16.1394367,9.50688897 C16.0825079,8.7957114 15.8979386,8.09589832 15.6007101,7.44722542 C15.4610846,7.13290766 15.2798112,6.84012262 15.0997363,6.54763664 C15.507227,6.14808523 15.9093243,5.74285159 16.3126202,5.33881421 C16.3464779,5.31309458 16.3719461,5.2532815 16.4228824,5.27002916 C17.0934442,6.17141234 17.5680509,7.21814131 17.8047551,8.31601047 C18.0879011,9.62711327 18.0363655,11.0096927 17.6519461,12.2947768 C17.3226577,13.4004217 16.7470772,14.4318983 15.980036,15.2947021 C15.2186876,16.1566086 14.2673768,16.8507394 13.2138936,17.3136927 C11.9869273,17.8570946 10.6206352,18.0757114 9.28430562,17.9575806 C8.09179625,17.8550011 6.92385618,17.4775806 5.8970397,16.8630011 C4.80071011,16.2101413 3.86468015,15.2911133 3.19441798,14.206403 C2.17629064,12.5854684 1.79336929,10.5898049 2.10617828,8.70509458 C2.27097228,7.69784224 2.63441798,6.72408523 3.16745169,5.85320673 C3.2899985,5.64625346 3.43291985,5.45216 3.56745169,5.2532815 Z M6.1487221,7.81896374 C7.4335161,9.09447776 8.71171835,10.3762721 9.99411536,11.6538796 C11.2738157,10.3741787 12.5514187,9.0923843 13.834415,7.81597308 C14.4522427,8.88722542 14.5870742,10.2204591 14.1948644,11.3930946 C13.8646772,12.3988516 13.1566622,13.2730198 12.244003,13.8110385 C11.2938906,14.3789637 10.1259506,14.5622908 9.0452015,14.3242348 C8.32430262,14.1678236 7.64535131,13.8250946 7.08984569,13.3406086 C6.3899206,12.7347021 5.88714906,11.9047955 5.68100674,11.0028142 C5.4311191,9.93245907 5.60100674,8.7723843 6.1487221,7.81896374 Z" id="Sign"></path>
        </g>
    </g>
</svg>