<?xml version="1.0" encoding="UTF-8"?>
<svg width="20px" height="20px" viewBox="0 0 20 20" version="1.1" xmlns="http://www.w3.org/2000/svg" xmlns:xlink="http://www.w3.org/1999/xlink">
    <!-- Generator: sketchtool 49.3 (51167) - http://www.bohemiancoding.com/sketch -->
    <title>395CEC80-AAE8-4BCB-93E7-6777F51B624E</title>
    <desc>Created with sketchtool.</desc>
    <defs></defs>
    <g id="Coins" stroke="none" stroke-width="1" fill="none" fill-rule="evenodd">
        <g id="Coins/Zcash-ZEC" fill="#0099F7">
            <path d="M14.4014376,14.4000008 C13.2257579,15.5737605 11.6627182,16.2217604 10.0007185,16.2217604 C8.33871879,16.2217604 6.77599909,15.5740005 5.59999931,14.4000008 C4.42615954,13.224001 3.77839966,11.6611213 3.77839966,9.9991216 C3.77839966,8.33712191 4.42415954,6.77440221 5.60015931,5.59840243 C6.77583909,4.42464266 8.33887879,3.77664278 10.0008785,3.77664278 L10.0007185,3.77680278 C11.6627182,3.77680278 13.2254379,4.42456266 14.4014376,5.59856243 C15.5751974,6.77424221 16.2231973,8.33728191 16.2231973,9.9992816 C16.2231973,11.6612813 15.5754374,13.224001 14.4014376,14.4000008 M13.1147179,2.626963 C16.0777333,3.87709075 18.0027969,6.78142619 17.9999969,9.99736156 C17.9999969,11.0773614 17.788157,12.1248011 17.3713571,13.111201 C16.5585252,15.0286726 15.0321655,16.5551043 13.1147179,17.3680001 C12.1279981,17.78816 11.0811183,18 10.0008785,18 C8.92087868,18 7.87343888,17.78816 6.88703907,17.3713601 C4.96962343,16.5584963 3.44326372,15.0321366 2.63039988,13.114721 C2.21183996,12.1265611 2,11.0793613 2,9.99912156 C2,8.91888177 2.21183996,7.87200198 2.62863988,6.88528217 C3.87877564,3.92224275 6.78315109,1.99717112 9.99911847,2.00000312 C11.0775983,2.00000312 12.1279981,2.21016308 13.1147179,2.626963 Z M10.3536776,11.0688814 C11.0466375,10.2682415 11.7221573,9.48680169 12.3977572,8.68616185 C12.6113572,8.43776189 12.9308771,8.18944194 12.9847171,7.90464199 C13.0906371,7.3697621 13.0194371,6.8018422 13.0194371,6.21488232 L10.8674375,6.21488232 L10.8674375,4.79256259 L9.14295784,4.79256259 L9.14295784,6.24968231 L7.17007821,6.24968231 L7.17007821,7.99120198 L10.4940776,7.99120198 C10.1918376,8.32816191 9.92615769,8.61296186 9.65871774,8.9151218 C8.96575787,9.71576165 8.290238,10.4972015 7.61463813,11.2978413 C7.41839817,11.5462413 7.09887823,11.7945613 7.04503824,12.0793612 C6.93911826,12.6125611 7.01031824,13.180481 7.01031824,13.7500809 L9.14471784,13.7500809 L9.14471784,15.1900806 L10.9405575,15.1900806 C10.9058375,14.6930407 10.8867175,14.2314408 10.8519975,13.7330409 L12.9863971,13.7330409 L12.9863971,11.9911212 L9.51999777,11.9911212 L9.52007777,11.9910412 C9.82399771,11.6697613 10.0896777,11.3867213 10.3536776,11.0688814 Z" id="Sign"></path>
        </g>
    </g>
</svg>