<?xml version="1.0" encoding="UTF-8"?>
<svg width="20px" height="20px" viewBox="0 0 20 20" version="1.1" xmlns="http://www.w3.org/2000/svg" xmlns:xlink="http://www.w3.org/1999/xlink">
    <!-- Generator: sketchtool 49.3 (51167) - http://www.bohemiancoding.com/sketch -->
    <title>F6B6931F-E705-4EAD-90DD-22975CCB0076</title>
    <desc>Created with sketchtool.</desc>
    <defs></defs>
    <g id="Coins" stroke="none" stroke-width="1" fill="none" fill-rule="evenodd">
        <g id="Coins/Zclassic-ZCL" fill="#0099F7">
            <path d="M14.8821939,6.02636667 C15.6651171,6.98759064 16.1771603,8.17511943 16.2788832,9.41522408 C16.4411826,11.018788 15.9062803,12.6554975 14.8947664,13.9024599 C15.2445102,14.2476319 15.5896821,14.5950898 15.9405689,14.9391188 C17.1292406,13.5458584 17.8207276,11.7194185 17.7670087,9.88154915 C17.7910108,8.09168382 17.0869514,6.33267823 15.9451407,4.96799164 C15.5919681,5.3211643 15.2376524,5.67433696 14.8821939,6.02636667 M5.26881117,6.36010912 C7.01981608,6.36125207 8.76967804,6.36010912 10.5206829,6.36125207 C10.1595096,6.99673427 9.79376446,7.62993057 9.43716294,8.26769867 C7.72158959,8.27112753 6.00715919,8.26769867 4.2927288,8.26998458 C3.67667681,10.278154 4.23672407,12.5754908 5.69627582,14.0830466 C6.98552747,15.451162 8.94912175,16.1495067 10.8132791,15.8980569 C12.3928409,15.7140413 13.8569645,14.8522543 14.8387616,13.6087208 C12.1265327,13.6018631 9.41316091,13.6132926 6.69978907,13.6018631 C8.09304951,11.1959458 9.46345087,8.77631302 10.8441388,6.36353798 C11.6476352,6.35553731 12.4511316,6.36353798 13.2546279,6.36010912 C12.2328274,8.12482947 11.2430296,9.90898004 10.2120855,11.6691286 C12.0865294,11.6702715 13.9598303,11.6714145 15.8342742,11.6679856 C16.4046081,9.71810679 15.9211387,7.50306272 14.5473085,5.99893578 C13.2111957,4.48109341 11.0670148,3.73360176 9.07713255,4.07877374 C7.57872039,4.32222286 6.19117472,5.15429308 5.26881117,6.36010912 M8.22448917,2.1906144 C9.73433087,1.86601558 11.3413236,1.94945119 12.7917317,2.4912112 C14.9199113,3.26156192 16.676631,4.9862789 17.4846992,7.0996001 C17.981884,8.33741884 18.0836069,9.70096248 17.9407377,11.017645 C17.7041463,12.8097963 16.8217861,14.5059394 15.5005318,15.7369004 C14.0352653,17.1210172 12.0236669,17.9439438 10.0006391,17.8799384 C8.43822149,17.9336572 6.88266165,17.4399013 5.5808375,16.5884009 C3.85726348,15.4557338 2.5908709,13.6384376 2.16912102,11.6165527 C1.82166313,9.91926662 2.0045357,8.10311335 2.76459984,6.53955283 C3.79554399,4.35651147 5.86886181,2.71065829 8.22448917,2.1906144" id="Sign"></path>
        </g>
    </g>
</svg>