<?xml version="1.0" encoding="UTF-8"?>
<svg width="124px" height="24px" viewBox="0 0 124 24" version="1.1" xmlns="http://www.w3.org/2000/svg" xmlns:xlink="http://www.w3.org/1999/xlink">
    <!-- Generator: sketchtool 49.3 (51167) - http://www.bohemiancoding.com/sketch -->
    <title>22553008-6831-4432-B32F-FB848A45EF3A</title>
    <desc>Created with sketchtool.</desc>
    <defs></defs>
    <g id="Symbols" stroke="none" stroke-width="1" fill="none" fill-rule="evenodd">
        <g id="logo/home-light">
            <path d="M0.365942295,11.4950439 C0.365942295,9.08619148 2.3174177,7.6227882 5.03098492,7.6227882 C7.28737836,7.6227882 8.93373246,8.44606689 9.75701115,9.23865049 L8.59832262,11.0988538 C7.77504393,10.3668472 6.58606689,9.75701115 5.15295213,9.75701115 C3.78082098,9.75701115 2.9575423,10.5500013 2.9575423,11.4647554 C2.9575423,14.3612734 10.3668472,12.9891423 10.3668472,17.8066439 C10.3668472,20.7033652 7.80573902,21.9533259 5.06147672,21.9533259 C2.83557508,21.9533259 0.640368525,20.7946374 4.06557377e-05,19.8188997 L1.37196852,18.0810702 C2.16495869,18.995621 3.9637718,19.8188997 5.33590295,19.8188997 C6.61655869,19.8188997 7.77504393,19.1787751 7.77504393,17.9286111 C7.77504393,15.1540603 0.365942295,16.5259882 0.365942295,11.4950439" id="Fill-1" fill="#FFFFFF"></path>
            <path d="M15.4409272,0.304999344 L17.8800682,0.304999344 L17.8800682,9.51332066 C18.8862977,8.47659934 20.6243305,7.68381246 22.3623633,7.68381246 C25.929701,7.68381246 28.0641272,9.48262557 28.0641272,13.7819698 L28.0641272,21.6484485 L25.624783,21.6484485 L25.624783,14.1171764 C25.624783,11.3731174 24.3136354,9.9706977 21.7828157,9.9706977 C20.2584289,9.9706977 18.7338387,10.7327895 17.8800682,11.7085272 L17.8800682,21.6484485 L15.4409272,21.6484485 L15.4409272,0.304999344 Z" id="Fill-4" fill="#FFFFFF"></path>
            <path d="M34.1168721,21.6483672 L36.5560131,21.6483672 L36.5560131,7.92766557 L34.1168721,7.92766557 L34.1168721,21.6483672 Z M35.3975279,1.31135082 C36.159823,1.31135082 36.8916262,1.8904918 36.8916262,2.7747541 C36.8916262,3.78098361 36.159823,4.36032787 35.3975279,4.36032787 C34.5437574,4.36032787 33.8119541,3.78098361 33.8119541,2.7747541 C33.8119541,1.8904918 34.5437574,1.31135082 35.3975279,1.31135082 Z" id="Fill-6" fill="#FFFFFF"></path>
            <path d="M43.5356682,5.70180459 C43.5356682,1.89053246 45.3039895,4.06557377e-05 48.3531698,4.06557377e-05 C49.9997272,4.06557377e-05 51.3106715,0.548893115 52.011983,1.21971279 L51.1582125,3.07971279 C50.5788682,2.59184393 49.7860813,2.2869259 48.74936,2.2869259 C47.0115305,2.2869259 45.9748092,3.41512262 45.9748092,5.9764341 L45.9748092,7.92770623 L50.5483764,7.92770623 L50.5483764,10.2143882 L45.9748092,10.2143882 L45.9748092,21.6484079 L43.5356682,21.6484079 L43.5356682,5.70180459 Z" id="Fill-8" fill="#FFFFFF"></path>
            <path d="M55.6027587,4.11647475 L58.0418997,4.11647475 L58.0418997,7.92774689 L63.0728439,7.92774689 L63.0728439,10.2144289 L58.0418997,10.2144289 L58.0418997,16.190619 C58.0418997,18.355537 58.7432111,19.6054977 60.4812439,19.6054977 C61.4262866,19.6054977 62.1580898,19.2091043 62.6459587,18.8432026 L63.4082538,20.7336944 C62.6766538,21.3435305 61.4262866,21.892383 59.9018997,21.892383 C56.8224308,21.892383 55.6027587,19.9411108 55.6027587,16.4345534 L55.6027587,4.11647475 Z" id="Fill-9" fill="#FFFFFF"></path>
            <path d="M68.4255987,7.92774689 L70.8647397,7.92774689 L70.8647397,9.60459279 C71.8099856,8.56787148 73.5478151,7.68381246 75.3470348,7.68381246 C78.9143725,7.68381246 81.0487987,9.42184525 81.0487987,13.7209862 L81.0487987,21.6484485 L78.6094544,21.6484485 L78.6094544,14.1783633 C78.6094544,11.3121338 77.2983069,9.9706977 74.7371987,9.9706977 C73.1819134,9.9706977 71.749002,10.7327895 70.8647397,11.739019 L70.8647397,21.6484485 L68.4255987,21.6484485 L68.4255987,7.92774689 Z" id="Fill-10" fill="#0099F7"></path>
            <path d="M92.8875259,19.6665016 C95.6317882,19.6665016 97.6135521,17.7150262 97.6135521,14.7880164 C97.6135521,11.9219902 95.6317882,9.90953115 92.8875259,9.90953115 C90.2044505,9.90953115 88.1614997,11.8914984 88.1614997,14.7880164 C88.1614997,17.6542459 90.1434669,19.6665016 92.8875259,19.6665016 M92.8875259,7.62284918 C97.2783456,7.62284918 100.205355,10.6718262 100.205355,14.7880164 C100.205355,18.9044098 97.2783456,21.9533869 92.8875259,21.9533869 C88.4969095,21.9533869 85.5698997,18.9044098 85.5698997,14.7880164 C85.5698997,10.6718262 88.4969095,7.62284918 92.8875259,7.62284918" id="Fill-11" fill="#0099F7"></path>
            <path d="M119.528743,21.7703548 L117.394317,21.7703548 L113.979438,12.836663 C113.765995,12.2880138 113.613536,11.738958 113.461077,11.159817 C113.278127,11.7999416 113.125668,12.3487941 112.881733,12.9281384 L109.55833,21.7703548 L107.545871,21.7703548 L103.002795,7.9276859 L105.62509,7.9276859 L108.308166,16.5869515 C108.521609,17.2577711 108.643576,17.8676072 108.826527,18.5079351 C109.009477,17.898099 109.131445,17.3492466 109.405871,16.5869515 L112.515831,7.9276859 L114.619766,7.9276859 L117.760218,16.556663 C118.004153,17.1967875 118.187104,17.8676072 118.400546,18.5384269 C118.553005,17.8371154 118.735956,17.1358039 118.949195,16.4344925 L121.449523,7.9276859 L123.919359,7.9276859 L119.528743,21.7703548 Z" id="Fill-12" fill="#0099F7"></path>
        </g>
    </g>
</svg>